<svg width="56" height="288" viewBox="0 0 56 288" fill="none" xmlns="http://www.w3.org/2000/svg">
<path d="M33.7126 124.936C33.7126 124.936 42.1318 117.545 42.6275 75.4063C43.1233 33.2678 43.1233 7.39531 56 1.52588e-05C56 1.52588e-05 48.5723 3.69543 47.085 20.7015C45.5977 37.7031 46.5229 94.1537 41.1402 109.414C36.187 123.46 33.7126 124.936 33.7126 124.936Z" fill="#DFB68D"/>
<path d="M33.7126 163.064C33.7126 163.064 42.1318 170.455 42.6275 212.594C43.1233 254.732 43.1233 280.605 56 288C56 288 48.5723 284.305 47.085 267.299C45.5977 250.297 46.5229 193.846 41.1402 178.586C36.187 164.544 33.7126 163.064 33.7126 163.064Z" fill="#DFB68D"/>
<path d="M27.7323 204.547C27.7323 204.547 27.688 204.565 27.5951 204.6C27.5065 204.64 27.3649 204.676 27.2011 204.764C26.8603 204.919 26.3556 205.194 25.82 205.699C25.55 205.952 25.28 206.262 25.0144 206.63C24.7577 207.002 24.5142 207.436 24.3062 207.924C23.8857 208.898 23.6112 210.099 23.5625 211.437C23.5183 212.775 23.6643 214.255 24.169 215.789C24.2929 216.174 24.4434 216.555 24.6205 216.941C24.7931 217.335 25.0189 217.689 25.2269 218.075C25.6961 218.81 26.2583 219.533 26.94 220.18C28.3166 221.456 30.1448 222.408 32.119 222.798C34.0888 223.206 36.1736 223.171 38.1966 222.776C40.9587 222.253 43.4597 221.159 45.6021 219.781C46.6733 219.085 47.656 218.314 48.5192 217.459C48.7272 217.242 48.9485 217.025 49.1389 216.808C49.3292 216.591 49.5196 216.378 49.7055 216.165C49.8958 215.957 50.064 215.726 50.2411 215.514C50.4137 215.297 50.5908 215.084 50.7457 214.862C51.4052 213.994 51.9586 213.108 52.4543 212.253C52.9236 211.38 53.3441 210.542 53.6539 209.723C54.3046 208.096 54.641 206.616 54.8181 205.411C55.1855 204.25 55.5175 202.77 55.668 201.029C55.8185 199.288 55.7698 197.289 55.4466 195.145C54.8225 190.842 53.0563 186.039 50.5554 181.333C48.7184 177.864 46.6954 174.74 44.7965 171.966C42.8931 169.192 41.1092 166.755 39.6263 164.704C38.139 162.652 36.9571 160.982 36.1559 159.808C35.7531 159.223 35.4477 158.762 35.2441 158.452C35.036 158.142 34.9298 157.973 34.9298 157.973C34.9298 157.973 35.005 158.155 35.1467 158.5C35.2883 158.846 35.5097 159.356 35.8062 160.003C36.3994 161.301 37.3157 163.153 38.533 165.386C39.7503 167.624 41.2685 170.243 42.9506 173.127C44.6327 176.016 46.483 179.171 48.2669 182.538C50.697 187.111 52.6226 191.533 53.5875 195.504C54.0789 197.484 54.34 199.341 54.4109 200.993C54.4817 202.646 54.3799 204.095 54.2028 205.265C53.5078 207.52 52.0338 210.666 49.2761 213.657C49.1123 213.848 48.9308 214.029 48.7494 214.22C48.5679 214.406 48.3952 214.601 48.2005 214.783C48.0101 214.964 47.8198 215.15 47.625 215.337C47.4302 215.527 47.2355 215.687 47.0363 215.864C46.2351 216.551 45.3232 217.175 44.3406 217.747C42.3752 218.872 40.1088 219.785 37.7008 220.237C35.9346 220.583 34.1773 220.636 32.5705 220.37C30.9504 220.118 29.5206 219.457 28.3653 218.545C27.7943 218.075 27.3029 217.539 26.8603 216.972C26.6655 216.67 26.4398 216.387 26.276 216.085C26.1033 215.784 25.944 215.478 25.8068 215.164C25.2446 213.905 24.9525 212.607 24.8418 211.415C24.7356 210.219 24.8241 209.12 25.0676 208.194C25.1871 207.733 25.342 207.312 25.519 206.94C25.705 206.572 25.8997 206.249 26.1078 205.974C26.5194 205.424 26.9444 205.074 27.2454 204.862C27.3915 204.747 27.5198 204.685 27.5995 204.627C27.6925 204.569 27.7323 204.547 27.7323 204.547Z" fill="#DFB68D"/>
<path d="M27.7323 87.3213C27.7323 87.3213 27.688 87.3036 27.5951 87.2681C27.5065 87.2283 27.3649 87.1928 27.2011 87.1042C26.8603 86.9491 26.3556 86.6744 25.82 86.1692C25.55 85.9167 25.28 85.6065 25.0144 85.2388C24.7577 84.8666 24.5142 84.4323 24.3062 83.9449C23.8857 82.9701 23.6112 81.7693 23.5625 80.4311C23.5183 79.093 23.6643 77.6131 24.169 76.0799C24.2929 75.6944 24.4434 75.3134 24.6205 74.9279C24.7931 74.5335 25.0189 74.179 25.2269 73.7935C25.6961 73.058 26.2583 72.3358 26.94 71.6888C28.3166 70.4127 30.1448 69.4601 32.119 69.0701C34.0888 68.6625 36.1736 68.6979 38.1966 69.0923C40.9587 69.6151 43.4597 70.7096 45.6021 72.0876C46.6733 72.7833 47.656 73.5543 48.5192 74.4095C48.7272 74.6266 48.9485 74.8437 49.1389 75.0608C49.3292 75.2779 49.5196 75.4906 49.7055 75.7033C49.8958 75.9115 50.064 76.142 50.2411 76.3547C50.4137 76.5718 50.5908 76.7844 50.7457 77.006C51.4052 77.8745 51.9586 78.7607 52.4543 79.6158C52.9236 80.4887 53.3441 81.3262 53.6539 82.1459C54.3046 83.7721 54.641 85.252 54.8181 86.4573C55.1855 87.6182 55.5175 89.0981 55.668 90.8395C55.8185 92.5809 55.7698 94.5792 55.4466 96.7238C54.8225 101.026 53.0563 105.829 50.5554 110.535C48.7184 114.005 46.6954 117.128 44.7965 119.902C42.8931 122.676 41.1092 125.113 39.6263 127.165C38.139 129.216 36.9571 130.887 36.1559 132.061C35.7531 132.646 35.4477 133.107 35.2441 133.417C35.036 133.727 34.9298 133.895 34.9298 133.895C34.9298 133.895 35.005 133.714 35.1467 133.368C35.2883 133.022 35.5097 132.513 35.8062 131.866C36.3994 130.568 37.3157 128.715 38.533 126.482C39.7503 124.245 41.2685 121.626 42.9506 118.741C44.6327 115.852 46.483 112.697 48.2669 109.33C50.697 104.757 52.6226 100.335 53.5875 96.3649C54.0789 94.3843 54.34 92.5277 54.4109 90.8749C54.4817 89.2222 54.3799 87.7733 54.2028 86.6035C53.5078 84.3481 52.0338 81.2021 49.2761 78.2112C49.1123 78.0207 48.9308 77.839 48.7494 77.6485C48.5679 77.4624 48.3952 77.2674 48.2005 77.0858C48.0101 76.9041 47.8198 76.718 47.625 76.5319C47.4302 76.3413 47.2355 76.1818 47.0363 76.0046C46.2351 75.3178 45.3232 74.693 44.3406 74.1214C42.3752 72.996 40.1088 72.0832 37.7008 71.6312C35.9346 71.2856 34.1773 71.2324 32.5705 71.4983C30.9504 71.7509 29.5206 72.4111 28.3653 73.3239C27.7943 73.7935 27.3029 74.3297 26.8603 74.8968C26.6655 75.1982 26.4398 75.4817 26.276 75.783C26.1033 76.0844 25.944 76.3901 25.8068 76.7047C25.2446 77.9631 24.9525 79.2614 24.8418 80.4533C24.7356 81.6497 24.8241 82.7485 25.0676 83.6746C25.1871 84.1354 25.342 84.5564 25.519 84.9286C25.705 85.2963 25.8997 85.6198 26.1078 85.8945C26.5194 86.444 26.9444 86.794 27.2454 87.0067C27.3915 87.1219 27.5198 87.1839 27.5995 87.2415C27.6925 87.2947 27.7323 87.3213 27.7323 87.3213Z" fill="#DFB68D"/>
<path d="M33.9738 145.584C35.1424 146.541 36.4172 147.357 37.7496 148.092C39.0908 148.805 40.494 149.439 42.0123 149.829C42.7693 150.024 43.5572 150.161 44.3805 150.161C45.195 150.161 46.0582 150.033 46.8638 149.656C47.271 149.479 47.6384 149.209 47.9704 148.907C48.2758 148.602 48.5414 148.305 48.807 147.981C49.3072 147.308 49.7322 146.506 49.8517 145.571C49.9668 144.631 49.6436 143.63 49.0593 142.926C48.4839 142.203 47.7137 141.729 46.9169 141.437C46.1157 141.149 45.2746 141.029 44.4425 141.056C43.5882 141.104 42.8401 141.304 42.092 141.525C40.6135 141.986 39.228 142.607 37.878 143.289C36.5279 143.985 35.2176 144.725 33.9738 145.584ZM33.9738 145.584C36.7669 144.481 39.5645 143.364 42.393 142.677C43.0968 142.531 43.8139 142.407 44.4646 142.398C45.1286 142.412 45.7881 142.544 46.3857 142.793C46.9789 143.036 47.5277 143.391 47.8774 143.856C48.236 144.317 48.3909 144.853 48.3201 145.411C48.2581 145.97 47.9881 146.546 47.6074 147.077C47.4038 147.33 47.1692 147.605 46.9523 147.826C46.731 148.03 46.4964 148.212 46.2219 148.349C45.133 148.938 43.6634 148.885 42.2691 148.655C40.857 148.398 39.4494 147.946 38.0727 147.405C36.6784 146.882 35.3239 146.253 33.9738 145.584Z" fill="#DFB68D"/>
<path d="M0.00037384 146.497C0.00037384 146.497 0.0357819 146.563 0.106606 146.688C0.137592 146.754 0.190689 146.825 0.252659 146.909C0.310204 146.998 0.394321 147.086 0.487278 147.188C0.682045 147.383 0.947624 147.596 1.30617 147.76C1.66472 147.928 2.10295 148.048 2.612 148.105C3.62567 148.221 4.89164 148.079 6.29042 147.676C6.98981 147.472 7.72462 147.202 8.46385 146.838C8.83125 146.657 9.20306 146.453 9.55718 146.213C9.92901 145.965 10.3097 145.713 10.6992 145.451C12.2529 144.41 13.9394 143.254 15.5728 141.813C15.9801 141.45 16.3829 141.073 16.7768 140.675C17.1663 140.271 17.5515 139.855 17.9189 139.407C18.2818 138.96 18.6271 138.49 18.9502 137.998C19.2645 137.502 19.5522 136.979 19.8046 136.434C20.0569 135.889 20.2561 135.313 20.4198 134.719C20.5039 134.423 20.5615 134.121 20.619 133.816C20.6411 133.66 20.6633 133.51 20.6854 133.355C20.6987 133.279 20.7076 133.2 20.712 133.12L20.7341 132.881C20.8536 131.6 20.8536 130.284 20.6323 128.999C20.5128 128.361 20.349 127.727 20.0967 127.143C19.8532 126.553 19.5213 126.004 19.1096 125.556C18.6979 125.109 18.1977 124.768 17.6533 124.612C17.1132 124.453 16.5334 124.502 16.0155 124.736C15.8384 124.816 15.6702 124.923 15.5108 125.038C15.3515 125.157 15.201 125.295 15.0593 125.445C14.7805 125.751 14.5459 126.11 14.3511 126.496C13.966 127.275 13.7535 128.162 13.6517 129.057C13.603 129.504 13.5809 129.961 13.5809 130.413C13.5809 130.865 13.6074 131.316 13.6428 131.768C13.7269 132.637 13.935 133.497 14.205 134.334C14.475 135.171 14.807 135.982 15.1656 136.771C15.5241 137.56 15.9092 138.326 16.3076 139.066C17.1044 140.551 17.9454 141.955 18.7732 143.289C19.6009 144.623 20.4198 145.886 21.2033 147.086C21.9868 148.283 22.7305 149.417 23.4299 150.48C24.8242 152.607 26.0194 154.468 26.9533 156.006C27.967 157.49 29.1976 159.325 30.468 161.558C31.101 162.674 31.734 163.893 32.3183 165.236C32.6016 165.909 32.876 166.609 33.1195 167.349C33.3541 168.089 33.5577 168.865 33.6949 169.68C33.8277 170.495 33.8941 171.35 33.8277 172.232C33.7613 173.109 33.5533 174.013 33.1637 174.855C33.1195 174.962 33.0663 175.063 33.0088 175.165C32.9513 175.267 32.8982 175.369 32.8406 175.471C32.7831 175.573 32.7167 175.666 32.6547 175.768C32.5883 175.865 32.5263 175.963 32.4599 176.06C32.3891 176.153 32.3138 176.242 32.243 176.335L32.1324 176.473C32.097 176.517 32.0615 176.566 32.0173 176.61C31.9287 176.703 31.8491 176.796 31.7517 176.88C31.703 176.925 31.6587 176.964 31.61 177.009L31.4551 177.128L31.3754 177.186L31.2913 177.239L31.1231 177.341L30.9461 177.43C30.9151 177.443 30.8841 177.461 30.8575 177.474L30.7646 177.509C30.5167 177.611 30.2467 177.664 29.9811 177.691L29.7819 177.704L29.5827 177.7C29.5163 177.7 29.4499 177.691 29.3835 177.682C29.3171 177.673 29.2507 177.669 29.1888 177.656C28.932 177.611 28.6841 177.536 28.4451 177.447C27.9714 177.261 27.5376 177.004 27.1437 176.703C26.7497 176.402 26.3868 176.065 26.0548 175.697C25.7228 175.329 25.4174 174.935 25.1429 174.518C25.0057 174.306 24.8729 174.093 24.7534 173.872L24.6604 173.703L24.5763 173.535C24.5188 173.42 24.4656 173.309 24.4081 173.194C24.2001 172.733 24.0141 172.259 23.8592 171.776C23.7087 171.293 23.5759 170.801 23.4741 170.3C23.2616 169.303 23.151 168.284 23.0979 167.261C23.0226 165.754 23.089 164.274 23.2218 162.83C23.3546 161.385 23.5626 159.976 23.7972 158.607C23.9168 157.92 24.0407 157.242 24.1735 156.577C24.2089 156.409 24.2355 156.25 24.2753 156.072L24.3329 155.806L24.3993 155.549C24.4922 155.208 24.594 154.876 24.7047 154.553C24.9216 153.906 25.1695 153.29 25.4174 152.683C25.6697 152.08 25.9264 151.486 26.1876 150.91C27.2278 148.597 28.2769 146.444 29.2153 144.41C30.1582 142.376 30.9992 140.471 31.6941 138.698C32.3891 136.931 32.9336 135.291 33.2877 133.824C33.6418 132.358 33.7967 131.055 33.748 129.996C33.7038 128.933 33.4426 128.131 33.1726 127.643C33.1416 127.581 33.1106 127.524 33.0796 127.47C33.0487 127.417 33.0177 127.373 32.9867 127.324C32.9601 127.28 32.9336 127.24 32.907 127.2C32.8804 127.165 32.8539 127.134 32.8318 127.107C32.7432 126.992 32.699 126.934 32.699 126.934C32.699 126.934 32.7477 126.987 32.8406 127.098C32.8628 127.125 32.8893 127.156 32.9203 127.187C32.9469 127.222 32.9778 127.262 33.0088 127.306C33.0398 127.351 33.0752 127.395 33.1106 127.444C33.146 127.497 33.177 127.555 33.2169 127.612C33.5179 128.086 33.8366 128.893 33.9428 129.978C34.0535 131.064 33.9649 132.402 33.6772 133.913C33.3895 135.424 32.9114 137.112 32.2829 138.929C31.6587 140.75 30.8797 142.704 29.9988 144.778C29.1223 146.851 28.1352 149.045 27.157 151.358C26.9135 151.938 26.6701 152.523 26.4399 153.121C26.2097 153.715 25.9839 154.322 25.7892 154.934C25.6874 155.239 25.6033 155.545 25.5236 155.855L25.4705 156.086L25.4218 156.316C25.3908 156.471 25.3598 156.644 25.3333 156.808C25.2137 157.473 25.0986 158.142 24.9924 158.82C24.7755 160.171 24.5896 161.549 24.4701 162.949C24.3506 164.349 24.2975 165.772 24.3639 167.194C24.417 168.16 24.5188 169.113 24.7091 170.03C24.7976 170.491 24.9172 170.938 25.05 171.377C25.1872 171.816 25.351 172.237 25.528 172.649L25.6741 172.95L25.7449 173.101L25.8246 173.247C25.9264 173.442 26.0415 173.628 26.1566 173.814C26.3956 174.182 26.6568 174.527 26.9401 174.851C27.5067 175.489 28.1662 176.029 28.8656 176.317C29.0382 176.384 29.2153 176.442 29.3879 176.473C29.4322 176.486 29.4765 176.486 29.5163 176.49C29.5606 176.495 29.6048 176.504 29.6447 176.504L29.773 176.508L29.897 176.504C30.0608 176.49 30.2246 176.464 30.3795 176.402L30.437 176.384C30.4547 176.375 30.4768 176.366 30.4946 176.357L30.6096 176.304L30.7203 176.238L30.7734 176.207L30.8265 176.167L30.9328 176.091L31.0346 176.003C31.1054 175.95 31.163 175.879 31.2294 175.817C31.2604 175.786 31.2913 175.75 31.3267 175.71L31.4197 175.595C31.4817 175.52 31.5481 175.445 31.61 175.365C31.6676 175.285 31.7207 175.201 31.7782 175.121C31.8314 175.037 31.8933 174.962 31.942 174.877C31.9907 174.793 32.0394 174.709 32.0881 174.62C32.1368 174.536 32.1855 174.452 32.2253 174.363C32.5662 173.663 32.7654 172.901 32.8495 172.13C32.9291 171.359 32.8981 170.579 32.7963 169.822C32.6945 169.064 32.5263 168.324 32.3271 167.611C32.1191 166.897 31.88 166.21 31.6277 165.546C31.1098 164.221 30.5344 162.998 29.9545 161.868C28.7948 159.608 27.6572 157.716 26.7232 156.183C25.7095 154.703 24.4347 152.913 22.9518 150.848C22.2126 149.816 21.4202 148.717 20.5925 147.547C19.7647 146.377 18.9015 145.137 18.0251 143.821C17.1486 142.505 16.2589 141.109 15.409 139.611C14.9841 138.862 14.5724 138.083 14.1829 137.276C13.7934 136.465 13.4304 135.619 13.1249 134.728C12.8239 133.838 12.5761 132.894 12.4654 131.893C12.4211 131.41 12.3857 130.918 12.3813 130.421C12.3769 129.925 12.3946 129.424 12.4477 128.915C12.5539 127.905 12.7885 126.872 13.2577 125.902C13.4968 125.419 13.7978 124.954 14.174 124.542C14.3644 124.338 14.5724 124.143 14.7982 123.974C15.0284 123.806 15.2718 123.655 15.5374 123.536C16.312 123.181 17.2195 123.11 18.0207 123.354C18.8263 123.589 19.5168 124.081 20.048 124.666C20.5792 125.255 20.9776 125.937 21.2609 126.637C21.553 127.337 21.7345 128.064 21.854 128.786C22.0886 130.231 22.0576 131.653 21.9071 133.018L21.8762 133.275C21.8673 133.359 21.854 133.443 21.8407 133.532C21.8142 133.705 21.7832 133.878 21.7566 134.046C21.6814 134.383 21.615 134.724 21.5132 135.052C21.3228 135.708 21.0838 136.341 20.7917 136.935C20.5039 137.529 20.1719 138.087 19.8178 138.614C19.4593 139.137 19.0742 139.629 18.6758 140.09C18.2774 140.551 17.8569 140.976 17.4364 141.384C17.0114 141.787 16.5821 142.163 16.1483 142.522C14.4086 143.949 12.6557 145.048 11.0578 146.027C10.6594 146.271 10.2654 146.506 9.88474 146.736C9.49078 146.976 9.0924 147.175 8.69844 147.343C7.91052 147.684 7.14475 147.919 6.41438 148.092C4.95805 148.433 3.65223 148.504 2.612 148.323C2.0941 148.234 1.64259 148.079 1.28404 147.879C0.92107 147.685 0.659901 147.45 0.473988 147.237C0.385456 147.126 0.305779 147.033 0.252659 146.936C0.195114 146.847 0.146431 146.772 0.119869 146.701C0.0313416 146.563 0.00037384 146.497 0.00037384 146.497Z" fill="#DFB68D"/>
<path d="M-1.52588e-05 146.47C-1.52588e-05 146.47 0.0309525 146.404 0.0929222 146.271C0.119484 146.205 0.168167 146.129 0.225712 146.036C0.278831 145.943 0.358509 145.846 0.447041 145.735C0.632954 145.522 0.894123 145.287 1.2571 145.092C1.61564 144.897 2.06715 144.742 2.58505 144.649C3.62528 144.468 4.93111 144.538 6.38743 144.88C7.11337 145.052 7.88358 145.292 8.67149 145.628C9.06545 145.797 9.46383 145.996 9.85779 146.236C10.2385 146.466 10.628 146.701 11.0308 146.945C12.6288 147.919 14.3861 149.023 16.1213 150.449C16.5551 150.808 16.9845 151.185 17.4094 151.588C17.8299 151.996 18.246 152.421 18.6489 152.882C19.0472 153.343 19.4323 153.835 19.7909 154.358C20.145 154.885 20.4726 155.443 20.7647 156.037C21.0569 156.631 21.2959 157.264 21.4862 157.92C21.588 158.248 21.6544 158.585 21.7297 158.926C21.7562 159.099 21.7872 159.267 21.8138 159.44C21.8271 159.528 21.8404 159.613 21.8492 159.697L21.8802 159.954C22.0307 161.314 22.0617 162.741 21.8271 164.185C21.7031 164.903 21.5216 165.63 21.2339 166.334C20.9506 167.035 20.5522 167.717 20.0211 168.306C19.4899 168.896 18.7993 169.387 17.9937 169.618C17.1925 169.861 16.2851 169.791 15.5105 169.436C15.2493 169.316 15.0014 169.166 14.7712 168.997C14.5455 168.825 14.3374 168.634 14.1471 168.43C13.7708 168.018 13.4698 167.553 13.2308 167.07C12.7616 166.1 12.527 165.067 12.4208 164.057C12.3721 163.552 12.3499 163.051 12.3543 162.55C12.3588 162.054 12.3942 161.562 12.4385 161.079C12.5447 160.078 12.7926 159.134 13.098 158.243C13.4034 157.353 13.7664 156.507 14.1559 155.696C14.5455 154.885 14.9571 154.105 15.3821 153.361C16.2364 151.863 17.1217 150.467 17.9981 149.151C18.8746 147.835 19.7378 146.594 20.5655 145.425C21.3933 144.255 22.1856 143.156 22.9248 142.124C24.4077 140.059 25.6826 138.269 26.6962 136.789C27.6302 135.256 28.7678 133.364 29.9276 131.104C30.503 129.974 31.0785 128.746 31.6008 127.426C31.8531 126.761 32.0966 126.075 32.3002 125.361C32.4994 124.648 32.6676 123.908 32.7694 123.15C32.8712 122.392 32.9066 121.613 32.8225 120.842C32.7428 120.071 32.5436 119.309 32.1984 118.608C32.163 118.52 32.1099 118.436 32.0612 118.351C32.0125 118.267 31.9638 118.183 31.9151 118.094C31.8664 118.01 31.8044 117.93 31.7513 117.851C31.6938 117.771 31.6406 117.687 31.5831 117.607C31.5211 117.532 31.4547 117.456 31.3928 117.377L31.2998 117.261C31.2688 117.222 31.2378 117.182 31.2024 117.155C31.1404 117.093 31.0785 117.022 31.0077 116.969L30.9058 116.88L30.7996 116.805L30.7465 116.765L30.6934 116.734L30.5827 116.668L30.4676 116.614C30.4499 116.606 30.4322 116.597 30.4101 116.588L30.3525 116.57C30.1976 116.508 30.0338 116.482 29.87 116.468L29.7461 116.464L29.6177 116.468C29.5735 116.468 29.5336 116.477 29.4894 116.482C29.4451 116.49 29.4052 116.49 29.361 116.499C29.1883 116.53 29.0113 116.588 28.8387 116.654C28.1393 116.942 27.4797 117.483 26.9131 118.121C26.6298 118.44 26.3687 118.79 26.1296 119.158C26.0145 119.344 25.8995 119.53 25.7976 119.725L25.718 119.871L25.6472 120.022L25.5011 120.323C25.3196 120.735 25.1558 121.156 25.023 121.595C24.8902 122.034 24.7707 122.481 24.6822 122.942C24.4918 123.859 24.39 124.812 24.3369 125.778C24.2661 127.2 24.3236 128.622 24.4431 130.023C24.5627 131.423 24.7486 132.801 24.9655 134.152C25.0717 134.83 25.1912 135.499 25.3063 136.164C25.3373 136.328 25.3639 136.501 25.3948 136.656L25.4435 136.886L25.4966 137.117C25.5763 137.422 25.6604 137.732 25.7622 138.038C25.957 138.65 26.1828 139.257 26.4129 139.851C26.6431 140.444 26.8866 141.034 27.13 141.614C28.1083 143.931 29.0954 146.12 29.9718 148.194C30.8483 150.268 31.6274 152.222 32.2559 154.043C32.8845 155.86 33.3581 157.548 33.6503 159.059C33.938 160.57 34.0265 161.912 33.9159 162.993C33.8096 164.079 33.4909 164.886 33.1899 165.36C33.1545 165.422 33.1191 165.479 33.0837 165.528C33.0483 165.577 33.0128 165.625 32.9819 165.665C32.9509 165.71 32.9199 165.75 32.8933 165.785C32.8624 165.82 32.8358 165.847 32.8137 165.874C32.7207 165.98 32.672 166.038 32.672 166.038C32.672 166.038 32.7163 165.98 32.8048 165.865C32.8269 165.838 32.8491 165.803 32.8801 165.772C32.9022 165.736 32.9287 165.692 32.9597 165.648C32.9863 165.603 33.0173 165.555 33.0527 165.501C33.0837 165.448 33.1147 165.391 33.1457 165.329C33.4113 164.841 33.6724 164.039 33.7211 162.976C33.7698 161.917 33.6148 160.614 33.2607 159.147C32.9066 157.681 32.3622 156.046 31.6672 154.273C30.9722 152.501 30.1312 150.596 29.1884 148.562C28.2499 146.528 27.2053 144.375 26.1606 142.062C25.8995 141.481 25.6427 140.892 25.3904 140.289C25.1425 139.682 24.8947 139.066 24.6778 138.419C24.5671 138.096 24.4653 137.764 24.3723 137.422L24.3059 137.165L24.2484 136.899C24.213 136.722 24.182 136.563 24.1466 136.394C24.0182 135.725 23.8898 135.052 23.7703 134.365C23.5357 132.991 23.3277 131.587 23.1949 130.142C23.0621 128.698 23.0001 127.218 23.0709 125.711C23.1285 124.688 23.2347 123.669 23.4472 122.672C23.549 122.171 23.6818 121.679 23.8323 121.196C23.9872 120.713 24.1731 120.239 24.3812 119.778C24.4343 119.663 24.4918 119.552 24.5494 119.437L24.6335 119.269L24.7264 119.1C24.846 118.879 24.9788 118.662 25.116 118.453C25.3904 118.037 25.6958 117.638 26.0278 117.275C26.3598 116.907 26.7228 116.57 27.1167 116.269C27.5107 115.968 27.9489 115.715 28.4181 115.524C28.6572 115.436 28.9051 115.361 29.1618 115.316C29.2238 115.303 29.2901 115.298 29.3565 115.29C29.4229 115.281 29.4849 115.272 29.5557 115.272L29.7549 115.267L29.9541 115.281C30.2197 115.307 30.4898 115.361 30.7376 115.462L30.8306 115.498C30.8616 115.511 30.8926 115.524 30.9191 115.542L31.0962 115.631L31.2644 115.733L31.3485 115.786L31.4282 115.844L31.5831 115.963C31.6318 116.003 31.6805 116.047 31.7247 116.092C31.8221 116.176 31.9062 116.269 31.9903 116.362C32.0346 116.406 32.07 116.455 32.1054 116.499L32.2161 116.637C32.2869 116.73 32.3621 116.818 32.433 116.911C32.4994 117.009 32.5613 117.106 32.6277 117.204C32.6897 117.301 32.7606 117.394 32.8137 117.501C32.8712 117.603 32.9243 117.705 32.9819 117.806C33.0394 117.908 33.0925 118.01 33.1368 118.117C33.5263 118.958 33.7344 119.862 33.8008 120.74C33.8672 121.621 33.8052 122.477 33.668 123.292C33.5308 124.107 33.3271 124.883 33.0925 125.623C32.8535 126.363 32.579 127.063 32.2913 127.736C31.707 129.074 31.074 130.297 30.441 131.414C29.1706 133.643 27.9401 135.482 26.9264 136.966C25.988 138.503 24.7973 140.364 23.4029 142.491C22.7035 143.555 21.9599 144.689 21.1764 145.885C20.3929 147.086 19.574 148.349 18.7462 149.683C17.9185 151.017 17.0774 152.421 16.2807 153.906C15.8823 154.65 15.4972 155.412 15.1386 156.201C14.7801 156.99 14.4481 157.8 14.1781 158.638C13.9081 159.475 13.7 160.335 13.6159 161.203C13.5805 161.655 13.5539 162.107 13.5539 162.559C13.5539 163.011 13.5761 163.463 13.6248 163.915C13.7266 164.81 13.939 165.696 14.3242 166.476C14.5189 166.862 14.7535 167.221 15.0324 167.526C15.174 167.677 15.3245 167.814 15.4839 167.934C15.6432 168.049 15.8159 168.156 15.9885 168.235C16.5108 168.47 17.0863 168.519 17.6263 168.359C18.1708 168.204 18.671 167.863 19.0826 167.416C19.4943 166.964 19.8263 166.419 20.0697 165.829C20.3221 165.24 20.4858 164.611 20.6054 163.973C20.8311 162.688 20.8311 161.372 20.7072 160.091L20.685 159.852C20.6762 159.772 20.6673 159.692 20.6585 159.617C20.6363 159.462 20.6142 159.307 20.5921 159.156C20.5301 158.851 20.477 158.549 20.3929 158.252C20.2335 157.659 20.0343 157.083 19.7776 156.538C19.5253 155.993 19.2376 155.47 18.9233 154.973C18.6002 154.477 18.2549 154.012 17.8919 153.564C17.5245 153.121 17.1438 152.7 16.7499 152.297C16.3559 151.898 15.9531 151.522 15.5459 151.158C13.9081 149.718 12.2216 148.562 10.6723 147.521C10.2827 147.259 9.90206 147.007 9.53024 146.758C9.17169 146.515 8.8043 146.315 8.4369 146.134C7.69768 145.77 6.96286 145.504 6.26347 145.296C4.8647 144.893 3.59872 144.751 2.58505 144.866C2.08043 144.924 1.63777 145.048 1.27922 145.212C0.920677 145.376 0.650673 145.589 0.460331 145.784C0.367374 145.886 0.283257 145.974 0.225712 146.063C0.163742 146.147 0.110645 146.222 0.0796585 146.284C0.0353928 146.408 -1.52588e-05 146.47 -1.52588e-05 146.47Z" fill="#DFB68D"/>
</svg>
