<svg width="784" height="105" viewBox="0 0 784 105" fill="none" xmlns="http://www.w3.org/2000/svg">
<path d="M376.771 75.8172C376.118 77.4132 374.998 78.8697 373.536 79.8769C372.073 80.8686 370.3 81.4419 368.48 81.4729C366.676 81.5194 364.825 80.9306 363.362 80.0783C361.853 79.2261 360.5 78.0485 359.489 76.623C357.42 73.8029 356.596 70.0531 357.389 66.5823C357.793 64.8158 358.509 63.2509 359.427 61.8253C360.345 60.3998 361.449 59.0517 362.787 57.9671C365.431 55.7668 368.745 54.4188 372.182 54.0624C373.909 53.9229 375.651 54.0159 377.347 54.3568C379.027 54.7287 380.691 55.3639 382.138 56.1232C385.093 57.6417 387.738 59.7955 389.776 62.4451C391.798 65.0948 393.229 68.1782 393.96 71.4167C394.691 74.6551 394.722 78.064 394.038 81.3179C393.836 82.1237 393.618 82.9294 393.385 83.7196C393.089 84.4944 392.809 85.2846 392.482 86.0284C391.829 87.4539 391.113 88.8795 390.289 90.243C388.64 92.9856 386.54 95.5733 383.942 97.6186C381.345 99.6639 378.327 101.105 375.387 102.128C372.478 103.15 369.398 103.941 366.302 104.452C363.176 104.87 360.002 105.087 356.86 104.762C350.529 104.297 344.525 102.112 339.065 99.3385C328.176 93.5589 319.185 85.5326 309.773 78.3739C305.076 74.7946 300.3 71.3237 295.245 68.3797C290.205 65.4201 284.853 63.0029 279.285 61.3605C273.731 59.718 267.898 58.9743 262.049 58.8813C256.231 58.8193 250.382 59.5011 245.031 61.5154C239.696 63.5453 234.936 67.0161 231.653 71.6646C228.402 76.2666 226.411 81.9842 226.038 87.5314V87.6399C225.991 88.3371 225.385 88.864 224.685 88.8175C223.985 88.771 223.471 88.1822 223.502 87.5004C223.658 84.293 224.311 81.3334 225.307 78.3894C226.287 75.4609 227.702 72.6873 229.46 70.1306C233.007 65.0018 238.249 61.1126 244.02 58.8968C249.822 56.65 256.013 55.9218 262.096 55.9218C268.162 55.9682 274.276 56.6965 280.156 58.3855C291.993 61.7014 302.322 68.5036 311.92 75.5693C321.533 82.6505 330.649 90.4134 340.978 95.6507C346.142 98.1609 351.618 100.02 357.218 100.33C360.018 100.578 362.818 100.346 365.587 99.9273C368.356 99.416 371.062 98.6877 373.769 97.6961C376.429 96.7199 378.84 95.4803 380.893 93.8223C382.947 92.1644 384.673 90.0881 386.073 87.7173C386.789 86.5397 387.396 85.3001 387.987 84.0295C388.251 83.4097 388.453 82.8054 388.702 82.1856L389.216 80.2953C389.745 77.7386 389.713 75.0735 389.122 72.5168C387.971 67.419 384.549 62.8635 379.898 60.4153C378.716 59.7645 377.58 59.3151 376.367 59.0207C375.138 58.7573 373.893 58.6644 372.633 58.7418C370.129 58.9588 367.687 59.8885 365.727 61.4844C364.716 62.2437 363.86 63.1889 363.129 64.227C362.382 65.2652 361.807 66.4273 361.511 67.543C360.873 69.8362 361.309 72.4393 362.662 74.4692C363.985 76.4525 366.256 78.157 368.573 78.2499C370.938 78.3894 373.365 77.0258 374.485 74.7946L374.5 74.7791C374.811 74.1593 375.573 73.8959 376.211 74.2058C376.756 74.5002 377.02 75.2129 376.771 75.8172Z" fill="white"/>
<path d="M409.671 74.7946C410.791 77.0259 413.234 78.3894 415.582 78.25C417.885 78.157 420.156 76.4526 421.494 74.4692C422.847 72.4394 423.282 69.8363 422.645 67.543C422.349 66.4274 421.774 65.2653 421.027 64.2271C420.296 63.2044 419.44 62.2437 418.429 61.4845C416.469 59.904 414.011 58.9588 411.522 58.7419C410.262 58.6644 409.018 58.7574 407.789 59.0208C406.576 59.3152 405.425 59.7646 404.258 60.4153C399.607 62.879 396.185 67.419 395.018 72.5169C394.427 75.058 394.396 77.7232 394.925 80.2953L395.438 82.1857C395.687 82.8055 395.889 83.4098 396.154 84.0296C396.729 85.3002 397.351 86.5553 398.067 87.7174C399.467 90.0726 401.194 92.1644 403.247 93.8224C405.3 95.4958 407.711 96.7199 410.371 97.6961C413.062 98.6878 415.769 99.4161 418.554 99.9274C421.322 100.33 424.138 100.578 426.922 100.33C432.538 100.02 437.998 98.161 443.162 95.6508C453.491 90.4135 462.591 82.6506 472.205 75.5694C481.802 68.5037 492.131 61.7014 503.969 58.3855C509.865 56.6966 515.962 55.9683 522.029 55.9218C528.111 55.9063 534.302 56.6501 540.105 58.8968C545.876 61.1281 551.118 65.0173 554.665 70.1307C556.422 72.6873 557.854 75.4764 558.818 78.3894C559.814 81.3335 560.467 84.293 560.622 87.5005C560.654 88.1977 560.109 88.7865 559.409 88.833C558.709 88.864 558.134 88.3372 558.087 87.6554V87.5469C557.714 81.9843 555.722 76.2821 552.471 71.6802C549.189 67.0317 544.445 63.5608 539.094 61.531C533.727 59.5011 527.878 58.8349 522.076 58.8968C516.242 58.9898 510.394 59.7336 504.84 61.376C499.271 63.0185 493.92 65.4202 488.88 68.3952C483.825 71.3393 479.049 74.8101 474.351 78.3894C464.94 85.5481 455.949 93.5745 445.06 99.3541C439.6 102.128 433.596 104.328 427.265 104.777C424.122 105.103 420.934 104.886 417.822 104.467C414.727 103.956 411.647 103.166 408.738 102.143C405.798 101.12 402.796 99.6795 400.182 97.6341C397.569 95.5888 395.469 92.9857 393.836 90.2586C392.996 88.895 392.296 87.4695 391.642 86.0439C391.316 85.3002 391.036 84.5099 390.74 83.7352C390.507 82.945 390.289 82.1392 390.087 81.3335C389.387 78.0796 389.418 74.6707 390.165 71.4322C390.896 68.1938 392.327 65.1103 394.349 62.4607C396.371 59.811 399.031 57.6572 401.987 56.1387C403.434 55.3795 405.082 54.7442 406.778 54.3723C408.474 54.0314 410.216 53.9385 411.942 54.0779C415.38 54.4188 418.694 55.7669 421.338 57.9826C422.676 59.0673 423.78 60.4153 424.698 61.8409C425.616 63.2664 426.331 64.8314 426.736 66.5978C427.529 70.0842 426.705 73.8184 424.636 76.6385C423.609 78.0641 422.271 79.2572 420.762 80.0939C419.3 80.9461 417.449 81.5349 415.645 81.4884C413.84 81.4574 412.067 80.8841 410.589 79.8925C409.127 78.8853 408.007 77.4443 407.354 75.8328C407.089 75.182 407.4 74.4382 408.054 74.1903C408.676 73.9424 409.376 74.2058 409.671 74.7946V74.7946Z" fill="white"/>
<path d="M1.66444 85.827H224.622C225.54 85.827 226.287 86.5707 226.287 87.4849C226.287 88.3991 225.54 89.1429 224.622 89.1429H1.66444C0.746667 89.1429 0 88.3991 0 87.4849C0 86.5707 0.746667 85.827 1.66444 85.827Z" fill="white"/>
<path d="M559.378 85.827H782.336C783.253 85.827 784 86.5707 784 87.4849C784 88.3991 783.253 89.1429 782.336 89.1429H559.378C558.46 89.1429 557.713 88.3991 557.713 87.4849C557.713 86.5707 558.46 85.827 559.378 85.827Z" fill="white"/>
<path d="M411.974 78.9782C414.731 78.9782 416.967 76.7513 416.967 74.0043C416.967 71.2573 414.731 69.0305 411.974 69.0305C409.216 69.0305 406.98 71.2573 406.98 74.0043C406.98 76.7513 409.216 78.9782 411.974 78.9782Z" fill="white"/>
<path d="M367.189 74.0043C367.189 71.2617 369.429 69.0305 372.183 69.0305C374.936 69.0305 377.176 71.2617 377.176 74.0043C377.176 76.7469 374.936 78.9782 372.183 78.9782C369.414 78.9782 367.189 76.7469 367.189 74.0043Z" fill="white"/>
<path d="M391.991 46.3703L388.783 53.0915L388.802 53.1165C390.109 54.8514 391.871 59.5757 391.871 59.5757L391.991 60L392.111 59.5757C392.111 59.5757 393.872 54.8514 395.179 53.1165L395.198 53.0915L391.991 46.3703Z" fill="white"/>
<path d="M407.662 14.0183C407.972 13.881 408.205 13.6251 408.319 13.207C408.426 12.7951 408.395 12.2334 408.104 11.5969C407.814 10.9666 407.227 10.2801 406.374 9.79331C405.528 9.30029 404.442 9.0569 403.375 9.13803C402.838 9.163 402.169 9.31277 401.455 9.59361C400.742 9.87444 400.009 10.3113 399.347 10.8792C398.684 11.4409 398.09 12.1336 397.623 12.8762C397.155 13.6251 396.808 14.4239 396.568 15.2103C396.341 15.9966 396.227 16.7642 396.183 17.4569C396.17 17.8064 396.164 18.1309 396.177 18.4367C396.202 18.7425 396.215 19.0296 396.253 19.2855C396.297 19.5413 396.335 19.7785 396.379 19.9782C396.423 20.1779 396.486 20.3526 396.53 20.4962C396.631 20.777 396.726 20.933 396.802 20.933C396.871 20.933 396.966 20.777 397.08 20.5149C397.2 20.2153 397.345 19.8534 397.509 19.429C397.597 19.2106 397.711 18.9734 397.812 18.7238C397.926 18.4804 398.058 18.2245 398.191 17.9687C398.475 17.4569 398.81 16.9327 399.189 16.4522C399.58 15.9779 400.009 15.541 400.458 15.1915C400.906 14.8421 401.373 14.5737 401.803 14.3927C402.232 14.2055 402.63 14.1057 402.952 14.062C403.034 14.0433 403.11 14.0433 403.179 14.0308C403.249 14.0183 403.318 14.0121 403.381 14.0121C403.444 14.0121 403.501 14.0058 403.558 13.9996C403.608 13.9996 403.659 13.9996 403.703 13.9933C404.057 13.9684 404.347 13.9496 404.631 13.9372C404.916 13.9247 405.231 13.9184 405.572 13.9621C406.26 14.0308 407.031 14.2929 407.662 14.0183Z" fill="white"/>
<path d="M396.991 8.37666C395.084 12.6578 394.567 18.6676 394.51 19.4602C394.503 19.5101 394.478 19.5476 394.44 19.5476L392.578 21.632C392.331 21.9066 391.896 21.9066 391.649 21.632L389.787 19.5476C389.749 19.5476 389.724 19.5101 389.717 19.4602C389.654 18.6676 389.225 13.1196 387.236 8.37666C387.223 8.33922 391.075 1.53057 391.94 0.107683C392.028 -0.0358537 392.199 -0.0358537 392.287 0.107683C393.152 1.53057 397.01 8.33922 396.991 8.37666Z" fill="white"/>
<path d="M376.319 14.0183C376.009 13.881 375.776 13.6251 375.662 13.207C375.555 12.7951 375.586 12.2334 375.877 11.5969C376.167 10.9666 376.754 10.2801 377.607 9.79331C378.453 9.30029 379.539 9.0569 380.606 9.13803C381.143 9.16299 381.812 9.31277 382.526 9.5936C383.239 9.87444 383.971 10.3113 384.634 10.8792C385.297 11.4409 385.891 12.1336 386.358 12.8762C386.825 13.6251 387.173 14.4239 387.413 15.2103C387.64 15.9966 387.754 16.7642 387.798 17.4569C387.81 17.8064 387.817 18.1309 387.804 18.4367C387.779 18.7425 387.766 19.0296 387.728 19.2855C387.684 19.5413 387.646 19.7785 387.602 19.9782C387.558 20.1779 387.495 20.3526 387.45 20.4962C387.349 20.777 387.255 20.933 387.179 20.933C387.11 20.933 387.015 20.777 386.901 20.5149C386.781 20.2153 386.636 19.8534 386.472 19.429C386.383 19.2106 386.27 18.9734 386.169 18.7238C386.055 18.4804 385.922 18.2245 385.79 17.9687C385.506 17.4569 385.171 16.9327 384.792 16.4522C384.401 15.9779 383.971 15.541 383.523 15.1915C383.075 14.8421 382.608 14.5737 382.178 14.3927C381.749 14.2055 381.351 14.1057 381.029 14.062C380.947 14.0432 380.871 14.0432 380.802 14.0308C380.732 14.0183 380.663 14.012 380.6 14.012C380.537 14.012 380.48 14.0058 380.423 13.9996C380.372 13.9996 380.322 13.9996 380.278 13.9933C379.924 13.9684 379.634 13.9496 379.349 13.9372C379.065 13.9247 378.75 13.9184 378.409 13.9621C377.72 14.0308 376.95 14.2929 376.319 14.0183Z" fill="white"/>
<path d="M392.11 22.3933L389.73 24.6275C390.159 25.1954 392.11 28.4718 392.11 28.4718C392.11 28.4718 393.967 25.1954 394.396 24.6275L392.11 22.3933Z" fill="white"/>
<path d="M382.096 19.7722C382.26 19.8159 382.418 19.8596 382.576 19.9033C383.233 20.0905 383.833 20.259 384.357 20.4026C384.881 20.5461 385.335 20.6709 385.708 20.7708C386.169 20.8768 386.504 20.958 386.693 21.0017C386.699 20.9954 386.699 20.9892 386.699 20.9829C386.516 20.9143 386.194 20.7957 385.752 20.6272C385.531 20.5398 385.272 20.4338 384.988 20.3214C384.95 20.2902 384.906 20.259 384.849 20.2153C384.805 20.1779 384.748 20.1342 384.691 20.0905C384.755 20.103 384.824 20.1155 384.887 20.1342C385.575 20.3089 386.2 20.5648 386.737 20.9018C386.743 20.8831 386.75 20.8706 386.756 20.8519C386.794 20.752 386.838 20.6584 386.889 20.5711C386.333 20.2028 385.689 19.922 384.988 19.7286C384.597 19.6162 384.186 19.5289 383.763 19.454C383.163 19.0733 382.361 18.6177 381.364 18.1684C381.212 18.0997 381.054 18.0311 380.89 17.9562C380.726 17.8875 380.562 17.8189 380.392 17.7502C380.051 17.6067 379.691 17.4819 379.318 17.3446C378.567 17.0887 377.759 16.8391 376.887 16.6332C376.016 16.4334 375.094 16.2587 374.115 16.1651C373.629 16.1214 373.124 16.0964 372.619 16.0964C372.366 16.1027 372.114 16.1089 371.855 16.1152C371.602 16.1214 371.343 16.1464 371.085 16.1651C368.281 16.3898 365.743 17.0825 363.64 17.7814C361.538 18.4991 359.852 19.2355 358.703 19.766C358.109 19.9719 357.37 20.2091 356.537 20.5398C355.703 20.8706 354.763 21.2513 353.74 21.6757C352.736 22.1437 351.643 22.6617 350.5 23.2171C349.377 23.8162 348.19 24.4403 346.984 25.133C346.106 25.651 345.247 26.1628 344.426 26.662C343.593 27.1738 342.835 27.7417 342.134 28.2784C341.44 28.8213 340.777 29.3393 340.158 29.8198C339.539 30.3004 338.958 30.731 338.415 31.1054C337.329 31.8543 336.376 32.3536 335.694 32.6344C335.523 32.703 335.372 32.7655 335.233 32.8154C335.094 32.8591 334.98 32.8965 334.886 32.9215C334.696 32.9839 334.602 33.0151 334.602 33.0151C334.602 33.0151 334.703 32.9964 334.898 32.9652C334.993 32.9464 335.113 32.9277 335.258 32.9027C335.397 32.8715 335.561 32.8279 335.738 32.7779C336.464 32.5845 337.487 32.1851 338.662 31.5235C339.249 31.1865 339.874 30.7996 340.531 30.3628C341.187 29.9259 341.875 29.4454 342.595 28.9461C343.321 28.4469 344.073 27.9351 344.887 27.4608C345.721 26.9865 346.573 26.4935 347.451 25.9755C348.65 25.2953 349.806 24.6338 350.905 24.0097C352.022 23.4168 353.07 22.8489 354.036 22.3185C355.021 21.8317 355.924 21.3823 356.714 20.9767C357.509 20.5711 358.21 20.259 358.778 19.9844C359.972 19.5913 361.714 19.0296 363.83 18.4617C365.951 17.9125 368.452 17.3446 371.148 17.1324C371.394 17.1137 371.64 17.095 371.886 17.0825C372.133 17.0762 372.373 17.0638 372.619 17.0575C373.099 17.0513 373.566 17.0638 374.033 17.095C374.961 17.1574 375.864 17.2822 376.71 17.4382C377.563 17.588 378.365 17.7877 379.11 17.9811C379.482 18.0872 379.842 18.1809 380.183 18.2932C380.354 18.3494 380.524 18.3993 380.688 18.4492C380.852 18.5054 381.01 18.5615 381.168 18.6177C381.882 18.8673 382.507 19.117 383.037 19.3541C382.785 19.3229 382.532 19.2979 382.273 19.2792C381.061 18.8486 379.621 18.418 377.967 18.2308C377.74 18.1933 377.506 18.1871 377.266 18.1684C377.032 18.1496 376.792 18.1309 376.552 18.1184C376.073 18.1122 375.574 18.081 375.075 18.106C374.071 18.1184 373.036 18.2308 371.981 18.3806C369.121 18.8112 366.557 19.6661 364.417 20.4525C363.343 20.8456 362.377 21.2388 361.525 21.5821C361.102 21.7568 360.704 21.9191 360.338 22.0751C359.978 22.2373 359.643 22.3871 359.347 22.5182C359.037 22.618 358.69 22.7303 358.317 22.8552C357.945 22.9987 357.547 23.1485 357.111 23.317C356.24 23.6353 355.287 24.0596 354.238 24.5214C352.155 25.47 349.774 26.6932 347.268 28.0475C345.424 29.0522 343.675 29.9946 342.065 30.7809C340.429 31.5111 338.92 32.1164 337.613 32.5033C336.957 32.6968 336.376 32.9027 335.845 33.0151C335.315 33.1399 334.848 33.2585 334.488 33.4332C334.368 33.4894 334.273 33.5518 334.179 33.6142C334.027 33.6267 333.882 33.6392 333.73 33.6516C333.389 33.6704 333.048 33.6953 332.714 33.714L332.208 33.7452L331.703 33.764C331.369 33.7702 331.028 33.7952 330.693 33.7952C329.355 33.8201 328.041 33.764 326.759 33.6142C326.602 33.5955 326.437 33.5705 326.28 33.5518C326.122 33.5331 325.964 33.5143 325.806 33.4831C325.49 33.427 325.181 33.3708 324.871 33.3146C324.562 33.2397 324.259 33.1649 323.956 33.0962C323.804 33.065 323.653 33.0151 323.508 32.9714C323.356 32.9277 323.211 32.8778 323.059 32.8341C322.914 32.7842 322.763 32.7467 322.617 32.6968C322.472 32.6406 322.327 32.5907 322.182 32.5345C321.891 32.4285 321.601 32.3286 321.323 32.1975C321.045 32.0727 320.761 31.9604 320.489 31.8293C320.218 31.692 319.946 31.5548 319.675 31.4237C319.536 31.3613 319.41 31.2864 319.277 31.2115C319.145 31.1366 319.018 31.0617 318.886 30.9868C318.753 30.912 318.627 30.8371 318.494 30.7684C318.362 30.6935 318.242 30.6124 318.115 30.5313C317.863 30.3753 317.61 30.213 317.364 30.057C317.244 29.9758 317.13 29.8947 317.017 29.8136C316.903 29.7325 316.783 29.6576 316.676 29.564C316.562 29.4766 316.455 29.3955 316.341 29.3081C316.234 29.2207 316.126 29.1271 316.025 29.0397C315.811 28.865 315.615 28.6715 315.413 28.4843C315.028 28.0974 314.662 27.7042 314.333 27.2798C313.999 26.868 313.708 26.4311 313.437 25.9943C313.178 25.5512 312.932 25.1081 312.742 24.6525C312.534 24.2032 312.382 23.7413 312.237 23.292C312.18 23.0611 312.111 22.8364 312.066 22.6118C312.022 22.3871 311.965 22.1624 311.94 21.9378C311.808 21.0454 311.801 20.1779 311.902 19.3728C312.003 18.5678 312.218 17.8189 312.502 17.1574C312.786 16.4896 313.134 15.903 313.506 15.3912C313.866 14.8733 314.308 14.4114 314.763 13.9684C314.883 13.8623 314.996 13.7562 315.116 13.6501C315.173 13.5939 315.236 13.544 315.293 13.5003L315.47 13.3568C315.583 13.2569 315.716 13.1758 315.836 13.0884L316.025 12.9574L316.221 12.8388C316.739 12.5205 317.295 12.2584 317.875 12.0462C318.45 11.834 319.037 11.6655 319.637 11.5469C320.83 11.3036 322.049 11.2287 323.23 11.2911C323.823 11.3223 324.404 11.3847 324.979 11.4845C325.263 11.5282 325.547 11.5969 325.825 11.653C325.964 11.6842 326.103 11.7217 326.242 11.7591C326.381 11.7966 326.519 11.8278 326.652 11.8715C328.818 12.508 330.68 13.7 331.88 15.2477C331.95 15.3476 332.019 15.4474 332.095 15.541L332.202 15.6908L332.297 15.8406C332.36 15.9404 332.423 16.0403 332.48 16.1464C332.531 16.2525 332.587 16.3586 332.638 16.4584L332.72 16.6144C332.745 16.6644 332.764 16.7205 332.789 16.7767C332.834 16.8828 332.878 16.9889 332.922 17.095C332.96 17.2011 332.991 17.3134 333.029 17.4195L333.08 17.5817C333.092 17.6379 333.105 17.6878 333.118 17.744C333.143 17.8501 333.168 17.9624 333.194 18.0685C333.212 18.1809 333.225 18.2869 333.244 18.393L333.269 18.5553L333.282 18.7176C333.288 18.8236 333.295 18.936 333.307 19.0421C333.307 19.1482 333.307 19.2543 333.307 19.3604C333.307 19.4165 333.307 19.4664 333.307 19.5226L333.295 19.6786C333.288 19.7847 333.276 19.8908 333.269 19.9907C333.25 20.0968 333.238 20.1966 333.219 20.2965C333.212 20.3464 333.206 20.3963 333.194 20.4462L333.156 20.596C333.13 20.6959 333.111 20.7957 333.086 20.8956C333.055 20.9892 333.023 21.089 332.991 21.1826L332.947 21.3262C332.928 21.3699 332.909 21.4198 332.89 21.4635C332.853 21.5571 332.815 21.6445 332.783 21.7381C332.745 21.8254 332.701 21.9128 332.657 22.0002C332.575 22.1749 332.474 22.3372 332.379 22.4994C331.987 23.1422 331.489 23.6602 330.971 24.0659C330.447 24.4715 329.891 24.7523 329.348 24.9396C328.805 25.1205 328.281 25.2142 327.808 25.2266C327.751 25.2329 327.688 25.2329 327.631 25.2391C327.574 25.2391 327.517 25.2391 327.46 25.2329C327.347 25.2329 327.239 25.2266 327.132 25.2266C327.069 25.2204 327.006 25.2142 326.949 25.2079C327.858 24.7586 328.445 23.7726 328.332 22.6929C328.186 21.3137 326.968 20.3152 325.61 20.4587C324.253 20.6023 323.268 21.8379 323.407 23.2171C323.533 24.4528 324.524 25.3764 325.705 25.4576C325.762 25.4825 325.819 25.5075 325.875 25.5387C326.04 25.5948 326.216 25.6573 326.406 25.7259C326.602 25.7821 326.816 25.832 327.05 25.8882C327.17 25.9069 327.29 25.9256 327.416 25.9443C327.479 25.9506 327.542 25.963 327.606 25.9693C327.669 25.9755 327.738 25.9755 327.801 25.9818C328.338 26.0255 328.95 25.9818 329.594 25.8258C330.245 25.6697 330.927 25.3889 331.583 24.9521C332.234 24.5152 332.871 23.9286 333.383 23.1859C333.509 22.9987 333.642 22.8115 333.749 22.6055C333.806 22.5057 333.863 22.4058 333.92 22.2997C333.97 22.1936 334.021 22.0876 334.071 21.9752C334.096 21.9191 334.122 21.8691 334.147 21.813L334.21 21.6445C334.254 21.5321 334.298 21.4136 334.336 21.3012C334.368 21.1826 334.406 21.0641 334.444 20.9455L334.494 20.7645C334.507 20.7021 334.519 20.6397 334.532 20.5773C334.557 20.4525 334.583 20.3277 334.608 20.2028C334.627 20.078 334.639 19.947 334.658 19.8159L334.684 19.6225C334.69 19.5601 334.69 19.4914 334.696 19.429C334.703 19.2979 334.709 19.1669 334.715 19.0296C334.709 18.8985 334.709 18.7612 334.703 18.6302L334.696 18.4305L334.677 18.2308C334.665 18.0935 334.646 17.9562 334.633 17.8251C334.608 17.6878 334.583 17.5568 334.557 17.4195C334.545 17.3508 334.532 17.2822 334.513 17.2135L334.456 17.0138C334.418 16.8765 334.381 16.7392 334.343 16.6082C334.292 16.4771 334.242 16.3398 334.197 16.2088C334.172 16.1401 334.147 16.0715 334.122 16.0091L334.033 15.8156C333.97 15.6846 333.913 15.5535 333.85 15.4224C333.781 15.2976 333.705 15.1728 333.635 15.0418L333.528 14.8483L333.408 14.6673C333.326 14.5487 333.244 14.4239 333.162 14.2991C332.808 13.8311 332.429 13.363 331.987 12.9574C331.773 12.7389 331.539 12.5579 331.306 12.3582C331.186 12.2646 331.066 12.1773 330.939 12.0837C330.819 11.99 330.693 11.8964 330.567 11.8153C330.441 11.7279 330.308 11.6468 330.182 11.5594C330.049 11.4783 329.916 11.4034 329.784 11.3223L329.582 11.2037L329.373 11.0976C329.235 11.029 329.096 10.9541 328.957 10.8854C328.812 10.823 328.673 10.7544 328.527 10.692L328.313 10.5984L328.092 10.511C327.946 10.4548 327.795 10.3924 327.65 10.3425C327.498 10.2926 327.347 10.2426 327.195 10.1927C327.044 10.1365 326.892 10.0991 326.734 10.0554C326.583 10.0117 326.425 9.9618 326.267 9.92436C325.951 9.84947 325.642 9.76834 325.32 9.71841C324.682 9.5936 324.025 9.51247 323.369 9.46879C322.043 9.38141 320.679 9.45006 319.309 9.71217C318.627 9.84323 317.939 10.0304 317.263 10.2738C316.587 10.511 315.924 10.823 315.287 11.2099L315.047 11.3535L314.813 11.5095C314.655 11.6156 314.504 11.7154 314.352 11.8403L314.131 12.015C314.055 12.0712 313.98 12.1336 313.917 12.196C313.778 12.3208 313.639 12.4456 313.506 12.5704C312.969 13.0884 312.452 13.6376 312.01 14.2617C311.561 14.8795 311.138 15.5972 310.797 16.4147C310.456 17.2323 310.197 18.1559 310.078 19.1419C309.838 21.114 310.147 23.3482 311.113 25.4388C311.347 25.9693 311.631 26.4748 311.934 26.9865C312.256 27.4858 312.591 27.985 312.976 28.4469C313.355 28.9212 313.778 29.3705 314.226 29.8073C314.453 30.0195 314.68 30.238 314.927 30.4314C315.047 30.5313 315.167 30.6374 315.293 30.731C315.419 30.8246 315.546 30.9244 315.672 31.018C315.798 31.1179 315.931 31.2053 316.063 31.2926C316.196 31.38 316.329 31.4736 316.461 31.561C316.726 31.7233 316.991 31.8855 317.263 32.0478C317.396 32.1289 317.528 32.2163 317.667 32.2912C317.806 32.366 317.945 32.4472 318.084 32.5221C318.223 32.597 318.362 32.6781 318.507 32.753C318.646 32.8279 318.791 32.909 318.936 32.9776C319.227 33.1212 319.523 33.2585 319.814 33.402C320.111 33.5393 320.42 33.6579 320.723 33.7889C321.026 33.9262 321.342 34.0323 321.658 34.1447C321.815 34.2008 321.973 34.257 322.131 34.3132C322.289 34.3693 322.453 34.4068 322.617 34.4567C322.782 34.5066 322.939 34.5503 323.104 34.6002C323.268 34.6502 323.432 34.6938 323.596 34.7313C323.924 34.8062 324.259 34.8811 324.594 34.9559C324.928 35.0121 325.269 35.0683 325.604 35.1245C325.774 35.1557 325.945 35.1744 326.115 35.1931C326.286 35.2118 326.456 35.2305 326.627 35.2493C327.997 35.3866 329.386 35.424 330.775 35.3803C331.122 35.3741 331.47 35.3491 331.817 35.3304L332.341 35.3054L332.859 35.268C333.206 35.243 333.553 35.2118 333.901 35.1869C334.248 35.1494 334.595 35.1182 334.943 35.0808C335.29 35.0496 335.637 35.0059 335.984 34.9684C336.332 34.9247 336.679 34.8873 337.026 34.8436C337.38 34.7937 337.727 34.7375 338.081 34.6876L338.611 34.6065C338.788 34.5815 338.958 34.5441 339.135 34.5066C339.482 34.438 339.836 34.3756 340.19 34.3069C340.537 34.2383 340.884 34.1509 341.231 34.0698C341.932 33.92 342.614 33.7203 343.309 33.5393C343.656 33.4457 343.991 33.3334 344.338 33.2335C344.679 33.1274 345.026 33.0338 345.361 32.9152C346.036 32.6906 346.712 32.4721 347.381 32.2225C348.72 31.7482 350.033 31.2178 351.334 30.6873C352.628 30.1443 353.916 29.5889 355.179 29.021C356.442 28.4593 357.692 27.8852 358.93 27.3235C360.167 26.7619 361.386 26.2189 362.598 25.676C365.017 24.5901 367.34 23.5042 369.607 22.5868C370.737 22.125 371.861 21.7069 372.96 21.3387C374.065 20.9705 375.151 20.6647 376.212 20.4088C378.27 19.922 380.265 19.7036 382.096 19.7722ZM384.458 20.0406C384.603 20.1217 384.729 20.1966 384.824 20.2465C384.843 20.259 384.856 20.2653 384.875 20.2715C384.742 20.2153 384.603 20.1654 384.451 20.103C384.338 20.0593 384.224 20.0094 384.104 19.9657C384.224 19.9907 384.344 20.0156 384.458 20.0406ZM376.066 19.7535C374.974 19.9907 373.856 20.2715 372.732 20.621C371.609 20.9705 370.459 21.3699 369.304 21.813C366.993 22.6929 364.631 23.7351 362.207 24.7648C360.995 25.2766 359.751 25.8008 358.507 26.3375C357.263 26.8742 356 27.4171 354.731 27.9538C353.462 28.4968 352.18 29.021 350.886 29.539C349.585 30.0382 348.284 30.5437 346.958 30.9868C346.302 31.2177 345.632 31.4237 344.969 31.6296C344.635 31.742 344.3 31.8231 343.965 31.923C343.631 32.0166 343.296 32.1227 342.961 32.2038C342.286 32.3723 341.617 32.5533 340.935 32.6843C340.594 32.753 340.259 32.8341 339.918 32.8965C339.577 32.9527 339.236 33.0151 338.901 33.0712C338.731 33.0962 338.561 33.1337 338.39 33.1586L337.879 33.2273C337.538 33.271 337.197 33.3146 336.862 33.3583C336.515 33.3958 336.174 33.427 335.826 33.4644C335.486 33.5019 335.138 33.5331 334.797 33.5643C334.715 33.5705 334.639 33.5767 334.557 33.583C334.564 33.5767 334.576 33.5767 334.583 33.5705C334.936 33.4457 335.391 33.377 335.934 33.3146C336.483 33.2585 337.089 33.1025 337.765 32.9714C339.122 32.6968 340.701 32.1975 342.412 31.5298C344.104 30.8059 345.898 29.901 347.741 28.9024C350.254 27.5482 352.565 26.2314 354.567 25.158C355.577 24.64 356.486 24.1408 357.32 23.7476C357.73 23.5416 358.115 23.3544 358.469 23.1797C358.829 23.0174 359.157 22.8739 359.454 22.7366C359.763 22.6367 360.104 22.5244 360.477 22.3996C360.849 22.281 361.266 22.1562 361.702 22.0189C362.579 21.7506 363.571 21.4385 364.663 21.1202C366.835 20.4837 369.386 19.7535 372.152 19.3354C373.168 19.1919 374.166 19.067 375.132 19.0296C375.618 18.9921 376.092 19.0046 376.559 18.9921C376.792 18.9921 377.02 19.0046 377.247 19.0109C377.474 19.0234 377.702 19.0171 377.923 19.0421C378.579 19.0858 379.211 19.1606 379.811 19.2667C378.598 19.3354 377.348 19.4976 376.066 19.7535Z" fill="white"/>
<path d="M364.676 17.3259C364.461 17.3945 364.246 17.4632 364.032 17.5318C363.842 17.5942 363.646 17.6441 363.457 17.7003C363.268 17.7502 363.072 17.8126 362.882 17.8626C362.497 17.9562 362.112 18.0623 361.721 18.1372C361.525 18.1746 361.335 18.2245 361.14 18.2557C360.944 18.2869 360.748 18.3244 360.559 18.3556C360.464 18.3743 360.363 18.393 360.268 18.4055L359.978 18.443C359.782 18.4679 359.586 18.4929 359.391 18.5178C359.195 18.5366 358.993 18.5553 358.797 18.5803C358.601 18.599 358.406 18.6177 358.21 18.6364C358.166 18.6427 358.115 18.6427 358.071 18.6489C358.077 18.6489 358.077 18.6427 358.084 18.6427C358.254 18.5803 358.469 18.5491 358.715 18.5116C358.494 18.5366 358.273 18.5491 358.046 18.5615C357.976 18.5927 357.926 18.6302 357.869 18.6614C357.787 18.6676 357.698 18.6739 357.616 18.6801C357.421 18.6926 357.225 18.7051 357.029 18.7176L356.739 18.7363L356.448 18.7488C356.253 18.755 356.063 18.7675 355.874 18.7675C355.11 18.78 354.352 18.7488 353.62 18.6614C353.525 18.6489 353.436 18.6364 353.348 18.6239C353.26 18.6115 353.165 18.6052 353.077 18.5865C352.9 18.5553 352.717 18.5241 352.54 18.4866C352.363 18.443 352.186 18.3993 352.016 18.3618C351.927 18.3431 351.845 18.3181 351.757 18.2869C351.668 18.262 351.586 18.237 351.498 18.2121C351.416 18.1871 351.328 18.1621 351.245 18.1309C351.163 18.0997 351.081 18.0685 350.999 18.0373C350.835 17.9749 350.665 17.9187 350.507 17.8438C350.349 17.7752 350.185 17.7066 350.027 17.6317C349.869 17.5505 349.717 17.4756 349.56 17.4008C349.484 17.3633 349.408 17.3196 349.332 17.2759C349.257 17.2323 349.181 17.1886 349.105 17.1511C349.029 17.1074 348.953 17.0638 348.884 17.0263C348.808 16.9826 348.739 16.9389 348.663 16.889C348.518 16.7954 348.372 16.708 348.234 16.6207C348.164 16.577 348.101 16.5271 348.032 16.4834C347.962 16.4397 347.899 16.3898 347.836 16.3398C347.773 16.2899 347.71 16.24 347.646 16.1963C347.583 16.1464 347.526 16.0902 347.463 16.0403C347.337 15.9404 347.23 15.8281 347.116 15.722C346.895 15.5036 346.687 15.2727 346.497 15.0355C346.308 14.7984 346.137 14.5487 345.986 14.2991C345.841 14.0432 345.695 13.7936 345.588 13.5315C345.468 13.2756 345.38 13.0073 345.298 12.7514C345.266 12.6204 345.228 12.4893 345.196 12.3582C345.171 12.2272 345.14 12.1024 345.127 11.9713C345.051 11.4596 345.045 10.9603 345.108 10.4985C345.165 10.0367 345.291 9.61232 345.449 9.22539C345.613 8.84471 345.809 8.50771 346.024 8.21439C346.232 7.91484 346.485 7.65272 346.743 7.39685C346.813 7.33445 346.876 7.27204 346.946 7.21587C346.977 7.18467 347.015 7.15347 347.047 7.1285L347.148 7.04737C347.211 6.99121 347.286 6.94128 347.356 6.89136L347.463 6.81647L347.577 6.74782C347.874 6.56684 348.196 6.41706 348.524 6.29224C348.852 6.17367 349.193 6.07382 349.534 6.00517C350.223 5.86788 350.917 5.82419 351.593 5.85539C351.934 5.87412 352.268 5.90532 352.59 5.96773C352.755 5.99269 352.912 6.03013 353.077 6.06758C353.159 6.0863 353.234 6.11126 353.316 6.12999C353.392 6.14871 353.474 6.16743 353.55 6.19863C354.788 6.56684 355.861 7.24708 356.543 8.13326C356.581 8.18943 356.625 8.24559 356.663 8.30176L356.726 8.38913L356.777 8.4765C356.814 8.53267 356.846 8.59508 356.884 8.65124C356.915 8.71365 356.947 8.76982 356.972 8.83223L357.017 8.9196C357.029 8.9508 357.042 8.982 357.054 9.0132C357.08 9.07561 357.105 9.13802 357.13 9.19419C357.149 9.25659 357.168 9.319 357.193 9.38141L357.225 9.47502C357.231 9.50622 357.238 9.53743 357.25 9.56863C357.263 9.63104 357.282 9.69345 357.294 9.75585C357.307 9.81826 357.313 9.88067 357.326 9.94308L357.339 10.0367L357.345 10.1303C357.351 10.1927 357.351 10.2551 357.357 10.3175C357.357 10.3799 357.357 10.4423 357.357 10.4985C357.357 10.5297 357.357 10.5609 357.357 10.5921L357.351 10.6857C357.345 10.7481 357.339 10.8043 357.339 10.8667C357.326 10.9229 357.32 10.9853 357.313 11.0414C357.307 11.0726 357.307 11.0976 357.301 11.1288L357.282 11.2162C357.269 11.2724 357.256 11.3285 357.244 11.3847C357.225 11.4409 357.206 11.497 357.193 11.5469L357.168 11.6281C357.155 11.653 357.149 11.678 357.137 11.7092C357.118 11.7591 357.092 11.8153 357.073 11.8652C357.048 11.9151 357.023 11.9651 357.004 12.015C356.96 12.1149 356.897 12.2085 356.846 12.3021C356.625 12.6703 356.335 12.9698 356.038 13.2007C355.735 13.4316 355.419 13.5939 355.11 13.7C354.8 13.7999 354.497 13.856 354.226 13.8685C354.194 13.8685 354.156 13.8747 354.125 13.8747C354.093 13.8747 354.062 13.8747 354.024 13.8747C353.961 13.8747 353.897 13.8747 353.834 13.8685C353.796 13.8623 353.765 13.8623 353.727 13.856C354.251 13.6001 354.586 13.0322 354.516 12.4144C354.434 11.6281 353.74 11.0539 352.957 11.1351C352.18 11.2162 351.612 11.9276 351.694 12.714C351.77 13.4192 352.331 13.9496 353.007 13.9933C353.039 14.0058 353.07 14.0245 353.108 14.037C353.203 14.0682 353.304 14.1056 353.411 14.1431C353.525 14.1743 353.645 14.2055 353.777 14.2367C353.847 14.2492 353.916 14.2554 353.986 14.2679C354.024 14.2741 354.055 14.2804 354.093 14.2804C354.131 14.2866 354.169 14.2866 354.207 14.2866C354.516 14.3116 354.863 14.2866 355.236 14.1993C355.608 14.1119 356 13.9496 356.372 13.7C356.745 13.4504 357.111 13.1134 357.402 12.689C357.471 12.5829 357.547 12.4768 357.61 12.3582C357.642 12.3021 357.679 12.2397 357.705 12.1835C357.736 12.1211 357.762 12.0587 357.793 11.9963C357.806 11.9651 357.825 11.9339 357.837 11.9027L357.875 11.8028C357.901 11.7404 357.926 11.6718 357.951 11.6031C357.97 11.5345 357.989 11.4658 358.008 11.3972L358.039 11.2911C358.046 11.2536 358.052 11.2224 358.065 11.185C358.077 11.1163 358.096 11.0414 358.109 10.9728C358.121 10.8979 358.128 10.8293 358.14 10.7544L358.153 10.642C358.159 10.6046 358.159 10.5671 358.159 10.5297C358.166 10.4548 358.166 10.3799 358.172 10.305C358.172 10.2301 358.166 10.149 358.166 10.0741L358.159 9.95556L358.147 9.83698C358.14 9.76209 358.128 9.68097 358.122 9.59984C358.109 9.52495 358.09 9.44382 358.077 9.36893C358.071 9.33148 358.065 9.2878 358.052 9.25035L358.02 9.13178C358.002 9.05689 357.976 8.97576 357.951 8.90087C357.926 8.82598 357.894 8.75109 357.869 8.66996C357.856 8.63252 357.844 8.59508 357.825 8.55763L357.774 8.4453C357.736 8.37041 357.705 8.29552 357.667 8.22063C357.629 8.14574 357.585 8.0771 357.547 8.00221L357.484 7.88987L357.414 7.78378C357.37 7.71513 357.32 7.64649 357.275 7.5716C357.073 7.30324 356.852 7.03489 356.6 6.80399C356.48 6.67917 356.341 6.57308 356.208 6.46074C356.139 6.40458 356.069 6.35465 356 6.30473C355.931 6.24856 355.861 6.19863 355.785 6.15495C355.71 6.10502 355.64 6.0551 355.564 6.01141C355.489 5.96773 355.413 5.92404 355.337 5.87412L355.223 5.80547L355.103 5.74306C355.021 5.69938 354.945 5.66193 354.863 5.61825C354.781 5.5808 354.699 5.54336 354.617 5.50591L354.491 5.44975L354.365 5.39982C354.283 5.36862 354.194 5.33117 354.112 5.29997C354.024 5.26876 353.942 5.2438 353.853 5.2126C353.765 5.18139 353.676 5.15643 353.588 5.13147C353.5 5.1065 353.411 5.08154 353.323 5.05658C353.146 5.01289 352.963 4.96921 352.78 4.938C352.414 4.86312 352.041 4.81943 351.662 4.79447C350.904 4.74454 350.122 4.78199 349.339 4.93176C348.947 5.00665 348.556 5.11275 348.17 5.25628C347.785 5.39358 347.4 5.57456 347.034 5.79299L346.895 5.87412L346.762 5.96773C346.674 6.03013 346.586 6.0863 346.497 6.15495L346.371 6.2548C346.327 6.286 346.283 6.32345 346.245 6.36089C346.169 6.42954 346.087 6.50443 346.005 6.57308C345.695 6.86639 345.399 7.18467 345.146 7.54039C344.893 7.89612 344.647 8.308 344.451 8.77606C344.256 9.24411 344.11 9.77458 344.041 10.3362C343.902 11.4658 344.079 12.7452 344.635 13.9434C344.767 14.2429 344.931 14.5363 345.102 14.8296C345.285 15.1166 345.481 15.3975 345.702 15.6658C345.916 15.9404 346.163 16.1963 346.415 16.4459C346.548 16.5645 346.674 16.6893 346.819 16.8016C346.889 16.8578 346.958 16.9202 347.028 16.9764C347.097 17.0326 347.173 17.0887 347.249 17.1386C347.318 17.1948 347.394 17.2447 347.476 17.2947C347.552 17.3446 347.627 17.4008 347.703 17.4507C347.855 17.5443 348.006 17.6379 348.164 17.7315C348.24 17.7752 348.316 17.8251 348.398 17.8688C348.48 17.9125 348.556 17.9562 348.638 17.9999C348.72 18.0436 348.796 18.0872 348.878 18.1309C348.96 18.1746 349.042 18.2183 349.124 18.262C349.288 18.3431 349.459 18.4242 349.629 18.5054C349.799 18.5865 349.976 18.6551 350.147 18.73C350.317 18.8049 350.5 18.8673 350.683 18.9297C350.772 18.9609 350.867 18.9921 350.955 19.0233C351.043 19.0545 351.138 19.0795 351.233 19.1045C351.327 19.1294 351.416 19.1606 351.511 19.1856C351.605 19.2106 351.7 19.2418 351.795 19.2605C351.984 19.3042 352.174 19.3479 352.369 19.3915C352.565 19.4228 352.755 19.454 352.95 19.4914C353.045 19.5101 353.146 19.5164 353.241 19.5288C353.335 19.5413 353.436 19.5538 353.537 19.56C354.32 19.6412 355.116 19.6599 355.912 19.6349C356.114 19.6287 356.309 19.6162 356.511 19.61L356.808 19.5975L357.105 19.5725C357.307 19.5538 357.503 19.5413 357.705 19.5226C357.9 19.5039 358.103 19.4852 358.305 19.4602C358.507 19.4415 358.702 19.4165 358.904 19.3915C359.107 19.3666 359.302 19.3416 359.504 19.3229C359.706 19.2917 359.908 19.2605 360.11 19.2355L360.414 19.1918C360.515 19.1794 360.616 19.1544 360.717 19.1357C360.919 19.0982 361.121 19.0608 361.316 19.0233C361.518 18.9859 361.714 18.9297 361.916 18.886C362.314 18.7987 362.712 18.6863 363.103 18.5803C363.299 18.5303 363.495 18.4617 363.691 18.4055C363.886 18.3431 364.082 18.2932 364.278 18.2245C364.663 18.0935 365.054 17.9687 365.433 17.8251C365.698 17.7315 365.964 17.6254 366.229 17.5256C366.248 17.3571 366.267 17.1948 366.286 17.0263C365.736 17.1636 365.212 17.251 364.676 17.3259Z" fill="white"/>
<path d="M389.503 26.6495C387.577 23.9161 383.801 21.969 380.265 21.451C376.66 20.9205 373.004 22.1375 369.872 23.7101C366.191 25.5574 362.876 27.9226 359.378 30.0258C356.063 32.0228 352.414 33.8763 348.366 34.0323C347.912 34.051 347.489 34.2757 347.482 34.5877C347.274 34.8561 347.451 35.2992 347.817 35.5551C350.602 37.4897 354.586 37.4897 357.888 36.5723C361.291 35.63 363.173 32.6594 364.846 29.9883C365.004 31.5485 365.427 33.0588 366.842 34.101C367.454 34.5565 369.443 35.3741 368.06 33.2959C366.614 31.1241 368.654 28.2659 370.371 26.4061C372.417 24.1844 375.789 23.1672 378.851 22.8115C378.939 22.799 379.015 22.7803 379.085 22.7491C379.388 22.7616 379.691 22.7865 379.994 22.824C385.828 23.5229 389.478 27.8727 390.235 32.7842C390.829 36.6097 390.166 41.9581 386.1 44.2671C384.306 45.2844 382.008 45.0909 380.126 44.523C379.842 44.4356 379.583 44.3358 379.331 44.2172C379.381 43.9426 379.255 43.7616 378.939 43.4746C378.081 42.6945 377.853 41.2279 378.182 39.9548C379.76 40.5913 381.945 40.2231 383.536 39.5367C385.658 38.6255 387.148 36.2727 386.112 34.6065C386.074 34.4817 386.017 34.3693 385.942 34.2695C385.897 34.0573 385.727 33.8701 385.5 33.7577C380.979 31.5672 376.471 34.2944 375.315 38.5069C374.021 43.2124 378.295 46.364 383.227 46.364C387.886 46.364 390.557 42.501 391.498 38.8876C392.553 34.8499 391.959 30.1381 389.503 26.6495ZM383.959 36.8469C383.978 36.8469 383.997 36.8407 384.01 36.8344C383.984 36.8594 383.959 36.8843 383.934 36.9031C383.94 36.8906 383.953 36.8719 383.959 36.8469Z" fill="white"/>
<path d="M407.788 20.3901C408.849 20.6459 409.942 20.9455 411.04 21.3199C412.139 21.6944 413.263 22.1063 414.393 22.5681C416.66 23.4917 418.983 24.5714 421.402 25.6573C422.614 26.2002 423.833 26.7431 425.07 27.3048C426.308 27.8665 427.552 28.4344 428.821 29.0023C430.084 29.5702 431.365 30.1256 432.666 30.6686C433.967 31.199 435.28 31.7295 436.619 32.2038C437.282 32.4534 437.964 32.6718 438.639 32.8965C438.974 33.0151 439.321 33.1087 439.662 33.2148C440.003 33.3146 440.344 33.427 440.691 33.5206C441.38 33.7016 442.068 33.9013 442.769 34.051C443.116 34.1322 443.463 34.2195 443.81 34.2882C444.164 34.3568 444.511 34.4255 444.865 34.4879C445.042 34.5191 445.212 34.5565 445.389 34.5877L445.919 34.6689C446.273 34.7188 446.627 34.775 446.974 34.8249C447.321 34.8686 447.668 34.906 448.016 34.9497C448.363 34.9934 448.71 35.0308 449.058 35.062C449.405 35.0995 449.752 35.1307 450.099 35.1681C450.447 35.1931 450.794 35.2243 451.141 35.2493L451.659 35.2867L452.183 35.3117C452.53 35.3242 452.878 35.3554 453.225 35.3616C454.614 35.4053 456.003 35.3678 457.373 35.2305C457.544 35.2118 457.714 35.1931 457.885 35.1744C458.055 35.1556 458.226 35.1369 458.396 35.1057C458.737 35.0496 459.072 34.9934 459.406 34.9372C459.741 34.8623 460.076 34.7874 460.404 34.7126C460.568 34.6814 460.732 34.6314 460.896 34.5815C461.061 34.5316 461.219 34.4879 461.383 34.438C461.547 34.388 461.711 34.3506 461.869 34.2944C462.027 34.2383 462.185 34.1821 462.342 34.1259C462.658 34.0136 462.974 33.9075 463.277 33.7702C463.58 33.6392 463.889 33.5206 464.186 33.3833C464.483 33.2397 464.773 33.0962 465.064 32.9589C465.209 32.8903 465.354 32.8154 465.493 32.7342C465.632 32.6594 465.777 32.5782 465.916 32.5033C466.055 32.4284 466.194 32.3473 466.333 32.2724C466.472 32.1975 466.604 32.1102 466.737 32.029C467.009 31.8668 467.274 31.7045 467.539 31.5423C467.672 31.4549 467.804 31.3613 467.937 31.2739C468.069 31.1865 468.202 31.0929 468.328 30.9993C468.455 30.9057 468.581 30.8059 468.707 30.7122C468.833 30.6124 468.953 30.5125 469.073 30.4127C469.319 30.213 469.547 29.9946 469.774 29.7886C470.222 29.3518 470.645 28.9087 471.024 28.4281C471.409 27.9601 471.75 27.4608 472.066 26.9678C472.369 26.4623 472.653 25.9506 472.887 25.4201C473.853 23.3295 474.162 21.0953 473.923 19.1232C473.803 18.1372 473.544 17.2135 473.203 16.396C472.862 15.5785 472.432 14.8608 471.99 14.2429C471.548 13.6189 471.031 13.0634 470.494 12.5517C470.355 12.4269 470.216 12.3021 470.083 12.1773C470.014 12.1149 469.945 12.0524 469.869 11.9963L469.642 11.8215C469.496 11.703 469.338 11.5969 469.181 11.4908L468.947 11.3348L468.707 11.1912C468.069 10.8105 467.406 10.4985 466.731 10.2551C466.055 10.0117 465.373 9.8245 464.685 9.69345C463.315 9.43134 461.951 9.36269 460.625 9.45006C459.962 9.49374 459.312 9.57487 458.674 9.69969C458.352 9.75586 458.036 9.83698 457.727 9.90563C457.569 9.94308 457.417 9.993 457.26 10.0367C457.108 10.0804 456.95 10.1241 456.799 10.174C456.647 10.2239 456.496 10.2738 456.344 10.3238C456.192 10.3799 456.047 10.4361 455.902 10.4923L455.681 10.5796L455.466 10.6732C455.321 10.7356 455.182 10.8043 455.037 10.8667C454.898 10.9354 454.759 11.0102 454.62 11.0789L454.412 11.185L454.21 11.3036C454.077 11.3847 453.945 11.4596 453.812 11.5407C453.686 11.6281 453.553 11.7092 453.427 11.7966C453.294 11.8777 453.174 11.9713 453.054 12.0649C452.934 12.1585 452.808 12.2459 452.688 12.3395C452.455 12.5392 452.221 12.7264 452.006 12.9386C451.564 13.3443 451.185 13.8123 450.832 14.2804C450.75 14.4052 450.668 14.5238 450.585 14.6486L450.466 14.8296L450.358 15.023C450.289 15.1479 450.213 15.2789 450.144 15.4037C450.08 15.5348 450.024 15.6658 449.96 15.7969L449.872 15.9904C449.847 16.059 449.821 16.1214 449.796 16.1901C449.746 16.3274 449.695 16.4584 449.651 16.5895C449.607 16.7268 449.575 16.8641 449.537 16.9951L449.481 17.1948C449.462 17.2635 449.455 17.3321 449.436 17.4008C449.411 17.5381 449.386 17.6753 449.361 17.8064C449.348 17.9437 449.329 18.081 449.316 18.2121L449.297 18.4118L449.291 18.6115C449.285 18.7488 449.285 18.8798 449.279 19.0109C449.285 19.1419 449.291 19.2792 449.297 19.4103C449.304 19.4789 449.304 19.5413 449.31 19.6037L449.335 19.7972C449.354 19.9283 449.367 20.0531 449.386 20.1841C449.411 20.3089 449.436 20.4338 449.462 20.5586C449.474 20.621 449.487 20.6834 449.499 20.7458L449.55 20.9268C449.588 21.0453 449.619 21.1639 449.657 21.2825C449.702 21.3948 449.746 21.5134 449.784 21.6257L449.847 21.7942C449.872 21.8504 449.897 21.9066 449.923 21.9565C449.973 22.0626 450.024 22.1749 450.074 22.281C450.125 22.3871 450.188 22.487 450.245 22.5868C450.352 22.7928 450.484 22.98 450.611 23.1672C451.122 23.9098 451.76 24.4965 452.41 24.9333C453.067 25.3702 453.749 25.651 454.399 25.807C455.05 25.963 455.656 26.0067 456.192 25.963C456.262 25.9568 456.325 25.9568 456.388 25.9506C456.451 25.9443 456.514 25.9318 456.578 25.9256C456.704 25.9069 456.824 25.8882 456.944 25.8694C457.177 25.8133 457.392 25.7633 457.588 25.7072C457.777 25.6385 457.954 25.5761 458.118 25.52C458.181 25.495 458.232 25.4638 458.289 25.4388C459.47 25.3577 460.461 24.4341 460.587 23.1984C460.732 21.8192 459.747 20.5835 458.383 20.44C457.026 20.2965 455.807 21.295 455.662 22.6742C455.548 23.7538 456.136 24.7461 457.045 25.1892C456.982 25.1954 456.925 25.2017 456.862 25.2079C456.754 25.2079 456.647 25.2142 456.533 25.2142C456.477 25.2142 456.42 25.2142 456.363 25.2204C456.306 25.2204 456.243 25.2142 456.186 25.2079C455.706 25.1954 455.189 25.0956 454.646 24.9208C454.102 24.7399 453.547 24.4528 453.023 24.0471C452.505 23.6415 452.006 23.1235 451.615 22.4807C451.52 22.3185 451.419 22.1562 451.337 21.9815C451.293 21.8941 451.248 21.8067 451.211 21.7193C451.173 21.6257 451.135 21.5384 451.103 21.4448C451.084 21.4011 451.065 21.3511 451.046 21.3075L451.002 21.1639C450.971 21.0703 450.939 20.9705 450.908 20.8768C450.882 20.777 450.863 20.6771 450.838 20.5773L450.8 20.4275C450.788 20.3776 450.781 20.3277 450.775 20.2777C450.756 20.1779 450.743 20.0718 450.724 19.9719C450.718 19.8658 450.706 19.766 450.699 19.6599L450.687 19.5039C450.687 19.4477 450.687 19.3978 450.687 19.3416C450.687 19.2355 450.687 19.1294 450.687 19.0233C450.693 18.9173 450.699 18.8112 450.712 18.6988L450.724 18.5366L450.75 18.3743C450.769 18.2682 450.781 18.1559 450.8 18.0498C450.825 17.9437 450.851 17.8314 450.876 17.7253C450.889 17.6691 450.901 17.6129 450.914 17.563L450.964 17.4008C451.002 17.2947 451.034 17.1823 451.072 17.0762C451.116 16.9701 451.16 16.8641 451.204 16.758C451.23 16.708 451.249 16.6519 451.274 16.5957L451.356 16.4397C451.406 16.3336 451.463 16.2337 451.514 16.1276C451.577 16.0278 451.64 15.9279 451.697 15.8219L451.792 15.6721L451.899 15.5223C451.968 15.4224 452.038 15.3226 452.114 15.229C453.313 13.6813 455.176 12.4893 457.342 11.8527C457.474 11.8091 457.613 11.7716 457.752 11.7404C457.891 11.703 458.024 11.6655 458.169 11.6343C458.447 11.5719 458.731 11.5095 459.015 11.4658C459.583 11.3597 460.17 11.3036 460.764 11.2724C461.945 11.2099 463.163 11.2848 464.357 11.5282C464.956 11.6468 465.544 11.8215 466.118 12.0275C466.693 12.2334 467.249 12.5018 467.773 12.8201L467.968 12.9386L468.158 13.0697C468.284 13.1571 468.41 13.2382 468.524 13.338L468.701 13.4816C468.758 13.5253 468.821 13.5752 468.878 13.6314C468.998 13.7374 469.111 13.8435 469.231 13.9496C469.686 14.3927 470.121 14.8545 470.488 15.3725C470.854 15.8843 471.207 16.4709 471.492 17.1386C471.776 17.8064 471.984 18.5491 472.091 19.3541C472.192 20.1592 472.186 21.0266 472.053 21.919C472.028 22.1437 471.971 22.3684 471.927 22.593C471.883 22.8177 471.814 23.0424 471.757 23.2733C471.612 23.7226 471.46 24.1844 471.252 24.6338C471.056 25.0893 470.816 25.5324 470.557 25.9755C470.286 26.4124 469.995 26.8492 469.66 27.2611C469.338 27.6792 468.966 28.0787 468.581 28.4656C468.379 28.6528 468.189 28.8463 467.968 29.021C467.861 29.1084 467.76 29.202 467.653 29.2894C467.545 29.3767 467.432 29.4579 467.318 29.5452C467.211 29.6326 467.091 29.7137 466.977 29.7949C466.863 29.876 466.75 29.9571 466.63 30.0382C466.383 30.1943 466.131 30.3503 465.878 30.5125C465.752 30.5874 465.626 30.6748 465.499 30.7497C465.367 30.8246 465.241 30.8995 465.108 30.9681C464.975 31.043 464.849 31.1179 464.716 31.1928C464.584 31.2677 464.458 31.3426 464.319 31.405C464.047 31.5423 463.776 31.6733 463.504 31.8106C463.233 31.9417 462.949 32.054 462.671 32.1788C462.393 32.3099 462.102 32.4097 461.812 32.5158C461.667 32.572 461.522 32.6219 461.376 32.6781C461.231 32.7342 461.08 32.7717 460.934 32.8154C460.783 32.8591 460.638 32.9027 460.486 32.9527C460.335 32.9964 460.189 33.0463 460.038 33.0775C459.735 33.1524 459.425 33.2273 459.122 33.2959C458.813 33.3521 458.497 33.4082 458.188 33.4644C458.03 33.4956 457.872 33.5143 457.714 33.5331C457.556 33.5518 457.398 33.5767 457.234 33.5955C455.953 33.7452 454.639 33.8014 453.301 33.7764C452.966 33.7764 452.631 33.7577 452.29 33.7452L451.785 33.7265L451.28 33.6953C450.939 33.6766 450.598 33.6516 450.263 33.6329C450.118 33.6204 449.967 33.6079 449.815 33.5955C449.727 33.5331 449.626 33.4707 449.506 33.4145C449.152 33.2397 448.679 33.1149 448.148 32.9964C447.618 32.884 447.037 32.6781 446.38 32.4846C445.073 32.0977 443.571 31.4923 441.929 30.7622C440.319 29.9758 438.57 29.0272 436.726 28.0287C434.219 26.6745 431.839 25.4513 429.755 24.5027C428.707 24.0471 427.754 23.6165 426.882 23.2983C426.453 23.136 426.049 22.98 425.676 22.8364C425.298 22.7116 424.957 22.5993 424.647 22.4994C424.35 22.3684 424.016 22.2186 423.656 22.0563C423.29 21.8941 422.892 21.7381 422.469 21.5633C421.616 21.2201 420.65 20.8269 419.577 20.4338C417.436 19.6474 414.873 18.7987 412.013 18.3618C410.958 18.2121 409.929 18.0997 408.919 18.0872C408.42 18.0623 407.921 18.0935 407.441 18.0997C407.201 18.1122 406.961 18.1309 406.728 18.1496C406.494 18.1684 406.26 18.1746 406.027 18.2121C404.379 18.3993 402.933 18.8361 401.721 19.2605C401.462 19.2792 401.209 19.3042 400.957 19.3354C401.487 19.0982 402.106 18.8486 402.826 18.599C402.983 18.5428 403.141 18.4866 403.305 18.4305C403.47 18.3806 403.64 18.3244 403.811 18.2745C404.152 18.1621 404.511 18.0685 404.884 17.9624C405.635 17.769 406.431 17.5693 407.283 17.4195C408.136 17.2697 409.032 17.1386 409.961 17.0762C410.428 17.045 410.895 17.0326 411.375 17.0388C411.615 17.045 411.861 17.0575 412.107 17.0638C412.354 17.0762 412.6 17.095 412.846 17.1137C415.542 17.3259 418.049 17.8938 420.164 18.443C422.279 19.0109 424.022 19.5725 425.215 19.9657C425.784 20.2341 426.491 20.5461 427.28 20.958C428.076 21.3636 428.972 21.813 429.957 22.2997C430.923 22.8302 431.972 23.3981 433.089 23.991C434.188 24.615 435.343 25.2766 436.543 25.9568C437.414 26.4685 438.273 26.9678 439.106 27.4421C439.921 27.9102 440.672 28.4281 441.399 28.9274C442.118 29.4267 442.813 29.9072 443.463 30.344C444.12 30.7809 444.751 31.1678 445.332 31.5048C446.507 32.1663 447.536 32.5657 448.256 32.7592C448.439 32.8091 448.597 32.8528 448.736 32.884C448.874 32.909 448.994 32.9277 449.095 32.9464C449.291 32.9776 449.392 32.9964 449.392 32.9964C449.392 32.9964 449.291 32.9652 449.108 32.9027C449.013 32.8715 448.9 32.8341 448.761 32.7967C448.628 32.7467 448.477 32.6843 448.3 32.6157C447.612 32.3348 446.664 31.8356 445.578 31.0867C445.035 30.706 444.455 30.2816 443.836 29.8011C443.217 29.3206 442.554 28.8026 441.859 28.2596C441.159 27.7229 440.401 27.155 439.567 26.6433C438.747 26.144 437.888 25.6323 437.01 25.1143C435.81 24.4216 434.617 23.7975 433.493 23.1984C432.344 22.643 431.258 22.125 430.254 21.6569C429.225 21.2326 428.284 20.8519 427.457 20.5211C426.63 20.1904 425.891 19.9532 425.291 19.7473C424.148 19.2168 422.456 18.4804 420.354 17.7627C418.251 17.0638 415.713 16.3648 412.909 16.1464C412.65 16.1276 412.398 16.1089 412.139 16.0964C411.886 16.0902 411.627 16.084 411.375 16.0777C410.87 16.0777 410.365 16.1027 409.878 16.1464C408.9 16.24 407.978 16.4085 407.107 16.6144C406.235 16.8141 405.427 17.07 404.676 17.3259C404.303 17.4632 403.943 17.588 403.602 17.7315C403.432 17.8002 403.268 17.8688 403.103 17.9375C402.946 18.0124 402.788 18.081 402.63 18.1496C401.632 18.599 400.83 19.0546 400.23 19.4352C399.807 19.5039 399.397 19.5975 399.006 19.7098C398.311 19.9095 397.667 20.1904 397.105 20.5523C397.155 20.6397 397.206 20.7271 397.238 20.8332C397.244 20.8519 397.25 20.8644 397.257 20.8831C397.793 20.5461 398.425 20.2902 399.107 20.1155C399.17 20.0968 399.239 20.0905 399.302 20.0718C399.245 20.1155 399.189 20.1592 399.144 20.1966C399.088 20.2403 399.043 20.2777 399.006 20.3027C398.721 20.415 398.463 20.5149 398.242 20.6085C397.793 20.777 397.471 20.8956 397.294 20.9642C397.294 20.9705 397.301 20.9767 397.301 20.9829C397.49 20.9393 397.825 20.8581 398.286 20.752C398.658 20.6522 399.113 20.5274 399.637 20.3838C400.161 20.2341 400.761 20.0656 401.417 19.8846C401.575 19.8409 401.733 19.7972 401.897 19.7535C403.728 19.7036 405.717 19.922 407.788 20.3901ZM399.883 19.9719C399.763 20.0156 399.65 20.0656 399.536 20.1092C399.391 20.1654 399.252 20.2216 399.113 20.2777C399.132 20.2715 399.144 20.259 399.163 20.2528C399.258 20.1966 399.384 20.128 399.53 20.0468C399.65 20.0156 399.763 19.9907 399.883 19.9719ZM404.189 19.2667C404.789 19.1669 405.421 19.0858 406.077 19.0421C406.298 19.0171 406.526 19.0233 406.753 19.0109C406.98 19.0046 407.208 18.9921 407.441 18.9921C407.908 19.0046 408.382 18.9921 408.868 19.0296C409.834 19.067 410.832 19.1918 411.848 19.3354C414.62 19.7535 417.165 20.4837 419.337 21.1202C420.423 21.4448 421.414 21.7505 422.298 22.0189C422.734 22.1562 423.151 22.2748 423.523 22.3996C423.896 22.5244 424.243 22.6305 424.546 22.7366C424.843 22.8676 425.171 23.0174 425.531 23.1797C425.885 23.3544 426.27 23.5416 426.68 23.7476C427.507 24.1345 428.423 24.64 429.433 25.158C431.435 26.2314 433.746 27.5482 436.259 28.9024C438.103 29.9072 439.896 30.8059 441.588 31.5298C443.299 32.1975 444.878 32.6968 446.235 32.9714C446.911 33.1087 447.517 33.2585 448.066 33.3146C448.609 33.3833 449.064 33.4457 449.417 33.5705C449.424 33.5705 449.436 33.5767 449.443 33.583C449.361 33.5767 449.285 33.5705 449.203 33.5643C448.862 33.5393 448.515 33.5019 448.174 33.4644C447.833 33.427 447.485 33.3958 447.138 33.3583C446.797 33.3146 446.456 33.271 446.121 33.2273L445.61 33.1586C445.439 33.1337 445.269 33.1025 445.099 33.0712C444.758 33.0151 444.417 32.9527 444.082 32.8965C443.741 32.8341 443.406 32.753 443.065 32.6843C442.384 32.5533 441.714 32.366 441.039 32.2038C440.704 32.1227 440.369 32.0166 440.035 31.9229C439.7 31.8231 439.365 31.742 439.031 31.6296C438.368 31.4174 437.698 31.2177 437.042 30.9868C435.716 30.5437 434.415 30.0445 433.114 29.539C431.82 29.021 430.538 28.4968 429.269 27.9538C428 27.4171 426.743 26.868 425.493 26.3375C424.249 25.8008 423.005 25.2766 421.793 24.7648C419.362 23.7351 417.007 22.6929 414.696 21.813C413.541 21.3699 412.398 20.9767 411.268 20.621C410.137 20.2715 409.02 19.9907 407.934 19.7535C406.639 19.4976 405.389 19.3354 404.189 19.2667Z" fill="white"/>
<path d="M419.312 17.3259C419.526 17.3945 419.741 17.4632 419.956 17.5318C420.145 17.5942 420.341 17.6441 420.53 17.7003C420.72 17.7502 420.915 17.8126 421.105 17.8626C421.49 17.9562 421.875 18.0623 422.267 18.1372C422.462 18.1746 422.652 18.2245 422.847 18.2557C423.043 18.2869 423.239 18.3244 423.428 18.3556C423.523 18.3743 423.624 18.393 423.719 18.4055L424.009 18.443C424.205 18.4679 424.401 18.4929 424.596 18.5178C424.792 18.5366 424.994 18.5553 425.19 18.5803C425.386 18.599 425.581 18.6177 425.777 18.6364C425.821 18.6427 425.872 18.6427 425.916 18.6489C425.91 18.6489 425.91 18.6427 425.903 18.6427C425.733 18.5803 425.518 18.5491 425.272 18.5116C425.493 18.5366 425.714 18.5491 425.941 18.5615C426.011 18.5927 426.061 18.6302 426.118 18.6614C426.2 18.6676 426.289 18.6739 426.371 18.6801C426.566 18.6926 426.762 18.7051 426.958 18.7176L427.248 18.7363L427.539 18.7488C427.735 18.755 427.924 18.7675 428.113 18.7675C428.877 18.78 429.635 18.7488 430.368 18.6614C430.462 18.6489 430.551 18.6364 430.639 18.6239C430.727 18.6115 430.822 18.6052 430.911 18.5865C431.087 18.5553 431.27 18.5241 431.447 18.4866C431.624 18.443 431.801 18.3993 431.971 18.3618C432.06 18.3431 432.142 18.3181 432.23 18.2869C432.319 18.262 432.401 18.237 432.489 18.2121C432.571 18.1871 432.66 18.1621 432.742 18.1309C432.824 18.0997 432.906 18.0685 432.988 18.0373C433.152 17.9749 433.323 17.9187 433.48 17.8438C433.638 17.7752 433.802 17.7066 433.96 17.6317C434.118 17.5505 434.27 17.4756 434.428 17.4008C434.503 17.3633 434.579 17.3196 434.655 17.2759C434.731 17.2323 434.806 17.1886 434.882 17.1511C434.958 17.1137 435.034 17.0638 435.103 17.0263C435.179 16.9826 435.248 16.9389 435.324 16.889C435.469 16.7954 435.615 16.708 435.753 16.6207C435.823 16.577 435.886 16.5271 435.956 16.4834C436.025 16.4397 436.088 16.3898 436.151 16.3398C436.214 16.2899 436.278 16.24 436.341 16.1963C436.404 16.1464 436.461 16.0902 436.524 16.0403C436.65 15.9404 436.757 15.8281 436.871 15.722C437.092 15.5036 437.3 15.2727 437.49 15.0355C437.679 14.7984 437.85 14.5487 438.001 14.2991C438.147 14.0432 438.292 13.7936 438.399 13.5315C438.519 13.2756 438.607 13.0073 438.69 12.7514C438.721 12.6204 438.759 12.4893 438.791 12.3582C438.816 12.2272 438.847 12.1024 438.86 11.9713C438.936 11.4596 438.942 10.9603 438.879 10.4985C438.822 10.0367 438.696 9.61232 438.538 9.22539C438.374 8.84471 438.178 8.50771 437.963 8.21439C437.755 7.91484 437.502 7.65272 437.244 7.39685C437.174 7.33445 437.111 7.27204 437.042 7.21587C437.01 7.18467 436.972 7.15347 436.941 7.1285L436.84 7.04737C436.776 6.99121 436.701 6.94128 436.631 6.89136L436.524 6.81647L436.41 6.74782C436.113 6.56684 435.791 6.41706 435.463 6.29224C435.135 6.17367 434.794 6.07382 434.453 6.00517C433.765 5.86788 433.07 5.82419 432.394 5.85539C432.053 5.87412 431.719 5.90532 431.397 5.96773C431.233 5.99269 431.075 6.03013 430.911 6.06758C430.829 6.0863 430.753 6.11126 430.671 6.12999C430.595 6.14871 430.513 6.16743 430.437 6.19863C429.199 6.56684 428.126 7.24708 427.444 8.13326C427.406 8.18943 427.362 8.24559 427.324 8.30176L427.261 8.38913L427.211 8.4765C427.173 8.53267 427.141 8.59508 427.103 8.65124C427.072 8.71365 427.04 8.76982 427.015 8.83223L426.971 8.9196C426.958 8.9508 426.945 8.982 426.933 9.0132C426.907 9.07561 426.882 9.13802 426.857 9.19419C426.838 9.25659 426.819 9.319 426.794 9.38141L426.762 9.47502C426.756 9.50622 426.75 9.53743 426.737 9.56863C426.724 9.63104 426.705 9.69345 426.693 9.75585C426.68 9.81826 426.674 9.88067 426.661 9.94308L426.649 10.0367L426.642 10.1303C426.636 10.1927 426.636 10.2551 426.63 10.3175C426.63 10.3799 426.63 10.4423 426.63 10.4985C426.63 10.5297 426.63 10.5609 426.63 10.5921L426.636 10.6857C426.642 10.7481 426.649 10.8043 426.649 10.8667C426.661 10.9229 426.667 10.9853 426.68 11.0414C426.686 11.0726 426.686 11.0976 426.693 11.1288L426.712 11.2162C426.724 11.2724 426.737 11.3285 426.75 11.3847C426.768 11.4409 426.787 11.497 426.8 11.5469L426.825 11.6281C426.838 11.653 426.844 11.678 426.857 11.7092C426.876 11.7591 426.901 11.8153 426.92 11.8652C426.945 11.9151 426.971 11.9651 426.989 12.015C427.034 12.1149 427.097 12.2085 427.147 12.3021C427.368 12.6703 427.659 12.9698 427.956 13.2007C428.259 13.4316 428.574 13.5939 428.884 13.7C429.193 13.7999 429.496 13.856 429.768 13.8685C429.799 13.8685 429.837 13.8747 429.869 13.8747C429.9 13.8747 429.932 13.8747 429.97 13.8747C430.033 13.8747 430.096 13.8747 430.159 13.8685C430.197 13.8623 430.229 13.8623 430.267 13.856C429.742 13.6001 429.408 13.0322 429.477 12.4144C429.559 11.6281 430.254 11.0539 431.037 11.1351C431.813 11.2162 432.382 11.9276 432.3 12.714C432.224 13.4192 431.662 13.9496 430.986 13.9933C430.955 14.0058 430.923 14.0245 430.885 14.037C430.791 14.0682 430.69 14.1056 430.582 14.1431C430.469 14.1743 430.349 14.2055 430.216 14.2367C430.147 14.2492 430.077 14.2554 430.008 14.2679C429.97 14.2741 429.938 14.2804 429.9 14.2804C429.862 14.2866 429.825 14.2866 429.787 14.2866C429.477 14.3116 429.13 14.2866 428.757 14.1993C428.385 14.1119 427.993 13.9496 427.621 13.7C427.248 13.4504 426.882 13.1134 426.592 12.689C426.522 12.5829 426.446 12.4768 426.383 12.3582C426.352 12.3021 426.314 12.2397 426.289 12.1835C426.257 12.1211 426.232 12.0587 426.2 11.9963C426.188 11.9651 426.169 11.9339 426.156 11.9027L426.118 11.8028C426.093 11.7404 426.068 11.6718 426.042 11.6031C426.023 11.5345 426.005 11.4658 425.986 11.3972L425.954 11.2911C425.948 11.2536 425.941 11.2224 425.929 11.185C425.916 11.1163 425.897 11.0414 425.885 10.9728C425.872 10.8979 425.866 10.8293 425.853 10.7544L425.84 10.642C425.834 10.6046 425.834 10.5671 425.834 10.5297C425.828 10.4548 425.828 10.3799 425.821 10.305C425.821 10.2301 425.828 10.149 425.828 10.0741L425.834 9.95556L425.847 9.83698C425.853 9.76209 425.866 9.68097 425.872 9.59984C425.885 9.52495 425.903 9.44382 425.916 9.36893C425.922 9.33148 425.929 9.2878 425.941 9.25035L425.973 9.13178C425.992 9.05689 426.017 8.97576 426.042 8.90087C426.068 8.82598 426.099 8.75109 426.124 8.66996C426.137 8.63252 426.15 8.59508 426.169 8.55763L426.219 8.4453C426.257 8.37041 426.289 8.29552 426.327 8.22063C426.364 8.14574 426.409 8.0771 426.446 8.00221L426.51 7.88987L426.579 7.78378C426.623 7.71513 426.674 7.64649 426.718 7.5716C426.92 7.30324 427.141 7.03489 427.394 6.80399C427.514 6.67917 427.652 6.57308 427.785 6.46074C427.855 6.40458 427.924 6.35465 427.993 6.30473C428.063 6.24856 428.132 6.19863 428.208 6.15495C428.284 6.10502 428.353 6.0551 428.429 6.01141C428.505 5.96773 428.581 5.92404 428.656 5.87412L428.77 5.80547L428.89 5.74306C428.972 5.69938 429.048 5.66193 429.13 5.61825C429.212 5.5808 429.294 5.54336 429.376 5.50591L429.503 5.44975L429.629 5.39982C429.711 5.36862 429.799 5.33117 429.881 5.29997C429.97 5.26876 430.052 5.2438 430.14 5.2126C430.229 5.18139 430.317 5.15643 430.405 5.13147C430.494 5.1065 430.582 5.08154 430.671 5.05658C430.847 5.01289 431.031 4.96921 431.214 4.938C431.58 4.86312 431.952 4.81943 432.331 4.79447C433.089 4.74454 433.872 4.78199 434.655 4.93176C435.046 5.00665 435.438 5.11275 435.823 5.25628C436.208 5.39358 436.593 5.57456 436.959 5.79299L437.098 5.87412L437.231 5.96773C437.319 6.03013 437.408 6.0863 437.496 6.15495L437.623 6.2548C437.667 6.286 437.711 6.32345 437.749 6.36089C437.825 6.42954 437.907 6.50443 437.989 6.57308C438.298 6.86639 438.595 7.18467 438.847 7.54039C439.1 7.89612 439.346 8.308 439.542 8.77606C439.738 9.24411 439.883 9.77458 439.952 10.3362C440.091 11.4658 439.915 12.7452 439.359 13.9434C439.226 14.2429 439.062 14.5363 438.892 14.8296C438.709 15.1166 438.513 15.3975 438.292 15.6658C438.077 15.9404 437.831 16.1963 437.578 16.4459C437.446 16.5645 437.319 16.6893 437.174 16.8016C437.105 16.8578 437.035 16.9202 436.966 16.9764C436.896 17.0326 436.821 17.0887 436.745 17.1386C436.675 17.1948 436.6 17.2447 436.518 17.2947C436.442 17.3446 436.366 17.4008 436.29 17.4507C436.139 17.5443 435.987 17.6379 435.829 17.7315C435.753 17.7752 435.678 17.8251 435.596 17.8688C435.514 17.9125 435.438 17.9562 435.356 17.9999C435.274 18.0436 435.198 18.0872 435.116 18.1309C435.034 18.1746 434.952 18.2183 434.87 18.262C434.705 18.3431 434.535 18.4242 434.364 18.5054C434.194 18.5865 434.017 18.6551 433.847 18.73C433.676 18.8049 433.493 18.8673 433.31 18.9297C433.222 18.9609 433.127 18.9921 433.038 19.0233C432.95 19.0545 432.855 19.0795 432.761 19.1045C432.666 19.1294 432.578 19.1606 432.483 19.1856C432.388 19.2106 432.293 19.2418 432.199 19.2605C432.009 19.3042 431.82 19.3479 431.624 19.3915C431.428 19.4228 431.239 19.454 431.043 19.4914C430.948 19.5101 430.847 19.5164 430.753 19.5288C430.658 19.5413 430.557 19.5538 430.456 19.56C429.673 19.6412 428.877 19.6599 428.082 19.6349C427.88 19.6287 427.684 19.6162 427.482 19.61L427.185 19.5975L426.889 19.5725C426.686 19.5538 426.491 19.5413 426.289 19.5226C426.093 19.5039 425.891 19.4852 425.689 19.4602C425.487 19.4415 425.291 19.4165 425.089 19.3915C424.887 19.3666 424.691 19.3416 424.489 19.3229C424.287 19.2917 424.085 19.2605 423.883 19.2355L423.58 19.1918C423.479 19.1794 423.378 19.1544 423.277 19.1357C423.075 19.0982 422.873 19.0608 422.677 19.0233C422.475 18.9859 422.279 18.9297 422.077 18.886C421.679 18.7987 421.282 18.6863 420.89 18.5803C420.694 18.5303 420.499 18.4617 420.303 18.4055C420.107 18.3431 419.911 18.2932 419.716 18.2245C419.331 18.0935 418.939 17.9687 418.56 17.8251C418.295 17.7315 418.03 17.6254 417.765 17.5256C417.746 17.3571 417.727 17.1948 417.708 17.0263C418.251 17.1636 418.781 17.251 419.312 17.3259Z" fill="white"/>
<path d="M392.483 38.8876C393.424 42.5072 396.101 46.364 400.755 46.364C405.68 46.364 409.954 43.2124 408.666 38.5069C407.511 34.2944 402.996 31.561 398.482 33.7577C398.254 33.8701 398.09 34.0573 398.039 34.2695C397.964 34.3693 397.913 34.4817 397.869 34.6065C396.833 36.2727 398.324 38.6255 400.445 39.5367C402.036 40.2231 404.221 40.5913 405.8 39.9548C406.122 41.2279 405.901 42.6945 405.042 43.4746C404.726 43.7616 404.6 43.9426 404.65 44.2172C404.404 44.3358 404.139 44.4356 403.855 44.523C401.973 45.0909 399.675 45.2781 397.882 44.2671C393.815 41.9581 393.152 36.6098 393.746 32.7842C394.504 27.8727 398.153 23.5229 403.987 22.824C404.29 22.7865 404.594 22.7678 404.897 22.7491C404.966 22.774 405.042 22.799 405.13 22.8115C408.193 23.1672 411.564 24.1844 413.61 26.4061C415.328 28.2721 417.361 31.1241 415.921 33.2959C414.545 35.3678 416.527 34.5503 417.14 34.101C418.554 33.0588 418.977 31.5485 419.135 29.9883C420.815 32.6594 422.69 35.63 426.093 36.5723C429.389 37.4897 433.38 37.4897 436.164 35.5551C436.53 35.2992 436.713 34.8561 436.499 34.5878C436.492 34.2757 436.069 34.051 435.615 34.0323C431.567 33.8825 427.918 32.0228 424.603 30.0258C421.105 27.9226 417.79 25.5574 414.109 23.7101C410.977 22.1375 407.321 20.9205 403.716 21.451C400.18 21.969 396.404 23.9161 394.478 26.6495C392.035 30.1381 391.435 34.8499 392.483 38.8876ZM400.054 36.9093C400.028 36.8843 400.003 36.8594 399.978 36.8407C399.997 36.8469 400.016 36.8469 400.028 36.8531C400.041 36.8719 400.047 36.8906 400.054 36.9093Z" fill="white"/>
</svg>
