<svg width="261" height="31" viewBox="0 0 261 31" fill="none" xmlns="http://www.w3.org/2000/svg">
<path d="M250.097 13.2825C249.696 14.2542 249.008 15.1409 248.111 15.7541C247.213 16.3579 246.124 16.7069 245.007 16.7258C243.899 16.7541 242.763 16.3956 241.865 15.8767C240.939 15.3579 240.108 14.641 239.487 13.7731C238.217 12.0562 237.711 9.7733 238.198 7.6602C238.446 6.58478 238.885 5.632 239.449 4.76412C240.012 3.89624 240.69 3.07553 241.512 2.41519C243.135 1.07564 245.169 0.254925 247.28 0.0379549C248.34 -0.0469464 249.409 0.00965317 250.45 0.217189C251.482 0.443593 252.504 0.830366 253.392 1.29261C255.206 2.21709 256.83 3.52834 258.081 5.14146C259.322 6.75458 260.201 8.63184 260.65 10.6034C261.099 12.575 261.118 14.6504 260.697 16.6314C260.573 17.122 260.44 17.6125 260.296 18.0936C260.115 18.5653 259.943 19.0464 259.742 19.4992C259.341 20.3671 258.902 21.235 258.396 22.0651C257.384 23.7348 256.094 25.3102 254.5 26.5554C252.905 27.8007 251.052 28.678 249.247 29.3006C247.461 29.9232 245.57 30.4043 243.67 30.7156C241.75 30.9703 239.802 31.1024 237.873 30.9043C233.986 30.6213 230.3 29.2911 226.948 27.6026C220.263 24.0839 214.743 19.1973 208.965 14.8391C206.081 12.6599 203.149 10.5468 200.045 8.75448C196.951 6.95269 193.666 5.48107 190.247 4.48112C186.838 3.48117 183.257 3.02836 179.666 2.97176C176.094 2.93403 172.503 3.3491 169.218 4.57545C165.942 5.81124 163.02 7.92433 161.005 10.7544C159.009 13.5561 157.787 17.0371 157.557 20.4142V20.4803C157.529 20.9048 157.156 21.2255 156.727 21.1972C156.297 21.1689 155.982 20.8105 156.001 20.3954C156.096 18.4427 156.497 16.6409 157.109 14.8485C157.71 13.0656 158.579 11.377 159.658 9.82046C161.836 6.69799 165.054 4.33018 168.597 2.9812C172.159 1.61335 175.96 1.16997 179.694 1.16997C183.419 1.19827 187.172 1.64164 190.782 2.66989C198.049 4.68865 204.391 8.82995 210.283 13.1316C216.185 17.4427 221.781 22.1689 228.122 25.3574C231.293 26.8856 234.655 28.0176 238.093 28.2063C239.812 28.3572 241.531 28.2157 243.231 27.961C244.93 27.6497 246.592 27.2063 248.254 26.6026C249.887 26.0083 251.367 25.2536 252.628 24.2442C253.888 23.2349 254.948 21.9708 255.808 20.5274C256.247 19.8105 256.62 19.0558 256.983 18.2823C257.145 17.9049 257.269 17.537 257.422 17.1597L257.737 16.0088C258.062 14.4523 258.043 12.8297 257.68 11.2732C256.973 8.1696 254.872 5.39617 252.017 3.90568C251.291 3.50947 250.594 3.2359 249.849 3.05666C249.094 2.8963 248.33 2.83969 247.557 2.88686C246.019 3.01893 244.52 3.58494 243.316 4.55659C242.696 5.01883 242.17 5.59427 241.722 6.22631C241.263 6.85835 240.91 7.56586 240.728 8.24507C240.337 9.64123 240.604 11.226 241.435 12.4618C242.247 13.6693 243.641 14.707 245.064 14.7636C246.516 14.8485 248.006 14.0184 248.693 12.6599L248.703 12.6505C248.894 12.2732 249.362 12.1128 249.753 12.3015C250.087 12.4807 250.25 12.9146 250.097 13.2825Z" fill="#DFB68D"/>
<path d="M1.16439 20.265H157.138C157.78 20.265 158.302 20.7853 158.302 21.4249C158.302 22.0644 157.78 22.5847 157.138 22.5847H1.16439C0.522342 22.5847 0 22.0644 0 21.4249C0 20.7853 0.522342 20.265 1.16439 20.265Z" fill="#DFB68D"/>
<path d="M157.483 21.8876C158.424 25.5072 161.101 29.364 165.755 29.364C170.68 29.364 174.954 26.2124 173.666 21.5069C172.511 17.2944 167.996 14.561 163.482 16.7577C163.254 16.87 163.09 17.0573 163.039 17.2694C162.964 17.3693 162.913 17.4816 162.869 17.6064C161.833 19.2727 163.324 21.6255 165.445 22.5366C167.036 23.2231 169.221 23.5913 170.8 22.9548C171.122 24.2279 170.901 25.6944 170.042 26.4745C169.726 26.7616 169.6 26.9426 169.65 27.2172C169.404 27.3358 169.139 27.4356 168.855 27.523C166.973 28.0909 164.675 28.2781 162.882 27.2671C158.815 24.958 158.152 19.6097 158.746 15.7842C159.504 10.8727 163.153 6.5229 168.987 5.82394C169.29 5.78649 169.594 5.76777 169.897 5.74905C169.966 5.77401 170.042 5.79897 170.13 5.81146C173.193 6.16718 176.564 7.18442 178.61 9.40612C180.328 11.2721 182.361 14.1241 180.921 16.2959C179.545 18.3678 181.527 17.5503 182.14 17.101C183.554 16.0587 183.977 14.5485 184.135 12.9883C185.815 15.6593 187.69 18.6299 191.093 19.5723C194.389 20.4897 198.38 20.4897 201.164 18.555C201.53 18.2992 201.713 17.8561 201.499 17.5877C201.492 17.2757 201.069 17.051 200.615 17.0323C196.567 16.8825 192.918 15.0228 189.603 13.0257C186.105 10.9226 182.79 8.55738 179.109 6.71012C175.977 5.13746 172.321 3.92051 168.716 4.45097C165.18 4.96896 161.404 6.91607 159.478 9.64951C157.035 13.1381 156.435 17.8498 157.483 21.8876ZM165.054 19.9093C165.028 19.8843 165.003 19.8594 164.978 19.8406C164.997 19.8469 165.016 19.8469 165.028 19.8531C165.041 19.8718 165.047 19.8906 165.054 19.9093Z" fill="#DFB68D"/>
</svg>
