<svg width="50" height="60" viewBox="0 0 50 60" fill="none" xmlns="http://www.w3.org/2000/svg">
<g clip-path="url(#clip0_96_27)">
<path d="M27.4998 0C15.9198 0 6.49976 9.42105 6.49976 21C6.49976 32.5789 15.9198 42 27.4998 42C39.0798 42 48.4998 32.5789 48.4998 21C48.4998 9.42105 39.0798 0 27.4998 0ZM27.4998 40C17.0227 40 8.49979 31.4769 8.49979 21C8.49979 10.5231 17.0228 2.00004 27.4998 2.00004C37.9767 2.00004 46.4998 10.523 46.4998 21C46.4998 31.477 37.9768 40 27.4998 40Z" fill="#166FD3"/>
<path d="M31.1969 21.2379C31.1049 20.5469 30.6838 19.9318 30.0688 19.5918C29.4558 19.2519 28.7429 19.2228 28.1149 19.5098V19.5109C26.4959 20.2489 24.5618 19.6198 23.7119 18.0739C22.4499 15.7759 20.3239 15.225 20.2888 15.2179C17.5578 14.37 16.3408 13.772 15.8058 13.4319C15.9378 13.3879 16.1038 13.3388 16.3108 13.2909C17.0118 13.1248 17.7678 13.0589 18.5588 13.1019C22.5649 13.2869 24.5888 10.4458 25.1058 8.90492C25.8349 6.72992 23.8688 2.84492 22.9898 1.2759L22.6048 0.587891L21.8458 0.80293C14.6538 2.83191 9.02876 8.55594 7.16477 15.7419L6.97681 16.4639L7.61478 16.8488C9.45978 17.9648 11.3198 17.8929 11.7008 17.8629C12.6947 17.8708 13.4697 18.1668 14.0697 18.7699C15.4166 20.1219 15.5516 22.6739 15.5477 23.7079C15.5437 24.761 15.6397 25.7049 15.8426 26.595C17.0556 31.903 20.6437 32.355 21.8296 32.355C21.9486 32.355 22.0436 32.351 22.1096 32.345C23.7975 32.3311 25.3125 31.395 26.0706 29.892C26.4997 29.0421 27.1667 28.3071 27.9977 27.7671C31.2549 25.652 31.3999 22.7679 31.1969 21.2379ZM26.9089 26.0899C25.7819 26.8218 24.8749 27.8248 24.2869 28.9909C23.8649 29.8258 23.0179 30.3448 22.0749 30.3448L21.9339 30.3548C21.8099 30.3758 18.8419 30.7398 17.7939 26.1488C17.6249 25.4098 17.5449 24.6138 17.5489 23.7148C17.5549 22.1209 17.2959 19.1738 15.4879 17.3579C14.499 16.3659 13.2119 15.8629 11.6609 15.8629L11.5568 15.8689C11.5438 15.8709 10.5009 15.9629 9.31681 15.4749C11.1168 9.58988 15.7358 4.89289 21.6238 2.95988C22.6888 5.02285 23.5178 7.34586 23.2079 8.26789C23.1988 8.29789 22.1559 11.2968 18.6598 11.1039C17.6778 11.0579 16.7348 11.135 15.8508 11.3439C15.2698 11.4809 13.4998 11.8979 13.4519 13.2679C13.4109 14.441 14.4408 15.4959 19.7419 17.141C19.7979 17.156 21.1319 17.5299 21.9589 19.037C23.3089 21.497 26.3779 22.5059 28.9458 21.3289C28.9939 21.3089 29.0468 21.3119 29.1009 21.3419C29.1319 21.358 29.2019 21.407 29.2149 21.5009C29.4659 23.3889 28.6899 24.9329 26.9089 26.0899Z" fill="#166FD3"/>
<path d="M47.7789 15.4753L47.5508 14.6223L46.6769 14.7414C42.3458 15.3334 40.3109 14.5874 39.6368 14.2373C38.5888 13.6954 37.4389 13.6433 36.4858 14.1013C35.1808 14.7223 33.7198 16.3162 34.1747 20.4323C34.1957 20.5574 34.7187 23.5144 37.9757 25.1573C38.9847 25.6664 39.5176 26.7754 39.2717 27.8543C38.5296 31.1113 39.2536 33.7733 41.3677 35.5533L42.0907 36.1623L42.7397 35.4754C46.4537 31.5403 48.4997 26.3864 48.4997 20.9613C48.4998 19.1104 48.2569 17.2643 47.7789 15.4753ZM41.9799 33.3253C41.0009 32.0783 40.7459 30.3933 41.2239 28.2993C41.6739 26.3212 40.7099 24.2953 38.8779 23.3713C36.558 22.2002 36.1649 20.1823 36.1579 20.1593C35.9809 18.5613 36.0449 16.5262 37.3489 15.9053C37.5079 15.8293 37.6879 15.7912 37.8778 15.7912C38.1458 15.7912 38.4348 15.8662 38.7189 16.0132C39.6969 16.5192 41.9108 17.2622 46.0508 16.8302C46.3489 18.1882 46.4998 19.5722 46.4998 20.9612C46.4999 25.5233 44.9018 29.8753 41.9799 33.3253Z" fill="#166FD3"/>
<path d="M40.9199 4.84945C39.4159 3.59848 37.7429 2.56348 35.9449 1.7734L35.378 1.52344L34.47 2.28141C33.413 3.1084 30.1939 5.62336 31.6749 8.48039L31.808 8.67844C32.3769 9.33141 33.593 10.1864 35.1049 10.1864C35.8329 10.1864 36.6289 9.98742 37.4529 9.47238C37.9779 9.14543 38.4459 8.69543 38.9249 8.05734C39.1728 7.72734 39.6429 7.21734 40.4079 6.69633L42.0289 5.7723L40.9199 4.84945ZM37.3268 6.85547C36.9998 7.29152 36.7038 7.58344 36.3957 7.77551C34.8838 8.71746 33.7138 7.75746 33.3927 7.44246C33.2027 7.01051 33.0197 5.96144 35.6967 3.85945C36.7097 4.34449 37.6767 4.91742 38.5847 5.57051C37.9758 6.07043 37.5749 6.52652 37.3268 6.85547Z" fill="#166FD3"/>
<path d="M33.0199 40.0254C32.5989 39.1455 32.2949 38.1275 32.1169 37.0005C31.7599 34.7425 29.8168 33.1035 27.4989 33.1035C23.9238 33.1035 21.0129 35.9965 20.9818 39.5635L20.8298 40.9315L21.6388 41.1655C23.5498 41.7195 25.5207 41.9996 27.4998 41.9996C29.1208 41.9996 30.7517 41.8086 32.3478 41.4306L33.5558 41.1446L33.0199 40.0254ZM22.9849 39.4545C23.0729 37.0405 25.0639 35.1034 27.4989 35.1034C28.8058 35.1034 29.9419 36.0535 30.1409 37.3135C30.2759 38.1665 30.4748 38.9714 30.7358 39.7205C28.1509 40.1675 25.517 40.0735 22.9849 39.4545Z" fill="#166FD3"/>
<path d="M47.2567 38.3457C46.8948 37.9277 46.2628 37.8817 45.8457 38.2437C41.4367 42.0568 36.8777 45.9998 27.4996 45.9998C13.7146 45.9998 2.49968 34.7848 2.49968 20.9998C2.49968 14.6598 4.49069 9.00778 8.25663 4.65379C8.61769 4.23579 8.57163 3.60379 8.15468 3.24379C7.73772 2.8818 7.10468 2.92879 6.74362 3.34575C2.65882 8.0677 0.499756 14.1727 0.499756 20.9997C0.499756 35.8877 12.6118 47.9997 27.4998 47.9997C37.6228 47.9997 42.4678 43.8097 47.1548 39.7557C47.5717 39.3957 47.6187 38.7637 47.2567 38.3457Z" fill="#166FD3"/>
<path d="M10.2069 5.29316L6.20694 1.2932C5.81589 0.902266 5.1839 0.902266 4.79296 1.2932C4.40202 1.68426 4.40202 2.31625 4.79296 2.70719L8.79292 6.70715C8.98792 6.90215 9.24397 7.00012 9.49991 7.00012C9.75597 7.00012 10.0119 6.90215 10.2069 6.70715C10.598 6.31621 10.598 5.6841 10.2069 5.29316Z" fill="#166FD3"/>
<path d="M49.2067 40.2933L45.2068 36.2932C44.8157 35.9023 44.1837 35.9022 43.7928 36.2932C43.4017 36.6843 43.4017 37.3163 43.7928 37.7072L47.7928 41.7072C47.9878 41.9022 48.2438 42.0002 48.4998 42.0002C48.7558 42.0002 49.0117 41.9022 49.2067 41.7072C49.5978 41.3163 49.5978 40.6843 49.2067 40.2933Z" fill="#166FD3"/>
<path d="M36.5 54H18.5C17.948 54 17.5 54.447 17.5 55V58.9999C17.5 59.5529 17.948 59.9999 18.5 59.9999H36.5C37.0519 59.9999 37.4999 59.5529 37.4999 58.9999V55C37.5 54.447 37.052 54 36.5 54ZM35.5 58H19.5V55.9999H35.5V58Z" fill="#166FD3"/>
<path d="M35.4998 53.9999C31.6398 53.9999 28.4998 50.8589 28.4998 47C28.4998 46.447 28.0518 46 27.4999 46C26.9479 46 26.4999 46.447 26.4999 47C26.4999 50.8589 23.3599 53.9999 19.5 53.9999C18.948 53.9999 18.5 54.4469 18.5 54.9999C18.5 55.5529 18.948 55.9998 19.5 55.9998H35.4999C36.0519 55.9998 36.4999 55.5529 36.4999 54.9999C36.4999 54.4469 36.0518 53.9999 35.4998 53.9999ZM25.1507 53.9999C26.1198 53.2169 26.9227 52.2359 27.4998 51.1209C28.0768 52.2359 28.8798 53.2169 29.8488 53.9999H25.1507Z" fill="#166FD3"/>
</g>
<defs>
<clipPath id="clip0_96_27">
<rect width="50" height="60" fill="white"/>
</clipPath>
</defs>
</svg>
