<svg width="53" height="53" viewBox="0 0 53 53" fill="none" xmlns="http://www.w3.org/2000/svg">
<path d="M17.2003 31.916H8.0909C7.41763 31.916 6.86693 32.4518 6.84871 33.1251V48.0313C6.84871 48.717 7.40521 49.2735 8.0909 49.2735H17.2003C17.886 49.2735 18.4425 48.717 18.4425 48.0313V33.1251C18.4242 32.4518 17.8735 31.916 17.2003 31.916ZM15.9581 46.8223H9.33309V34.4004H15.9581V46.8223ZM31.0548 25.291H21.9454C21.2722 25.291 20.7215 25.8268 20.7032 26.5001V48.0313C20.7032 48.717 21.2597 49.2735 21.9454 49.2735H31.0548C31.7405 49.2735 32.297 48.717 32.297 48.0313V26.5001C32.2788 25.8268 31.7281 25.291 31.0548 25.291ZM29.8126 46.8223H23.1876V27.7754H29.8126V46.8223ZM44.9093 18.666H35.8C35.1143 18.666 34.5578 19.2225 34.5578 19.9082V48.0313C34.5578 48.717 35.1143 49.2735 35.8 49.2735H44.9093C45.595 49.2735 46.1515 48.717 46.1515 48.0313V19.8751C46.1333 19.2018 45.5826 18.666 44.9093 18.666ZM43.6671 46.8223H37.0422V21.1504H43.6671V46.8223ZM10.9065 23.1876C11.3661 23.6969 11.3264 24.4819 10.8171 24.9424C10.8163 24.9424 10.8163 24.9432 10.8154 24.9432L8.00809 27.4773C7.54102 27.9799 6.75513 28.0097 6.25246 27.5427C5.74979 27.0756 5.71998 26.2897 6.18704 25.7871C6.23756 25.7324 6.29221 25.6835 6.35184 25.6388L9.10949 23.0965C9.6072 22.6245 10.3931 22.6443 10.8659 23.142C10.88 23.1569 10.8933 23.1718 10.9065 23.1876ZM41.249 5.20898H35.0547C34.369 5.20898 33.8125 5.76548 33.8133 6.452C33.8133 7.13769 34.369 7.69336 35.0547 7.69336H37.7461L23.287 19.8751L19.0967 15.6848C18.6288 15.221 17.8802 15.2028 17.3907 15.6434L12.2398 20.3057C11.7727 20.8084 11.8026 21.5943 12.3052 22.0613C12.7458 22.4704 13.4157 22.5052 13.8961 22.1441L18.1692 18.2768L22.3098 22.4174C22.7644 22.8588 23.4775 22.887 23.9661 22.4837L39.8909 9.03492V12.2729C39.8909 12.9586 40.4474 13.5151 41.1331 13.5151C41.8188 13.5151 42.3753 12.9586 42.3753 12.2729V6.3518C42.3753 5.79364 41.9811 5.20898 41.249 5.20898Z" fill="#166FD3"/>
</svg>
