<svg width="50" height="50" viewBox="0 0 50 50" fill="none" xmlns="http://www.w3.org/2000/svg">
<path d="M43.75 27.2656V25.7031C44.1812 25.7031 44.5313 25.3534 44.5313 24.9219V20.2344C44.5313 19.8029 44.1812 19.4531 43.75 19.4531H39.5313L39.3799 18.8663C39.0344 17.5241 38.4979 16.2384 37.786 15.0491L37.4735 14.5264L40.4688 11.5259C40.7703 11.2238 40.7703 10.7343 40.4688 10.4321L37.1509 7.10938C36.8445 6.81732 36.3632 6.81732 36.0568 7.10938L33.056 10.1102L32.5336 9.79767C31.3425 9.08539 30.0555 8.54889 28.7116 8.20313L28.125 8.05054V3.82813C28.125 3.39661 27.7753 3.04688 27.3438 3.04688H22.6563C22.2247 3.04688 21.875 3.39661 21.875 3.82813V8.04688L21.2882 8.19855C19.946 8.5437 18.6603 9.0802 17.4704 9.79126L16.9476 10.1041L13.9478 7.10938C13.6411 6.81488 13.1567 6.81488 12.85 7.10938L9.53125 10.4272C9.38538 10.5728 9.30328 10.7706 9.30328 10.9766C9.30328 11.1829 9.38538 11.3803 9.53125 11.5259L12.532 14.5264L12.2195 15.0491C11.5079 16.2384 10.9711 17.5241 10.6259 18.8663L10.4727 19.4531H6.25C5.81848 19.4531 5.46875 19.8029 5.46875 20.2344V24.9219C5.46875 25.3534 5.81848 25.7031 6.25 25.7031V27.2656C4.95575 27.2656 3.90625 26.2161 3.90625 24.9219V20.2344C3.90625 18.9401 4.95575 17.8906 6.25 17.8906H9.27277C9.59503 16.8103 10.0308 15.7672 10.5728 14.7791L8.42438 12.6306C7.98493 12.1921 7.73804 11.597 7.73804 10.9766C7.73804 10.3561 7.98493 9.76105 8.42438 9.32282L11.7447 6.0025C12.6697 5.11719 14.1281 5.11719 15.0531 6.0025L17.2009 8.15003C18.1891 7.60834 19.2325 7.17346 20.3125 6.8515V3.82813C20.3125 2.53387 21.362 1.48438 22.6563 1.48438H27.3438C28.638 1.48438 29.6875 2.53387 29.6875 3.82813V6.8515C30.7678 7.17346 31.8106 7.60925 32.7991 8.15094L34.9475 6.0025C35.8728 5.11719 37.3309 5.11719 38.2562 6.0025L41.5759 9.3219C42.0151 9.76044 42.2617 10.3549 42.2617 10.9756C42.2617 11.5964 42.0151 12.1915 41.5759 12.6297L39.4275 14.7781C39.9692 15.7669 40.4047 16.8103 40.7272 17.8906H43.75C45.0443 17.8906 46.0938 18.9401 46.0938 20.2344V24.9219C46.0938 26.2161 45.0443 27.2656 43.75 27.2656Z" fill="#166FD3"/>
<path d="M35.9375 22.5781H34.375C34.375 17.4005 30.1776 13.2031 25 13.2031C19.8224 13.2031 15.625 17.4005 15.625 22.5781H14.0625C14.0625 16.5375 18.9594 11.6406 25 11.6406C31.0403 11.6406 35.9375 16.5375 35.9375 22.5781Z" fill="#166FD3"/>
<path d="M25 28.8281C22.4112 28.8281 20.3125 26.7291 20.3125 24.1406C20.3125 21.5518 22.4112 19.4531 25 19.4531C27.5891 19.4531 29.6875 21.5518 29.6875 24.1406C29.6848 26.7285 27.5879 28.8254 25 28.8281ZM25 21.0156C23.2742 21.0156 21.875 22.4149 21.875 24.1406C21.875 25.8664 23.2742 27.2656 25 27.2656C26.7258 27.2656 28.125 25.8664 28.125 24.1406C28.125 22.4149 26.7258 21.0156 25 21.0156Z" fill="#166FD3"/>
<path d="M38.2813 31.9531C35.6924 31.9531 33.5938 29.8541 33.5938 27.2656C33.5938 24.6768 35.6924 22.5781 38.2813 22.5781C40.8701 22.5781 42.9688 24.6768 42.9688 27.2656C42.966 29.8535 40.8691 31.9504 38.2813 31.9531ZM38.2813 24.1406C36.5555 24.1406 35.1563 25.5399 35.1563 27.2656C35.1563 28.9914 36.5555 30.3906 38.2813 30.3906C40.007 30.3906 41.4063 28.9914 41.4063 27.2656C41.4063 25.5399 40.007 24.1406 38.2813 24.1406Z" fill="#166FD3"/>
<path d="M11.7188 31.9531C9.12994 31.9531 7.03125 29.8541 7.03125 27.2656C7.03125 24.6768 9.12994 22.5781 11.7188 22.5781C14.3079 22.5781 16.4063 24.6768 16.4063 27.2656C16.4035 29.8535 14.3066 31.9504 11.7188 31.9531ZM11.7188 24.1406C9.99298 24.1406 8.59375 25.5399 8.59375 27.2656C8.59375 28.9914 9.99298 30.3906 11.7188 30.3906C13.4445 30.3906 14.8438 28.9914 14.8438 27.2656C14.8438 25.5399 13.4445 24.1406 11.7188 24.1406Z" fill="#166FD3"/>
<path d="M45.3638 33.9576C44.1995 33.1574 42.8192 32.7305 41.4063 32.7344H35.1563C34.7763 32.7378 34.397 32.7723 34.0225 32.8373C33.5226 32.0554 32.8723 31.381 32.1094 30.8521C31.9949 30.7657 31.8747 30.6873 31.7493 30.618C30.6564 29.9561 29.4025 29.6076 28.125 29.6094H21.875C19.4858 29.6009 17.2595 30.8201 15.9796 32.8373C15.6043 32.7723 15.2243 32.7378 14.8438 32.7344H8.59375C7.18201 32.7305 5.802 33.1568 4.63837 33.956C2.71515 35.2646 1.56372 37.4396 1.5625 39.7657V42.8907C1.56525 45.0238 2.8064 46.9611 4.74396 47.8547C5.45929 48.1916 6.24085 48.364 7.03125 48.3594H14.8438V46.7969H7.8125V38.2032H6.25V46.7185C5.95581 46.6596 5.67017 46.5644 5.39917 46.4359C4.0152 45.7978 3.12805 44.4144 3.125 42.8907V39.7657C3.12683 37.9554 4.02374 36.2632 5.52033 35.2451C6.42456 34.6244 7.49664 34.2939 8.59375 34.2969H14.8438C14.9814 34.2969 15.1141 34.3116 15.2484 34.3207C14.9841 35.066 14.8471 35.8503 14.8438 36.6407V44.4532C14.8465 46.6095 16.5939 48.3567 18.75 48.3594H21.0938V35.8594H19.5313V46.7969H18.75C17.4558 46.7969 16.4063 45.7474 16.4063 44.4532V36.6407C16.4063 33.62 18.855 31.1719 21.875 31.1719H28.125C29.1303 31.1725 30.1154 31.4509 30.9726 31.9758C31.0519 32.0191 31.1282 32.0679 31.2006 32.1216C31.9327 32.623 32.5336 33.2929 32.9523 34.0748C33.3731 34.8645 33.5938 35.7456 33.5938 36.6407V44.4532C33.5938 45.7474 32.5443 46.7969 31.25 46.7969H30.4688V35.8594H28.9063V48.3594H31.25C33.4064 48.3567 35.1535 46.6095 35.1563 44.4532V36.6407C35.1526 35.8503 35.0162 35.0663 34.7522 34.3207C34.8868 34.3116 35.0195 34.2969 35.1563 34.2969H41.4063C42.504 34.2939 43.577 34.6253 44.4818 35.2466C45.9772 36.2653 46.8729 37.9563 46.875 39.7657V42.8907C46.8723 44.4199 45.9784 45.8072 44.5877 46.442C44.3207 46.5683 44.0393 46.6611 43.75 46.7185V38.2032H42.1875V46.7969H35.1563V48.3594H42.9688C43.7546 48.3643 44.5316 48.194 45.2429 47.8608C47.1869 46.97 48.4345 45.029 48.4375 42.8907V39.7657C48.4363 37.4405 47.2858 35.2665 45.3638 33.9576Z" fill="#166FD3"/>
<path d="M21.875 46.7969H28.125V48.3594H21.875V46.7969Z" fill="#166FD3"/>
</svg>
