<svg width="50" height="50" viewBox="0 0 50 50" fill="none" xmlns="http://www.w3.org/2000/svg">
<g clip-path="url(#clip0_97_179)">
<path d="M14.4067 21.3594H46.5829C47.5267 21.3594 48.3778 21.7441 48.9962 22.3621V22.368C49.6142 22.9863 49.9993 23.8375 49.9993 24.7754V46.5844C49.9993 47.5219 49.6142 48.3789 48.9962 48.9969C48.3778 49.6156 47.5267 50 46.5829 50H14.4067C13.4688 50 12.6118 49.6156 11.9938 48.9969C11.3755 48.3789 10.9907 47.5273 10.9907 46.5844V24.7754C10.9907 23.8375 11.3755 22.9805 11.9938 22.3621C12.6122 21.7441 13.4688 21.3594 14.4067 21.3594ZM46.5829 22.9211H14.4067C13.897 22.9211 13.436 23.1324 13.1001 23.4684C12.7638 23.8047 12.5524 24.2656 12.5524 24.7754V46.5844C12.5524 47.0941 12.7638 47.5602 13.1001 47.8965C13.4356 48.232 13.897 48.4383 14.4067 48.4383H46.5829C47.0927 48.4383 47.5587 48.2324 47.895 47.8965C48.231 47.5602 48.4376 47.0938 48.4376 46.5844V24.7754C48.4376 24.2656 48.2313 23.7996 47.895 23.4633V23.4688C47.5587 23.1328 47.0927 22.9211 46.5829 22.9211Z" fill="#166FD3"/>
<path d="M23.9718 14.8477H37.0234C37.7664 14.8477 38.4492 15.1512 38.9375 15.6445C39.4253 16.1379 39.7347 16.816 39.7347 17.5586V22.1402V22.9211H38.9535H35.657H34.8765V22.1402V19.6031H26.1191V22.1406V22.9215H25.3378H22.0414H21.2605V22.1406V17.5586C21.2605 16.816 21.564 16.1324 22.0519 15.6445C22.5453 15.1512 23.2238 14.8477 23.9718 14.8477ZM37.023 16.4094H23.9718C23.657 16.4094 23.3699 16.5391 23.1582 16.7508C22.9523 16.957 22.8226 17.2441 22.8226 17.5586V21.3594H24.5574V18.8219V18.0414H25.3382H35.657H36.4382V18.8219V21.3598H38.173V17.559C38.173 17.2441 38.0429 16.957 37.8371 16.7512H37.8312C37.625 16.5395 37.3378 16.4094 37.023 16.4094Z" fill="#166FD3"/>
<path d="M8.62656 42.3809C9.05508 42.3809 9.40742 42.7273 9.40742 43.1613C9.40742 43.5895 9.05508 43.9418 8.62656 43.9418H2.34258C1.70273 43.9418 1.11719 43.6762 0.688672 43.2535V43.248C0.265625 42.825 0 42.2398 0 41.5941V2.34219C0 1.70234 0.265625 1.1168 0.688672 0.688672C1.11133 0.265625 1.69688 0 2.34258 0H24.3078C24.6441 0 24.9586 0.0652344 25.252 0.195312C25.5395 0.325391 25.7996 0.514844 26.0328 0.758984L31.927 7.06523C31.943 7.08164 31.9539 7.09766 31.9703 7.11406C32.1594 7.32539 32.2953 7.55898 32.393 7.80273C32.4906 8.06875 32.5449 8.35039 32.5449 8.64883V12.477C32.5449 12.9105 32.1926 13.2578 31.7641 13.2578C31.3305 13.2578 30.9777 12.9105 30.9777 12.477V8.64883C30.9777 8.54023 30.9672 8.44297 30.9344 8.35586C30.902 8.28555 30.8641 8.22031 30.8152 8.15508C30.8043 8.14453 30.793 8.13906 30.7824 8.12813L24.8938 1.82187C24.8121 1.73516 24.7203 1.66992 24.6227 1.62109C24.5309 1.5832 24.4277 1.56172 24.3082 1.56172H2.34258C2.13125 1.56172 1.93594 1.64844 1.79492 1.79492L1.78945 1.78945C1.64844 1.93008 1.56172 2.13086 1.56172 2.34219V41.5941C1.56172 41.8109 1.64844 42.0063 1.78945 42.1473L1.79492 42.1527C1.93594 42.2887 2.13086 42.3809 2.34258 42.3809H8.62656Z" fill="#166FD3"/>
<path d="M27.6646 35.5937L14.2661 33.05C13.3606 32.882 12.5251 32.4863 11.9239 31.8844C11.3485 31.3098 10.9907 30.5562 10.9907 29.6504H12.5524C12.5524 30.1113 12.7372 30.491 13.0298 30.784C13.404 31.1523 13.9517 31.4074 14.5536 31.5211L27.9521 34.0641L27.6646 35.5937ZM49.9989 29.6504C49.9989 30.5559 49.6411 31.3043 49.0661 31.8789V31.8844C48.4642 32.4863 47.6294 32.8824 46.7294 33.05L33.3306 35.6148L33.038 34.0859L46.4364 31.5211C47.0438 31.402 47.5915 31.1527 47.9653 30.784C48.2583 30.491 48.4372 30.1109 48.4372 29.6504H49.9989Z" fill="#166FD3"/>
<path d="M19.8997 6.97852C20.3333 6.97852 20.6806 7.32578 20.6806 7.75938C20.6806 8.18789 20.3333 8.54023 19.8997 8.54023H9.00127C8.56729 8.54023 8.22002 8.18789 8.22002 7.75938C8.22002 7.32578 8.56729 6.97852 9.00127 6.97852H19.8997ZM5.28096 6.97852C5.71494 6.97852 6.06768 7.32578 6.06768 7.75938C6.06768 8.18789 5.71533 8.54023 5.28096 8.54023H4.6958C4.26689 8.54023 3.91455 8.18789 3.91455 7.75938C3.91455 7.32578 4.26689 6.97852 4.6958 6.97852H5.28096Z" fill="#166FD3"/>
<path d="M14.7646 14.0664C15.1931 14.0664 15.5454 14.4184 15.5454 14.8473C15.5454 15.2809 15.1931 15.6277 14.7646 15.6277H9.00088C8.56729 15.6277 8.22002 15.2809 8.22002 14.8473C8.22002 14.4188 8.56729 14.0664 9.00088 14.0664H14.7646ZM5.28135 14.0664C5.71494 14.0664 6.06768 14.4184 6.06768 14.8473C6.06768 15.2809 5.71533 15.6277 5.28135 15.6277H4.6958C4.26729 15.6277 3.91455 15.2809 3.91455 14.8473C3.91455 14.4188 4.26689 14.0664 4.6958 14.0664H5.28135Z" fill="#166FD3"/>
<path d="M19.8997 10.5254C20.3333 10.5254 20.6806 10.8727 20.6806 11.3063C20.6806 11.7344 20.3333 12.0871 19.8997 12.0871H9.00127C8.56729 12.0871 8.22002 11.7348 8.22002 11.3063C8.22002 10.8727 8.56729 10.5254 9.00127 10.5254H19.8997ZM5.28096 10.5254C5.71494 10.5254 6.06768 10.8727 6.06768 11.3063C6.06768 11.7344 5.71533 12.0871 5.28096 12.0871H4.6958C4.26689 12.0871 3.91455 11.7348 3.91455 11.3063C3.91455 10.8727 4.26689 10.5254 4.6958 10.5254H5.28096Z" fill="#166FD3"/>
<path d="M25.1104 0.287109L32.2187 8.00313C32.5062 8.31758 32.4901 8.81094 32.1698 9.10352C32.0233 9.23906 31.8343 9.30977 31.644 9.30977H26.7479C25.9132 9.30977 25.1593 8.96797 24.6116 8.4207C24.5956 8.4043 24.5788 8.38828 24.5628 8.37187C24.0421 7.8293 23.7222 7.09219 23.7222 6.28398V0.780859C23.7222 0.352344 24.0694 0 24.5034 0C24.7468 0 24.964 0.113672 25.1104 0.287109ZM29.8659 7.74844L25.2839 2.78125V6.28437C25.2839 6.67461 25.4358 7.02695 25.68 7.28711C25.6905 7.29805 25.7019 7.30898 25.7128 7.31992C25.9784 7.58555 26.3468 7.74805 26.7479 7.74805L29.8659 7.74844Z" fill="#166FD3"/>
<path d="M35.505 4.2082C35.4183 4.63086 35.0066 4.90195 34.5835 4.81016C34.1605 4.72305 33.8894 4.31133 33.9761 3.89336L34.2745 2.47266L34.6648 0.623828C34.7406 0.255469 35.066 0 35.4292 0H36.7956H38.162C38.5578 0 38.8835 0.292969 38.9374 0.677734L39.512 3.41055C39.9132 3.52461 40.3038 3.66016 40.6831 3.81719C41.0683 3.97461 41.4421 4.15898 41.7999 4.35977L44.1913 2.79805C44.5003 2.59727 44.907 2.64609 45.1617 2.90117H45.1675L46.1328 3.86641C46.1433 3.88281 46.1597 3.89375 46.171 3.90977L47.098 4.83711C47.3687 5.10273 47.3964 5.52578 47.1851 5.8293L45.6394 8.19844C45.8453 8.55664 46.0245 8.93047 46.187 9.31563C46.339 9.69492 46.4745 10.0855 46.5882 10.4867L49.3753 11.0777C49.7605 11.1535 50.0206 11.5008 49.9992 11.8801V13.2039V14.5703C49.9992 14.966 49.7066 15.2969 49.3214 15.3457L46.5886 15.9203C46.4749 16.327 46.339 16.7176 46.1874 17.0914C45.9597 17.6391 45.6886 18.1594 45.3796 18.6426C45.1523 19.0109 44.6695 19.1195 44.3007 18.8863C43.9374 18.6531 43.8292 18.1707 44.0621 17.807C44.3281 17.3898 44.5558 16.9504 44.7456 16.4953C44.93 16.0504 45.0761 15.5949 45.1847 15.1289C45.2335 14.8199 45.4718 14.5648 45.7921 14.4945L48.4374 13.9414V13.2039H48.4429V12.4719L45.7913 11.9133C45.5042 11.8539 45.2601 11.6313 45.1894 11.3223C45.0863 10.8398 44.9347 10.3734 44.7449 9.91289C44.555 9.45742 44.3273 9.01797 44.0613 8.60078C43.9042 8.35117 43.8988 8.02578 44.0667 7.76016L45.5476 5.49375L45.0699 5.01133C45.0538 5.00078 45.0433 4.98945 45.0265 4.97305L44.5062 4.45273L42.2882 5.90039C42.0335 6.09531 41.6808 6.11719 41.3995 5.93828C40.982 5.67266 40.5429 5.44492 40.0874 5.25508C39.6425 5.0707 39.182 4.92422 38.7156 4.81602C38.412 4.76719 38.1515 4.53398 38.0867 4.20859L37.5273 1.56211H36.7956H36.0578L35.8031 2.7875L35.505 4.2082ZM36.7956 8.36719C36.3617 8.36719 36.0144 8.01992 36.0144 7.58633C36.0144 7.15273 36.3617 6.80547 36.7956 6.80547C38.5628 6.80547 40.1624 7.52148 41.323 8.68164C42.4781 9.83672 43.1937 11.4363 43.1937 13.2039C43.1937 13.6703 43.1449 14.1312 43.0472 14.5703C42.9495 15.0199 42.8031 15.4543 42.614 15.8715C42.4347 16.2621 41.9738 16.4355 41.5781 16.2566C41.1878 16.0773 41.0195 15.6164 41.1988 15.2262C41.3394 14.9227 41.448 14.5918 41.5238 14.2445C41.5945 13.9086 41.6324 13.5613 41.6324 13.2035C41.6324 11.8695 41.0902 10.6602 40.2171 9.78203C39.3386 8.90977 38.1292 8.36719 36.7956 8.36719Z" fill="#166FD3"/>
<path d="M27.9194 29.6719H33.0757C33.4827 29.6719 33.8511 29.8398 34.1171 30.1051L34.1226 30.1105C34.3886 30.377 34.5562 30.7508 34.5562 31.1574V36.8727C34.5562 37.9895 34.1011 39.0035 33.3632 39.7406C32.6315 40.4785 31.612 40.934 30.4948 40.934C29.3776 40.934 28.3636 40.4785 27.6265 39.7406C26.894 39.0035 26.4331 37.9898 26.4331 36.8727V31.1574C26.4331 30.7508 26.6015 30.3762 26.8726 30.1105V30.1051C27.1437 29.8398 27.5128 29.6719 27.9194 29.6719ZM32.9948 31.2336H28.0007V36.8727C28.0007 37.5555 28.2772 38.1848 28.7327 38.6352C29.1882 39.0906 29.812 39.3723 30.4948 39.3723C31.1839 39.3723 31.8069 39.0906 32.2624 38.6352C32.7124 38.1852 32.9948 37.5555 32.9948 36.8727V31.2336Z" fill="#166FD3"/>
<path d="M30.4945 37.55C30.9257 37.55 31.2753 37.2004 31.2753 36.7691C31.2753 36.3379 30.9257 35.9883 30.4945 35.9883C30.0632 35.9883 29.7136 36.3379 29.7136 36.7691C29.7136 37.2004 30.0632 37.55 30.4945 37.55Z" fill="#166FD3"/>
</g>
<defs>
<clipPath id="clip0_97_179">
<rect width="50" height="50" fill="white"/>
</clipPath>
</defs>
</svg>
