<svg width="104" height="54" viewBox="0 0 104 54" fill="none" xmlns="http://www.w3.org/2000/svg">
<path d="M27.7575 34.2513C27.7575 34.2513 27.634 34.4234 27.3871 34.7533C27.2637 34.9182 27.0822 35.0975 26.8789 35.327C26.6538 35.5278 26.4069 35.7787 26.0729 36.0082C25.4339 36.4815 24.5408 36.9476 23.408 37.1986C22.8344 37.299 22.2172 37.3778 21.5492 37.3277C20.8884 37.2775 20.1913 37.1412 19.4942 36.8759C18.1219 36.3237 16.7567 35.2481 15.791 33.7493C14.8035 32.2649 14.2952 30.2856 14.5639 28.2491C14.7018 27.2379 15.0431 26.2125 15.5877 25.2731C16.1541 24.3409 16.873 23.4302 17.7733 22.6844C18.6665 21.9386 19.7193 21.3147 20.8738 20.8916C22.0284 20.4685 23.2918 20.239 24.5771 20.2534C25.8623 20.2677 27.1766 20.5259 28.4037 21.0494C28.7087 21.1928 29.0282 21.3003 29.3114 21.4868C29.6018 21.6589 29.9068 21.8023 30.1899 22.0103C30.7636 22.3903 31.3154 22.8206 31.8237 23.3011C33.8859 25.2014 35.3309 27.8977 35.7085 30.8593C36.0933 33.8138 35.3817 36.9834 33.5373 39.5722C31.7221 42.2111 29.0137 44.3553 25.8115 45.4811C24.2213 46.062 22.5149 46.3632 20.7867 46.4134C19.0585 46.4564 17.3086 46.2054 15.624 45.682C14.789 45.4166 13.9685 45.0796 13.177 44.6708C12.9809 44.5632 12.7776 44.4701 12.5888 44.3553L12.0152 44.0183L11.4488 43.6454L11.1656 43.4589L10.8897 43.2581L10.3379 42.8566L9.8078 42.4263L9.53914 42.2112L9.28501 41.9817C9.118 41.8311 8.94373 41.6805 8.77672 41.5227C8.12321 40.8845 7.49149 40.2176 6.91786 39.4933C4.62332 36.6177 3.1348 33.0322 2.75722 29.2674C2.36511 25.5097 3.09849 21.5872 4.93557 18.1594C5.1534 17.722 5.41481 17.3132 5.66169 16.8973C5.93761 16.4885 6.19902 16.0727 6.48221 15.6783L6.91786 15.0902C6.99047 14.9898 7.06307 14.8894 7.13569 14.7962L7.36805 14.5094L7.83278 13.9428C7.98526 13.7564 8.15952 13.5771 8.31926 13.3978C9.63354 11.9564 11.093 10.6585 12.6905 9.57567C14.2807 8.48567 15.9871 7.58211 17.7588 6.87934C19.5305 6.18375 21.3749 5.69612 23.2337 5.4021C26.9442 4.80691 30.72 5.08657 34.1981 6.06901C35.9408 6.56381 37.6109 7.23792 39.172 8.06976C39.5641 8.27772 39.9417 8.50713 40.3266 8.72227C40.6969 8.95174 41.0745 9.18121 41.4303 9.43219C42.1564 9.91983 42.8607 10.4505 43.536 11.0027C46.259 13.2114 48.6769 15.7356 50.986 18.2239C53.2951 20.7195 55.4879 23.2006 57.6663 25.5671C62.0012 30.3072 66.2781 34.5812 70.6348 37.9731C72.8059 39.6726 74.9842 41.1571 77.148 42.4048C78.2299 43.0287 79.2974 43.5952 80.3575 44.0972C81.4104 44.6135 82.4632 45.0509 83.4871 45.4525C87.5969 47.0302 91.3654 47.7114 94.4369 47.948C94.8217 47.9839 95.1921 48.0126 95.5552 48.0197C95.9182 48.0341 96.274 48.0555 96.6153 48.0627C97.2978 48.0627 97.9368 48.0843 98.5322 48.0556C98.8299 48.0485 99.1131 48.0413 99.389 48.0341C99.665 48.0197 99.9264 47.9982 100.173 47.9838C100.42 47.9695 100.66 47.9552 100.885 47.9409C101.11 47.9193 101.321 47.8979 101.524 47.8763C101.923 47.8333 102.279 47.8046 102.584 47.7688C102.889 47.7257 103.143 47.697 103.346 47.6684C103.76 47.611 103.964 47.5823 103.964 47.5823C103.964 47.5823 103.753 47.6038 103.339 47.6396C103.136 47.6612 102.874 47.6826 102.569 47.7042C102.264 47.7328 101.909 47.7401 101.502 47.7688C101.299 47.7759 101.088 47.7902 100.863 47.8046C100.638 47.8117 100.398 47.8117 100.152 47.8189C99.9046 47.8261 99.6432 47.8261 99.3673 47.8333C99.0986 47.8261 98.8154 47.8261 98.5177 47.8189C97.9296 47.8189 97.2978 47.7759 96.6153 47.7472C96.274 47.7257 95.9255 47.6899 95.5697 47.6612C95.2066 47.6325 94.8436 47.5894 94.466 47.5464C91.4381 47.195 87.7639 46.3775 83.792 44.6923C82.8045 44.2621 81.7952 43.8031 80.7786 43.2653C79.7548 42.7418 78.731 42.1467 77.6999 41.5013C75.6304 40.2105 73.5465 38.6973 71.4698 36.9691C67.3019 33.5198 63.2138 29.2101 59.0241 24.3911C56.9184 21.9888 54.7836 19.4574 52.5036 16.8901C50.2163 14.33 47.8129 11.7055 44.9665 9.31752C44.2549 8.72232 43.5142 8.14145 42.73 7.59645C42.3452 7.31678 41.9385 7.05863 41.5319 6.80047C41.118 6.55665 40.7042 6.30565 40.283 6.06901C38.5912 5.13677 36.7759 4.36944 34.8734 3.80293C31.0758 2.6699 26.9297 2.31854 22.8344 2.93526C20.7867 3.23644 18.7536 3.75994 16.7931 4.5129C14.8325 5.27303 12.9446 6.26258 11.1802 7.45297C9.40844 8.64337 7.7892 10.0705 6.3297 11.6625C6.14818 11.8633 5.95939 12.0569 5.79238 12.2648L5.27682 12.8887L5.0227 13.2042C4.93557 13.3117 4.86294 13.4194 4.7758 13.5269L4.28931 14.1794C3.96982 14.6169 3.68664 15.0758 3.38167 15.5276C3.10574 16.0009 2.80803 16.467 2.56115 16.9546C2.03835 17.9227 1.60267 18.9339 1.23961 19.9665C0.869286 20.992 0.593376 22.0533 0.39006 23.1218C0.172226 24.1831 0.0705643 25.266 0.0197296 26.3416C-0.0310974 27.4173 0.0197525 28.4929 0.12867 29.5542C0.578865 33.8067 2.29248 37.8439 4.91376 41.0709C5.56727 41.8813 6.27889 42.6271 7.02679 43.337C7.21558 43.5091 7.41163 43.6812 7.60768 43.8461L7.8981 44.0972L8.19583 44.341L8.79852 44.8215L9.42297 45.2661L9.7352 45.4883L10.0547 45.6963L10.701 46.105L11.369 46.4851C11.5941 46.6142 11.8264 46.7218 12.0515 46.8365C12.9737 47.2883 13.9249 47.6684 14.8979 47.9624C16.8439 48.5433 18.8698 48.7942 20.8521 48.7153C22.8344 48.6293 24.7804 48.2492 26.5884 47.5536C27.4888 47.2094 28.3601 46.8078 29.1879 46.3345C30.0157 45.8613 30.7926 45.3305 31.526 44.7425C32.9855 43.5665 34.2344 42.1897 35.2292 40.6837C36.2458 39.185 36.9647 37.4855 37.3422 35.7644C37.7198 34.0362 37.7634 32.2792 37.5092 30.6012C36.9937 27.2308 35.2655 24.219 32.8911 22.1466C32.303 21.6231 31.6712 21.1569 31.0177 20.7482C30.6982 20.533 30.3424 20.3681 30.0012 20.1816C29.6671 19.988 29.2969 19.859 28.9483 19.7156C27.5179 19.1634 26.022 18.9123 24.5625 18.941C23.1103 18.9697 21.7016 19.2709 20.4236 19.7801C19.1457 20.2964 18.0057 21.0207 17.0472 21.8812C16.8149 22.1035 16.5898 22.333 16.3574 22.5553C16.1468 22.7919 15.9508 23.0357 15.7474 23.2796L15.6023 23.4588L15.4715 23.6525C15.3844 23.7815 15.2973 23.9107 15.2101 24.0326C15.123 24.1616 15.0431 24.2835 14.956 24.4126C14.8834 24.5488 14.8108 24.6851 14.7382 24.8142C14.1573 25.8827 13.8232 27.0301 13.7143 28.1559C13.6054 29.2818 13.7143 30.3789 13.9902 31.3829C14.0701 31.6339 14.1355 31.8848 14.2299 32.1215C14.3315 32.3581 14.4259 32.5876 14.5203 32.8242C14.6365 33.0465 14.7527 33.2617 14.8689 33.4768C14.985 33.6919 15.1375 33.8855 15.261 34.0863C15.3844 34.2871 15.5442 34.4736 15.6894 34.6529C15.8346 34.8321 15.9798 35.0186 16.1541 35.1692C16.3211 35.3269 16.4736 35.4919 16.6406 35.6425C16.8149 35.7859 16.9891 35.9221 17.1561 36.0584L17.2796 36.1588L17.4175 36.2448C17.5047 36.3022 17.5991 36.3596 17.6862 36.4241C17.8677 36.5388 18.0347 36.6608 18.2235 36.754C18.4123 36.8472 18.5866 36.9547 18.7754 37.0336C18.9642 37.1053 19.1529 37.1842 19.3345 37.256C20.0824 37.5069 20.823 37.6289 21.5201 37.6504C22.2172 37.6719 22.8634 37.5643 23.4516 37.4352C24.6134 37.1269 25.5065 36.6034 26.131 36.0942C26.4577 35.8504 26.69 35.5851 26.9151 35.37C27.1039 35.1333 27.2782 34.9397 27.3944 34.7748C27.6413 34.4306 27.7575 34.2513 27.7575 34.2513Z" fill="#DFB68D"/>
<path d="M75.4853 13.2687C75.4853 13.2687 75.4199 13.3476 75.2892 13.4982C75.2239 13.5771 75.1368 13.6631 75.0497 13.785C74.9625 13.9069 74.8681 14.0503 74.7592 14.2081C74.6575 14.373 74.5559 14.5739 74.4397 14.7818C74.3889 14.8966 74.3453 15.0113 74.2872 15.1332C74.2364 15.2551 74.1783 15.3841 74.142 15.5204C73.946 16.0654 73.8297 16.7323 73.837 17.4924C73.8443 18.2526 73.9895 19.106 74.3744 19.9737C74.7447 20.8414 75.3836 21.6947 76.255 22.3903C77.1118 23.0931 78.1937 23.6667 79.4427 23.9823C80.6843 24.2906 82.093 24.3121 83.4944 23.9679C84.8886 23.6022 86.29 22.8707 87.4009 21.7234C87.9673 21.164 88.432 20.5258 88.8677 19.8302C88.9766 19.6581 89.0637 19.4716 89.1581 19.2924C89.2453 19.1059 89.3615 18.9267 89.4341 18.7331C89.5139 18.5395 89.5866 18.3458 89.6664 18.1522C89.7027 18.0518 89.7463 17.9585 89.7753 17.8582L89.8624 17.557C89.9205 17.3562 89.9786 17.1483 90.0367 16.9403C90.073 16.7324 90.1166 16.5172 90.1529 16.3093L90.211 15.9865C90.2328 15.879 90.2328 15.7714 90.2473 15.6639C90.2618 15.4487 90.2836 15.2264 90.2981 15.0113C90.3127 14.1364 90.2691 13.2329 90.0512 12.3436C89.9714 11.8919 89.8044 11.4616 89.6736 11.017C89.5938 10.8019 89.4921 10.5867 89.405 10.3716L89.267 10.0489C89.2162 9.94138 89.1581 9.84094 89.1 9.74055C88.9839 9.53259 88.8677 9.32463 88.7515 9.11667C88.6135 8.92305 88.4828 8.72221 88.3449 8.52859C88.2723 8.4282 88.2069 8.32787 88.1343 8.23464L87.9019 7.95496C87.7422 7.76851 87.5897 7.58205 87.4227 7.40278C87.2484 7.23067 87.0669 7.06576 86.8926 6.89366C86.8055 6.80761 86.7184 6.72157 86.624 6.64269L86.3408 6.42034C86.152 6.26975 85.956 6.11916 85.7672 5.97574L85.6219 5.86098C85.5711 5.82512 85.5203 5.79647 85.4694 5.76062L85.1572 5.56698C84.9466 5.43791 84.7361 5.30884 84.5255 5.17259C84.3077 5.05785 84.0826 4.95026 83.8575 4.83552L83.5234 4.6706C83.4145 4.61323 83.2983 4.55585 83.1821 4.51999C82.9498 4.43394 82.7102 4.34072 82.4706 4.25467L82.1148 4.11842L81.7444 4.01805C81.4976 3.95351 81.2507 3.88895 81.0038 3.81724C80.7569 3.7527 80.5028 3.72401 80.2486 3.67381C79.9945 3.63796 79.7404 3.58061 79.479 3.5591C79.2176 3.53758 78.9634 3.52323 78.702 3.50172C78.5713 3.49454 78.4406 3.48022 78.3099 3.48022L77.9178 3.48736C77.6564 3.49453 77.395 3.50172 77.1336 3.50889C76.8722 3.52324 76.6108 3.56626 76.3494 3.59494C75.8193 3.63797 75.3038 3.77424 74.781 3.8818C74.5196 3.932 74.2655 4.02522 74.0113 4.1041C73.7572 4.19016 73.4957 4.26186 73.2488 4.36225C73.002 4.46982 72.7551 4.57739 72.5082 4.68496L72.1379 4.84988L71.7821 5.04351C71.5425 5.17259 71.3101 5.30883 71.0705 5.43791C70.8381 5.58133 70.6203 5.74628 70.3952 5.89687C69.9305 6.19088 69.5312 6.56373 69.11 6.92228C68.8922 7.09439 68.7179 7.30239 68.5219 7.50318C68.3331 7.70397 68.137 7.89756 67.9555 8.10553C67.2511 8.9302 66.6194 9.82659 66.0966 10.8019C65.0437 12.7452 64.4701 14.9037 64.3757 17.0336C64.274 19.1634 64.6298 21.2573 65.2833 23.1719C65.9441 25.0938 66.9026 26.8507 68.0426 28.414C68.609 29.1957 69.2262 29.9271 69.8724 30.6155C70.4896 31.2609 71.0995 31.9063 71.7095 32.5374C72.9294 33.8067 74.1493 35.0329 75.3982 36.1731C76.6471 37.3133 77.9178 38.3602 79.2103 39.2997C81.7953 41.1785 84.4456 42.5841 86.9652 43.5737C87.5897 43.8318 88.2142 44.0398 88.8241 44.2621C89.434 44.4557 90.0295 44.6565 90.6176 44.8142C91.7867 45.1513 92.9049 45.3951 93.9505 45.603C96.049 46.0118 97.8716 46.1982 99.3674 46.313C99.7377 46.3417 100.093 46.3632 100.42 46.3847C100.754 46.399 101.059 46.4134 101.35 46.4206C101.64 46.4349 101.902 46.442 102.141 46.4492C102.381 46.4492 102.606 46.4564 102.802 46.4564C103.586 46.4635 104 46.4635 104 46.4635C104 46.4635 103.586 46.4206 102.809 46.3417C102.613 46.3202 102.395 46.2986 102.156 46.2771C101.916 46.2484 101.655 46.2125 101.371 46.1767C101.088 46.1408 100.783 46.105 100.457 46.062C100.13 46.0118 99.7885 45.9545 99.4182 45.9043C97.9514 45.6676 96.1724 45.3377 94.1466 44.7855C93.1373 44.5059 92.0626 44.1903 90.9516 43.7887C90.3925 43.6023 89.8334 43.3656 89.2525 43.1433C88.6789 42.8995 88.0907 42.6557 87.5026 42.3689C85.1427 41.2645 82.6957 39.7873 80.3213 37.8726C79.1377 36.9189 77.9686 35.8575 76.8141 34.7173C75.6596 33.5771 74.5268 32.3294 73.3651 31.0386C72.7842 30.386 72.196 29.7263 71.6006 29.0594C71.0342 28.4283 70.5114 27.7543 70.0249 27.0443C69.0519 25.6245 68.2459 24.0612 67.7086 22.3831C67.1712 20.7123 66.9026 18.9338 67.0042 17.1626C67.1059 15.3913 67.5851 13.6344 68.4492 12.0281C68.8776 11.2249 69.4004 10.4791 69.9886 9.78353L70.446 9.29595C70.5985 9.13818 70.7365 8.96606 70.9108 8.82981C71.2448 8.54297 71.5643 8.23459 71.9346 7.99794C72.1161 7.87603 72.2904 7.73986 72.4719 7.62512C72.6607 7.51755 72.8495 7.40994 73.0383 7.30237L73.3215 7.13745L73.6192 7.00124C73.8152 6.91519 74.0185 6.82188 74.2146 6.73583C74.4179 6.65695 74.6212 6.59246 74.8246 6.52075C75.0279 6.45621 75.2312 6.37014 75.4417 6.32712C75.8629 6.23389 76.2768 6.11199 76.7052 6.06897C76.9158 6.04028 77.1263 6.00443 77.3442 5.98292C77.5547 5.97575 77.7726 5.96138 77.9832 5.95421L78.3027 5.93989C78.4116 5.93989 78.5132 5.94704 78.6221 5.95421C78.8327 5.96138 79.0433 5.97575 79.2539 5.98292C79.4644 5.99009 79.6677 6.04028 79.8783 6.06179C80.0816 6.09765 80.2995 6.10483 80.4955 6.1622C80.6989 6.21239 80.9021 6.2626 81.1055 6.30563L81.4105 6.37732L81.7009 6.47768C81.8969 6.54222 82.093 6.61395 82.289 6.67849C82.3907 6.70718 82.4778 6.75023 82.5722 6.79325L82.8482 6.92228C83.037 7.00834 83.2185 7.08729 83.4073 7.18052C83.5816 7.28091 83.7558 7.38843 83.9301 7.48882L84.1915 7.63939C84.235 7.66807 84.2786 7.68966 84.3222 7.71835L84.4456 7.8044C84.6054 7.9263 84.7724 8.04104 84.9321 8.16295L85.179 8.34223C85.2588 8.3996 85.3242 8.47123 85.3968 8.53577C85.5421 8.66485 85.6873 8.79396 85.8325 8.92304C85.9705 9.05929 86.0939 9.20986 86.2246 9.34611L86.4207 9.55409C86.4787 9.6258 86.5368 9.70465 86.5949 9.78353C86.7111 9.93412 86.8273 10.0847 86.9362 10.2425C87.0306 10.4074 87.1322 10.5652 87.2266 10.7302C87.2775 10.809 87.3283 10.8879 87.3719 10.974L87.4953 11.2249C87.5752 11.397 87.6623 11.562 87.7349 11.7341C87.8511 12.0855 88.0108 12.4297 88.0834 12.7883C88.294 13.4982 88.3521 14.2296 88.3812 14.9467C88.3739 15.126 88.3666 15.3053 88.3594 15.4846C88.3521 15.5706 88.3594 15.6639 88.3449 15.7499L88.3086 16.0152C88.2868 16.1945 88.265 16.3666 88.2359 16.5387C88.1924 16.7108 88.1561 16.8829 88.1125 17.0478L88.0544 17.3061C88.0326 17.3921 87.9963 17.471 87.9746 17.557C87.9165 17.722 87.8657 17.8869 87.8076 18.0518C87.7567 18.2167 87.6696 18.3673 87.6042 18.5251C87.5316 18.6829 87.4735 18.8406 87.3864 18.9912C87.0596 19.5864 86.6821 20.1601 86.2464 20.6405C85.3968 21.6301 84.2859 22.2971 83.1314 22.6772C81.9696 23.0357 80.7715 23.1002 79.6678 22.9066C78.5713 22.7058 77.5838 22.2684 76.7633 21.6947C75.9428 21.1354 75.3255 20.4254 74.9262 19.6725C74.5196 18.9195 74.3162 18.145 74.2509 17.4423C74.1855 16.7323 74.2436 16.0869 74.3816 15.5491C74.4034 15.4128 74.447 15.2837 74.4905 15.1618C74.5268 15.0399 74.5704 14.9252 74.6067 14.8105C74.7011 14.5953 74.781 14.3946 74.8681 14.2225C74.9625 14.0575 75.0424 13.9069 75.115 13.7779C75.1876 13.656 75.2675 13.5555 75.3256 13.4695C75.4272 13.3476 75.4853 13.2687 75.4853 13.2687Z" fill="#DFB68D"/>
<path d="M103.978 47.5677C103.978 47.5677 103.724 47.6465 103.245 47.79C103.121 47.8258 102.991 47.8689 102.845 47.9119C102.693 47.9549 102.533 47.9908 102.352 48.0339C101.996 48.1199 101.582 48.2347 101.117 48.3207C99.251 48.7079 96.4772 49.0737 93.0427 48.9446C91.329 48.8872 89.4484 48.7151 87.4516 48.3996C85.4547 48.0841 83.3417 47.6179 81.1634 46.994C78.9778 46.3773 76.7268 45.5813 74.4468 44.6204C72.174 43.6452 69.8722 42.5049 67.6358 41.1138C66.8734 40.6476 66.14 40.1456 65.4211 39.6365C64.7241 39.1058 64.027 38.5895 63.3517 38.0589C62.6982 37.5139 62.0374 36.9832 61.4057 36.4382C60.7812 35.886 60.1568 35.3482 59.5614 34.796C57.1724 32.6017 55.0304 30.4288 53.0626 28.4353C51.0948 26.4417 49.294 24.6203 47.6675 23.057C47.2609 22.6626 46.8615 22.2969 46.4767 21.9383C46.0919 21.5798 45.7288 21.2284 45.3585 20.9128C44.9954 20.5901 44.6469 20.2818 44.3129 19.9878C44.1459 19.8444 43.9861 19.7009 43.8264 19.5575C43.6666 19.4212 43.5069 19.2922 43.3544 19.1631C42.7009 18.7042 41.9965 18.1592 41.176 17.6429C40.7694 17.3776 40.3483 17.0979 39.9053 16.811C39.4551 16.5457 38.9832 16.266 38.4967 15.9791C38.2498 15.8429 38.0174 15.678 37.756 15.5489C37.4946 15.4126 37.2332 15.2836 36.9718 15.1474C36.4345 14.882 35.8972 14.5737 35.3235 14.337C34.1835 13.8422 32.9201 13.4407 31.5768 13.1753C30.2335 12.91 28.803 12.7737 27.3289 12.8024C25.8549 12.8311 24.3301 13.0247 22.8052 13.3832C21.2804 13.7489 19.7701 14.3155 18.3251 15.0613C17.6135 15.4557 16.9019 15.8644 16.2411 16.3592C15.8999 16.5887 15.5876 16.8684 15.2609 17.1266L14.8034 17.5425L14.571 17.7505L14.3532 17.9727C12.625 19.7153 11.4342 21.8523 10.8679 24.0825C10.7372 24.649 10.5919 25.2083 10.5193 25.7748C10.4104 26.3342 10.3814 26.9007 10.3378 27.4528C10.2942 28.5644 10.3668 29.6472 10.5701 30.687C10.788 31.7196 11.1438 32.6949 11.6012 33.577C11.7247 33.7921 11.8263 34.0216 11.9716 34.2224C12.1095 34.4303 12.2475 34.6311 12.3782 34.8319C12.5307 35.0255 12.6832 35.212 12.8284 35.3984C12.9736 35.5849 13.1551 35.7498 13.3149 35.9219C13.9829 36.596 14.7163 37.1481 15.486 37.5927C16.2629 38.023 17.0616 38.3242 17.8531 38.5322C18.0492 38.5752 18.2525 38.6182 18.4413 38.6612C18.6373 38.6971 18.8334 38.7114 19.0294 38.7401C19.1238 38.7544 19.2255 38.7688 19.3199 38.776C19.4143 38.7832 19.5086 38.7832 19.603 38.7903C19.7918 38.7975 19.9806 38.819 20.1622 38.8047C20.5325 38.7832 20.8955 38.7832 21.2368 38.7186C21.4111 38.69 21.5854 38.6828 21.7451 38.6398C21.9121 38.6039 22.0719 38.5609 22.2316 38.525C23.5096 38.1951 24.5189 37.6142 25.245 37.0334C25.9784 36.4525 26.4721 35.9075 26.7771 35.5203C27.0821 35.1259 27.2346 34.9179 27.2346 34.9179C27.2346 34.9179 27.0966 35.1403 26.8279 35.5562C26.552 35.9721 26.1018 36.5601 25.3902 37.2127C24.6859 37.858 23.6839 38.5394 22.3623 38.9768C22.1953 39.027 22.0283 39.0772 21.854 39.1345C21.6798 39.1919 21.4982 39.2134 21.3167 39.2565C20.9537 39.3425 20.5688 39.3784 20.1767 39.4214C19.9806 39.4429 19.7773 39.4358 19.574 39.4429C19.4724 39.4429 19.3707 39.4429 19.2691 39.4501C19.1674 39.4501 19.0657 39.4357 18.9568 39.4286C18.7462 39.4142 18.5357 39.3998 18.3178 39.3783C18.1073 39.3425 17.8894 39.3067 17.6716 39.2708C16.8075 39.0987 15.9144 38.8118 15.0503 38.3815C14.1862 37.9441 13.3512 37.3705 12.5815 36.6606C11.0276 35.255 9.88033 33.2327 9.32121 30.9667C9.05981 29.8265 8.9509 28.6361 8.96542 27.417C9.00173 26.8147 9.02349 26.1979 9.12514 25.5884C9.1905 24.9717 9.33575 24.3694 9.46645 23.7526C9.7569 22.5192 10.2216 21.2929 10.8679 20.1456C11.5068 18.991 12.3201 17.9153 13.2713 16.9544L13.5109 16.7106L13.7651 16.4812C13.9321 16.3306 14.0991 16.1728 14.2733 16.0222C14.6292 15.7425 14.9704 15.4413 15.348 15.1903C16.0741 14.6525 16.8511 14.2079 17.628 13.792C19.2037 12.996 20.8374 12.4223 22.4712 12.0638C24.105 11.7124 25.7315 11.5547 27.2999 11.569C28.8683 11.5834 30.3787 11.7841 31.7873 12.1211C33.196 12.4581 34.5103 12.9387 35.6866 13.5195C36.2893 13.7992 36.8121 14.1363 37.3421 14.4374C37.6036 14.588 37.8649 14.7458 38.1191 14.8892C38.3805 15.0326 38.6128 15.2119 38.8524 15.3624C39.3244 15.678 39.7892 15.9863 40.2321 16.2804C40.6605 16.5959 41.0671 16.9043 41.4592 17.1983C42.258 17.772 42.926 18.36 43.5505 18.8691C43.7102 18.9838 43.8845 19.1057 44.0515 19.2277C44.2185 19.3567 44.3927 19.493 44.567 19.6293C44.9155 19.9018 45.2859 20.1886 45.678 20.4898C46.0701 20.7838 46.4549 21.1208 46.8616 21.4578C47.2682 21.7949 47.6966 22.1463 48.125 22.5192C49.8459 24.0036 51.7483 25.739 53.796 27.6537C55.8509 29.5683 58.051 31.6623 60.4545 33.7778C61.0572 34.3084 61.6744 34.8247 62.2988 35.3554C62.9306 35.8789 63.5768 36.388 64.2303 36.9187C64.8911 37.4278 65.5736 37.9226 66.2562 38.4318C66.9532 38.9122 67.6576 39.3927 68.3982 39.8445C70.5548 41.1855 72.7912 42.3184 74.9914 43.3081C77.1988 44.2833 79.3844 45.1152 81.4974 45.7821C83.6177 46.4562 85.6653 46.9869 87.6041 47.3813C89.5428 47.7757 91.3726 48.0338 93.0572 48.1844C96.4191 48.4928 99.1711 48.3206 101.045 48.0697C101.517 48.0195 101.93 47.9406 102.293 47.8761C102.475 47.8474 102.642 47.8187 102.794 47.79C102.947 47.7541 103.085 47.7254 103.201 47.7039C103.724 47.625 103.978 47.5677 103.978 47.5677Z" fill="#DFB68D"/>
<path d="M90.567 29.4827C90.0006 29.6261 89.6521 30.4436 89.623 31.6914C89.594 32.932 89.8917 34.5957 90.6468 36.3096C90.8429 36.7399 91.1188 37.2848 91.4964 37.9087C91.8667 38.5326 92.3314 39.221 92.8906 39.9237C93.4497 40.6265 94.0959 41.3436 94.8293 42.0034C95.5554 42.6631 96.3614 43.2726 97.1964 43.7602C98.8665 44.757 100.624 45.2518 101.894 45.3737C103.172 45.5028 103.971 45.3738 103.986 45.2519C104.007 45.1228 103.252 44.8646 102.207 44.3411C101.154 43.8248 99.8468 42.9571 98.7431 41.8026C97.6248 40.6552 96.7099 39.2354 96.0346 37.9087C95.6933 37.249 95.4101 36.6108 95.1633 36.0443C94.9164 35.4849 94.7204 34.99 94.5534 34.6171C93.8998 33.1327 93.1955 31.7918 92.513 30.8381C91.8231 29.8915 91.1406 29.3393 90.567 29.4827Z" fill="#DFB68D"/>
<path d="M69.2843 49.8482C69.0809 50.5223 69.1753 51.2107 69.5166 51.7916C69.8579 52.3581 70.4533 52.7955 71.1794 52.9748C71.9055 53.1397 72.6317 52.9891 73.1908 52.6377C73.7499 52.2792 74.1565 51.6984 74.28 51.0099C74.4107 50.3144 74.2436 49.6546 73.8878 49.1096C73.5393 48.5646 72.9947 48.1702 72.3412 48.0196C71.6949 47.8547 71.0342 47.9909 70.4823 48.3208C69.945 48.6435 69.4876 49.1742 69.2843 49.8482Z" fill="#DFB68D"/>
<path d="M64.0851 47.826C63.8165 48.3495 63.7947 48.9304 63.9907 49.4539C64.0851 49.7192 64.2449 49.9558 64.4555 50.1638C64.666 50.3718 64.9202 50.5438 65.2106 50.6657C65.7915 50.9311 66.4232 50.8809 66.9388 50.6586C67.4543 50.4362 67.8537 50.0132 68.0425 49.461C68.2313 48.9089 68.1805 48.328 67.9626 47.8404C67.7448 47.3527 67.3527 46.9798 66.8589 46.7504C66.6048 46.6428 66.3434 46.5926 66.082 46.5998C65.8205 46.607 65.5519 46.6643 65.305 46.7504C64.8112 46.9368 64.3538 47.3025 64.0851 47.826Z" fill="#DFB68D"/>
<path d="M59.9174 45.3234C59.627 45.7321 59.5253 46.2126 59.6197 46.6787C59.7068 47.152 60.0118 47.5608 60.4547 47.8548C60.6798 47.9982 60.9195 48.0914 61.1591 48.1273C61.406 48.1632 61.6528 48.1488 61.8852 48.0914C62.3499 47.9767 62.7493 47.6826 62.9961 47.2524C63.243 46.8149 63.2866 46.3274 63.1777 45.8899C63.1196 45.6676 63.0252 45.4668 62.8945 45.2875C62.7638 45.1082 62.604 44.9362 62.4007 44.8143C62.0014 44.5561 61.5222 44.513 61.0792 44.5847C60.6363 44.6708 60.2079 44.9218 59.9174 45.3234Z" fill="#DFB68D"/>
<path d="M56.7878 42.8851C56.2795 43.4587 56.3594 44.3336 56.9693 44.8427C57.5938 45.3376 58.4941 45.2372 58.9516 44.6277C59.4163 44.0181 59.3147 43.1647 58.7338 42.7058C58.1747 42.2325 57.2961 42.3185 56.7878 42.8851Z" fill="#DFB68D"/>
<path d="M54.3046 40.6046C53.8835 41.0205 53.898 41.6946 54.3337 42.1105C54.7621 42.5336 55.4592 42.4977 55.8585 42.0674C56.2579 41.63 56.2289 40.9774 55.815 40.5759C55.4011 40.1743 54.7258 40.1887 54.3046 40.6046Z" fill="#DFB68D"/>
<path d="M79.8273 51.8489C79.6748 53.0106 78.5857 53.8282 77.3948 53.6561C76.1968 53.4839 75.3835 52.3868 75.5796 51.2394C75.7829 50.0849 76.8575 49.2961 78.0048 49.461C79.1666 49.6259 79.9798 50.6944 79.8273 51.8489Z" fill="#DFB68D"/>
<path d="M84.6924 52.3367C84.6634 52.8315 84.431 53.269 84.068 53.5773C83.7049 53.8785 83.2184 54.0362 82.7029 53.9932C82.1873 53.943 81.7444 53.6921 81.4467 53.3335C81.149 52.9678 81.0037 52.5016 81.0618 52.0068C81.1199 51.512 81.374 51.089 81.7371 50.8021C82.1002 50.5153 82.5576 50.3575 83.0514 50.4077C83.5379 50.4507 83.959 50.6873 84.2568 51.0387C84.5472 51.3758 84.7215 51.8419 84.6924 52.3367Z" fill="#DFB68D"/>
<path d="M88.6714 52.3797C88.6932 52.7597 88.548 53.1111 88.2938 53.3693C88.0397 53.6274 87.6766 53.7996 87.2773 53.7924C86.4713 53.7996 85.8395 53.1541 85.8759 52.394C85.9049 51.6339 86.5293 51.0387 87.27 51.0315C87.6403 51.0387 87.9743 51.1749 88.2285 51.4188C88.4826 51.6554 88.6569 51.9924 88.6714 52.3797Z" fill="#DFB68D"/>
<path d="M91.997 51.8561C92.135 52.1142 92.1422 52.4011 91.9897 52.6808C91.8373 52.9461 91.5396 53.1612 91.191 53.2258C90.8425 53.2903 90.523 53.2114 90.3052 53.0321C90.0801 52.86 89.9421 52.6019 89.9203 52.3078C89.884 51.7198 90.3197 51.225 90.7771 51.139C91.0095 51.0959 91.2274 51.1533 91.4379 51.2753C91.634 51.4043 91.859 51.5979 91.997 51.8561Z" fill="#DFB68D"/>
<path d="M65.973 3.4086C66.1691 3.59505 66.4087 3.67396 66.6556 3.70264C66.779 3.70981 66.8952 3.70261 67.0041 3.66675C67.113 3.6309 67.2147 3.58072 67.3091 3.50901C67.4979 3.36559 67.5923 3.14327 67.6358 2.9138C67.6721 2.68433 67.6358 2.41899 67.4906 2.18951C67.3454 1.96004 67.1203 1.81665 66.8589 1.77362C66.5975 1.72343 66.3143 1.80948 66.0674 1.99593C65.944 2.08198 65.8569 2.20386 65.7915 2.32577C65.7262 2.44767 65.6898 2.58395 65.6826 2.70585C65.668 2.96401 65.777 3.22216 65.973 3.4086Z" fill="#DFB68D"/>
<path d="M64.724 5.10834C64.92 5.21591 65.1452 5.23746 65.3412 5.18726C65.53 5.13706 65.7188 5.04383 65.8277 4.87173C65.9294 4.69962 65.9802 4.51315 65.9439 4.31237C65.9076 4.11158 65.8059 3.91795 65.6389 3.76736C65.4646 3.62394 65.2541 3.56658 65.0362 3.60244C64.8256 3.63829 64.6006 3.75303 64.4699 3.96099C64.3392 4.16895 64.2811 4.3984 64.3392 4.60636C64.39 4.82149 64.5207 5.00078 64.724 5.10834Z" fill="#DFB68D"/>
<path d="M63.969 6.79336C64.1505 6.8579 64.3393 6.84354 64.4991 6.77183C64.6661 6.70012 64.7968 6.57821 64.8621 6.41328C64.9275 6.24117 64.9275 6.06906 64.8621 5.91129C64.7968 5.75353 64.6733 5.61013 64.4991 5.52407C64.3248 5.43802 64.136 5.438 63.969 5.50254C63.802 5.56708 63.6423 5.70336 63.5697 5.8898C63.497 6.07625 63.497 6.27705 63.5697 6.43481C63.6495 6.59975 63.7875 6.72882 63.969 6.79336Z" fill="#DFB68D"/>
<path d="M63.5333 8.22725C63.8237 8.29896 64.0996 8.12685 64.1868 7.86152C64.2667 7.58902 64.0996 7.30215 63.8237 7.20893C63.5405 7.1157 63.2428 7.28064 63.163 7.57466C63.0686 7.86867 63.2501 8.16271 63.5333 8.22725Z" fill="#DFB68D"/>
<path d="M63.2504 9.47522C63.4755 9.51825 63.6933 9.37479 63.7368 9.16683C63.7804 8.9517 63.6425 8.73662 63.4246 8.68642C63.1995 8.63623 62.989 8.77243 62.9381 8.99473C62.8873 9.21703 63.0253 9.4322 63.2504 9.47522Z" fill="#DFB68D"/>
<path d="M69.4222 1.28589C69.4948 1.49385 69.4802 1.71614 69.4003 1.90259C69.3205 2.08186 69.1825 2.2396 68.9937 2.32565C68.6089 2.47625 68.1514 2.33285 67.9263 1.94561C67.7013 1.56554 67.8755 1.03486 68.3257 0.848417C68.5508 0.748022 68.7831 0.748052 68.9865 0.834105C69.1898 0.920157 69.3495 1.07792 69.4222 1.28589Z" fill="#DFB68D"/>
<path d="M71.2158 0.791409C71.3029 1.1643 71.0706 1.53 70.7075 1.61606C70.3444 1.70211 69.9814 1.49415 69.8652 1.12843C69.749 0.762704 69.9814 0.375472 70.3663 0.282248C70.7511 0.189024 71.1359 0.418514 71.2158 0.791409Z" fill="#DFB68D"/>
<path d="M72.7118 0.489819C72.7554 0.776662 72.5738 1.04919 72.2907 1.09939C72.0075 1.15675 71.7316 0.970301 71.6662 0.69063C71.6009 0.403787 71.7897 0.12412 72.0874 0.066751C72.3778 0.0165536 72.661 0.202977 72.7118 0.489819Z" fill="#DFB68D"/>
<path d="M73.4741 0.64044C73.416 0.540045 73.4088 0.432491 73.4161 0.339267C73.4161 0.317754 73.4161 0.296229 73.4161 0.281887C73.4161 0.274716 73.4161 0.274702 73.4161 0.267531H73.4088L73.4378 0.303377C73.4959 0.353575 73.5177 0.389454 73.5685 0.418139C73.583 0.432481 73.5976 0.439636 73.6193 0.446807C73.6339 0.453978 73.6411 0.461156 73.6556 0.453985C73.6629 0.453985 73.6557 0.446798 73.6339 0.482654C73.6121 0.511338 73.5976 0.561551 73.5758 0.633262C73.5685 0.676288 73.5613 0.712168 73.554 0.748023C73.554 0.769536 73.5468 0.783847 73.5468 0.80536C73.5104 0.798189 73.4015 0.762353 73.3289 0.690643C73.2563 0.626103 73.1982 0.525705 73.1837 0.418139C73.1692 0.310573 73.2055 0.202982 73.2781 0.124101C73.358 0.0452188 73.4524 -0.0121374 73.6412 0.00220472C73.6702 0.00937578 73.692 0.00939679 73.7356 0.0237389C73.7573 0.03091 73.7646 0.0308872 73.8009 0.0452293C73.8299 0.0595715 73.8444 0.0595767 73.8953 0.095432C73.9171 0.109774 73.9316 0.124122 73.9534 0.145635C73.9752 0.159977 74.0042 0.203 74.026 0.231684C74.0695 0.296224 74.0913 0.389467 74.0841 0.475519C74.0841 0.532888 74.055 0.604577 74.0405 0.633262C74.026 0.661946 74.0042 0.69062 73.9824 0.712133C73.9243 0.769501 73.8807 0.791011 73.8444 0.798182C73.8081 0.812524 73.7718 0.812538 73.7428 0.812538C73.6193 0.805367 73.5249 0.740835 73.4741 0.64044Z" fill="#DFB68D"/>
</svg>
