<svg width="104" height="54" viewBox="0 0 104 54" fill="none" xmlns="http://www.w3.org/2000/svg">
<path d="M76.2425 34.2513C76.2425 34.2513 76.366 34.4234 76.6129 34.7533C76.7363 34.9182 76.9178 35.0975 77.1211 35.327C77.3462 35.5278 77.5931 35.7787 77.9271 36.0082C78.5661 36.4815 79.4592 36.9476 80.592 37.1986C81.1656 37.299 81.7828 37.3778 82.4508 37.3277C83.1116 37.2775 83.8087 37.1412 84.5058 36.8759C85.8781 36.3237 87.2433 35.2481 88.209 33.7493C89.1965 32.2649 89.7048 30.2856 89.4361 28.2491C89.2982 27.2379 88.9569 26.2125 88.4123 25.2731C87.8459 24.3409 87.127 23.4302 86.2267 22.6844C85.3335 21.9386 84.2807 21.3147 83.1262 20.8916C81.9716 20.4685 80.7082 20.239 79.4229 20.2534C78.1377 20.2677 76.8234 20.5259 75.5963 21.0494C75.2913 21.1928 74.9718 21.3003 74.6886 21.4868C74.3982 21.6589 74.0932 21.8023 73.8101 22.0103C73.2364 22.3903 72.6846 22.8206 72.1763 23.3011C70.1141 25.2014 68.6691 27.8977 68.2915 30.8593C67.9067 33.8138 68.6183 36.9834 70.4627 39.5722C72.2779 42.2111 74.9863 44.3553 78.1885 45.4811C79.7787 46.062 81.4851 46.3632 83.2133 46.4134C84.9415 46.4564 86.6914 46.2054 88.376 45.682C89.211 45.4166 90.0315 45.0796 90.823 44.6708C91.0191 44.5632 91.2224 44.4701 91.4112 44.3553L91.9848 44.0183L92.5512 43.6454L92.8344 43.4589L93.1103 43.2581L93.6621 42.8566L94.1922 42.4263L94.4609 42.2112L94.715 41.9817C94.882 41.8311 95.0563 41.6805 95.2233 41.5227C95.8768 40.8845 96.5085 40.2176 97.0821 39.4933C99.3767 36.6177 100.865 33.0322 101.243 29.2674C101.635 25.5097 100.902 21.5872 99.0644 18.1594C98.8466 17.722 98.5852 17.3132 98.3383 16.8973C98.0624 16.4885 97.801 16.0727 97.5178 15.6783L97.0821 15.0902C97.0095 14.9898 96.9369 14.8894 96.8643 14.7962L96.632 14.5094L96.1672 13.9428C96.0147 13.7564 95.8405 13.5771 95.6807 13.3978C94.3665 11.9564 92.907 10.6585 91.3095 9.57567C89.7193 8.48567 88.0129 7.58211 86.2412 6.87934C84.4695 6.18375 82.6251 5.69612 80.7663 5.4021C77.0558 4.80691 73.28 5.08657 69.8019 6.06901C68.0592 6.56381 66.3891 7.23792 64.828 8.06976C64.4359 8.27772 64.0583 8.50713 63.6734 8.72227C63.3031 8.95174 62.9255 9.18121 62.5697 9.43219C61.8436 9.91983 61.1393 10.4505 60.464 11.0027C57.741 13.2114 55.3231 15.7356 53.014 18.2239C50.7049 20.7195 48.5121 23.2006 46.3337 25.5671C41.9988 30.3072 37.7219 34.5812 33.3652 37.9731C31.1941 39.6726 29.0158 41.1571 26.852 42.4048C25.7701 43.0287 24.7026 43.5952 23.6425 44.0972C22.5896 44.6135 21.5368 45.0509 20.5129 45.4525C16.4031 47.0302 12.6346 47.7114 9.56309 47.948C9.17825 47.9839 8.8079 48.0126 8.44484 48.0197C8.08178 48.0341 7.72601 48.0555 7.38474 48.0627C6.70219 48.0627 6.06319 48.0843 5.46777 48.0556C5.17007 48.0485 4.88688 48.0413 4.61096 48.0341C4.33503 48.0197 4.07362 47.9982 3.82674 47.9838C3.57986 47.9695 3.34025 47.9552 3.11516 47.9409C2.89006 47.9193 2.67948 47.8979 2.47617 47.8763C2.0768 47.8333 1.72099 47.8046 1.41602 47.7688C1.11105 47.7257 0.856918 47.697 0.653604 47.6684C0.239717 47.611 0.036377 47.5823 0.036377 47.5823C0.036377 47.5823 0.246985 47.6038 0.660873 47.6396C0.864186 47.6612 1.12559 47.6826 1.43056 47.7042C1.73553 47.7328 2.0913 47.7401 2.49793 47.7688C2.70124 47.7759 2.91182 47.7902 3.13692 47.8046C3.36201 47.8117 3.60162 47.8117 3.8485 47.8189C4.09538 47.8261 4.35679 47.8261 4.63272 47.8333C4.90138 47.8261 5.18456 47.8261 5.48227 47.8189C6.07042 47.8189 6.70219 47.7759 7.38474 47.7472C7.72601 47.7257 8.07451 47.6899 8.43031 47.6612C8.79337 47.6325 9.15644 47.5894 9.53402 47.5464C12.5619 47.195 16.2361 46.3775 20.208 44.6923C21.1955 44.2621 22.2048 43.8031 23.2214 43.2653C24.2452 42.7418 25.269 42.1467 26.3001 41.5013C28.3696 40.2105 30.4535 38.6973 32.5302 36.9691C36.6981 33.5198 40.7862 29.2101 44.9759 24.3911C47.0816 21.9888 49.2164 19.4574 51.4964 16.8901C53.7837 14.33 56.1871 11.7055 59.0335 9.31752C59.7451 8.72232 60.4858 8.14145 61.27 7.59645C61.6548 7.31678 62.0615 7.05863 62.4681 6.80047C62.882 6.55665 63.2958 6.30565 63.717 6.06901C65.4088 5.13677 67.2241 4.36944 69.1266 3.80293C72.9242 2.6699 77.0703 2.31854 81.1656 2.93526C83.2133 3.23644 85.2464 3.75994 87.2069 4.5129C89.1675 5.27303 91.0554 6.26258 92.8198 7.45297C94.5916 8.64337 96.2108 10.0705 97.6703 11.6625C97.8518 11.8633 98.0406 12.0569 98.2076 12.2648L98.7232 12.8887L98.9773 13.2042C99.0644 13.3117 99.1371 13.4194 99.2242 13.5269L99.7107 14.1794C100.03 14.6169 100.313 15.0758 100.618 15.5276C100.894 16.0009 101.192 16.467 101.439 16.9546C101.962 17.9227 102.397 18.9339 102.76 19.9665C103.131 20.992 103.407 22.0533 103.61 23.1218C103.828 24.1831 103.929 25.266 103.98 26.3416C104.031 27.4173 103.98 28.4929 103.871 29.5542C103.421 33.8067 101.708 37.8439 99.0862 41.0709C98.4327 41.8813 97.7211 42.6271 96.9732 43.337C96.7844 43.5091 96.5884 43.6812 96.3923 43.8461L96.1019 44.0972L95.8042 44.341L95.2015 44.8215L94.577 45.2661L94.2648 45.4883L93.9453 45.6963L93.299 46.105L92.631 46.4851C92.4059 46.6142 92.1736 46.7218 91.9485 46.8365C91.0263 47.2883 90.0751 47.6684 89.1021 47.9624C87.1561 48.5433 85.1302 48.7942 83.1479 48.7153C81.1656 48.6293 79.2196 48.2492 77.4116 47.5536C76.5112 47.2094 75.6399 46.8078 74.8121 46.3345C73.9843 45.8613 73.2074 45.3305 72.474 44.7425C71.0145 43.5665 69.7656 42.1897 68.7708 40.6837C67.7542 39.185 67.0353 37.4855 66.6578 35.7644C66.2802 34.0362 66.2366 32.2792 66.4908 30.6012C67.0063 27.2308 68.7345 24.219 71.1089 22.1466C71.697 21.6231 72.3288 21.1569 72.9823 20.7482C73.3018 20.533 73.6576 20.3681 73.9988 20.1816C74.3329 19.988 74.7031 19.859 75.0517 19.7156C76.4821 19.1634 77.978 18.9123 79.4375 18.941C80.8897 18.9697 82.2984 19.2709 83.5764 19.7801C84.8543 20.2964 85.9943 21.0207 86.9528 21.8812C87.1851 22.1035 87.4102 22.333 87.6426 22.5553C87.8532 22.7919 88.0492 23.0357 88.2526 23.2796L88.3977 23.4588L88.5285 23.6525C88.6156 23.7815 88.7027 23.9107 88.7899 24.0326C88.877 24.1616 88.9569 24.2835 89.044 24.4126C89.1166 24.5488 89.1892 24.6851 89.2618 24.8142C89.8427 25.8827 90.1768 27.0301 90.2857 28.1559C90.3946 29.2818 90.2857 30.3789 90.0098 31.3829C89.9299 31.6339 89.8645 31.8848 89.7701 32.1215C89.6685 32.3581 89.5741 32.5876 89.4797 32.8242C89.3635 33.0465 89.2473 33.2617 89.1311 33.4768C89.015 33.6919 88.8625 33.8855 88.739 34.0863C88.6156 34.2871 88.4558 34.4736 88.3106 34.6529C88.1654 34.8321 88.0202 35.0186 87.8459 35.1692C87.6789 35.3269 87.5264 35.4919 87.3594 35.6425C87.1851 35.7859 87.0109 35.9221 86.8439 36.0584L86.7204 36.1588L86.5825 36.2448C86.4953 36.3022 86.4009 36.3596 86.3138 36.4241C86.1323 36.5388 85.9653 36.6608 85.7765 36.754C85.5877 36.8472 85.4134 36.9547 85.2246 37.0336C85.0358 37.1053 84.8471 37.1842 84.6655 37.256C83.9176 37.5069 83.177 37.6289 82.4799 37.6504C81.7828 37.6719 81.1366 37.5643 80.5484 37.4352C79.3866 37.1269 78.4935 36.6034 77.869 36.0942C77.5423 35.8504 77.31 35.5851 77.0849 35.37C76.8961 35.1333 76.7218 34.9397 76.6056 34.7748C76.3587 34.4306 76.2425 34.2513 76.2425 34.2513Z" fill="#DFB68D"/>
<path d="M28.5147 13.2687C28.5147 13.2687 28.5801 13.3476 28.7108 13.4982C28.7761 13.5771 28.8632 13.6631 28.9503 13.785C29.0375 13.9069 29.1319 14.0503 29.2408 14.2081C29.3425 14.373 29.4441 14.5739 29.5603 14.7818C29.6111 14.8966 29.6547 15.0113 29.7128 15.1332C29.7636 15.2551 29.8217 15.3841 29.858 15.5204C30.054 16.0654 30.1703 16.7323 30.163 17.4924C30.1557 18.2526 30.0105 19.106 29.6256 19.9737C29.2553 20.8414 28.6164 21.6947 27.745 22.3903C26.8882 23.0931 25.8063 23.6667 24.5573 23.9823C23.3157 24.2906 21.907 24.3121 20.5056 23.9679C19.1114 23.6022 17.71 22.8707 16.5991 21.7234C16.0327 21.164 15.568 20.5258 15.1323 19.8302C15.0234 19.6581 14.9363 19.4716 14.8419 19.2924C14.7547 19.1059 14.6385 18.9267 14.5659 18.7331C14.4861 18.5395 14.4134 18.3458 14.3336 18.1522C14.2973 18.0518 14.2537 17.9585 14.2247 17.8582L14.1376 17.557C14.0795 17.3562 14.0214 17.1483 13.9633 16.9403C13.927 16.7324 13.8834 16.5172 13.8471 16.3093L13.789 15.9865C13.7672 15.879 13.7672 15.7714 13.7527 15.6639C13.7382 15.4487 13.7164 15.2264 13.7019 15.0113C13.6873 14.1364 13.7309 13.2329 13.9488 12.3436C14.0286 11.8919 14.1956 11.4616 14.3264 11.017C14.4062 10.8019 14.5079 10.5867 14.595 10.3716L14.733 10.0489C14.7838 9.94138 14.8419 9.84094 14.9 9.74055C15.0161 9.53259 15.1323 9.32463 15.2485 9.11667C15.3865 8.92305 15.5172 8.72221 15.6551 8.52859C15.7277 8.4282 15.7931 8.32787 15.8657 8.23464L16.0981 7.95496C16.2578 7.76851 16.4103 7.58205 16.5773 7.40278C16.7516 7.23067 16.9331 7.06576 17.1074 6.89366C17.1945 6.80761 17.2816 6.72157 17.376 6.64269L17.6592 6.42034C17.848 6.26975 18.044 6.11916 18.2328 5.97574L18.3781 5.86098C18.4289 5.82512 18.4797 5.79647 18.5306 5.76062L18.8428 5.56698C19.0534 5.43791 19.2639 5.30884 19.4745 5.17259C19.6923 5.05785 19.9174 4.95026 20.1425 4.83552L20.4766 4.6706C20.5855 4.61323 20.7017 4.55585 20.8179 4.51999C21.0502 4.43394 21.2898 4.34072 21.5294 4.25467L21.8852 4.11842L22.2556 4.01805C22.5024 3.95351 22.7493 3.88895 22.9962 3.81724C23.2431 3.7527 23.4972 3.72401 23.7514 3.67381C24.0055 3.63796 24.2596 3.58061 24.521 3.5591C24.7824 3.53758 25.0366 3.52323 25.298 3.50172C25.4287 3.49454 25.5594 3.48022 25.6901 3.48022L26.0822 3.48736C26.3436 3.49453 26.605 3.50172 26.8664 3.50889C27.1278 3.52324 27.3892 3.56626 27.6506 3.59494C28.1807 3.63797 28.6962 3.77424 29.219 3.8818C29.4804 3.932 29.7345 4.02522 29.9887 4.1041C30.2428 4.19016 30.5043 4.26186 30.7512 4.36225C30.998 4.46982 31.2449 4.57739 31.4918 4.68496L31.8621 4.84988L32.2179 5.04351C32.4575 5.17259 32.6899 5.30883 32.9295 5.43791C33.1619 5.58133 33.3797 5.74628 33.6048 5.89687C34.0695 6.19088 34.4688 6.56373 34.89 6.92228C35.1078 7.09439 35.2821 7.30239 35.4781 7.50318C35.6669 7.70397 35.863 7.89756 36.0445 8.10553C36.7489 8.9302 37.3806 9.82659 37.9034 10.8019C38.9563 12.7452 39.5299 14.9037 39.6243 17.0336C39.726 19.1634 39.3702 21.2573 38.7167 23.1719C38.0559 25.0938 37.0974 26.8507 35.9574 28.414C35.391 29.1957 34.7738 29.9271 34.1276 30.6155C33.5104 31.2609 32.9005 31.9063 32.2905 32.5374C31.0706 33.8067 29.8507 35.0329 28.6018 36.1731C27.3529 37.3133 26.0822 38.3602 24.7897 39.2997C22.2047 41.1785 19.5544 42.5841 17.0348 43.5737C16.4103 43.8318 15.7858 44.0398 15.1759 44.2621C14.566 44.4557 13.9705 44.6565 13.3824 44.8142C12.2133 45.1513 11.0951 45.3951 10.0495 45.603C7.95102 46.0118 6.12844 46.1982 4.63264 46.313C4.26232 46.3417 3.90651 46.3632 3.57976 46.3847C3.24574 46.399 2.9408 46.4134 2.65035 46.4206C2.3599 46.4349 2.09848 46.442 1.85886 46.4492C1.61924 46.4492 1.39417 46.4564 1.19811 46.4564C0.413905 46.4635 0 46.4635 0 46.4635C0 46.4635 0.413898 46.4206 1.19085 46.3417C1.3869 46.3202 1.60475 46.2986 1.84437 46.2771C2.08399 46.2484 2.34536 46.2125 2.62855 46.1767C2.91173 46.1408 3.21671 46.105 3.54346 46.062C3.87022 46.0118 4.21149 45.9545 4.58181 45.9043C6.04857 45.6676 7.82756 45.3377 9.85344 44.7855C10.8627 44.5059 11.9374 44.1903 13.0484 43.7887C13.6075 43.6023 14.1666 43.3656 14.7475 43.1433C15.3211 42.8995 15.9093 42.6557 16.4974 42.3689C18.8573 41.2645 21.3043 39.7873 23.6787 37.8726C24.8623 36.9189 26.0314 35.8575 27.1859 34.7173C28.3404 33.5771 29.4732 32.3294 30.6349 31.0386C31.2158 30.386 31.804 29.7263 32.3994 29.0594C32.9658 28.4283 33.4886 27.7543 33.9751 27.0443C34.9481 25.6245 35.7541 24.0612 36.2914 22.3831C36.8288 20.7123 37.0974 18.9338 36.9958 17.1626C36.8941 15.3913 36.4149 13.6344 35.5508 12.0281C35.1224 11.2249 34.5996 10.4791 34.0114 9.78353L33.554 9.29595C33.4015 9.13818 33.2635 8.96606 33.0892 8.82981C32.7552 8.54297 32.4357 8.23459 32.0654 7.99794C31.8839 7.87603 31.7096 7.73986 31.5281 7.62512C31.3393 7.51755 31.1505 7.40994 30.9617 7.30237L30.6785 7.13745L30.3808 7.00124C30.1848 6.91519 29.9815 6.82188 29.7854 6.73583C29.5821 6.65695 29.3788 6.59246 29.1754 6.52075C28.9721 6.45621 28.7688 6.37014 28.5583 6.32712C28.1371 6.23389 27.7232 6.11199 27.2948 6.06897C27.0842 6.04028 26.8737 6.00443 26.6558 5.98292C26.4453 5.97575 26.2274 5.96138 26.0168 5.95421L25.6973 5.93989C25.5884 5.93989 25.4868 5.94704 25.3779 5.95421C25.1673 5.96138 24.9567 5.97575 24.7461 5.98292C24.5356 5.99009 24.3323 6.04028 24.1217 6.06179C23.9184 6.09765 23.7005 6.10483 23.5045 6.1622C23.3011 6.21239 23.0979 6.2626 22.8945 6.30563L22.5895 6.37732L22.2991 6.47768C22.1031 6.54222 21.907 6.61395 21.711 6.67849C21.6093 6.70718 21.5222 6.75023 21.4278 6.79325L21.1518 6.92228C20.963 7.00834 20.7815 7.08729 20.5927 7.18052C20.4184 7.28091 20.2442 7.38843 20.0699 7.48882L19.8085 7.63939C19.765 7.66807 19.7214 7.68966 19.6778 7.71835L19.5544 7.8044C19.3946 7.9263 19.2276 8.04104 19.0679 8.16295L18.821 8.34223C18.7412 8.3996 18.6758 8.47123 18.6032 8.53577C18.4579 8.66485 18.3127 8.79396 18.1675 8.92304C18.0295 9.05929 17.9061 9.20986 17.7754 9.34611L17.5793 9.55409C17.5213 9.6258 17.4632 9.70465 17.4051 9.78353C17.2889 9.93412 17.1727 10.0847 17.0638 10.2425C16.9694 10.4074 16.8678 10.5652 16.7734 10.7302C16.7225 10.809 16.6717 10.8879 16.6281 10.974L16.5047 11.2249C16.4248 11.397 16.3377 11.562 16.2651 11.7341C16.1489 12.0855 15.9892 12.4297 15.9166 12.7883C15.706 13.4982 15.6479 14.2296 15.6188 14.9467C15.6261 15.126 15.6334 15.3053 15.6406 15.4846C15.6479 15.5706 15.6406 15.6639 15.6551 15.7499L15.6914 16.0152C15.7132 16.1945 15.735 16.3666 15.7641 16.5387C15.8076 16.7108 15.8439 16.8829 15.8875 17.0478L15.9456 17.3061C15.9674 17.3921 16.0037 17.471 16.0254 17.557C16.0835 17.722 16.1343 17.8869 16.1924 18.0518C16.2433 18.2167 16.3304 18.3673 16.3958 18.5251C16.4684 18.6829 16.5265 18.8406 16.6136 18.9912C16.9404 19.5864 17.3179 20.1601 17.7536 20.6405C18.6032 21.6301 19.7141 22.2971 20.8686 22.6772C22.0304 23.0357 23.2285 23.1002 24.3322 22.9066C25.4287 22.7058 26.4162 22.2684 27.2367 21.6947C28.0572 21.1354 28.6745 20.4254 29.0738 19.6725C29.4804 18.9195 29.6838 18.145 29.7491 17.4423C29.8145 16.7323 29.7564 16.0869 29.6184 15.5491C29.5966 15.4128 29.553 15.2837 29.5095 15.1618C29.4732 15.0399 29.4296 14.9252 29.3933 14.8105C29.2989 14.5953 29.219 14.3946 29.1319 14.2225C29.0375 14.0575 28.9576 13.9069 28.885 13.7779C28.8124 13.656 28.7325 13.5555 28.6744 13.4695C28.5728 13.3476 28.5147 13.2687 28.5147 13.2687Z" fill="#DFB68D"/>
<path d="M0.0219727 47.5677C0.0219727 47.5677 0.276121 47.6465 0.75536 47.79C0.8788 47.8258 1.00949 47.8689 1.15472 47.9119C1.3072 47.9549 1.46694 47.9908 1.64847 48.0339C2.00427 48.1199 2.41817 48.2347 2.88288 48.3207C4.74901 48.7079 7.52278 49.0737 10.9573 48.9446C12.671 48.8872 14.5516 48.7151 16.5484 48.3996C18.5453 48.0841 20.6583 47.6179 22.8366 46.994C25.0222 46.3773 27.2732 45.5813 29.5532 44.6204C31.826 43.6452 34.1278 42.5049 36.3642 41.1138C37.1266 40.6476 37.86 40.1456 38.5789 39.6365C39.2759 39.1058 39.973 38.5895 40.6483 38.0589C41.3018 37.5139 41.9626 36.9832 42.5943 36.4382C43.2188 35.886 43.8432 35.3482 44.4386 34.796C46.8276 32.6017 48.9696 30.4288 50.9374 28.4353C52.9052 26.4417 54.706 24.6203 56.3325 23.057C56.7391 22.6626 57.1385 22.2969 57.5233 21.9383C57.9081 21.5798 58.2712 21.2284 58.6415 20.9128C59.0046 20.5901 59.3531 20.2818 59.6871 19.9878C59.8541 19.8444 60.0139 19.7009 60.1736 19.5575C60.3334 19.4212 60.4931 19.2922 60.6456 19.1631C61.2991 18.7042 62.0035 18.1592 62.824 17.6429C63.2306 17.3776 63.6517 17.0979 64.0947 16.811C64.5449 16.5457 65.0168 16.266 65.5033 15.9791C65.7502 15.8429 65.9826 15.678 66.244 15.5489C66.5054 15.4126 66.7668 15.2836 67.0282 15.1474C67.5655 14.882 68.1028 14.5737 68.6765 14.337C69.8165 13.8422 71.0799 13.4407 72.4232 13.1753C73.7665 12.91 75.197 12.7737 76.6711 12.8024C78.1451 12.8311 79.6699 13.0247 81.1948 13.3832C82.7196 13.7489 84.2299 14.3155 85.6749 15.0613C86.3865 15.4557 87.0981 15.8644 87.7589 16.3592C88.1001 16.5887 88.4124 16.8684 88.7391 17.1266L89.1966 17.5425L89.429 17.7505L89.6468 17.9727C91.375 19.7153 92.5658 21.8523 93.1321 24.0825C93.2628 24.649 93.4081 25.2083 93.4807 25.7748C93.5896 26.3342 93.6186 26.9007 93.6622 27.4528C93.7058 28.5644 93.6332 29.6472 93.4299 30.687C93.212 31.7196 92.8562 32.6949 92.3988 33.577C92.2753 33.7921 92.1737 34.0216 92.0284 34.2224C91.8905 34.4303 91.7525 34.6311 91.6218 34.8319C91.4693 35.0255 91.3168 35.212 91.1716 35.3984C91.0264 35.5849 90.8449 35.7498 90.6851 35.9219C90.0171 36.596 89.2837 37.1481 88.514 37.5927C87.7371 38.023 86.9384 38.3242 86.1469 38.5322C85.9508 38.5752 85.7475 38.6182 85.5587 38.6612C85.3627 38.6971 85.1666 38.7114 84.9706 38.7401C84.8762 38.7544 84.7745 38.7688 84.6801 38.776C84.5857 38.7832 84.4914 38.7832 84.397 38.7903C84.2082 38.7975 84.0194 38.819 83.8378 38.8047C83.4675 38.7832 83.1045 38.7832 82.7632 38.7186C82.5889 38.69 82.4146 38.6828 82.2549 38.6398C82.0879 38.6039 81.9281 38.5609 81.7684 38.525C80.4904 38.1951 79.4811 37.6142 78.755 37.0334C78.0216 36.4525 77.5279 35.9075 77.2229 35.5203C76.9179 35.1259 76.7654 34.9179 76.7654 34.9179C76.7654 34.9179 76.9034 35.1403 77.1721 35.5562C77.448 35.9721 77.8982 36.5601 78.6098 37.2127C79.3141 37.858 80.3161 38.5394 81.6377 38.9768C81.8047 39.027 81.9717 39.0772 82.146 39.1345C82.3202 39.1919 82.5018 39.2134 82.6833 39.2565C83.0463 39.3425 83.4312 39.3784 83.8233 39.4214C84.0194 39.4429 84.2227 39.4358 84.426 39.4429C84.5276 39.4429 84.6293 39.4429 84.7309 39.4501C84.8326 39.4501 84.9343 39.4357 85.0432 39.4286C85.2538 39.4142 85.4643 39.3998 85.6822 39.3783C85.8927 39.3425 86.1106 39.3067 86.3284 39.2708C87.1925 39.0987 88.0856 38.8118 88.9497 38.3815C89.8138 37.9441 90.6488 37.3705 91.4185 36.6606C92.9724 35.255 94.1197 33.2327 94.6788 30.9667C94.9402 29.8265 95.0491 28.6361 95.0346 27.417C94.9983 26.8147 94.9765 26.1979 94.8749 25.5884C94.8095 24.9717 94.6643 24.3694 94.5336 23.7526C94.2431 22.5192 93.7784 21.2929 93.1321 20.1456C92.4932 18.991 91.6799 17.9153 90.7287 16.9544L90.4891 16.7106L90.2349 16.4812C90.0679 16.3306 89.9009 16.1728 89.7267 16.0222C89.3708 15.7425 89.0296 15.4413 88.652 15.1903C87.9259 14.6525 87.1489 14.2079 86.372 13.792C84.7963 12.996 83.1626 12.4223 81.5288 12.0638C79.895 11.7124 78.2685 11.5547 76.7001 11.569C75.1317 11.5834 73.6213 11.7841 72.2127 12.1211C70.804 12.4581 69.4897 12.9387 68.3134 13.5195C67.7107 13.7992 67.1879 14.1363 66.6579 14.4374C66.3964 14.588 66.1351 14.7458 65.8809 14.8892C65.6195 15.0326 65.3872 15.2119 65.1476 15.3624C64.6756 15.678 64.2108 15.9863 63.7679 16.2804C63.3395 16.5959 62.9329 16.9043 62.5408 17.1983C61.742 17.772 61.074 18.36 60.4495 18.8691C60.2898 18.9838 60.1155 19.1057 59.9485 19.2277C59.7815 19.3567 59.6073 19.493 59.433 19.6293C59.0845 19.9018 58.7141 20.1886 58.322 20.4898C57.9299 20.7838 57.5451 21.1208 57.1384 21.4578C56.7318 21.7949 56.3034 22.1463 55.875 22.5192C54.1541 24.0036 52.2517 25.739 50.204 27.6537C48.1491 29.5683 45.949 31.6623 43.5455 33.7778C42.9428 34.3084 42.3256 34.8247 41.7012 35.3554C41.0694 35.8789 40.4232 36.388 39.7697 36.9187C39.1089 37.4278 38.4264 37.9226 37.7438 38.4318C37.0468 38.9122 36.3424 39.3927 35.6018 39.8445C33.4452 41.1855 31.2088 42.3184 29.0086 43.3081C26.8012 44.2833 24.6156 45.1152 22.5026 45.7821C20.3823 46.4562 18.3347 46.9869 16.3959 47.3813C14.4572 47.7757 12.6274 48.0338 10.9428 48.1844C7.58085 48.4928 4.82886 48.3206 2.95548 48.0697C2.4835 48.0195 2.06963 47.9406 1.70657 47.8761C1.52504 47.8474 1.35803 47.8187 1.20555 47.79C1.05306 47.7541 0.915104 47.7254 0.798925 47.7039C0.276119 47.625 0.0219727 47.5677 0.0219727 47.5677Z" fill="#DFB68D"/>
<path d="M13.433 29.4827C13.9994 29.6261 14.3479 30.4436 14.377 31.6914C14.406 32.932 14.1083 34.5957 13.3532 36.3096C13.1571 36.7399 12.8812 37.2848 12.5036 37.9087C12.1333 38.5326 11.6686 39.221 11.1094 39.9237C10.5503 40.6265 9.9041 41.3436 9.17072 42.0034C8.4446 42.6631 7.6386 43.2726 6.80357 43.7602C5.13349 44.757 3.37631 45.2518 2.1056 45.3737C0.827632 45.5028 0.0288978 45.3738 0.0143754 45.2519C-0.00740813 45.1228 0.747764 44.8646 1.79338 44.3411C2.84625 43.8248 4.15323 42.9571 5.25693 41.8026C6.37515 40.6552 7.29009 39.2354 7.96538 37.9087C8.30666 37.249 8.58985 36.6108 8.83673 36.0443C9.08362 35.4849 9.27964 34.99 9.44665 34.6171C10.1002 33.1327 10.8045 31.7918 11.487 30.8381C12.1769 29.8915 12.8594 29.3393 13.433 29.4827Z" fill="#DFB68D"/>
<path d="M34.7157 49.8482C34.9191 50.5223 34.8247 51.2107 34.4834 51.7916C34.1421 52.3581 33.5467 52.7955 32.8206 52.9748C32.0945 53.1397 31.3683 52.9891 30.8092 52.6377C30.2501 52.2792 29.8435 51.6984 29.72 51.0099C29.5893 50.3144 29.7564 49.6546 30.1122 49.1096C30.4607 48.5646 31.0053 48.1702 31.6588 48.0196C32.3051 47.8547 32.9658 47.9909 33.5177 48.3208C34.055 48.6435 34.5124 49.1742 34.7157 49.8482Z" fill="#DFB68D"/>
<path d="M39.9149 47.826C40.1835 48.3495 40.2053 48.9304 40.0093 49.4539C39.9149 49.7192 39.7551 49.9558 39.5445 50.1638C39.334 50.3718 39.0798 50.5438 38.7894 50.6657C38.2085 50.9311 37.5768 50.8809 37.0612 50.6586C36.5457 50.4362 36.1463 50.0132 35.9575 49.461C35.7687 48.9089 35.8195 48.328 36.0374 47.8404C36.2552 47.3527 36.6473 46.9798 37.1411 46.7504C37.3952 46.6428 37.6566 46.5926 37.918 46.5998C38.1795 46.607 38.4481 46.6643 38.695 46.7504C39.1888 46.9368 39.6462 47.3025 39.9149 47.826Z" fill="#DFB68D"/>
<path d="M44.0826 45.3234C44.373 45.7321 44.4747 46.2126 44.3803 46.6787C44.2932 47.152 43.9882 47.5608 43.5453 47.8548C43.3202 47.9982 43.0805 48.0914 42.8409 48.1273C42.594 48.1632 42.3472 48.1488 42.1148 48.0914C41.6501 47.9767 41.2507 47.6826 41.0039 47.2524C40.757 46.8149 40.7134 46.3274 40.8223 45.8899C40.8804 45.6676 40.9748 45.4668 41.1055 45.2875C41.2362 45.1082 41.396 44.9362 41.5993 44.8143C41.9986 44.5561 42.4778 44.513 42.9208 44.5847C43.3637 44.6708 43.7921 44.9218 44.0826 45.3234Z" fill="#DFB68D"/>
<path d="M47.2122 42.8851C47.7205 43.4587 47.6406 44.3336 47.0307 44.8427C46.4062 45.3376 45.5059 45.2372 45.0484 44.6277C44.5837 44.0181 44.6853 43.1647 45.2662 42.7058C45.8253 42.2325 46.7039 42.3185 47.2122 42.8851Z" fill="#DFB68D"/>
<path d="M49.6954 40.6046C50.1165 41.0205 50.102 41.6946 49.6663 42.1105C49.2379 42.5336 48.5408 42.4977 48.1415 42.0674C47.7421 41.63 47.7711 40.9774 48.185 40.5759C48.5989 40.1743 49.2742 40.1887 49.6954 40.6046Z" fill="#DFB68D"/>
<path d="M24.1727 51.8489C24.3252 53.0106 25.4143 53.8282 26.6052 53.6561C27.8032 53.4839 28.6165 52.3868 28.4204 51.2394C28.2171 50.0849 27.1425 49.2961 25.9952 49.461C24.8334 49.6259 24.0202 50.6944 24.1727 51.8489Z" fill="#DFB68D"/>
<path d="M19.3076 52.3367C19.3366 52.8315 19.569 53.269 19.932 53.5773C20.2951 53.8785 20.7816 54.0362 21.2971 53.9932C21.8127 53.943 22.2556 53.6921 22.5533 53.3335C22.851 52.9678 22.9963 52.5016 22.9382 52.0068C22.8801 51.512 22.626 51.089 22.2629 50.8021C21.8998 50.5153 21.4424 50.3575 20.9486 50.4077C20.4621 50.4507 20.041 50.6873 19.7432 51.0387C19.4528 51.3758 19.2785 51.8419 19.3076 52.3367Z" fill="#DFB68D"/>
<path d="M15.3286 52.3797C15.3068 52.7597 15.452 53.1111 15.7062 53.3693C15.9603 53.6274 16.3234 53.7996 16.7227 53.7924C17.5287 53.7996 18.1605 53.1541 18.1241 52.394C18.0951 51.6339 17.4707 51.0387 16.73 51.0315C16.3597 51.0387 16.0257 51.1749 15.7715 51.4188C15.5174 51.6554 15.3431 51.9924 15.3286 52.3797Z" fill="#DFB68D"/>
<path d="M12.003 51.8561C11.865 52.1142 11.8578 52.4011 12.0103 52.6808C12.1627 52.9461 12.4604 53.1612 12.809 53.2258C13.1575 53.2903 13.477 53.2114 13.6948 53.0321C13.9199 52.86 14.0579 52.6019 14.0797 52.3078C14.116 51.7198 13.6803 51.225 13.2229 51.139C12.9905 51.0959 12.7726 51.1533 12.5621 51.2753C12.366 51.4043 12.141 51.5979 12.003 51.8561Z" fill="#DFB68D"/>
<path d="M38.027 3.4086C37.8309 3.59505 37.5913 3.67396 37.3444 3.70264C37.221 3.70981 37.1048 3.70261 36.9959 3.66675C36.887 3.6309 36.7853 3.58072 36.6909 3.50901C36.5021 3.36559 36.4077 3.14327 36.3642 2.9138C36.3279 2.68433 36.3642 2.41899 36.5094 2.18951C36.6546 1.96004 36.8797 1.81665 37.1411 1.77362C37.4025 1.72343 37.6857 1.80948 37.9326 1.99593C38.056 2.08198 38.1431 2.20386 38.2085 2.32577C38.2738 2.44767 38.3102 2.58395 38.3174 2.70585C38.332 2.96401 38.223 3.22216 38.027 3.4086Z" fill="#DFB68D"/>
<path d="M39.276 5.10834C39.08 5.21591 38.8548 5.23746 38.6588 5.18726C38.47 5.13706 38.2812 5.04383 38.1723 4.87173C38.0706 4.69962 38.0198 4.51315 38.0561 4.31237C38.0924 4.11158 38.1941 3.91795 38.3611 3.76736C38.5354 3.62394 38.7459 3.56658 38.9638 3.60244C39.1744 3.63829 39.3994 3.75303 39.5301 3.96099C39.6608 4.16895 39.7189 4.3984 39.6608 4.60636C39.61 4.82149 39.4793 5.00078 39.276 5.10834Z" fill="#DFB68D"/>
<path d="M40.031 6.79336C39.8495 6.8579 39.6607 6.84354 39.5009 6.77183C39.3339 6.70012 39.2032 6.57821 39.1379 6.41328C39.0725 6.24117 39.0725 6.06906 39.1379 5.91129C39.2032 5.75353 39.3267 5.61013 39.5009 5.52407C39.6752 5.43802 39.864 5.438 40.031 5.50254C40.198 5.56708 40.3577 5.70336 40.4303 5.8898C40.503 6.07625 40.503 6.27705 40.4303 6.43481C40.3505 6.59975 40.2125 6.72882 40.031 6.79336Z" fill="#DFB68D"/>
<path d="M40.4667 8.22725C40.1763 8.29896 39.9004 8.12685 39.8132 7.86152C39.7333 7.58902 39.9004 7.30215 40.1763 7.20893C40.4595 7.1157 40.7572 7.28064 40.837 7.57466C40.9314 7.86867 40.7499 8.16271 40.4667 8.22725Z" fill="#DFB68D"/>
<path d="M40.7496 9.47522C40.5245 9.51825 40.3067 9.37479 40.2632 9.16683C40.2196 8.9517 40.3575 8.73662 40.5754 8.68642C40.8005 8.63623 41.011 8.77243 41.0619 8.99473C41.1127 9.21703 40.9747 9.4322 40.7496 9.47522Z" fill="#DFB68D"/>
<path d="M34.5778 1.28589C34.5052 1.49385 34.5198 1.71614 34.5997 1.90259C34.6795 2.08186 34.8175 2.2396 35.0063 2.32565C35.3911 2.47625 35.8486 2.33285 36.0737 1.94561C36.2987 1.56554 36.1245 1.03486 35.6743 0.848417C35.4492 0.748022 35.2169 0.748052 35.0135 0.834105C34.8102 0.920157 34.6505 1.07792 34.5778 1.28589Z" fill="#DFB68D"/>
<path d="M32.7842 0.791409C32.6971 1.1643 32.9294 1.53 33.2925 1.61606C33.6556 1.70211 34.0186 1.49415 34.1348 1.12843C34.251 0.762704 34.0186 0.375472 33.6337 0.282248C33.2489 0.189024 32.8641 0.418514 32.7842 0.791409Z" fill="#DFB68D"/>
<path d="M31.2882 0.489819C31.2446 0.776662 31.4262 1.04919 31.7093 1.09939C31.9925 1.15675 32.2684 0.970301 32.3338 0.69063C32.3991 0.403787 32.2103 0.12412 31.9126 0.066751C31.6222 0.0165536 31.339 0.202977 31.2882 0.489819Z" fill="#DFB68D"/>
<path d="M30.5259 0.64044C30.584 0.540045 30.5912 0.432491 30.5839 0.339267C30.5839 0.317754 30.5839 0.296229 30.5839 0.281887C30.5839 0.274716 30.5839 0.274702 30.5839 0.267531H30.5912L30.5622 0.303377C30.5041 0.353575 30.4823 0.389454 30.4315 0.418139C30.417 0.432481 30.4024 0.439636 30.3807 0.446807C30.3661 0.453978 30.3589 0.461156 30.3444 0.453985C30.3371 0.453985 30.3443 0.446798 30.3661 0.482654C30.3879 0.511338 30.4024 0.561551 30.4242 0.633262C30.4315 0.676288 30.4387 0.712168 30.446 0.748023C30.446 0.769536 30.4532 0.783847 30.4532 0.80536C30.4896 0.798189 30.5985 0.762353 30.6711 0.690643C30.7437 0.626103 30.8018 0.525705 30.8163 0.418139C30.8308 0.310573 30.7945 0.202982 30.7219 0.124101C30.642 0.0452188 30.5476 -0.0121374 30.3588 0.00220472C30.3298 0.00937578 30.308 0.00939679 30.2644 0.0237389C30.2427 0.03091 30.2354 0.0308872 30.1991 0.0452293C30.1701 0.0595715 30.1556 0.0595767 30.1047 0.095432C30.0829 0.109774 30.0684 0.124122 30.0466 0.145635C30.0248 0.159977 29.9958 0.203 29.974 0.231684C29.9305 0.296224 29.9087 0.389467 29.9159 0.475519C29.9159 0.532888 29.945 0.604577 29.9595 0.633262C29.974 0.661946 29.9958 0.69062 30.0176 0.712133C30.0757 0.769501 30.1193 0.791011 30.1556 0.798182C30.1919 0.812524 30.2282 0.812538 30.2572 0.812538C30.3807 0.805367 30.4751 0.740835 30.5259 0.64044Z" fill="#DFB68D"/>
</svg>
