<svg width="167" height="20" viewBox="0 0 167 20" fill="none" xmlns="http://www.w3.org/2000/svg">
<path d="M94.5547 13.6873C94.5547 13.6873 98.8403 8.80532 123.275 8.51784C147.709 8.23036 162.712 8.23037 167 0.763672C167 0.763672 164.857 5.07068 154.996 5.93311C145.137 6.79554 112.404 6.25909 103.555 9.38027C95.4102 12.2525 94.5547 13.6873 94.5547 13.6873Z" fill="#DFB68D"/>
<path d="M72.4453 13.6873C72.4453 13.6873 68.1597 8.80532 43.7252 8.51784C19.2907 8.23036 4.28824 8.23037 0 0.763672C0 0.763672 2.14284 5.07068 12.004 5.93311C21.8626 6.79554 54.5961 6.25909 63.4449 9.38027C71.5872 12.2525 72.4453 13.6873 72.4453 13.6873Z" fill="#DFB68D"/>
<path d="M48.3911 17.1548C48.3911 17.1548 48.3808 17.1805 48.3603 17.2344C48.3371 17.2857 48.3166 17.3679 48.2652 17.4628C48.1753 17.6605 48.016 17.9531 47.7231 18.2637C47.5766 18.4202 47.3967 18.5768 47.1835 18.7308C46.9677 18.8797 46.7159 19.0209 46.4332 19.1415C45.868 19.3853 45.1717 19.5445 44.3957 19.5727C43.6198 19.5984 42.7616 19.5137 41.8727 19.2211C41.6491 19.1492 41.4282 19.0619 41.2046 18.9592C40.9759 18.8591 40.7704 18.7282 40.5469 18.6076C40.1204 18.3355 39.7016 18.0095 39.3264 17.6143C38.5865 16.816 38.034 15.7559 37.8079 14.6112C37.5716 13.4689 37.5921 12.26 37.8208 11.087C38.124 9.48534 38.7586 8.03513 39.5577 6.79282C39.9611 6.17166 40.4081 5.60184 40.904 5.10132C41.0299 4.98068 41.1558 4.85235 41.2817 4.74198C41.4076 4.63161 41.5309 4.52123 41.6543 4.41343C41.775 4.30306 41.9086 4.20552 42.032 4.10285C42.1578 4.00274 42.2812 3.90008 42.4096 3.81025C42.9132 3.4278 43.4271 3.10694 43.923 2.81947C44.4292 2.54739 44.9148 2.30356 45.3901 2.12388C46.333 1.74657 47.1912 1.5515 47.8901 1.44883C48.5632 1.23578 49.4214 1.04328 50.4312 0.956013C51.4409 0.868743 52.5997 0.896977 53.8432 1.08435C56.3381 1.44626 59.1233 2.4704 61.8519 3.92062C63.8637 4.98582 65.6751 6.15883 67.2835 7.25997C68.8919 8.36368 70.3051 9.39808 71.4947 10.2579C72.6843 11.1204 73.6529 11.8057 74.3338 12.2703C74.673 12.5038 74.9402 12.681 75.12 12.799C75.2999 12.9197 75.3975 12.9813 75.3975 12.9813C75.3975 12.9813 75.2922 12.9376 75.0918 12.8555C74.8914 12.7734 74.5959 12.645 74.2208 12.4731C73.4679 12.1291 72.3939 11.5978 71.099 10.8919C69.8015 10.1861 68.283 9.30567 66.6103 8.3303C64.9351 7.35494 63.1058 6.28203 61.153 5.24763C58.5015 3.83847 55.9373 2.72193 53.6351 2.16238C52.4866 1.87747 51.4101 1.72603 50.4517 1.68496C49.4933 1.6439 48.6532 1.70294 47.9749 1.80561C46.6671 2.20859 44.8428 3.06332 43.1085 4.66241C42.998 4.75738 42.8927 4.8626 42.7822 4.96784C42.6743 5.07308 42.5612 5.1732 42.4559 5.28613C42.3505 5.3965 42.2426 5.50687 42.1347 5.61981C42.0242 5.73275 41.9317 5.84569 41.829 5.96119C41.4307 6.42578 41.0684 6.95452 40.737 7.52434C40.0844 8.66398 39.5551 9.97816 39.293 11.3745C39.0926 12.3986 39.0618 13.4176 39.2159 14.3494C39.3624 15.2888 39.7452 16.1179 40.2745 16.7878C40.5469 17.1189 40.8578 17.4038 41.1866 17.6605C41.3613 17.7734 41.5258 17.9043 41.7005 17.9993C41.8752 18.0994 42.0525 18.1918 42.2349 18.2714C42.9646 18.5973 43.7174 18.7667 44.4086 18.8309C45.1023 18.8925 45.7395 18.8412 46.2765 18.7C46.5437 18.6307 46.7878 18.5409 47.0036 18.4382C47.2169 18.3304 47.4045 18.2175 47.5638 18.0968C47.8824 17.8581 48.0853 17.6117 48.2087 17.4372C48.2755 17.3525 48.3114 17.278 48.3448 17.2318C48.3782 17.1779 48.3911 17.1548 48.3911 17.1548Z" fill="#DFB68D"/>
<path d="M116.366 17.1548C116.366 17.1548 116.376 17.1805 116.397 17.2344C116.42 17.2857 116.44 17.3679 116.492 17.4628C116.582 17.6605 116.741 17.9531 117.034 18.2637C117.18 18.4202 117.36 18.5768 117.573 18.7308C117.789 18.8797 118.041 19.0209 118.324 19.1415C118.889 19.3853 119.585 19.5445 120.361 19.5727C121.137 19.5984 121.995 19.5137 122.884 19.2211C123.108 19.1492 123.329 19.0619 123.552 18.9592C123.781 18.8591 123.986 18.7282 124.21 18.6076C124.637 18.3355 125.055 18.0095 125.43 17.6143C126.17 16.816 126.723 15.7559 126.949 14.6112C127.185 13.4689 127.165 12.26 126.936 11.087C126.633 9.48534 125.998 8.03513 125.199 6.79282C124.796 6.17166 124.349 5.60184 123.853 5.10132C123.727 4.98068 123.601 4.85235 123.475 4.74198C123.349 4.63161 123.226 4.52123 123.103 4.41343C122.982 4.30306 122.848 4.20552 122.725 4.10285C122.599 4.00274 122.476 3.90008 122.347 3.81025C121.844 3.4278 121.33 3.10694 120.834 2.81947C120.328 2.54739 119.842 2.30356 119.367 2.12388C118.424 1.74657 117.566 1.5515 116.867 1.44883C116.194 1.23578 115.335 1.04328 114.326 0.956013C113.316 0.868743 112.157 0.896977 110.914 1.08435C108.419 1.44626 105.634 2.4704 102.905 3.92062C100.893 4.98582 99.0818 6.15883 97.4734 7.25997C95.8649 8.36368 94.4518 9.39808 93.2622 10.2579C92.0726 11.1204 91.1039 11.8057 90.4231 12.2703C90.0839 12.5038 89.8167 12.681 89.6368 12.799C89.457 12.9197 89.3594 12.9813 89.3594 12.9813C89.3594 12.9813 89.4647 12.9376 89.6651 12.8555C89.8655 12.7734 90.161 12.645 90.5361 12.4731C91.2889 12.1291 92.3629 11.5978 93.6579 10.8919C94.9554 10.1861 96.4739 9.30567 98.1465 8.3303C99.8217 7.35494 101.651 6.28203 103.604 5.24763C106.255 3.83847 108.82 2.72193 111.122 2.16238C112.27 1.87747 113.347 1.72603 114.305 1.68496C115.264 1.6439 116.104 1.70294 116.782 1.80561C118.09 2.20859 119.914 3.06332 121.648 4.66241C121.759 4.75738 121.864 4.8626 121.975 4.96784C122.083 5.07308 122.196 5.1732 122.301 5.28613C122.406 5.3965 122.514 5.50687 122.622 5.61981C122.733 5.73275 122.825 5.84569 122.928 5.96119C123.326 6.42578 123.688 6.95452 124.02 7.52434C124.672 8.66398 125.202 9.97816 125.464 11.3745C125.664 12.3986 125.695 13.4176 125.541 14.3494C125.394 15.2888 125.012 16.1179 124.482 16.7878C124.21 17.1189 123.899 17.4038 123.57 17.6605C123.396 17.7734 123.231 17.9043 123.056 17.9993C122.882 18.0994 122.704 18.1918 122.522 18.2714C121.792 18.5973 121.039 18.7667 120.348 18.8309C119.655 18.8925 119.017 18.8412 118.48 18.7C118.213 18.6307 117.969 18.5409 117.753 18.4382C117.54 18.3304 117.352 18.2175 117.193 18.0968C116.875 17.8581 116.672 17.6117 116.548 17.4372C116.481 17.3525 116.445 17.278 116.412 17.2318C116.381 17.1779 116.366 17.1548 116.366 17.1548Z" fill="#DFB68D"/>
<path d="M82.5814 13.5358C82.0264 12.8582 81.5537 12.1189 81.1272 11.3463C80.7135 10.5686 80.3461 9.75495 80.12 8.87455C80.0069 8.43564 79.9273 7.97876 79.9273 7.50134C79.9273 7.02906 80.0018 6.52853 80.2202 6.06138C80.323 5.82524 80.4797 5.6122 80.6544 5.41969C80.8317 5.24258 81.0039 5.08859 81.1914 4.93458C81.582 4.64454 82.047 4.39812 82.5891 4.32882C83.1338 4.26208 83.7145 4.44946 84.123 4.78828C84.5418 5.12195 84.8168 5.56856 84.9863 6.03058C85.1533 6.49516 85.2227 6.98285 85.2073 7.4654C85.179 7.96079 85.0634 8.39457 84.935 8.82835C84.6677 9.68565 84.308 10.489 83.9123 11.2719C83.509 12.0548 83.0799 12.8145 82.5814 13.5358ZM82.5814 13.5358C83.2212 11.9162 83.8687 10.294 84.2669 8.65381C84.3517 8.2457 84.4236 7.82989 84.4288 7.45257C84.4211 7.06756 84.344 6.68511 84.2001 6.33859C84.0588 5.99465 83.8533 5.67637 83.5835 5.4736C83.3163 5.26569 83.0054 5.17585 82.6816 5.21692C82.3579 5.25286 82.0239 5.40942 81.7156 5.63016C81.5691 5.74824 81.4098 5.88428 81.2813 6.01006C81.1631 6.13839 81.0578 6.27442 80.9782 6.43356C80.6364 7.06498 80.6673 7.91715 80.8009 8.72568C80.9499 9.54447 81.212 10.3607 81.5254 11.159C81.8286 11.9675 82.1935 12.7529 82.5814 13.5358Z" fill="#DFB68D"/>
</svg>
