<svg width="1920" height="100" viewBox="0 0 1920 100" fill="none" xmlns="http://www.w3.org/2000/svg">
<g opacity="0.04">
<path d="M612.783 -211.98L16 384.803L16.9294 385.733L613.713 -211.05L612.783 -211.98Z" fill="white"/>
<path d="M622.788 -211.943L26.0046 384.841L26.9341 385.77L623.717 -211.013L622.788 -211.943Z" fill="white"/>
<path d="M632.886 -211.999L36.1027 384.784L37.0321 385.714L633.815 -211.069L632.886 -211.999Z" fill="white"/>
<path d="M642.891 -211.961L46.1074 384.822L47.0367 385.751L643.82 -211.032L642.891 -211.961Z" fill="white"/>
<path d="M652.896 -211.925L56.1123 384.859L57.0417 385.788L653.825 -210.995L652.896 -211.925Z" fill="white"/>
<path d="M662.993 -211.98L66.2097 384.803L67.139 385.732L663.922 -211.051L662.993 -211.98Z" fill="white"/>
<path d="M672.998 -211.944L76.2146 384.84L77.144 385.769L673.927 -211.014L672.998 -211.944Z" fill="white"/>
<path d="M683.095 -212L86.3124 384.784L87.2418 385.713L684.025 -211.07L683.095 -212Z" fill="white"/>
<path d="M693.101 -211.962L96.3174 384.821L97.2468 385.75L694.03 -211.033L693.101 -211.962Z" fill="white"/>
<path d="M703.105 -211.925L106.322 384.858L107.252 385.787L704.035 -210.996L703.105 -211.925Z" fill="white"/>
<path d="M713.203 -211.981L116.42 384.802L117.349 385.731L714.132 -211.052L713.203 -211.981Z" fill="white"/>
<path d="M723.208 -211.944L126.424 384.839L127.354 385.768L724.137 -211.015L723.208 -211.944Z" fill="white"/>
<path d="M733.306 -212L136.522 384.783L137.452 385.713L734.235 -211.071L733.306 -212Z" fill="white"/>
<path d="M743.31 -211.963L146.527 384.82L147.457 385.75L744.24 -211.034L743.31 -211.963Z" fill="white"/>
<path d="M753.315 -211.926L156.532 384.857L157.461 385.786L754.244 -210.997L753.315 -211.926Z" fill="white"/>
<path d="M763.413 -211.982L166.63 384.801L167.559 385.73L764.342 -211.053L763.413 -211.982Z" fill="white"/>
<path d="M773.418 -211.945L176.635 384.838L177.564 385.767L774.347 -211.016L773.418 -211.945Z" fill="white"/>
<path d="M783.423 -211.908L186.639 384.875L187.569 385.805L784.352 -210.978L783.423 -211.908Z" fill="white"/>
<path d="M793.52 -211.964L196.737 384.819L197.667 385.749L794.45 -211.034L793.52 -211.964Z" fill="white"/>
<path d="M803.525 -211.927L206.742 384.856L207.671 385.786L804.454 -210.998L803.525 -211.927Z" fill="white"/>
<path d="M813.623 -211.983L216.839 384.8L217.769 385.73L814.552 -211.054L813.623 -211.983Z" fill="white"/>
<path d="M823.627 -211.946L226.844 384.837L227.774 385.766L824.557 -211.017L823.627 -211.946Z" fill="white"/>
<path d="M833.632 -211.909L236.849 384.874L237.779 385.804L834.562 -210.979L833.632 -211.909Z" fill="white"/>
<path d="M843.73 -211.965L246.947 384.818L247.876 385.748L844.659 -211.035L843.73 -211.965Z" fill="white"/>
<path d="M853.735 -211.928L256.952 384.855L257.881 385.785L854.664 -210.998L853.735 -211.928Z" fill="white"/>
<path d="M863.833 -211.984L267.05 384.799L267.979 385.729L864.762 -211.054L863.833 -211.984Z" fill="white"/>
<path d="M873.837 -211.947L277.054 384.836L277.984 385.766L874.767 -211.018L873.837 -211.947Z" fill="white"/>
<path d="M883.842 -211.91L287.059 384.874L287.988 385.803L884.771 -210.98L883.842 -211.91Z" fill="white"/>
<path d="M893.94 -211.966L297.157 384.818L298.086 385.747L894.87 -211.036L893.94 -211.966Z" fill="white"/>
<path d="M903.945 -211.929L307.162 384.854L308.091 385.784L904.874 -210.999L903.945 -211.929Z" fill="white"/>
<path d="M914.042 -211.985L317.259 384.798L318.189 385.728L914.972 -211.055L914.042 -211.985Z" fill="white"/>
<path d="M924.047 -211.947L327.264 384.836L328.194 385.765L924.977 -211.018L924.047 -211.947Z" fill="white"/>
<path d="M934.052 -211.911L337.269 384.873L338.198 385.802L934.981 -210.981L934.052 -211.911Z" fill="white"/>
<path d="M944.15 -211.966L347.367 384.817L348.296 385.746L945.08 -211.037L944.15 -211.966Z" fill="white"/>
<path d="M954.155 -211.93L357.372 384.854L358.301 385.783L955.084 -211L954.155 -211.93Z" fill="white"/>
<path d="M964.252 -211.986L367.469 384.798L368.398 385.727L965.182 -211.056L964.252 -211.986Z" fill="white"/>
<path d="M974.258 -211.948L377.474 384.835L378.404 385.764L975.187 -211.019L974.258 -211.948Z" fill="white"/>
<path d="M984.262 -211.911L387.479 384.872L388.408 385.801L985.191 -210.982L984.262 -211.911Z" fill="white"/>
<path d="M994.36 -211.967L397.577 384.816L398.506 385.745L995.289 -211.038L994.36 -211.967Z" fill="white"/>
<path d="M1004.36 -211.93L407.581 384.853L408.511 385.782L1005.29 -211.001L1004.36 -211.93Z" fill="white"/>
<path d="M1014.46 -211.986L417.679 384.797L418.609 385.726L1015.39 -211.057L1014.46 -211.986Z" fill="white"/>
<path d="M1024.47 -211.949L427.684 384.834L428.613 385.764L1025.4 -211.02L1024.47 -211.949Z" fill="white"/>
<path d="M1034.47 -211.912L437.689 384.871L438.618 385.8L1035.4 -210.983L1034.47 -211.912Z" fill="white"/>
<path d="M1044.57 -211.968L447.786 384.815L448.716 385.744L1045.5 -211.039L1044.57 -211.968Z" fill="white"/>
<path d="M1054.57 -211.931L457.791 384.852L458.721 385.781L1055.5 -211.002L1054.57 -211.931Z" fill="white"/>
<path d="M1064.67 -211.987L467.889 384.796L468.819 385.726L1065.6 -211.057L1064.67 -211.987Z" fill="white"/>
<path d="M1074.68 -211.95L477.894 384.833L478.823 385.763L1075.61 -211.02L1074.68 -211.95Z" fill="white"/>
<path d="M1084.68 -211.913L487.899 384.87L488.828 385.8L1085.61 -210.983L1084.68 -211.913Z" fill="white"/>
<path d="M1094.78 -211.969L497.996 384.814L498.926 385.744L1095.71 -211.04L1094.78 -211.969Z" fill="white"/>
<path d="M1104.78 -211.932L508.001 384.851L508.931 385.781L1105.71 -211.003L1104.78 -211.932Z" fill="white"/>
<path d="M1114.88 -211.988L518.099 384.795L519.028 385.725L1115.81 -211.058L1114.88 -211.988Z" fill="white"/>
<path d="M1124.89 -211.951L528.104 384.832L529.033 385.762L1125.82 -211.022L1124.89 -211.951Z" fill="white"/>
<path d="M1134.89 -211.914L538.108 384.869L539.038 385.799L1135.82 -210.985L1134.89 -211.914Z" fill="white"/>
<path d="M1144.99 -211.97L548.207 384.814L549.136 385.743L1145.92 -211.04L1144.99 -211.97Z" fill="white"/>
<path d="M1154.99 -211.933L558.211 384.851L559.141 385.78L1155.92 -211.003L1154.99 -211.933Z" fill="white"/>
<path d="M1165.09 -211.988L568.309 384.795L569.238 385.724L1166.02 -211.059L1165.09 -211.988Z" fill="white"/>
<path d="M1175.1 -211.952L578.313 384.832L579.243 385.761L1176.03 -211.022L1175.1 -211.952Z" fill="white"/>
<path d="M1185.1 -211.915L588.318 384.868L589.248 385.798L1186.03 -210.985L1185.1 -211.915Z" fill="white"/>
<path d="M1195.2 -211.971L598.416 384.813L599.346 385.742L1196.13 -211.041L1195.2 -211.971Z" fill="white"/>
<path d="M1205.2 -211.934L608.421 384.849L609.35 385.779L1206.13 -211.004L1205.2 -211.934Z" fill="white"/>
<path d="M1215.3 -211.989L618.519 384.794L619.448 385.723L1216.23 -211.06L1215.3 -211.989Z" fill="white"/>
<path d="M1225.31 -211.953L628.523 384.831L629.453 385.76L1226.24 -211.023L1225.31 -211.953Z" fill="white"/>
<path d="M1235.31 -211.915L638.529 384.868L639.458 385.797L1236.24 -210.986L1235.31 -211.915Z" fill="white"/>
<path d="M1245.41 -211.971L648.626 384.812L649.556 385.741L1246.34 -211.042L1245.41 -211.971Z" fill="white"/>
<path d="M1255.41 -211.934L658.631 384.849L659.56 385.779L1256.34 -211.005L1255.41 -211.934Z" fill="white"/>
<path d="M1265.51 -211.99L668.729 384.793L669.658 385.722L1266.44 -211.061L1265.51 -211.99Z" fill="white"/>
<path d="M1275.52 -211.953L678.733 384.83L679.663 385.759L1276.45 -211.024L1275.52 -211.953Z" fill="white"/>
<path d="M1285.52 -211.916L688.738 384.867L689.668 385.796L1286.45 -210.987L1285.52 -211.916Z" fill="white"/>
<path d="M1295.62 -211.972L698.836 384.811L699.765 385.74L1296.55 -211.043L1295.62 -211.972Z" fill="white"/>
<path d="M1305.62 -211.935L708.841 384.848L709.77 385.777L1306.55 -211.006L1305.62 -211.935Z" fill="white"/>
<path d="M1315.72 -211.991L718.939 384.792L719.868 385.721L1316.65 -211.062L1315.72 -211.991Z" fill="white"/>
<path d="M1325.73 -211.954L728.943 384.829L729.873 385.758L1326.66 -211.025L1325.73 -211.954Z" fill="white"/>
<path d="M1335.73 -211.917L738.948 384.866L739.878 385.796L1336.66 -210.987L1335.73 -211.917Z" fill="white"/>
<path d="M1345.83 -211.973L749.046 384.81L749.975 385.74L1346.76 -211.044L1345.83 -211.973Z" fill="white"/>
<path d="M1355.83 -211.936L759.051 384.847L759.98 385.777L1356.76 -211.006L1355.83 -211.936Z" fill="white"/>
<path d="M1365.93 -211.992L769.148 384.791L770.078 385.721L1366.86 -211.062L1365.93 -211.992Z" fill="white"/>
<path d="M1375.94 -211.955L779.153 384.828L780.083 385.758L1376.87 -211.026L1375.94 -211.955Z" fill="white"/>
<path d="M1385.94 -211.918L789.158 384.865L790.087 385.795L1386.87 -210.988L1385.94 -211.918Z" fill="white"/>
<path d="M1396.04 -211.974L799.256 384.809L800.185 385.739L1396.97 -211.045L1396.04 -211.974Z" fill="white"/>
<path d="M1406.04 -211.937L809.26 384.846L810.19 385.776L1406.97 -211.007L1406.04 -211.937Z" fill="white"/>
<path d="M1416.14 -211.993L819.358 384.79L820.288 385.72L1417.07 -211.063L1416.14 -211.993Z" fill="white"/>
<path d="M1426.15 -211.956L829.364 384.828L830.293 385.757L1427.08 -211.026L1426.15 -211.956Z" fill="white"/>
<path d="M1436.15 -211.919L839.368 384.865L840.297 385.794L1437.08 -210.989L1436.15 -211.919Z" fill="white"/>
<path d="M1446.25 -211.974L849.466 384.809L850.395 385.738L1447.18 -211.045L1446.25 -211.974Z" fill="white"/>
<path d="M1456.25 -211.937L859.47 384.846L860.4 385.775L1457.18 -211.008L1456.25 -211.937Z" fill="white"/>
<path d="M1466.35 -211.994L869.568 384.79L870.498 385.719L1467.28 -211.064L1466.35 -211.994Z" fill="white"/>
<path d="M1476.36 -211.957L879.573 384.827L880.503 385.756L1477.29 -211.027L1476.36 -211.957Z" fill="white"/>
<path d="M1486.36 -211.92L889.577 384.864L890.507 385.793L1487.29 -210.99L1486.36 -211.92Z" fill="white"/>
<path d="M1496.46 -211.975L899.676 384.808L900.605 385.737L1497.39 -211.046L1496.46 -211.975Z" fill="white"/>
<path d="M1506.46 -211.939L909.68 384.845L910.61 385.774L1507.39 -211.009L1506.46 -211.939Z" fill="white"/>
<path d="M1516.56 -211.994L919.778 384.789L920.708 385.719L1517.49 -211.065L1516.56 -211.994Z" fill="white"/>
<path d="M1526.57 -211.957L929.783 384.826L930.712 385.755L1527.5 -211.028L1526.57 -211.957Z" fill="white"/>
<path d="M1536.57 -211.92L939.788 384.863L940.717 385.792L1537.5 -210.991L1536.57 -211.92Z" fill="white"/>
<path d="M1546.67 -211.976L949.885 384.807L950.815 385.737L1547.6 -211.047L1546.67 -211.976Z" fill="white"/>
<path d="M1556.67 -211.939L959.89 384.844L960.82 385.773L1557.6 -211.01L1556.67 -211.939Z" fill="white"/>
<path d="M1566.68 -211.902L969.895 384.881L970.824 385.81L1567.61 -210.973L1566.68 -211.902Z" fill="white"/>
<path d="M1576.78 -211.958L979.993 384.825L980.922 385.754L1577.71 -211.029L1576.78 -211.958Z" fill="white"/>
<path d="M1586.78 -211.921L989.998 384.862L990.927 385.791L1587.71 -210.992L1586.78 -211.921Z" fill="white"/>
<path d="M1596.88 -211.977L1000.1 384.806L1001.02 385.735L1597.81 -211.048L1596.88 -211.977Z" fill="white"/>
<path d="M1606.88 -211.94L1010.1 384.843L1011.03 385.772L1607.81 -211.011L1606.88 -211.94Z" fill="white"/>
<path d="M1616.89 -211.903L1020.11 384.88L1021.03 385.81L1617.82 -210.973L1616.89 -211.903Z" fill="white"/>
<path d="M1626.99 -211.959L1030.2 384.824L1031.13 385.754L1627.92 -211.029L1626.99 -211.959Z" fill="white"/>
<path d="M1636.99 -211.922L1040.21 384.861L1041.14 385.791L1637.92 -210.992L1636.99 -211.922Z" fill="white"/>
<path d="M1647.09 -211.978L1050.31 384.805L1051.23 385.735L1648.02 -211.048L1647.09 -211.978Z" fill="white"/>
<path d="M1657.09 -211.941L1060.31 384.842L1061.24 385.772L1658.02 -211.011L1657.09 -211.941Z" fill="white"/>
<path d="M1667.1 -211.904L1070.31 384.879L1071.24 385.809L1668.03 -210.974L1667.1 -211.904Z" fill="white"/>
<path d="M1677.2 -211.96L1080.41 384.823L1081.34 385.753L1678.13 -211.031L1677.2 -211.96Z" fill="white"/>
<path d="M1687.2 -211.923L1090.42 384.86L1091.35 385.79L1688.13 -210.993L1687.2 -211.923Z" fill="white"/>
<path d="M1697.3 -211.979L1100.52 384.804L1101.44 385.734L1698.23 -211.049L1697.3 -211.979Z" fill="white"/>
<path d="M1707.3 -211.941L1110.52 384.842L1111.45 385.771L1708.23 -211.012L1707.3 -211.941Z" fill="white"/>
<path d="M1717.31 -211.904L1120.52 384.879L1121.45 385.808L1718.24 -210.975L1717.31 -211.904Z" fill="white"/>
<path d="M1727.41 -211.96L1130.62 384.823L1131.55 385.752L1728.34 -211.031L1727.41 -211.96Z" fill="white"/>
<path d="M1737.41 -211.923L1140.63 384.86L1141.56 385.789L1738.34 -210.994L1737.41 -211.923Z" fill="white"/>
<path d="M1747.51 -211.979L1150.73 384.804L1151.65 385.733L1748.44 -211.05L1747.51 -211.979Z" fill="white"/>
<path d="M1757.51 -211.942L1160.73 384.841L1161.66 385.77L1758.44 -211.013L1757.51 -211.942Z" fill="white"/>
<path d="M1767.52 -211.906L1170.73 384.878L1171.66 385.807L1768.45 -210.976L1767.52 -211.906Z" fill="white"/>
<path d="M1777.62 -211.962L1180.83 384.822L1181.76 385.751L1778.54 -211.032L1777.62 -211.962Z" fill="white"/>
<path d="M1787.62 -211.925L1190.84 384.858L1191.77 385.788L1788.55 -210.995L1787.62 -211.925Z" fill="white"/>
<path d="M1797.72 -211.981L1200.93 384.803L1201.86 385.732L1798.65 -211.051L1797.72 -211.981Z" fill="white"/>
<path d="M1807.72 -211.943L1210.94 384.84L1211.87 385.77L1808.65 -211.014L1807.72 -211.943Z" fill="white"/>
<path d="M1817.73 -211.906L1220.94 384.877L1221.87 385.807L1818.66 -210.977L1817.73 -211.906Z" fill="white"/>
<path d="M1827.83 -211.962L1231.04 384.821L1231.97 385.751L1828.75 -211.033L1827.83 -211.962Z" fill="white"/>
<path d="M1837.83 -211.925L1241.05 384.858L1241.98 385.787L1838.76 -210.996L1837.83 -211.925Z" fill="white"/>
<path d="M1847.93 -211.981L1251.14 384.802L1252.07 385.731L1848.86 -211.052L1847.93 -211.981Z" fill="white"/>
<path d="M1857.93 -211.944L1261.15 384.839L1262.08 385.768L1858.86 -211.015L1857.93 -211.944Z" fill="white"/>
<path d="M1867.94 -211.907L1271.15 384.876L1272.08 385.805L1868.87 -210.978L1867.94 -211.907Z" fill="white"/>
<path d="M1878.04 -211.963L1281.25 384.82L1282.18 385.749L1878.96 -211.034L1878.04 -211.963Z" fill="white"/>
<path d="M1888.04 -211.926L1291.26 384.857L1292.19 385.786L1888.97 -210.997L1888.04 -211.926Z" fill="white"/>
<path d="M1898.14 -211.982L1301.35 384.802L1302.28 385.731L1899.07 -211.052L1898.14 -211.982Z" fill="white"/>
<path d="M1908.14 -211.945L1311.36 384.839L1312.29 385.768L1909.07 -211.015L1908.14 -211.945Z" fill="white"/>
<path d="M1918.15 -211.908L1321.36 384.876L1322.29 385.805L1919.08 -210.978L1918.15 -211.908Z" fill="white"/>
<path d="M1928.25 -211.964L1331.46 384.82L1332.39 385.749L1929.17 -211.034L1928.25 -211.964Z" fill="white"/>
<path d="M1938.25 -211.927L1341.47 384.856L1342.4 385.786L1939.18 -210.997L1938.25 -211.927Z" fill="white"/>
<path d="M1948.35 -211.983L1351.56 384.8L1352.49 385.73L1949.28 -211.053L1948.35 -211.983Z" fill="white"/>
<path d="M1958.35 -211.946L1361.57 384.837L1362.5 385.767L1959.28 -211.017L1958.35 -211.946Z" fill="white"/>
<path d="M1968.36 -211.909L1371.57 384.874L1372.5 385.804L1969.29 -210.98L1968.36 -211.909Z" fill="white"/>
<path d="M1978.46 -211.965L1381.67 384.818L1382.6 385.748L1979.38 -211.035L1978.46 -211.965Z" fill="white"/>
<path d="M1988.46 -211.928L1391.68 384.855L1392.61 385.785L1989.39 -210.999L1988.46 -211.928Z" fill="white"/>
<path d="M1998.56 -211.983L1401.77 384.8L1402.7 385.729L1999.49 -211.054L1998.56 -211.983Z" fill="white"/>
<path d="M2008.56 -211.946L1411.78 384.837L1412.71 385.766L2009.49 -211.017L2008.56 -211.946Z" fill="white"/>
<path d="M2018.57 -211.909L1421.78 384.874L1422.71 385.803L2019.5 -210.98L2018.57 -211.909Z" fill="white"/>
<path d="M2028.67 -211.965L1431.88 384.818L1432.81 385.747L2029.59 -211.036L2028.67 -211.965Z" fill="white"/>
<path d="M2038.67 -211.928L1441.89 384.855L1442.82 385.784L2039.6 -210.999L2038.67 -211.928Z" fill="white"/>
<path d="M2048.77 -211.984L1451.98 384.799L1452.91 385.728L2049.7 -211.055L2048.77 -211.984Z" fill="white"/>
<path d="M2058.77 -211.947L1461.99 384.836L1462.92 385.765L2059.7 -211.018L2058.77 -211.947Z" fill="white"/>
<path d="M2068.78 -211.911L1471.99 384.873L1472.92 385.802L2069.71 -210.981L2068.78 -211.911Z" fill="white"/>
<path d="M2078.87 -211.967L1482.09 384.817L1483.02 385.746L2079.8 -211.037L2078.87 -211.967Z" fill="white"/>
<path d="M2088.88 -211.929L1492.1 384.854L1493.03 385.784L2089.81 -210.999L2088.88 -211.929Z" fill="white"/>
<path d="M2098.98 -211.985L1502.19 384.798L1503.12 385.728L2099.91 -211.055L2098.98 -211.985Z" fill="white"/>
<path d="M2108.98 -211.948L1512.2 384.835L1513.13 385.765L2109.91 -211.019L2108.98 -211.948Z" fill="white"/>
<path d="M2118.99 -211.911L1522.2 384.872L1523.13 385.802L2119.92 -210.982L2118.99 -211.911Z" fill="white"/>
<path d="M2129.08 -211.967L1532.3 384.816L1533.23 385.746L2130.01 -211.038L2129.08 -211.967Z" fill="white"/>
<path d="M2139.09 -211.93L1542.31 384.853L1543.24 385.782L2140.02 -211.001L2139.09 -211.93Z" fill="white"/>
<path d="M2149.19 -211.986L1552.4 384.797L1553.33 385.727L2150.12 -211.057L2149.19 -211.986Z" fill="white"/>
<path d="M2159.19 -211.949L1562.41 384.834L1563.34 385.763L2160.12 -211.02L2159.19 -211.949Z" fill="white"/>
<path d="M2169.2 -211.912L1572.41 384.871L1573.34 385.8L2170.13 -210.983L2169.2 -211.912Z" fill="white"/>
<path d="M2179.29 -211.968L1582.51 384.815L1583.44 385.744L2180.22 -211.039L2179.29 -211.968Z" fill="white"/>
<path d="M2189.3 -211.931L1592.52 384.853L1593.45 385.782L2190.23 -211.001L2189.3 -211.931Z" fill="white"/>
<path d="M2199.4 -211.987L1602.61 384.797L1603.54 385.726L2200.33 -211.057L2199.4 -211.987Z" fill="white"/>
<path d="M2209.4 -211.95L1612.62 384.834L1613.55 385.763L2210.33 -211.02L2209.4 -211.95Z" fill="white"/>
<path d="M2219.41 -211.913L1622.62 384.87L1623.55 385.8L2220.34 -210.983L2219.41 -211.913Z" fill="white"/>
<path d="M2229.5 -211.969L1632.72 384.815L1633.65 385.744L2230.43 -211.039L2229.5 -211.969Z" fill="white"/>
<path d="M-1017.22 -211.98L-1614 384.803L-1613.07 385.733L-1016.29 -211.05L-1017.22 -211.98Z" fill="white"/>
<path d="M-1007.21 -211.943L-1604 384.841L-1603.07 385.77L-1006.28 -211.013L-1007.21 -211.943Z" fill="white"/>
<path d="M-997.114 -211.999L-1593.9 384.784L-1592.97 385.714L-996.185 -211.069L-997.114 -211.999Z" fill="white"/>
<path d="M-987.109 -211.961L-1583.89 384.822L-1582.96 385.751L-986.18 -211.032L-987.109 -211.961Z" fill="white"/>
<path d="M-977.105 -211.925L-1573.89 384.859L-1572.96 385.788L-976.175 -210.995L-977.105 -211.925Z" fill="white"/>
<path d="M-967.007 -211.98L-1563.79 384.803L-1562.86 385.732L-966.078 -211.051L-967.007 -211.98Z" fill="white"/>
<path d="M-957.002 -211.944L-1553.79 384.84L-1552.86 385.769L-956.073 -211.014L-957.002 -211.944Z" fill="white"/>
<path d="M-946.904 -212L-1543.69 384.784L-1542.76 385.713L-945.975 -211.07L-946.904 -212Z" fill="white"/>
<path d="M-936.899 -211.962L-1533.68 384.821L-1532.75 385.75L-935.97 -211.033L-936.899 -211.962Z" fill="white"/>
<path d="M-926.895 -211.925L-1523.68 384.858L-1522.75 385.787L-925.965 -210.996L-926.895 -211.925Z" fill="white"/>
<path d="M-916.797 -211.981L-1513.58 384.802L-1512.65 385.731L-915.868 -211.052L-916.797 -211.981Z" fill="white"/>
<path d="M-906.792 -211.944L-1503.58 384.839L-1502.65 385.768L-905.863 -211.015L-906.792 -211.944Z" fill="white"/>
<path d="M-896.694 -212L-1493.48 384.783L-1492.55 385.713L-895.765 -211.071L-896.694 -212Z" fill="white"/>
<path d="M-886.69 -211.963L-1483.47 384.82L-1482.54 385.75L-885.76 -211.034L-886.69 -211.963Z" fill="white"/>
<path d="M-876.685 -211.926L-1473.47 384.857L-1472.54 385.786L-875.756 -210.997L-876.685 -211.926Z" fill="white"/>
<path d="M-866.587 -211.982L-1463.37 384.801L-1462.44 385.73L-865.658 -211.053L-866.587 -211.982Z" fill="white"/>
<path d="M-856.582 -211.945L-1453.37 384.838L-1452.44 385.767L-855.653 -211.016L-856.582 -211.945Z" fill="white"/>
<path d="M-846.577 -211.908L-1443.36 384.875L-1442.43 385.805L-845.648 -210.978L-846.577 -211.908Z" fill="white"/>
<path d="M-836.48 -211.964L-1433.26 384.819L-1432.33 385.749L-835.55 -211.034L-836.48 -211.964Z" fill="white"/>
<path d="M-826.475 -211.927L-1423.26 384.856L-1422.33 385.786L-825.546 -210.998L-826.475 -211.927Z" fill="white"/>
<path d="M-816.377 -211.983L-1413.16 384.8L-1412.23 385.73L-815.448 -211.054L-816.377 -211.983Z" fill="white"/>
<path d="M-806.373 -211.946L-1403.16 384.837L-1402.23 385.766L-805.443 -211.017L-806.373 -211.946Z" fill="white"/>
<path d="M-796.368 -211.909L-1393.15 384.874L-1392.22 385.804L-795.438 -210.979L-796.368 -211.909Z" fill="white"/>
<path d="M-786.27 -211.965L-1383.05 384.818L-1382.12 385.748L-785.341 -211.035L-786.27 -211.965Z" fill="white"/>
<path d="M-776.265 -211.928L-1373.05 384.855L-1372.12 385.785L-775.336 -210.998L-776.265 -211.928Z" fill="white"/>
<path d="M-766.167 -211.984L-1362.95 384.799L-1362.02 385.729L-765.238 -211.054L-766.167 -211.984Z" fill="white"/>
<path d="M-756.163 -211.947L-1352.95 384.836L-1352.02 385.766L-755.233 -211.018L-756.163 -211.947Z" fill="white"/>
<path d="M-746.158 -211.91L-1342.94 384.874L-1342.01 385.803L-745.229 -210.98L-746.158 -211.91Z" fill="white"/>
<path d="M-736.06 -211.966L-1332.84 384.818L-1331.91 385.747L-735.13 -211.036L-736.06 -211.966Z" fill="white"/>
<path d="M-726.055 -211.929L-1322.84 384.854L-1321.91 385.784L-725.126 -210.999L-726.055 -211.929Z" fill="white"/>
<path d="M-715.957 -211.985L-1312.74 384.798L-1311.81 385.728L-715.028 -211.055L-715.957 -211.985Z" fill="white"/>
<path d="M-705.953 -211.947L-1302.74 384.836L-1301.81 385.765L-705.023 -211.018L-705.953 -211.947Z" fill="white"/>
<path d="M-695.948 -211.911L-1292.73 384.873L-1291.8 385.802L-695.018 -210.981L-695.948 -211.911Z" fill="white"/>
<path d="M-685.85 -211.966L-1282.63 384.817L-1281.7 385.746L-684.92 -211.037L-685.85 -211.966Z" fill="white"/>
<path d="M-675.845 -211.93L-1272.63 384.854L-1271.7 385.783L-674.916 -211L-675.845 -211.93Z" fill="white"/>
<path d="M-665.748 -211.986L-1262.53 384.798L-1261.6 385.727L-664.818 -211.056L-665.748 -211.986Z" fill="white"/>
<path d="M-655.742 -211.948L-1252.53 384.835L-1251.6 385.764L-654.813 -211.019L-655.742 -211.948Z" fill="white"/>
<path d="M-645.738 -211.911L-1242.52 384.872L-1241.59 385.801L-644.809 -210.982L-645.738 -211.911Z" fill="white"/>
<path d="M-635.64 -211.967L-1232.42 384.816L-1231.49 385.745L-634.711 -211.038L-635.64 -211.967Z" fill="white"/>
<path d="M-625.635 -211.93L-1222.42 384.853L-1221.49 385.782L-624.706 -211.001L-625.635 -211.93Z" fill="white"/>
<path d="M-615.538 -211.986L-1212.32 384.797L-1211.39 385.726L-614.608 -211.057L-615.538 -211.986Z" fill="white"/>
<path d="M-605.533 -211.949L-1202.32 384.834L-1201.39 385.764L-604.603 -211.02L-605.533 -211.949Z" fill="white"/>
<path d="M-595.528 -211.912L-1192.31 384.871L-1191.38 385.8L-594.599 -210.983L-595.528 -211.912Z" fill="white"/>
<path d="M-585.43 -211.968L-1182.21 384.815L-1181.28 385.744L-584.501 -211.039L-585.43 -211.968Z" fill="white"/>
<path d="M-575.425 -211.931L-1172.21 384.852L-1171.28 385.781L-574.496 -211.002L-575.425 -211.931Z" fill="white"/>
<path d="M-565.328 -211.987L-1162.11 384.796L-1161.18 385.726L-564.398 -211.057L-565.328 -211.987Z" fill="white"/>
<path d="M-555.323 -211.95L-1152.11 384.833L-1151.18 385.763L-554.394 -211.02L-555.323 -211.95Z" fill="white"/>
<path d="M-545.318 -211.913L-1142.1 384.87L-1141.17 385.8L-544.389 -210.983L-545.318 -211.913Z" fill="white"/>
<path d="M-535.221 -211.969L-1132 384.814L-1131.07 385.744L-534.291 -211.04L-535.221 -211.969Z" fill="white"/>
<path d="M-525.216 -211.932L-1122 384.851L-1121.07 385.781L-524.286 -211.003L-525.216 -211.932Z" fill="white"/>
<path d="M-515.118 -211.988L-1111.9 384.795L-1110.97 385.725L-514.189 -211.058L-515.118 -211.988Z" fill="white"/>
<path d="M-505.113 -211.951L-1101.9 384.832L-1100.97 385.762L-504.184 -211.022L-505.113 -211.951Z" fill="white"/>
<path d="M-495.108 -211.914L-1091.89 384.869L-1090.96 385.799L-494.179 -210.985L-495.108 -211.914Z" fill="white"/>
<path d="M-485.01 -211.97L-1081.79 384.814L-1080.86 385.743L-484.081 -211.04L-485.01 -211.97Z" fill="white"/>
<path d="M-475.006 -211.933L-1071.79 384.851L-1070.86 385.78L-474.076 -211.003L-475.006 -211.933Z" fill="white"/>
<path d="M-464.908 -211.988L-1061.69 384.795L-1060.76 385.724L-463.979 -211.059L-464.908 -211.988Z" fill="white"/>
<path d="M-454.903 -211.952L-1051.69 384.832L-1050.76 385.761L-453.974 -211.022L-454.903 -211.952Z" fill="white"/>
<path d="M-444.898 -211.915L-1041.68 384.868L-1040.75 385.798L-443.969 -210.985L-444.898 -211.915Z" fill="white"/>
<path d="M-434.801 -211.971L-1031.58 384.813L-1030.65 385.742L-433.871 -211.041L-434.801 -211.971Z" fill="white"/>
<path d="M-424.796 -211.934L-1021.58 384.849L-1020.65 385.779L-423.867 -211.004L-424.796 -211.934Z" fill="white"/>
<path d="M-414.698 -211.989L-1011.48 384.794L-1010.55 385.723L-413.768 -211.06L-414.698 -211.989Z" fill="white"/>
<path d="M-404.694 -211.953L-1001.48 384.831L-1000.55 385.76L-403.764 -211.023L-404.694 -211.953Z" fill="white"/>
<path d="M-394.688 -211.915L-991.471 384.868L-990.542 385.797L-393.759 -210.986L-394.688 -211.915Z" fill="white"/>
<path d="M-384.59 -211.971L-981.374 384.812L-980.444 385.741L-383.661 -211.042L-384.59 -211.971Z" fill="white"/>
<path d="M-374.586 -211.934L-971.369 384.849L-970.44 385.779L-373.656 -211.005L-374.586 -211.934Z" fill="white"/>
<path d="M-364.488 -211.99L-961.271 384.793L-960.342 385.722L-363.559 -211.061L-364.488 -211.99Z" fill="white"/>
<path d="M-354.484 -211.953L-951.267 384.83L-950.337 385.759L-353.554 -211.024L-354.484 -211.953Z" fill="white"/>
<path d="M-344.479 -211.916L-941.262 384.867L-940.332 385.796L-343.549 -210.987L-344.479 -211.916Z" fill="white"/>
<path d="M-334.381 -211.972L-931.164 384.811L-930.235 385.74L-333.451 -211.043L-334.381 -211.972Z" fill="white"/>
<path d="M-324.376 -211.935L-921.159 384.848L-920.23 385.777L-323.447 -211.006L-324.376 -211.935Z" fill="white"/>
<path d="M-314.278 -211.991L-911.061 384.792L-910.132 385.721L-313.349 -211.062L-314.278 -211.991Z" fill="white"/>
<path d="M-304.273 -211.954L-901.057 384.829L-900.127 385.758L-303.344 -211.025L-304.273 -211.954Z" fill="white"/>
<path d="M-294.268 -211.917L-891.052 384.866L-890.122 385.796L-293.339 -210.987L-294.268 -211.917Z" fill="white"/>
<path d="M-284.171 -211.973L-880.954 384.81L-880.025 385.74L-283.241 -211.044L-284.171 -211.973Z" fill="white"/>
<path d="M-274.166 -211.936L-870.949 384.847L-870.02 385.777L-273.237 -211.006L-274.166 -211.936Z" fill="white"/>
<path d="M-264.068 -211.992L-860.851 384.791L-859.922 385.721L-263.139 -211.062L-264.068 -211.992Z" fill="white"/>
<path d="M-254.064 -211.955L-850.847 384.828L-849.918 385.758L-253.134 -211.026L-254.064 -211.955Z" fill="white"/>
<path d="M-244.059 -211.918L-840.842 384.865L-839.912 385.795L-243.129 -210.988L-244.059 -211.918Z" fill="white"/>
<path d="M-233.961 -211.974L-830.744 384.809L-829.815 385.739L-233.032 -211.045L-233.961 -211.974Z" fill="white"/>
<path d="M-223.956 -211.937L-820.74 384.846L-819.81 385.776L-223.027 -211.007L-223.956 -211.937Z" fill="white"/>
<path d="M-213.859 -211.993L-810.642 384.79L-809.712 385.72L-212.929 -211.063L-213.859 -211.993Z" fill="white"/>
<path d="M-203.853 -211.956L-800.636 384.828L-799.707 385.757L-202.924 -211.026L-203.853 -211.956Z" fill="white"/>
<path d="M-193.849 -211.919L-790.632 384.865L-789.703 385.794L-192.92 -210.989L-193.849 -211.919Z" fill="white"/>
<path d="M-183.751 -211.974L-780.534 384.809L-779.605 385.738L-182.822 -211.045L-183.751 -211.974Z" fill="white"/>
<path d="M-173.746 -211.937L-770.53 384.846L-769.6 385.775L-172.817 -211.008L-173.746 -211.937Z" fill="white"/>
<path d="M-163.649 -211.994L-760.432 384.79L-759.502 385.719L-162.719 -211.064L-163.649 -211.994Z" fill="white"/>
<path d="M-153.644 -211.957L-750.427 384.827L-749.497 385.756L-152.714 -211.027L-153.644 -211.957Z" fill="white"/>
<path d="M-143.639 -211.92L-740.423 384.864L-739.493 385.793L-142.71 -210.99L-143.639 -211.92Z" fill="white"/>
<path d="M-133.541 -211.975L-730.324 384.808L-729.395 385.737L-132.612 -211.046L-133.541 -211.975Z" fill="white"/>
<path d="M-123.537 -211.939L-720.32 384.845L-719.39 385.774L-122.607 -211.009L-123.537 -211.939Z" fill="white"/>
<path d="M-113.438 -211.994L-710.222 384.789L-709.292 385.719L-112.509 -211.065L-113.438 -211.994Z" fill="white"/>
<path d="M-103.434 -211.957L-700.217 384.826L-699.287 385.755L-102.504 -211.028L-103.434 -211.957Z" fill="white"/>
<path d="M-93.429 -211.92L-690.212 384.863L-689.283 385.792L-92.4995 -210.991L-93.429 -211.92Z" fill="white"/>
<path d="M-83.3314 -211.976L-680.115 384.807L-679.185 385.737L-82.402 -211.047L-83.3314 -211.976Z" fill="white"/>
<path d="M-73.3263 -211.939L-670.109 384.844L-669.18 385.773L-72.3969 -211.01L-73.3263 -211.939Z" fill="white"/>
<path d="M-63.3219 -211.902L-660.105 384.881L-659.176 385.81L-62.3925 -210.973L-63.3219 -211.902Z" fill="white"/>
<path d="M-53.224 -211.958L-650.007 384.825L-649.078 385.754L-52.2946 -211.029L-53.224 -211.958Z" fill="white"/>
<path d="M-43.2192 -211.921L-640.002 384.862L-639.073 385.791L-42.2898 -210.992L-43.2192 -211.921Z" fill="white"/>
<path d="M-33.1215 -211.977L-629.905 384.806L-628.975 385.735L-32.192 -211.048L-33.1215 -211.977Z" fill="white"/>
<path d="M-23.1166 -211.94L-619.9 384.843L-618.97 385.772L-22.1871 -211.011L-23.1166 -211.94Z" fill="white"/>
<path d="M-13.1115 -211.903L-609.895 384.88L-608.965 385.81L-12.182 -210.973L-13.1115 -211.903Z" fill="white"/>
<path d="M-3.01404 -211.959L-599.797 384.824L-598.868 385.754L-2.08459 -211.029L-3.01404 -211.959Z" fill="white"/>
<path d="M6.99072 -211.922L-589.792 384.861L-588.863 385.791L7.92017 -210.992L6.99072 -211.922Z" fill="white"/>
<path d="M17.0886 -211.978L-579.695 384.805L-578.765 385.735L18.0181 -211.048L17.0886 -211.978Z" fill="white"/>
<path d="M27.093 -211.941L-569.69 384.842L-568.761 385.772L28.0225 -211.011L27.093 -211.941Z" fill="white"/>
<path d="M37.0981 -211.904L-559.685 384.879L-558.756 385.809L38.0276 -210.974L37.0981 -211.904Z" fill="white"/>
<path d="M47.1957 -211.96L-549.588 384.823L-548.658 385.753L48.1251 -211.031L47.1957 -211.96Z" fill="white"/>
<path d="M57.2008 -211.923L-539.582 384.86L-538.653 385.79L58.1302 -210.993L57.2008 -211.923Z" fill="white"/>
<path d="M67.2983 -211.979L-529.485 384.804L-528.555 385.734L68.2277 -211.049L67.2983 -211.979Z" fill="white"/>
<path d="M77.3033 -211.941L-519.48 384.842L-518.55 385.771L78.2328 -211.012L77.3033 -211.941Z" fill="white"/>
<path d="M87.3082 -211.904L-509.475 384.879L-508.546 385.808L88.2377 -210.975L87.3082 -211.904Z" fill="white"/>
<path d="M97.406 -211.96L-499.377 384.823L-498.448 385.752L98.3354 -211.031L97.406 -211.96Z" fill="white"/>
<path d="M107.411 -211.923L-489.373 384.86L-488.443 385.789L108.34 -210.994L107.411 -211.923Z" fill="white"/>
<path d="M117.508 -211.979L-479.275 384.804L-478.345 385.733L118.438 -211.05L117.508 -211.979Z" fill="white"/>
<path d="M127.513 -211.942L-469.27 384.841L-468.341 385.77L128.443 -211.013L127.513 -211.942Z" fill="white"/>
<path d="M137.518 -211.906L-459.265 384.878L-458.336 385.807L138.447 -210.976L137.518 -211.906Z" fill="white"/>
<path d="M147.616 -211.962L-449.168 384.822L-448.238 385.751L148.545 -211.032L147.616 -211.962Z" fill="white"/>
<path d="M157.62 -211.925L-439.163 384.858L-438.233 385.788L158.55 -210.995L157.62 -211.925Z" fill="white"/>
<path d="M167.718 -211.981L-429.065 384.803L-428.136 385.732L168.647 -211.051L167.718 -211.981Z" fill="white"/>
<path d="M177.723 -211.943L-419.06 384.84L-418.131 385.77L178.652 -211.014L177.723 -211.943Z" fill="white"/>
<path d="M187.728 -211.906L-409.055 384.877L-408.126 385.807L188.657 -210.977L187.728 -211.906Z" fill="white"/>
<path d="M197.826 -211.962L-398.958 384.821L-398.028 385.751L198.755 -211.033L197.826 -211.962Z" fill="white"/>
<path d="M207.83 -211.925L-388.953 384.858L-388.023 385.787L208.76 -210.996L207.83 -211.925Z" fill="white"/>
<path d="M217.928 -211.981L-378.855 384.802L-377.926 385.731L218.857 -211.052L217.928 -211.981Z" fill="white"/>
<path d="M227.933 -211.944L-368.85 384.839L-367.921 385.768L228.862 -211.015L227.933 -211.944Z" fill="white"/>
<path d="M237.938 -211.907L-358.846 384.876L-357.916 385.805L238.867 -210.978L237.938 -211.907Z" fill="white"/>
<path d="M248.035 -211.963L-348.748 384.82L-347.818 385.749L248.965 -211.034L248.035 -211.963Z" fill="white"/>
<path d="M258.04 -211.926L-338.743 384.857L-337.814 385.786L258.969 -210.997L258.04 -211.926Z" fill="white"/>
<path d="M268.138 -211.982L-328.645 384.802L-327.716 385.731L269.068 -211.052L268.138 -211.982Z" fill="white"/>
<path d="M278.143 -211.945L-318.64 384.839L-317.711 385.768L279.072 -211.015L278.143 -211.945Z" fill="white"/>
<path d="M288.148 -211.908L-308.635 384.876L-307.706 385.805L289.077 -210.978L288.148 -211.908Z" fill="white"/>
<path d="M298.245 -211.964L-298.538 384.82L-297.608 385.749L299.175 -211.034L298.245 -211.964Z" fill="white"/>
<path d="M308.25 -211.927L-288.533 384.856L-287.604 385.786L309.18 -210.997L308.25 -211.927Z" fill="white"/>
<path d="M318.348 -211.983L-278.435 384.8L-277.506 385.73L319.277 -211.053L318.348 -211.983Z" fill="white"/>
<path d="M328.353 -211.946L-268.431 384.837L-267.501 385.767L329.282 -211.017L328.353 -211.946Z" fill="white"/>
<path d="M338.357 -211.909L-258.426 384.874L-257.496 385.804L339.287 -210.98L338.357 -211.909Z" fill="white"/>
<path d="M348.455 -211.965L-248.328 384.818L-247.399 385.748L349.385 -211.035L348.455 -211.965Z" fill="white"/>
<path d="M358.46 -211.928L-238.323 384.855L-237.394 385.785L359.389 -210.999L358.46 -211.928Z" fill="white"/>
<path d="M368.558 -211.983L-228.225 384.8L-227.296 385.729L369.487 -211.054L368.558 -211.983Z" fill="white"/>
<path d="M378.563 -211.946L-218.22 384.837L-217.291 385.766L379.492 -211.017L378.563 -211.946Z" fill="white"/>
<path d="M388.568 -211.909L-208.216 384.874L-207.286 385.803L389.497 -210.98L388.568 -211.909Z" fill="white"/>
<path d="M398.665 -211.965L-198.118 384.818L-197.189 385.747L399.595 -211.036L398.665 -211.965Z" fill="white"/>
<path d="M408.67 -211.928L-188.113 384.855L-187.184 385.784L409.599 -210.999L408.67 -211.928Z" fill="white"/>
<path d="M418.768 -211.984L-178.016 384.799L-177.086 385.728L419.697 -211.055L418.768 -211.984Z" fill="white"/>
<path d="M428.772 -211.947L-168.011 384.836L-167.081 385.765L429.702 -211.018L428.772 -211.947Z" fill="white"/>
<path d="M438.777 -211.911L-158.006 384.873L-157.077 385.802L439.707 -210.981L438.777 -211.911Z" fill="white"/>
<path d="M448.875 -211.967L-147.908 384.817L-146.979 385.746L449.804 -211.037L448.875 -211.967Z" fill="white"/>
<path d="M458.88 -211.929L-137.903 384.854L-136.974 385.784L459.81 -210.999L458.88 -211.929Z" fill="white"/>
<path d="M468.978 -211.985L-127.805 384.798L-126.876 385.728L469.907 -211.055L468.978 -211.985Z" fill="white"/>
<path d="M478.983 -211.948L-117.801 384.835L-116.871 385.765L479.912 -211.019L478.983 -211.948Z" fill="white"/>
<path d="M488.987 -211.911L-107.796 384.872L-106.866 385.802L489.917 -210.982L488.987 -211.911Z" fill="white"/>
<path d="M499.085 -211.967L-97.6982 384.816L-96.7688 385.746L500.014 -211.038L499.085 -211.967Z" fill="white"/>
<path d="M509.09 -211.93L-87.6934 384.853L-86.764 385.782L510.019 -211.001L509.09 -211.93Z" fill="white"/>
<path d="M519.188 -211.986L-77.5957 384.797L-76.6663 385.727L520.117 -211.057L519.188 -211.986Z" fill="white"/>
<path d="M529.192 -211.949L-67.5909 384.834L-66.6615 385.763L530.122 -211.02L529.192 -211.949Z" fill="white"/>
<path d="M539.197 -211.912L-57.5863 384.871L-56.6569 385.8L540.126 -210.983L539.197 -211.912Z" fill="white"/>
<path d="M549.295 -211.968L-47.4885 384.815L-46.5591 385.744L550.224 -211.039L549.295 -211.968Z" fill="white"/>
<path d="M559.3 -211.931L-37.4834 384.853L-36.554 385.782L560.229 -211.001L559.3 -211.931Z" fill="white"/>
<path d="M569.397 -211.987L-27.3857 384.797L-26.4563 385.726L570.327 -211.057L569.397 -211.987Z" fill="white"/>
<path d="M579.402 -211.95L-17.381 384.834L-16.4515 385.763L580.332 -211.02L579.402 -211.95Z" fill="white"/>
<path d="M589.407 -211.913L-7.37622 384.87L-6.44678 385.8L590.336 -210.983L589.407 -211.913Z" fill="white"/>
<path d="M599.505 -211.969L2.72156 384.815L3.65088 385.744L600.434 -211.039L599.505 -211.969Z" fill="white"/>
</g>
</svg>
