<svg width="784" height="105" viewBox="0 0 784 105" fill="none" xmlns="http://www.w3.org/2000/svg">
<path d="M407.229 29.1829C407.882 27.5869 409.002 26.1303 410.465 25.1232C411.927 24.1315 413.7 23.5582 415.505 23.5272C417.309 23.4807 419.16 24.0695 420.622 24.9218C422.131 25.774 423.485 26.9516 424.496 28.3771C426.565 31.1972 427.389 34.947 426.596 38.4178C426.191 40.1842 425.476 41.7492 424.558 43.1748C423.64 44.6003 422.536 45.9483 421.198 47.033C418.553 49.2333 415.24 50.5814 411.802 50.9377C410.076 51.0772 408.334 50.9842 406.638 50.6433C404.958 50.2715 403.293 49.6361 401.847 48.8769C398.891 47.3584 396.247 45.2046 394.209 42.555C392.187 39.9053 390.756 36.8218 390.025 33.5834C389.294 30.345 389.262 26.9361 389.947 23.6822C390.149 22.8764 390.367 22.0707 390.6 21.2804C390.896 20.5057 391.176 19.7154 391.502 18.9717C392.156 17.5462 392.871 16.1206 393.696 14.7571C395.345 12.0145 397.445 9.42683 400.042 7.3815C402.64 5.33617 405.658 3.89513 408.598 2.87247C411.507 1.8498 414.587 1.05956 417.682 0.54823C420.809 0.129867 423.982 -0.0870569 427.125 0.238336C433.456 0.703184 439.46 2.88797 444.92 5.66156C455.809 11.4412 464.8 19.4675 474.211 26.6262C478.909 30.221 483.685 33.6764 488.74 36.6204C493.78 39.5799 499.131 41.9972 504.7 43.6396C510.254 45.2821 516.087 46.0258 521.936 46.1188C527.753 46.1808 533.602 45.499 538.953 43.4847C544.289 41.4548 549.049 37.984 552.331 33.3355C555.582 28.7335 557.573 23.0159 557.947 17.4687V17.3602C557.993 16.663 558.6 16.1361 559.3 16.1826C560 16.2291 560.513 16.8179 560.482 17.4997C560.327 20.7071 559.673 23.6667 558.678 26.6107C557.698 29.5392 556.282 32.3128 554.525 34.8695C550.978 39.9983 545.736 43.8875 539.965 46.1033C534.162 48.3501 527.971 49.0783 521.889 49.0783C515.822 49.0318 509.709 48.3036 503.829 46.6146C491.991 43.2987 481.662 36.4964 472.065 29.4308C462.451 22.3496 453.336 14.5866 443.022 9.34936C437.858 6.83918 432.382 4.97978 426.782 4.66988C423.982 4.42197 421.182 4.6544 418.414 5.07277C415.645 5.5841 412.938 6.31234 410.231 7.30402C407.571 8.2802 405.16 9.51979 403.107 11.1777C401.054 12.8357 399.327 14.912 397.927 17.2827C397.211 18.4604 396.605 19.7 396.014 20.9705C395.749 21.5903 395.547 22.1946 395.298 22.8144L394.785 24.7048C394.256 27.2615 394.287 29.9266 394.878 32.4833C396.029 37.5811 399.451 42.1366 404.118 44.5848C405.3 45.2356 406.436 45.6849 407.649 45.9793C408.878 46.2428 410.122 46.3357 411.382 46.2582C413.887 46.0413 416.329 45.1116 418.289 43.5157C419.3 42.7564 420.156 41.8112 420.887 40.7731C421.634 39.7349 422.209 38.5728 422.505 37.4571C423.142 35.1639 422.707 32.5607 421.353 30.5309C420.031 28.5476 417.76 26.8431 415.442 26.7501C413.078 26.6107 410.651 27.9742 409.531 30.2055L409.516 30.221C409.205 30.8408 408.442 31.1042 407.805 30.7943C407.245 30.4844 406.98 29.7872 407.229 29.1829Z" fill="white"/>
<path d="M374.329 30.2055C373.209 27.9742 370.767 26.6106 368.418 26.7501C366.116 26.8431 363.844 28.5475 362.507 30.5309C361.153 32.5607 360.718 35.1638 361.356 37.4571C361.651 38.5727 362.227 39.7348 362.973 40.773C363.704 41.7957 364.56 42.7564 365.571 43.5156C367.531 45.0961 369.989 46.0413 372.478 46.2582C373.738 46.3357 374.982 46.2427 376.211 45.9793C377.425 45.6849 378.576 45.2356 379.742 44.5848C384.393 42.1211 387.816 37.581 388.967 32.4832C389.558 29.942 389.589 27.2769 389.06 24.7048L388.547 22.8144C388.298 22.1946 388.096 21.5903 387.831 20.9705C387.256 19.6999 386.633 18.4448 385.918 17.2827C384.518 14.9275 382.791 12.8357 380.738 11.1777C378.684 9.50425 376.273 8.28015 373.613 7.30397C370.922 6.31229 368.216 5.58405 365.431 5.07272C362.662 4.66985 359.847 4.42192 357.062 4.66984C351.447 4.97974 345.987 6.83913 340.822 9.34931C330.493 14.5866 321.393 22.3495 311.764 29.4307C302.167 36.4964 291.838 43.2987 280 46.6146C274.105 48.3035 268.007 49.0318 261.94 49.0783C255.858 49.0938 249.667 48.35 243.865 46.1033C238.093 43.872 232.851 39.9828 229.305 34.8694C227.547 32.3128 226.116 29.5237 225.151 26.6107C224.156 23.6666 223.502 20.7071 223.347 17.4996C223.316 16.8024 223.86 16.2135 224.56 16.1671C225.26 16.1361 225.836 16.6629 225.882 17.3447V17.4531C226.256 23.0158 228.247 28.718 231.498 33.32C234.78 37.9684 239.524 41.4393 244.876 43.4691C250.242 45.499 256.091 46.1652 261.893 46.1033C267.727 46.0103 273.576 45.2665 279.129 43.6241C284.698 41.9816 290.049 39.5799 295.089 36.6049C300.144 33.6608 304.92 30.19 309.618 26.6107C319.029 19.452 328.02 11.4256 338.909 5.64603C344.369 2.87243 350.373 0.672156 356.704 0.222803C359.847 -0.10259 363.036 0.114334 366.147 0.532697C369.242 1.04403 372.322 1.83427 375.231 2.85693C378.171 3.8796 381.173 5.32063 383.787 7.36596C386.4 9.41129 388.5 12.0144 390.133 14.7415C390.973 16.1051 391.673 17.5306 392.327 18.9562C392.653 19.6999 392.933 20.4902 393.229 21.2649C393.462 22.0551 393.68 22.8609 393.882 23.6666C394.582 26.9206 394.551 30.3294 393.804 33.5679C393.073 36.8063 391.642 39.8898 389.62 42.5394C387.598 45.1891 384.938 47.3428 381.982 48.8613C380.536 49.6206 378.887 50.2559 377.191 50.6278C375.496 50.9687 373.753 51.0616 372.027 50.9222C368.589 50.5813 365.276 49.2332 362.631 47.0175C361.293 45.9328 360.189 44.5847 359.271 43.1592C358.353 41.7337 357.638 40.1687 357.233 38.4023C356.44 34.9159 357.264 31.1817 359.333 28.3616C360.36 26.9361 361.698 25.7429 363.207 24.9062C364.669 24.054 366.52 23.4652 368.324 23.5117C370.129 23.5427 371.902 24.116 373.38 25.1076C374.842 26.1148 375.962 27.5558 376.616 29.1673C376.88 29.8181 376.569 30.5618 375.916 30.8098C375.293 31.0577 374.593 30.7943 374.298 30.2055H374.329Z" fill="white"/>
<path d="M782.336 19.1576H559.378C558.46 19.1576 557.713 18.4138 557.713 17.4996C557.713 16.5854 558.46 15.8417 559.378 15.8417H782.336C783.253 15.8417 784 16.5854 784 17.4996C784 18.4138 783.253 19.1576 782.336 19.1576Z" fill="white"/>
<path d="M224.622 19.1576H1.66444C0.746667 19.1576 0 18.4138 0 17.4996C0 16.5854 0.746667 15.8417 1.66444 15.8417H224.622C225.54 15.8417 226.287 16.5854 226.287 17.4996C226.287 18.4138 225.54 19.1576 224.622 19.1576Z" fill="white"/>
<path d="M377.004 30.9802C377.004 33.7228 374.764 35.9541 372.011 35.9541C369.258 35.9541 367.018 33.7228 367.018 30.9802C367.018 28.2376 369.258 26.0063 372.011 26.0063C374.78 26.0063 377.004 28.2376 377.004 30.9802Z" fill="white"/>
<path d="M416.811 30.9802C416.811 33.7228 414.571 35.9541 411.818 35.9541C409.064 35.9541 406.824 33.7228 406.824 30.9802C406.824 28.2376 409.064 26.0063 411.818 26.0063C414.587 26.0063 416.811 28.2376 416.811 30.9802Z" fill="white"/>
<path d="M391.991 58.6298L388.783 51.9085L388.802 51.8836C390.109 50.1486 391.871 45.4244 391.871 45.4244L391.991 45L392.111 45.4244C392.111 45.4244 393.872 50.1486 395.179 51.8836L395.198 51.9085L391.991 58.6298Z" fill="white"/>
<path d="M407.662 90.9818C407.972 91.1191 408.205 91.3749 408.319 91.7931C408.426 92.2049 408.395 92.7666 408.104 93.4032C407.814 94.0335 407.227 94.72 406.374 95.2067C405.528 95.6998 404.442 95.9431 403.375 95.862C402.838 95.8371 402.169 95.6873 401.455 95.4064C400.742 95.1256 400.009 94.6888 399.347 94.1209C398.684 93.5592 398.09 92.8665 397.623 92.1238C397.155 91.3749 396.808 90.5761 396.568 89.7898C396.341 89.0034 396.227 88.2358 396.183 87.5431C396.17 87.1936 396.164 86.8691 396.177 86.5633C396.202 86.2575 396.215 85.9704 396.253 85.7146C396.297 85.4587 396.335 85.2216 396.379 85.0219C396.423 84.8222 396.486 84.6474 396.53 84.5039C396.631 84.223 396.726 84.067 396.802 84.067C396.871 84.067 396.966 84.223 397.08 84.4852C397.2 84.7847 397.345 85.1467 397.509 85.571C397.597 85.7895 397.711 86.0266 397.812 86.2762C397.926 86.5196 398.058 86.7755 398.191 87.0314C398.475 87.5431 398.81 88.0673 399.189 88.5479C399.58 89.0222 400.009 89.459 400.458 89.8085C400.906 90.158 401.373 90.4263 401.803 90.6073C402.232 90.7945 402.63 90.8944 402.952 90.9381C403.034 90.9568 403.11 90.9568 403.179 90.9693C403.249 90.9818 403.318 90.988 403.381 90.988C403.444 90.988 403.501 90.9942 403.558 91.0005C403.608 91.0005 403.659 91.0005 403.703 91.0067C404.057 91.0317 404.347 91.0504 404.631 91.0629C404.916 91.0754 405.231 91.0816 405.572 91.0379C406.26 90.9693 407.031 90.7072 407.662 90.9818Z" fill="white"/>
<path d="M396.991 96.6234C395.084 92.3423 394.567 86.3324 394.51 85.5399C394.503 85.4899 394.478 85.4525 394.44 85.4525L392.578 83.3681C392.331 83.0935 391.896 83.0935 391.649 83.3681L389.787 85.4525C389.749 85.4525 389.724 85.4899 389.717 85.5399C389.654 86.3324 389.225 91.8804 387.236 96.6234C387.223 96.6608 391.075 103.469 391.94 104.892C392.028 105.036 392.199 105.036 392.287 104.892C393.152 103.469 397.01 96.6608 396.991 96.6234Z" fill="white"/>
<path d="M376.319 90.9818C376.009 91.1191 375.776 91.3749 375.662 91.7931C375.555 92.2049 375.586 92.7666 375.877 93.4032C376.167 94.0335 376.754 94.72 377.607 95.2067C378.453 95.6998 379.539 95.9431 380.606 95.862C381.143 95.8371 381.812 95.6873 382.526 95.4064C383.239 95.1256 383.971 94.6888 384.634 94.1209C385.297 93.5592 385.891 92.8665 386.358 92.1238C386.825 91.3749 387.173 90.5761 387.413 89.7898C387.64 89.0034 387.754 88.2358 387.798 87.5431C387.81 87.1936 387.817 86.8691 387.804 86.5633C387.779 86.2575 387.766 85.9704 387.728 85.7146C387.684 85.4587 387.646 85.2216 387.602 85.0219C387.558 84.8222 387.495 84.6474 387.45 84.5039C387.349 84.223 387.255 84.067 387.179 84.067C387.11 84.067 387.015 84.223 386.901 84.4852C386.781 84.7847 386.636 85.1467 386.472 85.571C386.383 85.7895 386.27 86.0266 386.169 86.2762C386.055 86.5196 385.922 86.7755 385.79 87.0314C385.506 87.5431 385.171 88.0673 384.792 88.5479C384.401 89.0222 383.971 89.459 383.523 89.8085C383.075 90.158 382.608 90.4263 382.178 90.6073C381.749 90.7945 381.351 90.8944 381.029 90.9381C380.947 90.9568 380.871 90.9568 380.802 90.9693C380.732 90.9818 380.663 90.988 380.6 90.988C380.537 90.988 380.48 90.9942 380.423 91.0005C380.372 91.0005 380.322 91.0005 380.278 91.0067C379.924 91.0317 379.634 91.0504 379.349 91.0629C379.065 91.0754 378.75 91.0816 378.409 91.0379C377.72 90.9693 376.95 90.7072 376.319 90.9818Z" fill="white"/>
<path d="M392.11 82.6067L389.73 80.3725C390.159 79.8046 392.11 76.5282 392.11 76.5282C392.11 76.5282 393.967 79.8046 394.396 80.3725L392.11 82.6067Z" fill="white"/>
<path d="M382.096 85.2278C382.26 85.1841 382.418 85.1405 382.576 85.0968C383.233 84.9096 383.833 84.7411 384.357 84.5975C384.881 84.454 385.335 84.3292 385.708 84.2293C386.169 84.1232 386.504 84.0421 386.693 83.9984C386.699 84.0046 386.699 84.0109 386.699 84.0171C386.516 84.0858 386.194 84.2044 385.752 84.3729C385.531 84.4602 385.272 84.5663 384.988 84.6786C384.95 84.7099 384.906 84.7411 384.849 84.7847C384.805 84.8222 384.748 84.8659 384.691 84.9096C384.755 84.8971 384.824 84.8846 384.887 84.8659C385.575 84.6911 386.2 84.4353 386.737 84.0983C386.743 84.117 386.75 84.1295 386.756 84.1482C386.794 84.248 386.838 84.3416 386.889 84.429C386.333 84.7972 385.689 85.0781 384.988 85.2715C384.597 85.3839 384.186 85.4712 383.763 85.5461C383.163 85.9268 382.361 86.3824 381.364 86.8317C381.212 86.9003 381.054 86.969 380.89 87.0439C380.726 87.1125 380.562 87.1812 380.392 87.2498C380.051 87.3934 379.691 87.5182 379.318 87.6555C378.567 87.9113 377.759 88.161 376.887 88.3669C376.016 88.5666 375.094 88.7414 374.115 88.835C373.629 88.8787 373.124 88.9036 372.619 88.9036C372.366 88.8974 372.114 88.8911 371.855 88.8849C371.602 88.8787 371.343 88.8537 371.085 88.835C368.281 88.6103 365.743 87.9176 363.64 87.2186C361.538 86.5009 359.852 85.7645 358.703 85.2341C358.109 85.0281 357.37 84.791 356.537 84.4602C355.703 84.1295 354.763 83.7488 353.74 83.3244C352.736 82.8564 351.643 82.3384 350.5 81.7829C349.377 81.1838 348.19 80.5598 346.984 79.867C346.106 79.3491 345.247 78.8373 344.426 78.3381C343.593 77.8263 342.835 77.2584 342.134 76.7217C341.44 76.1788 340.777 75.6608 340.158 75.1802C339.539 74.6997 338.958 74.2691 338.415 73.8947C337.329 73.1458 336.376 72.6465 335.694 72.3657C335.523 72.297 335.372 72.2346 335.233 72.1847C335.094 72.141 334.98 72.1036 334.886 72.0786C334.696 72.0162 334.602 71.985 334.602 71.985C334.602 71.985 334.703 72.0037 334.898 72.0349C334.993 72.0536 335.113 72.0724 335.258 72.0973C335.397 72.1285 335.561 72.1722 335.738 72.2221C336.464 72.4156 337.487 72.815 338.662 73.4765C339.249 73.8135 339.874 74.2005 340.531 74.6373C341.187 75.0742 341.875 75.5547 342.595 76.054C343.321 76.5532 344.073 77.0649 344.887 77.5392C345.721 78.0135 346.573 78.5066 347.451 79.0245C348.65 79.7048 349.806 80.3663 350.905 80.9904C352.022 81.5832 353.07 82.1512 354.036 82.6816C355.021 83.1684 355.924 83.6177 356.714 84.0234C357.509 84.429 358.21 84.7411 358.778 85.0156C359.972 85.4088 361.714 85.9705 363.83 86.5384C365.951 87.0876 368.452 87.6555 371.148 87.8677C371.394 87.8864 371.64 87.9051 371.886 87.9176C372.133 87.9238 372.373 87.9363 372.619 87.9426C373.099 87.9488 373.566 87.9363 374.033 87.9051C374.961 87.8427 375.864 87.7179 376.71 87.5619C377.563 87.4121 378.365 87.2124 379.11 87.0189C379.482 86.9128 379.842 86.8192 380.183 86.7069C380.354 86.6507 380.524 86.6008 380.688 86.5509C380.852 86.4947 381.01 86.4385 381.168 86.3824C381.882 86.1327 382.507 85.8831 383.037 85.646C382.785 85.6772 382.532 85.7021 382.273 85.7209C381.061 86.1515 379.621 86.5821 377.967 86.7693C377.74 86.8067 377.506 86.813 377.266 86.8317C377.032 86.8504 376.792 86.8691 376.552 86.8816C376.073 86.8879 375.574 86.9191 375.075 86.8941C374.071 86.8816 373.036 86.7693 371.981 86.6195C369.121 86.1889 366.557 85.3339 364.417 84.5476C363.343 84.1544 362.377 83.7613 361.525 83.418C361.102 83.2433 360.704 83.081 360.338 82.925C359.978 82.7627 359.643 82.613 359.347 82.4819C359.037 82.3821 358.69 82.2697 358.317 82.1449C357.945 82.0014 357.547 81.8516 357.111 81.6831C356.24 81.3648 355.287 80.9404 354.238 80.4786C352.155 79.53 349.774 78.3069 347.268 76.9526C345.424 75.9479 343.675 75.0055 342.065 74.2192C340.429 73.489 338.92 72.8837 337.613 72.4967C336.957 72.3033 336.376 72.0973 335.845 71.985C335.315 71.8602 334.848 71.7416 334.488 71.5669C334.368 71.5107 334.273 71.4483 334.179 71.3859C334.027 71.3734 333.882 71.3609 333.73 71.3484C333.389 71.3297 333.048 71.3048 332.714 71.286L332.208 71.2548L331.703 71.2361C331.369 71.2299 331.028 71.2049 330.693 71.2049C329.355 71.1799 328.041 71.2361 326.759 71.3859C326.602 71.4046 326.437 71.4296 326.28 71.4483C326.122 71.467 325.964 71.4857 325.806 71.5169C325.49 71.5731 325.181 71.6293 324.871 71.6854C324.562 71.7603 324.259 71.8352 323.956 71.9039C323.804 71.9351 323.653 71.985 323.508 72.0287C323.356 72.0724 323.211 72.1223 323.059 72.166C322.914 72.2159 322.763 72.2533 322.617 72.3033C322.472 72.3594 322.327 72.4094 322.182 72.4655C321.891 72.5716 321.601 72.6715 321.323 72.8025C321.045 72.9273 320.761 73.0397 320.489 73.1707C320.218 73.308 319.946 73.4453 319.675 73.5764C319.536 73.6388 319.41 73.7137 319.277 73.7886C319.145 73.8635 319.018 73.9383 318.886 74.0132C318.753 74.0881 318.627 74.163 318.494 74.2317C318.362 74.3065 318.242 74.3877 318.115 74.4688C317.863 74.6248 317.61 74.7871 317.364 74.9431C317.244 75.0242 317.13 75.1054 317.017 75.1865C316.903 75.2676 316.783 75.3425 316.676 75.4361C316.562 75.5235 316.455 75.6046 316.341 75.692C316.234 75.7794 316.126 75.873 316.025 75.9603C315.811 76.1351 315.615 76.3285 315.413 76.5158C315.028 76.9027 314.662 77.2959 314.333 77.7202C313.999 78.1321 313.708 78.569 313.437 79.0058C313.178 79.4489 312.932 79.892 312.742 80.3476C312.534 80.7969 312.382 81.2587 312.237 81.7081C312.18 81.939 312.111 82.1636 312.066 82.3883C312.022 82.613 311.965 82.8376 311.94 83.0623C311.808 83.9547 311.801 84.8222 311.902 85.6272C312.003 86.4323 312.218 87.1812 312.502 87.8427C312.786 88.5105 313.134 89.0971 313.506 89.6088C313.866 90.1268 314.308 90.5886 314.763 91.0317C314.883 91.1378 314.996 91.2439 315.116 91.35C315.173 91.4062 315.236 91.4561 315.293 91.4998L315.47 91.6433C315.583 91.7432 315.716 91.8243 315.836 91.9117L316.025 92.0427L316.221 92.1613C316.739 92.4796 317.295 92.7417 317.875 92.9539C318.45 93.166 319.037 93.3345 319.637 93.4531C320.83 93.6965 322.049 93.7714 323.23 93.709C323.823 93.6778 324.404 93.6154 324.979 93.5155C325.263 93.4718 325.547 93.4032 325.825 93.347C325.964 93.3158 326.103 93.2784 326.242 93.2409C326.381 93.2035 326.519 93.1723 326.652 93.1286C328.818 92.492 330.68 91.3001 331.88 89.7524C331.95 89.6525 332.019 89.5527 332.095 89.4591L332.202 89.3093L332.297 89.1595C332.36 89.0596 332.423 88.9598 332.48 88.8537C332.531 88.7476 332.587 88.6415 332.638 88.5417L332.72 88.3856C332.745 88.3357 332.764 88.2796 332.789 88.2234C332.834 88.1173 332.878 88.0112 332.922 87.9051C332.96 87.799 332.991 87.6867 333.029 87.5806L333.08 87.4183C333.092 87.3622 333.105 87.3122 333.118 87.2561C333.143 87.15 333.168 87.0376 333.194 86.9316C333.212 86.8192 333.225 86.7131 333.244 86.607L333.269 86.4448L333.282 86.2825C333.288 86.1764 333.295 86.0641 333.307 85.958C333.307 85.8519 333.307 85.7458 333.307 85.6397C333.307 85.5836 333.307 85.5336 333.307 85.4775L333.295 85.3214C333.288 85.2154 333.276 85.1093 333.269 85.0094C333.25 84.9033 333.238 84.8035 333.219 84.7036C333.212 84.6537 333.206 84.6038 333.194 84.5538L333.156 84.4041C333.13 84.3042 333.111 84.2044 333.086 84.1045C333.055 84.0109 333.023 83.911 332.991 83.8174L332.947 83.6739C332.928 83.6302 332.909 83.5803 332.89 83.5366C332.853 83.443 332.815 83.3556 332.783 83.262C332.745 83.1746 332.701 83.0873 332.657 82.9999C332.575 82.8251 332.474 82.6629 332.379 82.5006C331.987 81.8578 331.489 81.3399 330.971 80.9342C330.447 80.5286 329.891 80.2477 329.348 80.0605C328.805 79.8795 328.281 79.7859 327.808 79.7734C327.751 79.7672 327.688 79.7672 327.631 79.7609C327.574 79.7609 327.517 79.7609 327.46 79.7672C327.347 79.7672 327.239 79.7734 327.132 79.7734C327.069 79.7797 327.006 79.7859 326.949 79.7922C327.858 80.2415 328.445 81.2275 328.332 82.3072C328.186 83.6864 326.968 84.6849 325.61 84.5414C324.253 84.3978 323.268 83.1621 323.407 81.7829C323.533 80.5473 324.524 79.6237 325.705 79.5425C325.762 79.5176 325.819 79.4926 325.875 79.4614C326.04 79.4052 326.216 79.3428 326.406 79.2742C326.602 79.218 326.816 79.1681 327.05 79.1119C327.17 79.0932 327.29 79.0745 327.416 79.0557C327.479 79.0495 327.542 79.037 327.606 79.0308C327.669 79.0245 327.738 79.0245 327.801 79.0183C328.338 78.9746 328.95 79.0183 329.594 79.1743C330.245 79.3303 330.927 79.6112 331.583 80.048C332.234 80.4849 332.871 81.0715 333.383 81.8141C333.509 82.0014 333.642 82.1886 333.749 82.3945C333.806 82.4944 333.863 82.5942 333.92 82.7003C333.97 82.8064 334.021 82.9125 334.071 83.0249C334.096 83.081 334.122 83.1309 334.147 83.1871L334.21 83.3556C334.254 83.4679 334.298 83.5865 334.336 83.6989C334.368 83.8174 334.406 83.936 334.444 84.0546L334.494 84.2356C334.507 84.298 334.519 84.3604 334.532 84.4228C334.557 84.5476 334.583 84.6724 334.608 84.7972C334.627 84.922 334.639 85.0531 334.658 85.1841L334.684 85.3776C334.69 85.44 334.69 85.5087 334.696 85.5711C334.703 85.7021 334.709 85.8332 334.715 85.9705C334.709 86.1015 334.709 86.2388 334.703 86.3699L334.696 86.5696L334.677 86.7693C334.665 86.9066 334.646 87.0439 334.633 87.1749C334.608 87.3122 334.583 87.4433 334.557 87.5806C334.545 87.6492 334.532 87.7179 334.513 87.7865L334.456 87.9862C334.418 88.1235 334.381 88.2608 334.343 88.3919C334.292 88.5229 334.242 88.6602 334.197 88.7913C334.172 88.8599 334.147 88.9286 334.122 88.991L334.033 89.1845C333.97 89.3155 333.913 89.4466 333.85 89.5776C333.781 89.7024 333.705 89.8273 333.635 89.9583L333.528 90.1518L333.408 90.3328C333.326 90.4513 333.244 90.5761 333.162 90.701C332.808 91.169 332.429 91.6371 331.987 92.0427C331.773 92.2611 331.539 92.4421 331.306 92.6418C331.186 92.7354 331.066 92.8228 330.939 92.9164C330.819 93.01 330.693 93.1036 330.567 93.1848C330.441 93.2721 330.308 93.3533 330.182 93.4406C330.049 93.5218 329.916 93.5967 329.784 93.6778L329.582 93.7964L329.373 93.9025C329.235 93.9711 329.096 94.046 328.957 94.1146C328.812 94.177 328.673 94.2457 328.527 94.3081L328.313 94.4017L328.092 94.4891C327.946 94.5453 327.795 94.6077 327.65 94.6576C327.498 94.7075 327.347 94.7574 327.195 94.8074C327.044 94.8635 326.892 94.901 326.734 94.9447C326.583 94.9883 326.425 95.0383 326.267 95.0757C325.951 95.1506 325.642 95.2317 325.32 95.2817C324.682 95.4065 324.025 95.4876 323.369 95.5313C322.043 95.6187 320.679 95.55 319.309 95.2879C318.627 95.1568 317.939 94.9696 317.263 94.7262C316.587 94.4891 315.924 94.177 315.287 93.7901L315.047 93.6466L314.813 93.4906C314.655 93.3845 314.504 93.2846 314.352 93.1598L314.131 92.9851C314.055 92.9289 313.98 92.8665 313.917 92.8041C313.778 92.6793 313.639 92.5545 313.506 92.4296C312.969 91.9117 312.452 91.3625 312.01 90.7384C311.561 90.1206 311.138 89.4029 310.797 88.5853C310.456 87.7678 310.197 86.8442 310.078 85.8581C309.838 83.8861 310.147 81.6519 311.113 79.5612C311.347 79.0308 311.631 78.5253 311.934 78.0135C312.256 77.5143 312.591 77.015 312.976 76.5532C313.355 76.0789 313.778 75.6296 314.226 75.1927C314.453 74.9805 314.68 74.7621 314.927 74.5687C315.047 74.4688 315.167 74.3627 315.293 74.2691C315.419 74.1755 315.546 74.0756 315.672 73.982C315.798 73.8822 315.931 73.7948 316.063 73.7074C316.196 73.6201 316.329 73.5265 316.461 73.4391C316.726 73.2768 316.991 73.1146 317.263 72.9523C317.396 72.8712 317.528 72.7838 317.667 72.7089C317.806 72.634 317.945 72.5529 318.084 72.478C318.223 72.4031 318.362 72.322 318.507 72.2471C318.646 72.1722 318.791 72.0911 318.936 72.0224C319.227 71.8789 319.523 71.7416 319.814 71.5981C320.111 71.4608 320.42 71.3422 320.723 71.2111C321.026 71.0738 321.342 70.9677 321.658 70.8554C321.815 70.7992 321.973 70.7431 322.131 70.6869C322.289 70.6308 322.453 70.5933 322.617 70.5434C322.782 70.4935 322.939 70.4498 323.104 70.3998C323.268 70.3499 323.432 70.3062 323.596 70.2688C323.924 70.1939 324.259 70.119 324.594 70.0441C324.928 69.988 325.269 69.9318 325.604 69.8756C325.774 69.8444 325.945 69.8257 326.115 69.807C326.286 69.7882 326.456 69.7695 326.627 69.7508C327.997 69.6135 329.386 69.5761 330.775 69.6198C331.122 69.626 331.47 69.651 331.817 69.6697L332.341 69.6946L332.859 69.7321C333.206 69.757 333.553 69.7883 333.901 69.8132C334.248 69.8507 334.595 69.8819 334.943 69.9193C335.29 69.9505 335.637 69.9942 335.984 70.0316C336.332 70.0753 336.679 70.1128 337.026 70.1565C337.38 70.2064 337.727 70.2625 338.081 70.3125L338.611 70.3936C338.788 70.4186 338.958 70.456 339.135 70.4935C339.482 70.5621 339.836 70.6245 340.19 70.6932C340.537 70.7618 340.884 70.8492 341.231 70.9303C341.932 71.0801 342.614 71.2798 343.309 71.4608C343.656 71.5544 343.991 71.6667 344.338 71.7666C344.679 71.8727 345.026 71.9663 345.361 72.0848C346.036 72.3095 346.712 72.5279 347.381 72.7776C348.72 73.2519 350.033 73.7823 351.334 74.3128C352.628 74.8557 353.916 75.4112 355.179 75.9791C356.442 76.5407 357.692 77.1149 358.93 77.6765C360.167 78.2382 361.386 78.7812 362.598 79.3241C365.017 80.41 367.34 81.4959 369.607 82.4133C370.737 82.8751 371.861 83.2932 372.96 83.6614C374.065 84.0296 375.151 84.3354 376.212 84.5913C378.27 85.0781 380.265 85.2965 382.096 85.2278ZM384.458 84.9595C384.603 84.8784 384.729 84.8035 384.824 84.7535C384.843 84.7411 384.856 84.7348 384.875 84.7286C384.742 84.7847 384.603 84.8347 384.451 84.8971C384.338 84.9408 384.224 84.9907 384.104 85.0344C384.224 85.0094 384.344 84.9844 384.458 84.9595ZM376.066 85.2466C374.974 85.0094 373.856 84.7286 372.732 84.3791C371.609 84.0296 370.459 83.6302 369.304 83.1871C366.993 82.3072 364.631 81.265 362.207 80.2352C360.995 79.7235 359.751 79.1993 358.507 78.6626C357.263 78.1259 356 77.5829 354.731 77.0462C353.462 76.5033 352.18 75.9791 350.886 75.4611C349.585 74.9618 348.284 74.4563 346.958 74.0132C346.302 73.7823 345.632 73.5764 344.969 73.3704C344.635 73.2581 344.3 73.177 343.965 73.0771C343.631 72.9835 343.296 72.8774 342.961 72.7963C342.286 72.6278 341.617 72.4468 340.935 72.3158C340.594 72.2471 340.259 72.166 339.918 72.1036C339.577 72.0474 339.236 71.985 338.901 71.9288C338.731 71.9039 338.561 71.8664 338.39 71.8415L337.879 71.7728C337.538 71.7291 337.197 71.6854 336.862 71.6417C336.515 71.6043 336.174 71.5731 335.826 71.5357C335.486 71.4982 335.138 71.467 334.797 71.4358C334.715 71.4296 334.639 71.4233 334.557 71.4171C334.564 71.4233 334.576 71.4233 334.583 71.4296C334.936 71.5544 335.391 71.623 335.934 71.6854C336.483 71.7416 337.089 71.8976 337.765 72.0287C339.122 72.3033 340.701 72.8025 342.412 73.4703C344.104 74.1942 345.898 75.0991 347.741 76.0976C350.254 77.4519 352.565 78.7687 354.567 79.8421C355.577 80.3601 356.486 80.8593 357.32 81.2525C357.73 81.4584 358.115 81.6457 358.469 81.8204C358.829 81.9827 359.157 82.1262 359.454 82.2635C359.763 82.3633 360.104 82.4757 360.477 82.6005C360.849 82.7191 361.266 82.8439 361.702 82.9812C362.579 83.2495 363.571 83.5616 364.663 83.8798C366.835 84.5164 369.386 85.2466 372.152 85.6647C373.168 85.8082 374.166 85.933 375.132 85.9705C375.618 86.0079 376.092 85.9954 376.559 86.0079C376.792 86.0079 377.02 85.9954 377.247 85.9892C377.474 85.9767 377.702 85.983 377.923 85.958C378.579 85.9143 379.211 85.8394 379.811 85.7333C378.598 85.6647 377.348 85.5024 376.066 85.2466Z" fill="white"/>
<path d="M364.676 87.6742C364.461 87.6055 364.246 87.5369 364.032 87.4683C363.842 87.4058 363.646 87.3559 363.457 87.2998C363.268 87.2498 363.072 87.1874 362.882 87.1375C362.497 87.0439 362.112 86.9378 361.721 86.8629C361.525 86.8255 361.335 86.7755 361.14 86.7443C360.944 86.7131 360.748 86.6757 360.559 86.6445C360.464 86.6258 360.363 86.607 360.268 86.5945L359.978 86.5571C359.782 86.5321 359.586 86.5072 359.391 86.4822C359.195 86.4635 358.993 86.4448 358.797 86.4198C358.601 86.4011 358.406 86.3824 358.21 86.3636C358.166 86.3574 358.115 86.3574 358.071 86.3512C358.077 86.3512 358.077 86.3574 358.084 86.3574C358.254 86.4198 358.469 86.451 358.715 86.4885C358.494 86.4635 358.273 86.451 358.046 86.4385C357.976 86.4073 357.926 86.3699 357.869 86.3387C357.787 86.3324 357.698 86.3262 357.616 86.32C357.421 86.3075 357.225 86.295 357.029 86.2825L356.739 86.2638L356.448 86.2513C356.253 86.2451 356.063 86.2326 355.874 86.2326C355.11 86.2201 354.352 86.2513 353.62 86.3387C353.525 86.3512 353.436 86.3636 353.348 86.3761C353.26 86.3886 353.165 86.3948 353.077 86.4136C352.9 86.4448 352.717 86.476 352.54 86.5134C352.363 86.5571 352.186 86.6008 352.016 86.6382C351.927 86.657 351.845 86.6819 351.757 86.7131C351.668 86.7381 351.586 86.763 351.498 86.788C351.416 86.813 351.328 86.8379 351.245 86.8691C351.163 86.9003 351.081 86.9315 350.999 86.9627C350.835 87.0252 350.665 87.0813 350.507 87.1562C350.349 87.2249 350.185 87.2935 350.027 87.3684C349.869 87.4495 349.717 87.5244 349.56 87.5993C349.484 87.6367 349.408 87.6804 349.332 87.7241C349.257 87.7678 349.181 87.8115 349.105 87.8489C349.029 87.8926 348.953 87.9363 348.884 87.9738C348.808 88.0174 348.739 88.0611 348.663 88.111C348.518 88.2047 348.372 88.292 348.234 88.3794C348.164 88.4231 348.101 88.473 348.032 88.5167C347.962 88.5604 347.899 88.6103 347.836 88.6602C347.773 88.7102 347.71 88.7601 347.646 88.8038C347.583 88.8537 347.526 88.9099 347.463 88.9598C347.337 89.0596 347.23 89.172 347.116 89.2781C346.895 89.4965 346.687 89.7274 346.497 89.9645C346.308 90.2017 346.137 90.4513 345.986 90.701C345.841 90.9568 345.695 91.2065 345.588 91.4686C345.468 91.7244 345.38 91.9928 345.298 92.2487C345.266 92.3797 345.228 92.5108 345.196 92.6418C345.171 92.7729 345.14 92.8977 345.127 93.0287C345.051 93.5405 345.045 94.0397 345.108 94.5016C345.165 94.9634 345.291 95.3877 345.449 95.7747C345.613 96.1554 345.809 96.4924 346.024 96.7857C346.232 97.0852 346.485 97.3473 346.743 97.6032C346.813 97.6656 346.876 97.728 346.946 97.7842C346.977 97.8154 347.015 97.8466 347.047 97.8716L347.148 97.9527C347.211 98.0089 347.286 98.0588 347.356 98.1087L347.463 98.1836L347.577 98.2522C347.874 98.4332 348.196 98.583 348.524 98.7078C348.852 98.8264 349.193 98.9262 349.534 98.9949C350.223 99.1322 350.917 99.1759 351.593 99.1447C351.934 99.1259 352.268 99.0947 352.59 99.0323C352.755 99.0074 352.912 98.9699 353.077 98.9325C353.159 98.9138 353.234 98.8888 353.316 98.8701C353.392 98.8514 353.474 98.8326 353.55 98.8014C354.788 98.4332 355.861 97.753 356.543 96.8668C356.581 96.8106 356.625 96.7545 356.663 96.6983L356.726 96.6109L356.777 96.5236C356.814 96.4674 356.846 96.405 356.884 96.3488C356.915 96.2864 356.947 96.2302 356.972 96.1678L357.017 96.0805C357.029 96.0493 357.042 96.0181 357.054 95.9869C357.08 95.9244 357.105 95.862 357.13 95.8059C357.149 95.7435 357.168 95.6811 357.193 95.6187L357.225 95.525C357.231 95.4938 357.238 95.4626 357.25 95.4314C357.263 95.369 357.282 95.3066 357.294 95.2442C357.307 95.1818 357.313 95.1194 357.326 95.057L357.339 94.9634L357.345 94.8698C357.351 94.8074 357.351 94.7449 357.357 94.6825C357.357 94.6201 357.357 94.5577 357.357 94.5016C357.357 94.4704 357.357 94.4392 357.357 94.4079L357.351 94.3143C357.345 94.2519 357.339 94.1958 357.339 94.1334C357.326 94.0772 357.32 94.0148 357.313 93.9586C357.307 93.9274 357.307 93.9024 357.301 93.8712L357.282 93.7839C357.269 93.7277 357.256 93.6715 357.244 93.6154C357.225 93.5592 357.206 93.503 357.193 93.4531L357.168 93.372C357.155 93.347 357.149 93.3221 357.137 93.2909C357.118 93.2409 357.092 93.1848 357.073 93.1348C357.048 93.0849 357.023 93.035 357.004 92.9851C356.96 92.8852 356.897 92.7916 356.846 92.698C356.625 92.3298 356.335 92.0302 356.038 91.7993C355.735 91.5684 355.419 91.4062 355.11 91.3001C354.8 91.2002 354.497 91.144 354.226 91.1316C354.194 91.1316 354.156 91.1253 354.125 91.1253C354.093 91.1253 354.062 91.1253 354.024 91.1253C353.961 91.1253 353.897 91.1253 353.834 91.1316C353.796 91.1378 353.765 91.1378 353.727 91.144C354.251 91.3999 354.586 91.9678 354.516 92.5857C354.434 93.372 353.74 93.9461 352.957 93.865C352.18 93.7839 351.612 93.0724 351.694 92.2861C351.77 91.5809 352.331 91.0504 353.007 91.0067C353.039 90.9943 353.07 90.9755 353.108 90.9631C353.203 90.9319 353.304 90.8944 353.411 90.857C353.525 90.8258 353.645 90.7946 353.777 90.7634C353.847 90.7509 353.916 90.7446 353.986 90.7322C354.024 90.7259 354.055 90.7197 354.093 90.7197C354.131 90.7134 354.169 90.7134 354.207 90.7134C354.516 90.6885 354.863 90.7134 355.236 90.8008C355.608 90.8882 356 91.0504 356.372 91.3001C356.745 91.5497 357.111 91.8867 357.402 92.3111C357.471 92.4172 357.547 92.5232 357.61 92.6418C357.642 92.698 357.679 92.7604 357.705 92.8166C357.736 92.879 357.762 92.9414 357.793 93.0038C357.806 93.035 357.825 93.0662 357.837 93.0974L357.875 93.1972C357.901 93.2597 357.926 93.3283 357.951 93.3969C357.97 93.4656 357.989 93.5342 358.008 93.6029L358.039 93.709C358.046 93.7464 358.052 93.7776 358.065 93.8151C358.077 93.8837 358.096 93.9586 358.109 94.0273C358.121 94.1022 358.128 94.1708 358.14 94.2457L358.153 94.358C358.159 94.3955 358.159 94.4329 358.159 94.4704C358.166 94.5452 358.166 94.6201 358.172 94.695C358.172 94.7699 358.166 94.851 358.166 94.9259L358.159 95.0445L358.147 95.1631C358.14 95.238 358.128 95.3191 358.122 95.4002C358.109 95.4751 358.09 95.5562 358.077 95.6311C358.071 95.6686 358.065 95.7123 358.052 95.7497L358.02 95.8683C358.002 95.9432 357.976 96.0243 357.951 96.0992C357.926 96.1741 357.894 96.249 357.869 96.3301C357.856 96.3675 357.844 96.405 357.825 96.4424L357.774 96.5548C357.736 96.6297 357.705 96.7045 357.667 96.7794C357.629 96.8543 357.585 96.923 357.547 96.9979L357.484 97.1102L357.414 97.2163C357.37 97.2849 357.32 97.3536 357.275 97.4285C357.073 97.6968 356.852 97.9652 356.6 98.1961C356.48 98.3209 356.341 98.427 356.208 98.5393C356.139 98.5955 356.069 98.6454 356 98.6953C355.931 98.7515 355.861 98.8014 355.785 98.8451C355.71 98.895 355.64 98.945 355.564 98.9886C355.489 99.0323 355.413 99.076 355.337 99.1259L355.223 99.1946L355.103 99.257C355.021 99.3007 354.945 99.3381 354.863 99.3818C354.781 99.4193 354.699 99.4567 354.617 99.4941L354.491 99.5503L354.365 99.6002C354.283 99.6314 354.194 99.6689 354.112 99.7001C354.024 99.7313 353.942 99.7563 353.853 99.7875C353.765 99.8187 353.676 99.8436 353.588 99.8686C353.5 99.8936 353.411 99.9185 353.323 99.9435C353.146 99.9872 352.963 100.031 352.78 100.062C352.414 100.137 352.041 100.181 351.662 100.206C350.904 100.256 350.122 100.218 349.339 100.068C348.947 99.9934 348.556 99.8873 348.17 99.7438C347.785 99.6065 347.4 99.4255 347.034 99.2071L346.895 99.1259L346.762 99.0323C346.674 98.9699 346.586 98.9138 346.497 98.8451L346.371 98.7453C346.327 98.7141 346.283 98.6766 346.245 98.6392C346.169 98.5705 346.087 98.4956 346.005 98.427C345.695 98.1337 345.399 97.8154 345.146 97.4597C344.893 97.1039 344.647 96.6921 344.451 96.224C344.256 95.7559 344.11 95.2255 344.041 94.6638C343.902 93.5342 344.079 92.2549 344.635 91.0567C344.767 90.7571 344.931 90.4638 345.102 90.1705C345.285 89.8834 345.481 89.6026 345.702 89.3342C345.916 89.0596 346.163 88.8038 346.415 88.5541C346.548 88.4356 346.674 88.3107 346.819 88.1984C346.889 88.1422 346.958 88.0798 347.028 88.0237C347.097 87.9675 347.173 87.9113 347.249 87.8614C347.318 87.8053 347.394 87.7553 347.476 87.7054C347.552 87.6555 347.627 87.5993 347.703 87.5494C347.855 87.4558 348.006 87.3622 348.164 87.2685C348.24 87.2249 348.316 87.1749 348.398 87.1313C348.48 87.0876 348.556 87.0439 348.638 87.0002C348.72 86.9565 348.796 86.9128 348.878 86.8691C348.96 86.8255 349.042 86.7818 349.124 86.7381C349.288 86.657 349.459 86.5758 349.629 86.4947C349.799 86.4136 349.976 86.3449 350.147 86.27C350.317 86.1951 350.5 86.1327 350.683 86.0703C350.772 86.0391 350.867 86.0079 350.955 85.9767C351.043 85.9455 351.138 85.9205 351.233 85.8956C351.327 85.8706 351.416 85.8394 351.511 85.8145C351.605 85.7895 351.7 85.7583 351.795 85.7396C351.984 85.6959 352.174 85.6522 352.369 85.6085C352.565 85.5773 352.755 85.5461 352.95 85.5087C353.045 85.4899 353.146 85.4837 353.241 85.4712C353.335 85.4587 353.436 85.4463 353.537 85.44C354.32 85.3589 355.116 85.3402 355.912 85.3651C356.114 85.3714 356.309 85.3838 356.511 85.3901L356.808 85.4026L357.105 85.4275C357.307 85.4463 357.503 85.4587 357.705 85.4775C357.9 85.4962 358.103 85.5149 358.305 85.5399C358.507 85.5586 358.702 85.5835 358.904 85.6085C359.107 85.6335 359.302 85.6584 359.504 85.6772C359.706 85.7084 359.908 85.7396 360.11 85.7645L360.414 85.8082C360.515 85.8207 360.616 85.8457 360.717 85.8644C360.919 85.9018 361.121 85.9393 361.316 85.9767C361.518 86.0142 361.714 86.0703 361.916 86.114C362.314 86.2014 362.712 86.3137 363.103 86.4198C363.299 86.4697 363.495 86.5384 363.691 86.5945C363.886 86.657 364.082 86.7069 364.278 86.7755C364.663 86.9066 365.054 87.0314 365.433 87.1749C365.698 87.2685 365.964 87.3746 366.229 87.4745C366.248 87.643 366.267 87.8053 366.286 87.9738C365.736 87.8365 365.212 87.7491 364.676 87.6742Z" fill="white"/>
<path d="M389.503 78.3505C387.577 81.084 383.801 83.0311 380.265 83.5491C376.66 84.0795 373.004 82.8626 369.872 81.2899C366.191 79.4426 362.876 77.0774 359.378 74.9743C356.063 72.9772 352.414 71.1237 348.366 70.9677C347.912 70.949 347.489 70.7243 347.482 70.4123C347.274 70.144 347.451 69.7009 347.817 69.445C350.602 67.5104 354.586 67.5104 357.888 68.4277C361.291 69.3701 363.173 72.3407 364.846 75.0117C365.004 73.4515 365.427 71.9413 366.842 70.8991C367.454 70.4435 369.443 69.626 368.06 71.7041C366.614 73.8759 368.654 76.7342 370.371 78.5939C372.417 80.8156 375.789 81.8329 378.851 82.1886C378.939 82.2011 379.015 82.2198 379.085 82.251C379.388 82.2385 379.691 82.2135 379.994 82.1761C385.828 81.4771 389.478 77.1273 390.235 72.2159C390.829 68.3903 390.166 63.042 386.1 60.7329C384.306 59.7157 382.008 59.9091 380.126 60.4771C379.842 60.5644 379.583 60.6643 379.331 60.7828C379.381 61.0574 379.255 61.2384 378.939 61.5255C378.081 62.3056 377.853 63.7722 378.182 65.0453C379.76 64.4087 381.945 64.7769 383.536 65.4634C385.658 66.3745 387.148 68.7273 386.112 70.3936C386.074 70.5184 386.017 70.6307 385.942 70.7306C385.897 70.9428 385.727 71.13 385.5 71.2423C380.979 73.4328 376.471 70.7056 375.315 66.4931C374.021 61.7876 378.295 58.636 383.227 58.636C387.886 58.636 390.557 62.499 391.498 66.1124C392.553 70.1502 391.959 74.8619 389.503 78.3505ZM383.959 68.1532C383.978 68.1532 383.997 68.1594 384.01 68.1656C383.984 68.1407 383.959 68.1157 383.934 68.097C383.94 68.1095 383.953 68.1282 383.959 68.1532Z" fill="white"/>
<path d="M407.788 84.61C408.849 84.3541 409.942 84.0546 411.04 83.6801C412.139 83.3057 413.263 82.8938 414.393 82.432C416.66 81.5083 418.983 80.4287 421.402 79.3428C422.614 78.7999 423.833 78.2569 425.07 77.6952C426.308 77.1336 427.552 76.5657 428.821 75.9978C430.084 75.4299 431.365 74.8744 432.666 74.3315C433.967 73.801 435.28 73.2706 436.619 72.7963C437.282 72.5466 437.964 72.3282 438.639 72.1035C438.974 71.985 439.321 71.8914 439.662 71.7853C440.003 71.6854 440.344 71.5731 440.691 71.4795C441.38 71.2985 442.068 71.0988 442.769 70.949C443.116 70.8679 443.463 70.7805 443.81 70.7119C444.164 70.6432 444.511 70.5746 444.865 70.5122C445.042 70.481 445.212 70.4435 445.389 70.4123L445.919 70.3312C446.273 70.2813 446.627 70.2251 446.974 70.1752C447.321 70.1315 447.668 70.094 448.016 70.0503C448.363 70.0067 448.71 69.9692 449.058 69.938C449.405 69.9006 449.752 69.8694 450.099 69.8319C450.447 69.807 450.794 69.7758 451.141 69.7508L451.659 69.7133L452.183 69.6884C452.53 69.6759 452.878 69.6447 453.225 69.6385C454.614 69.5948 456.003 69.6322 457.373 69.7695C457.544 69.7882 457.714 69.807 457.885 69.8257C458.055 69.8444 458.226 69.8631 458.396 69.8943C458.737 69.9505 459.072 70.0067 459.406 70.0628C459.741 70.1377 460.076 70.2126 460.404 70.2875C460.568 70.3187 460.732 70.3686 460.896 70.4185C461.061 70.4685 461.219 70.5122 461.383 70.5621C461.547 70.612 461.711 70.6495 461.869 70.7056C462.027 70.7618 462.185 70.818 462.342 70.8741C462.658 70.9865 462.974 71.0926 463.277 71.2298C463.58 71.3609 463.889 71.4795 464.186 71.6168C464.483 71.7603 464.773 71.9038 465.064 72.0411C465.209 72.1098 465.354 72.1847 465.493 72.2658C465.632 72.3407 465.777 72.4218 465.916 72.4967C466.055 72.5716 466.194 72.6527 466.333 72.7276C466.472 72.8025 466.604 72.8899 466.737 72.971C467.009 73.1333 467.274 73.2955 467.539 73.4578C467.672 73.5452 467.804 73.6388 467.937 73.7261C468.069 73.8135 468.202 73.9071 468.328 74.0007C468.455 74.0943 468.581 74.1942 468.707 74.2878C468.833 74.3877 468.953 74.4875 469.073 74.5874C469.319 74.7871 469.547 75.0055 469.774 75.2114C470.222 75.6483 470.645 76.0914 471.024 76.5719C471.409 77.04 471.75 77.5392 472.066 78.0322C472.369 78.5377 472.653 79.0495 472.887 79.58C473.853 81.6706 474.162 83.9048 473.923 85.8769C473.803 86.8629 473.544 87.7865 473.203 88.6041C472.862 89.4216 472.432 90.1393 471.99 90.7571C471.548 91.3812 471.031 91.9366 470.494 92.4483C470.355 92.5732 470.216 92.698 470.083 92.8228C470.014 92.8852 469.945 92.9476 469.869 93.0038L469.642 93.1785C469.496 93.2971 469.338 93.4032 469.181 93.5093L468.947 93.6653L468.707 93.8088C468.069 94.1895 467.406 94.5016 466.731 94.7449C466.055 94.9883 465.373 95.1756 464.685 95.3066C463.315 95.5687 461.951 95.6374 460.625 95.55C459.962 95.5063 459.312 95.4252 458.674 95.3004C458.352 95.2442 458.036 95.1631 457.727 95.0944C457.569 95.057 457.417 95.007 457.26 94.9634C457.108 94.9197 456.95 94.876 456.799 94.8261C456.647 94.7761 456.496 94.7262 456.344 94.6763C456.192 94.6201 456.047 94.564 455.902 94.5078L455.681 94.4204L455.466 94.3268C455.321 94.2644 455.182 94.1958 455.037 94.1333C454.898 94.0647 454.759 93.9898 454.62 93.9212L454.412 93.8151L454.21 93.6965C454.077 93.6154 453.945 93.5405 453.812 93.4593C453.686 93.372 453.553 93.2908 453.427 93.2035C453.294 93.1223 453.174 93.0287 453.054 92.9351C452.934 92.8415 452.808 92.7541 452.688 92.6605C452.455 92.4608 452.221 92.2736 452.006 92.0614C451.564 91.6558 451.185 91.1877 450.832 90.7197C450.75 90.5948 450.668 90.4763 450.585 90.3515L450.466 90.1705L450.358 89.977C450.289 89.8522 450.213 89.7211 450.144 89.5963C450.08 89.4653 450.024 89.3342 449.96 89.2032L449.872 89.0097C449.847 88.9411 449.821 88.8786 449.796 88.81C449.746 88.6727 449.695 88.5416 449.651 88.4106C449.607 88.2733 449.575 88.136 449.537 88.0049L449.481 87.8052C449.462 87.7366 449.455 87.6679 449.436 87.5993C449.411 87.462 449.386 87.3247 449.361 87.1936C449.348 87.0564 449.329 86.9191 449.316 86.788L449.297 86.5883L449.291 86.3886C449.285 86.2513 449.285 86.1202 449.279 85.9892C449.285 85.8581 449.291 85.7208 449.297 85.5898C449.304 85.5211 449.304 85.4587 449.31 85.3963L449.335 85.2029C449.354 85.0718 449.367 84.947 449.386 84.8159C449.411 84.6911 449.436 84.5663 449.462 84.4415C449.474 84.3791 449.487 84.3167 449.499 84.2543L449.55 84.0733C449.588 83.9547 449.619 83.8361 449.657 83.7176C449.702 83.6052 449.746 83.4867 449.784 83.3743L449.847 83.2058C449.872 83.1497 449.897 83.0935 449.923 83.0436C449.973 82.9375 450.024 82.8251 450.074 82.719C450.125 82.6129 450.188 82.5131 450.245 82.4132C450.352 82.2073 450.484 82.0201 450.611 81.8329C451.122 81.0902 451.76 80.5036 452.41 80.0667C453.067 79.6299 453.749 79.349 454.399 79.193C455.05 79.037 455.656 78.9933 456.192 79.037C456.262 79.0432 456.325 79.0432 456.388 79.0495C456.451 79.0557 456.514 79.0682 456.578 79.0745C456.704 79.0932 456.824 79.1119 456.944 79.1306C457.177 79.1868 457.392 79.2367 457.588 79.2929C457.777 79.3615 457.954 79.4239 458.118 79.4801C458.181 79.5051 458.232 79.5363 458.289 79.5612C459.47 79.6424 460.461 80.566 460.587 81.8017C460.732 83.1809 459.747 84.4165 458.383 84.5601C457.026 84.7036 455.807 83.7051 455.662 82.3259C455.548 81.2462 456.136 80.2539 457.045 79.8109C456.982 79.8046 456.925 79.7984 456.862 79.7921C456.754 79.7921 456.647 79.7859 456.533 79.7859C456.477 79.7859 456.42 79.7859 456.363 79.7797C456.306 79.7797 456.243 79.7859 456.186 79.7921C455.706 79.8046 455.189 79.9045 454.646 80.0792C454.102 80.2602 453.547 80.5473 453.023 80.9529C452.505 81.3586 452.006 81.8765 451.615 82.5193C451.52 82.6816 451.419 82.8439 451.337 83.0186C451.293 83.106 451.248 83.1933 451.211 83.2807C451.173 83.3743 451.135 83.4617 451.103 83.5553C451.084 83.599 451.065 83.6489 451.046 83.6926L451.002 83.8361C450.971 83.9297 450.939 84.0296 450.908 84.1232C450.882 84.2231 450.863 84.3229 450.838 84.4228L450.8 84.5725C450.788 84.6225 450.781 84.6724 450.775 84.7223C450.756 84.8222 450.743 84.9283 450.724 85.0281C450.718 85.1342 450.706 85.2341 450.699 85.3401L450.687 85.4962C450.687 85.5523 450.687 85.6023 450.687 85.6584C450.687 85.7645 450.687 85.8706 450.687 85.9767C450.693 86.0828 450.699 86.1889 450.712 86.3012L450.724 86.4635L450.75 86.6257C450.769 86.7318 450.781 86.8442 450.8 86.9503C450.825 87.0564 450.851 87.1687 450.876 87.2748C450.889 87.3309 450.901 87.3871 450.914 87.437L450.964 87.5993C451.002 87.7054 451.034 87.8177 451.072 87.9238C451.116 88.0299 451.16 88.136 451.204 88.2421C451.23 88.292 451.249 88.3482 451.274 88.4044L451.356 88.5604C451.406 88.6665 451.463 88.7663 451.514 88.8724C451.577 88.9723 451.64 89.0721 451.697 89.1782L451.792 89.328L451.899 89.4778C451.968 89.5776 452.038 89.6775 452.114 89.7711C453.313 91.3188 455.176 92.5108 457.342 93.1473C457.474 93.191 457.613 93.2284 457.752 93.2596C457.891 93.2971 458.024 93.3345 458.169 93.3657C458.447 93.4281 458.731 93.4906 459.015 93.5342C459.583 93.6403 460.17 93.6965 460.764 93.7277C461.945 93.7901 463.163 93.7152 464.357 93.4718C464.956 93.3533 465.544 93.1785 466.118 92.9726C466.693 92.7666 467.249 92.4983 467.773 92.18L467.968 92.0614L468.158 91.9304C468.284 91.843 468.41 91.7619 468.524 91.662L468.701 91.5185C468.758 91.4748 468.821 91.4249 468.878 91.3687C468.998 91.2626 469.111 91.1565 469.231 91.0504C469.686 90.6073 470.121 90.1455 470.488 89.6275C470.854 89.1158 471.207 88.5292 471.492 87.8614C471.776 87.1936 471.984 86.451 472.091 85.6459C472.192 84.8409 472.186 83.9734 472.053 83.081C472.028 82.8563 471.971 82.6317 471.927 82.407C471.883 82.1823 471.814 81.9577 471.757 81.7268C471.612 81.2774 471.46 80.8156 471.252 80.3663C471.056 79.9107 470.816 79.4676 470.557 79.0245C470.286 78.5877 469.995 78.1508 469.66 77.7389C469.338 77.3208 468.966 76.9214 468.581 76.5345C468.379 76.3473 468.189 76.1538 467.968 75.979C467.861 75.8917 467.76 75.7981 467.653 75.7107C467.545 75.6233 467.432 75.5422 467.318 75.4548C467.211 75.3675 467.091 75.2863 466.977 75.2052C466.863 75.1241 466.75 75.0429 466.63 74.9618C466.383 74.8058 466.131 74.6498 465.878 74.4875C465.752 74.4126 465.626 74.3253 465.499 74.2504C465.367 74.1755 465.241 74.1006 465.108 74.0319C464.975 73.957 464.849 73.8822 464.716 73.8073C464.584 73.7324 464.458 73.6575 464.319 73.5951C464.047 73.4578 463.776 73.3267 463.504 73.1894C463.233 73.0584 462.949 72.946 462.671 72.8212C462.393 72.6902 462.102 72.5903 461.812 72.4842C461.667 72.4281 461.522 72.3781 461.376 72.322C461.231 72.2658 461.08 72.2284 460.934 72.1847C460.783 72.141 460.638 72.0973 460.486 72.0474C460.335 72.0037 460.189 71.9538 460.038 71.9226C459.735 71.8477 459.425 71.7728 459.122 71.7041C458.813 71.648 458.497 71.5918 458.188 71.5356C458.03 71.5044 457.872 71.4857 457.714 71.467C457.556 71.4483 457.398 71.4233 457.234 71.4046C455.953 71.2548 454.639 71.1986 453.301 71.2236C452.966 71.2236 452.631 71.2423 452.29 71.2548L451.785 71.2735L451.28 71.3047C450.939 71.3235 450.598 71.3484 450.263 71.3671C450.118 71.3796 449.967 71.3921 449.815 71.4046C449.727 71.467 449.626 71.5294 449.506 71.5856C449.152 71.7603 448.679 71.8851 448.148 72.0037C447.618 72.116 447.037 72.322 446.38 72.5154C445.073 72.9024 443.571 73.5077 441.929 74.2379C440.319 75.0242 438.57 75.9728 436.726 76.9713C434.219 78.3256 431.839 79.5487 429.755 80.4973C428.707 80.9529 427.754 81.3835 426.882 81.7018C426.453 81.8641 426.049 82.0201 425.676 82.1636C425.298 82.2884 424.957 82.4008 424.647 82.5006C424.35 82.6317 424.016 82.7814 423.656 82.9437C423.29 83.106 422.892 83.262 422.469 83.4367C421.616 83.78 420.65 84.1731 419.577 84.5663C417.436 85.3526 414.873 86.2014 412.013 86.6382C410.958 86.788 409.929 86.9003 408.919 86.9128C408.42 86.9378 407.921 86.9066 407.441 86.9003C407.201 86.8879 406.961 86.8691 406.728 86.8504C406.494 86.8317 406.26 86.8254 406.027 86.788C404.379 86.6008 402.933 86.1639 401.721 85.7396C401.462 85.7208 401.209 85.6959 400.957 85.6647C401.487 85.9018 402.106 86.1514 402.826 86.4011C402.983 86.4572 403.141 86.5134 403.305 86.5696C403.47 86.6195 403.64 86.6757 403.811 86.7256C404.152 86.8379 404.511 86.9315 404.884 87.0376C405.635 87.2311 406.431 87.4308 407.283 87.5806C408.136 87.7304 409.032 87.8614 409.961 87.9238C410.428 87.955 410.895 87.9675 411.375 87.9613C411.615 87.955 411.861 87.9425 412.107 87.9363C412.354 87.9238 412.6 87.9051 412.846 87.8864C415.542 87.6742 418.049 87.1063 420.164 86.5571C422.279 85.9892 424.022 85.4275 425.215 85.0344C425.784 84.766 426.491 84.454 427.28 84.0421C428.076 83.6364 428.972 83.1871 429.957 82.7003C430.923 82.1699 431.972 81.6019 433.089 81.0091C434.188 80.385 435.343 79.7235 436.543 79.0432C437.414 78.5315 438.273 78.0322 439.106 77.558C439.921 77.0899 440.672 76.5719 441.399 76.0727C442.118 75.5734 442.813 75.0929 443.463 74.656C444.12 74.2192 444.751 73.8322 445.332 73.4952C446.507 72.8337 447.536 72.4343 448.256 72.2408C448.439 72.1909 448.597 72.1472 448.736 72.116C448.874 72.0911 448.994 72.0723 449.095 72.0536C449.291 72.0224 449.392 72.0037 449.392 72.0037C449.392 72.0037 449.291 72.0349 449.108 72.0973C449.013 72.1285 448.9 72.166 448.761 72.2034C448.628 72.2533 448.477 72.3157 448.3 72.3844C447.612 72.6652 446.664 73.1645 445.578 73.9134C445.035 74.294 444.455 74.7184 443.836 75.199C443.217 75.6795 442.554 76.1975 441.859 76.7404C441.159 77.2771 440.401 77.845 439.567 78.3568C438.747 78.856 437.888 79.3678 437.01 79.8857C435.81 80.5785 434.617 81.2025 433.493 81.8017C432.344 82.3571 431.258 82.8751 430.254 83.3431C429.225 83.7675 428.284 84.1482 427.457 84.4789C426.63 84.8097 425.891 85.0468 425.291 85.2528C424.148 85.7832 422.456 86.5196 420.354 87.2373C418.251 87.9363 415.713 88.6353 412.909 88.8537C412.65 88.8724 412.398 88.8911 412.139 88.9036C411.886 88.9098 411.627 88.9161 411.375 88.9223C410.87 88.9223 410.365 88.8974 409.878 88.8537C408.9 88.7601 407.978 88.5916 407.107 88.3856C406.235 88.1859 405.427 87.9301 404.676 87.6742C404.303 87.5369 403.943 87.4121 403.602 87.2685C403.432 87.1999 403.268 87.1312 403.103 87.0626C402.946 86.9877 402.788 86.9191 402.63 86.8504C401.632 86.4011 400.83 85.9455 400.23 85.5648C399.807 85.4962 399.397 85.4026 399.006 85.2902C398.311 85.0905 397.667 84.8097 397.105 84.4477C397.155 84.3604 397.206 84.273 397.238 84.1669C397.244 84.1482 397.25 84.1357 397.257 84.117C397.793 84.454 398.425 84.7098 399.107 84.8846C399.17 84.9033 399.239 84.9095 399.302 84.9283C399.245 84.8846 399.189 84.8409 399.144 84.8034C399.088 84.7598 399.043 84.7223 399.006 84.6974C398.721 84.585 398.463 84.4852 398.242 84.3916C397.793 84.2231 397.471 84.1045 397.294 84.0358C397.294 84.0296 397.301 84.0234 397.301 84.0171C397.49 84.0608 397.825 84.1419 398.286 84.248C398.658 84.3479 399.113 84.4727 399.637 84.6162C400.161 84.766 400.761 84.9345 401.417 85.1155C401.575 85.1592 401.733 85.2029 401.897 85.2465C403.728 85.2965 405.717 85.078 407.788 84.61ZM399.883 85.0281C399.763 84.9844 399.65 84.9345 399.536 84.8908C399.391 84.8346 399.252 84.7785 399.113 84.7223C399.132 84.7286 399.144 84.741 399.163 84.7473C399.258 84.8034 399.384 84.8721 399.53 84.9532C399.65 84.9844 399.763 85.0094 399.883 85.0281ZM404.189 85.7333C404.789 85.8332 405.421 85.9143 406.077 85.958C406.298 85.9829 406.526 85.9767 406.753 85.9892C406.98 85.9954 407.208 86.0079 407.441 86.0079C407.908 85.9954 408.382 86.0079 408.868 85.9705C409.834 85.933 410.832 85.8082 411.848 85.6647C414.62 85.2465 417.165 84.5164 419.337 83.8798C420.423 83.5553 421.414 83.2495 422.298 82.9812C422.734 82.8439 423.151 82.7253 423.523 82.6005C423.896 82.4757 424.243 82.3696 424.546 82.2635C424.843 82.1324 425.171 81.9826 425.531 81.8204C425.885 81.6456 426.27 81.4584 426.68 81.2525C427.507 80.8655 428.423 80.36 429.433 79.8421C431.435 78.7687 433.746 77.4519 436.259 76.0976C438.103 75.0929 439.896 74.1942 441.588 73.4703C443.299 72.8025 444.878 72.3033 446.235 72.0287C446.911 71.8914 447.517 71.7416 448.066 71.6854C448.609 71.6168 449.064 71.5544 449.417 71.4296C449.424 71.4296 449.436 71.4233 449.443 71.4171C449.361 71.4233 449.285 71.4295 449.203 71.4358C448.862 71.4608 448.515 71.4982 448.174 71.5356C447.833 71.5731 447.485 71.6043 447.138 71.6417C446.797 71.6854 446.456 71.7291 446.121 71.7728L445.61 71.8414C445.439 71.8664 445.269 71.8976 445.099 71.9288C444.758 71.985 444.417 72.0474 444.082 72.1035C443.741 72.166 443.406 72.2471 443.065 72.3157C442.384 72.4468 441.714 72.634 441.039 72.7963C440.704 72.8774 440.369 72.9835 440.035 73.0771C439.7 73.177 439.365 73.2581 439.031 73.3704C438.368 73.5826 437.698 73.7823 437.042 74.0132C435.716 74.4563 434.415 74.9556 433.114 75.4611C431.82 75.979 430.538 76.5033 429.269 77.0462C428 77.5829 426.743 78.1321 425.493 78.6626C424.249 79.1993 423.005 79.7235 421.793 80.2352C419.362 81.2649 417.007 82.3072 414.696 83.1871C413.541 83.6302 412.398 84.0234 411.268 84.3791C410.137 84.7286 409.02 85.0094 407.934 85.2465C406.639 85.5024 405.389 85.6647 404.189 85.7333Z" fill="white"/>
<path d="M419.312 87.6742C419.526 87.6055 419.741 87.5369 419.956 87.4683C420.145 87.4058 420.341 87.3559 420.53 87.2998C420.72 87.2498 420.915 87.1874 421.105 87.1375C421.49 87.0439 421.875 86.9378 422.267 86.8629C422.462 86.8255 422.652 86.7755 422.847 86.7443C423.043 86.7131 423.239 86.6757 423.428 86.6445C423.523 86.6258 423.624 86.607 423.719 86.5945L424.009 86.5571C424.205 86.5321 424.401 86.5072 424.596 86.4822C424.792 86.4635 424.994 86.4448 425.19 86.4198C425.386 86.4011 425.581 86.3824 425.777 86.3636C425.821 86.3574 425.872 86.3574 425.916 86.3512C425.91 86.3512 425.91 86.3574 425.903 86.3574C425.733 86.4198 425.518 86.451 425.272 86.4885C425.493 86.4635 425.714 86.451 425.941 86.4385C426.011 86.4073 426.061 86.3699 426.118 86.3387C426.2 86.3324 426.289 86.3262 426.371 86.32C426.566 86.3075 426.762 86.295 426.958 86.2825L427.248 86.2638L427.539 86.2513C427.735 86.2451 427.924 86.2326 428.113 86.2326C428.877 86.2201 429.635 86.2513 430.368 86.3387C430.462 86.3512 430.551 86.3636 430.639 86.3761C430.727 86.3886 430.822 86.3948 430.911 86.4136C431.087 86.4448 431.27 86.476 431.447 86.5134C431.624 86.5571 431.801 86.6008 431.971 86.6382C432.06 86.657 432.142 86.6819 432.23 86.7131C432.319 86.7381 432.401 86.763 432.489 86.788C432.571 86.813 432.66 86.8379 432.742 86.8691C432.824 86.9003 432.906 86.9315 432.988 86.9627C433.152 87.0252 433.323 87.0813 433.48 87.1562C433.638 87.2249 433.802 87.2935 433.96 87.3684C434.118 87.4495 434.27 87.5244 434.428 87.5993C434.503 87.6367 434.579 87.6804 434.655 87.7241C434.731 87.7678 434.806 87.8115 434.882 87.8489C434.958 87.8864 435.034 87.9363 435.103 87.9738C435.179 88.0174 435.248 88.0611 435.324 88.111C435.469 88.2047 435.615 88.292 435.753 88.3794C435.823 88.4231 435.886 88.473 435.956 88.5167C436.025 88.5604 436.088 88.6103 436.151 88.6602C436.214 88.7102 436.278 88.7601 436.341 88.8038C436.404 88.8537 436.461 88.9099 436.524 88.9598C436.65 89.0596 436.757 89.172 436.871 89.2781C437.092 89.4965 437.3 89.7274 437.49 89.9645C437.679 90.2017 437.85 90.4513 438.001 90.701C438.147 90.9568 438.292 91.2065 438.399 91.4686C438.519 91.7244 438.607 91.9928 438.69 92.2487C438.721 92.3797 438.759 92.5108 438.791 92.6418C438.816 92.7729 438.847 92.8977 438.86 93.0287C438.936 93.5405 438.942 94.0397 438.879 94.5016C438.822 94.9634 438.696 95.3877 438.538 95.7747C438.374 96.1554 438.178 96.4924 437.963 96.7857C437.755 97.0852 437.502 97.3473 437.244 97.6032C437.174 97.6656 437.111 97.728 437.042 97.7842C437.01 97.8154 436.972 97.8466 436.941 97.8716L436.84 97.9527C436.776 98.0089 436.701 98.0588 436.631 98.1087L436.524 98.1836L436.41 98.2522C436.113 98.4332 435.791 98.583 435.463 98.7078C435.135 98.8264 434.794 98.9262 434.453 98.9949C433.765 99.1322 433.07 99.1759 432.394 99.1447C432.053 99.1259 431.719 99.0947 431.397 99.0323C431.233 99.0074 431.075 98.9699 430.911 98.9325C430.829 98.9138 430.753 98.8888 430.671 98.8701C430.595 98.8514 430.513 98.8326 430.437 98.8014C429.199 98.4332 428.126 97.753 427.444 96.8668C427.406 96.8106 427.362 96.7545 427.324 96.6983L427.261 96.6109L427.211 96.5236C427.173 96.4674 427.141 96.405 427.103 96.3488C427.072 96.2864 427.04 96.2302 427.015 96.1678L426.971 96.0805C426.958 96.0493 426.945 96.0181 426.933 95.9869C426.907 95.9244 426.882 95.862 426.857 95.8059C426.838 95.7435 426.819 95.6811 426.794 95.6187L426.762 95.525C426.756 95.4938 426.75 95.4626 426.737 95.4314C426.724 95.369 426.705 95.3066 426.693 95.2442C426.68 95.1818 426.674 95.1194 426.661 95.057L426.649 94.9634L426.642 94.8698C426.636 94.8074 426.636 94.7449 426.63 94.6825C426.63 94.6201 426.63 94.5577 426.63 94.5016C426.63 94.4704 426.63 94.4392 426.63 94.4079L426.636 94.3143C426.642 94.2519 426.649 94.1958 426.649 94.1334C426.661 94.0772 426.667 94.0148 426.68 93.9586C426.686 93.9274 426.686 93.9024 426.693 93.8712L426.712 93.7839C426.724 93.7277 426.737 93.6715 426.75 93.6154C426.768 93.5592 426.787 93.503 426.8 93.4531L426.825 93.372C426.838 93.347 426.844 93.3221 426.857 93.2909C426.876 93.2409 426.901 93.1848 426.92 93.1348C426.945 93.0849 426.971 93.035 426.989 92.9851C427.034 92.8852 427.097 92.7916 427.147 92.698C427.368 92.3298 427.659 92.0302 427.956 91.7993C428.259 91.5684 428.574 91.4062 428.884 91.3001C429.193 91.2002 429.496 91.144 429.768 91.1316C429.799 91.1316 429.837 91.1253 429.869 91.1253C429.9 91.1253 429.932 91.1253 429.97 91.1253C430.033 91.1253 430.096 91.1253 430.159 91.1316C430.197 91.1378 430.229 91.1378 430.267 91.144C429.742 91.3999 429.408 91.9678 429.477 92.5857C429.559 93.372 430.254 93.9461 431.037 93.865C431.813 93.7839 432.382 93.0724 432.3 92.2861C432.224 91.5809 431.662 91.0504 430.986 91.0067C430.955 90.9943 430.923 90.9755 430.885 90.9631C430.791 90.9319 430.69 90.8944 430.582 90.857C430.469 90.8258 430.349 90.7946 430.216 90.7634C430.147 90.7509 430.077 90.7446 430.008 90.7322C429.97 90.7259 429.938 90.7197 429.9 90.7197C429.862 90.7134 429.825 90.7134 429.787 90.7134C429.477 90.6885 429.13 90.7134 428.757 90.8008C428.385 90.8882 427.993 91.0504 427.621 91.3001C427.248 91.5497 426.882 91.8867 426.592 92.3111C426.522 92.4172 426.446 92.5232 426.383 92.6418C426.352 92.698 426.314 92.7604 426.289 92.8166C426.257 92.879 426.232 92.9414 426.2 93.0038C426.188 93.035 426.169 93.0662 426.156 93.0974L426.118 93.1972C426.093 93.2597 426.068 93.3283 426.042 93.3969C426.023 93.4656 426.005 93.5342 425.986 93.6029L425.954 93.709C425.948 93.7464 425.941 93.7776 425.929 93.8151C425.916 93.8837 425.897 93.9586 425.885 94.0273C425.872 94.1022 425.866 94.1708 425.853 94.2457L425.84 94.358C425.834 94.3955 425.834 94.4329 425.834 94.4704C425.828 94.5452 425.828 94.6201 425.821 94.695C425.821 94.7699 425.828 94.851 425.828 94.9259L425.834 95.0445L425.847 95.1631C425.853 95.238 425.866 95.3191 425.872 95.4002C425.885 95.4751 425.903 95.5562 425.916 95.6311C425.922 95.6686 425.929 95.7123 425.941 95.7497L425.973 95.8683C425.992 95.9432 426.017 96.0243 426.042 96.0992C426.068 96.1741 426.099 96.249 426.124 96.3301C426.137 96.3675 426.15 96.405 426.169 96.4424L426.219 96.5548C426.257 96.6297 426.289 96.7045 426.327 96.7794C426.364 96.8543 426.409 96.923 426.446 96.9979L426.51 97.1102L426.579 97.2163C426.623 97.2849 426.674 97.3536 426.718 97.4285C426.92 97.6968 427.141 97.9652 427.394 98.1961C427.514 98.3209 427.652 98.427 427.785 98.5393C427.855 98.5955 427.924 98.6454 427.993 98.6953C428.063 98.7515 428.132 98.8014 428.208 98.8451C428.284 98.895 428.353 98.945 428.429 98.9886C428.505 99.0323 428.581 99.076 428.656 99.1259L428.77 99.1946L428.89 99.257C428.972 99.3007 429.048 99.3381 429.13 99.3818C429.212 99.4193 429.294 99.4567 429.376 99.4941L429.503 99.5503L429.629 99.6002C429.711 99.6314 429.799 99.6689 429.881 99.7001C429.97 99.7313 430.052 99.7563 430.14 99.7875C430.229 99.8187 430.317 99.8436 430.405 99.8686C430.494 99.8936 430.582 99.9185 430.671 99.9435C430.847 99.9872 431.031 100.031 431.214 100.062C431.58 100.137 431.952 100.181 432.331 100.206C433.089 100.256 433.872 100.218 434.655 100.068C435.046 99.9934 435.438 99.8873 435.823 99.7438C436.208 99.6065 436.593 99.4255 436.959 99.2071L437.098 99.1259L437.231 99.0323C437.319 98.9699 437.408 98.9138 437.496 98.8451L437.623 98.7453C437.667 98.7141 437.711 98.6766 437.749 98.6392C437.825 98.5705 437.907 98.4956 437.989 98.427C438.298 98.1337 438.595 97.8154 438.847 97.4597C439.1 97.1039 439.346 96.6921 439.542 96.224C439.738 95.7559 439.883 95.2255 439.952 94.6638C440.091 93.5342 439.915 92.2549 439.359 91.0567C439.226 90.7571 439.062 90.4638 438.892 90.1705C438.709 89.8834 438.513 89.6026 438.292 89.3342C438.077 89.0596 437.831 88.8038 437.578 88.5541C437.446 88.4356 437.319 88.3107 437.174 88.1984C437.105 88.1422 437.035 88.0798 436.966 88.0237C436.896 87.9675 436.821 87.9113 436.745 87.8614C436.675 87.8053 436.6 87.7553 436.518 87.7054C436.442 87.6555 436.366 87.5993 436.29 87.5494C436.139 87.4558 435.987 87.3622 435.829 87.2685C435.753 87.2249 435.678 87.1749 435.596 87.1313C435.514 87.0876 435.438 87.0439 435.356 87.0002C435.274 86.9565 435.198 86.9128 435.116 86.8691C435.034 86.8255 434.952 86.7818 434.87 86.7381C434.705 86.657 434.535 86.5758 434.364 86.4947C434.194 86.4136 434.017 86.3449 433.847 86.27C433.676 86.1951 433.493 86.1327 433.31 86.0703C433.222 86.0391 433.127 86.0079 433.038 85.9767C432.95 85.9455 432.855 85.9205 432.761 85.8956C432.666 85.8706 432.578 85.8394 432.483 85.8145C432.388 85.7895 432.293 85.7583 432.199 85.7396C432.009 85.6959 431.82 85.6522 431.624 85.6085C431.428 85.5773 431.239 85.5461 431.043 85.5087C430.948 85.4899 430.847 85.4837 430.753 85.4712C430.658 85.4587 430.557 85.4463 430.456 85.44C429.673 85.3589 428.877 85.3402 428.082 85.3651C427.88 85.3714 427.684 85.3838 427.482 85.3901L427.185 85.4026L426.889 85.4275C426.686 85.4463 426.491 85.4587 426.289 85.4775C426.093 85.4962 425.891 85.5149 425.689 85.5399C425.487 85.5586 425.291 85.5835 425.089 85.6085C424.887 85.6335 424.691 85.6584 424.489 85.6772C424.287 85.7084 424.085 85.7396 423.883 85.7645L423.58 85.8082C423.479 85.8207 423.378 85.8457 423.277 85.8644C423.075 85.9018 422.873 85.9393 422.677 85.9767C422.475 86.0142 422.279 86.0703 422.077 86.114C421.679 86.2014 421.282 86.3137 420.89 86.4198C420.694 86.4697 420.499 86.5384 420.303 86.5945C420.107 86.657 419.911 86.7069 419.716 86.7755C419.331 86.9066 418.939 87.0314 418.56 87.1749C418.295 87.2685 418.03 87.3746 417.765 87.4745C417.746 87.643 417.727 87.8053 417.708 87.9738C418.251 87.8365 418.781 87.7491 419.312 87.6742Z" fill="white"/>
<path d="M392.483 66.1124C393.424 62.4928 396.101 58.636 400.755 58.636C405.68 58.636 409.954 61.7876 408.666 66.4931C407.511 70.7056 402.996 73.4391 398.482 71.2423C398.254 71.13 398.09 70.9428 398.039 70.7306C397.964 70.6307 397.913 70.5184 397.869 70.3936C396.833 68.7273 398.324 66.3745 400.445 65.4634C402.036 64.7769 404.221 64.4087 405.8 65.0453C406.122 63.7722 405.901 62.3056 405.042 61.5255C404.726 61.2384 404.6 61.0574 404.65 60.7828C404.404 60.6643 404.139 60.5644 403.855 60.4771C401.973 59.9091 399.675 59.7219 397.882 60.7329C393.815 63.042 393.152 68.3903 393.746 72.2159C394.504 77.1273 398.153 81.4771 403.987 82.1761C404.29 82.2135 404.594 82.2323 404.897 82.251C404.966 82.226 405.042 82.2011 405.13 82.1886C408.193 81.8329 411.564 80.8156 413.61 78.5939C415.328 76.7279 417.361 73.8759 415.921 71.7041C414.545 69.6322 416.527 70.4497 417.14 70.8991C418.554 71.9413 418.977 73.4515 419.135 75.0117C420.815 72.3407 422.69 69.3701 426.093 68.4277C429.389 67.5104 433.38 67.5104 436.164 69.445C436.53 69.7009 436.713 70.144 436.499 70.4123C436.492 70.7243 436.069 70.949 435.615 70.9677C431.567 71.1175 427.918 72.9772 424.603 74.9743C421.105 77.0774 417.79 79.4426 414.109 81.2899C410.977 82.8626 407.321 84.0795 403.716 83.5491C400.18 83.0311 396.404 81.084 394.478 78.3505C392.035 74.8619 391.435 70.1502 392.483 66.1124ZM400.054 68.0907C400.028 68.1157 400.003 68.1407 399.978 68.1594C399.997 68.1532 400.016 68.1532 400.028 68.1469C400.041 68.1282 400.047 68.1095 400.054 68.0907Z" fill="white"/>
</svg>
