<svg width="195" height="34" viewBox="0 0 195 34" fill="none" xmlns="http://www.w3.org/2000/svg">
<path d="M110.408 13.6875C110.408 13.6875 115.412 8.80554 143.944 8.51807C172.475 8.23059 189.993 8.2306 195 0.763901C195 0.763901 192.498 5.07091 180.983 5.93334C169.472 6.79577 131.25 6.25932 120.918 9.3805C111.407 12.2527 110.408 13.6875 110.408 13.6875Z" fill="#DFB68D"/>
<path d="M84.5919 13.6875C84.5919 13.6875 79.5876 8.80554 51.0563 8.51807C22.525 8.23059 5.00723 8.2306 0 0.763901C0 0.763901 2.50211 5.07091 14.0166 5.93334C25.5282 6.79577 63.7499 6.25932 74.0824 9.3805C83.5898 12.2527 84.5919 13.6875 84.5919 13.6875Z" fill="#DFB68D"/>
<path d="M56.5046 17.1552C56.5046 17.1552 56.4926 17.1809 56.4686 17.2348C56.4416 17.2861 56.4175 17.3683 56.3575 17.4633C56.2525 17.6609 56.0665 17.9535 55.7245 18.2641C55.5535 18.4207 55.3435 18.5772 55.0945 18.7312C54.8425 18.8801 54.5485 19.0213 54.2185 19.1419C53.5584 19.3858 52.7454 19.5449 51.8393 19.5731C50.9333 19.5988 49.9313 19.5141 48.8932 19.2215C48.6322 19.1496 48.3742 19.0623 48.1132 18.9597C47.8462 18.8596 47.6061 18.7287 47.3451 18.608C46.8471 18.3359 46.3581 18.01 45.9201 17.6147C45.056 16.8164 44.411 15.7563 44.147 14.6116C43.871 13.4694 43.895 12.2604 44.162 11.0874C44.516 9.48576 45.257 8.03555 46.1901 6.79324C46.6611 6.17208 47.1831 5.60226 47.7622 5.10174C47.9092 4.9811 48.0562 4.85277 48.2032 4.7424C48.3502 4.63203 48.4942 4.52165 48.6382 4.41385C48.7792 4.30348 48.9352 4.20594 49.0792 4.10326C49.2262 4.00316 49.3702 3.9005 49.5202 3.81067C50.1083 3.42822 50.7083 3.10736 51.2873 2.81989C51.8783 2.54781 52.4454 2.30398 53.0004 2.1243C54.1014 1.74699 55.1035 1.55192 55.9195 1.44925C56.7056 1.2362 57.7076 1.0437 58.8867 0.956432C60.0657 0.869162 61.4188 0.897397 62.8709 1.08477C65.784 1.44668 69.0361 2.47082 72.2223 3.92104C74.5714 4.98624 76.6865 6.15925 78.5646 7.26039C80.4427 8.3641 82.0927 9.3985 83.4818 10.2584C84.8709 11.1208 86.0019 11.8061 86.797 12.2707C87.193 12.5043 87.505 12.6814 87.715 12.7994C87.925 12.9201 88.039 12.9817 88.039 12.9817C88.039 12.9817 87.916 12.9381 87.682 12.8559C87.448 12.7738 87.103 12.6454 86.6649 12.4735C85.7859 12.1295 84.5318 11.5982 83.0198 10.8923C81.5047 10.1865 79.7316 9.30609 77.7785 8.33072C75.8224 7.35536 73.6864 6.28245 71.4062 5.24804C68.3101 3.83889 65.316 2.72235 62.6278 2.1628C61.2868 1.87789 60.0297 1.72645 58.9107 1.68538C57.7916 1.64431 56.8106 1.70336 56.0185 1.80603C54.4915 2.20901 52.3614 3.06374 50.3363 4.66283C50.2073 4.7578 50.0843 4.86302 49.9553 4.96826C49.8292 5.0735 49.6972 5.17361 49.5742 5.28655C49.4512 5.39692 49.3252 5.50729 49.1992 5.62023C49.0702 5.73317 48.9622 5.84611 48.8422 5.96161C48.3772 6.42619 47.9542 6.95494 47.5671 7.52476C46.8051 8.6644 46.1871 9.97858 45.8811 11.3749C45.6471 12.399 45.6111 13.418 45.7911 14.3498C45.9621 15.2892 46.4091 16.1183 47.0271 16.7882C47.3451 17.1193 47.7082 17.4042 48.0922 17.6609C48.2962 17.7738 48.4882 17.9047 48.6922 17.9997C48.8962 18.0998 49.1032 18.1922 49.3162 18.2718C50.1683 18.5978 51.0473 18.7672 51.8543 18.8313C52.6644 18.8929 53.4084 18.8416 54.0354 18.7004C54.3475 18.6311 54.6325 18.5413 54.8845 18.4386C55.1335 18.3308 55.3525 18.2179 55.5385 18.0972C55.9105 17.8585 56.1475 17.6121 56.2915 17.4376C56.3695 17.3529 56.4115 17.2784 56.4505 17.2322C56.4896 17.1783 56.5046 17.1552 56.5046 17.1552Z" fill="#DFB68D"/>
<path d="M135.876 17.1552C135.876 17.1552 135.888 17.1809 135.912 17.2348C135.939 17.2861 135.963 17.3683 136.023 17.4633C136.128 17.6609 136.314 17.9535 136.656 18.2641C136.827 18.4207 137.037 18.5772 137.286 18.7312C137.538 18.8801 137.832 19.0213 138.162 19.1419C138.822 19.3858 139.635 19.5449 140.541 19.5731C141.447 19.5988 142.45 19.5141 143.488 19.2215C143.749 19.1496 144.007 19.0623 144.268 18.9597C144.535 18.8596 144.775 18.7287 145.036 18.608C145.534 18.3359 146.023 18.01 146.461 17.6147C147.325 16.8164 147.97 15.7563 148.234 14.6116C148.51 13.4694 148.486 12.2604 148.219 11.0874C147.865 9.48576 147.124 8.03555 146.191 6.79324C145.72 6.17208 145.198 5.60226 144.619 5.10174C144.472 4.9811 144.325 4.85277 144.178 4.7424C144.031 4.63203 143.887 4.52165 143.743 4.41385C143.602 4.30348 143.446 4.20594 143.302 4.10326C143.155 4.00316 143.011 3.9005 142.861 3.81067C142.273 3.42822 141.672 3.10736 141.093 2.81989C140.502 2.54781 139.935 2.30398 139.38 2.1243C138.279 1.74699 137.277 1.55192 136.461 1.44925C135.675 1.2362 134.673 1.0437 133.494 0.956432C132.315 0.869162 130.962 0.897397 129.51 1.08477C126.597 1.44668 123.345 2.47082 120.158 3.92104C117.809 4.98624 115.694 6.15925 113.816 7.26039C111.938 8.3641 110.288 9.3985 108.899 10.2584C107.51 11.1208 106.379 11.8061 105.584 12.2707C105.188 12.5043 104.876 12.6814 104.666 12.7994C104.456 12.9201 104.342 12.9817 104.342 12.9817C104.342 12.9817 104.465 12.9381 104.699 12.8559C104.933 12.7738 105.278 12.6454 105.716 12.4735C106.595 12.1295 107.849 11.5982 109.361 10.8923C110.876 10.1865 112.649 9.30609 114.602 8.33072C116.558 7.35536 118.694 6.28245 120.975 5.24804C124.071 3.83889 127.065 2.72235 129.753 2.1628C131.094 1.87789 132.351 1.72645 133.47 1.68538C134.589 1.64431 135.57 1.70336 136.362 1.80603C137.889 2.20901 140.019 3.06374 142.044 4.66283C142.173 4.7578 142.297 4.86302 142.426 4.96826C142.552 5.0735 142.684 5.17361 142.807 5.28655C142.93 5.39692 143.056 5.50729 143.182 5.62023C143.311 5.73317 143.419 5.84611 143.539 5.96161C144.004 6.42619 144.427 6.95494 144.814 7.52476C145.576 8.6644 146.194 9.97858 146.5 11.3749C146.734 12.399 146.77 13.418 146.59 14.3498C146.419 15.2892 145.972 16.1183 145.354 16.7882C145.036 17.1193 144.673 17.4042 144.289 17.6609C144.085 17.7738 143.893 17.9047 143.689 17.9997C143.485 18.0998 143.278 18.1922 143.065 18.2718C142.213 18.5978 141.333 18.7672 140.526 18.8313C139.716 18.8929 138.972 18.8416 138.345 18.7004C138.033 18.6311 137.748 18.5413 137.496 18.4386C137.247 18.3308 137.028 18.2179 136.842 18.0972C136.47 17.8585 136.233 17.6121 136.089 17.4376C136.011 17.3529 135.969 17.2784 135.93 17.2322C135.894 17.1783 135.876 17.1552 135.876 17.1552Z" fill="#DFB68D"/>
<path d="M96.4274 13.536C95.7794 12.8584 95.2274 12.1192 94.7293 11.3466C94.2463 10.5689 93.8173 9.75521 93.5533 8.87481C93.4213 8.43589 93.3283 7.97902 93.3283 7.5016C93.3283 7.02932 93.4153 6.52879 93.6703 6.06164C93.7903 5.8255 93.9733 5.61246 94.1773 5.41995C94.3843 5.24284 94.5853 5.08885 94.8043 4.93484C95.2604 4.6448 95.8034 4.39838 96.4364 4.32908C97.0725 4.26234 97.7505 4.44972 98.2275 4.78854C98.7165 5.12221 99.0375 5.56882 99.2355 6.03084C99.4305 6.49542 99.5116 6.98311 99.4936 7.46566C99.4606 7.96105 99.3256 8.39483 99.1756 8.82861C98.8635 9.68591 98.4435 10.4893 97.9815 11.2722C97.5105 12.055 97.0094 12.8148 96.4274 13.536ZM96.4274 13.536C97.1744 11.9164 97.9305 10.2942 98.3955 8.65407C98.4945 8.24596 98.5785 7.83015 98.5845 7.45283C98.5755 7.06782 98.4855 6.68536 98.3175 6.33885C98.1525 5.99491 97.9125 5.67663 97.5975 5.47386C97.2855 5.26595 96.9224 5.17611 96.5444 5.21718C96.1664 5.25311 95.7764 5.40968 95.4164 5.63042C95.2454 5.7485 95.0594 5.88454 94.9093 6.01032C94.7713 6.13865 94.6483 6.27468 94.5553 6.43382C94.1563 7.06524 94.1923 7.91741 94.3483 8.72593C94.5223 9.54473 94.8283 10.361 95.1944 11.1592C95.5484 11.9678 95.9744 12.7532 96.4274 13.536Z" fill="#DFB68D"/>
<path d="M95.8093 33.2359C95.8093 33.2359 95.7643 33.2154 95.6803 33.1743C95.6353 33.1563 95.5873 33.1255 95.5303 33.0896C95.4703 33.0562 95.4103 33.0075 95.3413 32.9536C95.2093 32.8406 95.0653 32.6866 94.9543 32.4787C94.8403 32.2708 94.7593 32.0167 94.7203 31.7215C94.6423 31.1337 94.7383 30.3996 95.0113 29.5886C95.1493 29.183 95.3323 28.7569 95.5783 28.3283C95.7013 28.1152 95.8393 27.8996 96.0014 27.6943C96.1694 27.4787 96.3404 27.2579 96.5174 27.0321C97.2224 26.1311 98.0054 25.1532 98.9805 24.206C99.2265 23.9699 99.4815 23.7363 99.7515 23.5079C100.025 23.282 100.307 23.0587 100.61 22.8457C100.913 22.6352 101.231 22.435 101.564 22.2476C101.9 22.0654 102.254 21.8985 102.623 21.7522C102.992 21.6059 103.382 21.4904 103.784 21.3954C103.985 21.3467 104.189 21.3133 104.396 21.28C104.501 21.2671 104.603 21.2543 104.708 21.2414C104.759 21.2337 104.813 21.2286 104.867 21.226L105.029 21.2132C105.896 21.1439 106.787 21.1439 107.657 21.2722C108.089 21.3415 108.518 21.4365 108.914 21.5828C109.313 21.724 109.685 21.9165 109.988 22.1552C110.291 22.3939 110.522 22.684 110.627 22.9997C110.735 23.3128 110.702 23.6491 110.543 23.9494C110.489 24.052 110.417 24.1496 110.339 24.242C110.258 24.3344 110.165 24.4217 110.063 24.5038C109.856 24.6655 109.613 24.8015 109.352 24.9145C108.824 25.1378 108.224 25.261 107.618 25.32C107.315 25.3483 107.006 25.3611 106.7 25.3611C106.394 25.3611 106.088 25.3457 105.782 25.3252C105.194 25.2764 104.612 25.1558 104.045 24.9992C103.478 24.8426 102.929 24.6501 102.395 24.4422C101.861 24.2343 101.342 24.011 100.841 23.78C99.8355 23.318 98.8845 22.8303 97.9814 22.3503C97.0784 21.8703 96.2234 21.3955 95.4103 20.9411C94.6003 20.4868 93.8322 20.0556 93.1122 19.6501C91.6721 18.8415 90.4121 18.1485 89.3711 17.6069C88.366 17.0191 87.1239 16.3056 85.6119 15.5689C84.8558 15.2019 84.0308 14.8348 83.1218 14.496C82.6657 14.3317 82.1917 14.1726 81.6907 14.0314C81.1897 13.8954 80.6646 13.7773 80.1126 13.6977C79.5606 13.6207 78.9816 13.5822 78.3845 13.6207C77.7905 13.6592 77.1785 13.7799 76.6085 14.0058C76.5365 14.0314 76.4674 14.0622 76.3984 14.0956C76.3294 14.129 76.2604 14.1598 76.1914 14.1931C76.1224 14.2265 76.0594 14.265 75.9904 14.3009C75.9244 14.3394 75.8584 14.3754 75.7924 14.4139C75.7294 14.4549 75.6694 14.4986 75.6064 14.5396L75.5134 14.6038C75.4834 14.6243 75.4504 14.6449 75.4204 14.6706C75.3574 14.7219 75.2944 14.7681 75.2374 14.8246C75.2074 14.8528 75.1804 14.8785 75.1504 14.9067L75.0694 14.9965L75.0304 15.0427L74.9944 15.0915L74.9254 15.189L74.8654 15.2917C74.8564 15.3097 74.8444 15.3276 74.8354 15.343L74.8114 15.3969C74.7424 15.5407 74.7064 15.6972 74.6884 15.8513L74.6794 15.9668L74.6824 16.0823C74.6824 16.1208 74.6884 16.1593 74.6944 16.1978C74.7004 16.2363 74.7034 16.2748 74.7124 16.3107C74.7424 16.4596 74.7934 16.6033 74.8534 16.7419C74.9794 17.0166 75.1534 17.2681 75.3574 17.4966C75.5614 17.725 75.7894 17.9355 76.0384 18.128C76.2874 18.3205 76.5545 18.4976 76.8365 18.6567C76.9805 18.7363 77.1245 18.8133 77.2745 18.8826L77.3885 18.9365L77.5025 18.9853C77.5805 19.0186 77.6555 19.0494 77.7335 19.0828C78.0455 19.2034 78.3665 19.3112 78.6936 19.4011C79.0206 19.4884 79.3536 19.5654 79.6926 19.6244C80.3676 19.7476 81.0577 19.8118 81.7507 19.8426C82.7707 19.8862 83.7728 19.8477 84.7508 19.7707C85.7289 19.6937 86.6829 19.5731 87.61 19.437C88.075 19.3677 88.534 19.2958 88.984 19.2188C89.098 19.1983 89.206 19.1829 89.326 19.1598L89.506 19.1264L89.6801 19.0879C89.9111 19.034 90.1361 18.975 90.3551 18.9108C90.7931 18.7851 91.2101 18.6413 91.6212 18.4976C92.0292 18.3513 92.4312 18.2024 92.8212 18.051C94.3873 17.4478 95.8453 16.8395 97.2224 16.2953C98.5995 15.7486 99.8895 15.2609 101.09 14.8579C102.287 14.4549 103.397 14.1392 104.39 13.9339C105.383 13.7286 106.265 13.6387 106.982 13.6669C107.702 13.6926 108.245 13.844 108.575 14.0006C108.617 14.0186 108.656 14.0366 108.692 14.0545C108.728 14.0725 108.758 14.0905 108.791 14.1084C108.821 14.1238 108.848 14.1392 108.875 14.1546C108.899 14.17 108.92 14.1854 108.938 14.1983C109.016 14.2496 109.055 14.2753 109.055 14.2753C109.055 14.2753 109.019 14.247 108.944 14.1931C108.926 14.1803 108.905 14.1649 108.884 14.1469C108.86 14.1315 108.833 14.1136 108.803 14.0956C108.773 14.0776 108.743 14.0571 108.71 14.0366C108.674 14.016 108.635 13.9981 108.596 13.975C108.275 13.8004 107.729 13.6156 106.994 13.554C106.259 13.4898 105.353 13.5412 104.33 13.708C103.307 13.8749 102.164 14.1521 100.934 14.5165C99.7005 14.8785 98.3775 15.3302 96.9734 15.841C95.5693 16.3492 94.0843 16.9216 92.5182 17.4888C92.1252 17.63 91.7291 17.7712 91.3241 17.9047C90.9221 18.0381 90.5111 18.169 90.0971 18.282C89.8901 18.341 89.6831 18.3898 89.473 18.436L89.317 18.4668L89.161 18.495C89.056 18.513 88.939 18.531 88.828 18.5464C88.378 18.6157 87.925 18.6824 87.466 18.744C86.5509 18.8698 85.6179 18.9776 84.6698 19.0469C83.7218 19.1162 82.7587 19.147 81.7957 19.1085C81.1417 19.0777 80.4966 19.0186 79.8756 18.9083C79.5636 18.8569 79.2606 18.7876 78.9636 18.7106C78.6666 18.6311 78.3815 18.5361 78.1025 18.4334L77.8985 18.3487L77.7965 18.3076L77.6975 18.2614C77.5655 18.2024 77.4395 18.1357 77.3135 18.0689C77.0645 17.9303 76.8305 17.7789 76.6115 17.6146C76.1794 17.2861 75.8134 16.9036 75.6184 16.4981C75.5734 16.398 75.5344 16.2953 75.5134 16.1952C75.5044 16.1695 75.5044 16.1439 75.5014 16.1208C75.4984 16.0951 75.4924 16.0694 75.4924 16.0463L75.4894 15.9719L75.4924 15.9C75.5014 15.8051 75.5194 15.7101 75.5614 15.6202L75.5734 15.5869C75.5794 15.5766 75.5854 15.5638 75.5914 15.5535L75.6274 15.4868L75.6724 15.4226L75.6934 15.3918L75.7204 15.361L75.7714 15.2994L75.8314 15.2404C75.8674 15.1993 75.9154 15.1659 75.9574 15.1274C75.9784 15.1095 76.0024 15.0915 76.0294 15.071L76.1074 15.0171C76.1584 14.9811 76.2094 14.9426 76.2634 14.9067C76.3175 14.8733 76.3745 14.8425 76.4285 14.8092C76.4855 14.7784 76.5365 14.7424 76.5935 14.7142C76.6505 14.6859 76.7075 14.6577 76.7675 14.6295C76.8245 14.6012 76.8815 14.573 76.9415 14.5499C77.4155 14.3523 77.9315 14.2368 78.4535 14.188C78.9756 14.1418 79.5036 14.1598 80.0166 14.2188C80.5296 14.2778 81.0307 14.3754 81.5137 14.4909C81.9967 14.6115 82.4617 14.7501 82.9117 14.8964C83.8088 15.1967 84.6368 15.5304 85.4019 15.8667C86.9319 16.5391 88.213 17.1988 89.251 17.7404C90.2531 18.3282 91.4651 19.0674 92.8632 19.9273C93.5622 20.3559 94.3063 20.8154 95.0983 21.2954C95.8903 21.7753 96.7304 22.2759 97.6214 22.7841C98.5125 23.2923 99.4575 23.8082 100.472 24.301C100.979 24.5474 101.507 24.7861 102.053 25.012C102.602 25.2379 103.175 25.4484 103.778 25.6255C104.381 25.8 105.02 25.9438 105.698 26.0079C106.025 26.0336 106.358 26.0541 106.694 26.0567C107.03 26.0593 107.369 26.049 107.714 26.0182C108.398 25.9566 109.097 25.8206 109.754 25.5485C110.081 25.4099 110.396 25.2353 110.675 25.0172C110.813 24.9068 110.945 24.7861 111.059 24.6552C111.173 24.5218 111.275 24.3806 111.356 24.2266C111.596 23.7774 111.644 23.2512 111.479 22.7866C111.32 22.3195 110.987 21.9191 110.591 21.6111C110.192 21.3031 109.73 21.072 109.256 20.9078C108.782 20.7384 108.29 20.6331 107.801 20.5638C106.823 20.4278 105.86 20.4457 104.936 20.533L104.762 20.551C104.705 20.5561 104.648 20.5638 104.588 20.5715C104.471 20.5869 104.354 20.6049 104.24 20.6203C104.012 20.6639 103.781 20.7024 103.559 20.7615C103.115 20.8718 102.686 21.0104 102.284 21.1798C101.882 21.3467 101.504 21.5392 101.147 21.7445C100.793 21.9524 100.46 22.1757 100.148 22.4067C99.8355 22.6378 99.5475 22.8816 99.2715 23.1255C98.9985 23.3719 98.7435 23.6208 98.5005 23.8724C97.5344 24.8811 96.7904 25.8975 96.1274 26.8241C95.9623 27.0552 95.8033 27.2836 95.6473 27.5043C95.4853 27.7328 95.3503 27.9638 95.2363 28.1922C95.0053 28.6491 94.8463 29.0932 94.7293 29.5167C94.4983 30.3611 94.4503 31.1183 94.5733 31.7215C94.6333 32.0218 94.7383 32.2836 94.8733 32.4916C95.0053 32.702 95.1643 32.8535 95.3083 32.9613C95.3833 33.0126 95.4463 33.0588 95.5123 33.0896C95.5723 33.123 95.6233 33.1512 95.6713 33.1666C95.7643 33.2179 95.8093 33.2359 95.8093 33.2359Z" fill="#DFB68D"/>
<path d="M95.8273 33.2361C95.8273 33.2361 95.8724 33.2182 95.9624 33.1822C96.0074 33.1668 96.0584 33.1386 96.1214 33.1052C96.1844 33.0744 96.2504 33.0282 96.3254 32.9769C96.4694 32.8691 96.6284 32.7177 96.7604 32.5072C96.8924 32.2993 96.9974 32.0375 97.0604 31.7372C97.1834 31.134 97.1354 30.3768 96.9044 29.5323C96.7874 29.1114 96.6254 28.6647 96.3974 28.2079C96.2834 27.9794 96.1484 27.7484 95.9864 27.52C95.8304 27.2992 95.6713 27.0733 95.5063 26.8398C94.8463 25.9132 94.0993 24.8942 93.1332 23.888C92.8902 23.6365 92.6352 23.3875 92.3622 23.1411C92.0862 22.8972 91.7982 22.656 91.4862 22.4224C91.1741 22.1914 90.8411 21.9681 90.4871 21.7602C90.1301 21.5548 89.7521 21.3649 89.3501 21.1955C88.948 21.0261 88.519 20.8875 88.075 20.7771C87.853 20.7181 87.625 20.6796 87.394 20.6359C87.277 20.6205 87.163 20.6026 87.046 20.5872C86.986 20.5795 86.9289 20.5717 86.8719 20.5666L86.6979 20.5486C85.7769 20.4614 84.8108 20.4434 83.8328 20.5794C83.3468 20.6513 82.8548 20.7566 82.3777 20.9234C81.9037 21.0877 81.4417 21.3187 81.0427 21.6267C80.6437 21.9347 80.3106 22.3351 80.1546 22.8023C79.9896 23.2668 80.0376 23.793 80.2776 24.2422C80.3587 24.3937 80.4607 24.5374 80.5747 24.6709C80.6917 24.8018 80.8207 24.9224 80.9587 25.0328C81.2377 25.251 81.5527 25.4255 81.8797 25.5641C82.5367 25.8362 83.2358 25.9722 83.9198 26.0338C84.2618 26.062 84.6008 26.0749 84.9399 26.0723C85.2759 26.0697 85.6089 26.0492 85.9359 26.0235C86.6139 25.9619 87.253 25.8182 87.856 25.6411C88.459 25.464 89.032 25.2535 89.5811 25.0276C90.1301 24.8018 90.6581 24.5631 91.1621 24.3166C92.1762 23.8213 93.1212 23.3079 94.0123 22.7997C94.9033 22.2915 95.7433 21.791 96.5354 21.311C97.3274 20.831 98.0715 20.3715 98.7705 19.9429C100.169 19.083 101.381 18.3438 102.383 17.756C103.421 17.2144 104.702 16.5548 106.232 15.8823C106.997 15.5486 107.828 15.2149 108.722 14.9121C109.172 14.7657 109.637 14.6246 110.12 14.5065C110.603 14.391 111.104 14.2935 111.617 14.2344C112.13 14.1754 112.658 14.1549 113.18 14.2036C113.702 14.2498 114.218 14.3653 114.692 14.5655C114.752 14.5861 114.809 14.6169 114.866 14.6451C114.923 14.6733 114.98 14.7016 115.04 14.7298C115.097 14.758 115.151 14.794 115.205 14.8248C115.259 14.8581 115.316 14.8889 115.37 14.9223C115.421 14.9582 115.472 14.9967 115.526 15.0327L115.604 15.0866C115.631 15.1046 115.658 15.1225 115.676 15.1431C115.718 15.179 115.766 15.2149 115.802 15.256L115.862 15.315L115.913 15.3766L115.94 15.4074L115.961 15.4382L116.006 15.5024L116.042 15.5691C116.048 15.5794 116.054 15.5897 116.06 15.6025L116.072 15.6359C116.114 15.7257 116.132 15.8207 116.141 15.9156L116.144 15.9875L116.141 16.062C116.141 16.0876 116.135 16.1107 116.132 16.1364C116.126 16.1621 116.126 16.1852 116.12 16.2108C116.099 16.3109 116.06 16.4136 116.015 16.5137C115.82 16.9193 115.454 17.3017 115.022 17.6302C114.806 17.7945 114.569 17.946 114.32 18.0846C114.194 18.1513 114.068 18.218 113.936 18.2771L113.837 18.3233L113.735 18.3643L113.531 18.449C113.252 18.5543 112.967 18.6492 112.67 18.7263C112.373 18.8033 112.07 18.8726 111.758 18.9239C111.137 19.0343 110.492 19.0933 109.838 19.1241C108.875 19.1652 107.912 19.1318 106.964 19.0625C106.016 18.9932 105.083 18.8854 104.168 18.7596C103.709 18.698 103.256 18.6287 102.806 18.562C102.695 18.544 102.578 18.5286 102.473 18.5106L102.317 18.4824L102.161 18.4516C101.954 18.4054 101.744 18.3566 101.537 18.2976C101.123 18.1847 100.712 18.0538 100.31 17.9203C99.9075 17.7868 99.5085 17.6456 99.1155 17.5045C97.5464 16.9372 96.0644 16.3648 94.6603 15.8566C93.2562 15.3484 91.9332 14.8966 90.7001 14.5322C89.4701 14.1677 88.327 13.893 87.304 13.7236C86.2809 13.5568 85.3719 13.5055 84.6398 13.5696C83.9048 13.6312 83.3588 13.816 83.0378 13.9906C82.9958 14.0111 82.9568 14.0316 82.9238 14.0522C82.8908 14.0727 82.8577 14.0933 82.8307 14.1112C82.8007 14.1292 82.7738 14.1471 82.7498 14.1625C82.7258 14.1805 82.7078 14.1959 82.6898 14.2087C82.6177 14.2627 82.5787 14.2909 82.5787 14.2909C82.5787 14.2909 82.6178 14.2652 82.6958 14.2139C82.7138 14.2011 82.7377 14.1882 82.7587 14.1703C82.7827 14.1574 82.8128 14.142 82.8428 14.1241C82.8728 14.1087 82.9058 14.0907 82.9418 14.0701C82.9778 14.0522 83.0168 14.0342 83.0588 14.0162C83.3888 13.8622 83.9318 13.7108 84.6518 13.6826C85.3689 13.6543 86.2509 13.7442 87.244 13.9495C88.237 14.1549 89.3441 14.4706 90.5441 14.8735C91.7442 15.2765 93.0342 15.7642 94.4113 16.3109C95.7884 16.8551 97.2464 17.4608 98.8125 18.0666C99.2055 18.218 99.6045 18.3669 100.013 18.5132C100.424 18.6569 100.841 18.8007 101.279 18.9265C101.498 18.9906 101.723 19.0497 101.954 19.1036L102.128 19.1421L102.308 19.1754C102.428 19.196 102.536 19.2139 102.65 19.2345C103.103 19.3089 103.559 19.3833 104.024 19.4526C104.954 19.5887 105.905 19.7093 106.883 19.7863C107.861 19.8633 108.863 19.8993 109.883 19.8582C110.576 19.8248 111.266 19.7632 111.941 19.64C112.28 19.581 112.613 19.504 112.94 19.4167C113.267 19.3269 113.588 19.2191 113.9 19.0984C113.978 19.0676 114.053 19.0343 114.131 19.0009L114.245 18.9521L114.359 18.8982C114.509 18.8289 114.656 18.7519 114.797 18.6723C115.079 18.5132 115.349 18.3361 115.595 18.1436C115.844 17.9511 116.072 17.7406 116.276 17.5122C116.48 17.2837 116.651 17.0296 116.78 16.7576C116.84 16.6189 116.891 16.4752 116.921 16.3263C116.93 16.2904 116.933 16.2519 116.939 16.2134C116.945 16.1749 116.951 16.139 116.951 16.0979L116.954 15.9824L116.945 15.8669C116.927 15.7129 116.891 15.5563 116.822 15.4126L116.798 15.3587C116.789 15.3407 116.78 15.3227 116.768 15.3073L116.708 15.2047L116.639 15.1071L116.603 15.0584L116.564 15.0121L116.483 14.9223C116.456 14.8941 116.426 14.8658 116.396 14.8402C116.339 14.7837 116.276 14.7349 116.213 14.6862C116.183 14.6605 116.15 14.64 116.12 14.6194L116.027 14.5553C115.964 14.5142 115.904 14.4706 115.841 14.4295C115.775 14.391 115.709 14.3551 115.643 14.3166C115.577 14.2806 115.514 14.2395 115.442 14.2087C115.373 14.1754 115.304 14.1446 115.235 14.1112C115.166 14.0779 115.097 14.047 115.025 14.0214C114.455 13.7955 113.843 13.6749 113.249 13.6364C112.652 13.5979 112.073 13.6338 111.521 13.7134C110.969 13.7929 110.444 13.911 109.943 14.0471C109.442 14.1857 108.968 14.3448 108.512 14.5116C107.606 14.8505 106.778 15.2175 106.022 15.5845C104.513 16.3212 103.268 17.0348 102.263 17.6225C101.222 18.1667 99.9616 18.8572 98.5215 19.6657C97.8015 20.0712 97.0334 20.5024 96.2234 20.9568C95.4103 21.4111 94.5553 21.8859 93.6522 22.3659C92.7492 22.8459 91.7982 23.3336 90.7931 23.7956C90.2891 24.0266 89.7731 24.2499 89.2391 24.4578C88.705 24.6657 88.156 24.8582 87.589 25.0148C87.022 25.1714 86.4399 25.292 85.8519 25.3408C85.5459 25.3613 85.2399 25.3767 84.9338 25.3767C84.6278 25.3767 84.3218 25.3639 84.0158 25.3357C83.4098 25.2766 82.8098 25.1534 82.2817 24.9301C82.0207 24.8172 81.7777 24.6811 81.5707 24.5194C81.4687 24.4373 81.3757 24.35 81.2947 24.2576C81.2167 24.1652 81.1447 24.0651 81.0907 23.965C80.9317 23.6621 80.8987 23.3285 81.0067 23.0153C81.1117 22.6996 81.3427 22.4095 81.6457 22.1708C81.9517 21.9321 82.3207 21.7396 82.7197 21.5985C83.1188 21.4522 83.5448 21.3572 83.9768 21.2879C84.8468 21.157 85.7379 21.157 86.6049 21.2288L86.7669 21.2417C86.8209 21.2468 86.8749 21.2519 86.9259 21.2571C87.0309 21.2699 87.1359 21.2827 87.238 21.2956C87.445 21.3315 87.649 21.3623 87.85 21.4111C88.252 21.5035 88.642 21.619 89.011 21.7679C89.3801 21.9142 89.7341 22.081 90.0701 22.2632C90.4061 22.4506 90.7211 22.6508 91.0241 22.8613C91.3241 23.0743 91.6092 23.2951 91.8822 23.5235C92.1522 23.752 92.4072 23.9855 92.6532 24.2217C93.6283 25.1714 94.4113 26.1493 95.1163 27.0477C95.2933 27.2736 95.4643 27.4943 95.6324 27.7099C95.7974 27.9178 95.9324 28.1308 96.0554 28.3439C96.3014 28.7725 96.4814 29.1986 96.6224 29.6042C96.8954 30.4153 96.9914 31.1494 96.9134 31.7372C96.8744 32.0298 96.7904 32.2864 96.6794 32.4943C96.5684 32.7023 96.4244 32.8588 96.2924 32.9692C96.2234 33.0231 96.1634 33.0719 96.1034 33.1052C96.0464 33.1412 95.9954 33.172 95.9534 33.1899C95.8694 33.2156 95.8273 33.2361 95.8273 33.2361Z" fill="#DFB68D"/>
</svg>
