<svg width="50" height="50" viewBox="0 0 50 50" fill="none" xmlns="http://www.w3.org/2000/svg">
<path d="M30.6125 49.0385C40.7565 49.0385 48.9798 41.2896 48.9798 31.7308C48.9798 22.172 40.7565 14.4231 30.6125 14.4231C20.4685 14.4231 12.2451 22.172 12.2451 31.7308C12.2451 41.2896 20.4685 49.0385 30.6125 49.0385Z" fill="#0098D2"/>
<path d="M30.6124 50C26.7778 50 23.0294 48.9285 19.8411 46.9211C16.6528 44.9136 14.1678 42.0604 12.7004 38.7221C11.233 35.3838 10.8491 31.7105 11.5971 28.1666C12.3452 24.6228 14.1917 21.3675 16.9032 18.8125C19.6146 16.2575 23.0692 14.5175 26.83 13.8126C30.5909 13.1077 34.4891 13.4695 38.0317 14.8522C41.5744 16.235 44.6023 18.5766 46.7327 21.5809C48.8631 24.5853 50.0001 28.1175 50.0001 31.7308C49.9944 36.5744 47.95 41.2182 44.3153 44.6432C40.6806 48.0682 35.7526 49.9947 30.6124 50ZM30.6124 15.3846C27.1815 15.3846 23.8276 16.3433 20.9749 18.1395C18.1222 19.9356 15.8988 22.4885 14.5859 25.4754C13.2729 28.4623 12.9294 31.7489 13.5988 34.9198C14.2681 38.0906 15.9202 41.0032 18.3462 43.2893C20.7722 45.5753 23.8632 47.1321 27.2282 47.7628C30.5931 48.3936 34.081 48.0699 37.2508 46.8327C40.4205 45.5955 43.1297 43.5003 45.0358 40.8122C46.9419 38.1241 47.9593 34.9637 47.9593 31.7308C47.9542 27.397 46.1249 23.2421 42.8728 20.1777C39.6208 17.1132 35.2115 15.3895 30.6124 15.3846Z" fill="#231F20"/>
<path d="M30.6124 49.0385C35.6844 49.0385 39.7961 41.2896 39.7961 31.7308C39.7961 22.172 35.6844 14.4231 30.6124 14.4231C25.5404 14.4231 21.4287 22.172 21.4287 31.7308C21.4287 41.2896 25.5404 49.0385 30.6124 49.0385Z" fill="#7CC2E4"/>
<path d="M30.6123 50C24.8909 50 20.4082 41.975 20.4082 31.7308C20.4082 21.4865 24.8909 13.4615 30.6123 13.4615C36.3337 13.4615 40.8164 21.4865 40.8164 31.7308C40.8164 41.975 36.3337 50 30.6123 50ZM30.6123 15.3846C26.1878 15.3846 22.449 22.8702 22.449 31.7308C22.449 40.5914 26.1878 48.0769 30.6123 48.0769C35.0368 48.0769 38.7755 40.5914 38.7755 31.7308C38.7755 22.8702 35.0378 15.3846 30.6123 15.3846Z" fill="#231F20"/>
<path d="M30.6122 50C30.3416 50 30.082 49.8987 29.8907 49.7184C29.6993 49.5381 29.5918 49.2935 29.5918 49.0385V14.4231C29.5918 14.1681 29.6993 13.9235 29.8907 13.7432C30.082 13.5629 30.3416 13.4615 30.6122 13.4615C30.8828 13.4615 31.1424 13.5629 31.3337 13.7432C31.5251 13.9235 31.6326 14.1681 31.6326 14.4231V49.0385C31.6326 49.2935 31.5251 49.5381 31.3337 49.7184C31.1424 49.8987 30.8828 50 30.6122 50Z" fill="#231F20"/>
<path d="M48.9797 32.6924H12.245C11.9744 32.6924 11.7148 32.5911 11.5235 32.4107C11.3321 32.2304 11.2246 31.9858 11.2246 31.7308C11.2246 31.4758 11.3321 31.2312 11.5235 31.0509C11.7148 30.8706 11.9744 30.7693 12.245 30.7693H48.9797C49.2503 30.7693 49.5099 30.8706 49.7012 31.0509C49.8926 31.2312 50.0001 31.4758 50.0001 31.7308C50.0001 31.9858 49.8926 32.2304 49.7012 32.4107C49.5099 32.5911 49.2503 32.6924 48.9797 32.6924Z" fill="#231F20"/>
<path d="M30.6121 25.9615C28.0074 25.9707 25.4279 25.4811 23.03 24.5225C20.6322 23.5638 18.4661 22.156 16.6631 20.3846C16.566 20.2946 16.489 20.1871 16.4367 20.0686C16.3844 19.95 16.3577 19.8228 16.3584 19.6944C16.3591 19.5661 16.387 19.4391 16.4406 19.3211C16.4942 19.203 16.5723 19.0963 16.6704 19.0071C16.7685 18.918 16.8845 18.8483 17.0116 18.8021C17.1387 18.7559 17.2744 18.7341 17.4106 18.7381C17.5467 18.7421 17.6807 18.7718 17.8045 18.8253C17.9283 18.8789 18.0395 18.9553 18.1315 19.05C19.7494 20.6292 21.6883 21.8852 23.8325 22.743C25.9766 23.6008 28.2822 24.0429 30.6116 24.0429C32.941 24.0429 35.2466 23.6008 37.3908 22.743C39.5349 21.8852 41.4738 20.6292 43.0917 19.05C43.2795 18.8664 43.5371 18.7606 43.8076 18.7559C44.0782 18.7512 44.3397 18.848 44.5346 19.025C44.7294 19.202 44.8417 19.4447 44.8467 19.6996C44.8516 19.9546 44.7489 20.201 44.5611 20.3846C42.758 22.1559 40.5919 23.5636 38.1941 24.5222C35.7963 25.4809 33.2168 25.9706 30.6121 25.9615Z" fill="#231F20"/>
<path d="M17.3973 44.7116C17.1972 44.7114 17.0015 44.6557 16.8347 44.5516C16.6679 44.4474 16.5372 44.2993 16.459 44.1257C16.3808 43.9521 16.3585 43.7607 16.3949 43.5752C16.4313 43.3898 16.5248 43.2185 16.6637 43.0827C18.4719 41.3176 20.639 39.9137 23.0355 38.9548C25.4321 37.996 28.009 37.5018 30.6126 37.5018C33.2163 37.5018 35.7932 37.996 38.1898 38.9548C40.5863 39.9137 42.7534 41.3176 44.5616 43.0827C44.6546 43.1736 44.7277 43.2809 44.7767 43.3985C44.8257 43.516 44.8496 43.6415 44.8472 43.7677C44.8447 43.894 44.8159 44.0185 44.7623 44.1343C44.7088 44.25 44.6316 44.3547 44.5351 44.4423C44.4386 44.53 44.3248 44.5988 44.2 44.645C44.0753 44.6912 43.9421 44.7137 43.8082 44.7114C43.6742 44.7091 43.542 44.6819 43.4192 44.6315C43.2963 44.581 43.1852 44.5083 43.0922 44.4173C41.4743 42.8381 39.5355 41.5822 37.3913 40.7244C35.2471 39.8666 32.9416 39.4245 30.6121 39.4245C28.2827 39.4245 25.9772 39.8666 23.833 40.7244C21.6888 41.5822 19.7499 42.8381 18.132 44.4173C18.0368 44.5104 17.9227 44.5844 17.7965 44.635C17.6703 44.6855 17.5345 44.7116 17.3973 44.7116Z" fill="#231F20"/>
<path d="M2.04102 4.80774H18.3675V13.4616C18.3675 13.7166 18.26 13.9612 18.0687 14.1415C17.8773 14.3218 17.6178 14.4231 17.3471 14.4231H3.06142C2.79079 14.4231 2.53125 14.3218 2.33989 14.1415C2.14852 13.9612 2.04102 13.7166 2.04102 13.4616V4.80774Z" fill="#F39618"/>
<path d="M17.347 15.3847H3.06132C2.52007 15.3847 2.00098 15.182 1.61825 14.8214C1.23552 14.4607 1.02051 13.9716 1.02051 13.4616V4.80773C1.02051 4.55271 1.12801 4.30814 1.31938 4.12782C1.51074 3.9475 1.77029 3.84619 2.04092 3.84619H18.3674C18.6381 3.84619 18.8976 3.9475 19.089 4.12782C19.2803 4.30814 19.3879 4.55271 19.3879 4.80773V13.4616C19.3879 13.9716 19.1728 14.4607 18.7901 14.8214C18.4074 15.182 17.8883 15.3847 17.347 15.3847ZM3.06132 5.76927V13.4616H17.347V5.76927H3.06132Z" fill="#231F20"/>
<path d="M18.3674 0.961548H2.04092C1.47736 0.961548 1.02051 1.39204 1.02051 1.92309V3.84616C1.02051 4.37721 1.47736 4.8077 2.04092 4.8077H18.3674C18.931 4.8077 19.3879 4.37721 19.3879 3.84616V1.92309C19.3879 1.39204 18.931 0.961548 18.3674 0.961548Z" fill="#8E580E"/>
<path d="M18.3673 5.76923H2.04082C1.49956 5.76923 0.980468 5.56662 0.597741 5.20597C0.215014 4.84533 0 4.35618 0 3.84615V1.92308C0 1.41304 0.215014 0.923903 0.597741 0.563256C0.980468 0.202609 1.49956 0 2.04082 0H18.3673C18.9086 0 19.4277 0.202609 19.8104 0.563256C20.1931 0.923903 20.4082 1.41304 20.4082 1.92308V3.84615C20.4082 4.35618 20.1931 4.84533 19.8104 5.20597C19.4277 5.56662 18.9086 5.76923 18.3673 5.76923ZM2.04082 1.92308V3.84615H18.3673V1.92308H2.04082Z" fill="#231F20"/>
<path d="M12.2447 9.61539L10.2039 7.69232L8.16309 9.61539V0.961548H12.2447V9.61539Z" fill="#6D6E71"/>
<path d="M12.2446 10.5769C11.974 10.5769 11.7145 10.4755 11.5232 10.2952L10.2038 9.05192L8.88441 10.2952C8.74171 10.4296 8.55991 10.5212 8.362 10.5583C8.16409 10.5953 7.95895 10.5763 7.77252 10.5035C7.58609 10.4308 7.42674 10.3076 7.31462 10.1495C7.20249 9.99139 7.14262 9.80553 7.14258 9.61538V0.961538C7.14258 0.706523 7.25009 0.461952 7.44145 0.281628C7.63281 0.101305 7.89236 0 8.16299 0H12.2446C12.5152 0 12.7748 0.101305 12.9662 0.281628C13.1575 0.461952 13.265 0.706523 13.265 0.961538V9.61538C13.2651 9.80554 13.2053 9.99145 13.0932 10.1496C12.9812 10.3077 12.8218 10.431 12.6354 10.5038C12.5116 10.5525 12.3788 10.5773 12.2446 10.5769ZM10.2038 6.73077C10.4744 6.73082 10.7339 6.83216 10.9252 7.0125L11.2242 7.29423V1.92308H9.18339V7.29423L9.48237 7.0125C9.67369 6.83216 9.9332 6.73082 10.2038 6.73077Z" fill="#231F20"/>
<path d="M10.3511 42.1404C10.1134 42.1404 9.8831 42.0621 9.70005 41.9192C6.17052 39.1589 3.55352 35.504 2.15845 31.3866C0.763381 27.2692 0.648575 22.8615 1.8276 18.6846C1.89729 18.4381 2.06803 18.2278 2.30226 18.1C2.53649 17.9721 2.81502 17.9372 3.07658 18.0029C3.33815 18.0685 3.56131 18.2294 3.69699 18.4502C3.83267 18.6709 3.86974 18.9333 3.80005 19.1798C2.72095 23.0016 2.82583 27.0347 4.1023 30.8022C5.37876 34.5696 7.77342 37.9139 11.0031 40.4394C11.1644 40.5658 11.2805 40.7359 11.3355 40.9267C11.3905 41.1175 11.3818 41.3196 11.3105 41.5055C11.2393 41.6914 11.1089 41.8521 10.9372 41.9657C10.7655 42.0793 10.5609 42.1403 10.3511 42.1404Z" fill="#231F20"/>
<path d="M44.0387 13.3846C43.8714 13.3848 43.7067 13.3462 43.559 13.2722C43.4114 13.1983 43.2852 13.0913 43.1917 12.9606C41.1837 10.1535 38.4745 7.85424 35.3024 6.26497C32.1303 4.6757 28.5925 3.8451 24.9999 3.84617C24.7293 3.84617 24.4697 3.74487 24.2784 3.56455C24.087 3.38422 23.9795 3.13965 23.9795 2.88464C23.9795 2.62962 24.087 2.38505 24.2784 2.20473C24.4697 2.0244 24.7293 1.9231 24.9999 1.9231C28.9265 1.9218 32.7934 2.82955 36.2605 4.56653C39.7276 6.30351 42.6887 8.81653 44.8836 11.8846C44.9873 12.0292 45.0473 12.1977 45.0571 12.372C45.067 12.5462 45.0263 12.7197 44.9395 12.8739C44.8527 13.028 44.7229 13.157 44.5643 13.247C44.4056 13.337 44.2239 13.3845 44.0387 13.3846Z" fill="#231F20"/>
<path d="M44.0388 13.3846C43.9886 13.3844 43.9385 13.3808 43.8888 13.374C43.7562 13.3556 43.6288 13.3126 43.5138 13.2478C43.3988 13.1829 43.2984 13.0972 43.2186 12.9958C43.1387 12.8944 43.0808 12.7791 43.0482 12.6566C43.0156 12.534 43.009 12.4067 43.0286 12.2817L43.7776 7.51248C43.7972 7.38753 43.8428 7.26745 43.9117 7.1591C43.9806 7.05074 44.0714 6.95623 44.179 6.88096C44.2867 6.8057 44.409 6.75114 44.539 6.72042C44.669 6.68969 44.8042 6.6834 44.9368 6.7019C45.0694 6.7204 45.1968 6.76333 45.3118 6.82823C45.4268 6.89314 45.5271 6.97875 45.607 7.08018C45.6868 7.18161 45.7447 7.29687 45.7773 7.41938C45.8099 7.5419 45.8166 7.66926 45.797 7.79421L45.047 12.5634C45.0113 12.7914 44.8898 12.9998 44.7048 13.1505C44.5198 13.3012 44.2834 13.3843 44.0388 13.3846Z" fill="#231F20"/>
<path d="M44.0372 13.3846H38.8964C38.6258 13.3846 38.3662 13.2833 38.1748 13.103C37.9835 12.9227 37.876 12.6781 37.876 12.4231C37.876 12.1681 37.9835 11.9235 38.1748 11.7432C38.3662 11.5629 38.6258 11.4615 38.8964 11.4615H44.0372C44.3078 11.4615 44.5674 11.5629 44.7587 11.7432C44.9501 11.9235 45.0576 12.1681 45.0576 12.4231C45.0576 12.6781 44.9501 12.9227 44.7587 13.103C44.5674 13.2833 44.3078 13.3846 44.0372 13.3846Z" fill="#231F20"/>
</svg>
