<svg width="60" height="60" viewBox="0 0 60 60" fill="none" xmlns="http://www.w3.org/2000/svg">
<path d="M45.8719 1.875H21.6281C21.3194 1.875 21.0155 1.95121 20.7434 2.09686C20.4712 2.24251 20.2393 2.4531 20.068 2.70994L11.25 15.9375V56.25C11.25 56.7473 11.4475 57.2242 11.7992 57.5758C12.1508 57.9275 12.6277 58.125 13.125 58.125H54.375C54.8723 58.125 55.3492 57.9275 55.7008 57.5758C56.0525 57.2242 56.25 56.7473 56.25 56.25V15.9375L47.4316 2.70994C47.2604 2.45316 47.0285 2.2426 46.7564 2.09695C46.4843 1.9513 46.1805 1.87506 45.8719 1.875Z" fill="#FFBD5A"/>
<path d="M52.5 10.3125V51.5625C52.5 52.0598 52.3025 52.5367 51.9508 52.8883C51.5992 53.24 51.1223 53.4375 50.625 53.4375H11.25V56.25C11.25 56.7473 11.4475 57.2242 11.7992 57.5758C12.1508 57.9275 12.6277 58.125 13.125 58.125H54.375C54.8723 58.125 55.3492 57.9275 55.7008 57.5758C56.0525 57.2242 56.25 56.7473 56.25 56.25V15.9375L52.5 10.3125Z" fill="#E4AD5D"/>
<path d="M56.25 15.9375H11.25L20.0719 2.70939C20.2416 2.45205 20.4728 2.24103 20.7445 2.09536C21.0162 1.9497 21.3198 1.87397 21.6281 1.87501H45.8719C46.1802 1.87397 46.4838 1.9497 46.7555 2.09536C47.0272 2.24103 47.2584 2.45205 47.4281 2.70939L56.25 15.9375Z" fill="#E4AD5D"/>
<path d="M30.9375 1.875H36.5625L40.3125 15.9375V28.125L33.75 23.4375L27.1875 28.125V15.9375L30.9375 1.875Z" fill="#F0F0FF"/>
<path d="M40.3125 15.9375H27.1875L30.9375 1.875H36.5625L40.3125 15.9375Z" fill="#DCDCF9"/>
<path d="M15 28.125C14.7514 28.125 14.5129 28.0262 14.3371 27.8504C14.1613 27.6746 14.0625 27.4361 14.0625 27.1875V23.4375C14.0625 23.1889 14.1613 22.9504 14.3371 22.7746C14.5129 22.5988 14.7514 22.5 15 22.5C15.2486 22.5 15.4871 22.5988 15.6629 22.7746C15.8387 22.9504 15.9375 23.1889 15.9375 23.4375V27.1875C15.9375 27.4361 15.8387 27.6746 15.6629 27.8504C15.4871 28.0262 15.2486 28.125 15 28.125ZM15.9375 20.625V19.6875C15.9375 19.4389 15.8387 19.2004 15.6629 19.0246C15.4871 18.8488 15.2486 18.75 15 18.75C14.7514 18.75 14.5129 18.8488 14.3371 19.0246C14.1613 19.2004 14.0625 19.4389 14.0625 19.6875V20.625C14.0625 20.8736 14.1613 21.1121 14.3371 21.2879C14.5129 21.4637 14.7514 21.5625 15 21.5625C15.2486 21.5625 15.4871 21.4637 15.6629 21.2879C15.8387 21.1121 15.9375 20.8736 15.9375 20.625Z" fill="white"/>
<path d="M20.625 55.3125C26.8382 55.3125 31.875 50.2757 31.875 44.0625C31.875 37.8493 26.8382 32.8125 20.625 32.8125C14.4118 32.8125 9.375 37.8493 9.375 44.0625C9.375 50.2757 14.4118 55.3125 20.625 55.3125Z" fill="#8DC1F3"/>
<path d="M20.625 27.1875C21.1223 27.1875 21.5992 27.385 21.9508 27.7367C22.3025 28.0883 22.5 28.5652 22.5 29.0625V32.8125H18.75V29.0625C18.75 28.5652 18.9475 28.0883 19.2992 27.7367C19.6508 27.385 20.1277 27.1875 20.625 27.1875Z" fill="#7EAADA"/>
<path d="M20.625 51.5625C24.7671 51.5625 28.125 48.2046 28.125 44.0625C28.125 39.9204 24.7671 36.5625 20.625 36.5625C16.4829 36.5625 13.125 39.9204 13.125 44.0625C13.125 48.2046 16.4829 51.5625 20.625 51.5625Z" fill="#A9D1F7"/>
<path d="M57.03 15.4175L48.2117 2.18991C47.9552 1.80438 47.6074 1.48828 47.1991 1.26977C46.7909 1.05125 46.3349 0.937109 45.8719 0.937501H21.6281C21.165 0.937062 20.709 1.05119 20.3007 1.2697C19.8924 1.48822 19.5445 1.80434 19.288 2.18991L10.47 15.4175C10.3674 15.5715 10.3126 15.7524 10.3125 15.9375V34.6875H3.75C3.50136 34.6875 3.2629 34.7863 3.08709 34.9621C2.91127 35.1379 2.8125 35.3764 2.8125 35.625C2.8125 35.8736 2.91127 36.1121 3.08709 36.2879C3.2629 36.4637 3.50136 36.5625 3.75 36.5625H12.9917C13.1292 36.5894 13.2711 36.5847 13.4065 36.5486C13.5419 36.5125 13.6673 36.446 13.7732 36.3542C15.4198 34.8897 17.4928 33.9919 19.6875 33.7928V36.5625C19.6875 36.8111 19.7863 37.0496 19.9621 37.2254C20.1379 37.4012 20.3764 37.5 20.625 37.5C20.8736 37.5 21.1121 37.4012 21.2879 37.2254C21.4637 37.0496 21.5625 36.8111 21.5625 36.5625V33.7975C23.9613 34.0196 26.2069 35.0737 27.9104 36.7771C29.6138 38.4806 30.6679 40.7262 30.89 43.125H29.0625C28.8139 43.125 28.5754 43.2238 28.3996 43.3996C28.2238 43.5754 28.125 43.8139 28.125 44.0625C28.125 44.3111 28.2238 44.5496 28.3996 44.7254C28.5754 44.9012 28.8139 45 29.0625 45H30.89C30.6679 47.3988 29.6138 49.6444 27.9104 51.3479C26.2069 53.0513 23.9613 54.1054 21.5625 54.3275V51.5625C21.5625 51.3139 21.4637 51.0754 21.2879 50.8996C21.1121 50.7238 20.8736 50.625 20.625 50.625C20.3764 50.625 20.1379 50.7238 19.9621 50.8996C19.7863 51.0754 19.6875 51.3139 19.6875 51.5625V54.3187C18.2164 54.1842 16.7912 53.7362 15.5078 53.0047C14.2244 52.2733 13.1125 51.2755 12.247 50.0783C12.1466 49.9413 12.0106 49.8344 11.8536 49.7694C11.6967 49.7043 11.5249 49.6836 11.357 49.7094C11.3218 49.6999 11.2861 49.6926 11.25 49.6875H7.5C7.25136 49.6875 7.0129 49.7863 6.83709 49.9621C6.66127 50.1379 6.5625 50.3764 6.5625 50.625C6.5625 50.8736 6.66127 51.1121 6.83709 51.2879C7.0129 51.4637 7.25136 51.5625 7.5 51.5625H10.3125V56.25C10.3133 56.9957 10.6099 57.7106 11.1372 58.2378C11.6644 58.7651 12.3793 59.0617 13.125 59.0625H54.375C55.1207 59.0617 55.8356 58.7651 56.3628 58.2378C56.8901 57.7106 57.1867 56.9957 57.1875 56.25V15.9375C57.1874 15.7524 57.1326 15.5715 57.03 15.4175ZM46.6519 3.22997L54.4983 15H41.0324L37.7825 2.8125H45.8719C46.0262 2.81237 46.1781 2.85042 46.3142 2.92326C46.4502 2.9961 46.5664 3.10147 46.6519 3.22997ZM28.125 16.875H39.375V26.3031L34.2948 22.6744C34.1358 22.561 33.9453 22.5 33.75 22.5C33.5547 22.5 33.3642 22.561 33.2052 22.6744L28.125 26.3031V16.875ZM35.8426 2.8125L39.0923 15H28.4077L31.6573 2.8125H35.8426ZM20.8484 3.22997C20.9339 3.10147 21.0498 2.9961 21.1858 2.92326C21.3219 2.85042 21.4738 2.81237 21.6281 2.8125H29.7172L26.4676 15H13.0017L20.8484 3.22997ZM21.5625 31.9225C21.2521 31.8987 20.9414 31.875 20.625 31.875C20.3107 31.875 19.9987 31.8937 19.6875 31.9178V29.0625C19.6875 28.8139 19.7863 28.5754 19.9621 28.3996C20.1379 28.2238 20.3764 28.125 20.625 28.125C20.8736 28.125 21.1121 28.2238 21.2879 28.3996C21.4637 28.5754 21.5625 28.8139 21.5625 29.0625V31.9225ZM55.3125 56.25C55.3123 56.4986 55.2134 56.7369 55.0377 56.9127C54.8619 57.0884 54.6236 57.1873 54.375 57.1875H13.125C12.8764 57.1873 12.6381 57.0884 12.4623 56.9127C12.2866 56.7369 12.1877 56.4986 12.1875 56.25V52.8254C13.5359 54.1259 15.1662 55.0978 16.9515 55.6652C18.7369 56.2326 20.6291 56.3804 22.4809 56.0969C24.3327 55.8134 26.0941 55.1064 27.6279 54.0309C29.1618 52.9554 30.4267 51.5404 31.3243 49.8961C32.2219 48.2518 32.7279 46.4225 32.8028 44.5506C32.8778 42.6788 32.5198 40.8148 31.7566 39.104C30.9934 37.3931 29.8457 35.8815 28.4028 34.6867C26.9599 33.492 25.2607 32.6464 23.4375 32.2157V29.0625C23.4375 28.3166 23.1412 27.6012 22.6137 27.0738C22.0863 26.5463 21.3709 26.25 20.625 26.25C19.8791 26.25 19.1637 26.5463 18.6363 27.0738C18.1088 27.6012 17.8125 28.3166 17.8125 29.0625V32.2158C15.9921 32.647 14.2959 33.4929 12.8561 34.6875H12.1875V16.875H26.25V28.125C26.25 28.2973 26.2974 28.4662 26.3871 28.6133C26.4768 28.7603 26.6052 28.8798 26.7584 28.9587C26.9115 29.0375 27.0834 29.0727 27.2552 29.0602C27.427 29.0478 27.5921 28.9882 27.7323 28.8881L33.75 24.5897L39.7677 28.8881C39.9079 28.9882 40.073 29.0478 40.2448 29.0602C40.4166 29.0727 40.5885 29.0375 40.7416 28.9587C40.8948 28.8798 41.0232 28.7603 41.1129 28.6133C41.2026 28.4662 41.25 28.2973 41.25 28.125V16.875H55.3125V56.25ZM43.125 44.0625C43.125 43.8139 43.2238 43.5754 43.3996 43.3996C43.5754 43.2238 43.8139 43.125 44.0625 43.125H51.5625C51.8111 43.125 52.0496 43.2238 52.2254 43.3996C52.4012 43.5754 52.5 43.8139 52.5 44.0625C52.5 44.3111 52.4012 44.5496 52.2254 44.7254C52.0496 44.9012 51.8111 45 51.5625 45H44.0625C43.8139 45 43.5754 44.9012 43.3996 44.7254C43.2238 44.5496 43.125 44.3111 43.125 44.0625ZM52.5 47.8125C52.5 48.0611 52.4012 48.2996 52.2254 48.4754C52.0496 48.6512 51.8111 48.75 51.5625 48.75H45.9375C45.6889 48.75 45.4504 48.6512 45.2746 48.4754C45.0988 48.2996 45 48.0611 45 47.8125C45 47.5639 45.0988 47.3254 45.2746 47.1496C45.4504 46.9738 45.6889 46.875 45.9375 46.875H51.5625C51.8111 46.875 52.0496 46.9738 52.2254 47.1496C52.4012 47.3254 52.5 47.5639 52.5 47.8125ZM52.5 51.5625C52.5 51.8111 52.4012 52.0496 52.2254 52.2254C52.0496 52.4012 51.8111 52.5 51.5625 52.5H44.0625C43.8139 52.5 43.5754 52.4012 43.3996 52.2254C43.2238 52.0496 43.125 51.8111 43.125 51.5625C43.125 51.3139 43.2238 51.0754 43.3996 50.8996C43.5754 50.7238 43.8139 50.625 44.0625 50.625H51.5625C51.8111 50.625 52.0496 50.7238 52.2254 50.8996C52.4012 51.0754 52.5 51.3139 52.5 51.5625ZM20.625 45C20.4349 44.9999 20.2493 44.942 20.0928 44.8339C19.9364 44.7259 19.8165 44.5728 19.749 44.395C19.6816 44.2172 19.6698 44.0232 19.7152 43.8385C19.7606 43.6539 19.8611 43.4874 20.0033 43.3612L25.6147 38.3844C25.7063 38.2999 25.8139 38.2344 25.9312 38.1919C26.0484 38.1494 26.173 38.1308 26.2975 38.137C26.4221 38.1433 26.5441 38.1743 26.6566 38.2284C26.769 38.2824 26.8695 38.3583 26.9522 38.4516C27.0349 38.545 27.0981 38.6539 27.1382 38.772C27.1783 38.8901 27.1945 39.015 27.1857 39.1394C27.1769 39.2638 27.1434 39.3852 27.0871 39.4965C27.0308 39.6078 26.9529 39.7067 26.8579 39.7875L21.2467 44.7638C21.0756 44.9163 20.8542 45.0005 20.625 45ZM11.25 39.375C11.25 39.6236 11.1512 39.8621 10.9754 40.0379C10.7996 40.2137 10.5611 40.3125 10.3125 40.3125H4.6875C4.43886 40.3125 4.2004 40.2137 4.02459 40.0379C3.84877 39.8621 3.75 39.6236 3.75 39.375C3.75 39.1264 3.84877 38.8879 4.02459 38.7121C4.2004 38.5363 4.43886 38.4375 4.6875 38.4375H10.3125C10.5611 38.4375 10.7996 38.5363 10.9754 38.7121C11.1512 38.8879 11.25 39.1264 11.25 39.375ZM12.1875 44.0625H9.375C9.12636 44.0625 8.8879 43.9637 8.71209 43.7879C8.53627 43.6121 8.4375 43.3736 8.4375 43.125C8.4375 42.8764 8.53627 42.6379 8.71209 42.4621C8.8879 42.2863 9.12636 42.1875 9.375 42.1875H12.1875C12.4361 42.1875 12.6746 42.2863 12.8504 42.4621C13.0262 42.6379 13.125 42.8764 13.125 43.125C13.125 43.3736 13.0262 43.6121 12.8504 43.7879C12.6746 43.9637 12.4361 44.0625 12.1875 44.0625ZM3.75 42.1875H6.5625C6.81114 42.1875 7.0496 42.2863 7.22541 42.4621C7.40123 42.6379 7.5 42.8764 7.5 43.125C7.5 43.3736 7.40123 43.6121 7.22541 43.7879C7.0496 43.9637 6.81114 44.0625 6.5625 44.0625H3.75C3.50136 44.0625 3.2629 43.9637 3.08709 43.7879C2.91127 43.6121 2.8125 43.3736 2.8125 43.125C2.8125 42.8764 2.91127 42.6379 3.08709 42.4621C3.2629 42.2863 3.50136 42.1875 3.75 42.1875ZM5.625 50.625C5.625 50.8736 5.52623 51.1121 5.35041 51.2879C5.1746 51.4637 4.93614 51.5625 4.6875 51.5625H3.75C3.50136 51.5625 3.2629 51.4637 3.08709 51.2879C2.91127 51.1121 2.8125 50.8736 2.8125 50.625C2.8125 50.3764 2.91127 50.1379 3.08709 49.9621C3.2629 49.7863 3.50136 49.6875 3.75 49.6875H4.6875C4.93614 49.6875 5.1746 49.7863 5.35041 49.9621C5.52623 50.1379 5.625 50.3764 5.625 50.625ZM11.25 45.9375C11.4986 45.9375 11.7371 46.0363 11.9129 46.2121C12.0887 46.3879 12.1875 46.6264 12.1875 46.875C12.1875 47.1236 12.0887 47.3621 11.9129 47.5379C11.7371 47.7137 11.4986 47.8125 11.25 47.8125H4.6875C4.43886 47.8125 4.2004 47.7137 4.02459 47.5379C3.84877 47.3621 3.75 47.1236 3.75 46.875C3.75 46.6264 3.84877 46.3879 4.02459 46.2121C4.2004 46.0363 4.43886 45.9375 4.6875 45.9375H11.25Z" fill="#3D436B"/>
</svg>
