<svg width="46" height="50" viewBox="0 0 46 50" fill="none" xmlns="http://www.w3.org/2000/svg">
<path d="M11.7373 36.7596L14.2828 35.296L14.2829 35.2962C14.747 35.0503 15.3432 35.0852 15.9936 35.4608C17.4733 36.3152 18.6729 38.6073 18.6729 40.5804C18.6729 41.6651 18.3099 42.4265 17.7375 42.7514L17.7379 42.7522L15.2938 44.1592L11.7373 36.7596Z" fill="url(#paint0_linear_2_18946)"/>
<path d="M2.63672 31.5138L5.18223 30.0502L5.18232 30.0504C5.64639 29.8045 6.24258 29.8396 6.89297 30.2151C8.37275 31.0695 9.57236 33.3616 9.57236 35.3346C9.57236 36.4194 9.20928 37.1808 8.63691 37.5056L8.6373 37.5065L6.19326 38.9134L2.63672 31.5138Z" fill="url(#paint1_linear_2_18946)"/>
<path d="M32.2558 33.3043V20.7279L26.6733 22.3374L0.956055 19.3699V31.9463C0.956055 32.3318 1.14678 32.7172 1.52822 32.9375L16.5237 41.6286C17.2844 42.0677 18.2216 42.0677 18.9823 41.6286L31.6835 34.2956C32.065 34.0753 32.2558 33.6898 32.2558 33.3043Z" fill="url(#paint2_linear_2_18946)"/>
<path d="M31.6835 30.9807L18.9823 38.3138C18.2217 38.753 17.2845 38.753 16.5237 38.3138L1.52822 29.6228C1.14668 29.4026 0.955957 29.0172 0.956055 28.6317V31.9464C0.956055 32.3318 1.14678 32.7173 1.52822 32.9375L16.5237 41.6285C17.2844 42.0677 18.2216 42.0677 18.9823 41.6285L31.6835 34.2954C32.065 34.0752 32.2558 33.6897 32.2557 33.3042V29.9895C32.2558 30.3751 32.065 30.7605 31.6835 30.9807Z" fill="#43386B"/>
<path d="M31.6835 19.7368L31.1125 19.4071L26.7321 21.9384L25.4368 21.1905L24.465 15.5692L16.688 11.0458C15.9273 10.6066 14.9901 10.6066 14.2294 11.0458L1.52822 18.3788C0.765332 18.8192 0.765332 19.9205 1.52822 20.3609L16.5237 29.052C17.2844 29.4911 18.2216 29.4911 18.9823 29.052L31.6835 21.7188C32.4465 21.2784 32.4465 20.1772 31.6835 19.7368Z" fill="url(#paint3_linear_2_18946)"/>
<path d="M1.74219 33.6615C1.74219 31.6884 2.9418 30.7815 4.42158 31.6359C5.90137 32.4903 7.10098 34.7824 7.10098 36.7554C7.10098 38.7285 5.90137 39.6354 4.42158 38.781C2.9418 37.9267 1.74219 35.6346 1.74219 33.6615Z" fill="url(#paint4_linear_2_18946)"/>
<path d="M5.44047 37.5562C6.17668 37.2425 6.32401 35.9333 5.76956 34.6321C5.21511 33.3308 4.16882 32.5302 3.43262 32.8439C2.69642 33.1576 2.54908 34.4668 3.10354 35.768C3.65799 37.0693 4.70427 37.8699 5.44047 37.5562Z" fill="#E9E5F6"/>
<path d="M3.57227 34.7177C3.57227 34.0919 3.95273 33.8043 4.42217 34.0753C4.8915 34.3463 5.27207 35.0733 5.27207 35.6992C5.27207 36.3251 4.8916 36.6127 4.42217 36.3417C3.95273 36.0707 3.57227 35.3436 3.57227 34.7177Z" fill="#7662BD"/>
<path d="M10.8428 38.9072C10.8428 36.9341 12.0424 36.0272 13.5222 36.8816C15.002 37.736 16.2016 40.0281 16.2016 42.0011C16.2016 43.9742 15.002 44.8811 13.5222 44.0267C12.0424 43.1723 10.8428 40.8802 10.8428 38.9072Z" fill="url(#paint5_linear_2_18946)"/>
<path d="M11.8545 39.491C11.8545 38.2626 12.6014 37.6979 13.5228 38.2299C14.4441 38.7618 15.191 40.1888 15.191 41.4174C15.191 42.6459 14.4441 43.2104 13.5228 42.6785C12.6014 42.1466 11.8545 40.7195 11.8545 39.491Z" fill="#E9E5F6"/>
<path d="M12.6729 39.9635C12.6729 39.3376 13.0533 39.05 13.5228 39.321C13.9922 39.592 14.3727 40.319 14.3727 40.9449C14.3727 41.5708 13.9922 41.8584 13.5228 41.5874C13.0533 41.3164 12.6729 40.5894 12.6729 39.9635Z" fill="#7662BD"/>
<path d="M24.4622 15.5675L16.688 11.0457C15.9273 10.6065 14.9901 10.6065 14.2294 11.0457L1.52822 18.3788C0.765332 18.8192 0.765332 19.9205 1.52822 20.3609L8.82197 24.6053L24.4622 15.5675Z" fill="#FFA538"/>
<path d="M25.4364 21.1906L9.79395 30.2298L15.472 33.508V28.445L16.5233 29.0521C17.284 29.4912 18.2212 29.4912 18.9819 29.0521L29.0174 23.2581L25.4364 21.1906Z" fill="#7662BD"/>
<path d="M9.79453 30.2298L25.437 21.1906L24.4647 15.5663L8.82227 24.6054L9.79453 30.2298Z" fill="#43386B"/>
<path d="M31.6838 19.7368L31.1128 19.4071L15.4727 28.4449L16.524 29.0519C17.2847 29.4911 18.2219 29.4911 18.9826 29.0519L31.6838 21.7188C32.4468 21.2784 32.4468 20.1772 31.6838 19.7368Z" fill="#FFA538"/>
<path d="M17.6924 29.5783C17.1247 29.5783 16.6224 29.1702 16.5227 28.5916L13.7824 12.7001L9.47966 10.2159L8.56462 21.749C8.51266 22.4033 7.93932 22.8917 7.28591 22.8397C6.63161 22.7879 6.14333 22.2153 6.19518 21.561L7.25915 8.15153C7.29137 7.74498 7.52985 7.38336 7.89089 7.19362C8.25182 7.00387 8.68483 7.01246 9.03815 7.21627L15.4533 10.92C15.7589 11.0964 15.9703 11.3996 16.0302 11.7473L18.8652 28.1877C18.9767 28.8344 18.5428 29.4492 17.896 29.5608C17.8275 29.5726 17.7595 29.5783 17.6924 29.5783Z" fill="#594A8E"/>
<path d="M29.9346 22.5213C29.3669 22.5213 28.8646 22.1132 28.7649 21.5346L26.0246 5.64305L21.7218 3.15887L20.8068 14.6921C20.7549 15.3464 20.1816 15.835 19.5281 15.7828C18.8738 15.7308 18.3855 15.1584 18.4374 14.5041L19.5013 1.09452C19.5336 0.687974 19.772 0.326353 20.1331 0.136607C20.494 -0.0530418 20.9271 -0.0446433 21.2803 0.159263L27.6955 3.86307C28.0011 4.03954 28.2125 4.34266 28.2724 4.69042L31.1074 21.1307C31.2189 21.7775 30.785 22.3924 30.1382 22.5039C30.0697 22.5155 30.0017 22.5213 29.9346 22.5213Z" fill="#594A8E"/>
<path d="M27.6958 3.86301L21.2808 0.159204C20.9133 -0.0529052 20.4605 -0.0531005 20.093 0.158814L7.85078 7.21584C7.48281 7.42795 7.25596 7.82034 7.25586 8.24514C7.25576 8.66985 7.48223 9.06243 7.8501 9.27483L14.2652 12.9785C14.4491 13.0847 14.6542 13.1377 14.8595 13.1377C15.0644 13.1377 15.2693 13.0848 15.453 12.9789L27.6952 5.922C28.0632 5.70989 28.29 5.31751 28.2901 4.8927C28.2902 4.46799 28.0637 4.07542 27.6958 3.86301ZM18.6238 8.40754L14.5938 6.07258L17.2472 4.54299L21.2772 6.87805L18.6238 8.40754ZM14.8599 10.5773L10.8227 8.24631L12.2171 7.4425L16.2472 9.77747L14.8599 10.5773ZM23.6539 5.50794L19.6238 3.17288L20.6861 2.56057L24.7234 4.89153L23.6539 5.50794Z" fill="#7662BD"/>
<path d="M19.469 19.028C19.0577 19.028 18.6578 18.8142 18.4379 18.4322C18.1105 17.8634 18.3062 17.1367 18.8752 16.8094L30.2927 10.2389C30.8615 9.91161 31.5881 10.1072 31.9156 10.6762C32.243 11.2451 32.0472 11.9717 31.4783 12.299L20.0608 18.8695C19.8739 18.9768 19.67 19.028 19.469 19.028Z" fill="#7662BD"/>
<path d="M26.736 49.0888C26.5344 49.0888 26.3301 49.0375 26.1429 48.9295L18.8735 44.7325C18.5059 44.5202 18.2793 44.1278 18.2793 43.7032V13.0292C18.2793 12.3728 18.8113 11.8407 19.4678 11.8407C20.1241 11.8407 20.6562 12.3727 20.6562 13.0292V43.0171L27.3313 46.871C27.8998 47.1992 28.0945 47.926 27.7664 48.4944C27.5463 48.8757 27.1468 49.0888 26.736 49.0888Z" fill="#7662BD"/>
<path d="M38.154 42.5184C37.9523 42.5184 37.748 42.467 37.5608 42.359L30.2915 38.162C29.9237 37.9497 29.6973 37.5574 29.6973 37.1327V6.45862C29.6973 5.80227 30.2293 5.27014 30.8857 5.27014C31.5421 5.27014 32.0742 5.80217 32.0742 6.45862V36.4466L38.7493 40.3005C39.3178 40.6287 39.5125 41.3556 39.1844 41.924C38.9643 42.3052 38.5647 42.5184 38.154 42.5184Z" fill="#7662BD"/>
<path d="M19.4691 25.9602C19.0583 25.9602 18.6589 25.747 18.4387 25.3658C18.1106 24.7973 18.3053 24.0705 18.8737 23.7423L30.2912 17.1504C30.8597 16.8225 31.5864 17.0169 31.9147 17.5854C32.2428 18.1539 32.0481 18.8807 31.4796 19.209L20.0621 25.8009C19.875 25.9089 19.6706 25.9602 19.4691 25.9602Z" fill="#7662BD"/>
<path d="M45.0436 41.9812V26.3932L20.0244 27.466V43.054C20.0244 43.4112 20.2011 43.7684 20.5546 43.9725L30.4657 49.6947C31.1706 50.1016 32.0391 50.1016 32.7439 49.6947L44.5134 42.8996C44.8669 42.6955 45.0436 42.3383 45.0436 41.9812Z" fill="url(#paint6_linear_2_18946)"/>
<path d="M20.5546 26.5477L32.324 19.7527C33.0289 19.3458 33.8974 19.3458 34.6023 19.7527L44.5134 25.4749C45.2203 25.8831 45.2203 26.9035 44.5134 27.3116L32.744 34.1066C32.0391 34.5135 31.1706 34.5135 30.4657 34.1066L20.5546 28.3844C19.8477 27.9762 19.8477 26.9558 20.5546 26.5477Z" fill="url(#paint7_linear_2_18946)"/>
<path d="M24.3711 24.3444L37.012 31.6426L40.3652 29.7067L27.7243 22.4084L24.3711 24.3444Z" fill="#DEA861"/>
<path d="M26.3746 23.1864L39.0155 30.4845L38.3587 30.8638L25.7178 23.5656L26.3746 23.1864Z" fill="#CC8241"/>
<path d="M37.0117 31.6426V34.4118L40.3649 32.4758V29.7067L37.0117 31.6426Z" fill="#CC8241"/>
<defs>
<linearGradient id="paint0_linear_2_18946" x1="15.4615" y1="38.9176" x2="14.3598" y2="37.0094" gradientUnits="userSpaceOnUse">
<stop stop-color="#43386B"/>
<stop offset="1" stop-color="#7662BD"/>
</linearGradient>
<linearGradient id="paint1_linear_2_18946" x1="6.36103" y1="33.6719" x2="5.25928" y2="31.7637" gradientUnits="userSpaceOnUse">
<stop stop-color="#43386B"/>
<stop offset="1" stop-color="#7662BD"/>
</linearGradient>
<linearGradient id="paint2_linear_2_18946" x1="21.4444" y1="30.664" x2="14.2825" y2="30.664" gradientUnits="userSpaceOnUse">
<stop stop-color="#E37A34"/>
<stop offset="1" stop-color="#FFC538"/>
</linearGradient>
<linearGradient id="paint3_linear_2_18946" x1="7.46904" y1="14.7737" x2="24.3524" y2="24.5214" gradientUnits="userSpaceOnUse">
<stop stop-color="#DEA861"/>
<stop offset="1" stop-color="#EBCBA0"/>
</linearGradient>
<linearGradient id="paint4_linear_2_18946" x1="4.42168" y1="40.2019" x2="4.42168" y2="30.5341" gradientUnits="userSpaceOnUse">
<stop stop-color="#43386B"/>
<stop offset="1" stop-color="#7662BD"/>
</linearGradient>
<linearGradient id="paint5_linear_2_18946" x1="13.5223" y1="45.4476" x2="13.5223" y2="35.7798" gradientUnits="userSpaceOnUse">
<stop stop-color="#43386B"/>
<stop offset="1" stop-color="#7662BD"/>
</linearGradient>
<linearGradient id="paint6_linear_2_18946" x1="29.6051" y1="38.1965" x2="33.042" y2="38.1965" gradientUnits="userSpaceOnUse">
<stop stop-color="#CC8241"/>
<stop offset="1" stop-color="#DEA861"/>
</linearGradient>
<linearGradient id="paint7_linear_2_18946" x1="25.5687" y1="22.9082" x2="38.4395" y2="30.3391" gradientUnits="userSpaceOnUse">
<stop stop-color="#DEA861"/>
<stop offset="1" stop-color="#EBCBA0"/>
</linearGradient>
</defs>
</svg>
