<svg width="50" height="60" viewBox="0 0 50 60" fill="none" xmlns="http://www.w3.org/2000/svg">
<path d="M39.8997 55.3491C45.006 50.2428 45.006 41.9638 39.8997 36.8574C34.7934 31.7511 26.5143 31.7511 21.408 36.8574C16.3016 41.9638 16.3016 50.2428 21.408 55.3491C26.5143 60.4555 34.7933 60.4555 39.8997 55.3491Z" fill="#FCB13C"/>
<path fill-rule="evenodd" clip-rule="evenodd" d="M30.6626 59.9988C26.8262 59.9988 23.3522 58.4436 20.837 55.9284C18.323 53.4144 16.7666 49.9404 16.7666 46.1028C16.7666 42.2664 18.3218 38.7924 20.837 36.2772C23.351 33.7632 26.825 32.2068 30.6626 32.2068C34.499 32.2068 37.973 33.762 40.4882 36.2772C43.0022 38.7912 44.5586 42.2652 44.5586 46.1028C44.5586 49.9392 43.0034 53.4132 40.4882 55.9284C37.9742 58.4436 34.5002 59.9988 30.6626 59.9988ZM21.9938 54.774C24.2126 56.9928 27.2774 58.3644 30.6638 58.3644C34.049 58.3644 37.115 56.9916 39.3338 54.774C41.5526 52.5552 42.9254 49.4904 42.9254 46.104C42.9254 42.7188 41.5526 39.6528 39.3338 37.434C37.115 35.2152 34.0502 33.8424 30.6638 33.8424C27.2786 33.8424 24.2126 35.2152 21.9938 37.434C19.775 39.6528 18.4022 42.7176 18.4022 46.104C18.4022 49.4904 19.775 52.5552 21.9938 54.774Z" fill="#020202"/>
<path d="M38.0671 53.5166C42.1614 49.4223 42.1614 42.7842 38.0671 38.69C33.9728 34.5957 27.3347 34.5957 23.2405 38.69C19.1462 42.7842 19.1462 49.4223 23.2405 53.5166C27.3347 57.6109 33.9728 57.6109 38.0671 53.5166Z" fill="#FCB13C"/>
<path fill-rule="evenodd" clip-rule="evenodd" d="M30.6622 57.4069C27.541 57.4069 24.715 56.1421 22.6702 54.0961C20.6254 52.0501 19.3594 49.2253 19.3594 46.1041C19.3594 42.9829 20.6242 40.1569 22.6702 38.1121C24.7162 36.0661 27.541 34.8013 30.6622 34.8013C33.7834 34.8013 36.6094 36.0661 38.6542 38.1121C40.7002 40.1581 41.965 42.9829 41.965 46.1041C41.965 49.2253 40.7002 52.0513 38.6542 54.0961C36.6094 56.1421 33.7834 57.4069 30.6622 57.4069ZM23.8258 52.9405C25.5754 54.6901 27.9922 55.7725 30.6622 55.7725C33.3322 55.7725 35.749 54.6901 37.4986 52.9405C39.2482 51.1909 40.3306 48.7741 40.3306 46.1041C40.3306 43.4341 39.2482 41.0173 37.4986 39.2677C35.749 37.5181 33.3322 36.4357 30.6622 36.4357C27.9922 36.4357 25.5754 37.5181 23.8258 39.2677C22.0762 41.0173 20.9938 43.4341 20.9938 46.1041C20.9938 48.7741 22.0762 51.1909 23.8258 52.9405Z" fill="#020202"/>
<path fill-rule="evenodd" clip-rule="evenodd" d="M26.9258 49.0238C26.9258 48.5726 27.2918 48.2066 27.743 48.2066C28.1942 48.2066 28.5602 48.5726 28.5602 49.0238C28.5602 49.6046 28.7954 50.1302 29.1758 50.5106C29.5562 50.891 30.0818 51.1262 30.6626 51.1262C31.2434 51.1262 31.769 50.891 32.1494 50.5106C32.5298 50.1302 32.765 49.6046 32.765 49.0238C32.765 47.4446 31.619 47.1722 30.4742 46.8986C28.6994 46.4762 26.9258 46.0538 26.9258 43.1846C26.9258 42.1526 27.3446 41.219 28.0202 40.5422C28.697 39.8654 29.6306 39.4478 30.6626 39.4478C31.6946 39.4478 32.6282 39.8666 33.305 40.5422C33.9818 41.2178 34.3994 42.1526 34.3994 43.1846C34.3994 43.6358 34.0334 44.0018 33.5822 44.0018C33.131 44.0018 32.765 43.6358 32.765 43.1846C32.765 42.6038 32.5298 42.0782 32.1494 41.6978C31.769 41.3174 31.2434 41.0822 30.6626 41.0822C30.0818 41.0822 29.5562 41.3174 29.1758 41.6978C28.7954 42.0782 28.5602 42.6038 28.5602 43.1846C28.5602 44.7638 29.7062 45.0362 30.851 45.3098C32.6258 45.7322 34.3994 46.1546 34.3994 49.0238C34.3994 50.0558 33.9806 50.9894 33.305 51.6662C32.6282 52.343 31.6946 52.7606 30.6626 52.7606C29.6306 52.7606 28.697 52.3418 28.0202 51.6662C27.3446 50.9894 26.9258 50.0558 26.9258 49.0238Z" fill="#020202"/>
<path fill-rule="evenodd" clip-rule="evenodd" d="M29.8457 52.2481C29.8457 51.7969 30.2117 51.4309 30.6629 51.4309C31.1141 51.4309 31.4801 51.7969 31.4801 52.2481V53.8861C31.4801 54.3373 31.1141 54.7033 30.6629 54.7033C30.2117 54.7033 29.8457 54.3373 29.8457 53.8861V52.2481ZM29.8457 38.3221C29.8457 37.8709 30.2117 37.5049 30.6629 37.5049C31.1141 37.5049 31.4801 37.8709 31.4801 38.3221V39.9817C31.4801 40.4329 31.1141 40.7989 30.6629 40.7989C30.2117 40.7989 29.8457 40.4329 29.8457 39.9817V38.3221Z" fill="#020202"/>
<path fill-rule="evenodd" clip-rule="evenodd" d="M18.8885 0.816162L12.8465 4.30456L6.80566 7.79176V14.7674V21.7442L12.8465 25.2314L18.8885 28.7198L24.9293 25.2314L30.9701 21.7442V14.7674V7.79176L24.9293 4.30456L18.8885 0.816162Z" fill="#53BA65"/>
<path fill-rule="evenodd" clip-rule="evenodd" d="M18.8883 1.75805L7.62268 8.26205V21.2749L18.8883 27.7789L24.5211 24.5269C24.5355 24.5185 24.5511 24.5101 24.5667 24.5029L30.1539 21.2773V8.25965L24.5223 5.00765L24.5211 5.00885L18.8883 1.75805ZM12.4383 3.59885L18.4707 0.116453C18.7167 -0.029947 19.0311 -0.041947 19.2963 0.111653L25.3371 3.60005L31.3095 7.04885C31.5915 7.17725 31.7871 7.46165 31.7871 7.79285V21.7441H31.7835C31.7835 22.0261 31.6371 22.2997 31.3755 22.4497L25.3791 25.9117C25.3659 25.9201 25.3515 25.9297 25.3371 25.9381L19.3047 29.4205C19.0587 29.5669 18.7443 29.5789 18.4791 29.4253L6.44908 22.4797C6.17668 22.3477 5.98828 22.0681 5.98828 21.7441V7.79165H5.99068C5.99068 7.51085 6.13708 7.23725 6.39748 7.08605L12.4383 3.59885Z" fill="#010101"/>
<path fill-rule="evenodd" clip-rule="evenodd" d="M30.5657 7.08594C30.9557 6.86154 31.4525 6.99594 31.6769 7.38594C31.9013 7.77594 31.7669 8.27274 31.3769 8.49714L19.7057 15.2351V28.7195C19.7057 29.1707 19.3397 29.5367 18.8885 29.5367C18.4373 29.5367 18.0713 29.1707 18.0713 28.7195V14.7671H18.0749C18.0749 14.4851 18.2213 14.2115 18.4829 14.0615L30.5657 7.08594Z" fill="#010101"/>
<path fill-rule="evenodd" clip-rule="evenodd" d="M19.2931 14.063C19.6831 14.2874 19.8175 14.7842 19.5931 15.1742C19.3687 15.5642 18.8719 15.6986 18.4819 15.4742L14.2399 13.025C13.8499 12.8006 13.7155 12.3038 13.9399 11.9138C14.1643 11.5238 14.6611 11.3894 15.0511 11.6138L19.2931 14.063ZM11.9335 9.81137C12.3235 10.037 12.4555 10.5362 12.2299 10.925C12.0043 11.315 11.5051 11.447 11.1163 11.2214L6.39673 8.49617C6.00673 8.27057 5.87473 7.77137 6.10033 7.38257C6.32593 6.99257 6.82513 6.86057 7.21393 7.08617L11.9335 9.81137Z" fill="#010101"/>
<path fill-rule="evenodd" clip-rule="evenodd" d="M26.9596 9.63843C27.3496 9.86403 27.4816 10.3632 27.256 10.752C27.0304 11.142 26.5312 11.274 26.1424 11.0484L21.5068 8.37243C21.1168 8.14683 20.9848 7.64763 21.2104 7.25883C21.436 6.86883 21.9352 6.73683 22.324 6.96243L26.9596 9.63843ZM19.5928 5.38683C19.9828 5.61123 20.1172 6.10803 19.8928 6.49803C19.6684 6.88803 19.1716 7.02243 18.7816 6.79803L14.062 4.07283C13.672 3.84843 13.5376 3.35163 13.762 2.96163C13.9864 2.57163 14.4832 2.43723 14.8732 2.66163L19.5928 5.38683Z" fill="#010101"/>
<path fill-rule="evenodd" clip-rule="evenodd" d="M25.9304 4.41016C26.3204 4.18576 26.8172 4.32016 27.0416 4.71016C27.266 5.10016 27.1316 5.59696 26.7416 5.82136L15.2336 12.4634L15.2804 18.9818C15.2816 19.4318 14.9192 19.7966 14.4692 19.799C14.0192 19.8002 13.6544 19.4378 13.652 18.9878L13.6016 11.999C13.6016 11.7158 13.748 11.441 14.0096 11.291L25.9304 4.41016Z" fill="#010101"/>
<path fill-rule="evenodd" clip-rule="evenodd" d="M24.3127 11.1648C24.7027 11.3892 24.8371 11.886 24.6127 12.276C24.3883 12.666 23.8915 12.8004 23.5015 12.576L18.8659 9.89998C18.4759 9.67558 18.3415 9.17878 18.5659 8.78878C18.7903 8.39878 19.2871 8.26438 19.6771 8.48878L24.3127 11.1648ZM16.9531 6.91318C17.3431 7.13878 17.4751 7.63798 17.2495 8.02678C17.0239 8.41678 16.5247 8.54878 16.1359 8.32318L11.4163 5.59798C11.0263 5.37238 10.8943 4.87318 11.1199 4.48438C11.3455 4.09438 11.8447 3.96238 12.2335 4.18798L16.9531 6.91318Z" fill="#010101"/>
<path fill-rule="evenodd" clip-rule="evenodd" d="M11.9334 11.2225C11.5434 11.4481 11.0454 11.3149 10.8198 10.9261C10.5942 10.5361 10.7274 10.0381 11.1162 9.81248L23.199 2.83688C23.589 2.61128 24.087 2.74448 24.3126 3.13328C24.5382 3.52328 24.405 4.02128 24.0162 4.24688L11.9334 11.2225Z" fill="#010101"/>
<path fill-rule="evenodd" clip-rule="evenodd" d="M10.708 10.5169C10.708 10.0657 11.074 9.69971 11.5252 9.69971C11.9764 9.69971 12.3424 10.0657 12.3424 10.5169V15.6589C12.7072 15.3985 13.2148 15.4813 13.4764 15.8461C13.4896 15.8641 13.5016 15.8821 13.5124 15.9013L15.1576 18.5581C15.394 18.9409 15.2752 19.4425 14.8924 19.6789C14.5096 19.9153 14.008 19.7965 13.7716 19.4137L12.5824 17.4937L12.058 17.8717C11.9152 17.9953 11.728 18.0697 11.5252 18.0697C11.074 18.0697 10.708 17.7037 10.708 17.2525V10.5169Z" fill="#010101"/>
<path fill-rule="evenodd" clip-rule="evenodd" d="M40.3648 14.6916C45.9592 20.4516 48.1228 28.8144 45.9964 36.5784L43.2364 35.7276C45.0484 28.986 43.1656 21.7404 38.3236 16.7328L36.6784 18.378L35.6824 14.6592L34.6864 10.9404L38.4052 11.9364L42.124 12.9324L40.3648 14.6916ZM7.65276 46.4232C1.64316 40.236 -0.34764 31.2324 2.44116 23.1552L5.20476 24.0072C2.77116 30.984 4.39116 38.898 9.69516 44.382L11.3404 42.7368L12.3364 46.4556L13.3324 50.1744L9.61356 49.1784L5.89476 48.1824L7.65276 46.4232Z" fill="#77CEDB"/>
<path fill-rule="evenodd" clip-rule="evenodd" d="M41.5009 14.7121C44.1037 17.5837 45.9229 21.0229 46.8673 24.6913C47.8741 28.6045 47.8825 32.7757 46.7821 36.7933C46.6645 37.2265 46.2169 37.4833 45.7825 37.3645L45.7573 37.3573V37.3585L42.9973 36.5077C42.5773 36.3781 42.3361 35.9401 42.4501 35.5189H42.4489C43.3177 32.2861 43.3021 28.9345 42.4897 25.7917C41.7433 22.9057 40.3249 20.1949 38.3029 17.9113L37.2565 18.9577C36.9373 19.2769 36.4201 19.2769 36.1009 18.9577C35.9857 18.8425 35.9113 18.7009 35.8801 18.5509L33.8977 11.1529C33.7813 10.7173 34.0405 10.2697 34.4749 10.1533C34.6213 10.1137 34.7701 10.1173 34.9057 10.1557L42.3337 12.1465C42.7693 12.2629 43.0273 12.7105 42.9109 13.1461C42.8725 13.2901 42.7981 13.4149 42.6997 13.5121L42.7009 13.5133L41.5009 14.7121ZM45.2893 25.0921C44.3557 21.4633 42.4981 18.0721 39.8197 15.3001C39.8089 15.2905 39.7981 15.2797 39.7873 15.2689C39.4681 14.9497 39.4681 14.4325 39.7873 14.1133L40.5457 13.3549L35.8393 12.0937L37.1005 16.8001L37.7461 16.1545L37.7473 16.1557L37.7581 16.1449C38.0821 15.8329 38.5981 15.8425 38.9101 16.1677C41.4313 18.7741 43.1809 21.9649 44.0641 25.3813C44.8837 28.5493 44.9581 31.9093 44.2129 35.1757L45.4165 35.5465C46.2289 32.0605 46.1593 28.4737 45.2893 25.0921ZM6.51614 46.4041C3.71534 43.3177 1.83374 39.6133 0.955341 35.6905C0.0181409 31.5085 0.224541 27.0805 1.67054 22.8913C1.81334 22.4749 2.26094 22.2505 2.67854 22.3789V22.3777L5.44214 23.2297C5.87174 23.3617 6.11414 23.8177 5.98214 24.2485C5.97854 24.2617 5.97374 24.2761 5.96894 24.2893C4.79774 27.6541 4.61054 31.2493 5.36294 34.6621C6.04694 37.7677 7.50974 40.7197 9.71414 43.2073L10.7605 42.1609C11.0797 41.8417 11.5969 41.8417 11.9161 42.1609C12.0313 42.2761 12.1057 42.4189 12.1369 42.5677L14.1193 49.9657C14.2357 50.4013 13.9765 50.8489 13.5421 50.9653C13.3957 51.0049 13.2469 51.0013 13.1113 50.9629L5.68334 48.9721C5.24774 48.8557 4.98974 48.4081 5.10614 47.9725C5.14454 47.8285 5.21894 47.7037 5.31734 47.6065L5.31614 47.6053L6.51614 46.4041ZM2.54534 35.3389C3.41054 39.2029 5.32574 42.8425 8.19734 45.8149C8.20814 45.8245 8.21894 45.8353 8.22974 45.8449C8.54894 46.1641 8.54894 46.6813 8.22974 47.0005L7.47134 47.7589L12.1777 49.0201L10.9165 44.3137L10.2709 44.9593L10.2697 44.9581L10.2589 44.9689C9.93494 45.2809 9.41894 45.2713 9.10694 44.9461C6.36734 42.1129 4.57214 38.6581 3.76814 35.0113C3.01094 31.5769 3.13334 27.9685 4.17374 24.5425L2.96654 24.1705C1.84334 27.8449 1.72814 31.6921 2.54534 35.3389Z" fill="#010101"/>
</svg>
