<svg width="60" height="60" viewBox="0 0 60 60" fill="none" xmlns="http://www.w3.org/2000/svg">
<g clip-path="url(#clip0_2_21437)">
<path d="M22.1817 17.6364V10.3637C22.1817 9.81823 21.818 9.45459 21.2726 9.45459C20.7271 9.45459 20.3635 9.81823 20.3635 10.3637V17.6364C18.7271 18 17.5453 19.5455 17.5453 21.2728C17.5453 22.3637 17.9999 23.2728 18.6362 24L15.3635 29.5455C15.0908 30 15.2726 30.5455 15.7271 30.8182C16.1817 31.091 16.7271 30.9091 16.9999 30.4546L20.2726 24.9091C20.6362 25 20.9999 25.091 21.3635 25.091C23.4544 25.091 25.0908 23.3637 25.0908 21.3637C24.9999 19.4546 23.7271 18 22.1817 17.6364ZM21.2726 23.1819C20.1817 23.1819 19.3635 22.2728 19.3635 21.2728C19.3635 20.1819 20.2726 19.3637 21.2726 19.3637C22.3635 19.3637 23.1817 20.2728 23.1817 21.2728C23.1817 22.2728 22.2726 23.1819 21.2726 23.1819Z" fill="white"/>
<path d="M21.2724 7.09095C21.8178 7.09095 22.1815 6.72732 22.1815 6.18186V4.36368C22.1815 3.81823 21.8178 3.45459 21.2724 3.45459C20.7269 3.45459 20.3633 3.81823 20.3633 4.36368V6.18186C20.3633 6.63641 20.7269 7.09095 21.2724 7.09095Z" fill="white"/>
<path d="M21.2724 35.3635C20.7269 35.3635 20.3633 35.7272 20.3633 36.2726V38.0908C20.3633 38.6363 20.7269 38.9999 21.2724 38.9999C21.8178 38.9999 22.1815 38.6363 22.1815 38.0908V36.2726C22.1815 35.8181 21.7269 35.3635 21.2724 35.3635Z" fill="white"/>
<path d="M7.09047 21.2726C7.09047 20.7272 6.72683 20.3635 6.18137 20.3635H4.36319C3.81774 20.3635 3.4541 20.7272 3.4541 21.2726C3.4541 21.8181 3.81774 22.1817 4.36319 22.1817H6.18137C6.63592 22.1817 7.09047 21.7272 7.09047 21.2726Z" fill="white"/>
<path d="M35.3633 21.2726C35.3633 21.8181 35.7269 22.1817 36.2724 22.1817H38.0906C38.636 22.1817 38.9996 21.8181 38.9996 21.2726C38.9996 20.7272 38.636 20.3635 38.0906 20.3635H36.2724C35.8178 20.3635 35.3633 20.7272 35.3633 21.2726Z" fill="white"/>
<path d="M6.09108 13.5455L7.72744 14.4546C8.18199 14.7273 8.72744 14.5455 9.00017 14.091C9.2729 13.6364 9.09108 13.091 8.63653 12.8182L7.00017 11.9091C6.54562 11.6364 6.00017 11.8182 5.72744 12.2728C5.54563 12.8182 5.63653 13.3637 6.09108 13.5455Z" fill="white"/>
<path d="M14.182 33.4546C13.7275 33.1818 13.182 33.3636 12.9093 33.8182L12.0002 35.4546C11.7275 35.9091 11.9093 36.4546 12.3638 36.7273C12.8184 37 13.3638 36.8182 13.6366 36.3636L14.5457 34.7273C14.7275 34.2727 14.6366 33.7273 14.182 33.4546Z" fill="white"/>
<path d="M28.2727 8.99999C28.7273 9.27272 29.2727 9.0909 29.5454 8.63635L30.4545 6.99999C30.7273 6.54544 30.5454 5.99999 30.0909 5.72726C29.6364 5.45453 29.0909 5.63635 28.8182 6.0909L27.9091 7.72726C27.7273 8.18181 27.8182 8.72726 28.2727 8.99999Z" fill="white"/>
<path d="M14.0003 9.09084C14.4548 8.81812 14.5457 8.27266 14.273 7.81812L13.3639 6.18175C13.0912 5.72721 12.5457 5.6363 12.0912 5.90902C11.6366 6.18175 11.5457 6.72721 11.8184 7.18175L12.7275 8.81812C13.0003 9.18175 13.5457 9.36357 14.0003 9.09084Z" fill="white"/>
<path d="M7.81836 28.1817L6.182 29.0908C5.72745 29.3635 5.63654 29.909 5.90927 30.3635C6.182 30.8181 6.72745 30.909 7.182 30.6363L8.81836 29.7272C9.27291 29.4545 9.36381 28.909 9.09109 28.4545C8.81836 27.9999 8.27291 27.909 7.81836 28.1817Z" fill="white"/>
<path d="M34.6361 14.3636L36.2725 13.4545C36.727 13.1818 36.8179 12.6363 36.5452 12.1818C36.2725 11.7272 35.727 11.6363 35.2725 11.909L33.6361 12.8181C33.1816 13.0908 33.0906 13.6363 33.3634 14.0908C33.6361 14.4545 34.1816 14.5454 34.6361 14.3636Z" fill="white"/>
<path d="M37.1816 1.81818H52.9088V23.6364L49.1815 19.9091C48.8179 19.5455 48.2725 19.5455 47.9088 19.9091C47.5452 20.2727 47.5452 20.8182 47.9088 21.1818L53.1816 26.4545C53.3634 26.6364 53.5452 26.7273 53.8179 26.7273C54.0906 26.7273 54.2725 26.6364 54.4543 26.4545L59.727 21.1818C60.0906 20.8182 60.0906 20.2727 59.727 19.9091C59.3634 19.5455 58.8179 19.5455 58.4543 19.9091L54.727 23.6364V0.909091C54.727 0.363636 54.3634 0 53.8179 0H37.1816C36.6361 0 36.2725 0.363636 36.2725 0.909091C36.2725 1.45455 36.727 1.81818 37.1816 1.81818Z" fill="white"/>
<path d="M59.3636 33.0909C59.1818 33 42.4545 23.8182 42.2727 23.8182C42.3636 22.9091 42.4545 22.0909 42.4545 21.2727C42.4545 9.54545 32.9091 0 21.1818 0C9.54545 0 0 9.54545 0 21.2727C0 33 9.54545 42.5455 21.1818 42.5455C22.0909 42.5455 23.1818 42.4545 24.2727 42.2727V48.4545C24.2727 48.7273 24.4545 49.0909 24.7273 49.1818L41.5455 59.8182C41.7273 59.9091 41.8182 60 42 60C42.1818 60 42.3636 59.9091 42.4545 59.9091L59.4545 50.9091C59.7273 50.7273 59.9091 50.4545 59.9091 50.0909V33.9091C59.9091 33.5455 59.7273 33.2727 59.3636 33.0909ZM57.0909 33.9091L53.0909 36.0909L38 27.8182L42 25.7273L57.0909 33.9091ZM49.4545 38.5455L33.8182 30L36.0909 28.7273L52.1818 37.5455V42.0909L50 43.4545V39.3636C50 39 49.7273 38.6364 49.4545 38.5455ZM42.0909 42.0909L27.0909 33.6364L31.9091 31.0909L47.1818 39.3636L42.0909 42.0909ZM21.1818 40.6364C10.5455 40.6364 1.81818 31.9091 1.81818 21.2727C1.81818 10.5455 10.5455 1.81818 21.1818 1.81818C31.9091 1.81818 40.6364 10.5455 40.6364 21.2727C40.6364 22.1818 40.5455 23.4545 40.3636 24.5455C40.3636 24.5455 24.9091 32.8182 24.7273 32.8182C24.4545 33 24.2727 33.3636 24.2727 33.6364V40.4545C23.1818 40.5455 22.0909 40.6364 21.1818 40.6364ZM26.0909 47.9091V35.1818L41.0909 43.6364V57.4545L26.0909 47.9091ZM42.9091 57.5455V43.7273L48.0909 40.9091V45C48.0909 45.3636 48.2727 45.6364 48.5455 45.8182C48.8182 46 49.1818 46 49.4545 45.8182L53.5455 43.5455C53.8182 43.3636 54 43.0909 54 42.7273V37.6364L58 35.4545V49.5455L42.9091 57.5455Z" fill="white"/>
<path d="M39.0912 46.4545L29.1821 40.7273C28.7276 40.4545 28.1821 40.6364 27.9094 41.0909C27.6367 41.5454 27.8185 42.0909 28.273 42.3636L38.1821 48C38.6367 48.2727 39.1821 48.0909 39.4548 47.6364C39.6367 47.2727 39.4548 46.6364 39.0912 46.4545Z" fill="white"/>
<path d="M39.0004 50.1819L29.0913 44.3637C28.6368 44.091 28.0913 44.2728 27.8186 44.7274C27.5458 45.1819 27.7277 45.7274 28.1822 46.0001L38.0913 51.7274C38.5458 52.0001 39.0913 51.8183 39.364 51.3637C39.5458 50.9092 39.364 50.3637 39.0004 50.1819Z" fill="white"/>
</g>
<defs>
<clipPath id="clip0_2_21437">
<rect width="60" height="60" fill="white"/>
</clipPath>
</defs>
</svg>
