<svg width="25" height="25" viewBox="0 0 25 25" fill="none" xmlns="http://www.w3.org/2000/svg">
<g clip-path="url(#clip0_2_4415)">
<path d="M0.736698 24.4671H24.201C24.3285 24.4671 24.4508 24.4165 24.5409 24.3263C24.6311 24.2362 24.6817 24.1139 24.6817 23.9864V10.4726C24.6793 10.3924 24.6594 10.3137 24.6233 10.2421C24.5873 10.1704 24.5359 10.1075 24.473 10.0578L23.1982 8.95889V2.67043C23.1961 2.54436 23.1445 2.42418 23.0545 2.33579C22.9646 2.24741 22.8436 2.19789 22.7175 2.19791H15.2449L13.657 0.824279C13.3224 0.54972 12.903 0.399658 12.4702 0.399658C12.0374 0.399658 11.618 0.54972 11.2834 0.824279L9.69274 2.19791H2.22021C2.09412 2.19789 1.97307 2.24741 1.88314 2.33579C1.79321 2.42418 1.74161 2.54436 1.73945 2.67043V8.97263L0.478456 10.0468C0.408771 10.0936 0.351901 10.157 0.313032 10.2314C0.274164 10.3058 0.254532 10.3887 0.255929 10.4726V23.9864C0.255929 24.1139 0.306581 24.2362 0.396743 24.3263C0.486905 24.4165 0.60919 24.4671 0.736698 24.4671ZM7.89329 17.1952L1.22571 22.9094V11.5111L7.89329 17.1952ZM23.7092 11.4974V22.9424L17.0334 17.1979L23.7092 11.4974ZM16.1213 17.6869L22.8905 23.5056H2.01142L8.79164 17.6869H16.1213ZM23.4537 10.4397L23.1982 10.6567V10.2364L23.4537 10.4397ZM11.907 1.56604C12.0685 1.44173 12.2665 1.37432 12.4702 1.37432C12.674 1.37432 12.872 1.44173 13.0334 1.56604L13.7642 2.19791H11.1763L11.907 1.56604ZM2.70098 3.1512H22.2367V11.4781L16.0993 16.7254H8.82186L2.6845 11.4891C2.69555 11.4498 2.7011 11.4091 2.70098 11.3682V3.1512ZM1.73945 10.6842L1.46472 10.4589L1.73945 10.2336V10.6842Z" fill="#F68B21"/>
<path d="M11.0859 13.8133C12.3004 14.1472 13.5953 14.022 14.7233 13.4617C14.837 13.4037 14.9229 13.303 14.9624 13.1817C15.0018 13.0604 14.9914 12.9284 14.9335 12.8147C14.8755 12.701 14.7748 12.615 14.6535 12.5756C14.5322 12.5362 14.4001 12.5466 14.2865 12.6045C13.3857 13.0485 12.3564 13.1575 11.3826 12.9122C8.74801 11.904 9.45955 9.09903 9.48153 8.9809C9.69307 8.1842 10.7343 6.16222 13.0255 6.3353C15.5997 6.53585 15.5914 8.91222 15.5639 9.38749C15.5063 10.3765 14.9376 11.1265 14.4815 11.1265H14.465C14.4281 11.1288 14.391 11.1232 14.3564 11.1099C14.3218 11.0966 14.2904 11.076 14.2645 11.0496C14.1554 10.862 14.1092 10.6444 14.1326 10.4287L14.4568 7.85727C14.4568 7.8353 14.4568 7.81607 14.4568 7.79683C14.4581 7.67778 14.4151 7.56251 14.3362 7.47331C14.2574 7.38412 14.1482 7.32736 14.0299 7.31403C13.9116 7.30069 13.7926 7.33173 13.6958 7.40113C13.5991 7.47053 13.5315 7.57335 13.5063 7.68969C13.2243 7.46201 12.8766 7.33102 12.5145 7.31607H12.4733C11.4953 7.31607 10.3661 8.09354 10.1601 9.56332C10.0576 10.0825 10.1615 10.6211 10.4498 11.0649C10.7381 11.5086 11.188 11.8224 11.7041 11.9397C12.0032 11.9901 12.3095 11.9773 12.6034 11.9021C12.8972 11.8269 13.172 11.6909 13.4101 11.5029C13.4482 11.5641 13.4914 11.622 13.5392 11.676C13.6498 11.8032 13.786 11.9057 13.9389 11.9767C14.0918 12.0477 14.258 12.0857 14.4266 12.088C15.4898 12.1375 16.4376 10.9424 16.5255 9.44244C16.6326 7.55782 15.6161 5.57156 13.0969 5.3765C10.4705 5.17321 8.93757 7.27486 8.55296 8.7364C7.77274 11.6924 9.76175 13.3133 11.0859 13.8133ZM13.1848 10.2419C13.0861 10.4931 12.9053 10.7036 12.672 10.8392C12.4386 10.9748 12.1663 11.0277 11.8991 10.9891C11.6233 10.9196 11.386 10.7443 11.2384 10.5011C11.0909 10.2579 11.045 9.96644 11.1106 9.68969C11.259 8.64848 12.0145 8.26936 12.4843 8.26936H12.5035C12.9293 8.26936 13.2453 8.7776 13.2535 8.78859C13.2817 8.83812 13.319 8.88192 13.3634 8.91771L13.1848 10.2419Z" fill="#F68B21"/>
</g>
<defs>
<clipPath id="clip0_2_4415">
<rect width="25" height="25" fill="white"/>
</clipPath>
</defs>
</svg>
