<svg width="70" height="70" viewBox="0 0 70 70" fill="none" xmlns="http://www.w3.org/2000/svg">
<g clip-path="url(#clip0_2_6090)">
<path d="M36.1757 9.8688C36.1757 6.37851 33.336 3.53899 29.8457 3.53899C26.3556 3.53899 23.5161 6.37851 23.5161 9.8688C23.5161 13.3591 26.3556 16.1987 29.8457 16.1987C33.3362 16.1986 36.1757 13.3591 36.1757 9.8688ZM25.7036 9.8688C25.7036 7.58464 27.5617 5.72649 29.8457 5.72649C32.1299 5.72649 33.9882 7.58464 33.9882 9.8688C33.9882 12.153 32.1299 14.0112 29.8457 14.0112C27.5619 14.0111 25.7036 12.153 25.7036 9.8688ZM43.2496 64.8472C43.2496 65.6193 42.6251 66.244 41.8528 66.244C41.0807 66.244 40.4561 65.6194 40.4561 64.8472C40.4561 64.0751 41.0806 63.4505 41.8528 63.4505C42.6251 63.4505 43.2496 64.0749 43.2496 64.8472ZM15.1173 64.8472C15.1173 65.6193 14.4928 66.244 13.7204 66.244C12.9484 66.244 12.3237 65.6194 12.3237 64.8472C12.3237 64.0751 12.9483 63.4505 13.7204 63.4505C14.4926 63.4505 15.1173 64.0749 15.1173 64.8472ZM12.1027 45.0238C11.8006 44.5008 11.9799 43.8318 12.503 43.5298L18.7223 39.939C19.2454 39.6373 19.9144 39.8162 20.2164 40.3393C20.5184 40.8624 20.3391 41.5314 19.8161 41.8334L13.5967 45.4242C13.4245 45.5235 13.2365 45.5709 13.0508 45.5709C12.6729 45.571 12.3053 45.3748 12.1027 45.0238ZM23.9537 46.8124C24.2557 47.3355 24.0765 48.0044 23.5534 48.3065L17.3342 51.8972C17.1619 51.9966 16.9739 52.0439 16.7883 52.0439C16.4103 52.0439 16.0426 51.8477 15.84 51.4969C15.538 50.9738 15.7172 50.3049 16.2403 50.0029L22.4595 46.4121C22.9827 46.1105 23.6517 46.2893 23.9537 46.8124ZM10.721 50.137C10.419 49.6139 10.5982 48.9449 11.1213 48.6429L23.8415 41.2989C24.3646 40.9972 25.0335 41.1762 25.3355 41.6992C25.6375 42.2223 25.4583 42.8913 24.9352 43.1933L12.215 50.5373C12.0428 50.6367 11.8548 50.684 11.6691 50.684C11.2912 50.684 10.9236 50.4878 10.721 50.137ZM60.8294 45.3715H56.7767C54.32 45.3715 52.3213 43.3728 52.3213 40.9161C52.3213 38.4594 54.32 36.4607 56.7767 36.4607H60.1462C63.809 36.4607 66.7889 33.4808 66.7889 29.8178C66.7889 26.1549 63.809 23.175 60.1462 23.175H40.1389C39.2601 22.0766 37.0486 21.4932 34.723 21.1883C37.118 18.331 39.6436 14.2735 39.6436 9.86579C39.6436 4.46335 35.2483 0.0681152 29.8457 0.0681152C24.4433 0.0681152 20.0482 4.46335 20.0482 9.86579C20.0482 14.2735 22.5737 18.331 24.9686 21.1883C21.9669 21.5816 19.1528 22.4384 19.1528 24.2687C19.1528 26.0801 21.9014 26.7352 22.8045 26.9504C24.6981 27.4017 27.1987 27.6504 29.8456 27.6504C32.4926 27.6504 34.9932 27.4019 36.8869 26.9504C37.5779 26.7857 39.3478 26.363 40.1419 25.3625H60.1459C62.6025 25.3625 64.6012 27.3611 64.6012 29.8178C64.6012 32.2745 62.6025 34.2732 60.1459 34.2732H56.7767C53.1138 34.2732 50.1338 37.2532 50.1338 40.9161C50.1338 44.5791 53.1138 47.559 56.7767 47.559H60.8295C64.2646 47.559 67.0589 50.3535 67.0589 53.7885C67.0589 57.2234 64.2644 60.0179 60.8295 60.0179H51.8266V50.6468C51.8266 49.5939 51.4664 48.6662 50.7561 47.8893L43.7355 40.2107C42.9405 39.3411 41.8976 38.8815 40.7193 38.8815H35.3026V38.1372C35.3026 35.8838 33.4693 34.0505 31.2158 34.0505H4.8407C2.5873 34.0505 0.753906 35.8838 0.753906 38.1372V61.8542C0.753906 64.1076 2.58717 65.941 4.8407 65.941H8.75605C9.25781 68.2204 11.2926 69.9315 13.7206 69.9315C16.1486 69.9315 18.1835 68.2204 18.6853 65.941H36.8883C37.39 68.2204 39.4248 69.9315 41.8529 69.9315C44.2811 69.9315 46.3157 68.2204 46.8176 65.941H49.735C50.8884 65.941 51.8267 65.0027 51.8267 63.8492V62.2056H60.8296C65.4708 62.2056 69.2466 58.4297 69.2466 53.7886C69.2466 49.1475 65.4705 45.3715 60.8294 45.3715ZM29.8457 2.25575C34.042 2.25575 37.4561 5.66962 37.4561 9.86593C37.4561 15.7781 31.8256 21.3011 29.8457 23.0598C27.8661 21.3009 22.2357 15.7781 22.2357 9.86593C22.2357 5.66962 25.6496 2.25575 29.8457 2.25575ZM21.6377 24.2703C22.3369 23.9173 23.9798 23.4268 26.8001 23.196C28.0728 24.4813 29.0495 25.2616 29.1686 25.3555C29.2189 25.3951 29.2719 25.4296 29.3268 25.4592C25.2493 25.4077 22.6038 24.7571 21.6377 24.2703ZM30.3649 25.4592C30.4197 25.4296 30.4727 25.3951 30.523 25.3555C30.6421 25.2616 31.6188 24.4812 32.8916 23.196C35.7119 23.4268 37.3549 23.9173 38.0541 24.2703C37.0879 24.7571 34.4424 25.4077 30.3649 25.4592ZM42.121 41.6868L49.1415 49.3656C49.1976 49.427 49.247 49.4898 49.2933 49.5533H39.434V41.0691H40.7193C41.2825 41.0691 41.7411 41.2712 42.121 41.6868ZM4.8407 36.2382H31.2159C32.2632 36.2382 33.1152 37.09 33.1152 38.1373V56.596H2.94141V38.1372C2.94141 37.09 3.79344 36.2382 4.8407 36.2382ZM13.7204 67.744C12.1232 67.744 10.8237 66.4445 10.8237 64.8472C10.8237 63.25 12.1232 61.9504 13.7204 61.9504C15.3179 61.9504 16.6174 63.25 16.6174 64.8472C16.6174 66.4445 15.3179 67.744 13.7204 67.744ZM18.6851 63.7535C18.1832 61.4741 16.1484 59.7629 13.7204 59.7629C11.2925 59.7629 9.25781 61.4741 8.75592 63.7535H4.8407C3.79344 63.7535 2.94141 62.9015 2.94141 61.8542V58.7834H33.1151V63.7535H18.6851ZM41.8529 67.744C40.2555 67.744 38.9561 66.4445 38.9561 64.8472C38.9561 63.25 40.2556 61.9504 41.8529 61.9504C43.4502 61.9504 44.7497 63.25 44.7497 64.8472C44.7497 66.4445 43.4502 67.744 41.8529 67.744ZM46.8175 63.7535C46.3157 61.4741 44.2809 59.7629 41.8528 59.7629C39.4247 59.7629 37.39 61.4741 36.8881 63.7535H35.3025V41.0691H37.2463V50.6471C37.2463 51.2511 37.7361 51.7408 38.3401 51.7408H49.6389V63.7535H46.8175Z" fill="#F68B21"/>
</g>
<defs>
<clipPath id="clip0_2_6090">
<rect width="70" height="70" fill="white"/>
</clipPath>
</defs>
</svg>
