<svg width="70" height="70" viewBox="0 0 70 70" fill="none" xmlns="http://www.w3.org/2000/svg">
<g clip-path="url(#clip0_2_6097)">
<path d="M25.8789 20.5757V12.0909C25.8789 11.4545 25.4547 11.0303 24.8183 11.0303C24.182 11.0303 23.7577 11.4545 23.7577 12.0909V20.5757C21.8486 21 20.4699 22.803 20.4699 24.8182C20.4699 26.0909 21.0002 27.1515 21.7426 28L17.9244 34.4697C17.6062 35 17.8183 35.6363 18.3486 35.9545C18.8789 36.2727 19.5153 36.0606 19.8335 35.5303L23.6517 29.0606C24.0759 29.1666 24.5002 29.2727 24.9244 29.2727C27.3638 29.2727 29.2729 27.2575 29.2729 24.9242C29.1668 22.6969 27.682 21 25.8789 20.5757ZM24.8183 27.0454C23.5456 27.0454 22.5911 25.9848 22.5911 24.8182C22.5911 23.5454 23.6517 22.5909 24.8183 22.5909C26.0911 22.5909 27.0456 23.6515 27.0456 24.8182C27.0456 25.9848 25.985 27.0454 24.8183 27.0454Z" fill="#F68B21"/>
<path d="M24.8184 8.2727C25.4548 8.2727 25.879 7.84846 25.879 7.21209V5.09088C25.879 4.45452 25.4548 4.03027 24.8184 4.03027C24.1821 4.03027 23.7578 4.45452 23.7578 5.09088V7.21209C23.7578 7.7424 24.1821 8.2727 24.8184 8.2727Z" fill="#F68B21"/>
<path d="M24.8184 41.2576C24.1821 41.2576 23.7578 41.6818 23.7578 42.3182V44.4394C23.7578 45.0758 24.1821 45.5 24.8184 45.5C25.4548 45.5 25.879 45.0758 25.879 44.4394V42.3182C25.879 41.7879 25.3487 41.2576 24.8184 41.2576Z" fill="#F68B21"/>
<path d="M8.2727 24.8182C8.2727 24.1818 7.84846 23.7576 7.21209 23.7576H5.09088C4.45452 23.7576 4.03027 24.1818 4.03027 24.8182C4.03027 25.4545 4.45452 25.8788 5.09088 25.8788H7.21209C7.7424 25.8788 8.2727 25.3485 8.2727 24.8182Z" fill="#F68B21"/>
<path d="M41.2578 24.8182C41.2578 25.4545 41.6821 25.8788 42.3184 25.8788H44.4396C45.076 25.8788 45.5002 25.4545 45.5002 24.8182C45.5002 24.1818 45.076 23.7576 44.4396 23.7576H42.3184C41.7881 23.7576 41.2578 24.1818 41.2578 24.8182Z" fill="#F68B21"/>
<path d="M7.10626 15.803L9.01535 16.8636C9.54565 17.1818 10.182 16.9696 10.5002 16.4393C10.8184 15.909 10.6063 15.2727 10.076 14.9545L8.16687 13.8939C7.63656 13.5757 7.0002 13.7878 6.68202 14.3181C6.4699 14.9545 6.57596 15.5909 7.10626 15.803Z" fill="#F68B21"/>
<path d="M16.5455 39.0304C16.0152 38.7122 15.3789 38.9243 15.0607 39.4546L14.0001 41.3637C13.6819 41.894 13.894 42.5304 14.4243 42.8485C14.9546 43.1667 15.591 42.9546 15.9092 42.4243L16.9698 40.5152C17.1819 39.9849 17.0758 39.3485 16.5455 39.0304Z" fill="#F68B21"/>
<path d="M32.9847 10.4999C33.515 10.8181 34.1513 10.606 34.4695 10.0757L35.5301 8.16657C35.8483 7.63627 35.6362 6.99991 35.1059 6.68172C34.5756 6.36354 33.9392 6.57566 33.621 7.10597L32.5604 9.01506C32.3483 9.54536 32.4544 10.1817 32.9847 10.4999Z" fill="#F68B21"/>
<path d="M16.3333 10.6059C16.8636 10.2878 16.9697 9.6514 16.6515 9.12109L15.5909 7.212C15.2727 6.6817 14.6363 6.57564 14.106 6.89382C13.5757 7.212 13.4697 7.84837 13.7879 8.37867L14.8485 10.2878C15.1667 10.712 15.803 10.9241 16.3333 10.6059Z" fill="#F68B21"/>
<path d="M9.12109 32.8787L7.212 33.9393C6.6817 34.2575 6.57564 34.8938 6.89382 35.4241C7.212 35.9544 7.84837 36.0605 8.37867 35.7423L10.2878 34.6817C10.8181 34.3635 10.9241 33.7272 10.6059 33.1969C10.2878 32.6666 9.6514 32.5605 9.12109 32.8787Z" fill="#F68B21"/>
<path d="M40.4089 16.7575L42.318 15.6969C42.8483 15.3787 42.9544 14.7423 42.6362 14.212C42.318 13.6817 41.6817 13.5756 41.1514 13.8938L39.2423 14.9544C38.712 15.2726 38.6059 15.909 38.9241 16.4393C39.2423 16.8635 39.8786 16.9696 40.4089 16.7575Z" fill="#F68B21"/>
<path d="M43.379 2.12121H61.7274V27.5758L57.379 23.2273C56.9547 22.803 56.3184 22.803 55.8941 23.2273C55.4699 23.6515 55.4699 24.2879 55.8941 24.7121L62.0456 30.8636C62.2578 31.0758 62.4699 31.1818 62.7881 31.1818C63.1062 31.1818 63.3184 31.0758 63.5305 30.8636L69.682 24.7121C70.1062 24.2879 70.1062 23.6515 69.682 23.2273C69.2577 22.803 68.6214 22.803 68.1971 23.2273L63.8487 27.5758V1.06061C63.8487 0.424242 63.4244 0 62.7881 0H43.379C42.7426 0 42.3184 0.424242 42.3184 1.06061C42.3184 1.69697 42.8487 2.12121 43.379 2.12121Z" fill="#F68B21"/>
<path d="M69.2576 38.6061C69.0455 38.5 49.5303 27.7879 49.3182 27.7879C49.4242 26.7273 49.5303 25.7727 49.5303 24.8182C49.5303 11.1364 38.3939 0 24.7121 0C11.1364 0 0 11.1364 0 24.8182C0 38.5 11.1364 49.6364 24.7121 49.6364C25.7727 49.6364 27.0455 49.5303 28.3182 49.3182V56.5303C28.3182 56.8485 28.5303 57.2727 28.8485 57.3788L48.4697 69.7879C48.6818 69.8939 48.7879 70 49 70C49.2121 70 49.4242 69.8939 49.5303 69.8939L69.3636 59.3939C69.6818 59.1818 69.8939 58.8636 69.8939 58.4394V39.5606C69.8939 39.1364 69.6818 38.8182 69.2576 38.6061ZM66.6061 39.5606L61.9394 42.1061L44.3333 32.4545L49 30.0151L66.6061 39.5606ZM57.697 44.9697L39.4545 35L42.1061 33.5152L60.8788 43.803V49.1061L58.3333 50.697V45.9242C58.3333 45.5 58.0152 45.0758 57.697 44.9697ZM49.1061 49.1061L31.6061 39.2424L37.2273 36.2727L55.0455 45.9242L49.1061 49.1061ZM24.7121 47.4091C12.303 47.4091 2.12121 37.2273 2.12121 24.8182C2.12121 12.303 12.303 2.12121 24.7121 2.12121C37.2273 2.12121 47.4091 12.303 47.4091 24.8182C47.4091 25.8788 47.303 27.3636 47.0909 28.6364C47.0909 28.6364 29.0606 38.2879 28.8485 38.2879C28.5303 38.5 28.3182 38.9242 28.3182 39.2424V47.197C27.0455 47.303 25.7727 47.4091 24.7121 47.4091ZM30.4394 55.8939V41.0455L47.9394 50.9091V67.0303L30.4394 55.8939ZM50.0606 67.1364V51.0151L56.1061 47.7273V52.5C56.1061 52.9242 56.3182 53.2424 56.6364 53.4545C56.9546 53.6667 57.3788 53.6667 57.697 53.4545L62.4697 50.803C62.7879 50.5909 63 50.2727 63 49.8485V43.9091L67.6667 41.3636V57.803L50.0606 67.1364Z" fill="#F68B21"/>
<path d="M45.6061 54.197L34.0455 47.5152C33.5152 47.197 32.8788 47.4092 32.5606 47.9395C32.2424 48.4698 32.4546 49.1061 32.9849 49.4243L44.5455 56.0001C45.0758 56.3182 45.7121 56.1061 46.0303 55.5758C46.2424 55.1516 46.0303 54.4092 45.6061 54.197Z" fill="#F68B21"/>
<path d="M45.5001 58.5455L33.9395 51.7577C33.4092 51.4395 32.7729 51.6516 32.4547 52.1819C32.1365 52.7122 32.3486 53.3486 32.8789 53.6667L44.4395 60.3486C44.9698 60.6667 45.6062 60.4546 45.9244 59.9243C46.1365 59.394 45.9244 58.7577 45.5001 58.5455Z" fill="#F68B21"/>
</g>
<defs>
<clipPath id="clip0_2_6097">
<rect width="70" height="70" fill="white"/>
</clipPath>
</defs>
</svg>
