<svg width="50" height="50" viewBox="0 0 50 50" fill="none" xmlns="http://www.w3.org/2000/svg">
<path d="M49.1671 21.6667H49.1667H45.8333V7.68698C47.6693 6.31073 48.0419 3.70677 46.6656 1.87083C45.2894 0.0348957 42.6854 -0.337708 40.8495 1.03854C39.8826 1.76333 39.2792 2.87312 39.1966 4.07865L16.6667 1.74802V0.833333C16.6668 0.373229 16.2939 0.000104188 15.8337 2.18173e-08H15.8333H10.8333C10.3732 -0.000104145 10.0001 0.372812 10 0.832917V0.833333V5C9.9999 5.4601 10.3728 5.83323 10.8329 5.83333H10.8333H12.5V8.33333C12.4999 8.79344 12.8728 9.16656 13.3329 9.16667H13.3333H13.75C14.9006 9.16667 15.8333 10.0994 15.8333 11.25C15.8333 12.4006 14.9006 13.3333 13.75 13.3333C12.5994 13.3333 11.6667 12.4006 11.6667 11.25H10C10.004 12.3966 10.535 13.4776 11.4401 14.1816L1.46969 19.1667H0.833333C0.373229 19.1666 0.000104188 19.5395 2.18173e-08 19.9996V20V31.6667C-0.000104145 32.1268 0.372812 32.4999 0.832917 32.5H0.833333H25.8333C26.2934 32.5001 26.6666 32.1272 26.6667 31.6671V31.6667V20C26.6668 19.5399 26.2939 19.1668 25.8337 19.1667H25.8333H24.3774L15.6477 14.466C17.4302 13.4247 18.0309 11.1356 16.9896 9.35312C16.3919 8.3301 15.3446 7.65094 14.1667 7.52271V5.83333H15.8333C16.2934 5.83344 16.6666 5.46052 16.6667 5.00042V5V3.42438L39.4274 5.77896C39.7012 6.53781 40.1897 7.20073 40.8333 7.68708V21.6667H33.3333C32.8732 21.6666 32.5001 22.0395 32.5 22.4996V22.5V34.1667H30.8333C30.3732 34.1666 30.0001 34.5395 30 34.9996V35V49.1667C29.9999 49.6268 30.3728 49.9999 30.8329 50H30.8333H49.1667C49.6268 50.0001 49.9999 49.6272 50 49.1671V49.1667V22.5C50.0001 22.0399 49.6272 21.6668 49.1671 21.6667ZM25 20.8333V30.8333H1.66667V20.8333H25ZM20.8607 19.1667H5.19708L13.3192 15.1058L20.8607 19.1667ZM15 4.16667H11.6667V1.66667H15V4.16667ZM43.3333 1.875C44.7141 1.875 45.8333 2.99427 45.8333 4.375C45.8333 5.75573 44.7141 6.875 43.3333 6.875C41.9526 6.875 40.8333 5.75573 40.8333 4.375C40.8348 2.9949 41.9532 1.87646 43.3333 1.875ZM45 26.7794L47.7758 29.0926L45 30.943V26.7794ZM47.7758 36.5926L45 38.443V34.2795L47.7758 36.5926ZM47.7758 44.0926L45 45.943V41.7795L47.7758 44.0926ZM43.3333 48.3333H31.6667V35.8333H43.3333V48.3333ZM43.3333 34.1667H34.1667V23.3333H43.3333V34.1667ZM44.1667 21.6667H42.5V8.4574C43.0499 8.56969 43.6168 8.56969 44.1667 8.4574V21.6667ZM48.3333 48.3333H45V47.9459L48.3333 45.7237V48.3333ZM48.3333 42.3872L45.5575 40.074L48.3333 38.2236V42.3872ZM48.3333 34.8872L45.5575 32.574L48.3333 30.7236V34.8872ZM48.3333 27.3872L45 24.6094V23.3333H48.3333V27.3872Z" fill="white"/>
</svg>
