<svg width="70" height="70" viewBox="0 0 70 70" fill="none" xmlns="http://www.w3.org/2000/svg">
<path d="M5.83303 35C5.83224 29.5228 7.37394 24.1562 10.2816 19.5145C13.1893 14.8729 17.3453 11.1439 22.2739 8.75464C27.2024 6.36536 32.7042 5.41235 38.1492 6.00475C43.5943 6.59714 48.7624 8.71099 53.0618 12.1042H48.6252C48.2409 12.108 47.8735 12.2632 47.6031 12.5363C47.3326 12.8094 47.1809 13.1782 47.1809 13.5625C47.1809 13.9469 47.3326 14.3157 47.6031 14.5888C47.8735 14.8619 48.2409 15.0171 48.6252 15.0209H56.8746C57.2614 15.0209 57.6324 14.8672 57.9059 14.5937C58.1794 14.3202 58.333 13.9493 58.333 13.5625V5.31273C58.3293 4.92841 58.174 4.56109 57.9009 4.29064C57.6279 4.02019 57.2591 3.86847 56.8747 3.86847C56.4904 3.86847 56.1216 4.02019 55.8485 4.29064C55.5754 4.56109 55.4201 4.92841 55.4164 5.31273V10.251C49.0574 5.00529 40.9232 2.40853 32.701 2.9993C24.4787 3.59007 16.7993 7.32305 11.2556 13.424C5.71186 19.5249 2.72917 27.5256 2.92616 35.7667C3.12316 44.0078 6.48472 51.8569 12.3136 57.686C12.5882 57.9543 12.9574 58.1035 13.3412 58.1013C13.725 58.0991 14.0925 57.9456 14.3639 57.6742C14.6354 57.4028 14.7888 57.0353 14.791 56.6515C14.7932 56.2676 14.644 55.8984 14.3758 55.6239C11.6589 52.9218 9.50497 49.7077 8.03861 46.1676C6.57225 42.6275 5.82259 38.8317 5.83303 35Z" fill="#F68B21"/>
<path d="M22.2542 61.2434C21.4268 60.8411 20.6079 60.3932 19.8206 59.9133C19.4905 59.7118 19.0939 59.6497 18.718 59.7406C18.342 59.8315 18.0176 60.0681 17.8161 60.3982C17.6146 60.7283 17.5525 61.1249 17.6434 61.5008C17.7344 61.8768 17.9709 62.2012 18.301 62.4027C19.1677 62.9318 20.0691 63.4238 20.9799 63.8667C21.1521 63.9504 21.3392 63.9993 21.5303 64.0107C21.7215 64.0221 21.913 63.9958 22.094 63.9331C22.275 63.8705 22.4418 63.7729 22.5851 63.6458C22.7283 63.5187 22.8451 63.3646 22.9288 63.1924C23.0125 63.0201 23.0614 62.8331 23.0728 62.6419C23.0843 62.4508 23.0579 62.2592 22.9953 62.0782C22.9327 61.8973 22.835 61.7304 22.7079 61.5872C22.5808 61.4439 22.4267 61.3271 22.2545 61.2434H22.2542Z" fill="#F68B21"/>
<path d="M61.2562 22.2809C61.3397 22.4532 61.4563 22.6075 61.5994 22.7347C61.7425 22.862 61.9093 22.9599 62.0902 23.0227C62.2711 23.0856 62.4626 23.1122 62.6538 23.101C62.845 23.0898 63.0321 23.0411 63.2045 22.9576C63.3768 22.8741 63.5311 22.7575 63.6584 22.6144C63.7857 22.4713 63.8835 22.3046 63.9464 22.1237C64.0092 21.9428 64.0358 21.7512 64.0246 21.56C64.0135 21.3689 63.9647 21.1817 63.8812 21.0094C63.4418 20.1014 62.9506 19.2 62.4215 18.3297C62.322 18.1661 62.1912 18.0236 62.0366 17.9105C61.882 17.7974 61.7066 17.7159 61.5205 17.6706C61.1447 17.579 60.7478 17.6406 60.4173 17.8416C60.0868 18.0427 59.8498 18.3667 59.7582 18.7426C59.6667 19.1185 59.7282 19.5153 59.9293 19.8458C60.4102 20.637 60.8568 21.4563 61.2562 22.2809Z" fill="#F68B21"/>
<path d="M38.4598 63.9623C37.5391 64.0717 36.6077 64.1368 35.6906 64.1589C35.3108 64.1734 34.9517 64.3357 34.6898 64.611C34.4279 64.8863 34.2838 65.253 34.2882 65.633C34.2926 66.0131 34.4452 66.3763 34.7135 66.6455C34.9817 66.9147 35.3445 67.0685 35.7245 67.0742C35.7358 67.0742 35.748 67.0742 35.7593 67.0735C36.7676 67.05 37.7908 66.9778 38.802 66.8584C39.1858 66.8127 39.5357 66.6165 39.7749 66.3129C40.0142 66.0093 40.1231 65.6232 40.0778 65.2394C40.0325 64.8556 39.8367 64.5054 39.5334 64.2658C39.2301 64.0263 38.8441 63.9169 38.4602 63.9618L38.4598 63.9623Z" fill="#F68B21"/>
<path d="M30.1605 63.7643C29.2534 63.6127 28.3412 63.4154 27.4496 63.1764C27.0759 63.0765 26.6777 63.1292 26.3428 63.3228C26.0079 63.5165 25.7636 63.8352 25.6637 64.209C25.5638 64.5827 25.6165 64.9809 25.8101 65.3158C26.0038 65.6507 26.3225 65.895 26.6963 65.9949C27.6775 66.257 28.6816 66.4741 29.6806 66.6407C29.8695 66.6723 30.0627 66.6662 30.2493 66.6231C30.4359 66.5799 30.6121 66.5004 30.768 66.3891C30.9238 66.2778 31.0562 66.1369 31.1576 65.9745C31.259 65.812 31.3274 65.6312 31.359 65.4423C31.3905 65.2534 31.3845 65.0601 31.3413 64.8735C31.2981 64.687 31.2186 64.5107 31.1073 64.3549C30.996 64.199 30.8551 64.0666 30.6927 63.9652C30.5302 63.8638 30.3494 63.7954 30.1605 63.7639V63.7643Z" fill="#F68B21"/>
<path d="M65.6516 34.2968C65.265 34.2874 64.8904 34.4319 64.6103 34.6985C64.3302 34.9651 64.1674 35.3321 64.1576 35.7187C64.1341 36.6409 64.0673 37.5722 63.9575 38.4879C63.9118 38.872 64.0205 39.2585 64.2596 39.5626C64.4987 39.8666 64.8488 40.0632 65.2328 40.1093C65.291 40.1158 65.3494 40.1191 65.4079 40.1193C65.7644 40.1187 66.1083 39.9877 66.3747 39.7509C66.6412 39.5142 66.8117 39.188 66.8542 38.8341C66.9738 37.828 67.0479 36.8047 67.0729 35.7914C67.0778 35.5999 67.0449 35.4094 66.9761 35.2306C66.9073 35.0519 66.8039 34.8884 66.6719 34.7496C66.5399 34.6108 66.3819 34.4994 66.2068 34.4217C66.0317 34.344 65.8431 34.3016 65.6516 34.2968Z" fill="#F68B21"/>
<path d="M61.1748 50.9776C60.8548 50.7606 60.4617 50.6795 60.0819 50.752C59.7021 50.8244 59.3666 51.0446 59.1489 51.3642C58.6305 52.1268 58.0701 52.8738 57.4819 53.5837C57.3569 53.7308 57.2623 53.9012 57.2036 54.0852C57.145 54.2691 57.1235 54.4629 57.1403 54.6552C57.1572 54.8475 57.212 55.0346 57.3018 55.2056C57.3915 55.3765 57.5143 55.5279 57.663 55.651C57.8117 55.7742 57.9834 55.8665 58.1681 55.9228C58.3527 55.979 58.5468 55.998 58.7389 55.9786C58.9309 55.9593 59.1173 55.902 59.287 55.81C59.4568 55.7181 59.6066 55.5934 59.7278 55.4431C60.3743 54.6627 60.9918 53.8415 61.5613 53.0028C61.6689 52.8444 61.7443 52.6664 61.7831 52.4789C61.8219 52.2915 61.8234 52.0982 61.7875 51.9101C61.7516 51.722 61.6791 51.5429 61.5739 51.3829C61.4688 51.2229 61.3332 51.0851 61.1748 50.9776Z" fill="#F68B21"/>
<path d="M63.1846 27.4762C63.421 28.3642 63.6176 29.2764 63.7692 30.1878C63.8257 30.5282 64.0011 30.8376 64.2642 31.0609C64.5273 31.2843 64.861 31.4071 65.2061 31.4076C65.2865 31.4074 65.3667 31.4007 65.4461 31.3876C65.635 31.3563 65.816 31.288 65.9785 31.1867C66.1411 31.0855 66.2821 30.9531 66.3936 30.7973C66.505 30.6416 66.5846 30.4653 66.6279 30.2787C66.6712 30.0922 66.6773 29.8989 66.6459 29.7099C66.4799 28.7074 66.2631 27.7029 66.0033 26.7256C65.9038 26.3519 65.6599 26.033 65.3252 25.8391C64.9905 25.6452 64.5925 25.5922 64.2188 25.6917C63.845 25.7912 63.5261 26.0352 63.3322 26.3698C63.1383 26.7045 63.0853 27.1025 63.1849 27.4762H63.1846Z" fill="#F68B21"/>
<path d="M53.5587 57.5023C52.8458 58.092 52.0989 58.6522 51.3392 59.1671C51.1807 59.2746 51.0449 59.4122 50.9396 59.5721C50.8343 59.732 50.7615 59.9111 50.7254 60.0992C50.6893 60.2872 50.6906 60.4805 50.7292 60.6681C50.7678 60.8556 50.843 61.0338 50.9504 61.1923C51.0579 61.3508 51.1955 61.4865 51.3554 61.5919C51.5153 61.6972 51.6944 61.77 51.8825 61.8061C52.0705 61.8422 52.2638 61.8409 52.4514 61.8023C52.6389 61.7636 52.8171 61.6885 52.9756 61.581C53.8116 61.0149 54.6326 60.3989 55.4172 59.751C55.7154 59.5046 55.9035 59.1498 55.9401 58.7646C55.9767 58.3795 55.8588 57.9956 55.6123 57.6974C55.3659 57.3992 55.011 57.2111 54.6259 57.1745C54.2408 57.1379 53.8569 57.2558 53.5587 57.5023Z" fill="#F68B21"/>
<path d="M64.6105 42.9589C64.2421 42.8418 63.8423 42.8758 63.4988 43.0532C63.1553 43.2306 62.8963 43.537 62.7785 43.9052C62.4993 44.7802 62.1732 45.6541 61.8093 46.5036C61.7297 46.6802 61.6862 46.8709 61.6812 47.0645C61.6761 47.2581 61.7097 47.4508 61.78 47.6313C61.8503 47.8118 61.9558 47.9765 62.0904 48.1158C62.225 48.255 62.386 48.3661 62.564 48.4424C62.7421 48.5188 62.9335 48.5589 63.1272 48.5604C63.3209 48.562 63.5129 48.5249 63.6921 48.4514C63.8713 48.3779 64.0341 48.2694 64.1709 48.1323C64.3077 47.9952 64.4159 47.8322 64.489 47.6528C64.8907 46.7178 65.2495 45.7545 65.5563 44.791C65.6146 44.6086 65.6364 44.4165 65.6204 44.2257C65.6044 44.0349 65.551 43.8491 65.4631 43.6789C65.3753 43.5088 65.2548 43.3576 65.1085 43.234C64.9622 43.1105 64.793 43.017 64.6105 42.9589Z" fill="#F68B21"/>
<path d="M46.4756 61.8219C45.6347 62.1821 44.7602 62.5077 43.8766 62.7896C43.6941 62.8477 43.5249 62.9413 43.3786 63.0648C43.2324 63.1884 43.1118 63.3395 43.0239 63.5097C42.9361 63.6798 42.8826 63.8656 42.8665 64.0564C42.8504 64.2472 42.8721 64.4393 42.9302 64.6217C42.9884 64.8042 43.0819 64.9734 43.2055 65.1197C43.329 65.266 43.4802 65.3865 43.6503 65.4744C43.8204 65.5623 44.0062 65.6158 44.197 65.6318C44.3878 65.6479 44.5799 65.6263 44.7624 65.5681C45.7343 65.2583 46.6971 64.9002 47.6235 64.5036C47.9791 64.3513 48.2597 64.064 48.4035 63.7049C48.5472 63.3457 48.5424 62.9441 48.3902 62.5885C48.2379 62.2329 47.9505 61.9524 47.5914 61.8086C47.2322 61.6648 46.8307 61.6696 46.4751 61.8219H46.4756Z" fill="#F68B21"/>
<path d="M22.6671 32.0205C22.6671 29.6304 21.0955 27.7152 18.6631 27.141C17.3269 26.8245 15.9228 26.9703 14.6801 27.5546C13.4374 28.1389 12.4294 29.1272 11.8207 30.3581C11.7338 30.5296 11.6816 30.7165 11.6672 30.9082C11.6528 31.0999 11.6764 31.2925 11.7366 31.475C11.7969 31.6576 11.8927 31.8264 12.0184 31.9718C12.1441 32.1172 12.2974 32.2363 12.4693 32.3223C12.6412 32.4082 12.8285 32.4594 13.0202 32.4727C13.212 32.4861 13.4045 32.4614 13.5867 32.4001C13.7689 32.3388 13.9371 32.2421 14.0818 32.1156C14.2265 31.989 14.3447 31.8351 14.4298 31.6627C14.7411 31.0165 15.2649 30.4968 15.9135 30.1904C16.5621 29.8841 17.2962 29.8097 17.9931 29.9797C18.4054 30.0769 19.7504 30.512 19.7504 32.0205C19.7504 33.5415 17.9937 34.7147 16.1338 35.9569C14.0396 37.3547 11.6669 38.9392 11.6669 41.5624C11.6669 41.9491 11.8206 42.3201 12.094 42.5936C12.3675 42.8671 12.7384 43.0207 13.1252 43.0208H21.2087C21.593 43.017 21.9603 42.8618 22.2308 42.5887C22.5012 42.3156 22.6529 41.9468 22.6529 41.5625C22.6529 41.1781 22.5012 40.8093 22.2308 40.5362C21.9603 40.2631 21.593 40.1079 21.2087 40.1041H15.4309C16.0419 39.5253 16.9056 38.9485 17.753 38.3823C20.0568 36.8442 22.6671 35.1011 22.6671 32.0205Z" fill="#F68B21"/>
<path d="M36.458 36.8229C36.458 36.4361 36.3043 36.0652 36.0308 35.7917C35.7573 35.5183 35.3864 35.3646 34.9996 35.3646H33.8147V27.6172C33.8146 27.3152 33.7208 27.0206 33.5462 26.7742C33.3716 26.5277 33.1247 26.3416 32.8398 26.2414C32.5548 26.1413 32.2458 26.1321 31.9554 26.2151C31.665 26.2981 31.4075 26.4692 31.2185 26.7047L23.8357 35.9108C23.664 36.1253 23.5563 36.3839 23.5251 36.6569C23.4939 36.9299 23.5404 37.2062 23.6593 37.4539C23.7782 37.7016 23.9647 37.9106 24.1972 38.057C24.4297 38.2034 24.6989 38.2811 24.9736 38.2813H30.8981V42.3828C30.8962 42.5755 30.9325 42.7667 31.005 42.9452C31.0774 43.1238 31.1846 43.2862 31.3202 43.4232C31.4558 43.5601 31.6172 43.6688 31.795 43.743C31.9729 43.8171 32.1637 43.8553 32.3564 43.8553C32.5491 43.8553 32.7399 43.8171 32.9177 43.743C33.0956 43.6688 33.257 43.5601 33.3926 43.4232C33.5282 43.2862 33.6353 43.1238 33.7078 42.9452C33.7802 42.7667 33.8165 42.5755 33.8147 42.3828V38.2813H34.9996C35.3864 38.2813 35.7573 38.1276 36.0308 37.8541C36.3043 37.5806 36.458 37.2097 36.458 36.8229ZM30.8981 35.3646H28.0133L30.8981 31.7665V35.3646Z" fill="#F68B21"/>
<path d="M43.9222 25.367C43.7344 25.329 43.5409 25.3285 43.3529 25.3655C43.1649 25.4025 42.986 25.4763 42.8266 25.5825C42.6671 25.6888 42.5303 25.8255 42.4238 25.9849C42.3173 26.1442 42.2433 26.3229 42.2061 26.5109L38.9249 42.9172C38.8489 43.2964 38.9268 43.6902 39.1413 44.0121C39.3557 44.3339 39.6893 44.5573 40.0685 44.6332C40.1631 44.6521 40.2592 44.6616 40.3556 44.6617C40.6924 44.6613 41.0188 44.5444 41.2791 44.3307C41.5395 44.1171 41.7179 43.8199 41.7841 43.4896L45.0653 27.0833C45.103 26.8956 45.1034 26.7022 45.0663 26.5143C45.0293 26.3264 44.9555 26.1477 44.8494 25.9883C44.7432 25.8289 44.6067 25.692 44.4476 25.5854C44.2885 25.4788 44.11 25.4046 43.9222 25.367Z" fill="#F68B21"/>
<path d="M51.4055 43.0214C51.6935 43.0213 51.975 42.9359 52.2146 42.7761C52.4542 42.6164 52.6412 42.3893 52.752 42.1235L58.2208 28.9985C58.3133 28.7769 58.3496 28.5359 58.3265 28.2969C58.3034 28.0579 58.2217 27.8282 58.0885 27.6284C57.9553 27.4286 57.7749 27.2648 57.5632 27.1515C57.3515 27.0382 57.115 26.9789 56.8749 26.979H49.4921C49.1078 26.9827 48.7405 27.138 48.47 27.4111C48.1996 27.6842 48.0479 28.053 48.0479 28.4373C48.0479 28.8217 48.1996 29.1905 48.47 29.4635C48.7405 29.7366 49.1078 29.8919 49.4921 29.8956H54.6874L50.0603 41.0018C49.9683 41.2234 49.9323 41.4643 49.9555 41.7031C49.9787 41.942 50.0605 42.1714 50.1934 42.3711C50.3264 42.5709 50.5066 42.7347 50.718 42.8482C50.9294 42.9618 51.1655 43.0214 51.4055 43.022V43.0214Z" fill="#F68B21"/>
</svg>
