<svg width="50" height="50" viewBox="0 0 50 50" fill="none" xmlns="http://www.w3.org/2000/svg">
<g clip-path="url(#clip0_2_18785)">
<path d="M49.3246 38.3101H39.4499V26.9149C39.4529 26.6156 39.2791 26.3427 39.0066 26.2189L27.9239 21.2871C29.1966 19.452 30.3444 17.5332 31.3595 15.5441H43.2712C46.2 15.6039 48.5257 18.0268 48.4659 20.9556C48.4077 23.8001 46.1157 26.0921 43.2712 26.1503C41.2365 25.8023 41.2365 28.0321 43.2712 27.6797C47.0447 27.6117 50.0486 24.4976 49.9806 20.7241C49.9144 17.0464 46.9489 14.0809 43.2712 14.0147H32.0556C40.0727 -4.60422 10.0476 -4.58213 18.0625 14.0147H2.59999L4.34658 12.2791C5.04477 11.6009 3.97642 10.528 3.27599 11.1975L0.234977 14.2451C-0.0602103 14.5453 -0.0602103 15.0267 0.234977 15.3268L3.27609 18.3567C3.95658 19.0705 5.04936 17.9511 4.34668 17.2795L2.59999 15.5441H18.7563C19.7581 17.5301 20.9019 19.4413 22.1786 21.2628L11.045 26.2389C10.7652 26.4997 10.6178 26.8726 10.6437 27.2541C10.5927 29.5216 10.6703 38.0908 10.6437 38.3102H6.83358C3.89559 38.3102 1.51386 35.9285 1.51386 32.9905C1.51386 30.0525 3.89559 27.6708 6.83358 27.6708C8.86617 28.0299 8.87497 25.7934 6.83358 26.1414C3.05949 26.1414 0 29.2009 0 32.9749C0 36.749 3.05949 39.8085 6.83358 39.8085H10.6393C10.6393 40.2297 10.6393 41.9475 10.6504 42.9981C10.6659 43.3439 10.7812 43.7052 11.0937 43.7938C11.0937 43.7938 24.7409 49.8738 24.7741 49.8982C24.9662 49.9631 25.1754 49.9545 25.3615 49.8738L39.0064 43.7938C39.421 43.5987 39.4741 43.2109 39.4741 42.7876C39.4608 41.7347 39.4276 40.2696 39.4564 39.8085H49.3311C49.7447 39.7616 50.0419 39.3884 49.9951 38.9748C49.9553 38.6233 49.6764 38.3469 49.3246 38.3101ZM25.0602 32.1836L19.7029 29.7964L31.4882 24.5277L36.8345 26.9149L25.0602 32.1836ZM18.1379 8.31598C19.0179 -4.40473 43.2047 0.524894 25.0601 22.637C23.2714 20.3185 18.1379 13.1369 18.1379 8.31598ZM24.4528 24.3482C25.6542 25.2148 25.7672 23.9581 27.0218 22.5483L29.6218 23.6965L17.8432 28.9652C16.7128 28.4532 14.3765 27.4136 13.2505 26.9149L23.0697 22.5483C23.8344 23.5834 24.3752 24.2595 24.4528 24.3482ZM12.1577 42.6168V28.0852C15.15 29.4151 21.3276 32.1836 24.2844 33.5135V48.0362L12.1577 42.6168ZM37.9427 42.6168L25.8049 48.0429V33.5135L37.9427 28.0852V42.6168ZM29.3403 8.38244C29.3403 6.01 27.4171 4.08679 25.0447 4.08679C22.6722 4.08679 20.749 6.01 20.749 8.38244C20.749 10.7549 22.6722 12.6781 25.0447 12.6781C27.4171 12.6781 29.3403 10.7549 29.3403 8.38244ZM25.0602 11.1753C23.5245 11.1319 22.3147 9.85183 22.3581 8.31617C22.3997 6.84141 23.5854 5.65568 25.0602 5.61404C26.596 5.65744 27.8057 6.93749 27.7623 8.47315C27.7207 9.94791 26.5349 11.1336 25.0602 11.1753Z" fill="white"/>
</g>
<defs>
<clipPath id="clip0_2_18785">
<rect width="50" height="50" fill="white"/>
</clipPath>
</defs>
</svg>
