<?xml version="1.0" standalone="no"?>
<!DOCTYPE svg PUBLIC "-//W3C//DTD SVG 20010904//EN"
 "http://www.w3.org/TR/2001/REC-SVG-20010904/DTD/svg10.dtd">
<svg version="1.0" xmlns="http://www.w3.org/2000/svg"
 width="225.000000pt" height="225.000000pt" viewBox="0 0 225.000000 225.000000"
 preserveAspectRatio="xMidYMid meet">

<g transform="translate(0.000000,225.000000) scale(0.100000,-0.100000)"
fill="#000000" stroke="none">
<path d="M950 2231 c-5 -11 -10 -62 -10 -113 0 -105 12 -135 48 -124 21 7 22
13 22 126 0 98 -3 119 -16 124 -25 10 -33 7 -44 -13z"/>
<path d="M1182 2233 c-4 -10 -7 -64 -7 -121 0 -106 7 -126 45 -119 12 2 15 24
15 127 0 122 -1 125 -23 128 -14 2 -25 -3 -30 -15z"/>
<path d="M1813 2243 c-10 -3 -13 -38 -13 -123 0 -113 1 -119 22 -126 36 -11
48 19 48 124 0 117 -12 144 -57 125z"/>
<path d="M2042 2242 c-9 -6 -12 -38 -10 -122 3 -96 6 -114 21 -124 33 -20 47
16 47 122 0 117 -16 150 -58 124z"/>
<path d="M790 2015 l0 -145 730 0 730 0 0 145 0 146 -57 -3 c-53 -3 -58 -5
-61 -27 -2 -13 2 -43 8 -66 10 -35 9 -49 -1 -71 -28 -58 -94 -69 -140 -23 -18
18 -19 28 -13 104 l7 85 -47 0 c-45 0 -46 0 -46 -32 0 -18 5 -50 11 -71 25
-92 -75 -153 -142 -86 -18 18 -19 28 -13 104 l7 85 -242 0 -241 0 0 -38 c0
-20 4 -51 9 -68 25 -86 -73 -151 -135 -89 -25 25 -25 29 -19 110 l7 85 -47 0
-48 0 7 -85 c7 -82 6 -86 -18 -110 -32 -32 -76 -33 -112 -2 -29 25 -31 39 -18
140 l6 57 -61 0 -61 0 0 -145z"/>
<path d="M391 1924 c-51 -74 -96 -134 -99 -134 -4 0 -27 13 -51 29 -49 33 -51
33 -80 -8 l-20 -28 84 -57 c47 -32 89 -55 94 -52 12 8 231 323 231 333 0 4
-15 18 -33 29 l-33 22 -93 -134z"/>
<path d="M790 1716 c0 -86 2 -95 20 -100 11 -3 29 -9 40 -12 19 -5 20 -1 20
65 l0 71 650 0 650 0 0 -508 c0 -479 -1 -510 -18 -525 -17 -15 -72 -17 -543
-19 l-524 -3 115 -38 115 -37 405 0 c401 0 406 0 450 22 83 43 80 19 80 635
l0 543 -730 0 -730 0 0 -94z"/>
<path d="M1020 1565 l0 -75 75 0 75 0 0 75 0 75 -75 0 -75 0 0 -75z"/>
<path d="M1300 1565 l0 -75 75 0 75 0 0 75 0 75 -75 0 -75 0 0 -75z"/>
<path d="M1590 1565 l0 -75 75 0 75 0 0 75 0 75 -75 0 -75 0 0 -75z"/>
<path d="M1870 1565 l0 -75 75 0 75 0 0 75 0 75 -75 0 -75 0 0 -75z"/>
<path d="M653 1519 c-18 -5 -63 -30 -100 -56 -37 -26 -81 -49 -98 -53 l-30 -6
0 -104 c1 -81 5 -113 19 -138 16 -32 16 -35 0 -53 -13 -14 -15 -28 -10 -61 10
-68 26 -107 47 -118 13 -8 19 -21 19 -48 0 -20 9 -50 20 -67 12 -19 20 -47 20
-75 0 -61 13 -80 96 -143 l71 -54 59 44 c100 75 104 80 104 140 0 39 6 62 21
82 11 15 23 46 26 69 4 28 13 46 28 56 39 26 59 144 29 177 -14 16 -14 20 3
45 25 39 26 168 0 207 -9 15 -26 27 -37 27 -14 0 -27 14 -41 45 -16 33 -33 52
-62 67 -46 23 -137 32 -184 17z"/>
<path d="M1079 1378 c5 -13 12 -47 16 -76 7 -52 8 -53 39 -50 l31 3 3 73 3 72
-50 0 c-48 0 -50 -1 -42 -22z"/>
<path d="M1300 1325 l0 -75 75 0 75 0 0 75 0 75 -75 0 -75 0 0 -75z"/>
<path d="M1590 1325 l0 -75 75 0 75 0 0 75 0 75 -75 0 -75 0 0 -75z"/>
<path d="M1872 1328 l3 -73 73 -3 72 -3 0 76 0 75 -75 0 -76 0 3 -72z"/>
<path d="M1084 1124 c3 -26 6 -60 6 -75 0 -27 3 -29 40 -29 l40 0 0 75 0 75
-46 0 -47 0 7 -46z"/>
<path d="M1300 1095 l0 -75 75 0 75 0 0 75 0 75 -75 0 -75 0 0 -75z"/>
<path d="M1590 1095 l0 -75 75 0 75 0 0 75 0 75 -75 0 -75 0 0 -75z"/>
<path d="M1870 1095 l0 -75 75 0 75 0 0 75 0 75 -75 0 -75 0 0 -75z"/>
<path d="M1042 898 c-12 -24 -22 -58 -22 -75 l0 -33 75 0 75 0 0 75 0 75 -53
0 c-51 0 -52 -1 -75 -42z"/>
<path d="M1300 865 l0 -75 75 0 75 0 0 75 0 75 -75 0 -75 0 0 -75z"/>
<path d="M1590 865 l0 -75 75 0 75 0 0 75 0 75 -75 0 -75 0 0 -75z"/>
<path d="M1870 865 l0 -75 75 0 75 0 0 75 0 75 -75 0 -75 0 0 -75z"/>
<path d="M443 630 c-29 -21 -90 -49 -140 -65 -105 -33 -151 -55 -179 -87 -28
-30 -59 -92 -73 -145 -9 -34 -50 -297 -51 -325 0 -5 139 -8 309 -8 l309 0 7
63 c10 103 36 301 41 322 2 11 -6 37 -19 58 l-23 39 -30 -35 c-16 -18 -34 -42
-40 -52 -8 -14 -13 5 -22 87 -7 58 -18 123 -25 145 l-12 39 -52 -36z"/>
<path d="M931 622 c-7 -26 -17 -92 -24 -147 l-13 -100 -16 30 c-9 17 -27 40
-40 53 l-24 22 -22 -39 c-19 -34 -21 -45 -13 -83 9 -37 41 -314 41 -348 0 -7
104 -10 310 -10 171 0 310 3 310 8 -1 28 -42 291 -51 325 -14 53 -45 115 -73
145 -28 32 -63 49 -179 88 -54 18 -120 49 -147 68 l-48 35 -11 -47z"/>
</g>
</svg>
