<svg width="55" height="55" viewBox="0 0 55 55" fill="none" xmlns="http://www.w3.org/2000/svg">
<path d="M54.9474 53.9082L46.8908 32.6849C46.8239 32.5086 46.6972 32.3614 46.5331 32.2689L37.9516 27.4343L40.457 23.4619C41.9946 21.0219 42.8075 18.2022 42.8075 15.3076C42.8075 6.86693 35.9406 0 27.4999 0C19.0593 0 12.1923 6.86693 12.1923 15.3076C12.1923 18.2029 13.0055 21.0227 14.544 23.4621C14.5851 23.5275 17.0488 27.4345 17.0488 27.4345L8.46694 32.2689C8.3027 32.3614 8.17605 32.5086 8.10912 32.6849L0.0524981 53.9082C-0.0679215 54.2253 0.0232795 54.5839 0.28034 54.805C0.537722 55.0263 0.905641 55.0627 1.20116 54.8961L14.1528 47.5994L27.1044 54.8961C27.3498 55.0344 27.6499 55.0344 27.8953 54.8961L40.847 47.5994L53.7986 54.8961C53.9221 54.9657 54.0584 54.9999 54.194 54.9999C54.3826 54.9999 54.5697 54.9338 54.7195 54.8051C54.9768 54.5838 55.0679 54.2253 54.9474 53.9082ZM28.3057 41.756C28.8097 41.5781 29.2467 41.2354 29.5433 40.7659C29.5842 40.7014 36.4429 29.8267 36.4429 29.8267L39.9361 46.2631L28.3057 52.8154V41.756ZM15.907 22.6024C14.531 20.4206 13.8038 17.8982 13.8038 15.3075C13.8038 7.75531 19.9479 1.61122 27.5 1.61122C35.0522 1.61122 41.1963 7.75531 41.1963 15.3075C41.1963 17.8976 40.4693 20.4203 39.0942 22.6024C38.9866 22.7729 28.371 39.6071 28.1858 39.8979C28.1841 39.9004 28.1826 39.903 28.181 39.9054C28.0315 40.1418 27.7771 40.283 27.5 40.283C27.2228 40.283 26.9671 40.1411 26.8175 39.9059C26.7098 39.7352 16.073 22.8676 15.9106 22.6083C15.9094 22.6064 15.9082 22.6044 15.907 22.6024ZM9.51194 33.5295L17.0224 29.2985L15.714 35.4542C15.6215 35.8895 15.8993 36.3172 16.3345 36.4098C16.391 36.4219 16.4474 36.4277 16.5028 36.4277C16.8751 36.4277 17.2096 36.168 17.29 35.7894L18.5573 29.8272L25.456 40.768C25.7537 41.2363 26.191 41.5782 26.6941 41.7559V52.8156L15.0639 46.2632L16.6201 38.9414C16.7126 38.5062 16.4348 38.0784 15.9997 37.9858C15.564 37.8928 15.1365 38.1712 15.0441 38.6063L13.4404 46.1511L2.34842 52.4003L9.51194 33.5295ZM41.5596 46.1512L37.9778 29.2984L45.488 33.5295L52.6516 52.4003L41.5596 46.1512Z" fill="#F68B21"/>
<path d="M36.3633 15.3076C36.3633 10.421 32.3876 6.44531 27.501 6.44531C22.6144 6.44531 18.6387 10.421 18.6387 15.3076C18.6387 20.1942 22.6144 24.1699 27.501 24.1699C32.3876 24.1699 36.3633 20.1942 36.3633 15.3076ZM20.25 15.3076C20.25 11.3094 23.5027 8.05664 27.501 8.05664C31.4992 8.05664 34.752 11.3094 34.752 15.3076C34.752 19.3059 31.4992 22.5586 27.501 22.5586C23.5027 22.5586 20.25 19.3059 20.25 15.3076Z" fill="#F68B21"/>
<path d="M33.1406 15.3076C33.1406 12.198 30.6106 9.66797 27.501 9.66797C24.3913 9.66797 21.8613 12.198 21.8613 15.3076C21.8613 18.4173 24.3913 20.9473 27.501 20.9473C30.6106 20.9473 33.1406 18.4173 33.1406 15.3076ZM23.4727 15.3076C23.4727 13.0863 25.2797 11.2793 27.501 11.2793C29.7222 11.2793 31.5293 13.0863 31.5293 15.3076C31.5293 17.5289 29.7222 19.3359 27.501 19.3359C25.2797 19.3359 23.4727 17.5289 23.4727 15.3076Z" fill="#F68B21"/>
</svg>
