<svg width="25" height="25" viewBox="0 0 25 25" fill="none" xmlns="http://www.w3.org/2000/svg">
<g clip-path="url(#clip0_2_4374)">
<path d="M12.4935 0C8.53276 0 5.31055 3.22227 5.31055 7.18291C5.31055 8.8293 5.88032 10.4344 6.91616 11.7096C6.92388 11.7215 6.93218 11.7332 6.94106 11.7445L12.1085 18.3648C12.2011 18.4834 12.3431 18.5527 12.4935 18.5527C12.6438 18.5527 12.7858 18.4833 12.8783 18.3647L18.0706 11.7096C18.0724 11.7073 18.0742 11.705 18.0759 11.7026C19.108 10.4291 19.6763 8.82476 19.6763 7.18291C19.6764 3.22227 16.4542 0 12.4935 0ZM17.3068 11.1008C17.3006 11.1084 17.2948 11.1161 17.2891 11.1239L12.4934 17.2708L7.746 11.1888C7.73418 11.1695 7.7209 11.1509 7.70625 11.1332C6.79102 10.0254 6.28701 8.62251 6.28701 7.18291C6.28701 3.76069 9.07124 0.976465 12.4935 0.976465C15.9157 0.976465 18.6999 3.76069 18.7 7.18291C18.7 8.60713 18.2052 9.99854 17.3068 11.1008Z" fill="#F68B21"/>
<path d="M16.708 6.043C16.6317 5.78436 16.3602 5.6366 16.1016 5.71287C15.8429 5.78919 15.6951 6.06068 15.7714 6.31932C16.1264 7.52249 15.7964 8.82039 14.9104 9.70648C14.2649 10.352 13.4066 10.7075 12.4938 10.7075C11.581 10.7075 10.7227 10.352 10.0772 9.70643C9.43169 9.06092 9.07622 8.20272 9.07622 7.28983C9.07622 6.37694 9.43169 5.51868 10.0772 4.87322C10.9642 3.98621 12.2632 3.65657 13.4673 4.01302C13.7259 4.08963 13.9975 3.94202 14.074 3.68348C14.1506 3.42493 14.003 3.15325 13.7445 3.07674C12.1968 2.61863 10.5271 3.04246 9.38682 4.18275C8.55693 5.01268 8.09985 6.11614 8.09985 7.28983C8.09985 8.46351 8.55688 9.56693 9.38682 10.3969C10.2167 11.2268 11.3202 11.6839 12.4939 11.6839C13.6676 11.6839 14.771 11.2268 15.6009 10.397C16.74 9.25784 17.1643 7.58948 16.708 6.043Z" fill="#F68B21"/>
<path d="M15.6095 4.19125L15.6008 4.18256C15.4101 3.99188 15.101 3.99188 14.9103 4.18256C14.7197 4.37328 14.7197 4.68241 14.9103 4.87303L14.919 4.88173C15.0143 4.97709 15.1392 5.02474 15.2642 5.02474C15.3891 5.02474 15.5141 4.97709 15.6095 4.88173C15.8001 4.69105 15.8001 4.38192 15.6095 4.19125Z" fill="#F68B21"/>
<path d="M20 14.9075C19.7439 14.8234 19.4679 14.9625 19.3836 15.2187C19.2994 15.4748 19.4387 15.7508 19.6948 15.8351C22.4042 16.7267 24.0218 18.0626 24.0218 19.4085C24.0218 20.5466 22.848 21.6982 20.8013 22.5678C18.5918 23.5066 15.6436 24.0237 12.4996 24.0237C9.35562 24.0237 6.40737 23.5066 4.1979 22.5678C2.15127 21.6982 0.977441 20.5467 0.977441 19.4085C0.977441 18.4554 1.79951 17.4872 3.29228 16.6823C4.86948 15.8317 7.10313 15.2158 9.58169 14.9478C9.84976 14.9188 10.0436 14.6781 10.0146 14.4099C9.9856 14.1419 9.74473 13.9478 9.47671 13.977C6.87549 14.2582 4.51455 14.9137 2.82876 15.8228C0.978808 16.8204 0.000976562 18.0603 0.000976562 19.4085C0.000976562 20.98 1.35586 22.4211 3.81602 23.4665C6.1436 24.4554 9.22744 25.0001 12.4997 25.0001C15.7719 25.0001 18.8557 24.4554 21.1832 23.4665C23.6434 22.4211 24.9982 20.98 24.9982 19.4085C24.9982 17.5934 23.1765 15.9529 20 14.9075Z" fill="#F68B21"/>
<path d="M17.7669 14.3222L17.7499 14.3188C17.4856 14.2655 17.2281 14.4366 17.1748 14.7009C17.1215 14.9652 17.2925 15.2227 17.5568 15.276L17.5738 15.2794C17.6064 15.286 17.6389 15.2892 17.6709 15.2892C17.8985 15.2892 18.1022 15.1291 18.149 14.8974C18.2022 14.6331 18.0312 14.3755 17.7669 14.3222Z" fill="#F68B21"/>
<path d="M8.80844 16.456C8.75556 16.1917 8.49838 16.0202 8.23393 16.073C8.22294 16.0752 8.21127 16.078 8.20043 16.0809C7.94032 16.1519 7.78695 16.4202 7.8579 16.6804C7.91713 16.8976 8.11391 17.0403 8.32865 17.0403C8.36708 17.0403 8.406 17.0358 8.44486 17.0262C8.69823 16.965 8.86005 16.7139 8.80844 16.456Z" fill="#F68B21"/>
<path d="M14.1292 15.6614C13.8601 15.6406 13.6253 15.8412 13.6043 16.11C13.5833 16.3788 13.7841 16.6138 14.0529 16.6349C17.2407 16.8844 18.9385 17.8168 18.9385 18.3939C18.9385 18.6723 18.4946 19.1452 17.2437 19.5618C15.9838 19.9814 14.2992 20.2125 12.5001 20.2125C10.701 20.2125 9.01631 19.9815 7.75649 19.5618C6.50557 19.1452 6.06172 18.6723 6.06172 18.3939C6.06172 18.1394 6.40679 17.8186 6.98477 17.5359C7.22695 17.4173 7.3272 17.125 7.20869 16.8828C7.09019 16.6406 6.7978 16.5403 6.55557 16.6588C5.34033 17.2535 5.08521 17.9306 5.08521 18.394C5.08521 20.229 8.81533 21.1891 12.5 21.1891C16.1848 21.1891 19.9149 20.229 19.9149 18.3939C19.915 16.7113 16.7982 15.8703 14.1292 15.6614Z" fill="#F68B21"/>
</g>
<defs>
<clipPath id="clip0_2_4374">
<rect width="25" height="25" fill="white"/>
</clipPath>
</defs>
</svg>
