<svg width="60" height="60" viewBox="0 0 60 60" fill="none" xmlns="http://www.w3.org/2000/svg">
<g clip-path="url(#clip0_2_21485)">
<path d="M53.8758 11.9369C52.4451 10.0525 50.7927 8.3473 48.9552 6.85706C48.9781 6.69685 48.9918 6.53566 48.9962 6.37399C49.0006 4.09247 47.7087 2.00634 45.6641 0.993795C43.6194 -0.0187468 41.1772 0.218148 39.3651 1.60435C27.0085 -2.45608 13.4425 1.90865 5.77198 12.4131C-1.89852 22.9175 -1.92636 37.1679 5.70311 47.7021C13.3326 58.2363 26.881 62.6543 39.2533 58.6422C51.626 54.6302 60.0038 43.1024 59.9999 30.0957C60.0233 23.532 57.8693 17.1456 53.8758 11.9369ZM42.9942 2.37267C45.2039 2.37267 46.9956 4.16427 46.9956 6.37399C46.9956 7.92968 44.8059 12.4458 42.9942 15.7599C41.1826 12.4458 38.9929 7.93066 38.9929 6.37399C38.9929 4.16427 40.7845 2.37267 42.9942 2.37267ZM37.8837 3.24307C37.3014 4.18381 36.9927 5.26767 36.9923 6.37399C36.9923 9.31783 41.6017 17.3947 42.1277 18.3057C42.3065 18.6153 42.6367 18.8058 42.9942 18.8058C43.3518 18.8058 43.682 18.6153 43.8607 18.3057C45.602 15.3174 47.1182 12.2031 48.3959 8.98862C49.6664 10.0974 50.8323 11.32 51.879 12.6412L49.1662 17.5286L45.4443 22.18L35.3828 24.1997C34.783 23.6507 34.1036 23.1959 33.367 22.8516L33.9204 21.463C33.979 21.3194 34.0035 21.1645 33.9913 21.0097L32.9909 9.00572C32.9611 8.63743 32.7301 8.31506 32.3906 8.16853C32.0512 8.02199 31.6585 8.07475 31.3693 8.30578L27.0681 11.7478L22.8093 7.49643L20.8741 3.6182C26.3633 1.71425 32.312 1.58286 37.8798 3.24307H37.8837ZM16.9856 17.3776C16.9856 18.9333 14.796 23.4495 12.9843 26.7635C11.1727 23.4495 8.983 18.9343 8.983 17.3776C8.983 15.1679 10.7746 13.3763 12.9843 13.3763C15.194 13.3763 16.9856 15.1679 16.9856 17.3776ZM17.3246 13.2444L17.9352 11.4035C18.0915 10.9321 17.8785 10.4173 17.435 10.1941L12.8964 7.93066C14.7701 6.479 16.8206 5.27157 18.9985 4.33621L21.093 8.53779C21.1413 8.6345 21.2048 8.72242 21.281 8.79862L26.2827 13.8003C26.6431 14.1612 27.2171 14.193 27.6151 13.8745L31.1505 11.0455L31.9755 20.9486L31.4606 22.241C29.5796 21.8806 27.6322 22.2171 25.9818 23.1876C26.0174 22.8071 25.8313 22.4398 25.5036 22.243L18.8784 18.272C18.9423 17.9779 18.9785 17.6785 18.9863 17.3776C18.9858 15.8371 18.3909 14.3561 17.3246 13.2444ZM22.0264 30.6217C22.382 32.578 22.9954 34.4785 23.8497 36.274L20.2988 33.7898L22.0264 30.6217ZM23.988 30.0957C23.988 26.7811 26.6754 24.0937 29.9899 24.0937C33.305 24.0937 35.9919 26.7811 35.9919 30.0957C35.9919 32.6698 32.2216 40.0272 29.9899 44.0642C27.7582 40.0272 23.988 32.6708 23.988 30.0957ZM1.98069 30.0957C1.97776 22.1771 5.33483 14.6292 11.2176 9.32809L15.7631 11.5979L15.6302 11.9979C13.7717 11.0762 11.5688 11.1822 9.8075 12.2783C8.04617 13.3739 6.97697 15.3032 6.98234 17.3776C6.98234 20.3215 11.5918 28.3984 12.1178 29.3093C12.2966 29.619 12.6268 29.8095 12.9843 29.8095C13.3419 29.8095 13.6721 29.619 13.8508 29.3093C15.5438 26.3972 17.0291 23.3693 18.2952 20.2477L23.65 23.4578L18.1081 33.6178C17.8619 34.0648 17.9914 34.6245 18.408 34.9186L25.5314 39.9002C25.7757 40.393 26.0199 40.8766 26.2607 41.3445L16.5333 46.2079C16.1406 46.4048 15.9218 46.8341 15.9941 47.2674L16.8948 52.6691L15.2551 53.9038C7.00677 48.8011 1.98509 39.7947 1.98069 30.0957ZM17.1537 54.9779L18.5863 53.9038C18.8847 53.6796 19.0337 53.3075 18.9721 52.9392L18.0929 47.6655L27.196 43.1151C28.1402 44.8838 28.8968 46.2162 29.1249 46.6011C29.3032 46.9108 29.6334 47.1013 29.9909 47.1013C30.3485 47.1013 30.6786 46.9108 30.8574 46.6011C31.5906 45.3346 37.9926 34.1151 37.9926 30.0957C37.9916 28.6328 37.5872 27.1987 36.8233 25.9513L46.1955 24.0737C46.4265 24.0287 46.6336 23.9027 46.7806 23.7186L50.782 18.7169C50.8162 18.673 50.8474 18.6261 50.8748 18.5772L53.1758 14.4225C56.3307 19.0393 58.0124 24.504 57.9992 30.0957C57.9997 31.5395 57.8883 32.9814 57.6661 34.4081L54.35 33.1607C54.0194 33.0366 53.6481 33.0962 53.3727 33.317L52.7724 33.7981C52.9047 33.337 52.9804 32.8617 52.9975 32.3826C52.9975 29.0675 50.3106 26.3806 46.9956 26.3806C43.681 26.3806 40.9936 29.0675 40.9936 32.3826C41.0707 33.3648 41.3023 34.3285 41.6798 35.2385L41.2368 35.1276C40.7816 35.0133 40.3083 35.2307 40.0983 35.6507L35.0966 45.654C34.9877 45.8724 34.9623 46.1234 35.0258 46.3594L37.8568 56.9727C30.9551 59.0017 23.5366 58.2871 17.1498 54.9779H17.1537ZM42.9942 32.3826C42.9942 30.1729 44.7858 28.3813 46.9956 28.3813C49.2053 28.3813 50.9969 30.1729 50.9969 32.3826C50.9969 33.9383 48.8072 38.4544 46.9956 41.7685C45.1839 38.4544 42.9942 33.9392 42.9942 32.3826ZM39.7583 56.3446L37.0572 46.2089L41.5309 37.2631L42.6313 37.5391C44.0126 40.6055 45.814 43.7643 46.1325 44.3143C46.3108 44.6239 46.6414 44.8144 46.9985 44.8144C47.356 44.8144 47.6862 44.6239 47.865 44.3143C48.1849 43.7594 50.0156 40.5503 51.4018 37.4594L54.182 35.2346L57.2831 36.3981C55.1477 45.5608 48.5698 53.0476 39.7583 56.3446Z" fill="white"/>
<path d="M33.9909 30.0958C33.9909 27.8861 32.1993 26.0945 29.9896 26.0945C27.7799 26.0945 25.9883 27.8861 25.9883 30.0958C25.9883 32.306 27.7799 34.0971 29.9896 34.0971C32.1993 34.0971 33.9909 32.306 33.9909 30.0958ZM27.9889 30.0958C27.9889 28.9909 28.8847 28.0951 29.9896 28.0951C31.0945 28.0951 31.9903 28.9909 31.9903 30.0958C31.9903 31.2007 31.0945 32.0965 29.9896 32.0965C28.8847 32.0965 27.9889 31.2007 27.9889 30.0958Z" fill="white"/>
<path d="M42.9942 9.0889C44.6514 9.0889 45.9951 7.74519 45.9951 6.0879C45.9951 4.43062 44.6514 3.08691 42.9942 3.08691C41.3369 3.08691 39.9932 4.43062 39.9932 6.0879C39.9932 7.74519 41.3369 9.0889 42.9942 9.0889ZM42.9942 5.08757C43.5466 5.08757 43.9945 5.53548 43.9945 6.0879C43.9945 6.64033 43.5466 7.08824 42.9942 7.08824C42.4417 7.08824 41.9938 6.64033 41.9938 6.0879C41.9938 5.53548 42.4417 5.08757 42.9942 5.08757Z" fill="white"/>
<path d="M9.9834 17.0913C9.9834 18.7486 11.3271 20.0923 12.9844 20.0923C14.6417 20.0923 15.9854 18.7486 15.9854 17.0913C15.9854 15.434 14.6417 14.0903 12.9844 14.0903C11.3271 14.0903 9.9834 15.434 9.9834 17.0913ZM13.9847 17.0913C13.9847 17.6438 13.5368 18.0917 12.9844 18.0917C12.432 18.0917 11.9841 17.6438 11.9841 17.0913C11.9841 16.5389 12.432 16.091 12.9844 16.091C13.5368 16.091 13.9847 16.5389 13.9847 17.0913Z" fill="white"/>
<path d="M49.9961 32.0964C49.9961 30.4392 48.6524 29.0955 46.9951 29.0955C45.3378 29.0955 43.9941 30.4392 43.9941 32.0964C43.9941 33.7537 45.3378 35.0974 46.9951 35.0974C48.6524 35.0974 49.9961 33.7537 49.9961 32.0964ZM45.9948 32.0964C45.9948 31.544 46.4427 31.0961 46.9951 31.0961C47.5476 31.0961 47.9955 31.544 47.9955 32.0964C47.9955 32.6489 47.5476 33.0968 46.9951 33.0968C46.4427 33.0968 45.9948 32.6489 45.9948 32.0964Z" fill="white"/>
<path d="M17.9864 37.3843C17.9864 34.0692 15.2995 31.3823 11.9844 31.3823C8.66983 31.3823 5.98242 34.0692 5.98242 37.3843C5.98242 40.3281 10.5919 48.405 11.1179 49.316C11.2967 49.6257 11.6269 49.8161 11.9844 49.8161C12.3419 49.8161 12.6721 49.6257 12.8509 49.316C13.377 48.4021 17.9864 40.3281 17.9864 37.3843ZM11.9844 46.7702C10.1728 43.4561 7.98308 38.941 7.98308 37.3843C7.98308 35.1746 9.77469 33.383 11.9844 33.383C14.1941 33.383 15.9857 35.1746 15.9857 37.3843C15.9857 38.94 13.796 43.4561 11.9844 46.7702Z" fill="white"/>
<path d="M11.9844 34.0972C10.3271 34.0972 8.9834 35.4409 8.9834 37.0982C8.9834 38.7554 10.3271 40.0991 11.9844 40.0991C13.6417 40.0991 14.9854 38.7554 14.9854 37.0982C14.9854 35.4409 13.6417 34.0972 11.9844 34.0972ZM11.9844 38.0985C11.432 38.0985 10.9841 37.6506 10.9841 37.0982C10.9841 36.5457 11.432 36.0978 11.9844 36.0978C12.5368 36.0978 12.9847 36.5457 12.9847 37.0982C12.9847 37.6506 12.5368 38.0985 11.9844 38.0985Z" fill="white"/>
</g>
<defs>
<clipPath id="clip0_2_21485">
<rect width="60" height="60" fill="white"/>
</clipPath>
</defs>
</svg>
