<svg width="50" height="50" viewBox="0 0 50 50" fill="none" xmlns="http://www.w3.org/2000/svg">
<g clip-path="url(#clip0_2_6612)">
<path d="M25.8394 7.04919C25.8394 4.55613 23.811 2.52791 21.318 2.52791C18.825 2.52791 16.7968 4.55613 16.7968 7.04919C16.7968 9.54226 18.825 11.5706 21.318 11.5706C23.8111 11.5705 25.8394 9.54226 25.8394 7.04919ZM18.3593 7.04919C18.3593 5.41765 19.6865 4.09041 21.318 4.09041C22.9495 4.09041 24.2769 5.41765 24.2769 7.04919C24.2769 8.68074 22.9495 10.0081 21.318 10.0081C19.6866 10.008 18.3593 8.68074 18.3593 7.04919ZM30.8922 46.3195C30.8922 46.871 30.4461 47.3172 29.8944 47.3172C29.343 47.3172 28.8968 46.8711 28.8968 46.3195C28.8968 45.7679 29.3429 45.3219 29.8944 45.3219C30.4461 45.3219 30.8922 45.7678 30.8922 46.3195ZM10.7977 46.3195C10.7977 46.871 10.3516 47.3172 9.7999 47.3172C9.24844 47.3172 8.80225 46.8711 8.80225 46.3195C8.80225 45.7679 9.24834 45.3219 9.7999 45.3219C10.3515 45.3219 10.7977 45.7678 10.7977 46.3195ZM8.64434 32.1599C8.42861 31.7863 8.55664 31.3085 8.93027 31.0928L13.3727 28.5279C13.7463 28.3124 14.2241 28.4402 14.4398 28.8138C14.6556 29.1875 14.5275 29.6653 14.1539 29.881L9.71152 32.4459C9.58848 32.5169 9.4542 32.5507 9.32158 32.5507C9.05166 32.5508 8.78906 32.4106 8.64434 32.1599ZM17.1094 33.4375C17.3251 33.8111 17.1971 34.2889 16.8234 34.5047L12.3812 37.0695C12.2581 37.1405 12.1238 37.1743 11.9912 37.1743C11.7212 37.1743 11.4586 37.0342 11.3139 36.7836C11.0981 36.4099 11.2262 35.9321 11.5998 35.7164L16.0421 33.1515C16.4158 32.9361 16.8937 33.0638 17.1094 33.4375ZM7.65742 35.8122C7.4417 35.4386 7.56973 34.9607 7.94336 34.745L17.0292 29.4993C17.4028 29.2838 17.8807 29.4116 18.0964 29.7852C18.3121 30.1589 18.1841 30.6367 17.8104 30.8524L8.72461 36.0981C8.60156 36.1691 8.46729 36.2029 8.33467 36.2029C8.06475 36.2029 7.80215 36.0628 7.65742 35.8122ZM43.4491 32.4083H40.5544C38.7996 32.4083 37.372 30.9806 37.372 29.2259C37.372 27.4711 38.7996 26.0434 40.5544 26.0434H42.9611C45.5774 26.0434 47.706 23.9149 47.706 21.2985C47.706 18.6821 45.5774 16.5536 42.9611 16.5536H28.6702C28.0425 15.769 26.4629 15.3523 24.8018 15.1345C26.5124 13.0936 28.3164 10.1954 28.3164 7.04705C28.3164 3.18816 25.177 0.0487061 21.318 0.0487061C17.4591 0.0487061 14.3197 3.18816 14.3197 7.04705C14.3197 10.1954 16.1236 13.0936 17.8343 15.1345C15.6902 15.4155 13.6802 16.0275 13.6802 17.3348C13.6802 18.6287 15.6435 19.0967 16.2885 19.2504C17.6411 19.5727 19.4272 19.7504 21.3179 19.7504C23.2086 19.7504 24.9947 19.5728 26.3474 19.2504C26.8409 19.1327 28.1052 18.8307 28.6724 18.1161H42.9609C44.7156 18.1161 46.1433 19.5437 46.1433 21.2985C46.1433 23.0533 44.7156 24.4809 42.9609 24.4809H40.5544C37.938 24.4809 35.8095 26.6094 35.8095 29.2259C35.8095 31.8423 37.938 33.9708 40.5544 33.9708H43.4492C45.9028 33.9708 47.8988 35.9669 47.8988 38.4204C47.8988 40.8739 45.9027 42.87 43.4492 42.87H37.0186V36.1763C37.0186 35.4243 36.7613 34.7616 36.2539 34.2067L31.2393 28.722C30.6714 28.1009 29.9265 27.7725 29.0848 27.7725H25.2157V27.2409C25.2157 25.6313 23.9062 24.3219 22.2966 24.3219H3.45723C1.84766 24.3219 0.538086 25.6313 0.538086 27.2409V44.1816C0.538086 45.7912 1.84756 47.1008 3.45723 47.1008H6.25391C6.6123 48.7289 8.06572 49.9511 9.8 49.9511C11.5343 49.9511 12.9878 48.7289 13.3462 47.1008H26.3483C26.7067 48.7289 28.1602 49.9511 29.8945 49.9511C31.6289 49.9511 33.0822 48.7289 33.4407 47.1008H35.5246C36.3484 47.1008 37.0187 46.4305 37.0187 45.6066V44.4326H43.4493C46.7645 44.4326 49.4614 41.7355 49.4614 38.4205C49.4614 35.1054 46.7643 32.4083 43.4491 32.4083ZM21.318 1.6113C24.3153 1.6113 26.7539 4.04978 26.7539 7.04714C26.7539 11.2701 22.7321 15.2151 21.318 16.4714C19.9039 15.215 15.8822 11.2701 15.8822 7.04714C15.8822 4.04978 18.3207 1.6113 21.318 1.6113ZM15.4551 17.336C15.9545 17.0839 17.128 16.7335 19.1425 16.5686C20.0516 17.4867 20.7492 18.044 20.8343 18.1111C20.8702 18.1394 20.9081 18.164 20.9473 18.1852C18.0348 18.1484 16.1451 17.6837 15.4551 17.336ZM21.6888 18.1852C21.7279 18.164 21.7658 18.1394 21.8018 18.1111C21.8868 18.044 22.5845 17.4866 23.4936 16.5686C25.5081 16.7335 26.6816 17.0839 27.1811 17.336C26.4909 17.6837 24.6013 18.1484 21.6888 18.1852ZM30.086 29.7763L35.1007 35.2612C35.1407 35.3051 35.176 35.3499 35.2091 35.3953H28.1667V29.3351H29.0848C29.4871 29.3351 29.8146 29.4795 30.086 29.7763ZM3.45723 25.8844H22.2967C23.0447 25.8844 23.6533 26.4929 23.6533 27.241V40.4258H2.10059V27.2409C2.10059 26.4929 2.70918 25.8844 3.45723 25.8844ZM9.7999 48.3886C8.65898 48.3886 7.73076 47.4604 7.73076 46.3195C7.73076 45.1786 8.65898 44.2504 9.7999 44.2504C10.9409 44.2504 11.8691 45.1786 11.8691 46.3195C11.8691 47.4604 10.9409 48.3886 9.7999 48.3886ZM13.3461 45.5383C12.9876 43.9101 11.5342 42.6879 9.7999 42.6879C8.06562 42.6879 6.6123 43.9101 6.25381 45.5383H3.45723C2.70918 45.5383 2.10059 44.9297 2.10059 44.1816V41.9882H23.6532V45.5383H13.3461ZM29.8945 48.3886C28.7535 48.3886 27.8254 47.4604 27.8254 46.3195C27.8254 45.1786 28.7536 44.2504 29.8945 44.2504C31.0354 44.2504 31.9637 45.1786 31.9637 46.3195C31.9637 47.4604 31.0354 48.3886 29.8945 48.3886ZM33.4406 45.5383C33.0822 43.9101 31.6288 42.6879 29.8944 42.6879C28.1601 42.6879 26.7067 43.9101 26.3482 45.5383H25.2156V29.3351H26.6041V36.1765C26.6041 36.608 26.9539 36.9578 27.3853 36.9578H35.456V45.5383H33.4406Z" fill="white"/>
</g>
<defs>
<clipPath id="clip0_2_6612">
<rect width="50" height="50" fill="white"/>
</clipPath>
</defs>
</svg>
