<svg width="50" height="50" viewBox="0 0 50 50" fill="none" xmlns="http://www.w3.org/2000/svg">
<path d="M23.891 5.39094L24.9993 6.60615L26.1076 5.39094C32.2024 -1.29183 43.0957 1.06496 47.0518 9.30556C50.8338 17.1837 48.318 31.4235 24.9993 48.1594C1.68067 31.4251 -0.835135 17.1853 2.9469 9.30679C6.90301 1.06563 17.7963 -1.2917 23.891 5.39094Z" fill="#DFB68D" stroke="white" stroke-width="3"/>
<path d="M16.875 20.6758C15.5885 20.7096 14.5052 21.1328 13.625 21.9453V20.6758C13.6589 19.2878 14.1328 18.1367 15.0469 17.2227C15.9609 16.3086 17.112 15.8346 18.5 15.8008H19.3125C19.8203 15.7331 20.0911 15.4622 20.125 14.9883C20.0911 14.4805 19.8203 14.2096 19.3125 14.1758H18.5C16.6719 14.2096 15.1484 14.8359 13.9297 16.0547C12.6771 17.2734 12.0339 18.8138 12 20.6758V25.5508C12.0339 26.9049 12.5078 28.056 13.4219 29.0039C14.3359 29.918 15.487 30.3919 16.875 30.4258C18.263 30.3919 19.4141 29.918 20.3281 29.0039C21.2422 28.056 21.7161 26.9049 21.75 25.5508C21.7161 24.1628 21.2422 23.0117 20.3281 22.0977C19.4141 21.1836 18.263 20.7096 16.875 20.6758ZM16.875 28.8008C15.9609 28.7669 15.1992 28.4453 14.5898 27.8359C13.9805 27.2266 13.6589 26.4648 13.625 25.5508C13.6589 24.6367 13.9805 23.8581 14.5898 23.2148C15.1992 22.6055 15.9609 22.3008 16.875 22.3008C17.7891 22.3008 18.5508 22.6055 19.1602 23.2148C19.7695 23.8581 20.0911 24.6367 20.125 25.5508C20.0911 26.431 19.7695 27.1927 19.1602 27.8359C18.5508 28.4453 17.7891 28.7669 16.875 28.8008ZM29.875 20.6758C28.5885 20.7096 27.5052 21.1328 26.625 21.9453V20.6758C26.6589 19.2878 27.1328 18.1367 28.0469 17.2227C28.9609 16.3086 30.112 15.8346 31.5 15.8008H32.3125C32.8203 15.7331 33.0911 15.4622 33.125 14.9883C33.0911 14.4805 32.8203 14.2096 32.3125 14.1758H31.5C29.6719 14.2096 28.1484 14.8359 26.9297 16.0547C25.6771 17.2734 25.0339 18.8138 25 20.6758V25.5508C25.0339 26.9049 25.5078 28.056 26.4219 29.0039C27.3359 29.918 28.487 30.3919 29.875 30.4258C31.263 30.3919 32.4141 29.918 33.3281 29.0039C34.2422 28.056 34.7161 26.9049 34.75 25.5508C34.7161 24.1628 34.2422 23.0117 33.3281 22.0977C32.4141 21.1836 31.263 20.7096 29.875 20.6758ZM29.875 28.8008C28.9609 28.7669 28.1992 28.4453 27.5898 27.8359C26.9805 27.2266 26.6589 26.4648 26.625 25.5508C26.6589 24.6367 26.9805 23.8581 27.5898 23.2148C28.1992 22.6055 28.9609 22.3008 29.875 22.3008C30.7891 22.3008 31.5508 22.6055 32.1602 23.2148C32.7695 23.8581 33.0911 24.6367 33.125 25.5508C33.0911 26.431 32.7695 27.1927 32.1602 27.8359C31.5508 28.4453 30.7891 28.7669 29.875 28.8008Z" fill="white"/>
</svg>
