<svg width="56" height="40" viewBox="0 0 56 40" fill="none" xmlns="http://www.w3.org/2000/svg">
<g clip-path="url(#clip0_1359_2581)">
<path d="M10.4497 26.1241C9.22384 29.2554 7.28612 32.3554 4.69122 35.3391C3.86545 36.2885 3.76062 37.6438 4.43054 38.7112C4.94642 39.5324 5.81412 40.0001 6.73286 40.0001C6.99171 40.0001 7.25513 39.9632 7.51489 39.8866C13.0146 38.2601 25.8432 32.4827 26.1877 14.0157C26.3208 6.88486 21.1684 0.758735 14.4592 0.068612C10.7615 -0.305983 7.06189 0.910028 4.32026 3.41861C1.57498 5.92996 0 9.51522 0 13.2564C0 19.4979 4.37676 24.956 10.4497 26.1241ZM6.82309 6.22241C8.56669 4.62722 10.7615 3.77749 13.0884 3.77749C13.4174 3.77749 13.7492 3.7941 14.0819 3.82915C18.8734 4.32089 22.5511 8.7642 22.4544 13.9437C22.2166 26.7219 15.3816 32.4744 9.72151 35.0475C11.5125 32.5952 12.9198 30.0728 13.9205 27.5163C14.3106 26.5208 14.2459 25.4081 13.7437 24.4634C13.2178 23.4725 12.2799 22.7694 11.1725 22.5342C6.86138 21.6217 3.73329 17.7191 3.73329 13.2564C3.73329 10.5827 4.85983 8.01875 6.82309 6.22241Z" fill="#1037B6"/>
<path d="M34.2415 38.7111C34.7574 39.5322 35.6251 40 36.5438 40C36.8027 40 37.0652 39.9631 37.3258 39.8865C42.8255 38.2599 55.6532 32.4826 55.9978 14.0156C56.129 6.88473 50.9775 0.758591 44.2674 0.0684868C40.5651 -0.312551 36.872 0.908978 34.1303 3.41849C31.385 5.92983 29.8101 9.51509 29.8101 13.2563C29.8101 19.4977 34.1868 24.9559 40.2589 26.1239C39.0321 29.258 37.0944 32.358 34.5004 35.3399C33.6746 36.2902 33.5707 37.6446 34.2415 38.7111ZM43.7297 27.518C44.1197 26.5225 44.0559 25.4098 43.5547 24.4651C43.0278 23.4733 42.0909 22.7702 40.9825 22.5341C36.6714 21.6216 33.5433 17.719 33.5433 13.2563C33.5433 10.5816 34.6699 8.01862 36.6331 6.22229C38.3758 4.62709 40.5706 3.77736 42.8984 3.77736C43.2265 3.77736 43.5583 3.79397 43.8919 3.82902C48.6825 4.32077 52.3611 8.76407 52.2645 13.9436C52.0275 26.7227 45.1916 32.4742 39.5315 35.0474C41.3216 32.597 42.7271 30.0746 43.7297 27.518Z" fill="#1037B6"/>
</g>
<defs>
<clipPath id="clip0_1359_2581">
<rect width="56" height="40" fill="white"/>
</clipPath>
</defs>
</svg>
