<svg width="50" height="38" viewBox="0 0 50 38" fill="none" xmlns="http://www.w3.org/2000/svg">
<path d="M1.37554 28.7609L1.18013 27.8303C1.15165 27.5911 1.1282 27.3512 1.10982 27.1108L1.1091 27.1014L1.1082 27.0921C1.00862 26.0489 0.959122 24.5829 1.04165 22.8038C1.14105 21.0384 1.39705 18.9844 1.96519 16.829C2.26607 15.7514 2.63145 14.651 3.08112 13.581C3.13417 13.467 3.18641 13.3541 3.2381 13.2424C3.70923 12.2246 4.13614 11.3024 4.7336 10.4552L4.75905 10.4191L4.78122 10.3809C5.35623 9.39029 6.10888 8.5004 6.92348 7.60049L6.94884 7.57248L6.972 7.54264C7.28424 7.14046 7.66465 6.78552 8.09977 6.41956C8.23821 6.30313 8.39264 6.17746 8.55339 6.04664C8.85374 5.80222 9.17619 5.53983 9.45772 5.28609C9.82895 4.97227 10.2362 4.70705 10.6779 4.44283C10.8157 4.3604 10.9647 4.27373 11.1184 4.18429C11.4309 4.00252 11.763 3.80932 12.0609 3.61707L12.0715 3.61019L12.082 3.60305C12.4243 3.36964 12.7938 3.19499 13.2023 3.02766C13.3242 2.9777 13.4625 2.92374 13.6079 2.86697C13.8914 2.75627 14.2023 2.63489 14.4731 2.51177C14.7095 2.41806 14.9217 2.33018 15.1161 2.24968C15.6589 2.02493 16.0626 1.85779 16.4641 1.78235L16.4967 1.77623L16.5288 1.76797C16.9145 1.66865 17.2501 1.58462 17.5614 1.50665C17.7977 1.44745 18.0202 1.39174 18.24 1.33549C18.2416 1.33509 18.2432 1.33469 18.2447 1.33429L18.7518 1.20979L19.5173 4.33264L19.123 4.49951L19.12 4.50077L17.8126 5.04912C17.4562 5.17163 17.1359 5.34604 16.8605 5.50965C16.731 5.58654 16.601 5.66749 16.4793 5.74332L16.4391 5.76833C16.3023 5.85347 16.1731 5.9334 16.042 6.00995L16.0126 6.0271L15.9845 6.0462C15.8287 6.15196 15.6788 6.2359 15.4908 6.3412C15.3889 6.39826 15.2758 6.46159 15.1446 6.53805C14.8151 6.72996 14.4248 6.9781 14.0704 7.33063C13.9018 7.48863 13.7248 7.62906 13.511 7.79865C13.4331 7.86043 13.3503 7.92609 13.2613 7.99787C12.9483 8.25034 12.5854 8.55903 12.2667 8.94981L12.2553 8.9638L12.2444 8.97819C12.1001 9.16867 11.9487 9.33166 11.7619 9.53262C11.6848 9.61563 11.6017 9.70511 11.5105 9.80569C11.2362 10.1083 10.9198 10.4829 10.676 10.9527C10.6681 10.9648 10.6602 10.977 10.6523 10.9893C10.2452 11.6187 9.77498 12.3457 9.45833 13.1893C9.14141 13.8083 8.94745 14.4725 8.78611 15.025L8.78157 15.0405L8.34395 16.5389L9.88808 16.31C9.9229 16.3049 9.95733 16.2997 9.99138 16.2947C10.4999 16.219 10.9246 16.1558 11.3616 16.1558H11.362C13.2873 16.1552 15.1748 16.7096 16.8063 17.7568C18.4379 18.8041 19.7475 20.3021 20.5812 22.0795C21.415 23.857 21.7379 25.8399 21.5116 27.798C21.2854 29.7562 20.5194 31.6072 19.3046 33.1373C18.0899 34.6673 16.4766 35.8134 14.6527 36.4457C12.8291 37.078 10.8676 37.1714 8.99441 36.7154C7.12114 36.2595 5.41055 35.2722 4.06157 33.8652C2.71244 32.458 1.78035 30.6886 1.37554 28.7609ZM28.7936 28.7609L28.5974 27.8263C28.5686 27.5883 28.5445 27.3498 28.525 27.1108L28.5251 27.1108L28.5238 27.0971C28.4242 26.0541 28.3747 24.588 28.4572 22.8091C28.5566 21.0436 28.8126 18.9896 29.3808 16.8341C29.6817 15.7565 30.047 14.6561 30.4967 13.5861C30.5498 13.4721 30.602 13.3592 30.6537 13.2475C31.1248 12.2297 31.5517 11.3074 32.1492 10.4602L32.1747 10.4241L32.1968 10.3859C32.7718 9.39537 33.5245 8.50547 34.3391 7.60556L34.3644 7.57755L34.3876 7.54771C34.6998 7.14553 35.0803 6.79059 35.5154 6.42464C35.6538 6.3082 35.8083 6.18252 35.969 6.0517C36.2694 5.80729 36.5918 5.54489 36.8733 5.29117C37.2446 4.97735 37.6518 4.71212 38.0935 4.44791C38.2313 4.36547 38.3803 4.2788 38.534 4.18937C38.8465 4.0076 39.1786 3.8144 39.4765 3.62214L39.4872 3.61527L39.4976 3.60812C39.8399 3.37472 40.2094 3.20007 40.6179 3.03274C40.7398 2.98278 40.8781 2.92882 41.0235 2.87205C41.307 2.76135 41.6178 2.64 41.8886 2.51687C42.1251 2.42316 42.3373 2.33526 42.5317 2.25476C43.0745 2.03001 43.4782 1.86287 43.8797 1.78743L43.9123 1.78131L43.9444 1.77304C44.3302 1.67372 44.6657 1.58968 44.977 1.51171C45.2134 1.4525 45.4359 1.39679 45.6557 1.34054C45.6573 1.34015 45.6588 1.33976 45.6603 1.33936L46.1674 1.21486L46.9325 4.33623C46.8149 4.38543 46.685 4.43962 46.5437 4.49843L46.5411 4.49951L45.2307 5.04912C44.8743 5.17163 44.554 5.34604 44.2786 5.50965C44.1492 5.58648 44.0193 5.66737 43.8977 5.74315L43.8572 5.76833C43.7204 5.85347 43.5912 5.9334 43.4601 6.00995L43.4307 6.0271L43.4026 6.0462C43.2468 6.15195 43.0969 6.2359 42.9089 6.34119C42.807 6.39825 42.6939 6.46158 42.5627 6.53805C42.2332 6.72996 41.8429 6.97809 41.4885 7.33062C41.3199 7.48862 41.1429 7.62906 40.9291 7.79866C40.8512 7.86044 40.7684 7.92609 40.6794 7.99787C40.3664 8.25034 40.0035 8.55903 39.6848 8.94981L39.6734 8.9638L39.6625 8.97819C39.5182 9.16869 39.3668 9.33168 39.18 9.53266C39.1029 9.61565 39.0197 9.70512 38.9286 9.80569C38.6543 10.1083 38.3379 10.4829 38.0941 10.9527C38.0862 10.9648 38.0783 10.977 38.0704 10.9892C37.6633 11.6187 37.1931 12.3457 36.8764 13.1894C36.5595 13.8084 36.3655 14.4725 36.2042 15.025L36.1997 15.0405L35.762 16.5389L37.3062 16.31C37.341 16.3049 37.3754 16.2997 37.4095 16.2947C37.918 16.219 38.3427 16.1558 38.7797 16.1558H38.7801C40.7054 16.1552 42.5929 16.7096 44.2244 17.7568C45.856 18.8041 47.1656 20.3021 47.9993 22.0795C48.8331 23.857 49.156 25.8399 48.9297 27.798C48.7035 29.7562 47.9375 31.6072 46.7227 33.1373C45.508 34.6673 43.8947 35.8134 42.0708 36.4457C40.2472 37.078 38.2857 37.1714 36.4125 36.7154C34.5392 36.2595 32.8286 35.2722 31.4797 33.8652C30.1305 32.458 29.1984 30.6886 28.7936 28.7609Z" stroke="#661FFE" stroke-width="2"/>
</svg>
