<svg width="56" height="40" viewBox="0 0 56 40" fill="none" xmlns="http://www.w3.org/2000/svg">
<g clip-path="url(#clip0_2_20325)">
<path d="M10.4497 26.124C9.22384 29.2553 7.28612 32.3553 4.69122 35.339C3.86545 36.2884 3.76062 37.6437 4.43054 38.7112C4.94642 39.5323 5.81412 40.0001 6.73286 40.0001C6.99171 40.0001 7.25513 39.9632 7.51489 39.8866C13.0146 38.26 25.8432 32.4826 26.1877 14.0157C26.3208 6.8848 21.1684 0.758674 14.4592 0.068551C10.7615 -0.306044 7.06189 0.909967 4.32026 3.41855C1.57498 5.9299 0 9.51516 0 13.2563C0 19.4978 4.37676 24.956 10.4497 26.124ZM6.82309 6.22235C8.56669 4.62716 10.7615 3.77743 13.0884 3.77743C13.4174 3.77743 13.7492 3.79403 14.0819 3.82909C18.8734 4.32083 22.5511 8.76414 22.4544 13.9437C22.2166 26.7218 15.3816 32.4743 9.72151 35.0475C11.5125 32.5952 12.9198 30.0728 13.9205 27.5162C14.3106 26.5207 14.2459 25.408 13.7437 24.4633C13.2178 23.4724 12.2799 22.7694 11.1725 22.5341C6.86138 21.6216 3.73329 17.719 3.73329 13.2563C3.73329 10.5826 4.85983 8.01869 6.82309 6.22235Z" fill="#1037B6"/>
<path d="M34.241 38.7111C34.7569 39.5322 35.6246 40 36.5433 40C36.8022 40 37.0647 39.9631 37.3254 39.8865C42.825 38.26 55.6528 32.4826 55.9973 14.0156C56.1285 6.88473 50.977 0.758591 44.2669 0.0684868C40.5646 -0.312551 36.8715 0.908977 34.1298 3.41849C31.3846 5.92983 29.8096 9.51509 29.8096 13.2563C29.8096 19.4977 34.1864 24.9559 40.2584 26.1239C39.0316 29.258 37.0939 32.358 34.4999 35.3399C33.6741 36.2902 33.5702 37.6446 34.241 38.7111ZM43.7292 27.518C44.1193 26.5225 44.0555 25.4098 43.5542 24.4651C43.0273 23.4733 42.0904 22.7702 40.9821 22.5341C36.6709 21.6216 33.5428 17.719 33.5428 13.2563C33.5428 10.5816 34.6694 8.01862 36.6326 6.22229C38.3753 4.62709 40.5701 3.77736 42.8979 3.77736C43.226 3.77736 43.5578 3.79397 43.8914 3.82902C48.682 4.32077 52.3606 8.76407 52.264 13.9436C52.027 26.7227 45.1911 32.4742 39.531 35.0474C41.3211 32.597 42.7266 30.0746 43.7292 27.518Z" fill="#1037B6"/>
</g>
<defs>
<clipPath id="clip0_2_20325">
<rect width="56" height="40" fill="white"/>
</clipPath>
</defs>
</svg>
