<?xml version="1.0" standalone="no"?>
<!DOCTYPE svg PUBLIC "-//W3C//DTD SVG 20010904//EN"
 "http://www.w3.org/TR/2001/REC-SVG-20010904/DTD/svg10.dtd">
<svg version="1.0" xmlns="http://www.w3.org/2000/svg"
 width="258.000000pt" height="195.000000pt" viewBox="0 0 258.000000 195.000000"
 preserveAspectRatio="xMidYMid meet">

<g transform="translate(0.000000,195.000000) scale(0.100000,-0.100000)"
fill="#000000" stroke="none">
<path d="M1761 1923 c-18 -17 -39 -58 -56 -105 l-28 -78 -67 0 c-37 0 -82 -3
-99 -6 -30 -6 -32 -5 -65 69 -37 79 -64 107 -107 107 -32 0 -215 -84 -246
-112 -32 -30 -29 -72 12 -163 l36 -77 -49 -52 c-26 -28 -55 -61 -64 -74 l-16
-24 -72 26 c-132 48 -159 33 -214 -117 -59 -161 -50 -189 79 -235 70 -26 80
-33 83 -56 2 -14 5 -26 8 -26 18 0 161 82 171 98 7 11 26 56 42 99 165 423
730 491 980 118 116 -174 130 -377 39 -563 -67 -136 -226 -259 -379 -292 -80
-18 -230 -8 -304 18 -32 12 -72 22 -87 22 -22 0 -157 -58 -177 -76 -2 -2 7
-12 19 -22 l23 -19 -28 -79 c-30 -86 -29 -120 5 -151 24 -23 216 -94 251 -93
42 0 67 29 102 118 l32 84 75 4 c41 2 85 7 98 9 20 5 27 -3 54 -62 42 -92 62
-113 109 -113 47 0 243 90 258 118 19 35 12 78 -23 155 l-33 73 36 40 c20 21
50 56 66 76 l30 37 70 -29 c83 -34 100 -36 141 -11 26 16 37 37 73 138 41 115
42 122 28 155 -13 32 -24 39 -99 68 -45 17 -86 35 -89 38 -4 4 -9 50 -12 103
l-6 95 78 36 c77 37 101 62 101 108 0 11 -24 71 -53 133 -46 97 -59 115 -86
127 -30 12 -38 11 -84 -9 -29 -13 -71 -30 -94 -39 l-42 -16 -53 50 c-29 28
-62 55 -73 61 -19 11 -19 12 4 75 54 143 41 169 -122 228 -60 22 -117 40 -128
40 -10 0 -32 -12 -48 -27z"/>
<path d="M1520 1361 c-100 -31 -161 -92 -241 -241 -86 -163 -103 -178 -323
-286 -104 -52 -214 -103 -245 -115 -63 -23 -103 -23 -264 6 -83 15 -107 16
-160 5 -84 -16 -144 -49 -197 -107 -45 -47 -89 -128 -77 -139 3 -3 23 0 44 7
21 7 70 13 108 13 57 1 78 -4 115 -24 111 -62 120 -217 18 -293 -51 -38 -74
-48 -145 -61 l-66 -12 54 -37 c80 -54 131 -70 230 -71 74 0 93 4 142 28 73 35
114 84 199 238 38 67 78 133 90 146 13 13 126 75 253 139 266 133 282 137 422
104 175 -41 300 -19 397 70 49 44 117 151 104 164 -2 2 -26 -2 -53 -10 -151
-46 -285 11 -310 132 -23 112 102 233 242 233 43 0 42 11 -6 44 -74 51 -149
76 -231 75 -41 0 -86 -4 -100 -8z"/>
</g>
</svg>
