<svg width="50" height="50" viewBox="0 0 50 50" fill="none" xmlns="http://www.w3.org/2000/svg">
<g clip-path="url(#clip0_517_114)">
<path d="M47.4609 25.0655H49.9607V23.6018H45.1534L41.4043 21.2233H49.9607V19.7596H39.0968L35.6361 17.5639H49.9607V16.1006H32.5882L15.918 26.6757V48.4706L0.000762939 48.4641L0 49.9278L49.947 49.9484L50 26.6761L47.4609 25.0655ZM41.6744 36.592V45.3742H40.6174V42.4468H39.1537V39.5194H29.274V42.4468H27.0782V45.3742H25.6149V48.4748L24.168 48.474V36.592H41.6744ZM34.3967 40.9831H37.69V42.4468H34.3967V40.9831ZM38.0562 45.3742H35.8604V43.9105H39.1537V45.3742H38.0562ZM32.2014 43.9105H34.3967V45.3742H32.2014V43.9105ZM34.3967 46.8379H36.5925V48.3016H34.3967V46.8379ZM32.933 42.4468H30.7377V40.9831H32.933V42.4468ZM30.7377 45.3742H28.5419V43.9105H30.7377V45.3742ZM29.274 46.8379V48.3016H27.0782V46.8379H29.274ZM30.7377 46.8379H32.933V48.4778L30.7377 48.4767V46.8379ZM38.0562 46.8379H41.6744V48.4813L38.0562 48.4797V46.8379ZM43.1381 48.482V36.592H44.6426V35.1283H21.2238V36.592H22.7043V48.4736L17.3817 48.4713V46.8379H21.2238V45.3742H17.3817V27.4806L32.9586 17.599L44.6426 25.011V25.0655H44.7285L48.5344 27.4798L48.4936 45.3742H44.6426V46.8379H48.4901L48.4863 48.4839L43.1381 48.482Z" fill="white"/>
<path d="M21.9556 32.9329H43.9107V27.0781H21.9556V32.9329ZM35.8605 31.4692H33.6652V28.5418H35.8605V31.4692ZM37.3242 28.5418H39.52V31.4692H37.3242V28.5418ZM32.2015 31.4692H30.0057V28.5418H32.2015V31.4692ZM28.542 31.4692H26.3467V28.5418H28.542V31.4692ZM42.4474 31.4692H40.9837V28.5418H42.4474V31.4692ZM23.4193 28.5418H24.883V31.4692H23.4193V28.5418Z" fill="white"/>
<path d="M19.0281 29.2737H20.4918V30.7374H19.0281V29.2737Z" fill="white"/>
<path d="M45.3743 29.2737H46.838V30.7374H45.3743V29.2737Z" fill="white"/>
<path d="M32.933 25.6146C34.5474 25.6146 35.8604 24.3012 35.8604 22.6872C35.8604 21.0728 34.5474 19.7598 32.933 19.7598C31.319 19.7598 30.0056 21.0728 30.0056 22.6872C30.0056 24.3012 31.319 25.6146 32.933 25.6146ZM32.933 21.2235C33.7402 21.2235 34.3967 21.88 34.3967 22.6872C34.3967 23.4944 33.7402 24.1509 32.933 24.1509C32.1262 24.1509 31.4693 23.4944 31.4693 22.6872C31.4693 21.88 32.1262 21.2235 32.933 21.2235Z" fill="white"/>
<path d="M16.3085 9.4951L18.5473 10.9878L22.6031 7.31844H24.3339V5.85474H22.0393L18.4108 9.13766L16.2589 7.70296L12.9172 10.2092L13.7954 11.3799L16.3085 9.4951Z" fill="white"/>
<path d="M25.7976 5.85474H27.2613V7.31844H25.7976V5.85474Z" fill="white"/>
<path d="M14.8201 15.3687H30.1887V2.9274H14.8201V0H0.183105V24.8825H14.8201V15.3687ZM28.725 13.905H11.8927V4.3911H28.725V13.905ZM13.3564 1.4637V2.9274H10.429V7.3185H6.0379V8.7822H10.429V10.2459H6.0379V11.7096H10.429V13.1733H6.0379V14.637H10.429V15.3687H13.3564V19.7597H1.6468V4.3911H5.30624V2.9274H1.6468V1.4637H13.3564ZM1.6468 23.4188V21.2234H13.3564V23.4188H1.6468Z" fill="white"/>
<path d="M13.1733 35.1284H14.637V36.5921H13.1733V35.1284Z" fill="white"/>
<path d="M10.2458 35.1284H11.7095V36.5921H10.2458V35.1284Z" fill="white"/>
<path d="M7.31885 35.1284H8.78255V36.5921H7.31885V35.1284Z" fill="white"/>
<path d="M8.78261 29.2737H7.31891V30.8335C7.31891 31.1841 7.03357 31.4694 6.683 31.4694H4.0253C2.6131 31.4694 1.46411 32.6184 1.46411 34.0306C1.46411 35.4432 2.6131 36.5922 4.0253 36.5922H5.85521V35.1285H4.0253C3.42029 35.1285 2.92781 34.636 2.92781 34.0306C2.92781 33.4256 3.42029 32.9331 4.0253 32.9331H6.683C7.84076 32.9331 8.78261 31.9913 8.78261 30.8335V29.2737Z" fill="white"/>
<path d="M7.31885 26.3462H8.78255V27.8099H7.31885V26.3462Z" fill="white"/>
<path d="M6.77002 2.92749H8.23372V4.39119H6.77002V2.92749Z" fill="white"/>
<path d="M3.1106 7.3186H4.57429V8.7823H3.1106V7.3186Z" fill="white"/>
<path d="M3.1106 10.2458H4.57429V11.7095H3.1106V10.2458Z" fill="white"/>
<path d="M3.1106 13.1733H4.57429V14.637H3.1106V13.1733Z" fill="white"/>
<path d="M3.1106 16.1006H4.57429V17.5639H3.1106V16.1006Z" fill="white"/>
<path d="M6.03784 16.1006H11.8926V17.5639H6.03784V16.1006Z" fill="white"/>
<path d="M22.1387 10.9775H27.2614V12.4412H22.1387V10.9775Z" fill="white"/>
</g>
<defs>
<clipPath id="clip0_517_114">
<rect width="50" height="50" fill="white"/>
</clipPath>
</defs>
</svg>
