<svg width="140" height="69" viewBox="0 0 140 69" fill="none" xmlns="http://www.w3.org/2000/svg">
<path d="M69.6299 4.71709L69.9993 5.12215L70.3688 4.71709C77.0233 -2.57938 88.745 0.106769 92.9533 8.87278C97.1023 17.5155 93.9579 32.3996 69.9993 49.3877C46.0408 32.4013 42.8963 17.5172 47.0454 8.87402C51.2537 0.107547 62.9754 -2.57933 69.6299 4.71709Z" fill="#FFF9F3" stroke="#DFB68D"/>
<path d="M4.30807 69C3.53786 69 2.78965 68.764 2.15147 68.3205C1.02915 67.5338 0.288276 66.3751 0.0682141 65.0447C-0.151848 63.7144 0.163574 62.384 0.970468 61.2897C3.31779 58.1069 7.88041 57.3774 11.1373 59.6661C11.3207 59.7949 11.3574 60.0381 11.2327 60.2169C11.1006 60.3957 10.8512 60.4314 10.6679 60.3099C7.77038 58.2786 3.71391 58.9223 1.62332 61.7546C0.941125 62.6773 0.669717 63.8002 0.860437 64.9232C1.05116 66.0461 1.67467 67.026 2.62093 67.6911C3.25178 68.1346 4.01466 68.3062 4.77754 68.1846C5.54042 68.0631 6.20794 67.6554 6.66273 67.0474C6.95615 66.6469 7.07352 66.1605 6.99283 65.6813C6.91214 65.1949 6.64073 64.773 6.22995 64.4869C5.7018 64.1149 4.96092 64.2365 4.57948 64.7515C4.46945 64.9017 4.42544 65.0805 4.46212 65.2522C4.49146 65.431 4.59415 65.5883 4.74086 65.6885C4.82155 65.7457 4.90957 65.7671 5.00493 65.7528C5.10029 65.7385 5.18099 65.6885 5.23967 65.6169C5.37171 65.4381 5.62111 65.4024 5.80449 65.524C5.98788 65.6527 6.02455 65.8959 5.89985 66.0747C5.71647 66.3179 5.4524 66.4824 5.14431 66.5324C4.83622 66.5825 4.52814 66.511 4.27873 66.3322C3.95597 66.1033 3.73591 65.7671 3.67723 65.3809C3.61121 64.9947 3.70657 64.6085 3.9413 64.2938C4.57948 63.4283 5.8265 63.228 6.71408 63.8503C7.30091 64.258 7.68235 64.8659 7.79972 65.5597C7.91709 66.2535 7.74837 66.9473 7.33026 67.5123C6.75076 68.2991 5.89986 68.8141 4.92425 68.9714C4.71152 68.9857 4.50613 69 4.30807 69Z" fill="#DFB68D"/>
<path d="M20.0866 62.9919C18.4141 62.9919 16.793 62.7916 15.2452 62.3839C11.3134 61.3397 8.47465 58.9937 7.63841 56.1041C6.11265 50.797 8.83408 47.3639 11.6289 46.0407C14.4457 44.7032 17.4385 45.2754 19.0816 47.4569C20.1966 48.9374 20.38 50.8686 19.5584 52.3777C18.8616 53.6509 17.6072 54.3446 16.1255 54.2803C13.8735 54.1873 13.118 52.5065 13.0373 51.6339C13.0153 51.4193 13.1766 51.2262 13.404 51.2047C13.6241 51.1833 13.8222 51.3406 13.8442 51.5624C13.8515 51.6482 14.0716 53.4077 16.1621 53.4935C17.3211 53.5364 18.3041 53 18.8469 52.0058C19.5291 50.7613 19.3604 49.1592 18.4288 47.9218C16.8077 45.7618 14.0202 45.7761 11.9736 46.7488C9.45759 47.9432 7.02224 51.0545 8.40863 55.8896C9.16418 58.5073 11.7902 60.6531 15.4433 61.6186C23.5416 63.7644 33.8184 59.9307 42.9437 51.3621C49.3842 45.3112 55.3845 42.7864 60.7834 43.8521C66.3436 44.9464 69.4391 49.6312 69.9673 50.8257C70.0553 51.0259 69.9599 51.2548 69.7546 51.3406C69.5492 51.4265 69.3144 51.3335 69.2264 51.1332C68.7349 50.0174 65.8448 45.6473 60.6293 44.6174C55.5019 43.6017 49.7436 46.0622 43.5085 51.92C35.909 59.0724 27.4807 62.9919 20.0866 62.9919Z" fill="#DFB68D"/>
<path d="M54.9741 63.0489C54.688 63.0489 54.4019 63.0274 54.1158 62.9916C52.4067 62.7699 50.8882 61.9116 49.8466 60.5813C46.7878 56.6832 47.5433 51.0829 51.5484 48.0932C57.248 43.8447 65.427 44.9032 69.7842 50.4535C69.9163 50.6251 69.8869 50.8755 69.7109 51.0042C69.5348 51.1401 69.2781 51.1043 69.146 50.9327C65.0529 45.7257 57.3801 44.7316 52.0399 48.7226C48.3942 51.4477 47.6973 56.5473 50.4921 60.1021C51.4091 61.2679 52.7368 62.0189 54.2332 62.212C55.7223 62.4051 57.2113 62.0189 58.407 61.1249C60.0648 59.8875 60.3802 57.5701 59.1112 55.9537C58.7078 55.4387 58.1209 55.1097 57.4608 55.0239C56.8006 54.938 56.1404 55.1097 55.6122 55.5031C54.908 56.0252 54.776 57.0122 55.3115 57.6989C55.6416 58.1209 56.2651 58.1995 56.6979 57.8777C56.8739 57.7489 57.1307 57.7775 57.2627 57.9492C57.3947 58.1209 57.3654 58.3712 57.1893 58.4999C56.4045 59.0864 55.2748 58.9434 54.6733 58.1781C53.8664 57.1481 54.0645 55.6676 55.1208 54.8808C55.825 54.3587 56.6905 54.1298 57.5635 54.2443C58.4364 54.3587 59.2139 54.795 59.7494 55.4816C61.2898 57.4414 60.9084 60.2594 58.8985 61.7543C57.7395 62.6054 56.3824 63.0489 54.9741 63.0489Z" fill="#DFB68D"/>
<path d="M23.4463 60.3883C25.4489 60.1666 27.3707 59.53 29.2046 58.7647C31.0458 57.9994 32.8063 57.0553 34.4714 55.9824C36.1365 54.9024 37.7576 53.758 39.2687 52.4777C40.7945 51.2261 42.2836 49.8743 43.8534 48.6297C45.4231 47.3852 47.0516 46.1908 48.8121 45.1751C50.5726 44.1738 52.5018 43.337 54.563 43.0938C56.6243 42.8292 58.7075 43.1439 60.6294 43.7947C62.5439 44.4814 64.3338 45.4183 66.0136 46.5055C64.2384 45.5757 62.4192 44.7102 60.5047 44.1667C58.5975 43.6016 56.5876 43.3799 54.6511 43.7017C52.7145 44.0164 50.8807 44.7889 49.1862 45.7974C47.4844 46.7987 45.9073 48.0003 44.3595 49.2377C41.2493 51.6767 38.3225 54.4876 34.7941 56.4902C33.0557 57.513 31.2438 58.4214 29.3439 59.1223C27.4514 59.7803 25.4782 60.3382 23.4463 60.3883Z" fill="#DFB68D"/>
<path d="M28.5444 66.5464C27.1874 66.5464 26.1604 66.196 25.4929 65.8598C22.6394 64.4222 21.4584 61.1678 22.1479 59.0293C23.2336 55.6462 26.2264 54.7807 28.5444 55.4101C30.569 55.9609 32.3148 57.7704 31.7133 60.1665C31.3392 61.6757 30.3709 62.7485 29.1239 63.0275C28.207 63.2349 27.3121 62.9702 26.7913 62.348C26.2631 61.7257 26.2044 60.8388 26.6299 59.9162L27.3634 60.238C27.07 60.8889 27.0847 61.4611 27.4148 61.8473C27.7375 62.2335 28.339 62.398 28.9479 62.2621C29.4027 62.162 30.4956 61.74 30.9284 59.9805C31.4272 57.985 29.9308 56.6046 28.3244 56.1683C26.3071 55.6247 23.8498 56.3686 22.9108 59.2653C22.3313 61.0605 23.4023 63.9287 25.8597 65.166C27.9062 66.196 33.6425 67.3261 42.7604 55.6176C47.9759 48.9158 53.3601 45.3467 58.7589 45.0249C64.5245 44.6744 68.1042 48.1791 68.2509 48.3293L67.6714 48.88C67.6347 48.8442 64.2018 45.4898 58.7956 45.8116C53.6461 46.1263 48.4673 49.5881 43.3986 56.0968C36.7601 64.6296 31.728 66.5464 28.5444 66.5464Z" fill="#DFB68D"/>
<path d="M135.692 69C136.462 69 137.21 68.764 137.849 68.3205C138.971 67.5338 139.712 66.3751 139.932 65.0447C140.152 63.7144 139.836 62.3841 139.03 61.2897C136.682 58.1069 132.12 57.3774 128.863 59.6661C128.679 59.7949 128.643 60.0381 128.767 60.2169C128.899 60.3957 129.149 60.4314 129.332 60.3099C132.23 58.2786 136.286 58.9223 138.377 61.7546C139.059 62.6773 139.33 63.8002 139.14 64.9232C138.949 66.0461 138.325 67.026 137.379 67.6911C136.748 68.1346 135.985 68.3062 135.222 68.1846C134.46 68.0631 133.792 67.6554 133.337 67.0474C133.044 66.6469 132.926 66.1605 133.007 65.6813C133.088 65.1949 133.359 64.773 133.77 64.4869C134.298 64.1149 135.039 64.2365 135.421 64.7515C135.531 64.9017 135.575 65.0805 135.538 65.2522C135.509 65.431 135.406 65.5883 135.259 65.6885C135.178 65.7457 135.09 65.7671 134.995 65.7528C134.9 65.7385 134.819 65.6885 134.76 65.6169C134.628 65.4381 134.379 65.4024 134.196 65.524C134.012 65.6527 133.975 65.8959 134.1 66.0747C134.284 66.3179 134.548 66.4824 134.856 66.5324C135.164 66.5825 135.472 66.511 135.721 66.3322C136.044 66.1033 136.264 65.7671 136.323 65.3809C136.389 64.9947 136.293 64.6085 136.059 64.2938C135.421 63.4283 134.174 63.228 133.286 63.8503C132.699 64.258 132.318 64.8659 132.2 65.5597C132.083 66.2535 132.252 66.9473 132.67 67.5123C133.249 68.2991 134.1 68.8141 135.076 68.9714C135.288 68.9857 135.494 69 135.692 69Z" fill="#DFB68D"/>
<path d="M119.913 62.9918C121.586 62.9918 123.207 62.7916 124.755 62.3839C128.687 61.3396 131.525 58.9936 132.362 56.1041C133.887 50.797 131.166 47.3638 128.371 46.0406C125.554 44.7031 122.562 45.2753 120.918 47.4568C119.803 48.9374 119.62 50.8685 120.442 52.3777C121.138 53.6508 122.393 54.3446 123.875 54.2802C126.127 54.1872 126.882 52.5064 126.963 51.6338C126.985 51.4192 126.823 51.2261 126.596 51.2047C126.376 51.1832 126.178 51.3406 126.156 51.5623C126.149 51.6481 125.928 53.4076 123.838 53.4934C122.679 53.5364 121.696 52.9999 121.153 52.0057C120.471 50.7612 120.64 49.1591 121.571 47.9217C123.192 45.7617 125.98 45.776 128.026 46.7487C130.542 47.9432 132.978 51.0545 131.591 55.8895C130.836 58.5073 128.21 60.653 124.557 61.6186C116.458 63.7643 106.182 59.9306 97.0564 51.362C90.6159 45.3111 84.6156 42.7863 79.2167 43.852C73.6565 44.9463 70.561 49.6312 70.0329 50.8256C69.9448 51.0259 70.0402 51.2547 70.2456 51.3406C70.451 51.4264 70.6857 51.3334 70.7737 51.1332C71.2652 50.0174 74.1553 45.6473 79.3708 44.6173C84.4982 43.6017 90.2565 46.0621 96.4916 51.9199C104.091 59.0723 112.519 62.9918 119.913 62.9918Z" fill="#DFB68D"/>
<path d="M85.026 63.0489C85.312 63.0489 85.5981 63.0275 85.8842 62.9917C87.5933 62.77 89.1118 61.9117 90.1534 60.5813C93.2122 56.6833 92.4567 51.0829 88.4516 48.0932C82.752 43.8447 74.573 44.9033 70.2158 50.4535C70.0838 50.6252 70.1131 50.8755 70.2892 51.0043C70.4652 51.1402 70.722 51.1044 70.854 50.9327C74.9471 45.7258 82.62 44.7316 87.9601 48.7227C91.6058 51.4477 92.3027 56.5474 89.5079 60.1021C88.591 61.268 87.2632 62.019 85.7668 62.2121C84.2777 62.4052 82.7887 62.019 81.593 61.1249C79.9352 59.8876 79.6198 57.5702 80.8888 55.9537C81.2923 55.4388 81.8791 55.1098 82.5393 55.0239C83.1995 54.9381 83.8596 55.1098 84.3878 55.5031C85.092 56.0253 85.224 57.0123 84.6885 57.6989C84.3584 58.1209 83.7349 58.1996 83.3021 57.8777C83.1261 57.749 82.8694 57.7776 82.7373 57.9493C82.6053 58.1209 82.6346 58.3713 82.8107 58.5C83.5956 59.0865 84.7252 58.9434 85.3267 58.1781C86.1336 57.1482 85.9355 55.6676 84.8793 54.8809C84.1751 54.3588 83.3095 54.1299 82.4366 54.2443C81.5637 54.3588 80.7861 54.795 80.2506 55.4817C78.7102 57.4414 79.0916 60.2595 81.1015 61.7543C82.2605 62.6055 83.6176 63.0489 85.026 63.0489Z" fill="#DFB68D"/>
<path d="M116.554 60.3883C114.551 60.1666 112.629 59.53 110.795 58.7647C108.954 57.9994 107.194 57.0553 105.529 55.9824C103.864 54.9024 102.242 53.758 100.731 52.4777C99.2055 51.2261 97.7165 49.8743 96.1467 48.6297C94.5769 47.3852 92.9485 46.1908 91.188 45.1751C89.4275 44.1738 87.4983 43.337 85.437 43.0938C83.3758 42.8292 81.2925 43.1439 79.3707 43.7947C77.4561 44.4814 75.6663 45.4183 73.9865 46.5055C75.7617 45.5757 77.5808 44.7102 79.4954 44.1667C81.4026 43.6016 83.4125 43.3799 85.349 43.7017C87.2855 44.0164 89.1194 44.7889 90.8139 45.7974C92.5157 46.7987 94.0928 48.0003 95.6405 49.2377C98.7507 51.6767 101.678 54.4876 105.206 56.4902C106.944 57.513 108.756 58.4214 110.656 59.1223C112.549 59.7803 114.522 60.3382 116.554 60.3883Z" fill="#DFB68D"/>
<path d="M111.457 66.5464C112.814 66.5464 113.841 66.196 114.508 65.8598C117.362 64.4222 118.543 61.1678 117.853 59.0293C116.767 55.6462 113.775 54.7807 111.457 55.4101C109.432 55.9609 107.686 57.7704 108.288 60.1665C108.662 61.6757 109.63 62.7485 110.877 63.0275C111.794 63.2349 112.689 62.9702 113.21 62.348C113.738 61.7257 113.797 60.8388 113.371 59.9162L112.638 60.238C112.931 60.8889 112.916 61.4611 112.586 61.8473C112.263 62.2335 111.662 62.398 111.053 62.2621C110.598 62.162 109.505 61.74 109.073 59.9805C108.574 57.985 110.07 56.6046 111.677 56.1683C113.694 55.6247 116.151 56.3686 117.09 59.2653C117.67 61.0605 116.599 63.9287 114.141 65.166C112.095 66.196 106.358 67.3261 97.2406 55.6176C92.0251 48.9158 86.641 45.3467 81.2421 45.0249C75.4765 44.6744 71.8969 48.1791 71.7502 48.3293L72.3297 48.88C72.3663 48.8442 75.7993 45.4898 81.2055 45.8116C86.3549 46.1263 91.5337 49.5881 96.6024 56.0968C103.241 64.6296 108.273 66.5464 111.457 66.5464Z" fill="#DFB68D"/>
</svg>
