<svg width="46" height="36" viewBox="0 0 46 36" fill="none" xmlns="http://www.w3.org/2000/svg">
<path d="M23 13.9258C22.5365 13.9258 22.0833 13.7883 21.6979 13.5308C21.3125 13.2733 21.0121 12.9072 20.8347 12.4789C20.6573 12.0507 20.6109 11.5794 20.7013 11.1248C20.7917 10.6701 21.0149 10.2525 21.3427 9.92475C21.6705 9.59697 22.0881 9.37375 22.5428 9.28332C22.9974 9.19288 23.4686 9.2393 23.8969 9.41669C24.3252 9.59408 24.6912 9.89449 24.9488 10.2799C25.2063 10.6653 25.3438 11.1185 25.3438 11.582C25.3431 12.2034 25.0959 12.7992 24.6565 13.2386C24.2171 13.678 23.6214 13.9251 23 13.9258ZM23 10.8008C22.8455 10.8008 22.6944 10.8466 22.566 10.9324C22.4375 11.0183 22.3374 11.1403 22.2782 11.2831C22.2191 11.4258 22.2036 11.5829 22.2338 11.7344C22.2639 11.886 22.3383 12.0252 22.4476 12.1345C22.5568 12.2437 22.696 12.3181 22.8476 12.3483C22.9991 12.3784 23.1562 12.3629 23.299 12.3038C23.4417 12.2447 23.5637 12.1445 23.6496 12.0161C23.7354 11.8876 23.7813 11.7365 23.7813 11.582C23.781 11.3749 23.6987 11.1763 23.5522 11.0298C23.4057 10.8834 23.2071 10.801 23 10.8008Z" fill="white"/>
<path d="M17.5312 31.5039V27.5977C17.5312 27.3905 17.6136 27.1917 17.7601 27.0452C17.9066 26.8987 18.1053 26.8164 18.3125 26.8164C18.5197 26.8164 18.7184 26.8987 18.8649 27.0452C19.0114 27.1917 19.0938 27.3905 19.0938 27.5977V31.5039C19.0938 31.7111 19.0114 31.9098 18.8649 32.0563C18.7184 32.2028 18.5197 32.2852 18.3125 32.2852C18.1053 32.2852 17.9066 32.2028 17.7601 32.0563C17.6136 31.9098 17.5312 31.7111 17.5312 31.5039Z" fill="white"/>
<path d="M17.5312 25.2539V24.4727C17.5312 24.2655 17.6136 24.0667 17.7601 23.9202C17.9066 23.7737 18.1053 23.6914 18.3125 23.6914C18.5197 23.6914 18.7184 23.7737 18.8649 23.9202C19.0114 24.0667 19.0938 24.2655 19.0938 24.4727V25.2539C19.0938 25.4611 19.0114 25.6598 18.8649 25.8063C18.7184 25.9528 18.5197 26.0352 18.3125 26.0352C18.1053 26.0352 17.9066 25.9528 17.7601 25.8063C17.6136 25.6598 17.5312 25.4611 17.5312 25.2539Z" fill="white"/>
<path d="M44.4191 2.2223H39.8346V0.980225C39.8346 0.773024 39.7523 0.57431 39.6058 0.427798C39.4593 0.281285 39.2605 0.198975 39.0533 0.198975C38.8461 0.198975 38.6474 0.281285 38.5009 0.427798C38.3544 0.57431 38.2721 0.773024 38.2721 0.980225V2.2223H33.6876C33.4804 2.2223 33.2817 2.3046 33.1352 2.45112C32.9887 2.59763 32.9063 2.79634 32.9063 3.00355C32.9063 3.21075 32.9887 3.40946 33.1352 3.55597C33.2817 3.70249 33.4804 3.7848 33.6876 3.7848H38.2721V5.60901H36.6783C36.5757 5.60899 36.4741 5.62917 36.3793 5.66843C36.2845 5.70768 36.1984 5.76522 36.1259 5.83778C36.0533 5.91033 35.9958 5.99646 35.9565 6.09126C35.9173 6.18606 35.8971 6.28766 35.8971 6.39026V6.79019C31.6637 5.95056 27.3597 5.51774 23.0438 5.49762C18.6987 5.50991 14.365 5.94161 10.1028 6.78672V6.39023C10.1029 6.28763 10.0827 6.18603 10.0434 6.09123C10.0042 5.99643 9.94663 5.9103 9.87408 5.83774C9.80153 5.76519 9.71539 5.70765 9.6206 5.6684C9.5258 5.62914 9.4242 5.60895 9.32159 5.60898H7.72784V3.78476H12.3123C12.5195 3.78476 12.7183 3.70245 12.8648 3.55594C13.0113 3.40943 13.0936 3.21071 13.0936 3.00351C13.0936 2.79631 13.0113 2.5976 12.8648 2.45109C12.7183 2.30457 12.5195 2.22226 12.3123 2.22226H7.72781V0.980225C7.72781 0.773024 7.6455 0.57431 7.49899 0.427798C7.35248 0.281285 7.15376 0.198975 6.94656 0.198975C6.73936 0.198975 6.54065 0.281285 6.39413 0.427798C6.24762 0.57431 6.16531 0.773024 6.16531 0.980225V2.2223H1.58081C1.37361 2.2223 1.1749 2.3046 1.02838 2.45112C0.881871 2.59763 0.799561 2.79634 0.799561 3.00355C0.799561 3.21075 0.881871 3.40946 1.02838 3.55597C1.1749 3.70249 1.37361 3.7848 1.58081 3.7848H6.16531V5.60901H4.57156C4.46896 5.60899 4.36736 5.62918 4.27256 5.66843C4.17776 5.70768 4.09162 5.76523 4.01907 5.83778C3.94652 5.91033 3.88898 5.99646 3.84973 6.09126C3.81047 6.18606 3.79028 6.28766 3.79031 6.39026V10.8763C3.78823 11.6793 4.09303 12.4527 4.64236 13.0383C5.19169 13.6239 5.94403 13.9775 6.74547 14.0267C7.5469 14.076 8.33685 13.8171 8.95372 13.3031C9.57058 12.7891 9.96773 12.0588 10.0639 11.2616H13.6364C14.1493 11.2615 14.6555 11.378 15.1167 11.6025C15.5779 11.8269 15.9819 12.1533 16.2983 12.557L12.6145 17.3568C12.5472 17.4444 12.4992 17.5454 12.4738 17.653C12.4485 17.7606 12.4462 17.8723 12.4672 17.9808L14.024 26.0108C14.0484 26.1393 14.1049 26.2596 14.1883 26.3604C14.2716 26.4613 14.379 26.5395 14.5007 26.5877C14.6223 26.6359 14.7541 26.6527 14.8839 26.6364C15.0137 26.62 15.1373 26.5712 15.2432 26.4944V34.2384C15.2437 34.6526 15.4084 35.0498 15.7013 35.3427C15.9943 35.6356 16.3914 35.8004 16.8057 35.8009H29.1943C29.6085 35.8004 30.0057 35.6356 30.2986 35.3427C30.5915 35.0498 30.7563 34.6526 30.7568 34.2384V26.4944C30.8626 26.5712 30.9862 26.6201 31.116 26.6364C31.2458 26.6527 31.3777 26.636 31.4993 26.5878C31.6209 26.5395 31.7284 26.4613 31.8117 26.3605C31.895 26.2596 31.9515 26.1393 31.9759 26.0108L33.5327 17.9808C33.5537 17.8723 33.5515 17.7606 33.5261 17.653C33.5007 17.5454 33.4528 17.4444 33.3855 17.3568L29.7443 12.6126C30.0597 12.1928 30.4685 11.8521 30.9383 11.6176C31.4082 11.3831 31.9261 11.2612 32.4512 11.2616H35.936C36.0322 12.0588 36.4294 12.789 37.0462 13.303C37.6631 13.817 38.453 14.0759 39.2545 14.0267C40.0559 13.9775 40.8082 13.6239 41.3576 13.0383C41.9069 12.4527 42.2117 11.6793 42.2096 10.8763V6.39023C42.2096 6.28763 42.1895 6.18603 42.1502 6.09123C42.111 5.99643 42.0534 5.9103 41.9809 5.83774C41.9083 5.76519 41.8222 5.70765 41.7274 5.6684C41.6326 5.62914 41.531 5.60895 41.4284 5.60898H39.8346V3.78476H44.4191C44.6254 3.78346 44.8229 3.70057 44.9683 3.55421C45.1138 3.40784 45.1954 3.20987 45.1954 3.00353C45.1954 2.79719 45.1138 2.59922 44.9683 2.45285C44.8229 2.30648 44.6254 2.2236 44.4191 2.2223ZM6.94656 12.4701C6.52401 12.4696 6.1189 12.3016 5.82011 12.0028C5.52132 11.704 5.35327 11.2989 5.35281 10.8763V7.17148H8.54034V10.8763C8.5399 11.2989 8.37184 11.704 8.07304 12.0028C7.77425 12.3016 7.36912 12.4697 6.94656 12.4701ZM16.8056 34.2383V21.7383H19.7075V25.4988C19.7074 25.651 19.7519 25.8 19.8354 25.9273C19.9189 26.0546 20.0378 26.1546 20.1775 26.2152C21.4451 26.766 21.2098 26.7634 22.1611 26.3503C23.0749 26.7471 22.9317 26.7417 23.835 26.3503C24.793 26.7662 24.5919 26.7486 25.8217 26.216C25.9615 26.1553 26.0805 26.055 26.1641 25.9276C26.2477 25.8002 26.2923 25.6512 26.2924 25.4988V21.7383H29.1943L29.1954 34.2383H16.8056ZM21.27 21.7383H24.7299V24.9861L24.6727 25.0105C23.7931 24.6289 23.914 24.6132 22.9977 25.0105C22.0819 24.6128 22.2338 24.6157 21.3246 25.0105L21.27 24.9861L21.27 21.7383ZM30.7568 24.0882V21.7383C30.7563 21.324 30.5915 20.9269 30.2986 20.634C30.0057 20.341 29.6085 20.1763 29.1943 20.1758H16.8056C16.3914 20.1763 15.9942 20.341 15.7013 20.634C15.4084 20.9269 15.2436 21.324 15.2431 21.7383V24.0882L14.0682 18.0288L17.1373 14.0298C17.4646 14.7704 17.988 15.4076 18.651 15.8725C19.314 16.3374 20.0913 16.6124 20.8992 16.6678C21.925 16.7338 24.1498 16.7346 25.188 16.6678C25.9829 16.6142 26.7487 16.3472 27.4046 15.8951C28.0605 15.4429 28.5824 14.8222 28.9152 14.0983L31.9317 18.0288L30.7568 24.0882ZM28.0426 12.3839C27.4871 13.458 26.9566 14.9884 25.0877 15.1083C24.1381 15.1697 21.9736 15.1713 20.9995 15.1083C19.123 14.9879 18.5817 13.4214 18.0454 12.3839C17.6291 11.5737 16.9971 10.8942 16.2191 10.4204C15.4411 9.94667 14.5473 9.69705 13.6364 9.6991H10.1028V8.38151C14.3621 7.51381 18.6971 7.07116 23.0438 7.06009C27.3612 7.0802 31.6662 7.52356 35.8971 8.38379V9.6991H32.4512C31.5404 9.69705 30.6467 9.94668 29.8687 10.4204C29.0908 10.8942 28.4588 11.5737 28.0426 12.3839ZM40.6471 10.8763C40.6471 11.299 40.4792 11.7044 40.1803 12.0033C39.8814 12.3022 39.476 12.4701 39.0533 12.4701C38.6306 12.4701 38.2253 12.3022 37.9264 12.0033C37.6275 11.7044 37.4596 11.299 37.4596 10.8763V7.17148H40.6471V10.8763Z" fill="white"/>
</svg>
