<svg width="110" height="50" viewBox="0 0 110 50" fill="none" xmlns="http://www.w3.org/2000/svg">
<path fill-rule="evenodd" clip-rule="evenodd" d="M65.5781 0.0912945C63.4262 0.43341 61.3197 1.26049 60.8012 1.96692C60.0176 3.03461 59.7883 4.24808 60.0251 6.07313C60.2456 7.77121 60.2229 7.97877 59.661 9.3908C59.0831 10.8431 58.2283 12.3713 57.0629 14.0361C56.6158 14.6747 56.25 15.3087 56.25 15.4449C56.25 15.7943 56.6619 16.2038 57.0136 16.2038C57.6256 16.2038 60.5831 14.5645 61.7997 13.551C62.763 12.7483 64.0166 11.3534 64.6641 10.3637C65.1077 9.68549 65.6041 9.08746 65.9405 8.82582C67.157 7.87972 68.5054 7.41905 69.3518 7.66048C72.3486 8.51559 71.7317 12.4867 67.755 17.9412C66.5125 19.6453 65.0192 21.3814 62.6422 23.8848C61.4675 25.1221 60.2208 26.5149 59.8718 26.98C55.497 32.8113 55.6037 39.3435 60.1498 43.984C62.1143 45.9895 64.1092 47.2313 67.0372 48.2717C72.3241 50.1501 79.4729 50.5264 85.7774 49.2579C96.6729 47.0658 104.817 40.9561 109.175 31.7048C110.063 29.8189 110.16 29.4185 109.814 29.0653C109.47 28.714 109.117 28.7564 108.111 29.2699C106.552 30.0656 103.489 31.1742 103.322 31.0032C103.293 30.9742 103.557 30.484 103.908 29.9138C105.179 27.8491 106.334 25.3021 107.109 22.8567C107.469 21.7196 107.501 21.5258 107.373 21.2593C107.122 20.7387 106.943 20.6973 105.836 20.9057C104.271 21.2002 103.125 21.2546 101.506 21.1114C99.6578 20.948 97.6408 20.5516 95.5554 19.9418C91.8895 18.8701 89.9273 18.5425 86.6642 18.4575C84.0336 18.389 82.8122 18.4841 80.8622 18.9097C78.8171 19.356 76.3636 20.3822 74.787 21.4507C74.4409 21.6854 74.0881 21.9212 74.0031 21.9748C73.9181 22.0284 74.0619 21.6849 74.3228 21.2113C77.4822 15.4767 78.4235 11.0914 77.4204 6.78025C76.6611 3.51701 74.3475 1.14077 71.1227 0.312052C70.0167 0.0278703 66.7866 -0.10073 65.5781 0.0912945ZM70.1757 1.78716C71.9453 2.16023 73.4239 2.96079 74.3258 4.03386C76.1162 6.16435 76.6885 10.0322 75.7555 13.6974C75.1269 16.1674 74.026 18.5598 71.5387 22.8616C68.0846 28.8355 67.0851 31.6473 67.4542 34.3511C68.0563 38.7614 71.2629 41.3807 77.2253 42.3324C79.063 42.6258 83.9343 42.6236 85.7487 42.3287C91.3145 41.424 95.5949 39.3009 99.5031 35.5064C100.101 34.926 100.848 34.1303 101.162 33.738C101.517 33.2959 101.822 33.0248 101.965 33.0242C102.398 33.0227 105.296 32.2266 106.374 31.8134C106.966 31.5866 107.47 31.4219 107.495 31.4474C107.556 31.5102 106.335 33.7313 105.761 34.6003C104.305 36.806 102.103 39.2732 100.132 40.9088C94.0707 45.9395 85.8105 48.5442 76.7323 48.2876C71.0218 48.1263 66.8216 46.9872 63.4513 44.686C61.0636 43.0556 59.1601 40.5348 58.5442 38.1872C57.7038 34.9837 58.7051 31.1259 61.217 27.8892C61.5931 27.4046 62.8443 26.0188 63.9975 24.8095C71.5058 16.936 74.3221 11.0074 72.1168 7.71724C71.3556 6.58157 69.7281 5.80985 68.4441 5.97548C67.4966 6.09777 66.4895 6.49163 65.5875 7.0927L64.7396 7.65779L64.4803 7.37606C64.0072 6.86201 63.1438 6.50915 62.3591 6.50915H61.6476L61.5664 5.62495C61.4781 4.6639 61.6279 3.60975 61.9165 3.16018C62.2483 2.64309 63.5543 2.12355 65.3576 1.79113C66.613 1.55974 69.0874 1.55776 70.1757 1.78716ZM64.1405 3.62809C63.9897 3.70483 63.7927 3.90129 63.7029 4.0647C63.5626 4.31991 63.5622 4.40962 63.6997 4.70268C64.0106 5.36472 64.9006 5.36063 65.1974 4.69567C65.493 4.0334 64.7731 3.30606 64.1405 3.62809ZM63.2881 8.49562C63.4449 8.64606 63.5733 8.84252 63.5733 8.93211C63.5733 9.37363 62.0396 11.2723 61.0184 12.0951C59.6097 13.2301 59.6169 13.2356 60.4142 11.6264C60.806 10.8355 61.2745 9.72287 61.4554 9.15369L61.7842 8.11905L62.3935 8.17056C62.8272 8.20723 63.0851 8.30103 63.2881 8.49562ZM89.1323 20.234C91.0809 20.4666 92.5081 20.7668 94.926 21.4528C96.0274 21.7653 97.2932 22.1035 97.7389 22.2046C99.9431 22.7041 102.809 22.9459 104.423 22.7686C104.958 22.7098 105.416 22.679 105.441 22.7C105.549 22.7931 104.791 24.7097 103.968 26.4241C100.906 32.8047 96.4043 37.1819 90.6351 39.3886C89.2087 39.9342 87.3555 40.4173 85.7147 40.6711C83.986 40.9387 80.6724 41.0296 78.9064 40.858C72.6322 40.2483 69.4795 38.0126 69.0045 33.8361C68.8396 32.3869 69.5572 29.7943 70.6228 27.9888C73.1942 23.6321 77.6282 20.8638 83.1974 20.1381C84.1339 20.016 87.8036 20.0752 89.1323 20.234ZM96.624 28.5932C94.6536 29.2562 93.4618 29.4447 91.2072 29.4498C89.004 29.455 87.974 29.3131 86.1558 28.7545C85.6433 28.5969 85.1155 28.4681 84.983 28.4681C84.3899 28.4681 84.0573 29.39 84.502 29.801C84.6217 29.9116 85.0897 30.1298 85.542 30.286C88.3731 31.2637 92.1469 31.416 95.2693 30.6785C96.6771 30.346 98.011 29.8744 98.2585 29.6218C98.5278 29.3468 98.534 28.9161 98.273 28.608C97.9595 28.2379 97.6873 28.2354 96.624 28.5932ZM78.1309 32.7381C77.8029 32.9725 77.7845 33.6303 78.0972 33.9494C78.3879 34.2462 79.778 34.9208 80.8516 35.286C83.5968 36.22 87.5457 36.4635 90.7495 35.8967C92.0735 35.6624 92.3814 35.3549 92.0458 34.603C91.8535 34.1721 91.5411 34.1373 89.9301 34.367C87.8606 34.6622 84.6006 34.5636 82.9113 34.1547C81.5679 33.8295 80.5635 33.4658 79.5088 32.9223C78.7052 32.5082 78.4923 32.4797 78.1309 32.7381Z" fill="#DFB68D"/>
<path fill-rule="evenodd" clip-rule="evenodd" d="M44.4219 0.0912945C46.5738 0.43341 48.6803 1.26049 49.1988 1.96692C49.9824 3.03461 50.2117 4.24808 49.9749 6.07313C49.7544 7.77121 49.7771 7.97877 50.339 9.3908C50.9169 10.8431 51.7717 12.3713 52.9371 14.0361C53.3842 14.6747 53.75 15.3087 53.75 15.4449C53.75 15.7943 53.3381 16.2038 52.9864 16.2038C52.3744 16.2038 49.4169 14.5645 48.2003 13.551C47.237 12.7483 45.9834 11.3534 45.3359 10.3637C44.8923 9.68549 44.3959 9.08746 44.0595 8.82582C42.843 7.87972 41.4946 7.41905 40.6482 7.66048C37.6514 8.51559 38.2683 12.4867 42.245 17.9412C43.4875 19.6453 44.9808 21.3814 47.3578 23.8848C48.5325 25.1221 49.7792 26.5149 50.1282 26.98C54.503 32.8113 54.3963 39.3435 49.8502 43.984C47.8857 45.9895 45.8908 47.2313 42.9628 48.2717C37.6759 50.1501 30.5271 50.5264 24.2226 49.2579C13.3271 47.0658 5.18319 40.9561 0.825043 31.7048C-0.0633621 29.8189 -0.160397 29.4185 0.185627 29.0653C0.529819 28.714 0.882828 28.7564 1.88886 29.2699C3.4478 30.0656 6.51099 31.1742 6.6784 31.0032C6.70678 30.9742 6.44279 30.484 6.09174 29.9138C4.82069 27.8491 3.66555 25.3021 2.89101 22.8567C2.53091 21.7196 2.49898 21.5258 2.62714 21.2593C2.87762 20.7387 3.05727 20.6973 4.16446 20.9057C5.72866 21.2002 6.87464 21.2546 8.49445 21.1114C10.3422 20.948 12.3592 20.5516 14.4446 19.9418C18.1105 18.8701 20.0727 18.5425 23.3358 18.4575C25.9664 18.389 27.1878 18.4841 29.1378 18.9097C31.1829 19.356 33.6364 20.3822 35.213 21.4507C35.5591 21.6854 35.9119 21.9212 35.9969 21.9748C36.0819 22.0284 35.9381 21.6849 35.6772 21.2113C32.5178 15.4767 31.5765 11.0914 32.5796 6.78025C33.3389 3.51701 35.6525 1.14077 38.8773 0.312052C39.9833 0.0278703 43.2134 -0.10073 44.4219 0.0912945ZM39.8243 1.78716C38.0547 2.16023 36.5761 2.96079 35.6742 4.03386C33.8838 6.16435 33.3115 10.0322 34.2445 13.6974C34.8731 16.1674 35.974 18.5598 38.4613 22.8616C41.9154 28.8355 42.9149 31.6473 42.5458 34.3511C41.9437 38.7614 38.7371 41.3807 32.7747 42.3324C30.937 42.6258 26.0657 42.6236 24.2513 42.3287C18.6855 41.424 14.4051 39.3009 10.4969 35.5064C9.89904 34.926 9.1524 34.1303 8.83773 33.738C8.4829 33.2959 8.17795 33.0248 8.03492 33.0242C7.60228 33.0227 4.70352 32.2266 3.62562 31.8134C3.03438 31.5866 2.53022 31.4219 2.50528 31.4474C2.44383 31.5102 3.66521 33.7313 4.23906 34.6003C5.69548 36.806 7.8968 39.2732 9.86757 40.9088C15.9293 45.9395 24.1895 48.5442 33.2677 48.2876C38.9782 48.1263 43.1784 46.9872 46.5487 44.686C48.9364 43.0556 50.8399 40.5348 51.4558 38.1872C52.2962 34.9837 51.2949 31.1259 48.783 27.8892C48.4069 27.4046 47.1557 26.0188 46.0025 24.8095C38.4942 16.936 35.6779 11.0074 37.8832 7.71724C38.6444 6.58157 40.2719 5.80985 41.5559 5.97548C42.5034 6.09777 43.5105 6.49163 44.4125 7.0927L45.2604 7.65779L45.5197 7.37606C45.9928 6.86201 46.8562 6.50915 47.6409 6.50915H48.3524L48.4336 5.62495C48.5219 4.6639 48.3721 3.60975 48.0835 3.16018C47.7517 2.64309 46.4457 2.12355 44.6424 1.79113C43.387 1.55974 40.9126 1.55776 39.8243 1.78716ZM45.8595 3.62809C46.0103 3.70483 46.2073 3.90129 46.2971 4.0647C46.4374 4.31991 46.4378 4.40962 46.3003 4.70268C45.9894 5.36472 45.0994 5.36063 44.8026 4.69567C44.507 4.0334 45.2269 3.30606 45.8595 3.62809ZM46.7119 8.49562C46.5551 8.64606 46.4267 8.84252 46.4267 8.93211C46.4267 9.37363 47.9604 11.2723 48.9816 12.0951C50.3903 13.2301 50.3831 13.2356 49.5858 11.6264C49.194 10.8355 48.7255 9.72287 48.5446 9.15369L48.2158 8.11905L47.6065 8.17056C47.1728 8.20723 46.9149 8.30103 46.7119 8.49562ZM20.8677 20.234C18.9191 20.4666 17.4919 20.7668 15.074 21.4528C13.9726 21.7653 12.7068 22.1035 12.2611 22.2046C10.0569 22.7041 7.19125 22.9459 5.57659 22.7686C5.04165 22.7098 4.58394 22.679 4.55945 22.7C4.45121 22.7931 5.20893 24.7097 6.03166 26.4241C9.09405 32.8047 13.5957 37.1819 19.3649 39.3886C20.7913 39.9342 22.6445 40.4173 24.2853 40.6711C26.014 40.9387 29.3276 41.0296 31.0936 40.858C37.3678 40.2483 40.5205 38.0126 40.9955 33.8361C41.1604 32.3869 40.4428 29.7943 39.3772 27.9888C36.8058 23.6321 32.3718 20.8638 26.8026 20.1381C25.8661 20.016 22.1964 20.0752 20.8677 20.234ZM13.376 28.5932C15.3464 29.2562 16.5382 29.4447 18.7928 29.4498C20.996 29.455 22.026 29.3131 23.8442 28.7545C24.3567 28.5969 24.8845 28.4681 25.017 28.4681C25.6101 28.4681 25.9427 29.39 25.498 29.801C25.3783 29.9116 24.9103 30.1298 24.458 30.286C21.6269 31.2637 17.8531 31.416 14.7307 30.6785C13.3229 30.346 11.989 29.8744 11.7415 29.6218C11.4722 29.3468 11.466 28.9161 11.727 28.608C12.0405 28.2379 12.3127 28.2354 13.376 28.5932ZM31.8691 32.7381C32.1971 32.9725 32.2155 33.6303 31.9028 33.9494C31.6121 34.2462 30.222 34.9208 29.1484 35.286C26.4032 36.22 22.4543 36.4635 19.2505 35.8967C17.9265 35.6624 17.6186 35.3549 17.9542 34.603C18.1465 34.1721 18.4589 34.1373 20.0699 34.367C22.1394 34.6622 25.3994 34.5636 27.0887 34.1547C28.4321 33.8295 29.4365 33.4658 30.4912 32.9223C31.2948 32.5082 31.5077 32.4797 31.8691 32.7381Z" fill="#DFB68D"/>
</svg>
