<svg width="140" height="69" viewBox="0 0 140 69" fill="none" xmlns="http://www.w3.org/2000/svg">
<path d="M69.6299 4.71709L69.9993 5.12215L70.3688 4.71709C77.0233 -2.57938 88.745 0.106769 92.9533 8.87278C97.1023 17.5155 93.9579 32.3996 69.9993 49.3877C46.0408 32.4013 42.8963 17.5172 47.0454 8.87402C51.2537 0.107547 62.9754 -2.57933 69.6299 4.71709Z" fill="white" fill-opacity="0.1" stroke="white"/>
<path d="M4.30807 68.9999C3.53786 68.9999 2.78965 68.7639 2.15147 68.3204C1.02915 67.5337 0.288276 66.375 0.0682141 65.0446C-0.151848 63.7143 0.163574 62.3839 0.970468 61.2896C3.31779 58.1068 7.88041 57.3773 11.1373 59.666C11.3207 59.7948 11.3574 60.0379 11.2327 60.2167C11.1006 60.3956 10.8512 60.4313 10.6679 60.3097C7.77038 58.2785 3.71391 58.9222 1.62332 61.7545C0.941125 62.6772 0.669717 63.8001 0.860437 64.923C1.05116 66.046 1.67467 67.0258 2.62093 67.691C3.25178 68.1345 4.01466 68.3061 4.77754 68.1845C5.54042 68.0629 6.20794 67.6553 6.66273 67.0473C6.95615 66.6468 7.07352 66.1604 6.99283 65.6812C6.91214 65.1948 6.64073 64.7728 6.22995 64.4867C5.7018 64.1148 4.96092 64.2364 4.57948 64.7514C4.46945 64.9016 4.42544 65.0804 4.46212 65.252C4.49146 65.4309 4.59415 65.5882 4.74086 65.6883C4.82155 65.7456 4.90957 65.767 5.00493 65.7527C5.10029 65.7384 5.18099 65.6883 5.23967 65.6168C5.37171 65.438 5.62111 65.4022 5.80449 65.5238C5.98788 65.6526 6.02455 65.8958 5.89985 66.0746C5.71647 66.3178 5.4524 66.4823 5.14431 66.5323C4.83622 66.5824 4.52814 66.5109 4.27873 66.3321C3.95597 66.1032 3.73591 65.767 3.67723 65.3808C3.61121 64.9946 3.70657 64.6083 3.9413 64.2936C4.57948 63.4282 5.8265 63.2279 6.71408 63.8502C7.30091 64.2579 7.68235 64.8658 7.79972 65.5596C7.91709 66.2534 7.74837 66.9472 7.33026 67.5122C6.75076 68.299 5.89986 68.8139 4.92425 68.9713C4.71152 68.9856 4.50613 68.9999 4.30807 68.9999Z" fill="#DFB68D"/>
<path d="M20.0866 62.9918C18.4141 62.9918 16.793 62.7915 15.2452 62.3838C11.3134 61.3396 8.47465 58.9936 7.63841 56.104C6.11265 50.7969 8.83408 47.3638 11.6289 46.0406C14.4457 44.7031 17.4385 45.2753 19.0816 47.4568C20.1966 48.9373 20.38 50.8685 19.5584 52.3776C18.8616 53.6507 17.6072 54.3445 16.1255 54.2802C13.8735 54.1872 13.118 52.5064 13.0373 51.6338C13.0153 51.4192 13.1766 51.2261 13.404 51.2046C13.6241 51.1832 13.8222 51.3405 13.8442 51.5622C13.8515 51.6481 14.0716 53.4076 16.1621 53.4934C17.3211 53.5363 18.3041 52.9999 18.8469 52.0057C19.5291 50.7612 19.3604 49.159 18.4288 47.9217C16.8077 45.7616 14.0202 45.7759 11.9736 46.7487C9.45759 47.9431 7.02224 51.0544 8.40863 55.8894C9.16418 58.5072 11.7902 60.6529 15.4433 61.6185C23.5416 63.7642 33.8184 59.9306 42.9437 51.362C49.3842 45.311 55.3845 42.7862 60.7834 43.8519C66.3436 44.9463 69.4391 49.6311 69.9673 50.8255C70.0553 51.0258 69.9599 51.2547 69.7546 51.3405C69.5492 51.4263 69.3144 51.3334 69.2264 51.1331C68.7349 50.0173 65.8448 45.6472 60.6293 44.6173C55.5019 43.6016 49.7436 46.062 43.5085 51.9199C35.909 59.0723 27.4807 62.9918 20.0866 62.9918Z" fill="#DFB68D"/>
<path d="M54.9736 63.0489C54.6875 63.0489 54.4014 63.0275 54.1153 62.9917C52.4062 62.77 50.8878 61.9117 49.8461 60.5813C46.7873 56.6833 47.5428 51.0829 51.5479 48.0932C57.2475 43.8447 65.4265 44.9033 69.7837 50.4535C69.9158 50.6252 69.8864 50.8755 69.7104 51.0043C69.5343 51.1402 69.2776 51.1044 69.1455 50.9327C65.0524 45.7258 57.3796 44.7316 52.0394 48.7227C48.3937 51.4477 47.6969 56.5474 50.4916 60.1021C51.4086 61.268 52.7363 62.019 54.2327 62.2121C55.7218 62.4052 57.2109 62.019 58.4065 61.1249C60.0643 59.8876 60.3798 57.5702 59.1107 55.9537C58.7073 55.4388 58.1204 55.1098 57.4603 55.0239C56.8001 54.9381 56.1399 55.1098 55.6117 55.5031C54.9075 56.0253 54.7755 57.0123 55.311 57.6989C55.6411 58.1209 56.2646 58.1996 56.6974 57.8777C56.8734 57.749 57.1302 57.7776 57.2622 57.9493C57.3942 58.1209 57.3649 58.3713 57.1889 58.5C56.404 59.0865 55.2743 58.9434 54.6728 58.1781C53.8659 57.1482 54.064 55.6676 55.1203 54.8809C55.8245 54.3588 56.6901 54.1299 57.563 54.2443C58.4359 54.3588 59.2134 54.795 59.7489 55.4817C61.2893 57.4414 60.9079 60.2595 58.898 61.7543C57.739 62.6055 56.382 63.0489 54.9736 63.0489Z" fill="#DFB68D"/>
<path d="M23.4463 60.3883C25.4489 60.1666 27.3707 59.53 29.2046 58.7647C31.0458 57.9994 32.8063 57.0553 34.4714 55.9824C36.1365 54.9024 37.7576 53.758 39.2687 52.4777C40.7945 51.2261 42.2836 49.8743 43.8534 48.6297C45.4231 47.3852 47.0516 46.1908 48.8121 45.1751C50.5726 44.1738 52.5018 43.337 54.563 43.0938C56.6243 42.8292 58.7075 43.1439 60.6294 43.7947C62.5439 44.4814 64.3338 45.4183 66.0136 46.5055C64.2384 45.5757 62.4192 44.7102 60.5047 44.1667C58.5975 43.6016 56.5876 43.3799 54.6511 43.7017C52.7145 44.0164 50.8807 44.7889 49.1862 45.7974C47.4844 46.7987 45.9073 48.0003 44.3595 49.2377C41.2493 51.6767 38.3225 54.4876 34.7941 56.4902C33.0557 57.513 31.2438 58.4214 29.3439 59.1223C27.4514 59.7803 25.4782 60.3382 23.4463 60.3883Z" fill="#DFB68D"/>
<path d="M28.5444 66.5464C27.1874 66.5464 26.1604 66.196 25.4929 65.8598C22.6394 64.4222 21.4584 61.1678 22.1479 59.0293C23.2336 55.6462 26.2264 54.7807 28.5444 55.4101C30.569 55.9609 32.3148 57.7704 31.7133 60.1665C31.3392 61.6757 30.3709 62.7485 29.1239 63.0275C28.207 63.2349 27.3121 62.9702 26.7913 62.348C26.2631 61.7257 26.2044 60.8388 26.6299 59.9162L27.3634 60.238C27.07 60.8889 27.0847 61.4611 27.4148 61.8473C27.7375 62.2335 28.339 62.398 28.9479 62.2621C29.4027 62.162 30.4956 61.74 30.9284 59.9805C31.4272 57.985 29.9308 56.6046 28.3244 56.1683C26.3071 55.6247 23.8498 56.3686 22.9108 59.2653C22.3313 61.0605 23.4023 63.9287 25.8597 65.166C27.9062 66.196 33.6425 67.3261 42.7604 55.6176C47.9759 48.9158 53.3601 45.3467 58.7589 45.0249C64.5245 44.6744 68.1042 48.1791 68.2509 48.3293L67.6714 48.88C67.6347 48.8442 64.2018 45.4898 58.7956 45.8116C53.6461 46.1263 48.4673 49.5881 43.3986 56.0968C36.7601 64.6296 31.728 66.5464 28.5444 66.5464Z" fill="#DFB68D"/>
<path d="M135.692 69.0001C136.462 69.0001 137.21 68.7641 137.849 68.3207C138.971 67.5339 139.712 66.3752 139.932 65.0449C140.152 63.7145 139.836 62.3842 139.03 61.2899C136.682 58.107 132.12 57.3775 128.863 59.6663C128.679 59.795 128.643 60.0382 128.767 60.217C128.899 60.3958 129.149 60.4316 129.332 60.31C132.23 58.2787 136.286 58.9224 138.377 61.7548C139.059 62.6774 139.33 63.8003 139.14 64.9233C138.949 66.0462 138.325 67.0261 137.379 67.6913C136.748 68.1347 135.985 68.3064 135.222 68.1848C134.46 68.0632 133.792 67.6555 133.337 67.0475C133.044 66.647 132.926 66.1606 133.007 65.6814C133.088 65.1951 133.359 64.7731 133.77 64.487C134.298 64.1151 135.039 64.2367 135.421 64.7516C135.531 64.9018 135.575 65.0806 135.538 65.2523C135.509 65.4311 135.406 65.5885 135.259 65.6886C135.178 65.7458 135.09 65.7673 134.995 65.753C134.9 65.7387 134.819 65.6886 134.76 65.6171C134.628 65.4383 134.379 65.4025 134.196 65.5241C134.012 65.6528 133.975 65.896 134.1 66.0748C134.284 66.318 134.548 66.4825 134.856 66.5326C135.164 66.5826 135.472 66.5111 135.721 66.3323C136.044 66.1034 136.264 65.7673 136.323 65.381C136.389 64.9948 136.293 64.6086 136.059 64.2939C135.421 63.4284 134.174 63.2282 133.286 63.8504C132.699 64.2581 132.318 64.8661 132.2 65.5598C132.083 66.2536 132.252 66.9474 132.67 67.5125C133.249 68.2992 134.1 68.8142 135.076 68.9715C135.288 68.9858 135.494 69.0001 135.692 69.0001Z" fill="#DFB68D"/>
<path d="M119.913 62.9918C121.585 62.9918 123.207 62.7915 124.754 62.3838C128.686 61.3396 131.525 58.9936 132.361 56.104C133.887 50.7969 131.165 47.3638 128.371 46.0406C125.554 44.7031 122.561 45.2753 120.918 47.4568C119.803 48.9373 119.62 50.8685 120.441 52.3776C121.138 53.6507 122.392 54.3445 123.874 54.2802C126.126 54.1872 126.882 52.5064 126.962 51.6338C126.984 51.4192 126.823 51.2261 126.595 51.2046C126.375 51.1832 126.177 51.3405 126.155 51.5622C126.148 51.6481 125.928 53.4076 123.837 53.4934C122.678 53.5363 121.695 52.9999 121.153 52.0057C120.47 50.7612 120.639 49.159 121.571 47.9217C123.192 45.7616 125.979 45.7759 128.026 46.7487C130.542 47.9431 132.977 51.0544 131.591 55.8894C130.835 58.5072 128.209 60.6529 124.556 61.6185C116.458 63.7642 106.181 59.9306 97.0559 51.362C90.6154 45.311 84.6151 42.7862 79.2163 43.8519C73.656 44.9463 70.5605 49.6311 70.0324 50.8255C69.9443 51.0258 70.0397 51.2547 70.2451 51.3405C70.4505 51.4263 70.6852 51.3334 70.7732 51.1331C71.2647 50.0173 74.1549 45.6472 79.3703 44.6173C84.4977 43.6016 90.256 46.062 96.4911 51.9199C104.091 59.0723 112.519 62.9918 119.913 62.9918Z" fill="#DFB68D"/>
<path d="M85.0264 63.0489C85.3125 63.0489 85.5986 63.0275 85.8847 62.9917C87.5938 62.77 89.1123 61.9117 90.1539 60.5813C93.2127 56.6833 92.4572 51.0829 88.4521 48.0932C82.7525 43.8447 74.5735 44.9033 70.2163 50.4535C70.0843 50.6252 70.1136 50.8755 70.2897 51.0043C70.4657 51.1402 70.7225 51.1044 70.8545 50.9327C74.9476 45.7258 82.6204 44.7316 87.9606 48.7227C91.6063 51.4477 92.3031 56.5474 89.5084 60.1021C88.5914 61.268 87.2637 62.019 85.7673 62.2121C84.2782 62.4052 82.7892 62.019 81.5935 61.1249C79.9357 59.8876 79.6203 57.5702 80.8893 55.9537C81.2927 55.4388 81.8796 55.1098 82.5398 55.0239C83.1999 54.9381 83.8601 55.1098 84.3883 55.5031C85.0925 56.0253 85.2245 57.0123 84.689 57.6989C84.3589 58.1209 83.7354 58.1996 83.3026 57.8777C83.1266 57.749 82.8698 57.7776 82.7378 57.9493C82.6058 58.1209 82.6351 58.3713 82.8112 58.5C83.596 59.0865 84.7257 58.9434 85.3272 58.1781C86.1341 57.1482 85.936 55.6676 84.8797 54.8809C84.1755 54.3588 83.31 54.1299 82.4371 54.2443C81.5641 54.3588 80.7866 54.795 80.2511 55.4817C78.7107 57.4414 79.0921 60.2595 81.102 61.7543C82.261 62.6055 83.6181 63.0489 85.0264 63.0489Z" fill="#DFB68D"/>
<path d="M116.554 60.3883C114.551 60.1666 112.629 59.53 110.795 58.7647C108.954 57.9994 107.194 57.0553 105.529 55.9824C103.864 54.9024 102.242 53.758 100.731 52.4777C99.2055 51.2261 97.7165 49.8743 96.1467 48.6297C94.5769 47.3852 92.9485 46.1908 91.188 45.1751C89.4275 44.1738 87.4983 43.337 85.437 43.0938C83.3758 42.8292 81.2925 43.1439 79.3707 43.7947C77.4561 44.4814 75.6663 45.4183 73.9865 46.5055C75.7617 45.5757 77.5808 44.7102 79.4954 44.1667C81.4026 43.6016 83.4125 43.3799 85.349 43.7017C87.2855 44.0164 89.1194 44.7889 90.8139 45.7974C92.5157 46.7987 94.0928 48.0003 95.6405 49.2377C98.7507 51.6767 101.678 54.4876 105.206 56.4902C106.944 57.513 108.756 58.4214 110.656 59.1223C112.549 59.7803 114.522 60.3382 116.554 60.3883Z" fill="#DFB68D"/>
<path d="M111.456 66.5464C112.813 66.5464 113.84 66.196 114.508 65.8598C117.361 64.4222 118.542 61.1678 117.853 59.0293C116.767 55.6462 113.774 54.7807 111.456 55.4101C109.432 55.9609 107.686 57.7704 108.287 60.1665C108.661 61.6757 109.63 62.7485 110.877 63.0275C111.794 63.2349 112.688 62.9702 113.209 62.348C113.737 61.7257 113.796 60.8388 113.371 59.9162L112.637 60.238C112.93 60.8889 112.916 61.4611 112.586 61.8473C112.263 62.2335 111.661 62.398 111.053 62.2621C110.598 62.162 109.505 61.74 109.072 59.9805C108.573 57.985 110.07 56.6046 111.676 56.1683C113.693 55.6247 116.151 56.3686 117.09 59.2653C117.669 61.0605 116.598 63.9287 114.141 65.166C112.094 66.196 106.358 67.3261 97.2401 55.6176C92.0247 48.9158 86.6405 45.3467 81.2417 45.0249C75.476 44.6744 71.8964 48.1791 71.7497 48.3293L72.3292 48.88C72.3658 48.8442 75.7988 45.4898 81.205 45.8116C86.3544 46.1263 91.5332 49.5881 96.6019 56.0968C103.24 64.6296 108.273 66.5464 111.456 66.5464Z" fill="#DFB68D"/>
</svg>
