<svg width="50" height="50" viewBox="0 0 50 50" fill="none" xmlns="http://www.w3.org/2000/svg">
<path fill-rule="evenodd" clip-rule="evenodd" d="M15.9575 0.275934L15.627 0.553977V2.00133C15.627 2.83266 15.6764 3.54093 15.743 3.6654C15.8956 3.95021 16.464 4.18132 16.8368 4.11001C17 4.07886 17.2573 3.90617 17.4088 3.72618C17.6789 3.40529 17.6836 3.37157 17.6493 1.9574C17.6148 0.529383 17.6116 0.513274 17.313 0.256817C16.9066 -0.0923205 16.3866 -0.0850175 15.9575 0.275934ZM37.5427 0.0929343C37.1135 0.231902 36.6292 0.504361 36.2618 0.813441C35.9182 1.10244 35.3947 2.00068 35.3947 2.30128C35.3947 2.39074 35.2617 2.49577 35.0992 2.53464C34.3213 2.72119 33.5746 3.3328 33.1606 4.12289C32.9199 4.58222 32.8741 4.80678 32.8736 5.52868C32.8731 6.54603 33.1003 7.1383 33.7692 7.86386C34.7503 8.9277 35.9933 9.2181 38.7135 9.0191C40.916 8.858 41.2072 8.7577 41.5828 8.03171C41.8144 7.58388 42.0184 4.28689 41.8728 3.34568C41.6536 1.93055 40.9102 0.83406 39.8037 0.294191C39.2818 0.0395595 38.0466 -0.070412 37.5427 0.0929343ZM6.95541 1.04767C6.63956 1.09825 6.17287 1.66518 6.17287 1.99821C6.17287 2.45313 6.43522 2.80635 7.65867 3.99832C8.75835 5.06979 8.87395 5.1528 9.2664 5.1528C10.082 5.1528 10.5844 4.38064 10.2187 3.68913C10.129 3.51956 9.55561 2.88529 8.94453 2.27958C7.85011 1.1948 7.47764 0.964115 6.95541 1.04767ZM25.7794 1.04767C25.6612 1.07097 24.9724 1.67721 24.2485 2.39493C22.9886 3.64402 22.9324 3.71866 22.9324 4.14319C22.9324 4.75652 23.3264 5.1528 23.9361 5.1528C24.352 5.1528 24.4373 5.08869 25.6941 3.8325C26.9535 2.57352 27.0149 2.49169 27.0149 2.07242C27.0149 1.8121 26.9382 1.53953 26.8269 1.40443C26.6202 1.15356 26.1148 0.981405 25.7794 1.04767ZM39.1523 2.33779C39.6729 2.71743 39.8224 3.21542 39.8134 4.53991C39.8089 5.20188 39.7749 5.9908 39.738 6.29311L39.6708 6.84276L39.0211 6.91063C38.6636 6.948 37.886 6.9785 37.2929 6.9785C35.9108 6.9785 35.4142 6.77155 35.0647 6.04997C34.8296 5.56423 34.8296 5.56359 35.0415 5.27781C35.331 4.88754 36.018 4.51231 36.447 4.51016C36.8074 4.50844 37.318 4.12579 37.3386 3.84206C37.344 3.76559 37.3575 3.46822 37.3684 3.18137C37.3853 2.7374 37.442 2.61165 37.7492 2.33736C38.0532 2.06576 38.1706 2.02485 38.4956 2.07758C38.7077 2.11205 39.0032 2.22911 39.1523 2.33779ZM12.431 6.38644C11.5953 6.62066 11.0367 6.93855 10.3952 7.545C9.33076 8.55139 8.83313 9.7774 8.83828 11.3812C8.84365 13.1054 9.59203 14.5869 11.3423 16.3391L12.2715 17.2691L11.7738 17.3934C10.9674 17.5946 9.09021 18.4264 8.10666 19.0183C5.37829 20.6604 3.11146 23.0991 1.69732 25.9138C1.04745 27.2073 0.66338 28.2813 0.304553 29.808C0.0272685 30.9876 0.00331073 31.2618 8.77406e-05 33.29C-0.00259809 35.0038 0.039838 35.7049 0.191748 36.4543C1.55894 43.1961 6.57252 48.28 13.297 49.7433C14.2356 49.9476 14.7128 49.9813 16.6476 49.9794C18.569 49.9776 19.0605 49.9424 19.9608 49.7424C21.4155 49.4191 22.7788 48.9478 23.9722 48.3556L24.9793 47.8557L25.9976 48.3612C27.2031 48.9596 28.5318 49.4194 29.9865 49.7415C31.4306 50.0614 34.9417 50.0904 36.4153 49.7947C37.8712 49.5025 39.8373 48.8139 41.0067 48.1869C45.5328 45.7598 48.6188 41.6821 49.7053 36.6931C49.9089 35.7585 49.9438 35.2703 49.9444 33.3437C49.9453 31.2461 49.9242 30.9984 49.643 29.7997C48.4006 24.5045 44.8835 20.2257 40.0112 18.0821C35.5155 16.1043 30.3046 16.2307 25.9155 18.4241L24.9772 18.893L24.0171 18.4153C23.4889 18.1526 22.5981 17.7807 22.0373 17.5889L21.0176 17.2402L22.0639 16.1545C23.6462 14.5122 24.2786 13.3189 24.4049 11.7363C24.5787 9.55929 23.486 7.59312 21.6064 6.70078C20.0003 5.93839 18.3452 6.11183 16.8087 7.20381C16.6852 7.29166 16.4982 7.2283 16.0074 6.93254C15.6553 6.72022 15.1961 6.49458 14.9868 6.43101C14.3447 6.23576 13.0488 6.21321 12.431 6.38644ZM3.81761 7.57873C3.54237 7.81016 3.48704 7.93442 3.48704 8.32093C3.48704 8.70744 3.54237 8.83169 3.81761 9.06313C4.13014 9.32603 4.21361 9.34117 5.35144 9.34117C6.68081 9.34117 6.9061 9.26062 7.13708 8.70314C7.30382 8.30084 7.21046 7.89855 6.87172 7.55993C6.62774 7.31604 6.53954 7.30068 5.38023 7.30068C4.21146 7.30068 4.1311 7.31497 3.81761 7.57873ZM26.362 7.6146C26.1295 7.847 26.048 8.03043 26.048 8.32093C26.048 8.61143 26.1295 8.79486 26.362 9.02726C26.6757 9.34085 26.6777 9.34117 28.0222 9.34117C29.4551 9.34117 29.8105 9.25482 30.0246 8.85489C30.3041 8.33295 30.1136 7.64016 29.6301 7.41989C29.4827 7.35277 28.78 7.30068 28.0222 7.30068C26.6777 7.30068 26.6757 7.30101 26.362 7.6146ZM44.6816 7.87782C43.9777 8.20548 43.3848 8.90193 43.1643 9.66002C43.0256 10.1367 43.0038 10.5646 43.0528 11.8409C43.1503 14.3743 43.3242 14.5269 46.1302 14.5409C47.8592 14.5496 47.9261 14.5415 48.4478 14.2644C48.7432 14.1075 49.115 13.8417 49.274 13.6738C49.971 12.9377 50.2048 11.6683 49.8051 10.791C49.5813 10.2997 48.8472 9.5929 48.4598 9.49571C48.3018 9.45597 48.1718 9.32603 48.132 9.16805C48.0348 8.78079 47.3278 8.04696 46.8363 7.82326C46.2227 7.54393 45.3514 7.56595 44.6816 7.87782ZM14.8073 8.68102C15.0951 8.83427 15.4535 9.1209 15.6038 9.31786C15.9562 9.77977 16.4265 10.0232 16.7935 9.93377C16.9496 9.89575 17.3432 9.60396 17.6682 9.28543C18.3637 8.60369 18.9144 8.34638 19.6645 8.35229C21.1956 8.36453 22.3187 9.62405 22.3221 11.3329C22.3249 12.7118 21.5448 13.9217 19.4968 15.715L18.3665 16.7046L16.6223 16.6999L14.8782 16.6951L14.0579 15.9983C12.8383 14.9624 11.7465 13.7567 11.3263 12.9818C10.9793 12.3418 10.9536 12.228 10.9544 11.328C10.955 10.5396 10.9987 10.2799 11.191 9.91938C11.5383 9.26836 11.9205 8.85435 12.3758 8.63624C13.2409 8.22191 13.9709 8.23533 14.8073 8.68102ZM46.1342 9.87105C46.1953 9.98532 46.2454 10.2534 46.2454 10.4667C46.2454 11.0113 46.6317 11.3817 47.1997 11.3817C47.6246 11.3817 47.9643 11.5908 47.9643 11.8524C47.9643 12.096 47.5404 12.4447 47.1566 12.5167C46.9483 12.5558 46.4223 12.5545 45.988 12.5138L45.1981 12.4398L45.1309 11.9494C44.9785 10.8382 45.0967 10.0771 45.465 9.79759C45.7227 9.60203 46.0068 9.63317 46.1342 9.87105ZM18.6682 18.9078C20.0884 19.121 22.5224 19.8563 22.848 20.1707C22.8902 20.2114 22.4452 20.6924 21.8592 21.2396L20.7936 22.2345L20.1173 22.019C14.7925 20.3234 8.76587 22.8173 6.13505 27.8051C5.16547 29.6433 4.77624 31.2305 4.77624 33.3461C4.77624 35.8228 5.40161 37.92 6.76085 40.0022C7.30264 40.8321 9.1565 42.6853 9.98674 43.2269C11.4385 44.1739 13.1582 44.8466 14.7947 45.1076C16.0957 45.3149 18.4448 45.1874 19.6979 44.8411C23.0031 43.928 25.7045 41.7221 27.2296 38.691C29.039 35.0948 28.8929 30.8353 26.8401 27.3343L26.339 26.4798L26.8112 26.0645C27.3912 25.5543 28.3146 24.9133 28.4693 24.9133C28.6411 24.9133 29.547 26.4679 30.0365 27.6031C30.5323 28.7527 30.9222 30.1553 31.1057 31.4501C31.2671 32.5879 31.1797 35.2154 30.9449 36.2879C29.8331 41.3661 26.2801 45.4459 21.5023 47.1309C17.8258 48.4273 13.8859 48.2222 10.3893 46.5522C8.81175 45.7989 7.75214 45.0627 6.47862 43.8353C1.1927 38.7407 0.520279 30.6645 4.88367 24.6766C7.1287 21.5958 10.9368 19.3691 14.8212 18.8658C15.5385 18.7728 17.9442 18.7991 18.6682 18.9078ZM36.469 19.098C41.9285 20.3698 46.1274 24.4556 47.489 29.8213C48.782 34.9163 47.218 40.2775 43.3731 43.9301C42.1593 45.0831 41.0787 45.8259 39.558 46.5527C38.1131 47.2432 36.8049 47.6325 35.2217 47.8432C33.2712 48.1027 31.6766 48.0087 29.7544 47.5212C28.6632 47.2445 26.9868 46.6241 27.0362 46.5152C27.054 46.4758 27.5279 46.0063 28.0892 45.4722L29.1098 44.5009L29.964 44.7495C31.1893 45.1063 31.9497 45.2091 33.3708 45.2099C35.7743 45.2115 37.898 44.5724 39.9606 43.2269C40.7908 42.6853 42.6447 40.8321 43.1865 40.0022C44.1338 38.5509 44.8068 36.8319 45.0678 35.196C45.2753 33.8954 45.1477 31.5471 44.8013 30.2945C43.8883 26.9923 41.6189 24.2341 38.5734 22.7255C35.2527 21.0804 31.2922 21.0951 27.9818 22.7648C25.7868 23.8718 23.7894 25.8796 22.6926 28.0814C21.8461 29.7807 21.4945 31.3184 21.4894 33.3437C21.4835 35.6514 21.9927 37.5591 23.1078 39.4073L23.5964 40.2169L22.956 40.8076C22.6037 41.1325 22.1169 41.5095 21.8742 41.6455L21.4329 41.8927L21.0341 41.2696C19.9853 39.631 19.229 37.6458 18.8999 35.6677C18.6608 34.2301 18.7315 31.6421 19.047 30.283C19.6864 27.5288 20.8461 25.3376 22.6883 23.4024C25.0202 20.9529 27.6368 19.5479 30.9899 18.9449C32.1706 18.7326 35.2722 18.8192 36.469 19.098ZM18.6592 23.8082L19.489 23.9766L19.2178 24.4181C16.5495 28.7634 15.9128 33.9246 17.4675 38.606C17.8473 39.7494 18.5546 41.276 19.0984 42.1257L19.4878 42.7343L19.0883 42.8407C17.584 43.2417 15.7165 43.2458 14.1766 42.8515C13.0022 42.5508 11.3298 41.6944 10.3876 40.9113C8.87116 39.6509 7.65029 37.7429 7.12602 35.8138C6.80329 34.6266 6.77901 32.3097 7.07692 31.1445C7.59056 29.1361 8.28028 27.9349 9.7606 26.4704C11.0199 25.2244 12.0978 24.5574 13.6692 24.0517C15.296 23.5281 16.8947 23.4502 18.6592 23.8082ZM36.1467 23.998C39.8099 25.1863 42.3258 28.0649 42.9822 31.8193C43.5729 35.1976 42.1581 38.8432 39.4088 41.0271C38.4345 41.8011 36.9457 42.5471 35.7707 42.85C34.2548 43.2408 32.2463 43.2397 30.864 42.8472L30.4694 42.7352L30.9093 42.013C31.1513 41.6159 31.5277 40.9043 31.7458 40.4317C34.1494 35.2258 33.7758 29.3829 30.7206 24.4032C30.5304 24.0932 30.4856 23.9445 30.5809 23.9399C30.6582 23.936 31.0114 23.8648 31.3659 23.7815C31.8157 23.6758 32.4974 23.6408 33.622 23.6659C35.0293 23.6972 35.3492 23.7393 36.1467 23.998ZM25.4464 29.1285C26.0555 30.3989 26.2764 31.3403 26.341 32.9409C26.399 34.3805 26.3138 35.1568 25.9784 36.2434C25.7716 36.9135 25.0726 38.4449 24.9737 38.4449C24.8747 38.4449 24.1757 36.9135 23.9689 36.2434C23.4847 34.6748 23.4509 32.2527 23.8919 30.7302C24.1513 29.8345 24.8266 28.3499 24.9745 28.3499C25.0287 28.3499 25.2411 28.7002 25.4464 29.1285Z" fill="#DFB68D"/>
</svg>
