<svg width="60" height="60" viewBox="0 0 60 60" fill="none" xmlns="http://www.w3.org/2000/svg">
<g clip-path="url(#clip0_2_6824)">
<path d="M59.1089 17.9802H53.229V15.7381C53.229 15.2459 52.83 14.8468 52.3377 14.8468H49.5259C49.0337 14.8468 48.6346 15.2458 48.6346 15.7381V17.9802H43.7926C43.3004 17.9802 42.9012 18.3793 42.9012 18.8716V24.5848C42.9012 25.077 43.3003 25.4762 43.7926 25.4762H48.6346V36.3404H41.6089V14.5451C41.6089 10.8223 38.591 7.80435 34.8681 7.80435H26.201V6.44508C27.3314 6.20754 28.1829 5.20324 28.1829 4.00335V2.26546H29.5464C30.9073 2.26546 32.0105 3.36878 32.0105 4.72957V5.11805C32.0105 5.60613 32.3866 6.03164 32.8743 6.04629C33.379 6.06153 33.793 5.65676 33.793 5.15531V4.72968C33.793 2.38429 31.8918 0.48291 29.5463 0.48291H27.2916H23.0583H20.8036C18.4582 0.48291 16.5569 2.38417 16.5569 4.72957V5.11805C16.5569 5.60613 16.933 6.03164 17.4207 6.04629C17.9254 6.06153 18.3395 5.65676 18.3395 5.15531V4.72968C18.3395 3.36878 19.4428 2.26546 20.8037 2.26546H22.1672V4.00335C22.1672 5.29699 23.1568 6.36352 24.4187 6.48645V7.80435H15.4817C11.7589 7.80435 8.74096 10.8223 8.74096 14.5451V39.5949C8.74096 41.4296 9.47866 43.0948 10.6721 44.3113L0.192915 58.0562C-0.0967735 58.4362 -0.060328 58.9875 0.303072 59.2979C0.472526 59.4426 0.678308 59.5124 0.882449 59.5124C1.15093 59.5124 1.41647 59.3914 1.59191 59.1614L12.0768 45.409C12.2805 45.5288 12.4911 45.6378 12.7078 45.736L5.22485 58.1612C4.9709 58.5828 5.10684 59.1306 5.5286 59.3845C5.67251 59.4711 5.83094 59.5124 5.98751 59.5124C6.28974 59.5124 6.58458 59.3586 6.75193 59.0808L10.009 53.6723H40.3365L43.5931 59.0808C43.7605 59.3586 44.0553 59.5124 44.3577 59.5124C44.5142 59.5124 44.6727 59.4711 44.8165 59.3845C45.2382 59.1306 45.3741 58.5828 45.1203 58.1612L37.6394 45.7373C37.8561 45.6391 38.0665 45.5302 38.2702 45.4105L48.7533 59.1611C48.9287 59.3913 49.1941 59.5122 49.4627 59.5122C49.667 59.5122 49.8732 59.4423 50.0427 59.2971C50.4056 58.9865 50.4416 58.4356 50.1521 58.0558L39.6755 44.3139C40.0365 43.9463 40.3564 43.5384 40.6262 43.0964L58.1393 59.2804C58.3108 59.4389 58.5277 59.5172 58.744 59.5172C58.9839 59.5172 59.2232 59.421 59.3989 59.2308C59.733 58.8692 59.7107 58.3053 59.3492 57.9712L41.6089 41.5777V39.595V39.2078L58.1542 53.8189C58.3237 53.9687 58.5341 54.042 58.7438 54.042C58.9905 54.042 59.2361 53.9402 59.4122 53.7406C59.7381 53.3717 59.7031 52.8084 59.3342 52.4826L43.0735 38.1229H49.526H52.3378H58.707C59.1951 38.1229 59.6206 37.7468 59.6352 37.2591C59.6505 36.7543 59.2457 36.3403 58.7442 36.3403H53.2289V25.4761H54.0584C54.5506 25.4761 54.9497 25.077 54.9497 24.5847C54.9497 24.0925 54.5507 23.6934 54.0584 23.6934H44.6838V19.7627H58.2175V23.6934H57.6238C57.1316 23.6934 56.7325 24.0924 56.7325 24.5847C56.7325 25.0769 57.1315 25.4761 57.6238 25.4761H59.1088C59.601 25.4761 60.0001 25.077 60.0001 24.5847V18.8715C60.0001 18.3794 59.6011 17.9802 59.1089 17.9802ZM23.9495 4.00335V2.26546H26.4002V4.00335C26.4002 4.39652 26.0804 4.71621 25.6874 4.71621H24.6625C24.2693 4.71621 23.9495 4.3964 23.9495 4.00335ZM37.906 49.636L39.2631 51.8899H11.0825L12.4399 49.636H37.906ZM30.2503 46.3356H34.8681C35.2097 46.3356 35.5454 46.3096 35.8734 46.2604L36.8326 47.8532H13.5133L14.4729 46.2599C14.802 46.3095 15.1388 46.3356 15.4816 46.3356H20.0994H30.2503ZM20.9907 44.5532V43.6313C20.9907 42.7177 21.7339 41.9746 22.6474 41.9746H27.7023C28.6158 41.9746 29.359 42.7178 29.359 43.6313V44.5532H20.9907ZM39.8264 39.5949C39.8264 41.9023 38.2421 43.8464 36.1042 44.397C36.1029 44.3973 36.1015 44.3976 36.1 44.3979C35.7059 44.4991 35.2932 44.553 34.868 44.553H31.1416V43.631C31.1416 41.7346 29.5987 40.1917 27.7022 40.1917H22.6473C20.7508 40.1917 19.208 41.7346 19.208 43.631V44.553H15.4814C12.7474 44.553 10.5232 42.3287 10.5232 39.5947V14.5451C10.5232 11.8111 12.7474 9.58689 15.4814 9.58689H34.868C37.602 9.58689 39.8262 11.8111 39.8262 14.5451V39.5949H39.8264ZM50.4172 25.4762H51.4465V36.3404H50.4172V25.4762ZM51.4465 17.9804H50.4172V16.6295H51.4465V17.9804Z" fill="white"/>
<path d="M37.4211 14.8947H29.1904C28.7819 13.0537 27.1373 11.6724 25.175 11.6724C23.2127 11.6724 21.568 13.0537 21.1595 14.8947H12.9294C12.4372 14.8947 12.0381 15.2937 12.0381 15.786V20.1088C12.0381 20.601 12.4371 21.0002 12.9294 21.0002C13.4216 21.0002 13.8207 20.6011 13.8207 20.1088V16.6772H21.1594C21.5677 18.5185 23.2125 19.9 25.1749 19.9C27.1372 19.9 28.782 18.5185 29.1903 16.6772H36.5296V30.3635H13.8207V24.2683C13.8207 23.7761 13.4217 23.377 12.9294 23.377C12.4372 23.377 12.0381 23.776 12.0381 24.2683V31.2548C12.0383 31.7471 12.4373 32.1463 12.9297 32.1463H37.4211C37.9133 32.1463 38.3124 31.7472 38.3124 31.2549V15.7859C38.3124 15.2937 37.9133 14.8947 37.4211 14.8947ZM25.1751 18.1176C23.8897 18.1176 22.8439 17.0718 22.8439 15.7864C22.8439 14.5009 23.8897 13.4551 25.1751 13.4551C26.4605 13.4551 27.5063 14.5009 27.5063 15.7864C27.5063 17.0718 26.4605 18.1176 25.1751 18.1176Z" fill="white"/>
<path d="M19.238 33.3715H12.9294C12.4372 33.3715 12.0381 33.7705 12.0381 34.2628V37.4848C12.0381 37.9769 12.4371 38.3761 12.9294 38.3761H19.238C19.7302 38.3761 20.1293 37.9771 20.1293 37.4848V34.2628C20.1292 33.7705 19.7302 33.3715 19.238 33.3715ZM18.3467 36.5934H13.8207V35.154H18.3467V36.5934Z" fill="white"/>
<path d="M37.4206 33.3715H31.112C30.6198 33.3715 30.2207 33.7705 30.2207 34.2628V37.4848C30.2207 37.9769 30.6197 38.3761 31.112 38.3761H37.4206C37.9128 38.3761 38.3119 37.9771 38.3119 37.4848V34.2628C38.3119 33.7705 37.9128 33.3715 37.4206 33.3715ZM36.5293 36.5934H32.0034V35.154H36.5293V36.5934Z" fill="white"/>
</g>
<defs>
<clipPath id="clip0_2_6824">
<rect width="60" height="60" fill="white"/>
</clipPath>
</defs>
</svg>
