<svg width="50" height="50" viewBox="0 0 50 50" fill="none" xmlns="http://www.w3.org/2000/svg">
<path fill-rule="evenodd" clip-rule="evenodd" d="M11.6499 0.0590607C11.5364 0.0821659 11.3166 0.238532 11.1614 0.406551L10.8792 0.711986L10.8528 12.0046L10.8263 23.2972H5.76093C0.872627 23.2972 0.68699 23.3042 0.451329 23.4965C0.316987 23.606 0.155971 23.8238 0.0934409 23.9804C0.00902504 24.1919 -0.0132514 26.868 0.00697327 34.3964L0.0341349 44.5277L0.262566 45.2371C0.948934 47.368 2.51268 49.0165 4.5157 49.7207L5.31013 50H24.9974H44.6847L45.4791 49.7207C47.4821 49.0165 49.0459 47.368 49.7322 45.2371L49.9607 44.5277L49.9864 22.7652C50.0149 -1.34478 50.0625 0.433001 49.3811 0.1377C49.0843 0.00899939 46.5699 -0.00883623 30.4475 0.00312174C20.2223 0.0107221 11.7634 0.0358541 11.6499 0.0590607ZM47.86 22.8781C47.86 36.5064 47.8261 43.723 47.7603 44.0827C47.4217 45.9346 45.9622 47.4205 44.1851 47.7223C43.5583 47.8288 11.4166 47.8655 11.4166 47.7598C11.4166 47.7261 11.5403 47.5322 11.6915 47.3291C12.0952 46.787 12.347 46.3015 12.6558 45.4708L12.931 44.7304L12.9566 23.4746L12.9821 2.21879H30.4211H47.86V22.8781ZM25.1928 5.70961C25.0585 5.78591 23.7867 7.17152 22.3665 8.78889L19.7845 11.7296L18.9143 10.7759C17.9031 9.6678 17.5397 9.4786 16.9651 9.76143C16.5603 9.96066 16.3575 10.3083 16.3705 10.7808C16.3824 11.2201 16.4326 11.2902 17.8626 12.8649C19.3705 14.5253 19.6254 14.6771 20.2789 14.3034C20.6525 14.0899 26.4151 7.57231 26.6305 7.11963C27.0757 6.18438 26.079 5.20697 25.1928 5.70961ZM28.6444 10.7004C28.0215 10.8262 27.7138 11.6693 28.0474 12.3359C28.3151 12.8708 28.143 12.8594 35.8962 12.8594H43.0921L43.4243 12.5148C43.8006 12.1246 43.8554 11.7302 43.6035 11.225C43.3002 10.6168 43.4577 10.6286 35.8212 10.6437C31.9907 10.6513 28.7611 10.6768 28.6444 10.7004ZM25.2205 18.4539C25.1014 18.5134 23.8289 19.9009 22.3926 21.5369L19.7813 24.5116L18.9488 23.5862C18.4908 23.0771 17.9745 22.5993 17.8013 22.5242C17.1252 22.2313 16.3728 22.7362 16.3728 23.483C16.3728 23.9882 16.4313 24.0713 17.9677 25.75C19.3891 27.303 19.6168 27.4357 20.2525 27.0831C20.6448 26.8654 26.4083 20.366 26.6326 19.8883C27.0591 18.9798 26.1052 18.0108 25.2205 18.4539ZM28.4549 23.0521C27.6955 23.4407 27.7048 24.5879 28.4704 24.9648C28.7481 25.1015 29.6824 25.1213 35.8377 25.1213C43.5731 25.1213 43.296 25.1429 43.6083 24.5167C43.9058 23.9199 43.7351 23.3468 43.1692 23.0433C42.7383 22.8122 28.9076 22.8204 28.4549 23.0521ZM10.8304 34.7835C10.8304 43.4534 10.8191 44.0755 10.653 44.5977C9.80117 47.2761 7.06166 48.5115 4.61155 47.3223C3.42806 46.7478 2.48737 45.4659 2.23452 44.0827C2.1713 43.7375 2.13476 40.2336 2.13476 34.5321V25.5267H6.48257H10.8304V34.7835ZM25.223 31.2213C25.1053 31.2804 23.8327 32.6696 22.3951 34.3085L19.7811 37.2884L18.9196 36.3299C17.9429 35.2436 17.6028 35.0519 17.0674 35.2869C16.5837 35.4991 16.3728 35.7959 16.3728 36.2641C16.3728 36.7623 16.4916 36.9287 18.0545 38.6213C19.3292 40.0017 19.612 40.1737 20.1952 39.9232C20.438 39.8188 25.4279 34.2723 26.3886 33.0388C26.9177 32.3596 26.8628 31.6938 26.2456 31.3034C25.8959 31.0823 25.555 31.0549 25.223 31.2213ZM28.3497 35.3517C27.5783 35.8395 27.8243 37.1337 28.7237 37.3203C28.8909 37.355 32.1232 37.3833 35.9067 37.3833C43.4452 37.3833 43.3012 37.3945 43.6035 36.7883C43.8554 36.283 43.8006 35.8887 43.4243 35.4984L43.0921 35.1539L35.8767 35.1543C28.9025 35.1546 28.6508 35.1612 28.3497 35.3517Z" fill="#DFB68D"/>
</svg>
