<svg width="50" height="50" viewBox="0 0 50 50" fill="none" xmlns="http://www.w3.org/2000/svg">
<g clip-path="url(#clip0_156_1134)">
<path d="M35.9375 16.4062H46.875C48.1672 16.4062 49.2188 15.3547 49.2188 14.0625V3.125C49.2188 1.83281 48.1672 0.78125 46.875 0.78125H35.9375C34.6453 0.78125 33.5938 1.83281 33.5938 3.125V12.5H27.582L27.2695 9.375H22.7305L22.418 12.5H14.8438V14.4648L19.4 17.7188C18.3 18.7938 17.543 20.2109 17.2891 21.7961L2.91094 20.4367C2.37109 20.3813 1.82266 20.5664 1.41797 20.9344C1.01328 21.3023 0.78125 21.8266 0.78125 22.3742C0.78125 24.3148 2.17344 25.9391 4.09219 26.2344L15.6664 28.0203C16.0008 30.7172 18.307 32.8125 21.0938 32.8125H28.9062C31.693 32.8125 33.9992 30.7172 34.3336 28.0203L45.9078 26.2344C47.8266 25.9383 49.2188 24.3148 49.2188 22.3742C49.2188 21.8273 48.9867 21.3023 48.582 20.9344C48.1773 20.5664 47.6375 20.382 47.0891 20.4367L32.7109 21.7961C32.457 20.2109 31.6992 18.7938 30.6 17.7188L33.9641 15.3164C34.3805 15.9695 35.107 16.4062 35.9375 16.4062ZM39.8438 2.34375H42.9688V5.46875H39.8438V2.34375ZM35.1562 3.125C35.1562 2.69375 35.507 2.34375 35.9375 2.34375H38.2812V7.03125H44.5312V2.34375H46.875C47.3055 2.34375 47.6562 2.69375 47.6562 3.125V14.0625C47.6562 14.4937 47.3055 14.8438 46.875 14.8438H35.9375C35.507 14.8438 35.1562 14.4937 35.1562 14.0625V3.125ZM25.8555 10.9375L26.3297 15.6781C26.0508 15.6461 25.768 15.625 25.4805 15.625H24.5203C24.2328 15.625 23.95 15.6461 23.6711 15.6781L24.1445 10.9375H25.8555ZM16.9695 14.0625H22.2617L22.0625 16.0578C21.5781 16.2305 21.1187 16.4523 20.6875 16.718L16.9695 14.0625ZM17.1875 27.3438V26.6742L4.32969 24.6906C3.17891 24.5125 2.34375 23.5391 2.34375 22.3742C2.34375 22.2266 2.42266 22.1328 2.46953 22.0906C2.51641 22.0484 2.61719 21.9828 2.76328 21.9922L17.2063 23.357C17.2492 24.1539 17.4133 24.9344 17.7117 25.6797L18.918 28.6938C19.3172 29.6922 19.9445 30.5414 20.7172 31.2117C18.7422 31.0195 17.1875 29.3688 17.1875 27.3438ZM47.2367 21.9914C47.3852 21.9805 47.4836 22.0469 47.5305 22.0898C47.5773 22.1328 47.6562 22.2258 47.6562 22.3742C47.6562 23.5391 46.8211 24.5125 45.6703 24.6906L32.8125 26.6742V27.3438C32.8125 29.3688 31.2578 31.0195 29.2828 31.2117C30.0555 30.5414 30.6828 29.693 31.082 28.6938L32.2883 25.6797C32.5867 24.9344 32.75 24.1539 32.7938 23.357L47.2367 21.9914ZM31.25 22.957C31.25 23.6938 31.1109 24.4148 30.8375 25.1L29.632 28.1141C28.8695 30.0195 27.0516 31.25 25 31.25C22.9484 31.25 21.1305 30.0195 20.368 28.1141L19.1625 25.1C18.8891 24.4148 18.75 23.6938 18.75 22.957C18.75 19.7758 21.3383 17.1875 24.5195 17.1875H25.4797C28.6617 17.1875 31.25 19.7758 31.25 22.957ZM27.9375 16.0578L27.7383 14.0625H33.0312L29.3125 16.718C28.8813 16.4523 28.4219 16.2305 27.9375 16.0578Z" fill="white"/>
<path d="M44.5312 11.7188H46.0938V13.2812H44.5312V11.7188Z" fill="white"/>
<path d="M41.4062 11.7188H42.9688V13.2812H41.4062V11.7188Z" fill="white"/>
<path d="M21.2133 20.3125L20.1719 26.5625H29.8289L28.7875 20.3125H21.2133ZM22.5367 21.875H24.2188V25H22.0164L22.5367 21.875ZM25.7813 25V21.875H27.4633L27.9844 25H25.7813Z" fill="white"/>
<path d="M10.1562 30.4688C4.98672 30.4688 0.78125 34.6742 0.78125 39.8438C0.78125 45.0133 4.98672 49.2188 10.1562 49.2188C15.3258 49.2188 19.5312 45.0133 19.5312 39.8438C19.5312 34.6742 15.3258 30.4688 10.1562 30.4688ZM10.1562 47.6562C9.39922 47.6562 8.59844 46.7727 7.99609 45.3125H12.3172C11.7141 46.7727 10.9133 47.6562 10.1562 47.6562ZM7.48906 43.75C7.25781 42.8227 7.09922 41.7695 7.04922 40.625H13.2633C13.2133 41.7695 13.0547 42.8227 12.8234 43.75H7.48906ZM2.38359 40.625H5.4875C5.52969 41.743 5.66094 42.7922 5.86953 43.75H3.40078C2.85625 42.8125 2.49609 41.7555 2.38359 40.625ZM10.1562 32.0312C10.9133 32.0312 11.7141 32.9148 12.3164 34.375H7.99531C8.59844 32.9148 9.39922 32.0312 10.1562 32.0312ZM12.8234 35.9375C13.0547 36.8648 13.2133 37.918 13.2633 39.0625H7.04922C7.09922 37.918 7.25781 36.8648 7.48906 35.9375H12.8234ZM5.4875 39.0625H2.38359C2.49609 37.932 2.85703 36.875 3.40078 35.9375H5.86875C5.66094 36.8953 5.52969 37.9445 5.4875 39.0625ZM14.825 40.625H17.9289C17.8164 41.7555 17.4555 42.8125 16.9117 43.75H14.4438C14.6516 42.7922 14.7828 41.743 14.825 40.625ZM14.825 39.0625C14.7828 37.9445 14.6516 36.8953 14.443 35.9375H16.9109C17.4555 36.875 17.8156 37.932 17.9281 39.0625H14.825ZM15.7258 34.375H14.0078C13.7867 33.7383 13.5266 33.1641 13.232 32.6648C14.1734 33.0695 15.018 33.6547 15.7258 34.375ZM7.07969 32.6648C6.78516 33.1641 6.52578 33.7383 6.30391 34.375H4.58672C5.29453 33.6547 6.13906 33.0695 7.07969 32.6648ZM4.58672 45.3125H6.30469C6.52578 45.9492 6.78594 46.5234 7.08047 47.0227C6.13906 46.618 5.29453 46.0328 4.58672 45.3125ZM13.2328 47.0227C13.5273 46.5227 13.7867 45.9492 14.0086 45.3125H15.7266C15.018 46.0328 14.1734 46.618 13.2328 47.0227Z" fill="white"/>
<path d="M21.0938 6.40068V9.85771L29.8719 5.46865L21.0938 1.07959V4.81475C15.0945 5.90303 10.1836 9.01631 7.22266 13.6413L8.53906 14.4835C11.2164 10.3007 15.6531 7.45615 21.0938 6.40068ZM22.6563 3.60771L26.3781 5.46865L22.6563 7.32959V3.60771Z" fill="white"/>
<path d="M7.66797 15.986L6.28281 15.2642C6.00703 15.7931 5.75156 16.3392 5.52344 16.8868L6.96563 17.4884C7.17734 16.9806 7.41328 16.4759 7.66797 15.986Z" fill="white"/>
<path d="M6.41055 18.9907L4.92383 18.5103C4.75273 19.0392 4.60039 19.5853 4.4707 20.1337L5.99102 20.4923C6.11133 19.9845 6.25195 19.4798 6.41055 18.9907Z" fill="white"/>
<path d="M28.9061 43.5992V40.1421L20.1279 44.5312L28.9061 48.9203V45.1851C34.9053 44.0968 39.8162 40.9835 42.7771 36.3585L41.4607 35.5164C38.7834 39.6992 34.3467 42.5437 28.9061 43.5992ZM27.3436 46.3921L23.6217 44.5312L27.3436 42.6703V46.3921Z" fill="white"/>
<path d="M42.332 34.0141L43.7172 34.7359C43.993 34.207 44.2484 33.6609 44.4766 33.1133L43.0344 32.5117C42.8227 33.0195 42.5867 33.5242 42.332 34.0141Z" fill="white"/>
<path d="M43.5889 31.0094L45.0756 31.4898C45.2467 30.9609 45.399 30.4148 45.5287 29.8664L44.0084 29.5078C43.8881 30.0156 43.7475 30.5203 43.5889 31.0094Z" fill="white"/>
</g>
<defs>
<clipPath id="clip0_156_1134">
<rect width="50" height="50" fill="white"/>
</clipPath>
</defs>
</svg>
