<svg width="60" height="60" viewBox="0 0 60 60" fill="none" xmlns="http://www.w3.org/2000/svg">
<path d="M17.7251 12.1875C16.1745 12.1875 14.9126 10.9256 14.9126 9.375C14.9126 8.85656 15.3317 8.4375 15.8501 8.4375C16.3685 8.4375 16.7876 8.85656 16.7876 9.375C16.7876 9.8925 17.2076 10.3125 17.7251 10.3125C18.2435 10.3125 18.6626 10.7316 18.6626 11.25C18.6626 11.7684 18.2435 12.1875 17.7251 12.1875Z" fill="white"/>
<path d="M15.8501 10.3125C15.3317 10.3125 14.9126 9.89344 14.9126 9.375V7.5C14.9126 6.98156 15.3317 6.5625 15.8501 6.5625C16.3685 6.5625 16.7876 6.98156 16.7876 7.5V9.375C16.7876 9.89344 16.3685 10.3125 15.8501 10.3125Z" fill="white"/>
<path d="M42.2745 12.1875H17.7251C17.2067 12.1875 16.7876 11.7684 16.7876 11.25C16.7876 10.7316 17.2067 10.3125 17.7251 10.3125H42.2745C42.7929 10.3125 43.212 10.7316 43.212 11.25C43.212 11.7684 42.7929 12.1875 42.2745 12.1875Z" fill="white"/>
<path d="M15.8501 8.4375C15.3317 8.4375 14.9126 8.01844 14.9126 7.5C14.9126 5.94937 16.1745 4.6875 17.7251 4.6875C18.2435 4.6875 18.6626 5.10656 18.6626 5.625C18.6626 6.14344 18.2435 6.5625 17.7251 6.5625C17.2076 6.5625 16.7876 6.9825 16.7876 7.5C16.7876 8.01844 16.3685 8.4375 15.8501 8.4375Z" fill="white"/>
<path d="M42.2745 6.5625H17.7251C17.2067 6.5625 16.7876 6.14344 16.7876 5.625C16.7876 5.10656 17.2067 4.6875 17.7251 4.6875H42.2745C42.7929 4.6875 43.212 5.10656 43.212 5.625C43.212 6.14344 42.7929 6.5625 42.2745 6.5625Z" fill="white"/>
<path d="M44.1499 8.4375C43.6315 8.4375 43.2124 8.01844 43.2124 7.5C43.2124 6.9825 42.7924 6.5625 42.2749 6.5625C41.7565 6.5625 41.3374 6.14344 41.3374 5.625C41.3374 5.10656 41.7565 4.6875 42.2749 4.6875C43.8255 4.6875 45.0874 5.94937 45.0874 7.5C45.0874 8.01844 44.6683 8.4375 44.1499 8.4375Z" fill="white"/>
<path d="M44.1499 10.3125C43.6315 10.3125 43.2124 9.89344 43.2124 9.375V7.5C43.2124 6.98156 43.6315 6.5625 44.1499 6.5625C44.6683 6.5625 45.0874 6.98156 45.0874 7.5V9.375C45.0874 9.89344 44.6683 10.3125 44.1499 10.3125Z" fill="white"/>
<path d="M42.2749 12.1875C41.7565 12.1875 41.3374 11.7684 41.3374 11.25C41.3374 10.7316 41.7565 10.3125 42.2749 10.3125C42.7924 10.3125 43.2124 9.8925 43.2124 9.375C43.2124 8.85656 43.6315 8.4375 44.1499 8.4375C44.6683 8.4375 45.0874 8.85656 45.0874 9.375C45.0874 10.9256 43.8255 12.1875 42.2749 12.1875Z" fill="white"/>
<path d="M47.8999 20.0531C47.3815 20.0531 46.9624 19.634 46.9624 19.1156C46.9624 18.5981 46.5424 18.1781 46.0249 18.1781C45.5065 18.1781 45.0874 17.759 45.0874 17.2406C45.0874 16.7222 45.5065 16.3031 46.0249 16.3031C47.5755 16.3031 48.8374 17.565 48.8374 19.1156C48.8374 19.6331 48.4183 20.0531 47.8999 20.0531Z" fill="white"/>
<path d="M46.0245 18.1781H13.9751C13.4567 18.1781 13.0376 17.759 13.0376 17.2406C13.0376 16.7222 13.4567 16.3031 13.9751 16.3031H46.0245C46.5429 16.3031 46.962 16.7222 46.962 17.2406C46.962 17.759 46.5429 18.1781 46.0245 18.1781Z" fill="white"/>
<path d="M47.8999 21.9281C47.3815 21.9281 46.9624 21.509 46.9624 20.9906V19.1156C46.9624 18.5972 47.3815 18.1781 47.8999 18.1781C48.4183 18.1781 48.8374 18.5972 48.8374 19.1156V20.9906C48.8374 21.5081 48.4183 21.9281 47.8999 21.9281Z" fill="white"/>
<path d="M46.0249 23.8031C45.5065 23.8031 45.0874 23.384 45.0874 22.8656C45.0874 22.3472 45.5065 21.9281 46.0249 21.9281C46.5424 21.9281 46.9624 21.5081 46.9624 20.9906C46.9624 20.4722 47.3815 20.0531 47.8999 20.0531C48.4183 20.0531 48.8374 20.4722 48.8374 20.9906C48.8374 22.5412 47.5755 23.8031 46.0249 23.8031Z" fill="white"/>
<path d="M46.0245 23.8031H13.9751C13.4567 23.8031 13.0376 23.384 13.0376 22.8656C13.0376 22.3472 13.4567 21.9281 13.9751 21.9281H46.0245C46.5429 21.9281 46.962 22.3472 46.962 22.8656C46.962 23.384 46.5429 23.8031 46.0245 23.8031Z" fill="white"/>
<path d="M13.9751 23.8031C12.4245 23.8031 11.1626 22.5412 11.1626 20.9906C11.1626 20.4722 11.5817 20.0531 12.1001 20.0531C12.6185 20.0531 13.0376 20.4722 13.0376 20.9906C13.0376 21.5081 13.4576 21.9281 13.9751 21.9281C14.4935 21.9281 14.9126 22.3472 14.9126 22.8656C14.9126 23.384 14.4935 23.8031 13.9751 23.8031Z" fill="white"/>
<path d="M12.1001 21.9281C11.5817 21.9281 11.1626 21.509 11.1626 20.9906V19.1156C11.1626 18.5972 11.5817 18.1781 12.1001 18.1781C12.6185 18.1781 13.0376 18.5972 13.0376 19.1156V20.9906C13.0376 21.5081 12.6185 21.9281 12.1001 21.9281Z" fill="white"/>
<path d="M12.1001 20.0531C11.5817 20.0531 11.1626 19.634 11.1626 19.1156C11.1626 17.565 12.4245 16.3031 13.9751 16.3031C14.4935 16.3031 14.9126 16.7222 14.9126 17.2406C14.9126 17.759 14.4935 18.1781 13.9751 18.1781C13.4576 18.1781 13.0376 18.5981 13.0376 19.1156C13.0376 19.6331 12.6185 20.0531 12.1001 20.0531Z" fill="white"/>
<path d="M30 43.3396C29.4816 43.3396 29.0625 42.9206 29.0625 42.4021V24.3796C29.0625 23.8612 29.4816 23.4421 30 23.4421C30.5184 23.4421 30.9375 23.8612 30.9375 24.3796V42.4021C30.9375 42.9196 30.5184 43.3396 30 43.3396Z" fill="white"/>
<path d="M46.561 47.0953C46.4635 47.0953 46.3651 47.0803 46.2676 47.0475C45.7763 46.8853 45.5082 46.3556 45.6713 45.8634L49.8488 33.1987C50.011 32.7084 50.536 32.4347 51.0329 32.6025C51.5241 32.7647 51.7923 33.2944 51.6291 33.7865L47.4516 46.4512C47.3213 46.8459 46.9548 47.0953 46.561 47.0953Z" fill="white"/>
<path d="M13.4393 47.0953C13.0455 47.0953 12.679 46.845 12.5496 46.4512L8.3721 33.7875C8.20897 33.2962 8.47616 32.7656 8.96835 32.6034C9.46335 32.4347 9.99023 32.7084 10.1524 33.1997L14.3299 45.8644C14.493 46.3556 14.2258 46.8862 13.7337 47.0484C13.6352 47.0812 13.5358 47.0953 13.4393 47.0953Z" fill="white"/>
<path d="M38.4366 49.6876C37.5309 49.6876 36.6225 49.5422 35.7487 49.2479C35.0297 49.006 34.4297 48.6469 33.8494 48.2991C33.4903 48.0844 33.1509 47.881 32.7975 47.7141C31.9678 47.3232 31.0434 47.1076 30.1247 47.0897C29.2284 47.0701 28.2778 47.2529 27.435 47.611C27.0281 47.7835 26.6362 48.0207 26.2228 48.271C25.7081 48.5813 25.1766 48.9038 24.5587 49.1382C22.3116 49.9913 19.8019 49.8451 17.6709 48.736C17.3512 48.5701 17.0456 48.391 16.7437 48.2119C16.1531 47.8651 15.5962 47.5369 14.9766 47.3541C14.1019 47.0982 13.1597 47.0241 12.2541 47.146C11.2275 47.2829 10.3078 47.7676 9.33468 48.2804C8.24624 48.8541 7.1203 49.4466 5.74311 49.621C5.22749 49.6782 4.76061 49.3219 4.69593 48.8082C4.63124 48.2944 4.99499 47.8257 5.50874 47.761C6.54749 47.6297 7.47749 47.1404 8.45999 46.6219C9.53624 46.0557 10.6491 45.4697 12.0056 45.2879C13.1737 45.1332 14.3812 45.2241 15.5053 45.556C16.3472 45.8035 17.0316 46.2066 17.6944 46.5957C17.9691 46.7579 18.2456 46.921 18.5362 47.0729C20.1684 47.9204 22.1691 48.0385 23.8922 47.3851C24.3506 47.2097 24.7884 46.9454 25.2516 46.6651C25.7034 46.3913 26.1712 46.1082 26.7019 45.8832C27.7847 45.4247 28.979 45.1941 30.1594 45.2138C31.3406 45.2363 32.5275 45.5138 33.5953 46.0172C34.0331 46.2235 34.4287 46.4607 34.8112 46.6894C35.3297 46.9997 35.8181 47.2922 36.345 47.4685C38.0906 48.0563 40.0884 47.8622 41.6878 46.9491C43.5647 45.8766 45.6206 44.8669 48.3112 45.3357C49.5553 45.5504 50.5875 46.0988 51.584 46.6294C52.5516 47.1441 53.4647 47.6297 54.4912 47.7591C55.005 47.8238 55.3697 48.2926 55.3041 48.8063C55.2403 49.3201 54.7706 49.6763 54.2569 49.6191C52.8891 49.4457 51.7781 48.856 50.7047 48.2841C49.7972 47.8013 48.9403 47.3466 47.9925 47.1826C46.1128 46.8572 44.5959 47.4469 42.6178 48.5757C41.3325 49.3135 39.8887 49.6876 38.4366 49.6876Z" fill="white"/>
<path d="M19.6001 14.4281C19.0817 14.4281 18.6626 14.0091 18.6626 13.4906V11.25C18.6626 10.7316 19.0817 10.3125 19.6001 10.3125C20.1185 10.3125 20.5376 10.7316 20.5376 11.25V13.4906C20.5376 14.0081 20.1185 14.4281 19.6001 14.4281Z" fill="white"/>
<path d="M40.3999 18.1781C39.8815 18.1781 39.4624 17.7591 39.4624 17.2406V11.25C39.4624 10.7316 39.8815 10.3125 40.3999 10.3125C40.9183 10.3125 41.3374 10.7316 41.3374 11.25V17.2406C41.3374 17.7581 40.9183 18.1781 40.3999 18.1781Z" fill="white"/>
<path d="M38.4366 55.3125C37.5309 55.3125 36.6225 55.1671 35.7487 54.8728C35.0297 54.6309 34.4297 54.2718 33.8494 53.924C33.4903 53.7093 33.1509 53.5059 32.7975 53.339C31.9678 52.9481 31.0434 52.7325 30.1247 52.7146C29.2284 52.6978 28.2778 52.8787 27.435 53.2359C27.0281 53.4084 26.6362 53.6456 26.2228 53.8959C25.7081 54.2062 25.1766 54.5287 24.5587 54.7631C22.3116 55.6171 19.8019 55.47 17.6709 54.3609C17.3512 54.195 17.0456 54.0159 16.7437 53.8368C16.1531 53.49 15.5962 53.1618 14.9766 52.979C14.1019 52.7231 13.1597 52.649 12.2541 52.7709C11.2275 52.9078 10.3078 53.3925 9.33468 53.9053C8.24624 54.479 7.1203 55.0715 5.74311 55.2459C5.22749 55.305 4.76061 54.9468 4.69593 54.4331C4.63124 53.9193 4.99499 53.4506 5.50874 53.3859C6.54749 53.2546 7.47749 52.7653 8.45999 52.2468C9.53624 51.6806 10.6491 51.0946 12.0056 50.9128C13.1737 50.759 14.3812 50.849 15.5053 51.1809C16.3472 51.4284 17.0316 51.8315 17.6944 52.2206C17.9691 52.3828 18.2456 52.5459 18.5362 52.6978C20.1684 53.5453 22.1691 53.6634 23.8922 53.01C24.3506 52.8346 24.7884 52.5703 25.2516 52.29C25.7034 52.0162 26.1712 51.7331 26.7019 51.5081C27.7847 51.0496 28.979 50.82 30.1594 50.8387C31.3406 50.8612 32.5275 51.1387 33.5953 51.6421C34.0331 51.8484 34.4287 52.0856 34.8112 52.3143C35.3297 52.6246 35.8181 52.9171 36.345 53.0934C38.0906 53.6812 40.0884 53.4862 41.6878 52.574C43.5647 51.5015 45.6206 50.4909 48.3112 50.9606C49.5553 51.1753 50.5875 51.7237 51.584 52.2543C52.5516 52.769 53.4647 53.2546 54.4912 53.384C55.005 53.4487 55.3697 53.9175 55.3041 54.4312C55.2403 54.945 54.7706 55.304 54.2569 55.244C52.8891 55.0706 51.7781 54.4809 50.7047 53.909C49.7972 53.4262 48.9403 52.9715 47.9925 52.8075C46.1128 52.4821 44.5959 53.0718 42.6178 54.2006C41.3325 54.9384 39.8887 55.3125 38.4366 55.3125Z" fill="white"/>
<path d="M50.7393 34.4316C50.6539 34.4316 50.5686 34.4203 50.4843 34.3969C43.093 32.3109 36.0364 29.2097 29.5077 25.1775C29.0671 24.9056 28.9311 24.3281 29.203 23.8875C29.4739 23.4459 30.0533 23.3119 30.493 23.5828C36.8736 27.5231 43.7708 30.555 50.9933 32.5913C51.4911 32.7319 51.7818 33.2503 51.6411 33.7481C51.5239 34.1606 51.148 34.4316 50.7393 34.4316Z" fill="white"/>
<path d="M9.26071 34.4316C8.85196 34.4316 8.47602 34.1616 8.35883 33.7481C8.21914 33.2503 8.50883 32.7319 9.00664 32.5913C16.2291 30.5541 23.1273 27.5231 29.507 23.5828C29.9476 23.3119 30.526 23.4459 30.797 23.8875C31.0688 24.3281 30.9329 24.9056 30.4923 25.1775C23.9635 29.2097 16.907 32.3109 9.51571 34.3969C9.43133 34.4203 9.34508 34.4316 9.26071 34.4316Z" fill="white"/>
<path d="M15.8501 32.265C15.3317 32.265 14.9126 31.8459 14.9126 31.3275V22.8656C14.9126 22.3472 15.3317 21.9281 15.8501 21.9281C16.3685 21.9281 16.7876 22.3472 16.7876 22.8656V31.3275C16.7876 31.8459 16.3685 32.265 15.8501 32.265Z" fill="white"/>
<path d="M44.1499 32.265C43.6315 32.265 43.2124 31.8459 43.2124 31.3275V22.8656C43.2124 22.3472 43.6315 21.9281 44.1499 21.9281C44.6683 21.9281 45.0874 22.3472 45.0874 22.8656V31.3275C45.0874 31.8459 44.6683 32.265 44.1499 32.265Z" fill="white"/>
</svg>
