<svg width="42" height="50" viewBox="0 0 42 50" fill="none" xmlns="http://www.w3.org/2000/svg">
<path fill-rule="evenodd" clip-rule="evenodd" d="M13.062 0.147016C10.221 0.660572 7.68917 2.57864 6.36836 5.21772C5.66064 6.6319 5.37719 7.93718 5.37387 9.7985C5.37212 10.7468 5.34389 10.9204 5.11592 11.3863C4.6472 12.3445 4.68158 14.5263 5.18009 15.4564C5.35112 15.7755 5.37202 16.013 5.3727 17.646C5.37319 18.6535 5.41656 19.853 5.4691 20.3116C5.73965 22.6729 6.68111 24.8404 8.22197 26.6498C8.5981 27.0915 8.89082 27.4662 8.87256 27.4825C8.85419 27.4988 7.52069 27.9629 5.90911 28.5138C4.29754 29.0646 2.76048 29.625 2.49335 29.759C1.86298 30.0753 0.876111 31.0666 0.54901 31.7121C0.0684674 32.6605 0 33.1478 0 35.6204C0 37.0416 0.0390686 37.9746 0.103629 38.0952C0.332473 38.5228 1.12781 38.5257 1.33409 38.0995C1.37726 38.0105 1.43538 36.8388 1.46321 35.4958C1.51185 33.1525 1.52357 33.0343 1.75388 32.5657C2.03762 31.9883 2.73831 31.26 3.23546 31.0257C3.67273 30.8196 11.6288 28.0887 11.6537 28.1362C11.6636 28.155 11.8423 28.5138 12.0507 28.9334C12.468 29.7738 13.1456 30.5777 13.7539 30.9541C14.0549 31.1404 14.1727 31.291 14.2508 31.589C14.6837 33.2421 16.6466 33.8565 17.896 32.7301C18.2975 32.3681 18.6459 31.7561 18.6568 31.3936C18.6605 31.2708 18.8616 31.0602 19.1984 30.8262C19.8432 30.3785 20.4115 29.6816 20.8629 28.7854C21.0467 28.4203 21.2153 28.1216 21.2375 28.1216C21.378 28.1216 25.2661 29.515 25.7048 29.7226C27.0204 30.3448 28.5233 31.5972 29.3572 32.7657C29.5893 33.091 30.7046 34.932 31.8356 36.8567L33.8919 40.356V41.2077C33.8919 42.1839 33.9965 42.5761 34.3924 43.084C34.6488 43.413 34.6733 43.5133 34.6733 44.2316C34.6733 45.1529 34.8313 45.4094 35.3987 45.4094C35.8692 45.4094 36.1384 45.0492 36.1384 44.4195V43.9444H37.3104H38.4825V45.1963C38.4825 46.7281 38.3447 47.2697 37.8261 47.7749C37.3457 48.2431 36.8151 48.4568 36.1334 48.4568C35.501 48.4568 34.9235 48.2074 34.5635 47.779C34.4359 47.6271 32.7272 45.0238 30.7665 41.994C28.4748 38.4527 26.9943 36.262 26.6213 35.8605C25.8766 35.0588 24.537 34.1779 23.4586 33.7809C22.3796 33.3837 21.0091 33.284 20.022 33.5312C18.9165 33.8079 17.8525 34.4007 17.0863 35.1669L16.4019 35.8512L15.9601 35.3598C15.3796 34.7141 14.319 34.0178 13.447 33.7098C12.5073 33.3779 10.8921 33.2991 9.96247 33.5398C8.71677 33.8625 7.81839 34.4432 6.22654 35.9549L5.37192 36.7664V42.6506V48.5349H3.41849H1.46507V44.6335V40.7322L1.23632 40.4662C0.939695 40.1213 0.440791 40.1008 0.180106 40.4227C0.0109394 40.6317 0 40.9168 0 45.1201V49.5951L0.257364 49.7975L0.514728 50H13.728C20.9953 50 27.0125 49.9726 27.0994 49.9393C27.1864 49.9059 27.3277 49.7427 27.4137 49.5767C27.5535 49.3064 27.5625 48.7716 27.4999 44.4852C27.438 40.2463 27.4467 39.7125 27.5752 39.8422C27.6551 39.9228 28.9588 41.9006 30.4722 44.2374C31.9856 46.5742 33.4071 48.678 33.6311 48.9125C35.349 50.7112 38.4869 50.112 39.5852 47.7755C39.8878 47.1319 39.8947 47.0849 39.9318 45.4339C39.9595 44.2044 40.0016 43.749 40.0875 43.749C40.3113 43.749 41.049 43.0263 41.2284 42.6313C41.3925 42.2701 41.4085 41.9227 41.4105 38.6914C41.4122 35.7271 41.3882 35.0892 41.2631 34.7898C40.8599 33.8249 40.1848 33.3959 39.0696 33.3959H38.3848V32.5675C38.3848 31.7447 38.3866 31.7388 38.6534 31.6745C39.1515 31.5546 39.8729 31.1358 40.3501 30.6894C40.9418 30.1359 41.3178 29.387 41.3788 28.64C41.4042 28.328 41.2285 25.9464 40.9883 23.3475C40.5848 18.9813 40.5358 18.6063 40.3447 18.4151C40.1481 18.2183 40.0284 18.2065 37.9183 18.1777C35.4051 18.1435 35.1233 18.1733 34.9122 18.4953C34.7232 18.7839 33.849 28.007 33.9407 28.7455C34.0954 29.9923 35.1081 31.1365 36.4665 31.5994L36.9197 31.7538V32.5749V33.3959L36.2605 33.398C35.5071 33.4005 34.9141 33.6224 34.5165 34.0506C34.03 34.5747 33.9518 34.8392 33.8959 36.1477L33.8431 37.3855L32.5754 35.2198C30.9206 32.3924 30.3437 31.54 29.5176 30.7018C28.2112 29.3761 26.7826 28.4806 24.9409 27.8324L23.9418 27.4809L24.4745 26.8515C25.3934 25.766 26.2605 24.3419 26.6157 23.335C26.8264 22.7377 26.5261 22.256 25.9481 22.2645C25.6076 22.2695 25.4469 22.4563 25.0268 23.336C24.5886 24.2538 23.7203 25.5213 22.9303 26.3966L22.4156 26.9669L21.9272 26.7843L21.4388 26.6019L21.412 25.0671L21.385 23.5323L22.0957 22.8091C23.3856 21.4963 24.1889 19.7881 24.4359 17.8323L24.555 16.8894H25.1133C25.4203 16.8894 25.7411 16.8628 25.826 16.8302C25.9632 16.7775 25.9806 16.9566 25.9806 18.4233C25.9806 19.9512 25.9956 20.0919 26.1797 20.2895C26.4684 20.5994 26.9817 20.5784 27.2432 20.2459C27.4334 20.0041 27.4456 19.8646 27.4456 17.936C27.4456 15.8945 27.4471 15.8804 27.7142 15.3365C27.9697 14.8162 27.9828 14.7205 27.9828 13.3733C27.9828 12.026 27.9697 11.9304 27.7142 11.4101C27.4546 10.8816 27.4455 10.8094 27.444 9.26131C27.4421 7.53126 27.3269 6.75301 26.925 5.75833C26.5561 4.8451 26.0909 4.13113 25.3945 3.40973C24.2983 2.2741 22.8634 1.51988 21.3095 1.26272C20.655 1.1544 20.561 1.1083 20.2049 0.722007C19.5746 0.0381129 19.3231 -0.00906233 16.367 0.00109548C14.642 0.00705343 13.5758 0.0540333 13.062 0.147016ZM19.1137 1.69286C19.3866 1.92727 19.3878 1.9344 19.4196 3.30522C19.4617 5.12669 19.3391 5.8936 18.8445 6.90353C18.2076 8.20412 17.323 8.98246 15.8345 9.55198C15.1884 9.79909 15.1847 9.79938 11.0123 9.85261L6.83679 9.90594L6.83689 9.30409C6.83738 6.10643 9.04495 3.00048 12.0722 1.93841C13.1936 1.54499 13.8227 1.47613 16.3789 1.46656L18.8396 1.45737L19.1137 1.69286ZM21.8922 2.91043C23.0466 3.30756 23.8754 3.86732 24.6461 4.77019C25.565 5.84662 25.9767 7.0976 25.9791 8.81925L25.9806 9.88133L24.5399 9.83357C22.9542 9.78102 22.6171 9.68979 21.9244 9.12555C21.7079 8.94925 21.4003 8.56931 21.2407 8.28108L20.9505 7.75717L20.9201 5.24214L20.8896 2.7271H21.1245C21.2538 2.7271 21.5991 2.80963 21.8922 2.91043ZM20.8162 10.0809C21.3546 10.5863 21.9811 10.9441 22.637 11.1207L23.0504 11.232L23.0488 14.3782C23.0468 17.9057 22.9886 18.3909 22.4272 19.5573C21.5438 21.3923 20.0361 22.7662 18.2147 23.3958C17.5543 23.6241 17.2767 23.6654 16.4088 23.6646C15.7363 23.664 15.1646 23.6043 14.7484 23.4912C12.9866 23.0128 11.3316 21.6755 10.5657 20.1114C9.85855 18.6672 9.83804 18.5246 9.79145 14.7163L9.74984 11.3222H12.0467C13.31 11.3222 14.6836 11.2749 15.0992 11.2171C16.6307 11.0041 17.8095 10.4073 18.9468 9.26912L19.6808 8.53454L19.9993 9.07378C20.1744 9.37031 20.542 9.82351 20.8162 10.0809ZM8.30206 13.3733V15.4244L7.78928 15.424C7.20834 15.4236 6.75455 15.199 6.476 14.7742C6.21443 14.3751 6.21922 12.3832 6.48274 11.948C6.75543 11.4976 7.09816 11.3277 7.74045 11.3248L8.30206 11.3222V13.3733ZM25.9395 11.5064C26.4212 11.8 26.5666 12.232 26.5666 13.3685C26.5666 14.4338 26.4838 14.7081 26.0355 15.127C25.8317 15.3173 25.649 15.3749 25.1472 15.4069L24.5155 15.4471V13.3846V11.3222L25.0771 11.3226C25.4541 11.3228 25.7376 11.3832 25.9395 11.5064ZM12.7974 12.7848C12.5385 13.0436 12.4706 13.3621 12.5221 14.075C12.5563 14.5476 12.6119 14.7097 12.7886 14.8529C13.0803 15.0891 13.3911 15.0818 13.7096 14.8312C13.951 14.6414 13.967 14.578 13.967 13.8128C13.967 13.0475 13.951 12.9841 13.7096 12.7944C13.3858 12.5395 13.0461 12.536 12.7974 12.7848ZM19.0903 12.8317C18.8779 13.044 18.8506 13.1559 18.8506 13.8128C18.8506 14.4697 18.8779 14.5816 19.0903 14.7939C19.3959 15.0995 19.7703 15.0995 20.0758 14.7939C20.2883 14.5816 20.3156 14.4697 20.3156 13.8128C20.3156 13.1559 20.2883 13.044 20.0758 12.8317C19.944 12.6998 19.7223 12.5919 19.5831 12.5919C19.4439 12.5919 19.2222 12.6998 19.0903 12.8317ZM7.71808 16.8894H8.29004L8.34396 17.3534C8.62555 19.7791 9.38426 21.4664 10.8349 22.8932L11.4275 23.4761V25.0585V26.6408L10.9413 26.8024C10.674 26.8912 10.412 26.9371 10.3591 26.9045C10.3063 26.8717 9.93053 26.4036 9.52412 25.8642C7.7677 23.5325 6.83699 20.6366 6.83699 17.5035C6.83699 16.8756 6.85906 16.7794 6.99151 16.8302C7.07648 16.8628 7.40339 16.8894 7.71808 16.8894ZM14.0817 17.7991C13.8274 18.0698 13.8061 18.525 14.0186 19.1484C14.5952 20.8409 16.8755 21.3767 18.2036 20.1317C18.8668 19.5102 19.1738 18.1893 18.7529 17.7685C18.2985 17.3141 17.6299 17.6189 17.5234 18.329C17.4143 19.0566 16.9904 19.3958 16.2623 19.3383C15.7744 19.2998 15.3344 18.8208 15.3344 18.3282C15.3344 17.6696 14.5246 17.3277 14.0817 17.7991ZM39.2011 19.9905C39.2345 20.192 39.2622 20.5435 39.2628 20.7719L39.2639 21.187H37.6523H36.0407L36.0416 20.9184C36.042 20.7707 36.0701 20.419 36.104 20.137L36.1656 19.6242H37.6531H39.1406L39.2011 19.9905ZM39.4592 22.6995C39.4592 22.7256 39.5722 23.9673 39.7103 25.4587C39.8484 26.9502 39.9342 28.3536 39.9009 28.5775C39.6568 30.218 37.3055 30.8286 36.0536 29.5766C35.3465 28.8695 35.3212 28.6415 35.6073 25.5484C35.7422 24.0898 35.8716 22.8413 35.8948 22.7741C35.9264 22.6825 36.3767 22.652 37.6981 22.652C38.6667 22.652 39.4592 22.6734 39.4592 22.6995ZM13.967 24.7717C15.8302 25.3802 17.8104 25.2738 19.754 24.4607C19.9122 24.3945 19.9249 24.4949 19.9249 25.8122C19.9249 27.0118 19.8932 27.32 19.723 27.7752C19.5013 28.3676 18.9477 29.1611 18.5233 29.495L18.2517 29.7086L17.9895 29.4634C17.5231 29.0273 17.0893 28.861 16.4088 28.8575C15.8876 28.8548 15.6917 28.9025 15.3145 29.1242C15.0618 29.2728 14.7876 29.4905 14.7053 29.6081C14.556 29.8212 14.5538 29.8201 14.0563 29.3039C13.7799 29.0171 13.4195 28.4959 13.2492 28.1364C12.9502 27.5052 12.9406 27.4425 12.9101 25.9354C12.8805 24.4664 12.8882 24.3879 13.0566 24.4582C13.1545 24.499 13.5641 24.6401 13.967 24.7717ZM16.9504 30.5102C17.4349 30.9946 17.0916 31.8331 16.4088 31.8331C16.06 31.8331 15.6274 31.4596 15.6274 31.1585C15.6274 30.4089 16.4474 30.0071 16.9504 30.5102ZM13.1196 35.1484C13.9243 35.4602 14.8098 36.1674 15.3048 36.8939L15.7251 37.5106V38.9965C15.7251 40.733 15.7895 40.9166 16.3992 40.9166C17.0657 40.9166 17.134 40.7445 17.1901 38.9209C17.2366 37.4135 17.2515 37.3173 17.4951 36.9531C18.3859 35.6211 19.8038 34.861 21.3974 34.861C22.8558 34.861 23.8722 35.3516 25.211 36.7017L25.9554 37.4523L25.9975 41.4797L26.0396 45.5071H24.0698C22.225 45.5071 22.0838 45.5199 21.8427 45.7096C21.5062 45.9742 21.4988 46.4062 21.8251 46.7324C22.064 46.9714 22.0712 46.9722 24.0716 46.9722H26.0782V47.7536V48.5349H16.4576H6.83699V47.7536V46.9722H13.0923H19.3478L19.5875 46.7324C19.9138 46.4062 19.9064 45.9742 19.5699 45.7096C19.3157 45.5096 19.2375 45.5071 13.0748 45.5071H6.83699V41.4921V37.4772L7.77835 36.5842C9.28414 35.1556 10.0051 34.839 11.6229 34.8955C12.2918 34.919 12.7095 34.9895 13.1196 35.1484ZM39.7484 35.0748C39.9408 35.2812 39.9476 35.4021 39.9476 38.6441V41.9998L39.7078 42.2395C39.4704 42.4769 39.4499 42.4793 37.6523 42.4793C35.8546 42.4793 35.8341 42.4769 35.5968 42.2395C35.3999 42.0427 35.357 41.903 35.357 41.4582V40.9166H36.6311C37.8538 40.9166 37.915 40.9069 38.145 40.6768C38.4431 40.3787 38.4542 39.9775 38.1725 39.6775C37.9711 39.4632 37.8927 39.4515 36.6586 39.4515H35.357V38.6777V37.9039L36.6845 37.8719C37.9427 37.8416 38.0216 37.8279 38.1984 37.6093C38.4446 37.3048 38.4345 36.9286 38.1725 36.6497C37.9711 36.4354 37.8927 36.4237 36.6586 36.4237H35.357V35.8997C35.357 35.5174 35.4118 35.306 35.5595 35.1183L35.7618 34.861H37.6556C39.4779 34.861 39.5568 34.8691 39.7484 35.0748Z" fill="#DFB68D"/>
</svg>
