<svg width="50" height="50" viewBox="0 0 50 50" fill="none" xmlns="http://www.w3.org/2000/svg">
<path d="M10.1562 17.9688H9.375C9.1678 17.9688 8.96909 18.0511 8.82257 18.1976C8.67606 18.3441 8.59375 18.5428 8.59375 18.75C8.59375 18.9572 8.67606 19.1559 8.82257 19.3024C8.96909 19.4489 9.1678 19.5312 9.375 19.5312H10.1562C10.3635 19.5312 10.5622 19.4489 10.7087 19.3024C10.8552 19.1559 10.9375 18.9572 10.9375 18.75C10.9375 18.5428 10.8552 18.3441 10.7087 18.1976C10.5622 18.0511 10.3635 17.9688 10.1562 17.9688Z" fill="white"/>
<path d="M15.625 17.9688H12.5C12.2928 17.9688 12.0941 18.0511 11.9476 18.1976C11.8011 18.3441 11.7188 18.5428 11.7188 18.75C11.7188 18.9572 11.8011 19.1559 11.9476 19.3024C12.0941 19.4489 12.2928 19.5312 12.5 19.5312H15.625C15.8322 19.5312 16.0309 19.4489 16.1774 19.3024C16.3239 19.1559 16.4062 18.9572 16.4062 18.75C16.4062 18.5428 16.3239 18.3441 16.1774 18.1976C16.0309 18.0511 15.8322 17.9688 15.625 17.9688Z" fill="white"/>
<path d="M10.1562 20.3125H9.375C9.1678 20.3125 8.96909 20.3948 8.82257 20.5413C8.67606 20.6878 8.59375 20.8865 8.59375 21.0938C8.59375 21.301 8.67606 21.4997 8.82257 21.6462C8.96909 21.7927 9.1678 21.875 9.375 21.875H10.1562C10.3635 21.875 10.5622 21.7927 10.7087 21.6462C10.8552 21.4997 10.9375 21.301 10.9375 21.0938C10.9375 20.8865 10.8552 20.6878 10.7087 20.5413C10.5622 20.3948 10.3635 20.3125 10.1562 20.3125Z" fill="white"/>
<path d="M15.625 20.3125H12.5C12.2928 20.3125 12.0941 20.3948 11.9476 20.5413C11.8011 20.6878 11.7188 20.8865 11.7188 21.0938C11.7188 21.301 11.8011 21.4997 11.9476 21.6462C12.0941 21.7927 12.2928 21.875 12.5 21.875H15.625C15.8322 21.875 16.0309 21.7927 16.1774 21.6462C16.3239 21.4997 16.4062 21.301 16.4062 21.0938C16.4062 20.8865 16.3239 20.6878 16.1774 20.5413C16.0309 20.3948 15.8322 20.3125 15.625 20.3125Z" fill="white"/>
<path d="M20.865 14.2914C20.7185 14.1449 20.5198 14.0626 20.3127 14.0626C20.1055 14.0626 19.9068 14.1449 19.7603 14.2914L18.1978 15.8539C18.0555 16.0012 17.9768 16.1986 17.9785 16.4034C17.9803 16.6082 18.0625 16.8042 18.2073 16.949C18.3522 17.0939 18.5481 17.176 18.753 17.1778C18.9578 17.1796 19.1552 17.1009 19.3025 16.9585L19.5314 16.7296V21.0937C19.5314 21.3009 19.6137 21.4996 19.7602 21.6461C19.9068 21.7926 20.1055 21.875 20.3127 21.875C20.5199 21.875 20.7186 21.7926 20.8651 21.6461C21.0116 21.4996 21.0939 21.3009 21.0939 21.0937V16.7296L21.3228 16.9585C21.4702 17.1009 21.6675 17.1796 21.8724 17.1778C22.0772 17.176 22.2731 17.0939 22.418 16.949C22.5628 16.8042 22.645 16.6082 22.6468 16.4034C22.6486 16.1986 22.5698 16.0012 22.4275 15.8539L20.865 14.2914Z" fill="white"/>
<path d="M39.8438 29.6875H39.7969L38.4062 20.2969C38.8279 20.2743 39.2355 20.1382 39.5862 19.9031C39.9369 19.6679 40.2175 19.3424 40.3984 18.9609C40.9211 19.3322 41.5464 19.5315 42.1875 19.5312H42.9688C43.1759 19.5312 43.3747 19.4489 43.5212 19.3024C43.6677 19.1559 43.75 18.9572 43.75 18.75V14.0625C43.75 13.8553 43.6677 13.6566 43.5212 13.5101C43.3747 13.3636 43.1759 13.2812 42.9688 13.2812H42.1875C41.5464 13.281 40.9211 13.4803 40.3984 13.8516C40.2101 13.4486 39.9111 13.1075 39.5362 12.8682C39.1613 12.6289 38.726 12.5012 38.2812 12.5H33.5938C33.0048 12.5022 32.4382 12.7261 32.0068 13.1271C31.5754 13.5281 31.3108 14.0768 31.2656 14.6641L28.8437 15.3125C28.4707 15.4128 28.1358 15.6214 27.8814 15.9119C27.6269 16.2025 27.4643 16.562 27.4141 16.945C27.364 17.328 27.4285 17.7172 27.5995 18.0635C27.7705 18.4098 28.0404 18.6977 28.375 18.8906C28.595 19.0215 28.8394 19.1064 29.0932 19.1399C29.347 19.1735 29.6051 19.1551 29.8516 19.0859L31.375 18.6797C31.5244 19.1517 31.8197 19.5641 32.2184 19.8575C32.6171 20.151 33.0987 20.3103 33.5938 20.3125V32.8125C33.5938 33.8485 33.1822 34.8421 32.4496 35.5746C31.7171 36.3072 30.7235 36.7188 29.6875 36.7188H27.3438V28.125H28.125C28.3322 28.125 28.5309 28.0427 28.6774 27.8962C28.8239 27.7497 28.9062 27.551 28.9062 27.3438V25.7812C28.9044 25.1602 28.6569 24.5652 28.2177 24.126C27.7786 23.6869 27.1835 23.4394 26.5625 23.4375H25.7812V8.59375C25.7792 8.4248 25.7185 8.26183 25.6094 8.13281C25.6172 8.125 23.2812 5 23.2812 5C23.2079 4.90359 23.1134 4.82529 23.0051 4.77111C22.8967 4.71694 22.7774 4.68833 22.6562 4.6875H8.59375C8.47261 4.68833 8.35328 4.71694 8.24493 4.77111C8.13658 4.82529 8.0421 4.90359 7.96875 5L5.63281 8.13281C5.53048 8.26509 5.473 8.42656 5.46875 8.59375V23.4375H4.6875C4.4803 23.4375 4.28159 23.5198 4.13507 23.6663C3.98856 23.8128 3.90625 24.0115 3.90625 24.2188V25.7812C3.9081 26.4023 4.15563 26.9973 4.59477 27.4365C5.0339 27.8756 5.62897 28.1231 6.25 28.125H9.05469C6.49386 29.7542 4.57548 32.2191 3.625 35.1016L3.34375 35.9375H2.34375C2.13655 35.9375 1.93784 36.0198 1.79132 36.1663C1.64481 36.3128 1.5625 36.5115 1.5625 36.7188V40.625C1.5625 40.8322 1.64481 41.0309 1.79132 41.1774C1.93784 41.3239 2.13655 41.4062 2.34375 41.4062H8.64844C8.6144 41.6653 8.59614 41.9262 8.59375 42.1875C8.59375 43.8451 9.25223 45.4348 10.4243 46.6069C11.5964 47.779 13.1861 48.4375 14.8438 48.4375C16.5014 48.4375 18.0911 47.779 19.2632 46.6069C20.4353 45.4348 21.0938 43.8451 21.0938 42.1875C21.0914 41.9262 21.0731 41.6653 21.0391 41.4062H33.3828C33.7389 41.4025 34.0941 41.3712 34.4453 41.3125C34.3983 41.6018 34.3748 41.8944 34.375 42.1875C34.375 43.8451 35.0335 45.4348 36.2056 46.6069C37.3777 47.779 38.9674 48.4375 40.625 48.4375C42.2826 48.4375 43.8723 47.779 45.0444 46.6069C46.2165 45.4348 46.875 43.8451 46.875 42.1875C46.8694 41.0903 46.5787 40.0134 46.0312 39.0625H47.6562C47.8634 39.0625 48.0622 38.9802 48.2087 38.8337C48.3552 38.6872 48.4375 38.4884 48.4375 38.2812C48.4361 36.0025 47.5302 33.8175 45.9188 32.2062C44.3075 30.5948 42.1225 29.6889 39.8438 29.6875ZM42.1875 14.8438V17.9688C41.7731 17.9688 41.3757 17.8041 41.0826 17.5111C40.7896 17.2181 40.625 16.8207 40.625 16.4062C40.625 15.9918 40.7896 15.5944 41.0826 15.3014C41.3757 15.0084 41.7731 14.8438 42.1875 14.8438ZM29.4531 17.5781C29.4037 17.5929 29.3517 17.5971 29.3005 17.5904C29.2493 17.5836 29.2002 17.5662 29.1562 17.5391C29.0883 17.5009 29.0333 17.4432 28.9984 17.3735C28.9635 17.3038 28.9502 17.2253 28.9603 17.148C28.9704 17.0707 29.0034 16.9982 29.055 16.9398C29.1066 16.8814 29.1745 16.8398 29.25 16.8203L33.0234 15.8125C33.0565 15.8029 33.0906 15.7977 33.125 15.7969C33.2105 15.7974 33.2935 15.8259 33.3613 15.8781C33.429 15.9303 33.4778 16.0033 33.5 16.0859C33.5148 16.1354 33.519 16.1874 33.5123 16.2386C33.5055 16.2897 33.488 16.3389 33.4609 16.3828C33.4101 16.4734 33.3261 16.5406 33.2266 16.5703L29.4531 17.5781ZM32.875 18.2812L33.625 18.0781C33.8741 18.0132 34.1077 17.8989 34.3117 17.7418C34.5157 17.5848 34.686 17.3883 34.8125 17.1641C34.9439 16.9442 35.029 16.6998 35.0626 16.4459C35.0962 16.192 35.0775 15.9339 35.0078 15.6875C34.8945 15.2713 34.6471 14.904 34.3038 14.6427C33.9606 14.3814 33.5408 14.2406 33.1094 14.2422C33.2447 14.1272 33.4162 14.0635 33.5938 14.0625H38.2812C38.4884 14.0625 38.6872 14.1448 38.8337 14.2913C38.9802 14.4378 39.0625 14.6365 39.0625 14.8438V17.9688C39.0625 18.176 38.9802 18.3747 38.8337 18.5212C38.6872 18.6677 38.4884 18.75 38.2812 18.75H33.5938C33.4416 18.749 33.293 18.7042 33.1656 18.6211C33.0381 18.538 32.9373 18.42 32.875 18.2812ZM22.2656 6.25L23.4375 7.8125H18.5781L18.1875 6.25H22.2656ZM14.6719 6.25H16.5781L16.9687 7.8125H14.2813L14.6719 6.25ZM14.0625 9.375H17.1875V12.5H14.0625V9.375ZM8.98438 6.25H13.0625L12.6719 7.8125H7.8125L8.98438 6.25ZM7.03125 9.375H12.5V13.2812C12.5 13.4885 12.5823 13.6872 12.7288 13.8337C12.8753 13.9802 13.074 14.0625 13.2812 14.0625H17.9688C18.176 14.0625 18.3747 13.9802 18.5212 13.8337C18.6677 13.6872 18.75 13.4885 18.75 13.2812V9.375H24.2188V23.4375H7.03125V9.375ZM6.25 26.5625C6.0428 26.5625 5.84409 26.4802 5.69757 26.3337C5.55106 26.1872 5.46875 25.9885 5.46875 25.7812V25H26.5625C26.7697 25 26.9684 25.0823 27.1149 25.2288C27.2614 25.3753 27.3438 25.574 27.3438 25.7812V26.5625H6.25ZM3.51562 39.8438H3.125V37.5H3.51562C3.82643 37.5 4.1245 37.6235 4.34427 37.8432C4.56404 38.063 4.6875 38.3611 4.6875 38.6719C4.6875 38.9827 4.56404 39.2807 4.34427 39.5005C4.1245 39.7203 3.82643 39.8438 3.51562 39.8438ZM14.8438 46.875C13.6005 46.875 12.4083 46.3811 11.5292 45.5021C10.6501 44.623 10.1562 43.4307 10.1562 42.1875C10.1599 41.9257 10.1834 41.6645 10.2266 41.4062H12.6406C12.5121 41.7603 12.4708 42.14 12.5203 42.5134C12.5697 42.8867 12.7083 43.2427 12.9245 43.5511C13.1406 43.8595 13.4279 44.1112 13.762 44.2851C14.0961 44.4589 14.4671 44.5496 14.8438 44.5496C15.2204 44.5496 15.5914 44.4589 15.9255 44.2851C16.2596 44.1112 16.5469 43.8595 16.763 43.5511C16.9792 43.2427 17.1178 42.8867 17.1672 42.5134C17.2167 42.14 17.1754 41.7603 17.0469 41.4062H19.4609C19.5041 41.6645 19.5276 41.9257 19.5312 42.1875C19.5312 43.4307 19.0374 44.623 18.1583 45.5021C17.2792 46.3811 16.087 46.875 14.8438 46.875ZM14.0625 42.1875C14.0625 42.033 14.1083 41.8819 14.1942 41.7535C14.28 41.625 14.402 41.5249 14.5448 41.4657C14.6875 41.4066 14.8446 41.3911 14.9962 41.4213C15.1477 41.4514 15.2869 41.5258 15.3962 41.6351C15.5054 41.7443 15.5798 41.8835 15.61 42.0351C15.6401 42.1866 15.6247 42.3437 15.5655 42.4865C15.5064 42.6292 15.4063 42.7512 15.2778 42.8371C15.1493 42.9229 14.9983 42.9688 14.8438 42.9688C14.6365 42.9688 14.4378 42.8864 14.2913 42.7399C14.1448 42.5934 14.0625 42.3947 14.0625 42.1875ZM22.6562 37.5C22.6544 38.121 22.4069 38.7161 21.9677 39.1552C21.5286 39.5944 20.9335 39.8419 20.3125 39.8438H8.8125L9.28906 37.9453C9.70893 36.2541 10.6836 34.7524 12.0574 33.6803C13.4311 32.6082 15.1246 32.0276 16.8672 32.0312H20.3125C20.9335 32.0331 21.5286 32.2806 21.9677 32.7198C22.4069 33.1589 22.6544 33.754 22.6562 34.375V37.5ZM33.3828 39.8438H23.4141C23.9335 39.1726 24.2164 38.3486 24.2188 37.5V34.375C24.2188 33.339 23.8072 32.3454 23.0746 31.6129C22.3421 30.8803 21.3485 30.4688 20.3125 30.4688H16.8672C14.776 30.4666 12.7443 31.1648 11.0961 32.4519C9.44791 33.739 8.27817 35.5409 7.77344 37.5703L7.20312 39.8438H5.97656C6.27919 39.2251 6.33282 38.5139 6.1264 37.8568C5.91998 37.1997 5.46925 36.647 4.86719 36.3125L5.10156 35.5938C5.65014 33.9347 6.56481 32.4204 7.77785 31.1627C8.9909 29.905 10.4713 28.9363 12.1094 28.3281L12.6406 28.125H25.7812V37.5C25.7812 37.7072 25.8636 37.9059 26.0101 38.0524C26.1566 38.1989 26.3553 38.2812 26.5625 38.2812H29.6875C31.1374 38.2796 32.5274 37.7029 33.5527 36.6777C34.5779 35.6524 35.1546 34.2624 35.1562 32.8125V20.3125H36.8281L38.7891 33.5703C38.9047 34.3477 38.8514 35.1409 38.6329 35.8958C38.4143 36.6507 38.0356 37.3497 37.5225 37.945C37.0095 38.5404 36.3741 39.0182 35.6597 39.3458C34.9454 39.6735 34.1687 39.8433 33.3828 39.8438ZM40.625 46.875C39.3818 46.875 38.1895 46.3811 37.3104 45.5021C36.4314 44.623 35.9375 43.4307 35.9375 42.1875C35.9416 41.7259 36.0153 41.2677 36.1562 40.8281C37.0939 40.4232 37.9332 39.821 38.6172 39.0625H44.1094C44.7156 39.7352 45.1136 40.5693 45.2552 41.4637C45.3968 42.3582 45.2758 43.2744 44.9069 44.1015C44.5381 44.9285 43.9372 45.6307 43.1771 46.123C42.4171 46.6153 41.5306 46.8766 40.625 46.875ZM39.6719 37.5C40.3124 36.2149 40.5442 34.7645 40.3359 33.3438L40.0312 31.2578C41.7262 31.3045 43.3473 31.9618 44.5962 33.1088C45.845 34.2557 46.6376 35.8151 46.8281 37.5H39.6719Z" fill="white"/>
<path d="M38.2812 42.1875C38.2812 42.6511 38.4187 43.1042 38.6762 43.4896C38.9338 43.875 39.2998 44.1754 39.7281 44.3528C40.1564 44.5302 40.6276 44.5767 41.0822 44.4862C41.5369 44.3958 41.9545 44.1726 42.2823 43.8448C42.6101 43.517 42.8333 43.0994 42.9237 42.6447C43.0142 42.1901 42.9677 41.7189 42.7903 41.2906C42.6129 40.8623 42.3125 40.4963 41.9271 40.2387C41.5417 39.9812 41.0886 39.8438 40.625 39.8438C40.0034 39.8438 39.4073 40.0907 38.9677 40.5302C38.5282 40.9698 38.2812 41.5659 38.2812 42.1875ZM40.625 41.4063C40.7795 41.4063 40.9306 41.4521 41.059 41.5379C41.1875 41.6238 41.2876 41.7458 41.3468 41.8885C41.4059 42.0313 41.4214 42.1884 41.3912 42.3399C41.3611 42.4915 41.2867 42.6307 41.1774 42.7399C41.0682 42.8492 40.929 42.9236 40.7774 42.9537C40.6259 42.9839 40.4688 42.9684 40.326 42.9093C40.1833 42.8501 40.0613 42.75 39.9754 42.6215C39.8896 42.4931 39.8438 42.342 39.8438 42.1875C39.8438 41.9803 39.9261 41.7816 40.0726 41.6351C40.2191 41.4886 40.4178 41.4063 40.625 41.4063Z" fill="white"/>
<path d="M20.3125 33.5938H14.8438C14.6365 33.5938 14.4378 33.6761 14.2913 33.8226C14.1448 33.9691 14.0625 34.1678 14.0625 34.375C14.0625 34.5822 14.1448 34.7809 14.2913 34.9274C14.4378 35.0739 14.6365 35.1562 14.8438 35.1562H20.3125C20.5197 35.1562 20.7184 35.0739 20.8649 34.9274C21.0114 34.7809 21.0938 34.5822 21.0938 34.375C21.0938 34.1678 21.0114 33.9691 20.8649 33.8226C20.7184 33.6761 20.5197 33.5938 20.3125 33.5938Z" fill="white"/>
<path d="M20.3125 36.7188H11.7188C11.5115 36.7188 11.3128 36.8011 11.1663 36.9476C11.0198 37.0941 10.9375 37.2928 10.9375 37.5C10.9375 37.7072 11.0198 37.9059 11.1663 38.0524C11.3128 38.1989 11.5115 38.2812 11.7188 38.2812H20.3125C20.5197 38.2812 20.7184 38.1989 20.8649 38.0524C21.0114 37.9059 21.0938 37.7072 21.0938 37.5C21.0938 37.2928 21.0114 37.0941 20.8649 36.9476C20.7184 36.8011 20.5197 36.7188 20.3125 36.7188Z" fill="white"/>
</svg>
