<svg width="50" height="50" viewBox="0 0 50 50" fill="none" xmlns="http://www.w3.org/2000/svg">
<g clip-path="url(#clip0_2_20375)">
<path d="M18.4849 14.697V8.63636C18.4849 8.18181 18.1819 7.87878 17.7273 7.87878C17.2728 7.87878 16.9697 8.18181 16.9697 8.63636V14.697C15.6061 15 14.6213 16.2879 14.6213 17.7273C14.6213 18.6364 15 19.3939 15.5303 20L12.8031 24.6212C12.5758 25 12.7273 25.4545 13.1061 25.6818C13.4849 25.9091 13.9394 25.7576 14.1667 25.3788L16.894 20.7576C17.197 20.8333 17.5 20.9091 17.8031 20.9091C19.5455 20.9091 20.9091 19.4697 20.9091 17.803C20.8334 16.2121 19.7728 15 18.4849 14.697ZM17.7273 19.3182C16.8182 19.3182 16.1364 18.5606 16.1364 17.7273C16.1364 16.8182 16.894 16.1364 17.7273 16.1364C18.6364 16.1364 19.3182 16.8939 19.3182 17.7273C19.3182 18.5606 18.5606 19.3182 17.7273 19.3182Z" fill="white"/>
<path d="M17.7273 5.90909C18.1818 5.90909 18.4849 5.60606 18.4849 5.15151V3.63636C18.4849 3.18181 18.1818 2.87878 17.7273 2.87878C17.2728 2.87878 16.9697 3.18181 16.9697 3.63636V5.15151C16.9697 5.5303 17.2728 5.90909 17.7273 5.90909Z" fill="white"/>
<path d="M17.7273 29.4697C17.2728 29.4697 16.9697 29.7727 16.9697 30.2273V31.7424C16.9697 32.197 17.2728 32.5 17.7273 32.5C18.1818 32.5 18.4849 32.197 18.4849 31.7424V30.2273C18.4849 29.8485 18.1061 29.4697 17.7273 29.4697Z" fill="white"/>
<path d="M5.90921 17.7273C5.90921 17.2727 5.60618 16.9697 5.15163 16.9697H3.63648C3.18194 16.9697 2.87891 17.2727 2.87891 17.7273C2.87891 18.1818 3.18194 18.4848 3.63648 18.4848H5.15163C5.53042 18.4848 5.90921 18.1061 5.90921 17.7273Z" fill="white"/>
<path d="M29.4697 17.7273C29.4697 18.1818 29.7728 18.4848 30.2273 18.4848H31.7425C32.197 18.4848 32.5 18.1818 32.5 17.7273C32.5 17.2727 32.197 16.9697 31.7425 16.9697H30.2273C29.8485 16.9697 29.4697 17.2727 29.4697 17.7273Z" fill="white"/>
<path d="M5.07541 11.2879L6.43905 12.0454C6.81784 12.2727 7.27238 12.1212 7.49965 11.7424C7.72693 11.3636 7.57541 10.9091 7.19662 10.6818L5.83299 9.92423C5.4542 9.69695 4.99965 9.84847 4.77238 10.2273C4.62087 10.6818 4.69662 11.1363 5.07541 11.2879Z" fill="white"/>
<path d="M11.8185 27.8788C11.4397 27.6515 10.9852 27.803 10.7579 28.1818L10.0003 29.5455C9.77307 29.9242 9.92458 30.3788 10.3034 30.6061C10.6822 30.8333 11.1367 30.6818 11.364 30.303L12.1216 28.9394C12.2731 28.5606 12.1973 28.1061 11.8185 27.8788Z" fill="white"/>
<path d="M23.5608 7.50001C23.9396 7.72728 24.3941 7.57577 24.6214 7.19698L25.3789 5.83334C25.6062 5.45456 25.4547 5.00001 25.0759 4.77274C24.6971 4.54547 24.2426 4.69698 24.0153 5.07577L23.2577 6.4394C23.1062 6.81819 23.182 7.27274 23.5608 7.50001Z" fill="white"/>
<path d="M11.6667 7.57574C12.0455 7.34847 12.1213 6.89392 11.894 6.51514L11.1364 5.1515C10.9092 4.77271 10.4546 4.69695 10.0758 4.92423C9.69703 5.1515 9.62127 5.60605 9.84854 5.98483L10.6061 7.34847C10.8334 7.6515 11.2879 7.80302 11.6667 7.57574Z" fill="white"/>
<path d="M6.51563 23.4848L5.15199 24.2424C4.7732 24.4697 4.69744 24.9242 4.92472 25.303C5.15199 25.6818 5.60653 25.7576 5.98532 25.5303L7.34896 24.7727C7.72775 24.5454 7.8035 24.0909 7.57623 23.7121C7.34896 23.3333 6.89441 23.2576 6.51563 23.4848Z" fill="white"/>
<path d="M28.8633 11.9697L30.2269 11.2121C30.6057 10.9848 30.6814 10.5303 30.4542 10.1515C30.2269 9.77271 29.7723 9.69696 29.3936 9.92423L28.0299 10.6818C27.6511 10.9091 27.5754 11.3636 27.8026 11.7424C28.0299 12.0454 28.4845 12.1212 28.8633 11.9697Z" fill="white"/>
<path d="M30.9851 1.51515H44.0912V19.697L40.9851 16.5909C40.6821 16.2879 40.2275 16.2879 39.9245 16.5909C39.6215 16.8939 39.6215 17.3485 39.9245 17.6515L44.3184 22.0455C44.47 22.197 44.6215 22.2727 44.8488 22.2727C45.076 22.2727 45.2275 22.197 45.3791 22.0455L49.773 17.6515C50.076 17.3485 50.076 16.8939 49.773 16.5909C49.47 16.2879 49.0154 16.2879 48.7124 16.5909L45.6063 19.697V0.757576C45.6063 0.30303 45.3033 0 44.8488 0H30.9851C30.5306 0 30.2275 0.30303 30.2275 0.757576C30.2275 1.21212 30.6063 1.51515 30.9851 1.51515Z" fill="white"/>
<path d="M49.4697 27.5758C49.3182 27.5 35.3788 19.8485 35.2273 19.8485C35.303 19.0909 35.3788 18.4091 35.3788 17.7273C35.3788 7.95455 27.4242 0 17.6515 0C7.95454 0 0 7.95455 0 17.7273C0 27.5 7.95454 35.4545 17.6515 35.4545C18.4091 35.4545 19.3182 35.3788 20.2273 35.2273V40.3788C20.2273 40.6061 20.3788 40.9091 20.6061 40.9848L34.6212 49.8485C34.7727 49.9242 34.8485 50 35 50C35.1515 50 35.303 49.9242 35.3788 49.9242L49.5455 42.4242C49.7727 42.2727 49.9242 42.0455 49.9242 41.7424V28.2576C49.9242 27.9545 49.7727 27.7273 49.4697 27.5758ZM47.5758 28.2576L44.2424 30.0758L31.6667 23.1818L35 21.4394L47.5758 28.2576ZM41.2121 32.1212L28.1818 25L30.0758 23.9394L43.4848 31.2879V35.0758L41.6667 36.2121V32.803C41.6667 32.5 41.4394 32.197 41.2121 32.1212ZM35.0758 35.0758L22.5758 28.0303L26.5909 25.9091L39.3182 32.803L35.0758 35.0758ZM17.6515 33.8636C8.78788 33.8636 1.51515 26.5909 1.51515 17.7273C1.51515 8.78788 8.78788 1.51515 17.6515 1.51515C26.5909 1.51515 33.8636 8.78788 33.8636 17.7273C33.8636 18.4848 33.7879 19.5455 33.6364 20.4545C33.6364 20.4545 20.7576 27.3485 20.6061 27.3485C20.3788 27.5 20.2273 27.803 20.2273 28.0303V33.7121C19.3182 33.7879 18.4091 33.8636 17.6515 33.8636ZM21.7424 39.9242V29.3182L34.2424 36.3636V47.8788L21.7424 39.9242ZM35.7576 47.9545V36.4394L40.0758 34.0909V37.5C40.0758 37.803 40.2273 38.0303 40.4545 38.1818C40.6818 38.3333 40.9848 38.3333 41.2121 38.1818L44.6212 36.2879C44.8485 36.1364 45 35.9091 45 35.6061V31.3636L48.3333 29.5455V41.2879L35.7576 47.9545Z" fill="white"/>
<path d="M32.5754 38.7121L24.3178 33.9394C23.939 33.7121 23.4844 33.8636 23.2572 34.2424C23.0299 34.6212 23.1814 35.0758 23.5602 35.303L31.8178 40C32.1966 40.2273 32.6511 40.0758 32.8784 39.697C33.0299 39.3939 32.8784 38.8636 32.5754 38.7121Z" fill="white"/>
<path d="M32.5002 41.8182L24.2426 36.9697C23.8638 36.7424 23.4093 36.8939 23.182 37.2727C22.9547 37.6515 23.1062 38.1061 23.485 38.3333L31.7426 43.1061C32.1214 43.3333 32.5759 43.1818 32.8032 42.803C32.9547 42.4242 32.8032 41.9697 32.5002 41.8182Z" fill="white"/>
</g>
<defs>
<clipPath id="clip0_2_20375">
<rect width="50" height="50" fill="white"/>
</clipPath>
</defs>
</svg>
