<svg width="60" height="60" viewBox="0 0 60 60" fill="none" xmlns="http://www.w3.org/2000/svg">
<g clip-path="url(#clip0_2_21472)">
<path d="M60 30.9677V23.2027C60 21.0493 58.6141 19.1866 56.552 18.5681L50.3226 16.6992V15.2292C52.0752 14.0034 53.2258 11.9739 53.2258 9.67837V6.77419C53.2258 3.03884 50.187 0 46.4516 0C42.7163 0 39.6774 3.03884 39.6774 6.77419V9.67742C39.6774 11.9739 40.828 14.0034 42.5807 15.2282V16.6983L37.0908 18.3455C35.0306 16.5031 32.4057 15.4839 29.6187 15.4839C26.843 15.4839 24.3036 16.5008 22.3412 18.1763L17.4194 16.6992V15.2292C19.172 14.0034 20.3226 11.9739 20.3226 9.67837V6.77419C20.3226 3.03884 17.2837 0 13.5484 0C9.81304 0 6.77419 3.03884 6.77419 6.77419V9.67742C6.77419 11.9739 7.92481 14.0034 9.67742 15.2282V16.6983L3.44805 18.5671C1.38593 19.1866 0 21.0493 0 23.2027V30.9677H1.93548V23.2027C1.93548 21.9108 2.76666 20.7927 4.00469 20.4223L10.236 18.5525C10.7992 19.284 11.8889 20.3226 13.5484 20.3226C15.2079 20.3226 16.2976 19.284 16.8608 18.5525L20.8296 19.7428C19.5698 21.3272 18.7306 23.2556 18.4759 25.3654C17.2403 24.0523 15.4905 23.2258 13.5484 23.2258C9.81304 23.2258 6.77419 26.2647 6.77419 30V32.9032C6.77419 35.1997 7.92481 37.2292 9.67742 38.454V39.9241L3.44805 41.7929C1.38593 42.4124 0 44.2751 0 46.4285V55.1613H11.6129C12.1459 55.1613 12.5806 55.596 12.5806 56.129V60H47.4194V56.129C47.4194 55.596 47.8541 55.1613 48.3871 55.1613H60V46.4285C60 44.2751 58.6141 42.4124 56.552 41.7939L50.3226 39.925V38.455C52.0752 37.2292 53.2258 35.1997 53.2258 32.9042V30.0009C53.2258 26.2656 50.187 23.2268 46.4516 23.2268C44.5568 23.2268 42.8438 24.0107 41.6129 25.2686V24.3514C41.6129 22.44 40.5743 20.7195 38.9535 19.8099L43.1392 18.5534C43.7024 19.284 44.7921 20.3226 46.4516 20.3226C48.1111 20.3226 49.2008 19.284 49.7641 18.5525L55.9963 20.4223C57.2333 20.7927 58.0645 21.9108 58.0645 23.2027V30.9677H60ZM13.5484 1.93548C16.2163 1.93548 18.3871 4.10629 18.3871 6.77419H13.9491C13.3343 6.77419 12.7314 6.5247 12.2971 6.08997L11.6129 5.40575L10.9287 6.08997C10.4944 6.5247 9.89148 6.77419 9.27671 6.77419H8.70968C8.70968 4.10629 10.8805 1.93548 13.5484 1.93548ZM8.70968 9.67742V8.70968H9.27671C10.1197 8.70968 10.9249 8.46774 11.6129 8.016C12.3009 8.46774 13.1061 8.70968 13.9491 8.70968H18.3871V9.67742C18.3871 12.3453 16.2163 14.5161 13.5484 14.5161C10.8805 14.5161 8.70968 12.3453 8.70968 9.67742ZM13.5484 18.3871C12.5197 18.3871 11.853 17.5228 11.6129 17.1533V16.1672C12.2262 16.35 12.876 16.4516 13.5484 16.4516C14.2208 16.4516 14.8705 16.35 15.4839 16.1662V17.1524C15.2438 17.5238 14.5771 18.3871 13.5484 18.3871ZM40.1495 35.3727C40.6423 36.6244 41.4929 37.6947 42.5807 38.455V39.925L36.3522 41.7939C36.1471 41.8548 35.9477 41.9342 35.7531 42.0221L34.8387 41.8114V39.9047C35.8731 39.0735 36.6882 37.982 37.1886 36.7307C38.3033 36.6329 39.3485 36.1585 40.1495 35.3727ZM30 41.6129C31.0268 41.6129 32.0064 41.4078 32.9032 41.043V42.0968L30 44.2742L27.0968 42.0968V41.043C27.9936 41.4078 28.9732 41.6129 30 41.6129ZM25.9084 43.6249L28.2677 45.395L25.8408 46.8514L25.227 43.7828L25.9084 43.6249ZM28.9307 51.2903H31.0693L31.8221 58.0645H28.1779L28.9307 51.2903ZM31.2376 49.3548H28.7615L28.2058 47.6882L30 46.6123L31.7933 47.6882L31.2376 49.3548ZM31.7323 45.395L34.0916 43.6249L34.773 43.7818L34.1592 46.8504L31.7323 45.395ZM38.9228 33.8885C38.5878 34.2561 38.162 34.5136 37.7004 34.6705C37.7273 34.4073 37.7419 34.1408 37.7419 33.871V29.2402C38.7834 29.6352 39.5583 30.5514 39.6628 31.6463C39.7422 32.4794 39.4799 33.2746 38.9228 33.8885ZM35.8065 33.871C35.8065 37.0733 33.2023 39.6774 30 39.6774C26.7977 39.6774 24.1936 37.0733 24.1936 33.871V29.0323H27.4791C29.588 29.0323 31.6402 28.5059 33.475 27.5003L34.2405 29.0323H35.8065V33.871ZM22.2997 34.6705C21.838 34.5136 21.4122 34.2561 21.0772 33.8885C20.5201 33.2756 20.2578 32.4794 20.3372 31.6472C20.4417 30.5524 21.2166 29.6352 22.2581 29.2411V33.871C22.2581 34.1408 22.2727 34.4073 22.2997 34.6705ZM22.8114 36.7307C23.3109 37.982 24.126 39.0735 25.1613 39.9047V41.8114L24.2469 42.0221C24.0513 41.9342 23.8529 41.8558 23.6487 41.7939L17.4194 39.925V38.455C18.5062 37.6947 19.3577 36.6244 19.8505 35.3727C20.6515 36.1585 21.6967 36.6329 22.8114 36.7307ZM13.5484 25.1613C16.2163 25.1613 18.3871 27.3321 18.3871 30H17.8201C17.2053 30 16.6024 29.7505 16.1681 29.3158L15.4839 28.6316L14.7996 29.3158C14.3654 29.7505 13.7624 30 13.1477 30H8.70968C8.70968 27.3321 10.8805 25.1613 13.5484 25.1613ZM8.70968 32.9032V31.9355H13.1477C13.9907 31.9355 14.7959 31.6936 15.4839 31.2418C16.1719 31.6936 16.9771 31.9355 17.8201 31.9355H18.3871V32.9032C18.3871 35.5711 16.2163 37.7419 13.5484 37.7419C10.8805 37.7419 8.70968 35.5711 8.70968 32.9032ZM13.5484 39.6774C14.2208 39.6774 14.8705 39.5758 15.4839 39.392V40.3782C15.2438 40.7496 14.5771 41.6129 13.5484 41.6129C12.5197 41.6129 11.853 40.7486 11.6129 40.3791V39.393C12.2262 39.5758 12.876 39.6774 13.5484 39.6774ZM11.6129 53.2258H7.74194V46.4516H5.80645V53.2258H1.93548V46.4285C1.93548 45.1366 2.76666 44.0186 4.00469 43.6481L10.236 41.7783C10.7992 42.5098 11.8889 43.5484 13.5484 43.5484C15.2079 43.5484 16.2976 42.5098 16.8608 41.7783L20.5305 42.8798L17.8314 43.5021C14.7396 44.2161 12.5806 46.9308 12.5806 50.1029V51.2903H14.5161V50.1029C14.5161 47.8366 16.0589 45.8983 18.2671 45.388L23.3402 44.217L24.4808 49.9228L26.5056 48.7084L27.0783 50.427L26.2306 58.0645H21.2903V50.3226H19.3548V58.0645H14.5161V56.129C14.5161 54.5286 13.2134 53.2258 11.6129 53.2258ZM55.9953 43.6481C57.2333 44.0186 58.0645 45.1366 58.0645 46.4285V53.2258H54.1936V46.4516H52.2581V53.2258H48.3871C46.7866 53.2258 45.4839 54.5286 45.4839 56.129V58.0645H40.6452V50.3226H38.7097V58.0645H33.7694L32.9207 50.427L33.4934 48.7084L35.5182 49.9228L36.6589 44.217L41.7329 45.388C43.9411 45.8983 45.4839 47.8366 45.4839 50.1029V51.2903H47.4194V50.1029C47.4194 46.9308 45.2604 44.2161 42.1686 43.5021L39.4695 42.8798L43.1392 41.7783C43.7024 42.5098 44.7921 43.5484 46.4516 43.5484C48.1111 43.5484 49.2008 42.5098 49.7641 41.7783L55.9953 43.6481ZM48.3871 40.3791C48.1471 40.7496 47.4803 41.6129 46.4516 41.6129C45.421 41.6129 44.7533 40.7458 44.5161 40.3791V39.392C45.1295 39.5758 45.7792 39.6774 46.4516 39.6774C47.124 39.6774 47.7738 39.5758 48.3871 39.392V40.3791ZM46.4516 37.7419C43.7837 37.7419 41.6129 35.5711 41.6129 32.9032V31.9355H42.1799C43.0229 31.9355 43.8281 31.6936 44.5161 31.2418C45.2041 31.6936 46.0093 31.9355 46.8523 31.9355H51.2903V32.9032C51.2903 35.5711 49.1195 37.7419 46.4516 37.7419ZM46.4516 25.1613C49.1195 25.1613 51.2903 27.3321 51.2903 30H46.8523C46.2376 30 45.6346 29.7505 45.2004 29.3158L44.5161 28.6316L43.8319 29.3158C43.3977 29.7505 42.7947 30 42.1799 30H41.6129C41.6129 27.3321 43.7837 25.1613 46.4516 25.1613ZM39.6774 28.1467C38.8212 27.4984 37.7575 27.0968 36.6079 27.0968H35.4369L34.2466 24.7162L33.3346 25.3238C31.5938 26.4844 29.5695 27.0968 27.4791 27.0968H23.3921C22.2425 27.0968 21.1788 27.4984 20.3226 28.1467V26.7154C20.3226 21.5904 24.4936 17.4194 29.6187 17.4194C32.1018 17.4194 34.4371 18.3862 36.1925 20.1416L37.2193 21.1684L37.4362 21.2412C38.7763 21.6882 39.6774 22.9376 39.6774 24.3504V28.1467ZM46.4516 1.93548C49.1195 1.93548 51.2903 4.10629 51.2903 6.77419H50.7233C50.1085 6.77419 49.5056 6.5247 49.0713 6.08997L48.3871 5.40575L47.7029 6.08997C47.2686 6.5247 46.6657 6.77419 46.0509 6.77419H41.6129C41.6129 4.10629 43.7837 1.93548 46.4516 1.93548ZM41.6129 9.67742V8.70968H46.0509C46.8939 8.70968 47.6991 8.46774 48.3871 8.016C49.0751 8.46774 49.8803 8.70968 50.7233 8.70968H51.2903V9.67742C51.2903 12.3453 49.1195 14.5161 46.4516 14.5161C43.7837 14.5161 41.6129 12.3453 41.6129 9.67742ZM46.4516 18.3871C45.421 18.3871 44.7533 17.52 44.5161 17.1533V16.1662C45.1295 16.35 45.7792 16.4516 46.4516 16.4516C47.124 16.4516 47.7738 16.35 48.3871 16.1662V17.1524C48.1471 17.5238 47.4803 18.3871 46.4516 18.3871Z" fill="white"/>
<path d="M22.2578 0H24.1933V1.93548H22.2578V0Z" fill="white"/>
<path d="M22.2578 3.87085H24.1933V14.516H22.2578V3.87085Z" fill="white"/>
<path d="M35.8066 0H37.7421V1.93548H35.8066V0Z" fill="white"/>
<path d="M35.8066 3.87085H37.7421V14.516H35.8066V3.87085Z" fill="white"/>
<path d="M26.1289 3.87085H28.0644V10.645H26.1289V3.87085Z" fill="white"/>
<path d="M26.1289 12.5806H28.0644V14.5161H26.1289V12.5806Z" fill="white"/>
<path d="M31.9355 3.87085H33.871V10.645H31.9355V3.87085Z" fill="white"/>
<path d="M31.9355 12.5806H33.871V14.5161H31.9355V12.5806Z" fill="white"/>
</g>
<defs>
<clipPath id="clip0_2_21472">
<rect width="60" height="60" fill="white"/>
</clipPath>
</defs>
</svg>
