<?xml version="1.0" standalone="no"?>
<!DOCTYPE svg PUBLIC "-//W3C//DTD SVG 20010904//EN"
 "http://www.w3.org/TR/2001/REC-SVG-20010904/DTD/svg10.dtd">
<svg version="1.0" xmlns="http://www.w3.org/2000/svg"
 width="195.000000pt" height="259.000000pt" viewBox="0 0 195.000000 259.000000"
 preserveAspectRatio="xMidYMid meet">

<g transform="translate(0.000000,259.000000) scale(0.100000,-0.100000)"
fill="#000000" stroke="none">
<path d="M555 2585 c-5 -2 -23 -6 -38 -9 -41 -10 -113 -81 -133 -132 -36 -93
6 -209 93 -261 52 -30 132 -41 176 -24 l29 11 -31 35 c-35 40 -45 81 -13 52
14 -13 92 -47 108 -47 2 0 15 19 29 43 52 90 42 188 -27 263 -49 53 -141 86
-193 69z"/>
<path d="M1385 2434 c-112 -41 -176 -181 -131 -289 14 -33 18 -35 60 -35 25 0
56 4 70 10 15 5 26 6 26 0 0 -11 -46 -47 -71 -55 -26 -9 -15 -23 35 -46 89
-40 193 -16 259 61 81 95 76 212 -13 301 -65 65 -149 84 -235 53z"/>
<path d="M331 1914 c-35 -75 -78 -176 -97 -223 -35 -86 -57 -129 -151 -291
-63 -109 -85 -164 -77 -196 14 -57 103 -85 144 -44 10 10 67 100 126 200 59
99 109 179 110 177 9 -9 -69 -501 -98 -618 l-32 -134 -4 -339 -3 -338 23 -25
c49 -53 130 -70 177 -37 47 33 51 63 51 371 1 285 1 289 29 398 l29 110 1
-150 c1 -148 2 -154 63 -413 l62 -262 38 -26 c76 -53 172 -35 203 39 l14 32 3
-54 c3 -57 21 -80 52 -68 14 6 16 53 17 509 1 277 4 514 8 528 5 18 16 27 41
32 19 3 45 9 56 13 17 5 28 -2 55 -34 18 -23 40 -41 49 -41 15 0 14 -14 -11
-148 -27 -142 -28 -158 -29 -478 0 -324 0 -331 21 -353 52 -56 135 -63 180
-15 24 25 24 26 30 322 6 272 9 306 32 400 14 57 28 106 31 110 3 3 6 -63 6
-147 l0 -152 67 -255 c62 -237 69 -257 96 -276 62 -44 165 -17 200 53 l17 36
-60 259 -61 259 -22 478 c-12 262 -21 477 -20 477 1 0 21 -26 43 -57 l42 -58
-7 -183 c-8 -204 -3 -224 55 -237 38 -8 97 11 110 35 6 11 10 110 10 231 l0
212 -80 154 c-91 176 -151 280 -181 311 l-20 22 -32 -23 c-18 -13 -48 -30 -67
-38 -50 -20 -154 -15 -219 10 -30 11 -56 19 -59 17 -2 -2 -25 -82 -53 -177
-42 -150 -64 -204 -154 -389 -70 -142 -105 -226 -105 -248 0 -18 -8 -45 -17
-59 -16 -24 -18 -70 -23 -468 l-5 -440 -62 240 -62 240 -16 250 c-16 262 -19
534 -8 771 l6 141 114 -53 c104 -49 121 -54 184 -54 l70 0 28 63 c52 115 54
107 -39 107 -76 0 -90 4 -245 65 l-163 65 -175 0 -174 0 -62 -136z m957 -611
c-10 -54 -23 -121 -29 -150 l-10 -52 -39 39 -39 39 62 110 c34 61 65 111 68
111 3 0 -3 -44 -13 -97z"/>
</g>
</svg>
