<svg width="216" height="50" viewBox="0 0 216 50" fill="none" xmlns="http://www.w3.org/2000/svg">
<path fill-rule="evenodd" clip-rule="evenodd" d="M50 25C50 29.2021 48.9633 33.162 47.1316 36.638C44.552 35.1794 41.438 34.0073 37.6773 33.3254C37.5224 33.2889 37.3715 33.2609 37.2273 33.2435C38.3276 32.5235 38.7782 30.5389 38.6703 28.9823C37.8837 29.0619 37.7373 29.5245 37.5997 29.9592C37.5243 30.1974 37.4516 30.4272 37.2777 30.581C36.8726 30.941 33.7157 30.8307 33.1212 30.6524L32.8767 29.8384C32.666 29.366 31.9637 29.325 31.2228 29.2816C30.8091 29.2574 30.3833 29.2325 30.0243 29.1314C29.8637 27.6494 29.1733 26.456 28.2816 26.4723C26.678 26.4982 26.7763 29.579 26.8722 31.0415L26.8747 31.0825C26.8851 31.2462 26.8992 31.4686 26.7955 31.5701C26.4575 30.7951 26.4191 29.3779 26.4551 28.4407L23.2886 28.7747C22.5503 28.9077 22.3993 28.7747 22.3658 28.4472L25.6617 28.0191C25.7676 27.9935 25.8629 27.9724 25.9491 27.9533C26.55 27.8202 26.7138 27.7839 26.9968 26.9814C27.2365 26.2971 27.5074 25.8983 27.9484 25.5286C28.8233 24.7924 30.1633 24.7697 31.1077 25.4507C31.9994 26.0896 32.3566 27.1338 32.7377 28.4926C32.776 27.6559 32.6082 26.109 32.3422 25.0032C31.9946 23.5504 31.5368 23.3299 30.4102 23.1353C29.9979 23.0639 29.5592 23.0348 29.1517 23.0218C28.912 23.0153 28.6364 23.0769 27.8861 24.1211C27.8861 24.1211 28.3967 23.158 28.2409 23.0121H26.7307C26.6639 23.0141 26.5976 23.0166 26.5321 23.019C25.473 23.0584 24.6129 23.0904 24.5926 21.3679L24.5922 21.3387V21.3386V21.3386V21.3386V21.3385V21.3385V21.3385V21.3384V21.3384V21.3384V21.3383V21.3383V21.3382V21.3382V21.3381V21.3381V21.338V21.338V21.3379V21.3379V21.3379V21.3378V21.3378V21.3377V21.3376V21.3376V21.3376V21.3375V21.3375V21.3374V21.3374V21.3373V21.3373V21.3372V21.3372V21.3372V21.3371V21.3371V21.337V21.3369V21.3369V21.3369V21.3368V21.3368V21.3367V21.3367V21.3366V21.3366V21.3366V21.3365V21.3365V21.3364C24.573 19.8858 24.5404 17.4272 24.6118 16.0171C26.4671 16.0041 28.2265 18.2709 28.9 20.181C28.5693 16.9348 25.7 14.2854 23.967 15.0507L23.9694 23.9752C23.9709 24.4021 23.9933 24.8355 24.0157 25.268C24.0289 25.5221 24.042 25.7759 24.0509 26.028C24.0748 26.6279 24.1156 26.8744 24.7076 27.2279C24.2234 27.1727 23.955 27.0852 23.816 26.1836V24.2606L23.8158 24.2606V21.436L23.2022 22.2402V24.3422L22.9962 24.3696V22.0391L23.4612 21.3582V18.7898V15.5663L23.0249 14.8691V13.1536C23.0249 12.8228 22.9027 12.5407 22.6893 12.3785L22.3418 12.1191V14.8691L22.0158 15.348V11.4673H27.8789V11.2143C27.8789 10.3776 27.4235 9.67718 26.805 9.57665L20.2444 8.5V11.4673V24.7354L0.114791 27.4113C0.0695842 26.9389 0.0375217 26.4627 0.0189738 25.9831L18.4777 22.1754C18.9356 22.0424 19.2975 21.2803 19.2999 20.4502C19.3059 18.1234 19.3095 16.3138 19.3131 14.5043C19.3167 12.6947 19.3203 10.8852 19.3263 8.55836L1.11191 17.6046C4.26511 7.40784 13.7675 0 25 0C38.8071 0 50 11.1929 50 25ZM33.6701 33.7494C34.1956 33.7622 40.3292 34.5813 46.2082 38.2431C41.7899 45.3039 33.9434 50 25 50C24.8559 50 24.7121 49.9988 24.5686 49.9964C22.5355 44.776 17.1641 36.4576 3.21255 33.3235L15.688 33.598C17.3505 34.024 19.3464 34.66 21.4573 35.5233L23.327 34.3266C22.7687 34.1159 22.1976 33.9159 21.6142 33.7284L21.6826 33.7299H30.6331C31.6145 33.733 32.6453 33.7407 33.671 33.7488L33.6701 33.7494ZM1.83405 34.4164C5.15496 42.5782 12.6639 48.5898 21.6926 49.7832C18.0786 40.4622 8.4191 36.2364 1.83405 34.4164ZM17.7083 19.0752L0.000847136 25.208C0.000282742 25.1387 0 25.0694 0 25C0 24.1582 0.0416065 23.3261 0.122875 22.5057L17.7155 17.324L17.7083 19.0752ZM17.8042 14.2108L0.224706 21.6337C0.359698 20.6307 0.554164 19.6466 0.804439 18.685L17.809 12.4758L17.8042 14.2108ZM26.1003 29.0698L22.6798 29.3649L22.615 29.3714L22.6126 29.4622L22.6126 29.4626C22.612 29.4888 22.5806 30.8256 23.5763 30.9799C24.4882 31.1184 26.1161 31.0644 26.2154 31.0611H26.2154L26.2202 31.061C25.7263 30.9614 25.2361 30.9285 24.7476 30.8958L24.7475 30.8958L24.7475 30.8958L24.7474 30.8958L24.7474 30.8958L24.7473 30.8958L24.7473 30.8957L24.7472 30.8957L24.7472 30.8957L24.7471 30.8957L24.7471 30.8957L24.747 30.8957L24.747 30.8957L24.7469 30.8957L24.7469 30.8957L24.7468 30.8957L24.7468 30.8957L24.7467 30.8957L24.7467 30.8957L24.7466 30.8957L24.7466 30.8957L24.7465 30.8957L24.7465 30.8957L24.7464 30.8957L24.7463 30.8956L24.7463 30.8956L24.7462 30.8956L24.7462 30.8956L24.7461 30.8956L24.7461 30.8956L24.746 30.8956L24.746 30.8956L24.7459 30.8956L24.7459 30.8956L24.7458 30.8956L24.7458 30.8956L24.7457 30.8956L24.7457 30.8956L24.7456 30.8956L24.7456 30.8956L24.7455 30.8956L24.7455 30.8955L24.7454 30.8955L24.7454 30.8955L24.7453 30.8955L24.7453 30.8955L24.7452 30.8955L24.7452 30.8955L24.7451 30.8955L24.7451 30.8955L24.745 30.8955L24.745 30.8955C24.3595 30.8697 23.9751 30.844 23.5906 30.7853C22.9688 30.6882 22.9883 30.0586 22.9992 29.7044C23.0011 29.6449 23.0027 29.5931 23.001 29.553C23.8133 29.4808 24.4774 29.3602 25.2035 29.2282L25.2035 29.2282L25.2036 29.2282L25.2036 29.2282L25.2038 29.2282L25.204 29.2281L25.2041 29.2281L25.2044 29.2281C25.4892 29.1763 25.7837 29.1228 26.1003 29.0698ZM32.5483 30.9442L32.3757 30.1368L30.6667 29.9292C31.0238 30.8697 31.9227 31.0156 32.5483 30.9442ZM28.0323 27.3284C27.5385 27.3284 27.1358 28.3985 27.1358 29.7152C27.1358 31.035 27.5361 32.1117 28.0323 32.102C29.6527 32.0825 29.5664 27.3057 28.0323 27.3284ZM36.6281 30.3248C35.9162 30.4708 34.6577 30.4773 33.9027 30.3313C33.2962 30.2178 33.2243 30.1919 33.1452 29.3909L32.685 24.7697C32.6412 24.3316 32.6496 24.146 32.7683 24.04L32.764 24.0401C32.764 24.0401 32.1576 22.8561 30.76 22.4975C30.6736 22.4898 30.5895 22.4819 30.5084 22.4737C29.7437 22.3959 29.7174 22.3278 29.5208 21.3939L28.8664 18.3098C29.9689 18.3426 31.0676 18.4109 32.168 18.4793C32.5917 18.5056 33.0155 18.532 33.4399 18.5563C33.5238 18.5614 33.6034 18.5651 33.6791 18.5687C34.3689 18.6008 34.7391 18.618 35.1754 19.5648C35.5728 20.4264 35.8076 21.7182 35.7987 22.5938L37.177 23.9907C37.296 24.0551 37.3386 24.1549 37.3544 24.3903H37.3927V24.5752H37.3617C37.363 24.6365 37.3636 24.7043 37.364 24.7794L37.3645 24.8703H37.3663V25.0584L37.3653 24.9816C37.368 25.3 37.3732 25.6166 37.3783 25.932C37.3964 27.0405 37.4142 28.133 37.3232 29.2255C37.2537 30.0557 37.2226 30.2049 36.6281 30.3248ZM28.5501 17.4667C27.5793 15.6539 26.9633 14.5059 24.2474 14.227L24.296 14.2207C24.2317 14.1836 23.9107 13.9844 23.859 13.6725C23.7991 13.3255 23.859 12.5537 23.859 12.5537C23.859 12.5537 25.7503 12.4207 27.4066 12.6866C29.063 12.9525 29.9906 13.533 30.5084 14.5708L29.9115 14.5545L29.8976 14.556C31.599 15.0814 33.1801 16.1321 34.0249 18.1217L29.087 17.8785C29.087 17.8785 28.7251 17.9174 28.5501 17.4667ZM29.3674 26.0539C30.9326 26.3328 31.9873 26.7868 32.2438 28.9791C31.1813 28.9476 31.1767 28.9351 31.083 28.6807C31.0319 28.5419 30.9543 28.3312 30.6642 28.0062C30.5189 27.8433 30.4078 27.7405 30.3118 27.6517C30.0293 27.3903 29.8773 27.2496 29.3674 26.0539ZM37.6611 28.7715C38.0974 28.6677 38.3778 28.2786 38.5313 27.7889C38.4665 27.1306 37.9943 26.5112 37.6731 26.4042L37.6611 28.7715ZM28.0323 28.3402C27.934 28.3402 27.8429 28.4116 27.7638 28.5413H27.771C28.0155 28.5413 28.2121 29.0666 28.2121 29.7184C28.2121 30.3703 28.0131 30.8956 27.771 30.8956H27.7638C27.8405 31.0221 27.934 31.0934 28.0323 31.0934C28.3175 31.0934 28.5476 30.4773 28.5476 29.7184C28.5476 28.9564 28.3175 28.3402 28.0323 28.3402ZM24.9857 16.6559C26.9369 17.7585 28.471 19.2957 29.0606 22.331L26.69 22.2435H26.6756H26.6708C26.6252 22.2435 26.5821 22.2402 26.5413 22.2338L26.2151 22.2093C25.9723 22.191 25.7224 22.1721 25.7144 22.1721C24.9282 22.13 24.9857 21.3225 24.9857 21.3225V16.6559ZM27.8837 29.1509C27.8046 29.1509 27.7422 29.3876 27.7422 29.6795C27.7422 29.9714 27.8046 30.2081 27.8837 30.2081C27.9604 30.2081 28.0227 29.9746 28.0227 29.6795C28.0251 29.3844 27.9628 29.1509 27.8837 29.1509ZM35.8466 46.186C34.7392 44.5094 33.3585 43.0079 31.822 41.6751L33.7013 40.4719C35.5135 42.0383 36.9541 43.6468 37.98 45.1223L35.8466 46.186ZM30.4533 40.5595C29.5041 39.8363 28.5141 39.1651 27.5026 38.5489L29.4106 37.3231C30.4605 37.9749 31.4361 38.6559 32.3374 39.3531L30.4533 40.5595ZM25.8678 37.6084C25.0145 37.1447 24.1563 36.7199 23.3078 36.3275L25.2158 35.1049C26.1099 35.5038 26.9681 35.9319 27.7878 36.3794L25.8678 37.6084Z" fill="#F68B21"/>
<path d="M62.5284 40V10.9091H68.679V34.929H81.1506V40H62.5284ZM94.968 40.4261C92.7616 40.4261 90.8535 39.9574 89.2436 39.0199C87.6432 38.0729 86.4074 36.7566 85.5362 35.071C84.665 33.3759 84.2294 31.411 84.2294 29.1761C84.2294 26.9223 84.665 24.9527 85.5362 23.267C86.4074 21.572 87.6432 20.2557 89.2436 19.3182C90.8535 18.3712 92.7616 17.8977 94.968 17.8977C97.1745 17.8977 99.0779 18.3712 100.678 19.3182C102.288 20.2557 103.529 21.572 104.4 23.267C105.271 24.9527 105.707 26.9223 105.707 29.1761C105.707 31.411 105.271 33.3759 104.4 35.071C103.529 36.7566 102.288 38.0729 100.678 39.0199C99.0779 39.9574 97.1745 40.4261 94.968 40.4261ZM94.9964 35.7386C96.0002 35.7386 96.8383 35.4545 97.5107 34.8864C98.183 34.3087 98.6896 33.5227 99.0305 32.5284C99.3809 31.5341 99.5561 30.4025 99.5561 29.1335C99.5561 27.8646 99.3809 26.733 99.0305 25.7386C98.6896 24.7443 98.183 23.9583 97.5107 23.3807C96.8383 22.803 96.0002 22.5142 94.9964 22.5142C93.9832 22.5142 93.1309 22.803 92.4396 23.3807C91.7578 23.9583 91.2417 24.7443 90.8913 25.7386C90.5504 26.733 90.38 27.8646 90.38 29.1335C90.38 30.4025 90.5504 31.5341 90.8913 32.5284C91.2417 33.5227 91.7578 34.3087 92.4396 34.8864C93.1309 35.4545 93.9832 35.7386 94.9964 35.7386ZM119.471 48.6364C117.511 48.6364 115.83 48.3665 114.428 47.8267C113.036 47.2964 111.928 46.572 111.104 45.6534C110.281 44.7348 109.746 43.7027 109.499 42.5568L115.096 41.804C115.266 42.2396 115.536 42.6468 115.906 43.0256C116.275 43.4044 116.763 43.7074 117.369 43.9347C117.984 44.1714 118.732 44.2898 119.613 44.2898C120.929 44.2898 122.013 43.9678 122.866 43.3239C123.728 42.6894 124.158 41.6241 124.158 40.1278V36.1364H123.903C123.638 36.7424 123.24 37.3153 122.71 37.8551C122.179 38.3949 121.497 38.8352 120.664 39.1761C119.831 39.517 118.836 39.6875 117.681 39.6875C116.043 39.6875 114.551 39.3087 113.207 38.5511C111.871 37.7841 110.806 36.6146 110.011 35.0426C109.225 33.4612 108.832 31.4631 108.832 29.0483C108.832 26.5767 109.234 24.5123 110.039 22.8551C110.844 21.1979 111.914 19.9574 113.249 19.1335C114.594 18.3097 116.067 17.8977 117.667 17.8977C118.888 17.8977 119.911 18.1061 120.735 18.5227C121.559 18.9299 122.222 19.4413 122.724 20.0568C123.235 20.6629 123.628 21.2595 123.903 21.8466H124.13V18.1818H130.138V40.2131C130.138 42.0691 129.684 43.6222 128.775 44.8722C127.866 46.1222 126.606 47.0597 124.996 47.6847C123.396 48.3191 121.554 48.6364 119.471 48.6364ZM119.599 35.142C120.574 35.142 121.398 34.9006 122.07 34.4176C122.752 33.9252 123.273 33.2244 123.633 32.3153C124.002 31.3968 124.187 30.2983 124.187 29.0199C124.187 27.7415 124.007 26.6335 123.647 25.696C123.287 24.7491 122.766 24.0152 122.085 23.4943C121.403 22.9735 120.574 22.7131 119.599 22.7131C118.604 22.7131 117.766 22.983 117.085 23.5227C116.403 24.053 115.887 24.7917 115.536 25.7386C115.186 26.6856 115.011 27.7794 115.011 29.0199C115.011 30.2794 115.186 31.3684 115.536 32.2869C115.896 33.196 116.412 33.9015 117.085 34.4034C117.766 34.8958 118.604 35.142 119.599 35.142ZM134.954 40V18.1818H141.005V40H134.954ZM137.994 15.3693C137.094 15.3693 136.322 15.071 135.678 14.4744C135.044 13.8684 134.727 13.1439 134.727 12.3011C134.727 11.4678 135.044 10.7528 135.678 10.1562C136.322 9.55019 137.094 9.24716 137.994 9.24716C138.893 9.24716 139.66 9.55019 140.295 10.1562C140.939 10.7528 141.261 11.4678 141.261 12.3011C141.261 13.1439 140.939 13.8684 140.295 14.4744C139.66 15.071 138.893 15.3693 137.994 15.3693ZM164.006 24.4034L158.466 24.7443C158.371 24.2708 158.168 23.8447 157.855 23.4659C157.543 23.0777 157.131 22.7699 156.619 22.5426C156.117 22.3059 155.516 22.1875 154.815 22.1875C153.878 22.1875 153.087 22.3864 152.443 22.7841C151.799 23.1723 151.477 23.6932 151.477 24.3466C151.477 24.8674 151.686 25.3078 152.102 25.6676C152.519 26.0275 153.234 26.3163 154.247 26.5341L158.196 27.3295C160.317 27.7652 161.899 28.4659 162.94 29.4318C163.982 30.3977 164.503 31.6667 164.503 33.2386C164.503 34.6686 164.081 35.9233 163.239 37.0028C162.405 38.0824 161.259 38.9252 159.801 39.5312C158.352 40.1278 156.681 40.4261 154.787 40.4261C151.899 40.4261 149.598 39.8248 147.884 38.6222C146.179 37.41 145.18 35.7623 144.886 33.679L150.838 33.3665C151.018 34.2472 151.454 34.9195 152.145 35.3835C152.836 35.8381 153.722 36.0653 154.801 36.0653C155.862 36.0653 156.714 35.8617 157.358 35.4545C158.011 35.0379 158.343 34.5028 158.352 33.8494C158.343 33.3002 158.111 32.8504 157.656 32.5C157.202 32.1402 156.501 31.8655 155.554 31.6761L151.776 30.9233C149.645 30.4972 148.059 29.7585 147.017 28.7074C145.985 27.6562 145.469 26.3163 145.469 24.6875C145.469 23.286 145.848 22.0786 146.605 21.0653C147.372 20.0521 148.447 19.2708 149.83 18.7216C151.222 18.1723 152.85 17.8977 154.716 17.8977C157.472 17.8977 159.64 18.4801 161.222 19.6449C162.813 20.8097 163.741 22.3958 164.006 24.4034ZM179.918 18.1818V22.7273H166.779V18.1818H179.918ZM169.762 12.9545H175.813V33.2955C175.813 33.8542 175.898 34.2898 176.069 34.6023C176.239 34.9053 176.476 35.1184 176.779 35.2415C177.092 35.3646 177.451 35.4261 177.859 35.4261C178.143 35.4261 178.427 35.4025 178.711 35.3551C178.995 35.2983 179.213 35.2557 179.364 35.2273L180.316 39.7301C180.013 39.8248 179.587 39.9337 179.038 40.0568C178.488 40.1894 177.821 40.2699 177.035 40.2983C175.576 40.3551 174.298 40.161 173.2 39.7159C172.111 39.2708 171.263 38.5795 170.657 37.642C170.051 36.7045 169.753 35.5208 169.762 34.0909V12.9545ZM183.86 40V18.1818H189.911V40H183.86ZM186.9 15.3693C186 15.3693 185.228 15.071 184.585 14.4744C183.95 13.8684 183.633 13.1439 183.633 12.3011C183.633 11.4678 183.95 10.7528 184.585 10.1562C185.228 9.55019 186 9.24716 186.9 9.24716C187.799 9.24716 188.567 9.55019 189.201 10.1562C189.845 10.7528 190.167 11.4678 190.167 12.3011C190.167 13.1439 189.845 13.8684 189.201 14.4744C188.567 15.071 187.799 15.3693 186.9 15.3693ZM200.241 33.7216L200.256 26.4631H201.136L208.125 18.1818H215.071L205.682 29.1477H204.247L200.241 33.7216ZM194.759 40V10.9091H200.81V40H194.759ZM208.395 40L201.974 30.4972L206.009 26.2216L215.483 40H208.395Z" fill="#121212"/>
</svg>
