<svg width="216" height="50" viewBox="0 0 216 50" fill="none" xmlns="http://www.w3.org/2000/svg">
<circle cx="25" cy="25" r="25" fill="white"/>
<path fill-rule="evenodd" clip-rule="evenodd" d="M50 25C50 29.202 48.9633 33.1619 47.1317 36.6379C44.5502 35.1782 41.4336 34.0055 37.6693 33.3239C37.5172 33.2882 37.369 33.2609 37.2273 33.2438C38.3275 32.5238 38.7782 30.5392 38.6703 28.9826C37.8837 29.0622 37.7373 29.5248 37.5997 29.9595C37.5243 30.1977 37.4516 30.4275 37.2776 30.5813C36.8725 30.9413 33.7157 30.831 33.1212 30.6527L32.8767 29.8387C32.666 29.3663 31.9637 29.3253 31.2228 29.2819C30.809 29.2577 30.3832 29.2328 30.0242 29.1317C29.8636 27.6497 29.1733 26.4563 28.2816 26.4726C26.678 26.4985 26.7763 29.5793 26.8721 31.0418L26.8747 31.0828C26.885 31.2465 26.8991 31.4689 26.7954 31.5704C26.4575 30.7954 26.4191 29.3782 26.4551 28.441L23.2886 28.775C22.5503 28.908 22.3993 28.775 22.3657 28.4475L25.6616 28.0194C25.7676 27.9938 25.8628 27.9727 25.9491 27.9536L25.9491 27.9536C26.55 27.8205 26.7138 27.7842 26.9968 26.9817C27.2365 26.2974 27.5074 25.8986 27.9484 25.5289C28.8233 24.7927 30.1633 24.77 31.1077 25.451C31.9994 26.0899 32.3565 27.1341 32.7377 28.4929C32.776 27.6562 32.6082 26.1093 32.3422 25.0035C31.9946 23.5507 31.5368 23.3302 30.4102 23.1356C29.9979 23.0642 29.5592 23.0351 29.1517 23.0221C28.912 23.0156 28.6364 23.0772 27.8861 24.1214C27.8861 24.1214 28.3967 23.1583 28.2408 23.0124H26.7307C26.6918 23.0136 26.6532 23.0149 26.6147 23.0163L26.5321 23.0193C25.4729 23.0587 24.6129 23.0907 24.5926 21.3682L24.5922 21.339V21.3389V21.3389V21.3389V21.3388V21.3388V21.3388V21.3388V21.3387V21.3387V21.3386V21.3386V21.3385V21.3385V21.3385V21.3384V21.3383V21.3383V21.3383V21.3382V21.3382V21.3381V21.3381V21.338V21.338V21.3379V21.3379V21.3378V21.3378V21.3378V21.3377V21.3377V21.3376V21.3376V21.3375V21.3375V21.3375V21.3374V21.3374V21.3373V21.3372V21.3372V21.3372V21.3371V21.3371V21.3371V21.337V21.337V21.3369V21.3369V21.3368V21.3368C24.5729 19.8861 24.5403 17.4276 24.6117 16.0174C26.467 16.0044 28.2265 18.2712 28.9 20.1813C28.5692 16.9351 25.7 14.2857 23.9669 15.051L23.9693 23.9755C23.9709 24.4024 23.9933 24.8358 24.0157 25.2682L24.0157 25.2683L24.0157 25.2687C24.0288 25.5227 24.042 25.7764 24.0508 26.0283C24.0748 26.6282 24.1156 26.8747 24.7076 27.2282C24.2234 27.173 23.955 27.0855 23.8159 26.1839V24.2609L23.8157 24.2609V21.4361L23.202 22.2404V24.3425L22.9961 24.3699V22.0393L22.9961 22.0393L23.4612 21.3583V18.7899V15.5665L23.0249 14.8692V13.1537C23.0249 12.823 22.9026 12.5408 22.6893 12.3787L22.3417 12.1192V14.8692L22.0158 15.348V11.4674H27.8789V11.2144C27.8789 10.3777 27.4235 9.67727 26.8051 9.57674L20.2444 8.50009V11.4674V24.7357L0.114819 27.4116C0.0696073 26.9392 0.0375395 26.463 0.018986 25.9834L18.4777 22.1757C18.9356 22.0427 19.2975 21.2807 19.2999 20.4505C19.3059 18.1249 19.3095 16.316 19.3131 14.5075V14.5062V14.5055C19.3167 12.6957 19.3203 10.8859 19.3263 8.55868L1.1118 17.6049C4.26488 7.40802 13.7673 0 25 0C38.8071 0 50 11.1929 50 25ZM33.6702 33.7493C34.1958 33.7621 40.3293 34.5812 46.2083 38.2429C41.79 45.3038 33.9434 50 25 50C24.8558 50 24.712 49.9988 24.5684 49.9963C22.5353 44.776 17.1639 36.4579 3.21282 33.3238L15.6868 33.5983C17.3495 34.0243 19.3459 34.6604 21.4573 35.5238L23.327 34.3272C22.7684 34.1164 22.197 33.9163 21.6133 33.7287L21.6826 33.7302H30.6331C31.6143 33.7333 32.6449 33.741 33.6705 33.7491L33.6702 33.7493ZM1.83416 34.4167C5.15511 42.5783 12.6639 48.5898 21.6924 49.7831C18.0784 40.4624 8.41915 36.2367 1.83416 34.4167ZM17.7083 19.0755L0.000849711 25.2083C0.000283602 25.1389 0 25.0695 0 25C0 24.1583 0.0415955 23.3263 0.122843 22.506L17.7155 17.3243L17.7083 19.0755ZM17.8042 14.2111L0.224661 21.634C0.359638 20.631 0.554089 19.6469 0.804348 18.6853L17.809 12.4761L17.8042 14.2111ZM26.1003 29.0701L22.6797 29.3652L22.615 29.3717L22.6126 29.4625L22.6126 29.4629C22.612 29.4891 22.5805 30.8259 23.5762 30.9802C24.4882 31.1187 26.1161 31.0647 26.2154 31.0614H26.2154L26.2202 31.0613C25.7262 30.9617 25.2361 30.9288 24.7476 30.8961C24.3612 30.8702 23.9759 30.8444 23.5906 30.7856C22.9688 30.6885 22.9883 30.0589 22.9992 29.7047C23.0011 29.6452 23.0027 29.5934 23.0009 29.5533C23.8134 29.4811 24.4775 29.3605 25.2036 29.2285L25.2036 29.2285L25.2038 29.2285L25.2041 29.2284C25.489 29.1766 25.7835 29.1231 26.1003 29.0701ZM32.5483 30.9445L32.3757 30.1371L30.6666 29.9295C31.0238 30.87 31.9227 31.0159 32.5483 30.9445ZM28.0323 27.3287C27.5385 27.3287 27.1358 28.3988 27.1358 29.7155C27.1358 31.0353 27.5361 32.112 28.0323 32.1023C29.6527 32.0828 29.5664 27.306 28.0323 27.3287ZM36.628 30.3252C35.9161 30.4711 34.6577 30.4776 33.9026 30.3316C33.2962 30.2181 33.2242 30.1922 33.1451 29.3912L32.6849 24.77C32.6411 24.3322 32.6495 24.1465 32.768 24.0406L32.764 24.0406C32.764 24.0406 32.1572 22.856 30.7587 22.4977C30.6727 22.4901 30.5891 22.4822 30.5083 22.4741C29.7437 22.3962 29.7173 22.3281 29.5208 21.3942L28.8664 18.3102C29.9689 18.3429 31.0676 18.4112 32.168 18.4796C32.5916 18.5059 33.0155 18.5323 33.4399 18.5566C33.5238 18.5618 33.6033 18.5655 33.679 18.569C34.3689 18.6011 34.739 18.6183 35.1754 19.5652C35.5728 20.4268 35.8076 21.7188 35.7986 22.5943L37.1765 23.9908C37.2957 24.0552 37.3384 24.1548 37.3543 24.3902H37.3926V24.5751H37.3616C37.3629 24.6365 37.3635 24.7044 37.3639 24.7798L37.3644 24.8702H37.3663V25.0583L37.3651 24.9696C37.3678 25.2921 37.373 25.6129 37.3782 25.9323C37.3963 27.0408 37.4141 28.1333 37.3232 29.2258C37.2536 30.056 37.2225 30.2052 36.628 30.3252ZM28.5502 17.4669C27.5794 15.6541 26.9633 14.5061 24.2475 14.2272L24.2962 14.221C24.2321 14.184 23.9108 13.9847 23.8591 13.6727C23.7992 13.3257 23.8591 12.5538 23.8591 12.5538C23.8591 12.5538 25.7504 12.4209 27.4067 12.6868C29.0631 12.9527 29.9907 13.5332 30.5085 14.5709L29.9116 14.5547L29.8975 14.5562C31.5989 15.0816 33.1801 16.1323 34.025 18.122L29.0871 17.8788C29.0871 17.8788 28.7252 17.9177 28.5502 17.4669ZM29.3674 26.0538C30.9327 26.3327 31.9874 26.7867 32.2438 28.9789C31.1813 28.9474 31.1767 28.935 31.083 28.6805C31.0319 28.5418 30.9543 28.3311 30.6642 28.006C30.519 27.8432 30.4079 27.7405 30.3119 27.6517L30.3118 27.6516L30.3118 27.6516C30.0293 27.3902 29.8773 27.2495 29.3674 26.0538ZM37.6611 28.7717C38.0974 28.6679 38.3778 28.2788 38.5313 27.7891C38.4665 27.1308 37.9943 26.5114 37.6731 26.4044L37.6611 28.7717ZM28.0324 28.3404C27.9341 28.3404 27.843 28.4118 27.7639 28.5415H27.7711C28.0156 28.5415 28.2122 29.0668 28.2122 29.7187C28.2122 30.3705 28.0132 30.8958 27.7711 30.8958H27.7639C27.8406 31.0223 27.9341 31.0937 28.0324 31.0937C28.3177 31.0937 28.5478 30.4775 28.5478 29.7187C28.5478 28.9566 28.3177 28.3404 28.0324 28.3404ZM24.9857 16.6558C26.9369 17.7584 28.471 19.2956 29.0607 22.331L26.69 22.2434H26.6756H26.6709C26.6253 22.2434 26.5822 22.2402 26.5414 22.2337L26.2145 22.2091C25.9718 22.1908 25.7224 22.1721 25.7144 22.1721C24.9282 22.1299 24.9857 21.3224 24.9857 21.3224V16.6558ZM27.8837 29.151C27.8046 29.151 27.7422 29.3877 27.7422 29.6796C27.7422 29.9714 27.8046 30.2082 27.8837 30.2082C27.9604 30.2082 28.0227 29.9747 28.0227 29.6796C28.0251 29.3845 27.9628 29.151 27.8837 29.151ZM35.8466 46.1866C34.7392 44.51 33.3585 43.0085 31.822 41.6757L33.7013 40.4725C35.5135 42.0389 36.9541 43.6473 37.98 45.1229L35.8466 46.1866ZM30.4533 40.5601C29.5041 39.8369 28.5141 39.1656 27.5026 38.5495L29.4106 37.3237C30.4605 37.9755 31.4361 38.6565 32.3374 39.3537L30.4533 40.5601ZM25.8678 37.609C25.0145 37.1453 24.1563 36.7205 23.3078 36.3281L25.2158 35.1055C26.1099 35.5044 26.9681 35.9324 27.7878 36.38L25.8678 37.609Z" fill="#1037B6"/>
<path d="M62.5284 40V10.9091H68.679V34.929H81.1506V40H62.5284ZM94.968 40.4261C92.7616 40.4261 90.8535 39.9574 89.2436 39.0199C87.6432 38.0729 86.4074 36.7566 85.5362 35.071C84.665 33.3759 84.2294 31.411 84.2294 29.1761C84.2294 26.9223 84.665 24.9527 85.5362 23.267C86.4074 21.572 87.6432 20.2557 89.2436 19.3182C90.8535 18.3712 92.7616 17.8977 94.968 17.8977C97.1745 17.8977 99.0779 18.3712 100.678 19.3182C102.288 20.2557 103.529 21.572 104.4 23.267C105.271 24.9527 105.707 26.9223 105.707 29.1761C105.707 31.411 105.271 33.3759 104.4 35.071C103.529 36.7566 102.288 38.0729 100.678 39.0199C99.0779 39.9574 97.1745 40.4261 94.968 40.4261ZM94.9964 35.7386C96.0002 35.7386 96.8383 35.4545 97.5107 34.8864C98.183 34.3087 98.6896 33.5227 99.0305 32.5284C99.3809 31.5341 99.5561 30.4025 99.5561 29.1335C99.5561 27.8646 99.3809 26.733 99.0305 25.7386C98.6896 24.7443 98.183 23.9583 97.5107 23.3807C96.8383 22.803 96.0002 22.5142 94.9964 22.5142C93.9832 22.5142 93.1309 22.803 92.4396 23.3807C91.7578 23.9583 91.2417 24.7443 90.8913 25.7386C90.5504 26.733 90.38 27.8646 90.38 29.1335C90.38 30.4025 90.5504 31.5341 90.8913 32.5284C91.2417 33.5227 91.7578 34.3087 92.4396 34.8864C93.1309 35.4545 93.9832 35.7386 94.9964 35.7386ZM119.471 48.6364C117.511 48.6364 115.83 48.3665 114.428 47.8267C113.036 47.2964 111.928 46.572 111.104 45.6534C110.281 44.7348 109.746 43.7027 109.499 42.5568L115.096 41.804C115.266 42.2396 115.536 42.6468 115.906 43.0256C116.275 43.4044 116.763 43.7074 117.369 43.9347C117.984 44.1714 118.732 44.2898 119.613 44.2898C120.929 44.2898 122.013 43.9678 122.866 43.3239C123.728 42.6894 124.158 41.6241 124.158 40.1278V36.1364H123.903C123.638 36.7424 123.24 37.3153 122.71 37.8551C122.179 38.3949 121.497 38.8352 120.664 39.1761C119.831 39.517 118.836 39.6875 117.681 39.6875C116.043 39.6875 114.551 39.3087 113.207 38.5511C111.871 37.7841 110.806 36.6146 110.011 35.0426C109.225 33.4612 108.832 31.4631 108.832 29.0483C108.832 26.5767 109.234 24.5123 110.039 22.8551C110.844 21.1979 111.914 19.9574 113.249 19.1335C114.594 18.3097 116.067 17.8977 117.667 17.8977C118.888 17.8977 119.911 18.1061 120.735 18.5227C121.559 18.9299 122.222 19.4413 122.724 20.0568C123.235 20.6629 123.628 21.2595 123.903 21.8466H124.13V18.1818H130.138V40.2131C130.138 42.0691 129.684 43.6222 128.775 44.8722C127.866 46.1222 126.606 47.0597 124.996 47.6847C123.396 48.3191 121.554 48.6364 119.471 48.6364ZM119.599 35.142C120.574 35.142 121.398 34.9006 122.07 34.4176C122.752 33.9252 123.273 33.2244 123.633 32.3153C124.002 31.3968 124.187 30.2983 124.187 29.0199C124.187 27.7415 124.007 26.6335 123.647 25.696C123.287 24.7491 122.766 24.0152 122.085 23.4943C121.403 22.9735 120.574 22.7131 119.599 22.7131C118.604 22.7131 117.766 22.983 117.085 23.5227C116.403 24.053 115.887 24.7917 115.536 25.7386C115.186 26.6856 115.011 27.7794 115.011 29.0199C115.011 30.2794 115.186 31.3684 115.536 32.2869C115.896 33.196 116.412 33.9015 117.085 34.4034C117.766 34.8958 118.604 35.142 119.599 35.142ZM134.954 40V18.1818H141.005V40H134.954ZM137.994 15.3693C137.094 15.3693 136.322 15.071 135.678 14.4744C135.044 13.8684 134.727 13.1439 134.727 12.3011C134.727 11.4678 135.044 10.7528 135.678 10.1562C136.322 9.55019 137.094 9.24716 137.994 9.24716C138.893 9.24716 139.66 9.55019 140.295 10.1562C140.939 10.7528 141.261 11.4678 141.261 12.3011C141.261 13.1439 140.939 13.8684 140.295 14.4744C139.66 15.071 138.893 15.3693 137.994 15.3693ZM164.006 24.4034L158.466 24.7443C158.371 24.2708 158.168 23.8447 157.855 23.4659C157.543 23.0777 157.131 22.7699 156.619 22.5426C156.117 22.3059 155.516 22.1875 154.815 22.1875C153.878 22.1875 153.087 22.3864 152.443 22.7841C151.799 23.1723 151.477 23.6932 151.477 24.3466C151.477 24.8674 151.686 25.3078 152.102 25.6676C152.519 26.0275 153.234 26.3163 154.247 26.5341L158.196 27.3295C160.317 27.7652 161.899 28.4659 162.94 29.4318C163.982 30.3977 164.503 31.6667 164.503 33.2386C164.503 34.6686 164.081 35.9233 163.239 37.0028C162.405 38.0824 161.259 38.9252 159.801 39.5312C158.352 40.1278 156.681 40.4261 154.787 40.4261C151.899 40.4261 149.598 39.8248 147.884 38.6222C146.179 37.41 145.18 35.7623 144.886 33.679L150.838 33.3665C151.018 34.2472 151.454 34.9195 152.145 35.3835C152.836 35.8381 153.722 36.0653 154.801 36.0653C155.862 36.0653 156.714 35.8617 157.358 35.4545C158.011 35.0379 158.343 34.5028 158.352 33.8494C158.343 33.3002 158.111 32.8504 157.656 32.5C157.202 32.1402 156.501 31.8655 155.554 31.6761L151.776 30.9233C149.645 30.4972 148.059 29.7585 147.017 28.7074C145.985 27.6562 145.469 26.3163 145.469 24.6875C145.469 23.286 145.848 22.0786 146.605 21.0653C147.372 20.0521 148.447 19.2708 149.83 18.7216C151.222 18.1723 152.85 17.8977 154.716 17.8977C157.472 17.8977 159.64 18.4801 161.222 19.6449C162.813 20.8097 163.741 22.3958 164.006 24.4034ZM179.918 18.1818V22.7273H166.779V18.1818H179.918ZM169.762 12.9545H175.813V33.2955C175.813 33.8542 175.898 34.2898 176.069 34.6023C176.239 34.9053 176.476 35.1184 176.779 35.2415C177.092 35.3646 177.451 35.4261 177.859 35.4261C178.143 35.4261 178.427 35.4025 178.711 35.3551C178.995 35.2983 179.213 35.2557 179.364 35.2273L180.316 39.7301C180.013 39.8248 179.587 39.9337 179.038 40.0568C178.488 40.1894 177.821 40.2699 177.035 40.2983C175.576 40.3551 174.298 40.161 173.2 39.7159C172.111 39.2708 171.263 38.5795 170.657 37.642C170.051 36.7045 169.753 35.5208 169.762 34.0909V12.9545ZM183.86 40V18.1818H189.911V40H183.86ZM186.9 15.3693C186 15.3693 185.228 15.071 184.585 14.4744C183.95 13.8684 183.633 13.1439 183.633 12.3011C183.633 11.4678 183.95 10.7528 184.585 10.1562C185.228 9.55019 186 9.24716 186.9 9.24716C187.799 9.24716 188.567 9.55019 189.201 10.1562C189.845 10.7528 190.167 11.4678 190.167 12.3011C190.167 13.1439 189.845 13.8684 189.201 14.4744C188.567 15.071 187.799 15.3693 186.9 15.3693ZM200.241 33.7216L200.256 26.4631H201.136L208.125 18.1818H215.071L205.682 29.1477H204.247L200.241 33.7216ZM194.759 40V10.9091H200.81V40H194.759ZM208.395 40L201.974 30.4972L206.009 26.2216L215.483 40H208.395Z" fill="#121212"/>
</svg>
