<svg width="100" height="89" viewBox="0 0 100 89" fill="none" xmlns="http://www.w3.org/2000/svg">
<path d="M50.1589 39.9228C48.0375 41.4784 46.0576 43.3169 44.502 45.4382C42.9464 47.5595 41.7443 50.0344 40.8957 52.4386C40.0472 54.8427 39.3401 57.3883 39.0573 59.9339C38.7744 62.4795 38.8451 65.0958 39.4815 67.5706C39.7644 68.8434 40.2594 70.0455 40.8957 71.2476C41.6029 72.379 42.3807 73.4396 43.5828 74.2174C44.7141 75.066 46.199 75.561 47.8254 75.4903C49.4517 75.4195 50.866 74.7124 52.068 73.9346C52.7044 73.5811 53.1994 73.0861 53.7651 72.5204C54.2601 72.0254 54.755 71.5304 55.1086 70.894C55.5329 70.3284 55.8864 69.8334 56.24 69.197L56.7349 68.4192L57.1592 67.5706C58.2906 65.3079 59.1391 63.0452 59.7755 60.7117C60.4119 58.3783 60.8362 55.9741 60.7654 53.6406C60.6947 51.3072 60.4119 49.0445 59.7755 46.8524L59.5634 46.0746L59.2805 45.3675C59.0684 44.8725 58.8563 44.3775 58.6441 43.8826C58.1491 42.9633 57.7249 41.9734 57.2299 41.0541C56.9471 40.4885 56.5935 39.9935 56.24 39.4985C56.7349 39.2864 57.3006 39.0035 57.7956 38.7914C59.9169 37.9429 62.1797 37.5186 64.301 37.3772C66.493 37.165 68.6143 37.4479 70.5942 37.8722C74.6247 38.9328 78.231 40.9834 81.3423 43.529C84.3121 46.0746 86.787 49.1152 88.8376 52.1557C90.8882 55.1963 92.5145 58.3783 93.9288 61.3481C95.2723 64.3887 96.4036 67.2171 97.1814 69.9748C98.8078 75.4195 99.1613 80.0157 99.0199 83.2684C98.8785 86.5211 98.3835 88.2889 98.5957 88.3596C98.6664 88.4303 98.8078 87.8646 99.0199 87.0868C99.3028 86.2383 99.4442 84.9655 99.6563 83.3391C100.01 80.0157 99.8685 75.2074 98.3835 69.6213C97.6764 66.7928 96.6865 63.823 95.2723 60.7117C93.9995 57.6004 92.4438 54.3477 90.3225 51.0951C88.2719 47.9131 85.797 44.7311 82.6858 41.9027C79.5038 39.145 75.7561 36.8115 71.2306 35.5387C68.9679 34.973 66.5637 34.6902 64.1596 34.8316C61.7554 34.973 59.2805 35.468 56.8764 36.3165C56.0278 36.5994 55.25 36.9529 54.4722 37.3065C52.9873 35.3973 51.3609 33.6295 49.7346 32.1446C44.2899 27.2656 38.8451 24.225 34.0368 21.9623C29.2285 19.6995 24.9151 18.2146 21.2382 17.2247C13.955 15.174 9.21735 14.8205 6.45964 14.6083C5.89395 14.6083 5.32829 14.6084 4.90403 14.6084C5.32829 14.3255 5.82326 14.1134 6.17681 13.9013C7.59103 13.0527 8.86382 12.2042 10.0659 11.4264C12.4701 9.72932 14.5207 7.96154 16.147 6.47662C19.3997 3.36535 20.9553 1.10262 20.6725 0.819775C20.3897 0.536931 18.339 2.3047 14.9449 4.9917C13.2479 6.26449 11.1266 7.82013 8.79312 9.30506C7.59103 10.0829 6.31824 10.79 4.97473 11.5678C4.33834 11.9214 3.63123 12.3456 2.92412 12.6284C2.57056 12.8406 2.28772 12.982 1.72204 13.2648C1.29777 13.5477 0.519961 14.1841 0.237119 14.8912C0.0956949 15.3155 0.0249718 15.669 0.0249745 16.0933C0.0249772 16.5175 0.0956949 16.7297 0.237119 17.0125C0.378541 17.5782 0.661372 18.0025 0.802796 18.2853C1.15635 18.9217 1.58062 19.6288 1.93417 20.2652C2.64128 21.538 3.4191 22.7401 4.12621 23.8715C5.54042 26.1342 6.95461 28.1141 8.22741 29.8111C10.6316 33.0638 12.3993 34.973 12.6822 34.6902C13.0357 34.4781 11.9044 32.2153 9.92448 28.5384C8.93453 26.6999 7.73245 24.6493 6.38895 22.3158C5.75255 21.1137 5.04544 19.9824 4.26763 18.6389C3.91408 18.0025 3.56051 17.3661 3.20695 16.7297C3.20695 16.7297 3.20695 16.7297 3.13624 16.659C3.70192 16.8004 4.55047 16.9418 5.82326 17.0832C8.51026 17.5075 12.965 18.2853 19.9654 20.3359C23.4302 21.3966 27.5314 22.9522 32.1983 25.0735C36.7945 27.2656 42.0271 30.2354 47.0476 34.8316C48.4618 36.1044 49.876 37.5186 51.0781 39.145C51.0074 39.3571 50.5831 39.6399 50.1589 39.9228ZM54.0479 42.9633C54.5429 43.7411 54.8965 44.6604 55.3914 45.4382C55.5329 45.8625 55.745 46.3574 55.8864 46.7817L56.1693 47.4888L56.3814 48.1252C56.9471 49.9637 57.2299 51.9436 57.2299 53.9235C57.3006 55.9741 56.8764 57.954 56.4521 60.0753C55.8864 62.1966 55.1793 64.318 54.1894 66.2979L53.8358 67.0757L53.4115 67.7828C53.1994 68.2778 52.7751 68.702 52.4923 69.1263C52.2094 69.5505 51.8559 69.9041 51.4316 70.3284C51.0781 70.6819 50.7245 71.0355 50.3003 71.3183C48.7446 72.4497 47.0476 72.5911 45.6334 71.6012C44.2192 70.6112 43.1585 68.702 42.6635 66.6514C42.1685 64.6008 42.0271 62.3381 42.3099 60.0753C42.5928 57.8126 43.0878 55.4791 43.8656 53.2871C44.7141 51.0244 45.6334 48.9737 46.9769 47.0646C48.3204 45.1554 49.9467 43.529 51.8559 42.1855C52.2802 41.9027 52.7044 41.6198 53.1287 41.337C53.3408 41.832 53.7651 42.3976 54.0479 42.9633Z" fill="#F68B21"/>
</svg>
