<svg width="18" height="18" viewBox="0 0 18 18" fill="none" xmlns="http://www.w3.org/2000/svg">
<path fill-rule="evenodd" clip-rule="evenodd" d="M18.0007 8.59787L13.2602 4.78264V7.60184H7.61443L7.13986 6.33105L6.55955 4.77691L6.47959 4.56225L5.68263 2.42423L5.43761 1.7688L5.02236 0.65543L4.77734 0H10.3896L17.9053 8.34028L17.9337 8.41755L18.0007 8.59787Z" fill="#1037B6"/>
<path fill-rule="evenodd" clip-rule="evenodd" d="M6.47974 13.4378L6.55969 13.2231L6.47974 13.4378L6.23472 14.0932L5.35006 16.466L5.19531 16.8781L5.43775 16.2313L5.6802 15.5758L6.47974 13.4378Z" fill="#F68B21"/>
<path fill-rule="evenodd" clip-rule="evenodd" d="M6.33701 7.97965L6.25706 7.75926L5.19702 4.92574L5.11706 4.70536L4.36653 2.69327L4.13698 2.08078L3.36065 0L2.58432 2.08078L2.35478 2.69327L1.60424 4.70536L1.52171 4.92574L0.46425 7.75926L0.381716 7.97965L0 8.99857L0.381716 10.0175L0.46425 10.2436L0.985241 11.6346L1.52171 13.0714L1.60424 13.2975L2.35478 15.3067L2.58432 15.9192L2.97378 16.9668L3.36065 18L3.74753 16.9668L4.13698 15.9192L4.36653 15.3067L5.11448 13.2975L5.1996 13.0714L5.73606 11.6346L6.25448 10.2436L6.33959 10.0175L6.71873 8.99857L6.33701 7.97965Z" fill="#F68B21"/>
<path fill-rule="evenodd" clip-rule="evenodd" d="M7.77573 9.96582L7.69319 10.1862L7.61324 10.398L7.13867 11.6688L7.61324 10.398L7.69061 10.1862L7.77573 9.96582Z" fill="#F68B21"/>
<path fill-rule="evenodd" clip-rule="evenodd" d="M18.0007 9.40234L17.9337 9.58266L17.7093 10.1866L17.1548 11.6692L16.4945 13.438L16.2495 14.0934L15.3648 16.4661L15.0373 17.3448L14.7922 18.0002H4.77734L5.02236 17.3448L5.19517 16.8783L5.43761 16.2314L5.68005 15.576L6.47959 13.438L6.55955 13.2233L6.56729 13.2033L7.13986 11.6692L7.61443 10.3984L7.6918 10.1866L7.77691 9.96619L7.69438 10.1866L7.61443 10.3984H13.2602V13.2204L18.0007 9.40234Z" fill="#F68B21"/>
<path fill-rule="evenodd" clip-rule="evenodd" d="M7.77577 9.96582L7.69323 10.1862L7.61328 10.398L7.69066 10.1862L7.77577 9.96582Z" fill="#1037B6"/>
<path fill-rule="evenodd" clip-rule="evenodd" d="M17.9044 8.34028L10.3887 0H14.7913L15.0363 0.65543L15.3639 1.53411L16.2485 3.90682L16.4936 4.56225L17.1538 6.33105L17.7083 7.81364L17.9044 8.34028Z" fill="#1037B6"/>
</svg>
