<svg width="84" height="32" viewBox="0 0 84 32" fill="none" xmlns="http://www.w3.org/2000/svg">
<path d="M78.8303 32.0002C79.7546 32.0002 80.6524 31.7097 81.4182 31.1639C82.765 30.1956 83.6541 28.7695 83.9181 27.1321C84.1822 25.4948 83.8037 23.8574 82.8354 22.5105C80.0186 18.5932 74.5435 17.6953 70.6352 20.5123C70.4151 20.6707 70.3711 20.97 70.5208 21.1901C70.6792 21.4102 70.9785 21.4542 71.1986 21.3045C74.6755 18.8045 79.5433 19.5967 82.052 23.0827C82.8706 24.2183 83.1963 25.6004 82.9675 26.9825C82.7386 28.3645 81.9904 29.5706 80.8549 30.3892C80.0979 30.935 79.1824 31.1463 78.267 30.9966C77.3515 30.847 76.5505 30.3452 76.0047 29.597C75.6526 29.104 75.5118 28.5054 75.6086 27.9156C75.7054 27.317 76.0311 26.7976 76.5241 26.4455C77.1578 25.9877 78.0469 26.1374 78.5046 26.7712C78.6367 26.9561 78.6895 27.1761 78.6455 27.3874C78.6102 27.6075 78.487 27.8012 78.311 27.9244C78.2141 27.9948 78.1085 28.0212 77.9941 28.0036C77.8796 27.986 77.7828 27.9244 77.7124 27.8364C77.554 27.6163 77.2547 27.5723 77.0346 27.7219C76.8145 27.8804 76.7705 28.1797 76.9202 28.3997C77.1402 28.6991 77.4571 28.9015 77.8268 28.9631C78.1965 29.0248 78.5662 28.9367 78.8655 28.7167C79.2528 28.435 79.5169 28.0212 79.5873 27.5459C79.6665 27.0705 79.5521 26.5951 79.2704 26.2078C78.5046 25.1426 77.0082 24.8962 75.9431 25.662C75.2389 26.1638 74.7812 26.912 74.6403 27.7659C74.4995 28.6198 74.702 29.4737 75.2037 30.1692C75.8991 31.1375 76.9202 31.7713 78.0909 31.965C78.3462 31.9826 78.5926 32.0002 78.8303 32.0002Z" fill="#DFB68D"/>
<path d="M59.8962 24.6049C61.9032 24.6049 63.8485 24.3585 65.7058 23.8567C70.4239 22.5714 73.8305 19.6841 74.834 16.1276C76.6649 9.59582 73.3992 5.37038 70.0454 3.74182C66.6653 2.09566 63.0739 2.7999 61.1021 5.48481C59.7641 7.30704 59.5441 9.68385 60.53 11.5413C61.3662 13.1082 62.8714 13.9621 64.6495 13.8829C67.3519 13.7685 68.2585 11.6997 68.3554 10.6258C68.3818 10.3617 68.1881 10.124 67.9152 10.0976C67.6512 10.0712 67.4135 10.2649 67.3871 10.5377C67.3783 10.6434 67.1142 12.8089 64.6055 12.9146C63.2147 12.9674 62.0352 12.3071 61.3838 11.0835C60.5652 9.5518 60.7676 7.57994 61.8855 6.05702C63.8309 3.39851 67.1758 3.4161 69.6317 4.61331C72.651 6.08341 75.5734 9.91273 73.9097 15.8636C73.0031 19.0855 69.8518 21.7264 65.4682 22.9148C55.7502 25.5557 43.4179 20.8373 32.4677 10.2913C24.7391 2.84392 17.5387 -0.263544 11.06 1.0481C4.38776 2.39496 0.673126 8.16093 0.0393448 9.63104C-0.0662842 9.87752 0.0481491 10.1592 0.294617 10.2649C0.541092 10.3705 0.822769 10.256 0.928398 10.0096C1.51817 8.63629 4.98634 3.25765 11.2449 1.99002C17.3978 0.739992 24.3078 3.76823 31.7899 10.9779C40.9092 19.7809 51.0233 24.6049 59.8962 24.6049Z" fill="#DFB68D"/>
<path d="M18.0316 24.6756C18.3749 24.6756 18.7182 24.6492 19.0615 24.6052C21.1124 24.3323 22.9345 23.276 24.1845 21.6386C27.8551 16.841 26.9485 9.94821 22.1423 6.26855C15.3028 1.03956 5.48804 2.34241 0.259363 9.17355C0.10092 9.38482 0.136127 9.69293 0.347387 9.85138C0.558647 10.0186 0.866737 9.97462 1.02518 9.76335C5.93696 3.35476 15.1444 2.13114 21.5526 7.04322C25.9274 10.3972 26.7636 16.6737 23.4099 21.0488C22.3096 22.4837 20.7163 23.408 18.9206 23.6457C17.1337 23.8834 15.3468 23.408 13.912 22.3076C11.9226 20.7847 11.5441 17.9325 13.067 15.9431C13.5511 15.3092 14.2553 14.9043 15.0475 14.7987C15.8397 14.693 16.632 14.9043 17.2657 15.3885C18.1108 16.0311 18.2692 17.2459 17.6266 18.091C17.2305 18.6104 16.4823 18.7072 15.963 18.3111C15.7517 18.1526 15.4436 18.1878 15.2852 18.3991C15.1267 18.6104 15.162 18.9185 15.3732 19.0769C16.3151 19.7988 17.6707 19.6227 18.3925 18.6808C19.3607 17.4132 19.1231 15.5909 17.8555 14.6226C17.0105 13.98 15.9718 13.6983 14.9243 13.8391C13.8768 13.98 12.9437 14.517 12.3012 15.3621C10.4526 17.7741 10.9104 21.2425 13.3222 23.0823C14.713 24.1299 16.3415 24.6756 18.0316 24.6756Z" fill="#DFB68D"/>
<path d="M55.8646 21.4011C53.4615 21.1282 51.1553 20.3447 48.9547 19.4028C46.7453 18.4609 44.6327 17.2989 42.6345 15.9784C40.6363 14.6492 38.691 13.2407 36.8777 11.665C35.0468 10.1245 33.2599 8.46068 31.3761 6.92896C29.4924 5.39723 27.5383 3.92713 25.4257 2.6771C23.3131 1.44468 20.998 0.414739 18.5245 0.115437C16.051 -0.210274 13.5511 0.177054 11.2449 0.978128C8.94743 1.82322 6.79963 2.9764 4.78386 4.31446C6.91406 3.17007 9.09708 2.10492 11.3945 1.43589C13.6832 0.74045 16.095 0.467549 18.4189 0.863684C20.7427 1.25102 22.9434 2.20175 24.9767 3.44297C27.0189 4.67539 28.9114 6.1543 30.7688 7.67722C34.501 10.679 38.0132 14.1386 42.2472 16.6035C44.3334 17.8623 46.5076 18.9803 48.7874 19.843C51.0585 20.6528 53.4263 21.3395 55.8646 21.4011Z" fill="#DFB68D"/>
<path d="M49.7469 28.9805C51.3754 28.9805 52.6077 28.5491 53.4088 28.1354C56.8329 26.366 58.2501 22.3606 57.4227 19.7285C56.1199 15.5647 52.5285 14.4995 49.7469 15.2742C47.3174 15.952 45.2225 18.1792 45.9443 21.1282C46.3932 22.9856 47.5551 24.3061 49.0515 24.6494C50.1518 24.9047 51.2257 24.579 51.8507 23.8131C52.4845 23.0472 52.5549 21.9557 52.0444 20.8201L51.1641 21.2162C51.5162 22.0173 51.4986 22.7215 51.1025 23.1969C50.7152 23.6722 49.9934 23.8747 49.2628 23.7075C48.717 23.5842 47.4055 23.0648 46.8861 20.8993C46.2876 18.4433 48.0833 16.7443 50.011 16.2073C52.4317 15.5383 55.3805 16.4538 56.5072 20.019C57.2026 22.2285 55.9175 25.7586 52.9686 27.2815C50.5127 28.5491 43.6292 29.94 32.6877 15.5295C26.4292 7.28105 19.9682 2.88835 13.4895 2.49222C6.57078 2.06087 2.27517 6.37434 2.09912 6.5592L2.79452 7.23704C2.83853 7.19302 6.9581 3.0644 13.4455 3.46054C19.6249 3.84787 25.8394 8.10853 31.9219 16.1193C39.8882 26.6213 45.9267 28.9805 49.7469 28.9805Z" fill="#DFB68D"/>
</svg>
