<svg width="85" height="60" viewBox="0 0 85 60" fill="none" xmlns="http://www.w3.org/2000/svg">
<path d="M29.4525 29.7244L33.9828 9.96559C34.1469 9.25281 34.858 8.80691 35.5708 8.96936C36.2836 9.13346 36.7295 9.84292 36.567 10.5574L32.0368 30.3161C31.8959 30.9295 31.3505 31.3455 30.7471 31.3455C30.6493 31.3455 30.5499 31.3339 30.4504 31.3124C29.7343 31.1483 29.2901 30.4371 29.4525 29.7244ZM14.6583 21.2954L25.5074 27.3573C25.7113 27.4717 25.9334 27.5264 26.1522 27.5264C26.6164 27.5264 27.0672 27.281 27.3109 26.8467C27.6673 26.2086 27.4385 25.4013 26.8004 25.0433L18.0216 20.1384L26.8004 15.2335C27.4385 14.8771 27.6673 14.0698 27.3109 13.43C26.9545 12.7918 26.1473 12.5631 25.5074 12.9195L14.6583 18.9814C14.2389 19.2151 13.9803 19.6577 13.9803 20.1384C13.9787 20.6191 14.2389 21.0617 14.6583 21.2954ZM38.712 26.8467C38.954 27.281 39.4049 27.5264 39.8707 27.5264C40.0895 27.5264 40.3116 27.4717 40.5155 27.3573L51.3646 21.2954C51.784 21.0617 52.0425 20.6191 52.0425 20.1384C52.0425 19.6577 51.7823 19.2151 51.3646 18.9814L40.5155 12.9195C39.8756 12.5631 39.07 12.7918 38.712 13.43C38.3556 14.0682 38.5844 14.8754 39.2225 15.2335L48.0013 20.1384L39.2225 25.0433C38.5844 25.3996 38.3556 26.2069 38.712 26.8467ZM84.87 37.2002V41.8482C84.87 42.4217 84.5004 42.9306 83.955 43.108L81.0641 44.0478C80.6912 45.3938 80.1557 46.6851 79.4662 47.8985L80.8486 50.6103C81.1105 51.1225 81.0111 51.7441 80.6033 52.1503L77.3212 55.4323C76.9151 55.8401 76.2935 55.9379 75.7813 55.6777L73.0711 54.2952C71.8544 54.9881 70.5631 55.5235 69.2155 55.8948L68.9917 56.5777L68.2789 58.7807C68.1015 59.3277 67.5927 59.6974 67.0175 59.6974H62.3712C61.796 59.6974 61.2871 59.3277 61.1097 58.7807L60.1732 55.8948C58.8255 55.5235 57.5326 54.9881 56.3175 54.2952L53.6073 55.6777C53.0951 55.9396 52.4735 55.8401 52.0674 55.4323L48.7853 52.1503C48.4273 51.7922 48.3079 51.2684 48.4621 50.7976H40.2585L42.4963 57.0468H46.8824C47.6151 57.0468 48.2068 57.6403 48.2068 58.3713C48.2068 59.1023 47.6134 59.6957 46.8824 59.6957H41.573C41.5697 59.6957 41.5664 59.6957 41.5631 59.6957C41.5614 59.6957 41.5598 59.6957 41.5581 59.6957H24.4631C24.4615 59.6957 24.4598 59.6957 24.4581 59.6957C24.4548 59.6957 24.4515 59.6957 24.4482 59.6957H19.1388C18.4062 59.6957 17.8144 59.1023 17.8144 58.3713C17.8144 57.6403 18.4078 57.0468 19.1388 57.0468H23.5249L25.7627 50.7976H5.48008C2.45825 50.7976 0 48.3411 0 45.3192V5.47345C0 2.45493 2.45825 0 5.47843 0H60.5428C63.5646 0 66.0212 2.45493 66.0212 5.47345V19.3494H67.0175C67.5927 19.3494 68.1015 19.719 68.2789 20.266L69.2155 23.1536C70.5631 23.5265 71.8544 24.062 73.0694 24.7515L75.7829 23.3724C76.2952 23.1121 76.9151 23.2116 77.3196 23.6161L80.6033 26.8948C81.0111 27.3009 81.1089 27.9225 80.8486 28.4347L79.4662 31.1449C80.1607 32.3666 80.6961 33.6579 81.0658 34.9989L81.7487 35.2227L83.9517 35.9355C84.4987 36.1161 84.87 36.625 84.87 37.2002ZM2.65053 5.47345V37.6312H44.5219V37.1986C44.5219 36.6234 44.8916 36.1145 45.4386 35.9371L48.3262 35.0006C48.6991 33.6529 49.2345 32.3616 49.9258 31.1466L48.5433 28.4347C48.2814 27.9225 48.3809 27.3009 48.7886 26.8948L52.0724 23.6161C52.4785 23.2099 53.0985 23.1121 53.609 23.3707L56.3225 24.7499C57.5376 24.0603 58.8288 23.5249 60.1765 23.1519L60.4003 22.4673L61.113 20.2644C61.2904 19.7173 61.7993 19.3477 62.3745 19.3477H63.3757V5.47179C63.3757 3.91529 62.1059 2.64721 60.5478 2.64721H5.48008C3.92026 2.65053 2.65053 3.91695 2.65053 5.47345ZM5.48008 48.1488H49.7981L49.9258 47.8985C49.2362 46.6834 48.7008 45.3938 48.3278 44.0478L45.4369 43.108C44.8916 42.9306 44.5219 42.4217 44.5219 41.8482V40.2834H2.65053V45.3209C2.65053 46.879 3.92026 48.1488 5.48008 48.1488ZM37.4472 50.7976H28.5773L26.3395 57.0468H39.685L37.4472 50.7976ZM82.2195 38.1633L79.5474 37.293C79.1048 37.1472 78.7716 36.7808 78.6672 36.3267C78.3125 34.7668 77.6958 33.2783 76.8306 31.9025C76.5819 31.508 76.5604 31.0123 76.7725 30.5963L78.0489 28.09L76.1261 26.1704L73.6198 27.4451C73.2037 27.6573 72.7081 27.6341 72.3136 27.3871C70.9477 26.5285 69.4591 25.9119 67.8861 25.5505C67.4335 25.4461 67.0689 25.1129 66.923 24.672L66.0527 21.9999H63.3342L62.464 24.672C62.3198 25.1129 61.9534 25.4461 61.5009 25.5505C59.9295 25.9119 58.4393 26.5301 57.0734 27.3871C56.6789 27.6358 56.1833 27.6573 55.7672 27.4451L53.2609 26.1704L51.3381 28.09L52.6144 30.5963C52.8266 31.0123 52.8034 31.508 52.5564 31.9025C51.6994 33.2684 51.0811 34.7569 50.7198 36.33C50.6153 36.7825 50.2822 37.1472 49.8412 37.293L47.1692 38.1633V40.8851L49.8379 41.752C50.2805 41.8962 50.617 42.2609 50.7214 42.7151C51.0828 44.2865 51.7011 45.7767 52.5581 47.1426C52.8067 47.5371 52.8283 48.0327 52.6161 48.4488L51.7956 50.0583C51.7856 50.0782 51.7757 50.0998 51.7641 50.1197L51.3381 50.9568L53.2609 52.8796L55.7672 51.6032C56.1833 51.3911 56.6806 51.4143 57.0751 51.6629C58.4393 52.5232 59.9262 53.1415 61.4959 53.4979C61.9501 53.6007 62.3165 53.9355 62.4623 54.3781L63.3326 57.0502H66.0511L66.9213 54.3781C67.0655 53.9355 67.4335 53.6023 67.8877 53.4979C69.4575 53.1415 70.9444 52.5249 72.3086 51.6629C72.7031 51.4143 73.2004 51.3911 73.6164 51.6032L76.1228 52.8796L78.0456 50.9568L76.7692 48.4505C76.5571 48.0344 76.5803 47.5388 76.8272 47.1443C77.6842 45.7784 78.3025 44.2898 78.6639 42.7168C78.7683 42.2626 79.1032 41.8962 79.5474 41.7537L82.2162 40.8868V38.1633H82.2195ZM72.8871 39.5259C72.8871 44.0412 69.2138 47.7161 64.6968 47.7161C60.1781 47.7161 56.5015 44.0429 56.5015 39.5259C56.5015 35.0072 60.1781 31.3306 64.6968 31.3306C69.2138 31.3306 72.8871 35.0072 72.8871 39.5259ZM70.2382 39.5259C70.2382 36.4692 67.7534 33.9811 64.6985 33.9811C61.6418 33.9811 59.1537 36.4692 59.1537 39.5259C59.1537 42.5808 61.6418 45.0656 64.6985 45.0656C67.7518 45.0656 70.2382 42.5808 70.2382 39.5259Z" fill="#166FD3"/>
</svg>
