<svg width="63" height="63" viewBox="0 0 63 63" fill="none" xmlns="http://www.w3.org/2000/svg">
<path d="M21.6562 19.6875H33.4688V21.6562H21.6562V19.6875Z" fill="#166FD3"/>
<path d="M35.4375 19.6875H37.4062V21.6562H35.4375V19.6875Z" fill="#166FD3"/>
<path d="M39.375 19.6875H41.3438V21.6562H39.375V19.6875Z" fill="#166FD3"/>
<path d="M21.6562 27.5625H33.4688V29.5312H21.6562V27.5625Z" fill="#166FD3"/>
<path d="M35.4375 27.5625H37.4062V29.5312H35.4375V27.5625Z" fill="#166FD3"/>
<path d="M39.375 27.5625H41.3438V29.5312H39.375V27.5625Z" fill="#166FD3"/>
<path d="M21.6562 35.4375H33.4688V37.4062H21.6562V35.4375Z" fill="#166FD3"/>
<path d="M35.4375 35.4375H37.4062V37.4062H35.4375V35.4375Z" fill="#166FD3"/>
<path d="M39.375 35.4375H41.3438V37.4062H39.375V35.4375Z" fill="#166FD3"/>
<path d="M57.0937 42.328C56.221 42.3291 55.3733 42.6196 54.6834 43.1539C53.9935 43.6883 53.5002 44.4364 53.2809 45.2811H42.3281V41.3436C43.111 41.3427 43.8616 41.0313 44.4153 40.4776C44.9689 39.924 45.2803 39.1734 45.2812 38.3905V35.4373H51.1875C52.5474 35.4364 53.8924 35.1536 55.1376 34.6069C56.3829 34.0601 57.5013 33.2613 58.4224 32.2608C59.3435 31.2603 60.0473 30.0797 60.4894 28.7937C60.9315 27.5076 61.1023 26.1438 60.9911 24.7884C60.8798 23.433 60.489 22.1154 59.8431 20.9186C59.1972 19.7218 58.3104 18.6718 57.2385 17.8348C56.1666 16.9979 54.9329 16.3921 53.6152 16.0557C52.2975 15.7193 50.9244 15.6596 49.5824 15.8804C48.6195 12.2478 46.5848 8.98939 43.7433 6.5298C40.9019 4.07021 37.3856 2.52345 33.6525 2.09105C29.9193 1.65865 26.1425 2.36066 22.8141 4.10561C19.4857 5.85055 16.76 8.55754 14.9921 11.8739C14.5898 11.8329 14.1857 11.8124 13.7812 11.8123C10.6484 11.8123 7.64382 13.0569 5.42855 15.2721C3.21328 17.4874 1.96875 20.492 1.96875 23.6248C1.96875 26.7577 3.21328 29.7623 5.42855 31.9775C7.64382 34.1928 10.6484 35.4373 13.7812 35.4373H17.7187V38.3905C17.7197 39.1734 18.0311 39.924 18.5847 40.4776C19.1383 41.0313 19.8889 41.3427 20.6719 41.3436V45.2811H9.7191C9.47951 44.3532 8.90972 43.5445 8.11653 43.0066C7.32334 42.4687 6.36121 42.2386 5.41049 42.3593C4.45977 42.4801 3.58572 42.9435 2.95219 43.6625C2.31866 44.3816 1.96914 45.3071 1.96914 46.2655C1.96914 47.2238 2.31866 48.1493 2.95219 48.8684C3.58572 49.5875 4.45977 50.0508 5.41049 50.1716C6.36121 50.2923 7.32334 50.0622 8.11653 49.5243C8.90972 48.9865 9.47951 48.1778 9.7191 47.2498H21.6562C21.9173 47.2498 22.1677 47.1461 22.3523 46.9615C22.5369 46.7769 22.6406 46.5265 22.6406 46.2655V41.3436H24.6094V49.2186H16.7344C16.4733 49.2186 16.2229 49.3223 16.0383 49.5069C15.8537 49.6915 15.75 49.9419 15.75 50.203V53.2807C14.8221 53.5203 14.0134 54.0901 13.4755 54.8833C12.9376 55.6765 12.7075 56.6386 12.8283 57.5893C12.949 58.5401 13.4124 59.4141 14.1315 60.0476C14.8505 60.6812 15.776 61.0307 16.7344 61.0307C17.6927 61.0307 18.6182 60.6812 19.3373 60.0476C20.0564 59.4141 20.5197 58.5401 20.6405 57.5893C20.7612 56.6386 20.5311 55.6765 19.9932 54.8833C19.4554 54.0901 18.6467 53.5203 17.7187 53.2807V51.1873H25.5937C25.8548 51.1873 26.1052 51.0836 26.2898 50.899C26.4744 50.7144 26.5781 50.464 26.5781 50.203V41.3436H30.5156V51.312C29.5877 51.5516 28.779 52.1214 28.2411 52.9146C27.7032 53.7077 27.4731 54.6699 27.5939 55.6206C27.7146 56.5713 28.178 57.4454 28.8971 58.0789C29.6162 58.7124 30.5416 59.062 31.5 59.062C32.4583 59.062 33.3838 58.7124 34.1029 58.0789C34.822 57.4454 35.2853 56.5713 35.4061 55.6206C35.5269 54.6699 35.2967 53.7077 34.7589 52.9146C34.221 52.1214 33.4123 51.5516 32.4844 51.312V41.3436H36.4219V50.203C36.4219 50.464 36.5256 50.7144 36.7102 50.899C36.8948 51.0836 37.1452 51.1873 37.4062 51.1873H45.2812V53.2807C44.3533 53.5203 43.5446 54.0901 43.0067 54.8833C42.4689 55.6765 42.2387 56.6386 42.3595 57.5893C42.4802 58.5401 42.9436 59.4141 43.6627 60.0476C44.3818 60.6812 45.3072 61.0307 46.2656 61.0307C47.224 61.0307 48.1494 60.6812 48.8685 60.0476C49.5876 59.4141 50.051 58.5401 50.1717 57.5893C50.2925 56.6386 50.0623 55.6765 49.5245 54.8833C48.9866 54.0901 48.1779 53.5203 47.25 53.2807V50.203C47.25 49.9419 47.1463 49.6915 46.9617 49.5069C46.7771 49.3223 46.5267 49.2186 46.2656 49.2186H38.3906V41.3436H40.3594V46.2655C40.3594 46.5265 40.4631 46.7769 40.6477 46.9615C40.8323 47.1461 41.0827 47.2498 41.3437 47.2498H53.2809C53.465 47.9629 53.8454 48.61 54.3788 49.1177C54.9123 49.6254 55.5774 49.9733 56.2987 50.1219C57.0199 50.2706 57.7684 50.2139 58.4592 49.9585C59.1499 49.703 59.7551 49.259 60.2061 48.6768C60.6571 48.0947 60.9358 47.3977 61.0105 46.665C61.0852 45.9324 60.953 45.1935 60.6289 44.5323C60.3047 43.871 59.8016 43.3139 59.1767 42.9243C58.5518 42.5346 57.8301 42.328 57.0937 42.328ZM5.90625 48.2342C5.51687 48.2342 5.13623 48.1188 4.81247 47.9024C4.48871 47.6861 4.23637 47.3786 4.08736 47.0189C3.93835 46.6591 3.89936 46.2633 3.97533 45.8814C4.05129 45.4995 4.2388 45.1487 4.51413 44.8733C4.78947 44.598 5.14026 44.4105 5.52216 44.3345C5.90406 44.2586 6.29991 44.2976 6.65966 44.4466C7.0194 44.5956 7.32687 44.8479 7.5432 45.1717C7.75953 45.4954 7.875 45.8761 7.875 46.2655C7.87438 46.7874 7.66676 47.2878 7.29768 47.6569C6.9286 48.026 6.4282 48.2336 5.90625 48.2342ZM18.7031 57.0936C18.7031 57.483 18.5877 57.8636 18.3713 58.1874C18.155 58.5111 17.8475 58.7635 17.4878 58.9125C17.128 59.0615 16.7322 59.1005 16.3503 59.0245C15.9684 58.9486 15.6176 58.761 15.3423 58.4857C15.0669 58.2104 14.8794 57.8596 14.8034 57.4777C14.7275 57.0958 14.7665 56.6999 14.9155 56.3402C15.0645 55.9804 15.3168 55.673 15.6406 55.4566C15.9643 55.2403 16.345 55.1248 16.7344 55.1248C17.2563 55.1255 17.7567 55.3331 18.1258 55.7022C18.4949 56.0712 18.7025 56.5716 18.7031 57.0936ZM33.4687 55.1248C33.4687 55.5142 33.3533 55.8949 33.1369 56.2186C32.9206 56.5424 32.6131 56.7947 32.2534 56.9437C31.8936 57.0927 31.4978 57.1317 31.1159 57.0558C30.734 56.9798 30.3832 56.7923 30.1079 56.517C29.8325 56.2416 29.645 55.8908 29.5691 55.5089C29.4931 55.127 29.5321 54.7312 29.6811 54.3714C29.8301 54.0117 30.0824 53.7042 30.4062 53.4879C30.73 53.2716 31.1106 53.1561 31.5 53.1561C32.0219 53.1567 32.5223 53.3643 32.8914 53.7334C33.2605 54.1025 33.4681 54.6029 33.4687 55.1248ZM48.2343 57.0936C48.2343 57.483 48.1189 57.8636 47.9026 58.1874C47.6862 58.5111 47.3787 58.7635 47.019 58.9125C46.6593 59.0615 46.2634 59.1005 45.8815 59.0245C45.4996 58.9486 45.1488 58.761 44.8735 58.4857C44.5981 58.2104 44.4106 57.8596 44.3347 57.4777C44.2587 57.0958 44.2977 56.6999 44.4467 56.3402C44.5957 55.9804 44.8481 55.673 45.1718 55.4566C45.4956 55.2403 45.8762 55.1248 46.2656 55.1248C46.7876 55.1255 47.288 55.3331 47.657 55.7022C48.0261 56.0712 48.2337 56.5716 48.2343 57.0936ZM19.6875 22.6405V18.703C19.6878 18.442 19.7916 18.1918 19.9761 18.0072C20.1607 17.8227 20.4109 17.7189 20.6719 17.7186H42.3281C42.5891 17.7189 42.8393 17.8227 43.0238 18.0072C43.2084 18.1918 43.3122 18.442 43.3125 18.703V22.6405C43.3122 22.9014 43.2084 23.1517 43.0238 23.3362C42.8393 23.5207 42.5891 23.6245 42.3281 23.6248H20.6719C20.4109 23.6245 20.1607 23.5207 19.9761 23.3362C19.7916 23.1517 19.6878 22.9014 19.6875 22.6405ZM19.6875 30.5155V26.578C19.6878 26.317 19.7916 26.0668 19.9761 25.8822C20.1607 25.6977 20.4109 25.5939 20.6719 25.5936H42.3281C42.5891 25.5939 42.8393 25.6977 43.0238 25.8822C43.2084 26.0668 43.3122 26.317 43.3125 26.578V30.5155C43.3122 30.7764 43.2084 31.0267 43.0238 31.2112C42.8393 31.3957 42.5891 31.4995 42.3281 31.4998H20.6719C20.4109 31.4995 20.1607 31.3957 19.9761 31.2112C19.7916 31.0267 19.6878 30.7764 19.6875 30.5155ZM3.9375 23.6248C3.94046 21.015 4.97852 18.5129 6.82394 16.6675C8.66936 14.8221 11.1714 13.784 13.7812 13.7811C14.3212 13.781 14.8603 13.8247 15.3932 13.912C15.6026 13.9467 15.8176 13.9127 16.0061 13.8151C16.1946 13.7176 16.3465 13.5616 16.4391 13.3706C17.9634 10.2281 20.4325 7.64117 23.5005 5.97212C26.5686 4.30306 30.0819 3.63552 33.5483 4.06299C37.0147 4.49046 40.2605 5.99153 42.8312 8.35594C45.4018 10.7204 47.1685 13.8297 47.8837 17.2483C47.911 17.3801 47.9651 17.5048 48.0426 17.6149C48.1201 17.7249 48.2194 17.8179 48.3342 17.8881C48.4491 17.9582 48.5771 18.0041 48.7104 18.0229C48.8436 18.0416 48.9793 18.0328 49.1091 17.997C50.1919 17.7012 51.3254 17.6402 52.4337 17.8183C53.542 17.9963 54.5994 18.4092 55.535 19.0293C56.4707 19.6494 57.263 20.4623 57.8588 21.4136C58.4546 22.3649 58.8401 23.4326 58.9896 24.5451C59.139 25.6576 59.0489 26.7892 58.7253 27.864C58.4017 28.9388 57.852 29.932 57.1132 30.7771C56.3743 31.6221 55.4634 32.2994 54.4414 32.7636C53.4194 33.2278 52.31 33.4682 51.1875 33.4686H45.1119C44.9829 33.1055 44.7842 32.771 44.5268 32.4842C45.013 31.9438 45.2817 31.2424 45.2812 30.5155V26.578C45.2817 25.851 45.013 25.1497 44.5268 24.6092C45.013 24.0688 45.2817 23.3674 45.2812 22.6405V18.703C45.2803 17.92 44.9689 17.1694 44.4153 16.6158C43.8616 16.0622 43.111 15.7507 42.3281 15.7498H20.6719C19.8889 15.7507 19.1383 16.0622 18.5847 16.6158C18.0311 17.1694 17.7197 17.92 17.7187 18.703V22.6405C17.7182 23.3674 17.987 24.0688 18.4731 24.6092C17.987 25.1497 17.7182 25.851 17.7187 26.578V30.5155C17.7182 31.2424 17.987 31.9438 18.4731 32.4842C18.2158 32.771 18.017 33.1055 17.8881 33.4686H13.7812C11.1714 33.4656 8.66936 32.4276 6.82394 30.5821C4.97852 28.7367 3.94046 26.2347 3.9375 23.6248ZM19.6875 38.3905V34.453C19.6878 34.192 19.7916 33.9418 19.9761 33.7572C20.1607 33.5727 20.4109 33.4689 20.6719 33.4686H42.3281C42.5891 33.4689 42.8393 33.5727 43.0238 33.7572C43.2084 33.9418 43.3122 34.192 43.3125 34.453V38.3905C43.3122 38.6514 43.2084 38.9017 43.0238 39.0862C42.8393 39.2707 42.5891 39.3745 42.3281 39.3748H20.6719C20.4109 39.3745 20.1607 39.2707 19.9761 39.0862C19.7916 38.9017 19.6878 38.6514 19.6875 38.3905ZM57.0937 48.2342C56.7043 48.2342 56.3237 48.1188 55.9999 47.9024C55.6762 47.6861 55.4238 47.3786 55.2748 47.0189C55.1258 46.6591 55.0868 46.2633 55.1628 45.8814C55.2388 45.4995 55.4263 45.1487 55.7016 44.8733C55.9769 44.598 56.3277 44.4105 56.7096 44.3345C57.0915 44.2586 57.4874 44.2976 57.8471 44.4466C58.2069 44.5956 58.5143 44.8479 58.7307 45.1717C58.947 45.4954 59.0625 45.8761 59.0625 46.2655C59.0618 46.7874 58.8542 47.2878 58.4851 47.6569C58.1161 48.026 57.6157 48.2336 57.0937 48.2342Z" fill="#166FD3"/>
</svg>
