<svg width="60" height="60" viewBox="0 0 60 60" fill="none" xmlns="http://www.w3.org/2000/svg">
<g clip-path="url(#clip0_4403_4536)">
<path d="M45.8169 51.5653C45.2209 51.8901 44.6166 52.2252 44.0046 52.5645C38.8262 55.4356 32.9569 58.6899 27.3158 58.1861L7.33863 56.4027C7.31261 56.4004 7.28648 56.3992 7.26035 56.3992H1.76121V46.5129H7.26023C7.46847 46.5129 7.67004 46.4391 7.82894 46.3047C7.84453 46.2916 9.41824 44.9693 11.814 43.7248C12.2456 43.5006 12.4137 42.9689 12.1896 42.5373C11.9653 42.1058 11.4339 41.9376 11.0021 42.1619C8.98207 43.2113 7.51664 44.3041 6.94875 44.7517H0.880664C0.394336 44.7517 0 45.146 0 45.6324V57.2799C0 57.7662 0.394219 58.1605 0.880664 58.1605H7.22097L27.1591 59.9405C27.6095 59.9807 28.0588 59.9999 28.5082 59.9999C34.226 59.9999 39.8523 56.8806 44.8585 54.105C45.4667 53.7679 46.0673 53.4348 46.6596 53.112C47.0866 52.8792 47.2442 52.3444 47.0115 51.9174C46.7789 51.4901 46.2442 51.3326 45.8169 51.5653Z" fill="#086AD8"/>
<path d="M59.3202 41.8114C58.3839 40.5702 56.7525 40.1415 55.3445 40.731C55.3086 40.1678 55.1179 39.6191 54.7839 39.1515C53.9034 37.9189 52.2293 37.5217 50.89 38.2276L48.7956 39.3314C48.7688 38.8396 48.6237 38.3556 48.3651 37.9282C47.5295 36.5469 45.7639 36.0673 44.3453 36.8362L42.7799 37.6848C42.7517 37.0763 42.5455 36.4831 42.1777 35.9823C41.2598 34.7332 39.5978 34.349 38.2259 35.0686L26.9246 40.996C25.6537 40.508 21.6023 39.1883 16.8687 40.0696C16.0521 40.2217 15.2109 40.4415 14.368 40.7234C13.9068 40.8776 13.6579 41.3765 13.812 41.8377C13.9663 42.299 14.4654 42.5478 14.9264 42.3938C15.6924 42.1377 16.4542 41.9384 17.191 41.8012C22.2441 40.8603 26.5684 42.7505 26.6103 42.7691C26.7238 42.8201 26.8468 42.8465 26.9712 42.8465H38.7345C39.5703 42.8465 40.2502 43.5284 40.2502 44.3665C40.2502 45.1305 39.6802 45.7787 38.9244 45.8745L24.0153 47.7628C23.5742 47.8187 23.2439 48.1946 23.2453 48.639C23.2466 49.0837 23.5792 49.4575 24.0205 49.5107L30.3525 50.2739C36.4862 51.013 42.5833 49.8167 47.9849 46.8139L55.8975 42.4152C56.5936 42.0525 57.4404 42.244 57.9141 42.872C58.5059 43.619 58.2487 44.8169 57.4012 45.2532L48.9113 49.8797C47.8962 50.4131 48.7662 51.9886 49.7541 51.4262L58.244 46.7997C59.1044 46.3309 59.7166 45.5123 59.9238 44.5537C60.1311 43.5941 59.9111 42.5946 59.3202 41.8114ZM39.044 36.6283C39.6391 36.3162 40.36 36.4831 40.7586 37.0253C41.2482 37.6567 41.0259 38.6583 40.3141 39.0217L36.5078 41.0853H30.5464L39.044 36.6283ZM39.845 41.2794L45.1847 38.3844C45.7752 38.0644 46.5101 38.2646 46.8582 38.8399C47.2375 39.4357 47.0001 40.296 46.3678 40.611L41.7364 43.052C41.3766 42.2316 40.6915 41.5856 39.845 41.2794ZM47.1292 45.2745C42.2855 47.9672 36.8464 49.1141 31.351 48.6089L39.1458 47.6216C40.5919 47.4386 41.7225 46.3208 41.9634 44.9232L51.7111 39.7857C52.2748 39.4886 52.9797 39.6559 53.3507 40.1752C53.7999 40.772 53.5913 41.7034 52.9294 42.0501L47.1292 45.2745Z" fill="#086AD8"/>
<path d="M20.5068 23.9279C21.5013 23.9279 22.4582 23.7127 23.3505 23.2884C23.7897 23.0795 23.9765 22.5541 23.7675 22.1148C23.5587 21.6757 23.0336 21.4888 22.594 21.6978C21.94 22.0088 21.2377 22.1665 20.5068 22.1665C17.8231 22.1665 15.6396 19.9831 15.6396 17.2994C15.6396 14.6157 17.8231 12.4323 20.5068 12.4323C23.1905 12.4323 25.3739 14.6157 25.3739 17.2994C25.3739 18.1211 25.1656 18.9329 24.7715 19.647C24.5365 20.0729 24.6911 20.6085 25.1169 20.8435C25.5429 21.0784 26.0786 20.9237 26.3134 20.498C26.851 19.5239 27.1351 18.4179 27.1351 17.2993C27.1351 13.6443 24.1616 10.6709 20.5068 10.6709C16.8519 10.6709 13.8784 13.6443 13.8784 17.2993C13.8784 20.9542 16.8519 23.9279 20.5068 23.9279Z" fill="#086AD8"/>
<path d="M6.75552 19.9177L8.58071 20.192C8.87872 21.4284 9.36399 22.5996 10.0289 23.6864L8.93169 25.1718C8.41325 25.8737 8.48485 26.8309 9.10196 27.4478L10.3584 28.7044C10.9754 29.3214 11.9327 29.393 12.6346 28.8745L14.1198 27.7774C15.2066 28.4423 16.3777 28.9277 17.6142 29.2257L17.8887 31.0509C18.0184 31.9138 18.7459 32.54 19.6184 32.54H21.3953C22.2679 32.54 22.9954 31.9138 23.125 31.0508L23.3993 29.2257C24.6359 28.9277 25.8069 28.4423 26.8937 27.7774L28.3791 28.8746C29.0809 29.393 30.0382 29.3215 30.6551 28.7045L31.9116 27.448C32.5287 26.8311 32.6003 25.8738 32.0818 25.1719L30.9847 23.6866C31.6497 22.5998 32.135 21.4288 32.4329 20.1922L34.258 19.9179C35.1209 19.7882 35.7472 19.0608 35.7472 18.1881V18.1801H40.9733V29.4046C40.9733 30.5369 41.8947 31.4583 43.027 31.4583H46.7892C47.192 33.2534 48.7975 34.599 50.7123 34.599C52.9297 34.599 54.7338 32.795 54.7338 30.5775C54.7338 28.3601 52.9299 26.556 50.7123 26.556C48.7974 26.556 47.1919 27.9018 46.7891 29.6969H43.0269C42.8657 29.6969 42.7345 29.5658 42.7345 29.4046V18.1801H46.7891C47.1919 19.9753 48.7974 21.3211 50.7123 21.3211C52.9297 21.3211 54.7338 19.5171 54.7338 17.2996C54.7338 15.082 52.9299 13.278 50.7123 13.278C48.7975 13.278 47.192 14.6237 46.7891 16.4188H42.7348V5.19457C42.7348 5.03332 42.8659 4.90219 43.0272 4.90219H46.7893C47.1921 6.69738 48.7976 8.04305 50.7125 8.04305C52.93 8.04305 54.7341 6.23906 54.7341 4.02152C54.7341 1.80398 52.9299 0 50.7124 0C48.7976 0 47.1921 1.34566 46.7892 3.14086H43.027C41.8947 3.14086 40.9733 4.06207 40.9733 5.19445V16.4187H35.7472V16.4109C35.7472 15.5385 35.121 14.811 34.2581 14.6812L32.4329 14.4069C32.1349 13.1704 31.6497 11.9993 30.9847 10.9125L32.0818 9.42726C32.6003 8.72531 32.5288 7.76801 31.9117 7.15113L30.6552 5.89453C30.0383 5.27754 29.081 5.20605 28.3791 5.72437L26.8938 6.82148C25.8069 6.15656 24.6359 5.67117 23.3994 5.37328L23.1251 3.54809C22.9955 2.68523 22.268 2.05887 21.3954 2.05887H19.6184C18.7459 2.05887 18.0184 2.68512 17.8887 3.54809L17.6142 5.37328C16.3778 5.67129 15.2067 6.15656 14.1198 6.82148L12.6346 5.72437C11.9329 5.20594 10.9754 5.27742 10.3584 5.89453L9.10196 7.1509C8.48485 7.76789 8.41325 8.72519 8.93169 9.42703L10.0288 10.9123C9.36387 11.9991 8.87848 13.1702 8.58059 14.4067L6.7554 14.681C5.89255 14.8107 5.2663 15.5382 5.2663 16.4107V18.1876C5.2663 19.0605 5.89266 19.7879 6.75552 19.9177ZM50.7124 28.3171C51.9587 28.3171 52.9726 29.331 52.9726 30.5773C52.9726 31.8235 51.9587 32.8375 50.7124 32.8375C49.4661 32.8375 48.4522 31.8235 48.4522 30.5773C48.4522 29.331 49.4661 28.3171 50.7124 28.3171ZM50.7124 15.0391C51.9587 15.0391 52.9726 16.053 52.9726 17.2993C52.9726 18.5456 51.9587 19.5595 50.7124 19.5595C49.4661 19.5595 48.4522 18.5456 48.4522 17.2993C48.4522 16.053 49.4661 15.0391 50.7124 15.0391ZM50.7124 1.76121C51.9587 1.76121 52.9726 2.77512 52.9726 4.02141C52.9726 5.26769 51.9587 6.2816 50.7124 6.2816C49.4661 6.2816 48.4522 5.26769 48.4522 4.02141C48.4522 2.77523 49.4661 1.76121 50.7124 1.76121ZM7.02751 16.4212L9.44473 16.0578C9.81552 16.0022 10.1104 15.7178 10.1794 15.3493C10.4477 13.9181 11.0018 12.5814 11.8259 11.3761C12.0374 11.0667 12.03 10.6573 11.8072 10.3557L10.3546 8.38898L11.5964 7.14726L13.5632 8.60004C13.8646 8.82269 14.2739 8.83019 14.5834 8.61867C15.7888 7.79449 17.1256 7.24055 18.5566 6.97207C18.9251 6.90305 19.2094 6.6082 19.2652 6.23742L19.6286 3.82019H21.3847L21.7481 6.23742C21.8039 6.6082 22.0882 6.90305 22.4566 6.97207C23.8877 7.24043 25.2246 7.79449 26.4299 8.61867C26.7394 8.83031 27.1487 8.82269 27.4502 8.60004L29.417 7.14726L30.6588 8.38898L29.2062 10.3559C28.9835 10.6573 28.976 11.0667 29.1875 11.3762C30.0117 12.5815 30.5657 13.9182 30.8342 15.3496C30.9033 15.718 31.1981 16.0023 31.5688 16.0581L33.986 16.4215V18.1777L31.5688 18.5411C31.1981 18.5967 30.9033 18.8811 30.8342 19.2496C30.5657 20.6809 30.0117 22.0177 29.1875 23.2229C28.976 23.5323 28.9834 23.9418 29.2062 24.2432L30.659 26.2099L29.4171 27.4518L27.4504 25.999C27.149 25.7763 26.7395 25.7688 26.43 25.9805C25.2247 26.8046 23.888 27.3586 22.4566 27.6271C22.0882 27.6962 21.8039 27.9911 21.7481 28.3617L21.3847 30.7789H19.6286L19.2652 28.3617C19.2094 27.9911 18.9251 27.6962 18.5566 27.6271C17.1253 27.3586 15.7886 26.8046 14.5833 25.9805C14.2739 25.7689 13.8646 25.7763 13.5631 25.999L11.5963 27.4518L10.3545 26.2099L11.8072 24.2432C12.0299 23.9418 12.0374 23.5322 11.8259 23.2229C11.0017 22.0177 10.4477 20.6809 10.1794 19.2497C10.1102 18.8812 9.81552 18.5968 9.44473 18.5412L7.02751 18.1778V16.4212Z" fill="#086AD8"/>
</g>
<defs>
<clipPath id="clip0_4403_4536">
<rect width="60" height="60" fill="white"/>
</clipPath>
</defs>
</svg>
