<svg width="60" height="60" viewBox="0 0 60 60" fill="none" xmlns="http://www.w3.org/2000/svg">
<g clip-path="url(#clip0_4403_4551)">
<path d="M60 15.2456C60 13.0726 58.2385 11.3111 56.0656 11.3111C55.1201 11.3148 54.2081 11.6619 53.4994 12.2879C50.6243 10.8125 46.7774 10.1554 42.2774 10.3875C39.3227 4.09343 35.0548 0.491466 30.4918 0.491466C29.0235 0.505328 27.5799 0.870953 26.282 1.5577C24.7669 0.130014 22.3999 0.13652 20.8927 1.57251C19.3856 3.0085 19.2646 5.37246 20.6174 6.95475C19.8949 8.04571 19.257 9.19036 18.7092 10.3787C15.4176 10.1258 12.1089 10.5434 8.9833 11.6062C6.24893 12.4907 3.99516 14.4548 2.74526 17.0426C1.07313 20.8344 2.13838 25.4525 5.28592 30.042C2.39215 34.2646 1.35641 38.3928 2.3351 41.8108C1.22259 42.7127 0.69098 44.1498 0.948791 45.5585C1.2066 46.9672 2.21272 48.123 3.57251 48.5723C4.93231 49.0217 6.42896 48.6931 7.47543 47.7154C10.4363 49.1038 13.6829 49.7741 16.9515 49.6718C17.52 49.6718 18.1131 49.6394 18.7033 49.6089C21.659 55.9039 25.9269 59.5079 30.4918 59.5079C35.0567 59.5079 39.3217 55.9069 42.2754 49.6167C42.8597 49.6472 43.444 49.6767 44.0095 49.6767C46.7279 49.7281 49.4337 49.2951 52.0004 48.398C54.7349 47.5134 56.9887 45.5488 58.2384 42.9607C59.9105 39.1689 58.8443 34.5518 55.6977 29.9623C58.5915 25.7397 59.6322 21.6125 58.6486 18.1934C59.5043 17.4526 59.9972 16.3774 60 15.2456ZM56.0656 13.2784C57.1521 13.2784 58.0328 14.1591 58.0328 15.2456C58.0328 16.332 57.1521 17.2128 56.0656 17.2128C54.9791 17.2128 54.0984 16.332 54.0984 15.2456C54.0984 14.1591 54.9791 13.2784 56.0656 13.2784ZM33.5941 46.1957C34.7331 45.7482 35.8771 45.2613 37.0161 44.7312C39.0665 43.7741 41.0591 42.6979 42.9836 41.5079C42.5017 43.585 41.8436 45.6173 41.0164 47.5826C38.5066 47.3378 36.023 46.8737 33.5941 46.1957ZM44.2623 29.9997C44.2678 32.9557 44.0177 35.9067 43.5148 38.8197C41.1798 40.3811 38.7291 41.7622 36.184 42.9508C34.3256 43.819 32.4212 44.5848 30.479 45.2446C28.5464 44.5821 26.6509 43.8161 24.8007 42.9498C22.2592 41.7633 19.8095 40.3893 17.4718 38.8393C16.4738 32.9961 16.4738 27.0259 17.4718 21.1826C19.8068 19.6212 22.2575 18.2401 24.8026 17.0515C26.6561 16.1862 28.5553 15.4224 30.4918 14.7636C35.0906 16.327 39.4681 18.4779 43.5158 21.163C44.0191 24.0815 44.2689 27.0381 44.2623 29.9997ZM45.7545 22.7416C48.5732 24.7969 51.1002 27.2249 53.2663 29.9593C51.1117 32.7178 48.585 35.164 45.7584 37.2282C46.0755 34.8318 46.2329 32.417 46.2295 29.9997C46.2332 27.5724 46.0745 25.1477 45.7545 22.7416ZM19.9505 47.5453C19.1336 45.595 18.4837 43.5789 18.0079 41.5187C19.9314 42.7007 21.9205 43.7726 23.9656 44.7292C25.1085 45.2633 26.2544 45.7394 27.3994 46.1889C24.9619 46.8626 22.469 47.3166 19.9505 47.5453ZM27.3758 13.8075C26.2407 14.2541 25.1017 14.739 23.9676 15.2672C21.9188 16.2247 19.9279 17.3013 18.0049 18.4915C18.4833 16.4194 19.1371 14.3917 19.9594 12.4305C22.467 12.6722 24.9487 13.1323 27.3758 13.8075ZM15.2292 37.2577C12.4107 35.2022 9.88376 32.7742 7.71739 30.04C9.87191 27.2816 12.3986 24.8353 15.2253 22.7711C14.5944 27.5794 14.5944 32.4495 15.2253 37.2577H15.2292ZM37.0181 15.2702C35.879 14.738 34.7371 14.2551 33.5951 13.8066C36.0291 13.1346 38.5184 12.6819 41.0331 12.4541C41.85 14.4041 42.4998 16.4198 42.9758 18.4797C41.052 17.2983 39.0629 16.2268 37.0181 15.2702ZM23.6066 2.45868C24.693 2.45868 25.5738 3.33943 25.5738 4.42589C25.5738 5.51236 24.693 6.39311 23.6066 6.39311C22.5201 6.39311 21.6394 5.51236 21.6394 4.42589C21.6394 3.33943 22.5201 2.45868 23.6066 2.45868ZM22.2207 8.09573C22.6626 8.26771 23.1323 8.35738 23.6066 8.36032C25.7795 8.36032 27.541 6.59882 27.541 4.42589C27.5355 4.01577 27.4651 3.6091 27.3325 3.22098C28.3137 2.72944 29.3944 2.4687 30.4918 2.45868C34.1105 2.45868 37.5954 5.39573 40.1823 10.5666C36.8882 10.9311 33.6417 11.6423 30.4967 12.6882C27.3481 11.6402 24.0992 10.9216 20.8023 10.5439C21.2244 9.69955 21.6981 8.88194 22.2207 8.09573ZM4.54526 17.8334C5.57693 15.7261 7.43305 14.1383 9.67477 13.4456C12.0278 12.6233 14.5086 12.2269 17.0007 12.2751C17.2899 12.2751 17.5908 12.2987 17.8859 12.3066C16.9024 14.8016 16.1632 17.3862 15.6787 20.0239C12.2331 22.3362 9.14794 25.1449 6.5233 28.359C4.05739 24.5534 3.22034 20.8295 4.54526 17.8334ZM4.91805 46.721C3.83159 46.721 2.95084 45.8402 2.95084 44.7538C2.95084 43.6673 3.83159 42.7866 4.91805 42.7866C6.00451 42.7866 6.88526 43.6673 6.88526 44.7538C6.88526 45.8402 6.00451 46.721 4.91805 46.721ZM8.60658 46.0787C8.76525 45.6548 8.84847 45.2064 8.85248 44.7538C8.85573 43.575 8.32888 42.4573 7.41761 41.7096C6.50633 40.962 5.30721 40.6636 4.15182 40.8971C3.54592 38.2679 4.3751 35.0839 6.53805 31.7249C9.16594 34.9202 12.2479 37.7131 15.6856 40.0148C16.1695 42.6343 16.9044 45.2012 17.88 47.68C14.7055 47.8914 11.5264 47.3425 8.60658 46.0787ZM30.4918 57.5407C26.8731 57.5407 23.3882 54.6036 20.8013 49.4328C24.1003 49.0659 27.3514 48.3521 30.5007 47.3033C33.6436 48.3496 36.8865 49.0672 40.1774 49.4446C37.5905 54.6066 34.1076 57.5407 30.4918 57.5407ZM56.4384 42.1639C55.4069 44.2717 53.5508 45.8598 51.3089 46.5528C48.6689 47.4594 45.8793 47.8504 43.0918 47.7046C44.0769 45.2067 44.8174 42.6192 45.303 39.9784C48.7489 37.666 51.8341 34.857 54.4584 31.6423C56.9263 35.4459 57.7633 39.1679 56.4384 42.1639ZM54.4456 28.2744C51.8175 25.0791 48.7356 22.2858 45.2981 19.9836C44.8143 17.3643 44.0794 14.7977 43.1036 12.3193C46.2791 12.1071 49.4594 12.6561 52.38 13.9207C52.2204 14.3444 52.1361 14.7928 52.1312 15.2456C52.1279 16.4243 52.6548 17.542 53.5661 18.2897C54.4773 19.0374 55.6764 19.3357 56.8318 19.1023C57.4427 21.7315 56.6086 24.9154 54.4456 28.2744Z" fill="#086AD8"/>
<path d="M19.6721 24.0983V28.0327C19.6747 28.761 19.9482 29.4622 20.4393 29.9999C19.9482 30.5376 19.6747 31.2389 19.6721 31.9671V35.9016C19.6721 37.5313 20.9932 38.8524 22.6229 38.8524H38.3606C39.9903 38.8524 41.3114 37.5313 41.3114 35.9016V31.9671C41.3089 31.2389 41.0354 30.5376 40.5442 29.9999C41.0354 29.4622 41.3089 28.761 41.3114 28.0327V24.0983C41.3114 22.4686 39.9903 21.1475 38.3606 21.1475H22.6229C20.9932 21.1475 19.6721 22.4686 19.6721 24.0983ZM39.3442 35.9016C39.3442 36.4448 38.9039 36.8852 38.3606 36.8852H22.6229C22.0797 36.8852 21.6393 36.4448 21.6393 35.9016V31.9671C21.6393 31.4239 22.0797 30.9835 22.6229 30.9835H38.3606C38.9039 30.9835 39.3442 31.4239 39.3442 31.9671V35.9016ZM39.3442 24.0983V28.0327C39.3442 28.5759 38.9039 29.0163 38.3606 29.0163H22.6229C22.0797 29.0163 21.6393 28.5759 21.6393 28.0327V24.0983C21.6393 23.555 22.0797 23.1147 22.6229 23.1147H38.3606C38.9039 23.1147 39.3442 23.555 39.3442 24.0983Z" fill="#086AD8"/>
<path d="M24.5902 27.0492H25.5738C26.117 27.0492 26.5574 26.6089 26.5574 26.0656C26.5574 25.5224 26.117 25.082 25.5738 25.082H24.5902C24.0469 25.082 23.6066 25.5224 23.6066 26.0656C23.6066 26.6089 24.0469 27.0492 24.5902 27.0492Z" fill="#086AD8"/>
<path d="M32.459 27.0492H36.3934C36.9367 27.0492 37.377 26.6089 37.377 26.0656C37.377 25.5224 36.9367 25.082 36.3934 25.082H32.459C31.9158 25.082 31.4754 25.5224 31.4754 26.0656C31.4754 26.6089 31.9158 27.0492 32.459 27.0492Z" fill="#086AD8"/>
<path d="M25.5738 32.9502H24.5902C24.0469 32.9502 23.6066 33.3906 23.6066 33.9338C23.6066 34.477 24.0469 34.9174 24.5902 34.9174H25.5738C26.117 34.9174 26.5574 34.477 26.5574 33.9338C26.5574 33.3906 26.117 32.9502 25.5738 32.9502Z" fill="#086AD8"/>
<path d="M36.3934 32.9502H32.459C31.9158 32.9502 31.4754 33.3906 31.4754 33.9338C31.4754 34.477 31.9158 34.9174 32.459 34.9174H36.3934C36.9367 34.9174 37.377 34.477 37.377 33.9338C37.377 33.3906 36.9367 32.9502 36.3934 32.9502Z" fill="#086AD8"/>
</g>
<defs>
<clipPath id="clip0_4403_4551">
<rect width="60" height="60" fill="white"/>
</clipPath>
</defs>
</svg>
