<svg width="632" height="135" viewBox="0 0 632 135" fill="none" xmlns="http://www.w3.org/2000/svg">
<g opacity="0.05">
<path d="M189.783 -220.98L-407 375.803L-406.071 376.733L190.713 -220.051L189.783 -220.98Z" fill="white"/>
<path d="M199.788 -220.943L-396.995 375.84L-396.066 376.77L200.718 -220.013L199.788 -220.943Z" fill="white"/>
<path d="M209.886 -220.999L-386.897 375.785L-385.968 376.714L210.815 -220.069L209.886 -220.999Z" fill="white"/>
<path d="M219.891 -220.961L-376.893 375.822L-375.963 376.751L220.82 -220.032L219.891 -220.961Z" fill="white"/>
<path d="M229.895 -220.924L-366.888 375.859L-365.958 376.788L230.825 -219.995L229.895 -220.924Z" fill="white"/>
<path d="M239.993 -220.98L-356.79 375.803L-355.861 376.732L240.923 -220.051L239.993 -220.98Z" fill="white"/>
<path d="M249.998 -220.943L-346.785 375.84L-345.856 376.769L250.927 -220.014L249.998 -220.943Z" fill="white"/>
<path d="M260.096 -220.999L-336.688 375.784L-335.758 376.713L261.025 -220.07L260.096 -220.999Z" fill="white"/>
<path d="M270.101 -220.962L-326.683 375.821L-325.753 376.751L271.03 -220.032L270.101 -220.962Z" fill="white"/>
<path d="M280.105 -220.925L-316.678 375.858L-315.748 376.787L281.035 -219.996L280.105 -220.925Z" fill="white"/>
<path d="M290.203 -220.981L-306.58 375.802L-305.651 376.731L291.133 -220.052L290.203 -220.981Z" fill="white"/>
<path d="M300.208 -220.944L-296.575 375.839L-295.646 376.768L301.137 -220.015L300.208 -220.944Z" fill="white"/>
<path d="M310.306 -221L-286.478 375.783L-285.548 376.713L311.235 -220.071L310.306 -221Z" fill="white"/>
<path d="M320.311 -220.963L-276.473 375.82L-275.543 376.75L321.24 -220.033L320.311 -220.963Z" fill="white"/>
<path d="M330.315 -220.926L-266.468 375.857L-265.538 376.786L331.245 -219.997L330.315 -220.926Z" fill="white"/>
<path d="M340.413 -220.982L-256.37 375.801L-255.441 376.731L341.342 -220.052L340.413 -220.982Z" fill="white"/>
<path d="M350.418 -220.945L-246.365 375.838L-245.436 376.767L351.347 -220.016L350.418 -220.945Z" fill="white"/>
<path d="M360.423 -220.908L-236.36 375.875L-235.431 376.805L361.352 -219.978L360.423 -220.908Z" fill="white"/>
<path d="M370.52 -220.964L-226.263 375.819L-225.333 376.749L371.45 -220.034L370.52 -220.964Z" fill="white"/>
<path d="M380.525 -220.927L-216.258 375.856L-215.328 376.786L381.455 -219.997L380.525 -220.927Z" fill="white"/>
<path d="M390.623 -220.983L-206.16 375.8L-205.231 376.73L391.552 -220.053L390.623 -220.983Z" fill="white"/>
<path d="M400.627 -220.946L-196.156 375.837L-195.227 376.766L401.556 -220.017L400.627 -220.946Z" fill="white"/>
<path d="M410.633 -220.909L-186.15 375.875L-185.221 376.804L411.562 -219.979L410.633 -220.909Z" fill="white"/>
<path d="M420.73 -220.965L-176.053 375.818L-175.123 376.748L421.66 -220.035L420.73 -220.965Z" fill="white"/>
<path d="M430.734 -220.928L-166.049 375.855L-165.119 376.785L431.664 -219.998L430.734 -220.928Z" fill="white"/>
<path d="M440.833 -220.984L-155.95 375.799L-155.021 376.729L441.762 -220.054L440.833 -220.984Z" fill="white"/>
<path d="M450.838 -220.947L-145.945 375.836L-145.016 376.766L451.767 -220.017L450.838 -220.947Z" fill="white"/>
<path d="M460.842 -220.91L-135.941 375.874L-135.012 376.803L461.771 -219.98L460.842 -220.91Z" fill="white"/>
<path d="M470.94 -220.965L-125.843 375.818L-124.913 376.747L471.87 -220.036L470.94 -220.965Z" fill="white"/>
<path d="M480.944 -220.929L-115.839 375.854L-114.909 376.784L481.874 -219.999L480.944 -220.929Z" fill="white"/>
<path d="M491.043 -220.985L-105.74 375.798L-104.811 376.728L491.972 -220.055L491.043 -220.985Z" fill="white"/>
<path d="M501.048 -220.947L-95.7354 375.836L-94.8059 376.765L501.977 -220.018L501.048 -220.947Z" fill="white"/>
<path d="M511.052 -220.911L-85.7314 375.873L-84.802 376.802L511.981 -219.981L511.052 -220.911Z" fill="white"/>
<path d="M521.15 -220.966L-75.6328 375.817L-74.7034 376.746L522.08 -220.037L521.15 -220.966Z" fill="white"/>
<path d="M531.155 -220.93L-65.6279 375.854L-64.6985 376.783L532.085 -220L531.155 -220.93Z" fill="white"/>
<path d="M541.252 -220.985L-55.5312 375.798L-54.6018 376.727L542.181 -220.056L541.252 -220.985Z" fill="white"/>
<path d="M551.258 -220.948L-45.5254 375.835L-44.596 376.764L552.187 -220.019L551.258 -220.948Z" fill="white"/>
<path d="M561.262 -220.911L-35.5215 375.872L-34.5921 376.801L562.191 -219.982L561.262 -220.911Z" fill="white"/>
<path d="M571.36 -220.967L-25.4229 375.816L-24.4934 376.745L572.29 -220.038L571.36 -220.967Z" fill="white"/>
<path d="M581.364 -220.93L-15.4189 375.853L-14.4895 376.782L582.294 -220.001L581.364 -220.93Z" fill="white"/>
<path d="M591.462 -220.986L-5.32129 375.797L-4.39187 376.726L592.391 -220.057L591.462 -220.986Z" fill="white"/>
<path d="M601.467 -220.949L4.68359 375.834L5.61302 376.764L602.396 -220.019L601.467 -220.949Z" fill="white"/>
<path d="M611.472 -220.912L14.6885 375.871L15.6179 376.801L612.401 -219.983L611.472 -220.912Z" fill="white"/>
<path d="M621.569 -220.968L24.7861 375.815L25.7156 376.744L622.499 -220.039L621.569 -220.968Z" fill="white"/>
<path d="M631.574 -220.931L34.791 375.852L35.7204 376.781L632.504 -220.002L631.574 -220.931Z" fill="white"/>
<path d="M641.672 -220.987L44.8887 375.796L45.8181 376.726L642.601 -220.057L641.672 -220.987Z" fill="white"/>
<path d="M651.677 -220.95L54.8936 375.833L55.823 376.763L652.606 -220.02L651.677 -220.95Z" fill="white"/>
<path d="M661.682 -220.913L64.8984 375.87L65.8279 376.8L662.611 -219.984L661.682 -220.913Z" fill="white"/>
<path d="M671.779 -220.969L74.9961 375.814L75.9255 376.744L672.709 -220.039L671.779 -220.969Z" fill="white"/>
<path d="M681.784 -220.932L85.001 375.851L85.9304 376.78L682.714 -220.003L681.784 -220.932Z" fill="white"/>
<path d="M691.882 -220.988L95.0986 375.795L96.0281 376.725L692.811 -220.058L691.882 -220.988Z" fill="white"/>
<path d="M701.887 -220.951L105.104 375.833L106.033 376.762L702.816 -220.021L701.887 -220.951Z" fill="white"/>
<path d="M711.892 -220.914L115.108 375.869L116.038 376.799L712.821 -219.985L711.892 -220.914Z" fill="white"/>
<path d="M721.99 -220.97L125.207 375.813L126.136 376.743L722.92 -220.04L721.99 -220.97Z" fill="white"/>
<path d="M731.994 -220.933L135.211 375.851L136.14 376.78L732.924 -220.003L731.994 -220.933Z" fill="white"/>
<path d="M742.092 -220.988L145.309 375.795L146.238 376.724L743.021 -220.059L742.092 -220.988Z" fill="white"/>
<path d="M752.097 -220.952L155.313 375.832L156.243 376.761L753.026 -220.022L752.097 -220.952Z" fill="white"/>
<path d="M762.102 -220.915L165.318 375.869L166.248 376.798L763.031 -219.985L762.102 -220.915Z" fill="white"/>
<path d="M772.199 -220.971L175.416 375.812L176.345 376.742L773.129 -220.041L772.199 -220.971Z" fill="white"/>
<path d="M782.204 -220.934L185.421 375.85L186.35 376.779L783.134 -220.004L782.204 -220.934Z" fill="white"/>
<path d="M792.302 -220.989L195.519 375.794L196.448 376.723L793.231 -220.06L792.302 -220.989Z" fill="white"/>
<path d="M802.307 -220.953L205.523 375.831L206.453 376.76L803.236 -220.023L802.307 -220.953Z" fill="white"/>
<path d="M812.312 -220.915L215.528 375.868L216.458 376.798L813.241 -219.986L812.312 -220.915Z" fill="white"/>
<path d="M822.409 -220.971L225.626 375.812L226.555 376.741L823.339 -220.042L822.409 -220.971Z" fill="white"/>
<path d="M832.414 -220.934L235.631 375.849L236.56 376.779L833.343 -220.005L832.414 -220.934Z" fill="white"/>
<path d="M842.512 -220.99L245.729 375.793L246.658 376.722L843.441 -220.061L842.512 -220.99Z" fill="white"/>
<path d="M852.517 -220.953L255.733 375.83L256.663 376.76L853.446 -220.024L852.517 -220.953Z" fill="white"/>
<path d="M862.522 -220.917L265.738 375.867L266.668 376.796L863.451 -219.987L862.522 -220.917Z" fill="white"/>
<path d="M872.619 -220.972L275.836 375.811L276.765 376.74L873.549 -220.043L872.619 -220.972Z" fill="white"/>
<path d="M882.624 -220.935L285.841 375.848L286.77 376.778L883.553 -220.006L882.624 -220.935Z" fill="white"/>
<path d="M892.722 -220.991L295.938 375.792L296.868 376.721L893.651 -220.062L892.722 -220.991Z" fill="white"/>
<path d="M902.727 -220.954L305.943 375.829L306.873 376.759L903.656 -220.025L902.727 -220.954Z" fill="white"/>
<path d="M912.731 -220.917L315.948 375.866L316.878 376.796L913.661 -219.988L912.731 -220.917Z" fill="white"/>
<path d="M922.829 -220.973L326.046 375.811L326.975 376.74L923.759 -220.043L922.829 -220.973Z" fill="white"/>
<path d="M932.834 -220.936L336.051 375.847L336.98 376.777L933.763 -220.007L932.834 -220.936Z" fill="white"/>
<path d="M942.932 -220.992L346.148 375.792L347.078 376.721L943.861 -220.062L942.932 -220.992Z" fill="white"/>
<path d="M952.937 -220.955L356.153 375.828L357.083 376.758L953.866 -220.026L952.937 -220.955Z" fill="white"/>
<path d="M962.941 -220.918L366.158 375.865L367.088 376.795L963.871 -219.989L962.941 -220.918Z" fill="white"/>
<path d="M973.039 -220.974L376.256 375.809L377.185 376.739L973.968 -220.045L973.039 -220.974Z" fill="white"/>
<path d="M983.044 -220.937L386.261 375.846L387.19 376.776L983.973 -220.008L983.044 -220.937Z" fill="white"/>
<path d="M993.142 -220.993L396.358 375.791L397.288 376.72L994.071 -220.063L993.142 -220.993Z" fill="white"/>
<path d="M1003.15 -220.956L406.363 375.828L407.293 376.757L1004.08 -220.026L1003.15 -220.956Z" fill="white"/>
<path d="M1013.15 -220.918L416.368 375.865L417.298 376.794L1014.08 -219.989L1013.15 -220.918Z" fill="white"/>
<path d="M1023.25 -220.974L426.466 375.809L427.395 376.739L1024.18 -220.045L1023.25 -220.974Z" fill="white"/>
<path d="M1033.25 -220.937L436.471 375.846L437.4 376.775L1034.18 -220.008L1033.25 -220.937Z" fill="white"/>
<path d="M1043.35 -220.994L446.568 375.79L447.498 376.719L1044.28 -220.064L1043.35 -220.994Z" fill="white"/>
<path d="M1053.36 -220.957L456.573 375.827L457.503 376.756L1054.29 -220.027L1053.36 -220.957Z" fill="white"/>
<path d="M1063.36 -220.919L466.577 375.864L467.507 376.793L1064.29 -219.99L1063.36 -220.919Z" fill="white"/>
<path d="M1073.46 -220.976L476.676 375.808L477.605 376.737L1074.39 -220.046L1073.46 -220.976Z" fill="white"/>
<path d="M1083.46 -220.938L486.68 375.845L487.609 376.774L1084.39 -220.009L1083.46 -220.938Z" fill="white"/>
<path d="M1093.56 -220.994L496.778 375.789L497.708 376.718L1094.49 -220.065L1093.56 -220.994Z" fill="white"/>
<path d="M1103.57 -220.957L506.783 375.826L507.713 376.756L1104.5 -220.028L1103.57 -220.957Z" fill="white"/>
<path d="M1113.57 -220.92L516.788 375.863L517.718 376.792L1114.5 -219.991L1113.57 -220.92Z" fill="white"/>
<path d="M1123.67 -220.976L526.886 375.807L527.815 376.737L1124.6 -220.047L1123.67 -220.976Z" fill="white"/>
<path d="M1133.67 -220.939L536.891 375.844L537.82 376.774L1134.6 -220.01L1133.67 -220.939Z" fill="white"/>
<path d="M1143.68 -220.902L546.895 375.881L547.824 376.81L1144.61 -219.973L1143.68 -220.902Z" fill="white"/>
<path d="M1153.78 -220.958L556.993 375.825L557.923 376.754L1154.71 -220.029L1153.78 -220.958Z" fill="white"/>
<path d="M1163.78 -220.921L566.998 375.862L567.927 376.791L1164.71 -219.992L1163.78 -220.921Z" fill="white"/>
<path d="M1173.88 -220.977L577.096 375.806L578.025 376.736L1174.81 -220.048L1173.88 -220.977Z" fill="white"/>
<path d="M1183.88 -220.94L587.101 375.843L588.03 376.772L1184.81 -220.011L1183.88 -220.94Z" fill="white"/>
<path d="M1193.89 -220.903L597.105 375.88L598.035 376.81L1194.82 -219.973L1193.89 -220.903Z" fill="white"/>
<path d="M1203.99 -220.959L607.203 375.824L608.133 376.754L1204.92 -220.03L1203.99 -220.959Z" fill="white"/>
<path d="M1213.99 -220.922L617.207 375.861L618.136 376.791L1214.92 -219.992L1213.99 -220.922Z" fill="white"/>
<path d="M1224.09 -220.978L627.306 375.806L628.235 376.735L1225.02 -220.048L1224.09 -220.978Z" fill="white"/>
</g>
</svg>
