<svg width="455" height="150" viewBox="0 0 455 150" fill="none" xmlns="http://www.w3.org/2000/svg">
<path opacity="0.31" d="M-510.651 905.282C-425.183 905.282 -297.043 824.168 -216.427 725.388C-85.4256 564.778 -42.2562 349.18 11.1146 338.73C129.426 315.59 115.741 761.715 171.103 772.912C226.464 784.109 406.731 263.588 533.875 316.959M-511.646 898.688C-426.054 898.066 -296.794 819.441 -216.302 720.661C-85.4257 559.926 -42.1319 345.697 11.239 335.371C129.675 312.48 115.99 756.739 172.098 767.936C228.454 779.133 406.855 260.975 533.999 314.221M-512.641 891.97C-426.925 890.85 -296.67 814.713 -216.302 715.809C-85.6746 554.95 -42.132 342.089 11.2389 331.887C129.799 309.245 116.114 751.514 172.844 762.711C230.321 773.907 406.855 258.114 533.875 311.36M-513.636 885.377C-427.795 883.635 -296.545 810.11 -216.302 711.082C-85.9231 550.098 -42.1317 338.605 11.2391 328.404C129.924 306.011 116.115 746.413 173.715 757.61C232.311 768.807 406.855 255.252 534 308.623M-514.631 878.659C-428.666 876.419 -296.42 805.258 -216.302 706.23C-86.0472 545.122 -42.1313 334.873 11.2395 324.921C129.924 302.776 116.239 741.313 174.587 752.509C234.302 763.83 406.855 252.515 534 305.762M-515.627 872.065C-429.537 869.204 -296.296 800.655 -216.302 701.502C-86.2962 540.27 -42.2559 331.39 11.2393 321.437C130.049 299.541 116.239 736.212 175.457 747.409C236.293 758.73 406.855 249.778 534 303.025M-516.622 865.347C-430.532 861.988 -296.172 795.803 -216.302 696.526C-86.4207 535.294 -42.256 327.782 11.2393 317.954C130.173 296.431 116.364 731.111 176.204 742.308C238.159 753.505 406.855 246.917 533.875 300.164M-517.617 858.753C-431.403 854.772 -296.048 791.2 -216.302 691.798C-86.6697 530.442 -42.2562 324.174 11.239 314.47C130.297 293.197 116.363 726.135 177.074 737.207C240.025 748.528 406.855 244.18 533.875 297.427M-518.612 852.16C-432.273 847.681 -295.923 786.473 -216.302 687.071C-86.9182 525.466 -42.2559 320.566 11.2394 311.111C130.422 290.086 116.488 721.159 177.946 732.106C242.015 743.552 406.855 241.319 533.875 294.69M-519.608 845.442C-433.144 840.341 -295.674 781.745 -216.178 682.219C-87.0427 520.489 -42.1316 316.959 11.2393 307.628C130.546 286.852 116.612 716.058 178.816 727.006C244.006 738.451 406.855 238.582 534 291.953M-520.603 838.848C-434.016 833.25 -295.55 777.018 -216.178 677.492C-87.2916 515.637 -42.2561 313.475 11.2391 304.145C130.67 283.617 116.612 710.833 179.687 721.781C245.996 733.351 406.98 235.72 534 289.091M-521.599 832.13C-434.886 825.91 -295.426 772.29 -216.178 672.64C-87.4162 510.661 -42.2562 309.867 11.239 300.661C130.795 280.383 116.737 705.732 180.433 716.68C247.862 728.25 406.855 232.983 533.875 286.23M-522.594 825.537C-435.757 818.819 -295.301 767.563 -216.178 667.788C-87.6651 505.809 -42.2564 306.259 11.2388 297.178C130.919 277.148 116.861 700.631 181.304 711.579C249.853 723.149 406.855 230.246 533.999 283.493M-523.713 818.819C-436.752 811.478 -295.301 762.835 -216.302 662.936C-87.7892 500.833 -42.2561 302.652 11.2392 293.694C131.044 273.913 116.861 695.531 182.175 706.479C251.719 718.048 406.855 227.385 534 280.756M-524.709 812.225C-437.623 804.387 -295.177 758.108 -216.302 658.208C-88.0382 495.981 -42.2562 299.044 11.2391 290.211C131.044 270.679 116.986 690.43 183.046 701.253C253.709 712.823 406.855 224.524 534 277.77M-525.704 805.631C-438.619 797.172 -295.052 753.505 -216.178 653.481C-88.2871 491.005 -42.2564 295.436 11.2389 286.728C131.168 267.444 116.985 685.329 183.792 696.153C255.575 707.847 406.855 221.787 533.875 275.033M-526.699 798.913C-439.489 789.956 -294.928 748.653 -216.178 648.629C-88.4112 486.028 -42.256 291.953 11.2393 283.244C131.293 264.21 117.11 680.229 184.663 691.052C257.566 702.746 406.855 218.925 534 272.296M-527.694 792.32C-440.36 782.74 -294.804 744.05 -216.178 643.777C-88.6603 481.176 -42.2562 288.345 11.239 279.761C131.417 260.975 117.234 675.128 185.534 685.951C259.432 697.646 406.855 216.188 533.875 269.559M-528.69 785.602C-441.231 775.525 -294.555 739.198 -216.178 638.925C-88.7848 476.2 -42.3808 284.737 11.2389 276.402C131.541 257.865 117.234 670.152 186.405 680.975C261.422 692.545 406.855 213.451 533.875 266.698M-529.685 779.008C-442.102 768.309 -294.43 734.595 -216.178 634.198C-89.0332 471.348 -42.3804 281.129 11.2393 272.918C131.666 254.63 117.359 664.926 187.152 675.75C263.289 687.444 406.855 210.59 533.875 263.961M-530.68 772.415C-442.973 761.218 -294.306 729.867 -216.178 629.47C-89.2822 466.496 -42.3805 277.646 11.1147 269.435C131.666 251.396 117.234 659.95 187.898 670.649C265.155 682.343 406.731 207.853 533.875 261.224M-531.675 765.696C-443.843 753.878 -294.181 725.14 -216.178 624.618C-89.4063 461.52 -42.3802 274.038 11.2394 265.951C131.915 248.161 117.483 654.849 188.893 665.548C267.27 677.367 406.855 205.116 534 258.363M-532.67 759.103C-444.714 746.787 -294.057 720.537 -216.053 619.891C-89.5308 456.544 -42.3803 270.43 11.2393 262.468C132.039 244.927 117.608 649.749 189.764 660.448C269.261 672.266 406.855 202.379 534 255.626M-533.666 752.385C-445.71 739.447 -293.932 715.685 -216.053 614.915C-89.7797 451.567 -42.3804 266.822 11.2393 258.985C132.039 241.816 117.608 644.524 190.51 655.223C271.127 667.041 406.731 199.393 533.875 252.764M-534.661 745.791C-446.581 732.355 -293.808 711.082 -216.054 610.187C-90.0287 446.716 -42.3806 263.214 11.239 255.501C132.163 238.582 117.732 639.423 191.381 650.122C273.117 661.941 406.855 196.656 533.875 250.027M-535.657 739.073C-447.452 725.14 -293.684 706.23 -216.054 605.46C-90.1532 441.739 -42.3807 259.607 11.239 252.018C132.287 235.347 117.732 634.322 192.252 645.021C274.983 656.84 406.855 193.919 533.875 247.166M-536.652 732.48C-448.322 717.924 -293.559 701.627 -216.053 600.608C-90.4017 436.887 -42.3803 256.123 11.2393 248.534C132.412 232.113 117.857 629.221 193.123 639.921C276.974 651.739 406.855 191.058 534 244.429M-537.647 725.886C-449.193 710.708 -293.311 696.899 -216.053 595.88C-90.5263 431.911 -42.3805 252.515 11.2391 245.051C132.536 228.878 117.981 624.121 193.994 634.695C278.964 646.639 406.855 188.197 534 241.443M-538.642 719.168C-450.064 703.493 -293.186 692.172 -215.929 591.028C-90.7751 426.935 -42.3806 248.908 11.2391 241.692C132.661 225.768 117.981 619.144 194.74 629.719C280.83 641.662 406.855 185.584 533.875 238.831M-539.762 712.575C-451.059 696.277 -293.186 687.444 -216.053 586.177C-90.8993 422.083 -42.3804 245.3 11.2393 238.209C132.785 222.533 118.105 614.044 195.611 624.618C282.821 636.562 406.855 182.723 534 236.094M-540.757 705.856C-451.93 689.061 -293.062 682.717 -216.053 581.324C-91.1482 417.107 -42.3805 241.692 11.2392 234.725C132.91 219.299 118.23 608.943 196.482 619.518C284.811 631.461 406.855 179.986 534 233.357M-541.752 699.263C-452.801 681.846 -292.937 677.989 -216.053 576.597C-91.3968 412.255 -42.3803 238.084 11.2394 231.242C133.034 216.064 118.23 603.718 197.353 614.292C286.802 626.236 406.855 177.124 534 230.371M-542.748 692.545C-453.797 674.63 -292.813 673.262 -216.054 571.745C-91.6462 407.278 -42.5051 234.352 11.1145 227.758C132.909 212.581 118.229 598.617 198.099 609.192C288.668 621.135 406.855 174.387 533.875 227.634M-543.743 685.951C-454.667 667.415 -292.688 668.534 -216.053 567.018C-91.7702 402.427 -42.5049 230.869 11.2392 224.275C133.159 209.346 118.478 593.516 198.97 604.091C290.534 616.159 406.855 171.526 533.875 224.897M-544.738 679.358C-455.538 660.323 -292.564 663.931 -216.053 562.29C-91.8943 397.45 -42.5046 227.261 11.2395 220.791C133.283 206.111 118.479 588.416 199.841 598.99C292.525 611.058 406.855 168.789 534 222.035M-545.733 672.64C-456.409 652.983 -292.315 659.079 -215.929 557.314C-92.1433 392.474 -42.5047 223.653 11.2393 217.308C133.408 202.877 118.603 583.315 200.712 593.89C294.515 605.957 406.855 166.052 534 219.299M-546.729 666.046C-457.28 645.892 -292.191 654.476 -215.929 552.586C-92.2678 387.622 -42.5047 220.045 11.2393 213.825C133.532 199.642 118.603 578.214 201.583 588.665C296.506 600.732 406.855 163.066 534 216.437M-547.724 659.328C-458.151 638.552 -292.066 649.624 -215.929 547.734C-92.5167 382.646 -42.5049 216.562 11.2391 210.466C133.656 196.532 118.727 573.238 202.329 583.688C298.372 595.756 406.855 160.454 533.875 213.825M-548.719 652.734C-459.022 631.461 -291.942 645.021 -215.929 543.007C-92.7657 377.794 -42.505 212.954 11.239 206.982C133.78 193.297 118.852 568.013 203.2 578.588C300.362 590.531 406.855 157.592 533.875 210.963M-549.714 646.016C-459.892 624.121 -291.817 640.169 -215.929 538.155C-92.8898 372.817 -42.5047 209.346 11.2393 203.499C133.905 190.063 118.852 562.912 204.071 573.487C302.353 585.554 406.855 154.855 534 208.226M-550.71 639.423C-460.887 617.029 -291.693 635.566 -215.929 533.303C-93.1387 367.841 -42.5049 205.738 11.2392 199.891C134.029 186.704 118.976 557.687 204.942 568.137C304.219 580.329 406.855 151.994 533.875 205.365M-551.705 632.829C-461.758 609.814 -291.568 630.839 -215.929 528.576C-93.2629 362.989 -42.5046 202.13 11.2395 196.532C134.03 183.594 119.101 552.711 205.688 563.161C306.085 575.229 406.855 149.257 533.876 202.504M-552.7 626.111C-462.629 602.598 -291.445 626.111 -215.805 523.724C-93.5122 358.013 -42.5051 198.523 11.239 193.049C134.154 180.359 119.1 547.61 206.559 558.06C308.075 570.252 406.855 146.52 534 199.767M-553.695 619.518C-463.5 595.383 -291.32 621.384 -215.805 518.996C-93.6363 353.161 -42.5048 195.039 11.2393 189.565C134.278 177.249 119.225 542.509 207.43 552.96C310.066 565.152 406.855 143.659 534 197.03M-554.69 612.8C-464.37 588.167 -291.071 616.656 -215.804 514.144C-93.8849 348.185 -42.5046 191.431 11.2395 186.082C134.403 174.014 119.225 537.409 208.301 547.734C312.057 559.926 406.855 140.797 534 194.044M-555.81 606.206C-465.366 580.951 -291.071 611.929 -215.929 509.417C-94.0095 343.333 -42.6291 187.823 11.2393 182.598C134.527 170.78 119.349 532.184 209.172 542.634C314.047 554.826 406.98 138.06 534 191.307M-556.806 599.612C-466.237 573.86 -290.947 607.326 -215.929 504.565C-94.2588 338.357 -42.6296 184.216 11.2388 179.115C134.651 167.545 119.473 527.083 209.918 537.533C315.913 549.725 406.855 135.199 533.999 188.57M-557.801 592.894C-467.108 566.52 -290.822 602.474 -215.805 499.713C-94.5073 333.38 -42.6294 180.608 11.2391 175.756C134.776 164.435 119.474 522.107 210.789 532.557C317.779 544.749 406.855 132.587 534 185.957M-558.796 586.301C-467.978 559.429 -290.698 597.871 -215.804 494.986C-94.6314 328.528 -42.629 177 11.2394 172.273C134.901 161.2 119.598 517.006 211.66 527.332C319.77 539.524 406.855 129.725 533.875 182.972M-559.791 579.583C-468.974 552.089 -290.573 593.019 -215.804 490.134C-94.8803 323.552 -42.6291 173.517 11.2393 168.789C135.025 157.966 119.723 511.905 212.531 522.231C321.636 534.423 406.855 126.864 533.875 180.235M-560.787 572.989C-469.845 544.998 -290.449 588.416 -215.805 485.406C-95.0049 318.7 -42.6293 169.909 11.2391 165.306C135.025 154.731 119.723 506.68 213.277 517.13C323.627 529.322 406.855 124.127 533.875 177.498M-561.782 566.271C-470.716 537.657 -290.325 583.564 -215.805 480.554C-95.2539 313.724 -42.6294 166.301 11.239 161.822C135.149 151.496 119.847 501.579 214.148 512.029C325.617 524.221 406.855 121.39 533.999 174.636M-562.777 559.678C-471.586 530.566 -290.2 578.961 -215.804 475.703C-95.3779 308.748 -42.6291 162.693 11.2394 158.339C135.274 148.262 119.971 496.479 215.019 506.929C327.608 519.245 406.855 118.653 534 171.899M-563.772 553.084C-472.457 523.351 -289.951 574.233 -215.805 470.975C-95.6268 303.896 -42.6292 159.085 11.2393 154.855C135.398 145.027 119.971 491.378 215.89 501.704C329.598 514.02 406.855 115.667 534 169.038M-564.768 546.366C-473.328 516.135 -289.827 569.506 -215.805 466.123C-95.8758 298.919 -42.6293 155.602 11.2391 151.372C135.522 141.793 120.096 486.277 216.636 496.603C331.34 508.919 406.855 112.93 533.875 166.177M-565.763 539.772C-474.199 508.919 -289.702 564.778 -215.68 461.396C-95.9999 294.068 -42.6291 151.994 11.2394 147.889C135.647 138.558 120.096 481.176 217.507 491.502C333.33 503.819 406.855 110.193 534 163.44M-566.759 533.054C-475.07 501.704 -289.579 560.051 -215.681 456.544C-96.2493 289.091 -42.6296 148.386 11.2388 144.405C135.771 135.448 120.22 476.076 218.377 486.402C335.32 498.718 406.855 107.332 533.999 160.703M-567.754 526.461C-476.065 494.488 -289.454 555.323 -215.68 451.692C-96.3733 284.239 -42.6293 144.778 11.2391 141.046C135.895 132.213 120.345 470.975 219.249 481.301C337.311 493.617 406.855 104.595 534 157.966M-568.749 519.743C-476.936 487.272 -289.329 550.596 -215.68 446.84C-96.6219 279.263 -42.629 141.171 11.2395 137.563C136.02 128.979 120.345 465.874 220.12 476.2C339.178 488.517 406.855 101.858 533.876 155.104M-569.744 513.149C-477.807 480.057 -289.205 545.993 -215.68 442.112C-96.7468 274.287 -42.6296 137.563 11.2389 134.079C136.02 125.744 120.469 460.774 220.866 471.099C341.168 483.416 406.855 98.9965 533.875 152.367M-570.739 506.556C-478.678 472.966 -289.081 541.265 -215.68 437.385C-96.9954 269.435 -42.6293 134.079 11.2391 130.596C136.269 122.634 120.593 455.673 221.737 465.999C343.158 478.315 406.855 96.2595 534 149.63M-571.859 499.838C-479.673 465.626 -289.081 536.538 -215.805 432.533C-97.2444 264.459 -42.8783 130.472 11.1146 127.113C136.269 119.399 120.469 450.572 222.483 460.774C344.9 473.09 406.731 93.3982 533.875 146.645M-572.854 493.244C-480.544 458.534 -288.832 531.81 -215.68 427.806C-97.3684 259.607 -42.7535 126.864 11.2394 123.629C136.393 116.165 120.718 445.471 223.479 455.673C347.015 467.989 406.855 90.6611 534 143.908M-573.849 486.526C-481.415 451.194 -288.707 527.083 -215.68 422.829C-97.6174 254.63 -42.7537 123.256 11.2392 120.146C136.518 112.93 120.718 440.246 224.225 450.572C348.881 462.889 406.855 87.7998 533.875 141.171M-574.845 479.932C-482.286 444.103 -288.583 522.355 -215.68 418.102C-97.7419 249.654 -42.7538 119.648 11.2391 116.662C136.642 109.696 120.842 435.146 225.096 445.472C350.872 457.912 406.855 85.0629 534 138.309M-575.84 473.214C-483.281 436.763 -288.458 517.628 -215.68 413.25C-97.9904 244.678 -42.7534 116.04 11.1151 113.179C136.642 106.461 120.843 430.045 225.843 440.246C352.738 452.687 406.731 82.2014 533.876 135.448M-576.835 466.621C-484.152 429.672 -288.334 512.9 -215.68 408.522C-98.2394 239.826 -42.7537 112.557 11.1148 109.696C136.766 103.226 120.842 424.944 226.713 435.146C354.728 447.586 406.731 79.3401 533.875 132.711M-577.831 460.027C-485.023 422.456 -288.21 508.297 -215.68 403.795C-98.3639 234.974 -42.7538 109.074 11.1147 106.337C136.891 100.116 120.967 419.968 227.459 430.169C356.719 442.486 406.855 76.7276 533.875 129.974M-578.826 453.309C-485.894 415.24 -288.086 503.445 -215.556 398.943C-98.4884 229.998 -42.7539 105.341 11.239 102.853C137.139 96.8815 121.215 414.743 228.455 425.069C358.585 437.509 406.855 73.9905 534 127.237M-579.821 446.716C-486.764 408.025 -287.961 498.842 -215.556 394.091C-98.7369 225.021 -42.7535 101.734 11.2394 99.3698C137.264 93.647 121.216 409.642 229.326 419.968C360.576 432.409 406.855 71.2537 534 124.5M-580.816 439.997C-487.635 400.809 -287.712 493.99 -215.556 389.239C-98.8615 220.045 -42.7537 98.1256 11.2392 95.7618C137.388 90.2879 121.34 404.417 230.197 414.618C362.566 427.059 406.855 68.1434 534 121.514M-581.812 433.404C-488.506 393.594 -287.588 489.387 -215.556 384.512C-99.1104 215.193 -42.7537 94.6422 11.2391 92.4029C137.513 87.1778 121.34 399.441 231.067 409.642C364.557 422.083 406.98 65.5309 534 118.777M-582.807 426.81C-489.377 386.502 -287.463 484.66 -215.556 379.784C-99.3589 210.341 -42.7536 91.1588 11.2393 89.0439C137.513 84.0676 121.464 394.464 231.814 404.666C366.423 417.107 406.855 62.9183 533.875 116.165M-583.802 420.092C-490.248 379.162 -287.339 479.932 -215.556 374.932C-99.4838 205.365 -42.754 87.4266 11.2388 85.4361C137.637 80.833 121.588 389.239 232.684 399.441C368.413 411.881 406.855 59.9325 533.999 113.303M-584.797 413.499C-491.243 372.071 -287.215 475.205 -215.556 370.081C-99.7324 200.389 -42.8781 83.8188 11.2391 81.9527C137.762 77.5984 121.713 383.89 233.555 394.216C370.404 406.408 406.855 57.0712 534 110.318M-585.792 406.781C-492.113 364.731 -287.09 470.477 -215.555 365.353C-99.8565 195.537 -42.8778 80.3353 11.2394 78.4692C137.886 74.3637 121.713 378.665 234.427 389.115C372.27 401.431 406.855 54.3341 533.876 107.705M-586.788 400.187C-492.984 357.64 -286.966 465.75 -215.431 360.501C-100.105 190.56 -42.8779 76.7276 11.2394 74.9859C138.011 71.1293 121.838 373.564 235.173 384.014C374.261 396.206 406.855 51.4729 533.875 104.844M-587.908 393.469C-493.98 350.424 -286.841 461.022 -215.556 355.649C-100.354 185.708 -42.8781 73.1197 11.2392 71.6268C138.135 68.019 121.838 368.588 236.044 379.038C376.127 391.23 406.855 48.8602 534 102.231M-588.903 386.876C-494.851 343.208 -286.717 456.295 -215.556 350.922C-100.479 180.732 -42.8783 69.6363 11.239 68.1434C138.259 65.0333 121.962 363.487 236.914 373.813C378.117 386.129 406.855 45.9989 533.999 99.2453M-589.898 380.282C-495.721 335.993 -286.592 451.567 -215.556 346.07C-100.728 175.88 -42.878 66.0285 11.2393 64.66C138.384 61.7986 121.962 358.386 237.661 368.712C379.983 381.028 406.731 43.2619 533.875 96.5083M-590.893 373.564C-496.592 328.777 -286.468 446.84 -215.556 341.218C-100.852 170.904 -42.8781 62.4206 11.2392 61.1766C138.508 58.564 122.086 353.286 238.532 363.611C381.974 375.928 406.855 40.4005 533.875 93.7713M-591.889 366.97C-497.463 321.562 -286.344 442.237 -215.556 336.491C-101.101 166.052 -43.0025 58.9373 11.1147 57.6932C138.508 55.3294 122.086 348.185 239.278 358.511C383.84 370.827 406.731 37.6636 533.875 90.91M-592.884 360.252C-498.459 314.346 -286.219 437.385 -215.432 331.638C-101.225 161.076 -42.8783 55.2049 11.239 54.2097C138.632 52.0947 122.211 342.96 240.273 353.41C385.955 365.726 406.855 34.9265 534 88.1729M-593.879 353.659C-499.329 307.13 -286.095 432.782 -215.431 326.911C-101.474 156.224 -42.8781 51.7216 11.2392 50.7264C138.757 48.9847 122.335 337.859 241.02 348.185C387.821 360.501 406.731 31.9408 533.875 85.3116M-594.874 346.941C-500.2 299.915 -285.97 427.93 -215.431 322.059C-101.598 151.248 -42.8781 48.1139 11.2392 47.243C138.881 45.6257 122.46 332.758 242.015 343.084C389.811 355.4 406.855 29.2039 533.875 82.5747M-595.87 340.347C-501.071 292.699 -285.846 423.327 -215.432 317.332C-101.847 146.271 -42.8783 44.5059 11.239 43.7595C139.006 42.5154 122.459 327.657 242.761 337.983C391.677 350.3 406.855 26.4668 533.875 79.7133M-596.865 333.753C-501.942 285.483 -285.721 418.599 -215.431 312.48C-102.096 141.419 -42.878 40.8981 11.2393 40.2761C139.13 39.2808 122.584 322.557 243.633 332.883C393.668 345.199 406.855 23.6054 534 76.9763M-597.861 327.036C-502.813 278.268 -285.598 413.872 -215.432 307.628C-102.221 136.443 -42.8785 37.4148 11.2388 36.9172C139.254 36.0463 122.583 317.456 244.503 327.782C395.658 340.223 406.855 20.8686 533.999 74.2394M-598.855 320.442C-503.684 271.177 -285.348 409.145 -215.307 302.9C-102.469 131.467 -42.8782 33.807 11.2391 33.4337C139.379 32.9361 122.708 312.355 245.374 322.681C397.649 335.122 406.855 18.1316 534 71.378M-599.85 313.724C-504.554 263.836 -285.224 404.417 -215.307 298.048C-102.594 126.615 -43.0023 30.1991 11.2394 29.9503C139.504 29.7015 122.833 307.255 246.121 317.58C399.515 330.021 406.855 15.3946 533.875 68.641M-600.846 307.13C-505.425 256.745 -285.099 399.69 -215.307 293.321C-102.718 121.763 -42.878 26.7157 11.2393 26.4669C139.628 26.4669 122.957 302.154 246.992 312.48C401.506 324.921 406.855 12.5333 534 65.9041M-601.841 300.412C-506.421 249.405 -284.975 394.962 -215.307 288.469C-102.967 116.787 -42.8781 22.9834 11.2392 22.9834C139.628 23.2322 122.957 297.053 247.862 307.255C403.372 319.695 406.855 9.67176 534 62.9182M-602.961 293.819C-507.291 242.314 -284.851 390.235 -215.307 283.617C-103.216 111.81 -43.0023 19.5001 11.2394 19.5001C139.877 19.9977 123.082 291.953 248.733 302.154C405.362 314.595 406.855 6.93492 534 60.1813M-603.956 287.225C-508.162 235.098 -284.726 385.631 -215.307 278.89C-103.34 106.959 -43.0024 15.8923 11.2393 16.0167C139.877 16.7631 123.082 286.852 249.48 297.053C407.228 309.494 406.855 4.07357 533.875 57.4444M-604.951 280.507C-509.158 227.883 -284.726 380.78 -215.431 274.038C-103.713 101.982 -43.1269 12.2844 11.1147 12.5332C140.001 13.5285 123.206 281.751 250.35 291.953C409.219 304.393 406.855 1.33655 534 54.583M-605.947 273.913C-510.029 220.667 -284.602 376.176 -215.307 269.31C-103.838 97.006 -43.0027 8.67659 11.239 9.04982C140.125 10.2939 123.33 276.526 251.221 286.727C411.209 299.168 406.855 -1.52484 534 51.7216M-606.942 267.195C-510.899 213.451 -284.353 371.449 -215.307 264.458C-103.962 92.154 -43.0024 5.06872 11.2393 5.56635C140.25 7.18365 123.331 271.55 251.968 281.751C413.076 294.316 406.731 -4.26184 533.875 49.109M-607.937 260.602C-511.77 206.236 -284.229 366.721 -215.307 259.607C-104.211 87.1777 -43.0025 1.46094 11.2392 2.08297C140.374 3.82468 123.455 266.325 252.963 276.526C415.066 289.091 406.98 -7.12319 534 46.2477M-608.932 254.008C-512.641 199.144 -284.104 362.118 -215.307 254.879C-104.46 82.3258 -43.0027 -2.02251 11.1146 -1.27606C140.374 0.714459 123.455 261.348 253.585 271.55C416.808 284.115 406.731 -9.73577 533.751 43.5107M-609.928 247.29C-513.636 191.805 -283.98 357.267 -215.307 250.027C-104.584 77.3496 -43.0027 -5.63021 11.1146 -4.75936C140.498 -2.52003 123.455 256.248 254.456 266.325C418.922 278.89 406.855 -12.597 533.875 40.6494M-610.923 240.697C-514.507 184.713 -283.855 352.664 -215.307 245.3C-104.833 72.4977 -43.1268 -9.23804 11.1149 -8.24277C140.623 -5.63022 123.579 251.147 255.327 261.224C420.789 273.789 406.731 -15.4584 533.875 37.9124M-611.918 233.979C-515.378 177.373 -283.731 347.812 -215.307 240.448C-104.958 67.5213 -43.127 -12.8459 11.1147 -11.7263C140.747 -8.8649 123.704 245.922 256.198 256.123C422.779 268.688 406.731 -18.1955 533.875 35.051M-612.914 227.385C-516.249 170.282 -283.607 343.208 -215.183 235.72C-105.082 62.6694 -43.0027 -16.3293 11.239 -15.0853C140.872 -12.0995 123.828 240.821 257.068 251.022C424.77 263.588 406.855 -20.9324 533.875 32.314M-613.909 220.667C-517.119 162.942 -283.482 338.357 -215.182 230.744C-105.331 57.5688 -43.0024 -20.0616 11.2393 -18.8175C140.996 -15.3341 123.828 235.72 257.939 245.922C426.636 258.487 406.855 -23.7938 533.875 29.5771M-614.904 214.073C-517.99 155.726 -283.358 333.753 -215.183 226.017C-105.455 52.7169 -43.0025 -23.5449 11.2392 -22.1765C141.121 -18.5686 123.952 230.62 258.81 240.697C428.626 253.386 406.855 -26.5307 533.875 26.7157M-615.899 207.48C-518.862 148.635 -283.109 329.026 -215.183 221.289C-105.704 47.865 -43.0026 -27.1528 11.2391 -25.5355C141.245 -21.6788 124.077 225.643 259.681 235.72C430.617 248.41 406.855 -29.2677 534 23.9787M-616.894 200.762C-519.856 141.42 -283.109 324.299 -215.182 216.437C-105.953 42.8887 -43.1268 -30.7605 11.2393 -29.1432C141.37 -25.0378 124.201 220.418 260.552 230.495C432.483 243.185 406.855 -32.129 533.875 21.1174M-617.89 194.168C-520.727 134.204 -282.985 319.571 -215.182 211.585C-106.077 37.9123 -43.1268 -34.3684 11.2393 -32.6267C141.494 -28.2725 124.201 215.317 261.298 225.395C434.474 238.084 406.855 -34.9905 534 18.3804M-619.01 187.45C-521.598 126.988 -282.86 314.844 -215.183 206.858C-106.326 33.0605 -43.1271 -37.8518 11.239 -35.9857C141.618 -31.3826 124.325 210.217 262.169 220.294C436.464 232.983 406.855 -37.7274 533.875 15.519M-620.005 180.857C-522.593 119.772 -282.736 310.116 -215.182 202.006C-106.575 28.0841 -43.1267 -41.5841 11.2394 -39.4692C141.743 -34.6173 124.326 205.116 263.04 215.193C438.455 227.883 406.855 -40.4644 534 12.782M-621 174.139C-523.464 112.557 -282.611 305.389 -215.182 197.154C-106.699 23.2323 -43.1268 -45.0674 11.2393 -42.9525C141.867 -37.8518 124.45 200.015 263.911 210.092C440.445 222.782 406.855 -43.3257 534 10.0451" stroke="white" stroke-width="0.25" stroke-linecap="round" stroke-linejoin="round"/>
</svg>
