<svg width="211" height="47" viewBox="0 0 211 47" fill="none" xmlns="http://www.w3.org/2000/svg">
<circle cx="22.5" cy="22.5" r="22.5" fill="white"/>
<path fill-rule="evenodd" clip-rule="evenodd" d="M45 22.5C45 26.2818 44.067 29.8458 42.4185 32.9741C40.0954 31.6606 37.2907 30.6052 33.9032 29.9917C33.766 29.9595 33.6325 29.9349 33.5047 29.9194C34.4949 29.2715 34.9005 27.4853 34.8034 26.0843C34.0954 26.156 33.9636 26.5723 33.8398 26.9636C33.772 27.1779 33.7065 27.3848 33.55 27.5232C33.1854 27.8472 30.3442 27.7479 29.8092 27.5874L29.5891 26.8548C29.3995 26.4297 28.7674 26.3927 28.1006 26.3537H28.1006C27.7282 26.332 27.345 26.3096 27.0219 26.2186C26.8774 24.8848 26.2561 23.8107 25.4535 23.8253C24.0103 23.8486 24.0987 26.6213 24.185 27.9376L24.1873 27.9746C24.1966 28.1219 24.2093 28.322 24.116 28.4134C23.8118 27.7158 23.7773 26.4404 23.8097 25.5969L20.9598 25.8975C20.2954 26.0172 20.1595 25.8975 20.1293 25.6027L23.0956 25.2175C23.1909 25.1944 23.2767 25.1754 23.3543 25.1582C23.8951 25.0385 24.0425 25.0058 24.2972 24.2835C24.5129 23.6677 24.7567 23.3087 25.1537 22.976C25.9411 22.3135 27.147 22.293 27.997 22.9059C28.7995 23.4809 29.121 24.4207 29.464 25.6436C29.4985 24.8906 29.3475 23.4984 29.108 22.5032C28.7952 21.1956 28.3832 20.9972 27.3692 20.822C26.9982 20.7578 26.6034 20.7316 26.2366 20.7199C26.0209 20.714 25.7728 20.7695 25.0976 21.7093C25.0976 21.7093 25.5571 20.8425 25.4169 20.7111H24.0577C23.9976 20.713 23.9379 20.7152 23.8789 20.7174C22.9257 20.7528 22.1517 20.7816 22.1334 19.2314L22.1331 19.205V19.2049V19.2048V19.2048V19.2047V19.2047V19.2046C22.1158 17.8992 22.0864 15.6853 22.1507 14.4156C23.8204 14.404 25.4039 16.4441 26.0101 18.1632C25.7124 15.2416 23.1301 12.8571 21.5704 13.5459L21.5725 21.578C21.5739 21.9622 21.5941 22.3521 21.6142 22.7414L21.6142 22.7415L21.6142 22.7416L21.6142 22.7416L21.6142 22.7417L21.6142 22.7418L21.6142 22.7419L21.6142 22.742L21.6143 22.7421L21.6143 22.7422L21.6143 22.7423L21.6143 22.7423L21.6143 22.7424L21.6143 22.7425L21.6143 22.7426L21.6143 22.7427L21.6143 22.7428L21.6143 22.7429L21.6143 22.7429L21.6143 22.743L21.6143 22.7431L21.6143 22.7432L21.6143 22.7433L21.6143 22.7434L21.6143 22.7435L21.6143 22.7435L21.6144 22.7436L21.6144 22.7437L21.6144 22.7438L21.6144 22.7439L21.6144 22.744L21.6144 22.7441L21.6144 22.7442L21.6144 22.7443L21.6144 22.7444L21.6144 22.7446L21.6144 22.7447L21.6144 22.7448L21.6144 22.7449L21.6144 22.745L21.6144 22.7451L21.6144 22.7452L21.6144 22.7453L21.6145 22.7454L21.6145 22.7456L21.6145 22.7457L21.6145 22.7458L21.6145 22.7459L21.6145 22.746L21.6145 22.7462L21.6145 22.7463L21.6145 22.7464L21.6145 22.7465C21.6262 22.9735 21.638 23.2003 21.6459 23.4255C21.6674 23.9654 21.7041 24.1872 22.237 24.5053C21.8012 24.4557 21.5596 24.3769 21.4344 23.5655V21.8348L21.4342 21.8348V19.2925L20.8819 20.0163V21.9082L20.6965 21.9329V19.8354L20.6966 19.8354L21.1151 19.2225V16.9109V14.0098L20.7225 13.3823V11.8384C20.7225 11.5407 20.6124 11.2867 20.4204 11.1408L20.1076 10.9073V13.3823L19.8142 13.8134V10.3206H25.091V10.093C25.091 9.33998 24.6811 8.70956 24.1245 8.61908L18.2199 7.6501V10.3206V22.2621L0.103339 24.6705C0.0626481 24.2453 0.0337867 23.8168 0.0170881 23.3851L16.63 19.9582C17.042 19.8385 17.3678 19.1526 17.3699 18.4054C17.3753 16.3109 17.3786 14.6821 17.3818 13.0532V13.0525V13.0512C17.385 11.4236 17.3883 9.7957 17.3937 7.70283L1.00061 15.8445C3.83838 6.66723 12.3906 0 22.5 0C34.9264 0 45 10.0736 45 22.5ZM30.3032 30.3743C30.7761 30.3859 36.2963 31.1231 41.5874 34.4187C37.611 40.7735 30.5491 45 22.5 45C22.3702 45 22.2407 44.9989 22.1115 44.9967C20.2817 40.2984 15.4475 32.8121 2.89143 29.9915L14.1181 30.2385C15.6146 30.6218 17.4113 31.1943 19.3116 31.9715L20.9943 30.8945C20.4916 30.7047 19.9773 30.5247 19.4519 30.3558L19.5144 30.3572H27.5699C28.4529 30.36 29.3804 30.3669 30.3034 30.3742L30.3032 30.3743ZM1.65076 30.9751C4.63961 38.3204 11.3975 43.7308 19.5231 44.8048C16.2705 36.4162 7.57724 32.613 1.65076 30.9751ZM15.9375 17.1679L0.000764898 22.6875C0.000255294 22.6251 0 22.5626 0 22.5C0 21.7425 0.0374352 20.9937 0.110557 20.2554L15.9439 15.5919L15.9375 17.1679ZM16.0238 12.79L0.202192 19.4706C0.323671 18.5679 0.498676 17.6822 0.723907 16.8168L16.0281 11.2285L16.0238 12.79ZM23.4904 26.1631L20.4119 26.4287L20.3536 26.4346L20.3515 26.5163L20.3515 26.5166C20.3509 26.5402 20.3226 27.7433 21.2187 27.8822C22.0394 28.0068 23.5042 27.9583 23.5939 27.9553H23.594L23.5982 27.9552C23.1537 27.8655 22.7126 27.836 22.2729 27.8065H22.2729C21.9252 27.7832 21.5784 27.7599 21.2316 27.7071C20.672 27.6196 20.6895 27.053 20.6994 26.7342C20.7011 26.6807 20.7025 26.6341 20.701 26.598C21.4321 26.533 22.0298 26.4244 22.6833 26.3057L22.6833 26.3057C22.9399 26.259 23.2051 26.2108 23.4904 26.1631ZM29.2936 27.8501L29.1382 27.1234L27.6001 26.9366C27.9215 27.783 28.7305 27.9143 29.2936 27.8501ZM25.2292 24.5958C24.7848 24.5958 24.4223 25.559 24.4223 26.7439C24.4223 27.9318 24.7826 28.9008 25.2292 28.892C26.6875 28.8745 26.6099 24.5754 25.2292 24.5958ZM32.9653 27.2927C32.3245 27.424 31.1919 27.4298 30.5124 27.2985C29.9666 27.1963 29.9019 27.173 29.8307 26.4521L29.4165 22.293C29.3771 21.899 29.3846 21.7319 29.4913 21.6365L29.4876 21.6366C29.4876 21.6366 28.9414 20.5703 27.6827 20.2479C27.6054 20.2411 27.5302 20.234 27.4576 20.2267C26.7694 20.1566 26.7457 20.0953 26.5688 19.2548L25.9798 16.4792C26.972 16.5087 27.9609 16.5701 28.9512 16.6317C29.3325 16.6554 29.714 16.6791 30.096 16.701C30.1713 16.7056 30.2427 16.7089 30.3107 16.7121H30.3108L30.3108 16.7121L30.311 16.7121L30.3112 16.7121C30.9321 16.741 31.2652 16.7565 31.6579 17.6087C32.0156 18.3842 32.2269 19.547 32.2188 20.3349L33.4588 21.5917C33.5662 21.6496 33.6046 21.7393 33.6189 21.9512H33.6534V22.1176H33.6255C33.6266 22.1729 33.6272 22.234 33.6276 22.3018L33.628 22.3832H33.6296V22.5525L33.6288 22.4894C33.6312 22.774 33.6359 23.0572 33.6404 23.3391C33.6567 24.3368 33.6727 25.32 33.5909 26.3032C33.5283 27.0504 33.5003 27.1847 32.9653 27.2927ZM25.6952 15.7202C24.8215 14.0887 24.2671 13.0555 21.8228 12.8045L21.8667 12.7989C21.809 12.7657 21.5198 12.5863 21.4732 12.3054C21.4193 11.9931 21.4732 11.2985 21.4732 11.2985C21.4732 11.2985 23.1754 11.1788 24.6661 11.4181C26.1568 11.6575 26.9917 12.1799 27.4577 13.1139L26.9205 13.0993L26.9078 13.1005C28.4391 13.5735 29.8622 14.5191 30.6225 16.3098L26.1784 16.0909C26.1784 16.0909 25.8527 16.1259 25.6952 15.7202ZM26.4307 23.4484C27.8394 23.6994 28.7886 24.108 29.0195 26.081C28.0632 26.0527 28.0591 26.0415 27.9748 25.8125C27.9288 25.6876 27.8589 25.498 27.5978 25.2054C27.467 25.0589 27.3671 24.9664 27.2807 24.8864C27.0264 24.6512 26.8896 24.5246 26.4307 23.4484ZM33.895 25.8946C34.2877 25.8012 34.5401 25.4509 34.6781 25.0102C34.6199 24.4177 34.1949 23.8603 33.9058 23.764L33.895 25.8946ZM25.2291 25.5064C25.1407 25.5064 25.0587 25.5706 24.9875 25.6874H24.994C25.214 25.6874 25.3909 26.1602 25.3909 26.7468C25.3909 27.3335 25.2119 27.8063 24.994 27.8063H24.9875C25.0566 27.9201 25.1407 27.9843 25.2291 27.9843C25.4859 27.9843 25.693 27.4298 25.693 26.7468C25.693 26.0609 25.4859 25.5064 25.2291 25.5064ZM22.4872 14.9903C24.2433 15.9826 25.624 17.366 26.1547 20.0979L24.0211 20.0191H24.0081H24.0038C23.9628 20.0191 23.924 20.0162 23.8873 20.0103L23.5931 19.9882C23.3747 19.9718 23.1502 19.9549 23.143 19.9549C22.4354 19.9169 22.4872 19.1902 22.4872 19.1902V14.9903ZM25.0952 26.2359C25.0241 26.2359 24.968 26.4489 24.968 26.7116C24.968 26.9743 25.0241 27.1874 25.0952 27.1874C25.1643 27.1874 25.2204 26.9772 25.2204 26.7116C25.2225 26.446 25.1664 26.2359 25.0952 26.2359ZM32.262 41.5679C31.2653 40.059 30.0227 38.7077 28.6398 37.5081L30.3312 36.4253C31.9621 37.835 33.2587 39.2826 34.182 40.6106L32.262 41.5679ZM27.408 36.5041C26.5537 35.8532 25.6627 35.2491 24.7523 34.6945L26.4696 33.5913C27.4145 34.1779 28.2925 34.7909 29.1036 35.4184L27.408 36.5041ZM23.281 33.8481C22.513 33.4308 21.7407 33.0484 20.977 32.6953L22.6942 31.595C23.4989 31.9539 24.2712 32.3392 25.0091 32.742L23.281 33.8481Z" fill="#F68B21"/>
<path d="M57.5284 38V8.90909H63.679V32.929H76.1506V38H57.5284ZM89.968 38.4261C87.7616 38.4261 85.8535 37.9574 84.2436 37.0199C82.6432 36.0729 81.4074 34.7566 80.5362 33.071C79.665 31.3759 79.2294 29.411 79.2294 27.1761C79.2294 24.9223 79.665 22.9527 80.5362 21.267C81.4074 19.572 82.6432 18.2557 84.2436 17.3182C85.8535 16.3712 87.7616 15.8977 89.968 15.8977C92.1745 15.8977 94.0779 16.3712 95.6783 17.3182C97.2881 18.2557 98.5286 19.572 99.3999 21.267C100.271 22.9527 100.707 24.9223 100.707 27.1761C100.707 29.411 100.271 31.3759 99.3999 33.071C98.5286 34.7566 97.2881 36.0729 95.6783 37.0199C94.0779 37.9574 92.1745 38.4261 89.968 38.4261ZM89.9964 33.7386C91.0002 33.7386 91.8383 33.4545 92.5107 32.8864C93.183 32.3087 93.6896 31.5227 94.0305 30.5284C94.3809 29.5341 94.5561 28.4025 94.5561 27.1335C94.5561 25.8646 94.3809 24.733 94.0305 23.7386C93.6896 22.7443 93.183 21.9583 92.5107 21.3807C91.8383 20.803 91.0002 20.5142 89.9964 20.5142C88.9832 20.5142 88.1309 20.803 87.4396 21.3807C86.7578 21.9583 86.2417 22.7443 85.8913 23.7386C85.5504 24.733 85.38 25.8646 85.38 27.1335C85.38 28.4025 85.5504 29.5341 85.8913 30.5284C86.2417 31.5227 86.7578 32.3087 87.4396 32.8864C88.1309 33.4545 88.9832 33.7386 89.9964 33.7386ZM114.471 46.6364C112.511 46.6364 110.83 46.3665 109.428 45.8267C108.036 45.2964 106.928 44.572 106.104 43.6534C105.281 42.7348 104.746 41.7027 104.499 40.5568L110.096 39.804C110.266 40.2396 110.536 40.6468 110.906 41.0256C111.275 41.4044 111.763 41.7074 112.369 41.9347C112.984 42.1714 113.732 42.2898 114.613 42.2898C115.929 42.2898 117.013 41.9678 117.866 41.3239C118.728 40.6894 119.158 39.6241 119.158 38.1278V34.1364H118.903C118.638 34.7424 118.24 35.3153 117.71 35.8551C117.179 36.3949 116.497 36.8352 115.664 37.1761C114.831 37.517 113.836 37.6875 112.681 37.6875C111.043 37.6875 109.551 37.3087 108.207 36.5511C106.871 35.7841 105.806 34.6146 105.011 33.0426C104.225 31.4612 103.832 29.4631 103.832 27.0483C103.832 24.5767 104.234 22.5123 105.039 20.8551C105.844 19.1979 106.914 17.9574 108.249 17.1335C109.594 16.3097 111.067 15.8977 112.667 15.8977C113.888 15.8977 114.911 16.1061 115.735 16.5227C116.559 16.9299 117.222 17.4413 117.724 18.0568C118.235 18.6629 118.628 19.2595 118.903 19.8466H119.13V16.1818H125.138V38.2131C125.138 40.0691 124.684 41.6222 123.775 42.8722C122.866 44.1222 121.606 45.0597 119.996 45.6847C118.396 46.3191 116.554 46.6364 114.471 46.6364ZM114.599 33.142C115.574 33.142 116.398 32.9006 117.07 32.4176C117.752 31.9252 118.273 31.2244 118.633 30.3153C119.002 29.3968 119.187 28.2983 119.187 27.0199C119.187 25.7415 119.007 24.6335 118.647 23.696C118.287 22.7491 117.766 22.0152 117.085 21.4943C116.403 20.9735 115.574 20.7131 114.599 20.7131C113.604 20.7131 112.766 20.983 112.085 21.5227C111.403 22.053 110.887 22.7917 110.536 23.7386C110.186 24.6856 110.011 25.7794 110.011 27.0199C110.011 28.2794 110.186 29.3684 110.536 30.2869C110.896 31.196 111.412 31.9015 112.085 32.4034C112.766 32.8958 113.604 33.142 114.599 33.142ZM129.954 38V16.1818H136.005V38H129.954ZM132.994 13.3693C132.094 13.3693 131.322 13.071 130.678 12.4744C130.044 11.8684 129.727 11.1439 129.727 10.3011C129.727 9.4678 130.044 8.75284 130.678 8.15625C131.322 7.55019 132.094 7.24716 132.994 7.24716C133.893 7.24716 134.66 7.55019 135.295 8.15625C135.939 8.75284 136.261 9.4678 136.261 10.3011C136.261 11.1439 135.939 11.8684 135.295 12.4744C134.66 13.071 133.893 13.3693 132.994 13.3693ZM159.006 22.4034L153.466 22.7443C153.371 22.2708 153.168 21.8447 152.855 21.4659C152.543 21.0777 152.131 20.7699 151.619 20.5426C151.117 20.3059 150.516 20.1875 149.815 20.1875C148.878 20.1875 148.087 20.3864 147.443 20.7841C146.799 21.1723 146.477 21.6932 146.477 22.3466C146.477 22.8674 146.686 23.3078 147.102 23.6676C147.519 24.0275 148.234 24.3163 149.247 24.5341L153.196 25.3295C155.317 25.7652 156.899 26.4659 157.94 27.4318C158.982 28.3977 159.503 29.6667 159.503 31.2386C159.503 32.6686 159.081 33.9233 158.239 35.0028C157.405 36.0824 156.259 36.9252 154.801 37.5312C153.352 38.1278 151.681 38.4261 149.787 38.4261C146.899 38.4261 144.598 37.8248 142.884 36.6222C141.179 35.41 140.18 33.7623 139.886 31.679L145.838 31.3665C146.018 32.2472 146.454 32.9195 147.145 33.3835C147.836 33.8381 148.722 34.0653 149.801 34.0653C150.862 34.0653 151.714 33.8617 152.358 33.4545C153.011 33.0379 153.343 32.5028 153.352 31.8494C153.343 31.3002 153.111 30.8504 152.656 30.5C152.202 30.1402 151.501 29.8655 150.554 29.6761L146.776 28.9233C144.645 28.4972 143.059 27.7585 142.017 26.7074C140.985 25.6562 140.469 24.3163 140.469 22.6875C140.469 21.286 140.848 20.0786 141.605 19.0653C142.372 18.0521 143.447 17.2708 144.83 16.7216C146.222 16.1723 147.85 15.8977 149.716 15.8977C152.472 15.8977 154.64 16.4801 156.222 17.6449C157.813 18.8097 158.741 20.3958 159.006 22.4034ZM174.918 16.1818V20.7273H161.779V16.1818H174.918ZM164.762 10.9545H170.813V31.2955C170.813 31.8542 170.898 32.2898 171.069 32.6023C171.239 32.9053 171.476 33.1184 171.779 33.2415C172.092 33.3646 172.451 33.4261 172.859 33.4261C173.143 33.4261 173.427 33.4025 173.711 33.3551C173.995 33.2983 174.213 33.2557 174.364 33.2273L175.316 37.7301C175.013 37.8248 174.587 37.9337 174.038 38.0568C173.488 38.1894 172.821 38.2699 172.035 38.2983C170.576 38.3551 169.298 38.161 168.2 37.7159C167.111 37.2708 166.263 36.5795 165.657 35.642C165.051 34.7045 164.753 33.5208 164.762 32.0909V10.9545ZM178.86 38V16.1818H184.911V38H178.86ZM181.9 13.3693C181 13.3693 180.228 13.071 179.585 12.4744C178.95 11.8684 178.633 11.1439 178.633 10.3011C178.633 9.4678 178.95 8.75284 179.585 8.15625C180.228 7.55019 181 7.24716 181.9 7.24716C182.799 7.24716 183.567 7.55019 184.201 8.15625C184.845 8.75284 185.167 9.4678 185.167 10.3011C185.167 11.1439 184.845 11.8684 184.201 12.4744C183.567 13.071 182.799 13.3693 181.9 13.3693ZM195.241 31.7216L195.256 24.4631H196.136L203.125 16.1818H210.071L200.682 27.1477H199.247L195.241 31.7216ZM189.759 38V8.90909H195.81V38H189.759ZM203.395 38L196.974 28.4972L201.009 24.2216L210.483 38H203.395Z" fill="white"/>
</svg>
