<svg width="42" height="42" viewBox="0 0 42 42" fill="none" xmlns="http://www.w3.org/2000/svg">
<path fill-rule="evenodd" clip-rule="evenodd" d="M25.2707 32.6253L25.2498 32.6462L20.2498 27.6462L22.4582 25.4378L25.2707 28.2503L30.4582 23.0837L32.6665 25.292L25.2915 32.667L25.2707 32.6253ZM20.9998 0.166992C9.5415 0.166992 0.166504 9.54199 0.166504 21.0003C0.166504 32.4587 9.5415 41.8337 20.9998 41.8337C32.4582 41.8337 41.8332 32.4587 41.8332 21.0003C41.8332 9.54199 32.4582 0.166992 20.9998 0.166992ZM11.2915 9.08366L14.229 12.0212L17.1665 9.08366L19.3748 11.292L16.4373 14.2295L19.3748 17.167L17.1665 19.3753L14.229 16.4378L11.2915 19.3753L9.08317 17.167L12.0207 14.2295L9.08317 11.292L11.2915 9.08366ZM20.9998 37.667C16.4165 37.667 12.2498 35.792 9.12484 32.8753L32.8748 9.12533C35.7915 12.2503 37.6665 16.417 37.6665 21.0003C37.6665 30.167 30.1665 37.667 20.9998 37.667Z" fill="#166FD3"/>
</svg>
