<svg width="50" height="50" viewBox="0 0 50 50" fill="none" xmlns="http://www.w3.org/2000/svg">
<g clip-path="url(#clip0_33_80)">
<path d="M43.7501 25.4583C43.7501 14.0208 34.8751 6.25 25.0001 6.25C15.2292 6.25 6.25008 13.8542 6.25008 25.5833C5.00008 26.2917 4.16675 27.625 4.16675 29.1667V33.3333C4.16675 35.625 6.04175 37.5 8.33342 37.5H10.4167V24.7917C10.4167 16.7292 16.9376 10.2083 25.0001 10.2083C33.0626 10.2083 39.5834 16.7292 39.5834 24.7917V39.5833H22.9167V43.75H39.5834C41.8751 43.75 43.7501 41.875 43.7501 39.5833V37.0417C44.9793 36.3958 45.8334 35.125 45.8334 33.625V28.8333C45.8334 27.375 44.9793 26.1042 43.7501 25.4583Z" fill="#166FD3"/>
<path d="M18.7501 29.1667C19.9007 29.1667 20.8334 28.2339 20.8334 27.0833C20.8334 25.9327 19.9007 25 18.7501 25C17.5995 25 16.6667 25.9327 16.6667 27.0833C16.6667 28.2339 17.5995 29.1667 18.7501 29.1667Z" fill="#F3B338"/>
<path d="M31.2501 29.1667C32.4007 29.1667 33.3334 28.2339 33.3334 27.0833C33.3334 25.9327 32.4007 25 31.2501 25C30.0995 25 29.1667 25.9327 29.1667 27.0833C29.1667 28.2339 30.0995 29.1667 31.2501 29.1667Z" fill="#F3B338"/>
<path d="M37.5 22.9792C36.5 17.0417 31.3333 12.5 25.1041 12.5C18.7916 12.5 12 17.7292 12.5416 25.9375C17.6875 23.8333 21.5625 19.25 22.6666 13.6667C25.3958 19.1458 31 22.9167 37.5 22.9792Z" fill="#F3B338"/>
</g>
<defs>
<clipPath id="clip0_33_80">
<rect width="50" height="50" fill="white"/>
</clipPath>
</defs>
</svg>
