<svg width="55" height="55" viewBox="0 0 55 55" fill="none" xmlns="http://www.w3.org/2000/svg">
<g clip-path="url(#clip0_33_58)">
<path d="M38.6744 10.5186C34.5118 7.1344 29.0555 5.83359 23.7034 6.94893C16.7487 8.3987 11.2509 14.1369 10.0457 21.1412C8.98831 27.2843 11.104 33.1182 15.2439 37.0819C17.9127 39.637 19.4434 43.1924 19.4434 46.8363V50.1664C19.4434 52.8318 21.612 55.0003 24.2774 55.0003H30.7227C33.3881 55.0003 35.5566 52.8318 35.5566 50.1664C35.5566 47.2219 35.5566 52.922 35.5566 45.8771C35.5566 42.7555 37.0093 39.6684 39.6475 37.1847C43.1915 33.8479 45.2241 29.1436 45.2241 24.2778C45.2246 18.918 42.837 13.9032 38.6744 10.5186ZM30.7227 51.7773H24.2774C23.3891 51.7773 22.6661 51.0543 22.6661 50.1659V48.4472H32.334V50.1659C32.334 51.0543 31.611 51.7773 30.7227 51.7773ZM27.5 34.2634L23.1281 27.7056L24.2774 26.5563L26.3608 28.6397C26.9898 29.2687 28.0103 29.2687 28.6393 28.6397L30.7227 26.5563L31.872 27.7056L27.5 34.2634ZM37.4386 34.8382C34.3251 37.7697 32.535 41.4354 32.3499 45.2246H29.1114V37.656L35.1974 28.5268L38.3072 25.417C38.9366 24.7876 38.9366 23.7675 38.3072 23.1381C37.6778 22.5091 36.6577 22.5091 36.0283 23.1381L33.9453 25.2215L31.8619 23.1381C31.2325 22.5091 30.2124 22.5091 29.583 23.1381L27.4996 25.2215L25.4166 23.1381C24.7872 22.5091 23.7671 22.5091 23.1377 23.1381L21.0543 25.2215L18.9709 23.1381C18.3419 22.5091 17.3219 22.5091 16.6924 23.1381C16.063 23.7675 16.063 24.7876 16.6924 25.417L19.8022 28.5268L25.8883 37.656V45.2246H22.5855C22.1936 41.284 20.3788 37.5368 17.4725 34.7539C13.9259 31.3588 12.3767 26.5962 13.2214 21.6875C14.21 15.9417 18.6864 11.2865 24.3605 10.1036C28.7585 9.18674 33.2345 10.2496 36.6409 13.0191C40.0478 15.789 42.0015 19.8924 42.0015 24.2774C42.0019 28.3174 40.3814 32.0679 37.4386 34.8382Z" fill="#166FD3"/>
<path d="M6.44528 24.2773C6.44528 23.3878 5.72397 22.666 4.83396 22.666H1.61132C0.721738 22.666 0 23.3878 0 24.2773C0 25.1673 0.721738 25.8887 1.61132 25.8887H4.83396C5.72397 25.8887 6.44528 25.1673 6.44528 24.2773Z" fill="#F3B438"/>
<path d="M53.3887 22.666H50.166C49.276 22.666 48.5547 23.3878 48.5547 24.2773C48.5547 25.1673 49.276 25.8887 50.166 25.8887H53.3887C54.2782 25.8887 55 25.1673 55 24.2773C55 23.3878 54.2782 22.666 53.3887 22.666Z" fill="#F3B438"/>
<path d="M8.76933 11.603L5.97847 9.99163C5.20806 9.54642 4.22239 9.81078 3.77759 10.5816C3.3328 11.352 3.59674 12.3377 4.36715 12.7825L7.15801 14.3938C7.92843 14.8386 8.91452 14.5751 9.35931 13.8043C9.8041 13.0334 9.54017 12.0482 8.76933 11.603Z" fill="#F3B438"/>
<path d="M50.6326 35.7729L47.8418 34.1616C47.071 33.7164 46.0857 33.9807 45.6409 34.7511C45.1957 35.522 45.4596 36.5072 46.2305 36.9524L49.0213 38.5638C49.7913 39.0085 50.777 38.745 51.2222 37.9738C51.6674 37.2034 51.4035 36.2177 50.6326 35.7729Z" fill="#F3B438"/>
<path d="M14.8252 5.20822C15.2704 5.97905 16.2561 6.24257 17.0265 5.79777C17.7969 5.35298 18.0612 4.36731 17.616 3.59689L16.0047 0.806035C15.5599 0.0352024 14.5743 -0.228735 13.8038 0.216056C13.033 0.661268 12.7691 1.64652 13.2139 2.41736L14.8252 5.20822Z" fill="#F3B438"/>
<path d="M7.15801 34.1616L4.36715 35.7729C3.59674 36.2177 3.3328 37.2034 3.77759 37.9738C4.22281 38.745 5.20848 39.0085 5.97847 38.5638L8.76933 36.9524C9.54017 36.5072 9.8041 35.522 9.35931 34.7511C8.91452 33.9807 7.92884 33.7164 7.15801 34.1616Z" fill="#F3B438"/>
<path d="M47.8418 14.3936L50.6326 12.7823C51.4035 12.3375 51.6674 11.3518 51.2222 10.5814C50.7774 9.81059 49.7922 9.54666 49.0213 9.99145L46.2305 11.6028C45.4596 12.048 45.1957 13.0332 45.6409 13.8041C46.0857 14.5745 47.071 14.8388 47.8418 14.3936Z" fill="#F3B438"/>
<path d="M37.9735 5.79777C38.7435 6.24257 39.7292 5.97947 40.1744 5.20821L41.7857 2.41736C42.2309 1.64652 41.9666 0.661268 41.1962 0.216056C40.4253 -0.228735 39.4397 0.0352024 38.9949 0.806035L37.3835 3.59689C36.9387 4.36731 37.2027 5.35298 37.9735 5.79777Z" fill="#F3B438"/>
</g>
<defs>
<clipPath id="clip0_33_58">
<rect width="55" height="55" fill="white"/>
</clipPath>
</defs>
</svg>
