<svg width="60" height="60" viewBox="0 0 60 60" fill="none" xmlns="http://www.w3.org/2000/svg">
<g clip-path="url(#clip0_2_28447)">
<path d="M8.4375 46.11V33.75H6.5625V46.11C5.47406 46.4981 4.6875 47.5294 4.6875 48.75C4.6875 50.3006 5.94937 51.5625 7.5 51.5625C9.05062 51.5625 10.3125 50.3006 10.3125 48.75C10.3125 47.5294 9.52594 46.4981 8.4375 46.11ZM7.5 49.6875C6.9825 49.6875 6.5625 49.2675 6.5625 48.75C6.5625 48.2325 6.9825 47.8125 7.5 47.8125C8.0175 47.8125 8.4375 48.2325 8.4375 48.75C8.4375 49.2675 8.0175 49.6875 7.5 49.6875Z" fill="#F68B21"/>
<path d="M13.125 33.75C11.5744 33.75 10.3125 35.0119 10.3125 36.5625C10.3125 37.7831 11.0991 38.8144 12.1875 39.2025V51.5625H14.0625V39.2025C15.1509 38.8144 15.9375 37.7831 15.9375 36.5625C15.9375 35.0119 14.6756 33.75 13.125 33.75ZM13.125 37.5C12.6075 37.5 12.1875 37.08 12.1875 36.5625C12.1875 36.045 12.6075 35.625 13.125 35.625C13.6425 35.625 14.0625 36.045 14.0625 36.5625C14.0625 37.08 13.6425 37.5 13.125 37.5Z" fill="#F68B21"/>
<path d="M49.6875 46.11V33.75H47.8125V46.11C46.7241 46.4981 45.9375 47.5294 45.9375 48.75C45.9375 50.3006 47.1994 51.5625 48.75 51.5625C50.3006 51.5625 51.5625 50.3006 51.5625 48.75C51.5625 47.5294 50.7759 46.4981 49.6875 46.11ZM48.75 49.6875C48.2325 49.6875 47.8125 49.2675 47.8125 48.75C47.8125 48.2325 48.2325 47.8125 48.75 47.8125C49.2675 47.8125 49.6875 48.2325 49.6875 48.75C49.6875 49.2675 49.2675 49.6875 48.75 49.6875Z" fill="#F68B21"/>
<path d="M54.375 33.75C52.8244 33.75 51.5625 35.0119 51.5625 36.5625C51.5625 37.7831 52.3491 38.8144 53.4375 39.2025V51.5625H55.3125V39.2025C56.4009 38.8144 57.1875 37.7831 57.1875 36.5625C57.1875 35.0119 55.9256 33.75 54.375 33.75ZM54.375 37.5C53.8575 37.5 53.4375 37.08 53.4375 36.5625C53.4375 36.045 53.8575 35.625 54.375 35.625C54.8925 35.625 55.3125 36.045 55.3125 36.5625C55.3125 37.08 54.8925 37.5 54.375 37.5Z" fill="#F68B21"/>
<path d="M41.25 30.9375C40.8797 30.9375 40.5281 31.0134 40.2038 31.1438C39.8803 29.9484 38.7966 29.0625 37.5 29.0625C36.7772 29.0625 36.1237 29.3447 35.625 29.7938C35.1263 29.3438 34.4728 29.0625 33.75 29.0625C33.42 29.0625 33.1069 29.13 32.8125 29.235V21.1678C36.7106 20.0634 39.5953 16.7391 40.1906 12.7688L44.1544 14.9494C41.8303 16.6566 40.3125 19.4016 40.3125 22.5C40.3125 27.6694 44.5181 31.875 49.6875 31.875C54.8569 31.875 59.0625 27.6694 59.0625 22.5C59.0625 17.3306 54.8569 13.125 49.6875 13.125C48.4022 13.125 47.1759 13.3856 46.0594 13.8562L40.2834 10.6791C39.9853 5.25937 35.4938 0.9375 30 0.9375C24.5063 0.9375 20.0147 5.25938 19.7166 10.68L13.9406 13.8562C12.8241 13.3856 11.5988 13.125 10.3125 13.125C5.14313 13.125 0.9375 17.3306 0.9375 22.5C0.9375 27.6694 5.14313 31.875 10.3125 31.875C15.4819 31.875 19.6875 27.6694 19.6875 22.5C19.6875 19.4006 18.1697 16.6566 15.8447 14.9484L19.8094 12.7678C20.4047 16.7419 23.2875 20.0644 27.1884 21.1688V38.4497C27.1884 38.8763 27.09 39.3037 26.9016 39.6862L26.115 35.7544C25.5516 32.94 23.0597 30.8972 20.19 30.8972C18.8803 30.8972 17.8134 31.9641 17.8134 33.2738C17.8134 33.7444 17.9513 34.2 18.2128 34.5919L19.1775 36.0394C19.5347 36.5747 19.7653 37.1953 19.845 37.8337L20.4938 43.0209C20.6006 43.8862 20.8744 44.7084 21.2784 45.4088L24.375 51.7781V53.4375H22.5V59.0625H43.125V53.4375H41.25V51.8747L42.75 49.875C43.5966 48.7472 44.0625 47.3494 44.0625 45.9375V33.75C44.0625 32.1994 42.8006 30.9375 41.25 30.9375ZM49.6875 30C48.0009 30 46.4484 29.4338 45.195 28.4916C46.2497 27.0928 47.9091 26.25 49.6875 26.25C51.4659 26.25 53.1253 27.0928 54.18 28.4916C52.9266 29.4338 51.3741 30 49.6875 30ZM46.875 21.5625C46.875 20.0119 48.1369 18.75 49.6875 18.75C51.2381 18.75 52.5 20.0119 52.5 21.5625C52.5 23.1131 51.2381 24.375 49.6875 24.375C48.1369 24.375 46.875 23.1131 46.875 21.5625ZM49.6875 15C53.8228 15 57.1875 18.3647 57.1875 22.5C57.1875 24.2747 56.565 25.9059 55.53 27.1912C54.7875 26.2669 53.8462 25.5384 52.7822 25.0556C53.7516 24.1959 54.375 22.9566 54.375 21.5625C54.375 18.9778 52.2722 16.875 49.6875 16.875C47.1028 16.875 45 18.9778 45 21.5625C45 22.9566 45.6234 24.1959 46.5928 25.0556C45.5288 25.5394 44.5875 26.2669 43.845 27.1912C42.81 25.9059 42.1875 24.2747 42.1875 22.5C42.1875 18.3647 45.5522 15 49.6875 15ZM10.3125 30C8.62594 30 7.07344 29.4338 5.82 28.4916C6.87469 27.0928 8.53406 26.25 10.3125 26.25C12.0909 26.25 13.7503 27.0928 14.805 28.4916C13.5516 29.4338 11.9991 30 10.3125 30ZM7.5 21.5625C7.5 20.0119 8.76188 18.75 10.3125 18.75C11.8631 18.75 13.125 20.0119 13.125 21.5625C13.125 23.1131 11.8631 24.375 10.3125 24.375C8.76188 24.375 7.5 23.1131 7.5 21.5625ZM17.8125 22.5C17.8125 24.2747 17.19 25.9059 16.155 27.1912C15.4125 26.2669 14.4712 25.5384 13.4072 25.0556C14.3766 24.1959 15 22.9566 15 21.5625C15 18.9778 12.8972 16.875 10.3125 16.875C7.72781 16.875 5.625 18.9778 5.625 21.5625C5.625 22.9566 6.24844 24.1959 7.21781 25.0556C6.15375 25.5394 5.2125 26.2669 4.47 27.1912C3.435 25.9059 2.8125 24.2747 2.8125 22.5C2.8125 18.3647 6.17719 15 10.3125 15C14.4478 15 17.8125 18.3647 17.8125 22.5ZM21.5625 11.25C21.5625 6.59719 25.3472 2.8125 30 2.8125C34.6528 2.8125 38.4375 6.59719 38.4375 11.25C38.4375 13.1409 37.7953 14.9128 36.7106 16.3425C35.9391 14.7872 34.6613 13.5628 33.1069 12.8578C34.0687 11.9991 34.6875 10.7634 34.6875 9.375C34.6875 6.79031 32.5847 4.6875 30 4.6875C27.4153 4.6875 25.3125 6.79031 25.3125 9.375C25.3125 10.7634 25.9313 11.9991 26.8931 12.8578C25.3378 13.5628 24.06 14.7881 23.2884 16.3434C22.2038 14.9147 21.5625 13.1428 21.5625 11.25ZM32.8125 9.375C32.8125 10.9256 31.5506 12.1875 30 12.1875C28.4494 12.1875 27.1875 10.9256 27.1875 9.375C27.1875 7.82438 28.4494 6.5625 30 6.5625C31.5506 6.5625 32.8125 7.82438 32.8125 9.375ZM24.7144 17.8153C25.5 15.585 27.5888 14.0625 30 14.0625C32.4094 14.0625 34.4981 15.585 35.2856 17.8134C34.4644 18.4781 33.5175 18.9966 32.475 19.3162C32.0016 18.4266 31.0763 17.8125 30 17.8125C28.9237 17.8125 27.9984 18.4266 27.5259 19.3162C26.4825 18.9966 25.5356 18.4791 24.7144 17.8153ZM41.25 57.1875H24.375V55.3125H41.25V57.1875ZM42.1875 45.9375C42.1875 46.9453 41.8547 47.9447 41.25 48.75L39.375 51.2503V53.4375H26.25V51.3469L22.935 44.5341C22.6256 43.995 22.4306 43.4091 22.3538 42.7913L21.705 37.6031C21.5897 36.6778 21.2559 35.7778 20.7375 35.0016L19.7719 33.5531C19.7166 33.4706 19.6875 33.3741 19.6875 33.2738C19.6875 32.9972 19.9125 32.7731 20.1891 32.7731C22.1681 32.7731 23.8866 34.1822 24.2756 36.1228L25.4813 42.1481H27.7669L28.5675 40.5459C28.8909 39.8991 29.0625 39.1734 29.0625 38.4506V20.625C29.0625 20.1075 29.4825 19.6875 30 19.6875C30.5175 19.6875 30.9375 20.1075 30.9375 20.625V31.875V35.625H32.8125V31.875C32.8125 31.3575 33.2325 30.9375 33.75 30.9375C34.2675 30.9375 34.6875 31.3575 34.6875 31.875V35.625H36.5625V31.875C36.5625 31.3575 36.9825 30.9375 37.5 30.9375C38.0175 30.9375 38.4375 31.3575 38.4375 31.875V33.75V35.625H40.3125V33.75C40.3125 33.2325 40.7325 32.8125 41.25 32.8125C41.7675 32.8125 42.1875 33.2325 42.1875 33.75V45.9375Z" fill="#F68B21"/>
</g>
<defs>
<clipPath id="clip0_2_28447">
<rect width="60" height="60" fill="white"/>
</clipPath>
</defs>
</svg>
