<svg width="60" height="60" viewBox="0 0 60 60" fill="none" xmlns="http://www.w3.org/2000/svg">
<path d="M27.0326 55.8726C26.9096 55.8723 26.7881 55.8453 26.6765 55.7935L2.12268 43.9781C1.98398 43.911 1.86706 43.806 1.78541 43.6754C1.70375 43.5447 1.66067 43.3937 1.66114 43.2396V16.866C1.66539 16.733 1.70255 16.6032 1.76929 16.4881C1.83603 16.3731 1.93026 16.2763 2.04355 16.2066C2.15923 16.1319 2.29229 16.0883 2.42978 16.0802C2.56728 16.0721 2.70453 16.0998 2.82817 16.1605L27.3688 27.9165C27.5075 27.9836 27.6244 28.0885 27.7061 28.2192C27.7878 28.3498 27.8308 28.5009 27.8304 28.655V55.0616C27.8261 55.1945 27.789 55.3244 27.7222 55.4394C27.6555 55.5545 27.5612 55.6512 27.448 55.7209C27.3265 55.8096 27.1826 55.8622 27.0326 55.8726ZM3.2963 42.7319L26.1952 53.7627V29.1627L3.2963 18.1319V42.7319Z" fill="#F68B21"/>
<path d="M27.0326 29.4527C26.9087 29.4534 26.7865 29.424 26.6765 29.367L2.12268 17.5582C1.98398 17.4911 1.86706 17.3862 1.78541 17.2555C1.70375 17.1249 1.66067 16.9738 1.66114 16.8197C1.66113 16.6666 1.70447 16.5166 1.78615 16.3871C1.86783 16.2576 1.9845 16.1538 2.12268 16.0879L26.6699 4.29885C26.7794 4.24378 26.9002 4.21509 27.0227 4.21509C27.1452 4.21509 27.266 4.24378 27.3754 4.29885L51.9095 16.1076C52.0471 16.1758 52.1629 16.2811 52.2438 16.4116C52.3248 16.5421 52.3677 16.6926 52.3677 16.8461C52.3677 16.9997 52.3248 17.1502 52.2438 17.2806C52.1629 17.4111 52.0471 17.5164 51.9095 17.5846L27.3688 29.367C27.2648 29.4209 27.1497 29.4503 27.0326 29.4527ZM4.35784 16.8197L27.0326 27.7318L49.6743 16.8461L27.0326 5.93402L4.35784 16.8197Z" fill="#F68B21"/>
<path d="M27.0334 55.8726C26.8793 55.8737 26.7281 55.8302 26.5982 55.7473C26.4849 55.6776 26.3907 55.5809 26.324 55.4658C26.2572 55.3507 26.2201 55.2209 26.2158 55.088V28.655C26.2169 28.5013 26.2606 28.3508 26.3421 28.2205C26.4236 28.0901 26.5396 27.9849 26.6774 27.9165L51.1982 16.1012C51.3219 16.0405 51.4591 16.0128 51.5966 16.0209C51.7341 16.029 51.8672 16.0725 51.9829 16.1473C52.0961 16.217 52.1904 16.3137 52.2571 16.4288C52.3239 16.5439 52.361 16.6737 52.3653 16.8067V28.6088C52.3755 28.7219 52.362 28.8359 52.3257 28.9435C52.2894 29.0511 52.2311 29.15 52.1545 29.2338C52.0779 29.3176 51.9847 29.3845 51.8807 29.4303C51.7768 29.4761 51.6645 29.4998 51.551 29.4998C51.4374 29.4998 51.3251 29.4761 51.2212 29.4303C51.1173 29.3845 51.0241 29.3176 50.9475 29.2338C50.8709 29.15 50.8126 29.0511 50.7763 28.9435C50.74 28.8359 50.7265 28.7219 50.7367 28.6088V18.1319L27.8312 29.1627V53.7627L41.2686 47.288C41.4679 47.1944 41.6963 47.1839 41.9034 47.2587C42.1105 47.3335 42.2794 47.4875 42.373 47.6869C42.4665 47.8862 42.4771 48.1146 42.4022 48.3217C42.3274 48.5288 42.1734 48.6977 41.9741 48.7913L27.3697 55.7935C27.2642 55.8426 27.1497 55.8695 27.0334 55.8726Z" fill="#F68B21"/>
<path d="M19.4702 39.7846C19.3421 39.7856 19.2155 39.7563 19.1009 39.699C18.9863 39.6417 18.8869 39.558 18.8108 39.4549L13.7801 32.6439L9.88996 34.8329C9.76625 34.9028 9.62656 34.9396 9.48447 34.9396C9.34237 34.9396 9.20268 34.9028 9.07897 34.8329C8.95583 34.7611 8.85382 34.658 8.78321 34.5341C8.71259 34.4103 8.67588 34.27 8.67677 34.1274V20.189C8.67677 20.0358 8.72011 19.8858 8.80179 19.7563C8.88346 19.6268 9.00014 19.5231 9.13831 19.4571L22.6416 12.9164C22.7515 12.8628 22.8721 12.835 22.9944 12.835C23.1166 12.835 23.2372 12.8628 23.3471 12.9164L33.3625 17.7296C33.5004 17.7967 33.6166 17.9012 33.6979 18.0312C33.7792 18.1612 33.8223 18.3114 33.8223 18.4648C33.8223 18.6181 33.7792 18.7684 33.6979 18.8984C33.6166 19.0283 33.5004 19.1329 33.3625 19.1999L20.2878 25.5098V38.967C20.2872 39.1389 20.2328 39.3064 20.1323 39.4459C20.0318 39.5854 19.8902 39.69 19.7273 39.745C19.6441 39.771 19.5574 39.7843 19.4702 39.7846ZM14.0042 30.7648C14.1322 30.7648 14.2584 30.7946 14.3728 30.8518C14.4873 30.909 14.5868 30.9921 14.6636 31.0945L18.6526 36.4945V25.0021C18.6527 24.8474 18.6968 24.6958 18.7797 24.5651C18.8625 24.4344 18.9808 24.3298 19.1207 24.2637L31.1273 18.4615L22.9845 14.5516L10.2988 20.7032V32.7296L13.5955 30.8703C13.7196 30.7987 13.8609 30.7623 14.0042 30.7648Z" fill="#F68B21"/>
<path d="M32.1828 47.5648C31.9997 47.5615 31.8231 47.4969 31.6812 47.3813C31.5392 47.2657 31.4402 47.1058 31.3999 46.9272C31.3596 46.7486 31.3805 46.5617 31.459 46.3964C31.5376 46.2311 31.6694 46.0969 31.8333 46.0153L36.508 43.7538C36.7043 43.6623 36.9286 43.6511 37.133 43.7225C37.3375 43.794 37.5059 43.9424 37.6025 44.1362C37.6495 44.2327 37.6768 44.3374 37.6829 44.4445C37.6891 44.5516 37.6739 44.6588 37.6384 44.76C37.6028 44.8612 37.5475 44.9543 37.4757 45.034C37.4039 45.1136 37.3171 45.1783 37.2201 45.2241L32.5388 47.4725C32.4283 47.5289 32.3067 47.5604 32.1828 47.5648Z" fill="#F68B21"/>
<path d="M32.1828 42.5143C31.9997 42.511 31.8231 42.4464 31.6812 42.3308C31.5392 42.2152 31.4402 42.0553 31.3999 41.8767C31.3596 41.6981 31.3805 41.5112 31.459 41.3459C31.5376 41.1805 31.6694 41.0464 31.8333 40.9648L34.9981 39.4351C35.0945 39.3634 35.2055 39.3138 35.3232 39.2898C35.441 39.2658 35.5625 39.268 35.6793 39.2964C35.796 39.3247 35.9051 39.3785 35.9988 39.4537C36.0924 39.529 36.1683 39.624 36.221 39.732C36.2738 39.8399 36.3021 39.9582 36.3039 40.0783C36.3058 40.1985 36.2811 40.3175 36.2317 40.427C36.1823 40.5366 36.1094 40.6339 36.0181 40.712C35.9268 40.7901 35.8195 40.8472 35.7036 40.8791L32.5388 42.4022C32.4312 42.4684 32.3089 42.5069 32.1828 42.5143Z" fill="#F68B21"/>
<path d="M46.9053 51.3428H46.8525C46.7696 51.3431 46.6872 51.3297 46.6086 51.3033C33.0393 47.0241 35.6042 31.3582 35.6042 31.2C35.6291 31.062 35.6888 30.9327 35.7776 30.8242C35.8665 30.7158 35.9815 30.6318 36.1118 30.5802L46.5426 26.4791C46.6368 26.4413 46.7378 26.4233 46.8393 26.4263C46.9579 26.424 47.0761 26.4419 47.1888 26.4791L57.6261 30.5802C57.7565 30.6318 57.8715 30.7158 57.9604 30.8242C58.0492 30.9327 58.1089 31.062 58.1338 31.2C58.1338 31.3582 60.7118 47.0241 47.1492 51.3033C47.0705 51.3293 46.9882 51.3426 46.9053 51.3428ZM37.1668 31.9252C36.9004 34.3754 37.0408 36.8527 37.5822 39.2571C38.7954 44.5318 41.9338 48.0395 46.9053 49.6747C51.8701 48.0395 55.0085 44.5318 56.2283 39.2571C56.7563 36.8506 56.8855 34.3737 56.6107 31.9252L46.8789 28.1077L37.1668 31.9252Z" fill="#F68B21"/>
<path d="M46.8593 42.9495C46.7312 42.95 46.6049 42.9205 46.4903 42.8632C46.3758 42.8059 46.2763 42.7226 46.1999 42.6198L43.3054 38.7495C43.176 38.5746 43.1214 38.3555 43.1535 38.1404C43.1857 37.9252 43.302 37.7317 43.4769 37.6022C43.6517 37.4728 43.8708 37.4182 44.086 37.4504C44.3011 37.4825 44.4947 37.5988 44.6241 37.7737L46.8659 40.7737L51.923 34.1209C51.988 34.0343 52.0693 33.9614 52.1624 33.9063C52.2556 33.8511 52.3587 33.8148 52.4658 33.7995C52.5729 33.7842 52.6821 33.7902 52.7869 33.817C52.8917 33.8439 52.9903 33.8912 53.0769 33.9561C53.1634 34.021 53.2364 34.1024 53.2915 34.1955C53.3467 34.2887 53.3829 34.3917 53.3982 34.4989C53.4136 34.606 53.4076 34.7151 53.3807 34.82C53.3539 34.9248 53.3066 35.0234 53.2417 35.1099L47.5252 42.6264C47.4486 42.7301 47.348 42.8136 47.232 42.8699C47.116 42.9261 46.9881 42.9535 46.8593 42.9495Z" fill="#F68B21"/>
</svg>
