<svg width="65" height="65" viewBox="0 0 65 65" fill="none" xmlns="http://www.w3.org/2000/svg">
<path d="M62.38 43.3443L44.6512 32.4997L62.3793 21.655C62.6843 21.4681 62.9029 21.1678 62.9866 20.8197C63.0702 20.4715 63.0122 20.1045 62.826 19.7995L57.6165 11.2839C57.2285 10.6483 56.3966 10.448 55.761 10.8366L38.8378 21.1894V1.34943C38.8378 0.604544 38.2333 0 37.4884 0H27.5074C26.7625 0 26.1579 0.604544 26.1579 1.34943V21.1894L9.23406 10.8373C8.59713 10.4486 7.76723 10.6483 7.37859 11.2846L2.16912 19.8002C1.9829 20.1052 1.92487 20.4722 2.00854 20.8203C2.0922 21.1685 2.31081 21.4687 2.61578 21.6556L20.3446 32.4997L2.61578 43.3443C2.31081 43.5306 2.0922 43.8315 2.00854 44.179C1.92487 44.5278 1.9829 44.8948 2.16912 45.1998L7.37859 53.7147C7.76723 54.3503 8.59713 54.5514 9.23406 54.1627L26.1579 43.8099V63.6499C26.1579 64.3948 26.7625 64.9993 27.5074 64.9993H37.4884C38.2333 64.9993 38.8378 64.3948 38.8378 63.6499V43.8106L55.7617 54.1621C56.3973 54.5507 57.2292 54.3503 57.6172 53.7154L62.8267 45.1998C63.0129 44.8948 63.0709 44.5278 62.9872 44.1796C62.9042 43.8308 62.685 43.5312 62.38 43.3443Z" fill="#4E29B7"/>
</svg>
