<svg width="32" height="32" viewBox="0 0 32 32" fill="none" xmlns="http://www.w3.org/2000/svg">
<g clip-path="url(#clip0_15_22)">
<path d="M15.9997 0C-2.28437 0.369763 -6.02892 25.3844 11.0412 31.2415V21.4279L8.26712 18.6531C6.34861 19.6367 3.98491 18.1797 4.00586 16.014C4.00586 14.3883 5.32853 13.0656 6.95427 13.0656C9.11924 13.0449 10.5764 15.4072 9.59379 17.3257L12.6431 20.3759C12.819 20.5519 12.9178 20.7905 12.9178 21.0393V31.7294C13.6173 31.8663 14.3328 31.9576 15.0614 31.9999V13.7833C11.9409 12.682 12.6504 8.10614 15.9998 8.0404C19.3498 8.10645 20.0581 12.6827 16.9381 13.7833V31.9999C17.6666 31.9577 18.3822 31.8663 19.0816 31.7294V21.0393C19.0816 20.7905 19.1805 20.5519 19.3564 20.376L22.4057 17.3258C21.4233 15.4073 22.8802 13.0447 25.0453 13.0657C26.671 13.0657 27.9937 14.3884 27.9937 16.0141C28.0145 18.1796 25.651 19.6369 23.7324 18.6531L20.9583 21.4279V31.2415C38.0395 25.3764 34.2707 0.364821 15.9997 0Z" fill="#166FD3"/>
<path d="M15.9998 9.91699C15.4088 9.91699 14.928 10.3979 14.928 10.9888C14.9868 12.4106 17.0129 12.4102 17.0716 10.9888C17.0716 10.3979 16.5908 9.91699 15.9998 9.91699Z" fill="#166FD3"/>
<path d="M26.117 16.0142C26.117 15.4232 25.6362 14.9424 25.0452 14.9424C23.6234 15.0012 23.6238 17.0273 25.0452 17.086C25.6362 17.086 26.117 16.6052 26.117 16.0142Z" fill="#166FD3"/>
<path d="M5.88257 16.0142C5.88257 16.6052 6.36343 17.086 6.95439 17.086C8.3762 17.0272 8.37576 15.0011 6.95439 14.9424C6.36337 14.9424 5.88257 15.4232 5.88257 16.0142Z" fill="#166FD3"/>
</g>
<defs>
<clipPath id="clip0_15_22">
<rect width="32" height="32" fill="white"/>
</clipPath>
</defs>
</svg>
