<svg width="165" height="101" viewBox="0 0 165 101" fill="none" xmlns="http://www.w3.org/2000/svg">
<path d="M165 78.8678C165 78.8678 164.238 74.6728 159.033 78.8919C159.033 78.8919 163.939 83.1523 165 78.8678ZM163.803 78.8885C163.803 78.9987 163.715 79.0883 163.606 79.0917C163.497 79.0917 163.409 79.0021 163.405 78.8919C163.402 78.7817 163.494 78.6922 163.603 78.6887C163.715 78.6887 163.803 78.7782 163.803 78.8885ZM160.325 78.8988C160.325 78.8988 160.662 77.6348 163.048 78.8885C163.048 78.8885 160.822 80.1835 160.325 78.8988Z" fill="url(#paint0_linear_323_25057)"/>
<path d="M158.649 79.4672C158.346 79.4672 158.098 79.2193 158.098 78.9127C158.098 78.6062 158.343 78.3548 158.645 78.3548C158.948 78.3548 159.196 78.6028 159.196 78.9093C159.196 79.2158 158.951 79.4638 158.649 79.4672Z" fill="url(#paint1_linear_323_25057)"/>
<path d="M154.438 79.4845C154.135 79.4845 153.887 79.2365 153.887 78.93C153.887 78.6234 154.132 78.372 154.434 78.372C154.737 78.372 154.985 78.62 154.985 78.9266C154.985 79.2331 154.74 79.4811 154.438 79.4845Z" fill="url(#paint2_linear_323_25057)"/>
<path d="M156.541 80.3903C156.541 80.3903 158.418 78.9196 158.401 78.9093C158.418 78.9024 156.531 77.4455 156.531 77.4455C156.313 77.9277 154.661 78.923 154.664 78.9265C154.634 78.9437 156.317 79.9115 156.541 80.3903Z" fill="url(#paint3_linear_323_25057)"/>
<path d="M107.617 78.9024C104.227 76.154 103.73 78.8852 103.73 78.8852C104.424 81.6784 107.617 78.9024 107.617 78.9024ZM104.642 78.7715C104.713 78.7715 104.771 78.8301 104.771 78.9024C104.771 78.9747 104.713 79.0333 104.642 79.0333C104.57 79.0333 104.512 78.9747 104.512 78.9024C104.512 78.8301 104.57 78.7715 104.642 78.7715ZM105.005 78.9024C106.559 78.0861 106.78 78.9093 106.78 78.9093C106.454 79.7462 105.005 78.9024 105.005 78.9024Z" fill="url(#paint4_linear_323_25057)"/>
<path d="M107.869 79.2779C108.066 79.2779 108.226 79.1161 108.226 78.9163C108.226 78.7166 108.066 78.5547 107.869 78.5547C107.672 78.5547 107.512 78.7166 107.512 78.9163C107.512 79.1161 107.672 79.2779 107.869 79.2779Z" fill="url(#paint5_linear_323_25057)"/>
<path d="M154.436 78.7301H108.229V79.1227H154.436V78.7301Z" fill="url(#paint6_linear_323_25057)"/>
<path d="M82.6209 97.8488C82.6209 97.8488 82.5835 97.8281 82.5087 97.7834C82.4713 97.7627 82.4305 97.7317 82.3795 97.6938C82.3285 97.6594 82.2775 97.6077 82.2164 97.5492C82.1042 97.4321 81.9784 97.2667 81.8832 97.0463C81.7846 96.8259 81.7132 96.5572 81.6792 96.2438C81.6112 95.6204 81.6928 94.8455 81.9308 93.9879C82.0498 93.5609 82.2062 93.1097 82.4203 92.655C82.5257 92.4277 82.6447 92.2004 82.7841 91.9834C82.9303 91.7561 83.0765 91.5219 83.2295 91.2843C83.8381 90.3337 84.5113 89.297 85.3544 88.2947C85.776 87.7953 86.2384 87.3063 86.7586 86.8551C87.0204 86.6312 87.2924 86.4211 87.5814 86.2214C87.8738 86.0285 88.1764 85.8494 88.496 85.6979C88.8155 85.5429 89.1521 85.4189 89.4955 85.3225C89.6689 85.2708 89.8457 85.2364 90.0225 85.1985C90.2027 85.1709 90.3795 85.1399 90.5699 85.1296C91.3179 85.0538 92.0862 85.0538 92.8376 85.195C93.2116 85.257 93.5788 85.3707 93.9222 85.5222C94.269 85.6669 94.5852 85.8769 94.847 86.1284C95.1087 86.3798 95.3093 86.6864 95.4011 87.0204C95.4997 87.3511 95.4623 87.7058 95.3263 88.0261C95.3025 88.0812 95.2821 88.1363 95.2481 88.1846C95.2175 88.2362 95.1869 88.2879 95.1529 88.3361C95.0747 88.4291 95.0068 88.529 94.9116 88.6116C94.7416 88.7907 94.5206 88.9216 94.2996 89.049C93.8406 89.2832 93.3272 89.4141 92.8036 89.4761C92.2766 89.5347 91.7462 89.5243 91.2193 89.483C90.7127 89.4313 90.2095 89.3039 89.7199 89.1385C88.7407 88.8045 87.8228 88.3361 86.9558 87.8504C86.0888 87.3614 85.2661 86.8447 84.4875 86.3385C82.9303 85.319 81.5296 84.334 80.2852 83.4833C79.0409 82.6257 77.9563 81.8955 77.0587 81.3204C76.1917 80.697 75.1208 79.9427 73.8152 79.1643C73.1624 78.7786 72.4518 78.3894 71.6699 78.0312C70.8845 77.6799 70.0277 77.3562 69.0724 77.1874C68.5964 77.1047 68.0966 77.0669 67.5798 77.1082C67.0664 77.1495 66.5394 77.2769 66.0465 77.5146C65.9207 77.5697 65.8051 77.6455 65.6861 77.7109C65.5705 77.7832 65.4583 77.8659 65.3427 77.9451C65.2373 78.0346 65.1285 78.1173 65.0197 78.2172C64.9109 78.3205 64.8055 78.4342 64.7171 78.5651C64.5335 78.8199 64.4145 79.1437 64.3873 79.4709C64.3601 79.8015 64.4213 80.1218 64.5267 80.4146C64.7477 80.9966 65.1217 81.4754 65.5467 81.8818C65.9751 82.2847 66.468 82.6395 67.012 82.884C67.2772 83.0252 67.5594 83.1182 67.8382 83.225C67.9776 83.2732 68.1238 83.3076 68.2666 83.3524L68.4808 83.4144C68.5522 83.4316 68.627 83.4454 68.6984 83.4626C68.8446 83.4936 68.9908 83.5212 69.137 83.5522C69.2832 83.5728 69.4327 83.5935 69.5789 83.6142L69.7999 83.6452L70.0243 83.6624C70.1739 83.6727 70.3235 83.6865 70.4731 83.6968C72.2343 83.7829 73.9274 83.5522 75.5288 83.2663C75.9299 83.194 76.3243 83.1148 76.7153 83.0355C76.8139 83.0149 76.9125 82.9942 77.0111 82.9736C77.1165 82.9495 77.2185 82.9253 77.3171 82.8978C77.5177 82.8392 77.7115 82.7772 77.8985 82.7118C78.6499 82.4397 79.3502 82.1194 80.0268 81.8026C81.3766 81.1619 82.6345 80.5213 83.8245 79.9462C85.0111 79.3675 86.1262 78.8509 87.1598 78.4273C88.1934 78.0002 89.1487 77.6661 90.0055 77.4492C90.8623 77.2322 91.6239 77.1357 92.2426 77.1667C92.8614 77.1943 93.3306 77.3561 93.6162 77.518C93.691 77.5559 93.7488 77.5973 93.8032 77.6317C93.8576 77.6661 93.8984 77.6971 93.929 77.7247C93.9936 77.7798 94.0276 77.8074 94.0276 77.8074C94.0276 77.8074 93.997 77.7764 93.9324 77.7213C93.9018 77.6903 93.861 77.6558 93.81 77.6179C93.759 77.5766 93.7012 77.5353 93.6298 77.4905C93.351 77.3045 92.8818 77.1116 92.2494 77.0462C91.6171 76.9773 90.8317 77.0324 89.9511 77.208C89.0671 77.3871 88.0846 77.6765 87.0204 78.0622C85.9562 78.448 84.8139 78.9232 83.6035 79.464C82.3931 80.0013 81.1114 80.6074 79.7582 81.2067C79.0816 81.5029 78.3847 81.8025 77.6707 82.0471C77.4905 82.1091 77.3137 82.1607 77.1335 82.2089C77.0451 82.233 76.9533 82.2537 76.8649 82.2709L76.5793 82.3261C76.1917 82.3984 75.8008 82.4707 75.4064 82.5362C73.8288 82.7979 72.1799 83.0046 70.5139 82.9219C70.3745 82.9116 70.2317 82.9012 70.0923 82.8875L69.8815 82.8702L69.6741 82.8427C69.5347 82.8255 69.3987 82.8048 69.2628 82.7876C69.1268 82.76 68.9942 82.7325 68.8582 82.7049C68.7902 82.6911 68.7222 82.6808 68.6576 82.6636L68.4604 82.6085C68.3312 82.5706 68.1986 82.5396 68.0694 82.4983C67.8178 82.4018 67.5628 82.3226 67.3282 82.1986C66.8454 81.9885 66.417 81.6854 66.0397 81.341C65.6657 80.9931 65.3529 80.5902 65.1829 80.1597C65.1013 79.9462 65.0571 79.7292 65.0707 79.526C65.0843 79.3228 65.1489 79.1299 65.2645 78.9577C65.3189 78.8716 65.3903 78.7889 65.4685 78.7132C65.5501 78.634 65.6453 78.5582 65.7337 78.4789C65.8289 78.4101 65.9207 78.3377 66.0193 78.2758C66.1212 78.2206 66.2164 78.1518 66.3184 78.1035C67.1412 77.6765 68.0898 77.6283 68.9738 77.7557C69.8611 77.8797 70.6975 78.1621 71.4727 78.4721C72.2445 78.7889 72.9618 79.1437 73.6214 79.4984C74.9406 80.2113 76.0455 80.9071 76.9397 81.4822C77.8033 82.1022 78.8504 82.8874 80.054 83.7967C81.261 84.7025 82.6209 85.7426 84.1577 86.8206C84.9261 87.3579 85.742 87.9021 86.6158 88.4256C87.493 88.9457 88.428 89.4485 89.4683 89.8274C89.9885 90.0134 90.5393 90.1649 91.1241 90.2338C91.6918 90.2855 92.2698 90.3061 92.8614 90.2476C93.4496 90.1822 94.0514 90.0375 94.6226 89.7516C94.9014 89.5966 95.1801 89.4244 95.4147 89.1868C95.5405 89.0766 95.6425 88.9388 95.7479 88.8079C95.7955 88.739 95.8397 88.6598 95.8839 88.5875C95.9315 88.5152 95.9655 88.436 95.9995 88.3533C96.2069 87.8815 96.2545 87.3235 96.1083 86.831C95.9689 86.335 95.6833 85.9149 95.3399 85.5877C94.9966 85.2605 94.5988 85.0125 94.1874 84.8437C93.776 84.6715 93.3544 84.5475 92.9328 84.4821C92.0896 84.3374 91.2567 84.3546 90.4611 84.4476C90.2639 84.4648 90.0599 84.5027 89.8593 84.5372C89.6621 84.582 89.4649 84.6267 89.2745 84.6853C88.8903 84.8024 88.5232 84.9471 88.1764 85.1262C87.8296 85.3053 87.5032 85.505 87.1938 85.722C86.8878 85.9424 86.6022 86.1766 86.3336 86.4211C85.7964 86.9136 85.3307 87.4406 84.9125 87.971C84.0795 89.0387 83.4369 90.1133 82.8657 91.0948C82.7229 91.3394 82.5869 91.5804 82.4509 91.8146C82.3115 92.0557 82.1959 92.3003 82.0974 92.5414C81.9002 93.0235 81.7608 93.4954 81.6588 93.9431C81.4616 94.8352 81.4174 95.6377 81.5228 96.2783C81.5772 96.5986 81.6656 96.8741 81.7812 97.0945C81.8968 97.315 82.0328 97.4768 82.1552 97.5905C82.2198 97.6456 82.2741 97.6938 82.3285 97.7248C82.3829 97.7592 82.4271 97.7902 82.4645 97.8075C82.5801 97.8281 82.6209 97.8488 82.6209 97.8488Z" fill="url(#paint7_linear_323_25057)"/>
<path d="M82.6358 97.8486C82.6358 97.8486 82.6732 97.8279 82.7514 97.79C82.7922 97.7728 82.8364 97.7453 82.8874 97.7074C82.9418 97.6764 82.9996 97.6282 83.0642 97.573C83.1866 97.4594 83.326 97.2975 83.4382 97.0771C83.5538 96.8567 83.6422 96.5812 83.6966 96.2608C83.802 95.6202 83.7612 94.8212 83.5606 93.9257C83.4586 93.478 83.3226 93.0096 83.122 92.524C83.0234 92.2829 82.9078 92.0383 82.7684 91.7973C82.6324 91.5631 82.4964 91.3254 82.3536 91.0774C81.7824 90.0958 81.1399 89.0178 80.3069 87.9536C79.8887 87.4232 79.4229 86.8962 78.8857 86.4037C78.6171 86.1592 78.3281 85.925 78.0256 85.7045C77.7162 85.4876 77.3898 85.2844 77.043 85.1087C76.6962 84.9296 76.329 84.785 75.9448 84.6679C75.7544 84.6059 75.5572 84.5646 75.36 84.5198C75.1595 84.4853 74.9589 84.4475 74.7583 84.4302C73.9627 84.3338 73.1297 84.32 72.2865 84.4647C71.865 84.5301 71.4434 84.6541 71.032 84.8263C70.6206 84.9951 70.2262 85.2465 69.8794 85.5702C69.536 85.8974 69.2504 86.3176 69.111 86.8136C68.9648 87.3061 69.0158 87.864 69.2198 88.3359C69.2538 88.4185 69.2878 88.4978 69.3354 88.5701C69.3796 88.6424 69.4238 88.7216 69.4714 88.7905C69.5768 88.9214 69.6788 89.0626 69.8046 89.1694C70.0426 89.407 70.3214 89.5792 70.5968 89.7342C71.1646 90.0201 71.7664 90.1647 72.3579 90.2302C72.9495 90.2887 73.5309 90.2715 74.0953 90.2164C74.6801 90.1509 75.2308 89.996 75.751 89.81C76.7914 89.4311 77.7264 88.9283 78.6035 88.4082C79.4773 87.8847 80.2933 87.3405 81.0617 86.8033C82.5984 85.7252 83.9618 84.6885 85.1653 83.7793C86.3689 82.87 87.4161 82.0882 88.2796 81.4648C89.1738 80.8931 90.2788 80.1939 91.5979 79.481C92.2575 79.1263 92.9749 78.775 93.7467 78.4547C94.5219 78.1447 95.3582 77.8622 96.2456 77.7382C97.1262 77.6108 98.0781 77.6625 98.9009 78.0861C99.0063 78.1343 99.1015 78.2032 99.2001 78.2583C99.2953 78.3238 99.3905 78.3961 99.4857 78.4615C99.5741 78.5407 99.6693 78.6165 99.7509 78.6957C99.8291 78.7715 99.9005 78.8541 99.9549 78.9403C100.074 79.1125 100.135 79.3053 100.149 79.5085C100.162 79.7117 100.118 79.9287 100.036 80.1423C99.8665 80.5728 99.5503 80.9758 99.1797 81.3236C98.8023 81.668 98.3739 81.9711 97.8911 82.1812C97.6566 82.3052 97.4016 82.3844 97.15 82.4808C97.0242 82.5256 96.8916 82.5531 96.759 82.591L96.5618 82.6462C96.4972 82.6634 96.4292 82.6737 96.3612 82.6875C96.2252 82.715 96.0926 82.7426 95.9566 82.7701C95.8206 82.7874 95.6812 82.808 95.5452 82.8253L95.3378 82.8528L95.127 82.87C94.9876 82.8804 94.8482 82.8907 94.7054 82.9045C93.0395 82.9871 91.3939 82.7805 89.813 82.5187C89.4186 82.4533 89.0276 82.381 88.64 82.3086L88.3544 82.2535C88.266 82.2363 88.1777 82.2157 88.0859 82.1915C87.9057 82.1433 87.7255 82.0882 87.5487 82.0296C86.8347 81.7851 86.1377 81.4855 85.4611 81.1893C84.108 80.59 82.8296 79.9838 81.6158 79.4465C80.4055 78.9092 79.2631 78.4305 78.199 78.0448C77.1382 77.659 76.1522 77.3663 75.2683 77.1906C74.3843 77.015 73.6023 76.9599 72.9699 77.0288C72.3341 77.0942 71.865 77.2905 71.5896 77.473C71.5182 77.5178 71.4604 77.5591 71.4094 77.6005C71.3584 77.6384 71.3176 77.6728 71.287 77.7038C71.2258 77.7624 71.1918 77.7899 71.1918 77.7899C71.1918 77.7899 71.2258 77.7624 71.2904 77.7073C71.321 77.6797 71.3652 77.6487 71.4162 77.6143C71.4672 77.5798 71.5284 77.5385 71.6032 77.5006C71.8888 77.3353 72.3579 77.1769 72.9767 77.1493C73.5955 77.1183 74.3571 77.2147 75.2139 77.4317C76.0706 77.6487 77.026 77.9828 78.0596 78.4099C79.0931 78.8335 80.2083 79.3535 81.3949 79.9287C82.5848 80.5039 83.8394 81.1479 85.1925 81.7851C85.8691 82.102 86.5695 82.4223 87.3209 82.6944C87.5079 82.7633 87.7017 82.8253 87.9023 82.8804C88.0009 82.9079 88.1028 82.9355 88.2082 82.9561C88.3068 82.9768 88.4054 82.9975 88.504 83.0181C88.895 83.0974 89.2894 83.1765 89.6906 83.2489C91.2919 83.5347 92.9851 83.7621 94.7462 83.6794C94.8958 83.6691 95.0454 83.6553 95.195 83.645L95.4194 83.6277L95.6404 83.5967C95.79 83.5761 95.9362 83.5554 96.0824 83.5348C96.2286 83.5038 96.3748 83.4762 96.521 83.4452C96.5924 83.428 96.6672 83.4177 96.7386 83.397L96.9528 83.335C97.0956 83.2936 97.2418 83.2592 97.3812 83.2075C97.66 83.1008 97.9421 83.0078 98.2073 82.8666C98.7513 82.622 99.2443 82.2673 99.6727 81.8643C100.098 81.4545 100.472 80.9792 100.693 80.3971C100.798 80.1044 100.863 79.7841 100.832 79.4534C100.805 79.1262 100.686 78.8025 100.502 78.5476C100.414 78.4167 100.308 78.3031 100.2 78.1998C100.091 78.0999 99.9855 78.0172 99.8767 77.9277C99.7645 77.8485 99.6489 77.7658 99.5333 77.6935C99.4109 77.628 99.2953 77.5523 99.1729 77.4972C98.6799 77.2595 98.1529 77.1321 97.6395 77.0907C97.1262 77.0494 96.623 77.0873 96.147 77.17C95.1916 77.3353 94.3349 77.6625 93.5495 78.0138C92.7675 78.372 92.0535 78.7611 91.4041 79.1469C90.102 79.9253 89.0276 80.6795 88.1606 81.3029C87.2631 81.8781 86.1751 82.6083 84.9341 83.4659C83.6898 84.32 82.289 85.305 80.7319 86.3211C79.9533 86.8308 79.1339 87.344 78.2636 87.833C77.3966 88.3187 76.4752 88.7871 75.4994 89.1212C75.0099 89.2865 74.5067 89.4139 74.0001 89.4656C73.4731 89.5069 72.9427 89.5172 72.4157 89.4587C71.8922 89.3967 71.3754 89.2624 70.9198 89.0316C70.6988 88.9042 70.4812 88.7733 70.3078 88.5942C70.2126 88.515 70.1446 88.4116 70.0664 88.3186C70.0324 88.2704 70.0052 88.2153 69.9712 88.1671C69.9372 88.1189 69.9134 88.0638 69.893 88.0087C69.757 87.6918 69.7196 87.3371 69.8182 87.003C69.91 86.6689 70.1106 86.3624 70.3724 86.111C70.6342 85.8596 70.9504 85.6495 71.2972 85.5048C71.644 85.3567 72.0078 85.243 72.3817 85.1776C73.1297 85.0398 73.9015 85.0364 74.6495 85.1122C74.8399 85.1259 75.0167 85.1535 75.1969 85.181C75.3737 85.2189 75.5504 85.2534 75.7238 85.305C76.0706 85.4049 76.4072 85.5255 76.7234 85.6805C77.043 85.8354 77.349 86.0111 77.638 86.204C77.927 86.4003 78.2024 86.6138 78.4607 86.8377C78.9809 87.2854 79.4433 87.7779 79.8649 88.2773C80.7047 89.2796 81.3813 90.3163 81.9898 91.2668C82.1428 91.5045 82.289 91.7387 82.4352 91.966C82.578 92.183 82.6936 92.4103 82.799 92.6376C83.0098 93.0922 83.1662 93.5434 83.2886 93.9705C83.5266 94.8281 83.6082 95.603 83.5402 96.2264C83.5062 96.5364 83.4348 96.8085 83.3362 97.0289C83.2376 97.2493 83.1152 97.4146 83.003 97.5317C82.9418 97.5868 82.8908 97.6385 82.8398 97.6764C82.7888 97.7143 82.748 97.7453 82.7106 97.7659C82.6732 97.8279 82.6358 97.8486 82.6358 97.8486Z" fill="url(#paint8_linear_323_25057)"/>
<path d="M82.7304 97.6524C80.3598 100.521 82.6454 101 82.6454 101C85.0023 100.459 82.7304 97.6524 82.7304 97.6524ZM82.5671 100.215C82.5671 100.153 82.6181 100.105 82.6794 100.108C82.7406 100.108 82.7882 100.16 82.7848 100.222C82.7848 100.284 82.7338 100.332 82.6726 100.328C82.6113 100.328 82.5637 100.277 82.5671 100.215ZM82.6794 99.9048C82.0229 98.5513 82.7202 98.3791 82.7202 98.3791C83.4174 98.6719 82.6794 99.9048 82.6794 99.9048Z" fill="url(#paint9_linear_323_25057)"/>
<path d="M83.0503 97.4456C83.0537 97.2769 82.921 97.1357 82.7544 97.1288C82.5877 97.1253 82.4483 97.2597 82.4415 97.4284C82.4381 97.5972 82.5707 97.7384 82.7374 97.7453C82.9074 97.7487 83.0469 97.6144 83.0503 97.4456Z" fill="url(#paint10_linear_323_25057)"/>
<path d="M5.96681 78.8921C0.764977 74.673 0 78.868 0 78.868C1.06077 83.1525 5.96681 78.8921 5.96681 78.8921ZM1.39396 78.6889C1.50276 78.6889 1.59115 78.7784 1.59115 78.8921C1.59115 79.0057 1.50275 79.0919 1.39056 79.0919C1.28176 79.0919 1.19336 79.0023 1.19336 78.8886C1.19676 78.7784 1.28516 78.6889 1.39396 78.6889ZM1.95154 78.8886C4.33827 77.6384 4.67485 78.899 4.67485 78.899C4.17847 80.1837 1.95154 78.8886 1.95154 78.8886Z" fill="url(#paint11_linear_323_25057)"/>
<path d="M6.35226 79.4672C6.65495 79.4672 6.90323 79.2192 6.90323 78.9127C6.90323 78.6062 6.65836 78.3547 6.35566 78.3547C6.05297 78.3547 5.80469 78.6027 5.80469 78.9092C5.80469 79.2158 6.04956 79.4637 6.35226 79.4672Z" fill="url(#paint12_linear_323_25057)"/>
<path d="M10.5632 79.4844C10.8659 79.4844 11.1142 79.2364 11.1142 78.9299C11.1142 78.6234 10.8693 78.3719 10.5666 78.3719C10.2639 78.3719 10.0156 78.62 10.0156 78.9265C10.0156 79.233 10.2605 79.481 10.5632 79.4844Z" fill="url(#paint13_linear_323_25057)"/>
<path d="M8.45751 80.3902C8.45751 80.3902 6.58077 78.9195 6.59777 78.9092C6.58077 78.9023 8.46771 77.4454 8.46771 77.4454C8.68531 77.9276 10.3377 78.923 10.3343 78.9264C10.3649 78.9437 8.68191 79.9115 8.45751 80.3902Z" fill="url(#paint14_linear_323_25057)"/>
<path d="M61.265 78.8886C61.265 78.8886 60.7686 76.1574 57.3789 78.9058C57.3823 78.9024 60.5748 81.6783 61.265 78.8886ZM60.4864 78.9024C60.4864 78.9747 60.4286 79.0332 60.3572 79.0332C60.2858 79.0332 60.228 78.9747 60.228 78.9024C60.228 78.83 60.2858 78.7715 60.3572 78.7715C60.4286 78.7715 60.4864 78.83 60.4864 78.9024ZM58.2221 78.9093C58.2221 78.9093 58.4397 78.0861 59.9968 78.9024C59.9934 78.9024 58.5451 79.7462 58.2221 78.9093Z" fill="url(#paint15_linear_323_25057)"/>
<path d="M57.1325 79.2776C56.9352 79.2776 56.7754 79.1157 56.7754 78.916C56.7754 78.7162 56.9352 78.5543 57.1325 78.5543C57.3298 78.5543 57.4896 78.7162 57.4896 78.916C57.4896 79.1157 57.3298 79.2776 57.1325 79.2776Z" fill="url(#paint16_linear_323_25057)"/>
<path d="M56.7744 78.73H10.5664V79.1227H56.7744V78.73Z" fill="url(#paint17_linear_323_25057)"/>
<path d="M165 22.1322C165 22.1322 164.238 26.3272 159.033 22.1081C159.033 22.1081 163.939 17.8477 165 22.1322ZM163.803 22.1115C163.803 22.0013 163.715 21.9117 163.606 21.9083C163.497 21.9083 163.409 21.9979 163.405 22.1081C163.402 22.2183 163.494 22.3078 163.603 22.3113C163.715 22.3113 163.803 22.2218 163.803 22.1115ZM160.325 22.1012C160.325 22.1012 160.662 23.3652 163.048 22.1115C163.048 22.1115 160.822 20.8165 160.325 22.1012Z" fill="url(#paint18_linear_323_25057)"/>
<path d="M158.649 21.5328C158.346 21.5328 158.098 21.7807 158.098 22.0873C158.098 22.3938 158.343 22.6452 158.645 22.6452C158.948 22.6452 159.196 22.3972 159.196 22.0907C159.196 21.7842 158.951 21.5362 158.649 21.5328Z" fill="url(#paint19_linear_323_25057)"/>
<path d="M154.438 21.5155C154.135 21.5155 153.887 21.7635 153.887 22.07C153.887 22.3766 154.132 22.628 154.434 22.628C154.737 22.628 154.985 22.38 154.985 22.0734C154.985 21.7669 154.74 21.5189 154.438 21.5155Z" fill="url(#paint20_linear_323_25057)"/>
<path d="M156.541 20.6097C156.541 20.6097 158.418 22.0804 158.401 22.0907C158.418 22.0976 156.531 23.5545 156.531 23.5545C156.313 23.0723 154.661 22.077 154.664 22.0735C154.634 22.0563 156.317 21.0885 156.541 20.6097Z" fill="url(#paint21_linear_323_25057)"/>
<path d="M107.617 22.0976C104.227 24.846 103.73 22.1148 103.73 22.1148C104.424 19.3216 107.617 22.0976 107.617 22.0976ZM104.642 22.2285C104.713 22.2285 104.771 22.1699 104.771 22.0976C104.771 22.0253 104.713 21.9667 104.642 21.9667C104.57 21.9667 104.512 22.0253 104.512 22.0976C104.512 22.1699 104.57 22.2285 104.642 22.2285ZM105.005 22.0976C106.559 22.9139 106.78 22.0907 106.78 22.0907C106.454 21.2538 105.005 22.0976 105.005 22.0976Z" fill="url(#paint22_linear_323_25057)"/>
<path d="M107.869 21.7221C108.066 21.7221 108.226 21.8839 108.226 22.0837C108.226 22.2834 108.066 22.4453 107.869 22.4453C107.672 22.4453 107.512 22.2834 107.512 22.0837C107.512 21.8839 107.672 21.7221 107.869 21.7221Z" fill="url(#paint23_linear_323_25057)"/>
<path d="M154.436 22.2699H108.229V21.8773H154.436V22.2699Z" fill="url(#paint24_linear_323_25057)"/>
<path d="M82.6209 3.15121C82.6209 3.15121 82.5835 3.17185 82.5087 3.21663C82.4713 3.23729 82.4305 3.26829 82.3795 3.30618C82.3285 3.34062 82.2775 3.3923 82.2164 3.45085C82.1042 3.56795 81.9784 3.73325 81.8832 3.95368C81.7846 4.1741 81.7132 4.44277 81.6792 4.75619C81.6112 5.37958 81.6928 6.15449 81.9308 7.01208C82.0498 7.43915 82.2062 7.89033 82.4203 8.34496C82.5257 8.57227 82.6447 8.79961 82.7841 9.01659C82.9303 9.2439 83.0765 9.47807 83.2295 9.71572C83.8381 10.6663 84.5113 11.703 85.3544 12.7053C85.776 13.2047 86.2384 13.6937 86.7586 14.1449C87.0204 14.3688 87.2924 14.5789 87.5814 14.7786C87.8738 14.9715 88.1764 15.1506 88.496 15.3021C88.8155 15.4571 89.1521 15.5811 89.4955 15.6775C89.6689 15.7292 89.8457 15.7636 90.0225 15.8015C90.2027 15.8291 90.3795 15.8601 90.5699 15.8704C91.3179 15.9462 92.0862 15.9462 92.8376 15.805C93.2116 15.743 93.5788 15.6293 93.9222 15.4778C94.269 15.3331 94.5852 15.1231 94.847 14.8716C95.1087 14.6202 95.3093 14.3136 95.4011 13.9796C95.4997 13.6489 95.4623 13.2942 95.3263 12.9739C95.3025 12.9188 95.2821 12.8637 95.2481 12.8154C95.2175 12.7638 95.1869 12.7121 95.1529 12.6639C95.0747 12.5709 95.0068 12.471 94.9116 12.3884C94.7416 12.2093 94.5206 12.0784 94.2996 11.951C93.8406 11.7168 93.3272 11.5859 92.8036 11.5239C92.2766 11.4653 91.7462 11.4757 91.2193 11.517C90.7127 11.5687 90.2095 11.6961 89.7199 11.8615C88.7407 12.1955 87.8228 12.6639 86.9558 13.1496C86.0888 13.6386 85.2661 14.1553 84.4875 14.6615C82.9303 15.681 81.5296 16.666 80.2852 17.5167C79.0409 18.3743 77.9563 19.1045 77.0587 19.6796C76.1917 20.303 75.1208 21.0573 73.8152 21.8357C73.1624 22.2214 72.4518 22.6106 71.6699 22.9688C70.8845 23.3201 70.0277 23.6438 69.0724 23.8126C68.5964 23.8953 68.0966 23.9331 67.5798 23.8918C67.0664 23.8505 66.5394 23.7231 66.0465 23.4854C65.9207 23.4303 65.8051 23.3545 65.6861 23.2891C65.5705 23.2168 65.4583 23.1341 65.3427 23.0549C65.2373 22.9654 65.1285 22.8827 65.0197 22.7828C64.9109 22.6795 64.8055 22.5658 64.7171 22.4349C64.5335 22.1801 64.4145 21.8563 64.3873 21.5291C64.3601 21.1985 64.4213 20.8782 64.5267 20.5854C64.7477 20.0034 65.1217 19.5246 65.5467 19.1182C65.9751 18.7153 66.468 18.3605 67.012 18.116C67.2772 17.9748 67.5594 17.8818 67.8382 17.775C67.9776 17.7268 68.1238 17.6924 68.2666 17.6476L68.4808 17.5856C68.5522 17.5684 68.627 17.5546 68.6984 17.5374C68.8446 17.5064 68.9908 17.4788 69.137 17.4478C69.2832 17.4272 69.4327 17.4065 69.5789 17.3858L69.7999 17.3548L70.0243 17.3376C70.1739 17.3273 70.3235 17.3135 70.4731 17.3032C72.2343 17.2171 73.9274 17.4478 75.5288 17.7337C75.9299 17.806 76.3243 17.8852 76.7153 17.9645C76.8139 17.9851 76.9125 18.0058 77.0111 18.0264C77.1165 18.0505 77.2185 18.0747 77.3171 18.1022C77.5177 18.1608 77.7115 18.2228 77.8985 18.2882C78.6499 18.5603 79.3502 18.8806 80.0268 19.1974C81.3766 19.8381 82.6345 20.4787 83.8245 21.0538C85.0111 21.6325 86.1262 22.1491 87.1598 22.5727C88.1934 22.9998 89.1487 23.3339 90.0055 23.5508C90.8623 23.7678 91.6239 23.8643 92.2426 23.8333C92.8614 23.8057 93.3306 23.6439 93.6162 23.482C93.691 23.4441 93.7488 23.4027 93.8032 23.3683C93.8576 23.3339 93.8984 23.3029 93.929 23.2753C93.9936 23.2202 94.0276 23.1926 94.0276 23.1926C94.0276 23.1926 93.997 23.2236 93.9324 23.2787C93.9018 23.3097 93.861 23.3442 93.81 23.3821C93.759 23.4234 93.7012 23.4647 93.6298 23.5095C93.351 23.6955 92.8818 23.8884 92.2494 23.9538C91.6171 24.0227 90.8317 23.9676 89.9511 23.792C89.0671 23.6129 88.0846 23.3235 87.0204 22.9378C85.9562 22.552 84.8139 22.0768 83.6035 21.536C82.3931 20.9987 81.1114 20.3926 79.7582 19.7933C79.0816 19.4971 78.3847 19.1975 77.6707 18.9529C77.4905 18.8909 77.3137 18.8393 77.1335 18.7911C77.0451 18.767 76.9533 18.7463 76.8649 18.7291L76.5793 18.6739C76.1917 18.6016 75.8008 18.5293 75.4064 18.4638C73.8288 18.2021 72.1799 17.9954 70.5139 18.0781C70.3745 18.0884 70.2317 18.0988 70.0923 18.1125L69.8815 18.1298L69.6741 18.1573C69.5347 18.1745 69.3987 18.1952 69.2628 18.2124C69.1268 18.24 68.9942 18.2675 68.8582 18.2951C68.7902 18.3089 68.7222 18.3192 68.6576 18.3364L68.4604 18.3915C68.3312 18.4294 68.1986 18.4604 68.0694 18.5017C67.8178 18.5982 67.5628 18.6774 67.3282 18.8014C66.8454 19.0115 66.417 19.3146 66.0397 19.659C65.6657 20.0069 65.3529 20.4098 65.1829 20.8403C65.1013 21.0538 65.0571 21.2708 65.0707 21.474C65.0843 21.6772 65.1489 21.8701 65.2645 22.0423C65.3189 22.1284 65.3903 22.2111 65.4685 22.2868C65.5501 22.366 65.6453 22.4418 65.7337 22.5211C65.8289 22.5899 65.9207 22.6623 66.0193 22.7242C66.1212 22.7794 66.2164 22.8482 66.3184 22.8965C67.1412 23.3235 68.0898 23.3717 68.9738 23.2443C69.8611 23.1203 70.6975 22.8379 71.4727 22.5279C72.2445 22.2111 72.9618 21.8563 73.6214 21.5016C74.9406 20.7887 76.0455 20.0929 76.9397 19.5178C77.8033 18.8978 78.8504 18.1126 80.054 17.2033C81.261 16.2975 82.6209 15.2574 84.1577 14.1794C84.9261 13.6421 85.742 13.0979 86.6158 12.5744C87.493 12.0543 88.428 11.5515 89.4683 11.1726C89.9885 10.9866 90.5393 10.8351 91.1241 10.7662C91.6918 10.7145 92.2698 10.6939 92.8614 10.7524C93.4496 10.8178 94.0514 10.9625 94.6226 11.2484C94.9014 11.4034 95.1801 11.5756 95.4147 11.8132C95.5405 11.9234 95.6425 12.0612 95.7479 12.1921C95.7955 12.261 95.8397 12.3402 95.8839 12.4125C95.9315 12.4848 95.9655 12.564 95.9995 12.6467C96.2069 13.1185 96.2545 13.6765 96.1083 14.169C95.9689 14.665 95.6833 15.0851 95.3399 15.4123C94.9966 15.7395 94.5988 15.9875 94.1874 16.1563C93.776 16.3285 93.3544 16.4525 92.9328 16.5179C92.0896 16.6626 91.2567 16.6454 90.4611 16.5524C90.2639 16.5352 90.0599 16.4973 89.8593 16.4628C89.6621 16.418 89.4649 16.3733 89.2745 16.3147C88.8903 16.1976 88.5232 16.0529 88.1764 15.8738C87.8296 15.6947 87.5032 15.495 87.1938 15.278C86.8878 15.0576 86.6022 14.8234 86.3336 14.5789C85.7964 14.0864 85.3307 13.5594 84.9125 13.029C84.0795 11.9613 83.4369 10.8867 82.8657 9.90516C82.7229 9.66063 82.5869 9.41955 82.4509 9.18535C82.3115 8.94426 82.1959 8.69973 82.0974 8.45864C81.9002 7.97646 81.7608 7.50459 81.6588 7.05685C81.4616 6.16482 81.4174 5.36233 81.5228 4.72172C81.5772 4.40141 81.6656 4.12588 81.7812 3.90545C81.8968 3.68503 82.0328 3.52318 82.1552 3.40952C82.2198 3.35441 82.2741 3.30619 82.3285 3.27519C82.3829 3.24075 82.4271 3.20976 82.4645 3.19254C82.5801 3.17187 82.6209 3.15121 82.6209 3.15121Z" fill="url(#paint25_linear_323_25057)"/>
<path d="M82.6358 3.15141C82.6358 3.15141 82.6732 3.17209 82.7514 3.20997C82.7922 3.22719 82.8364 3.25474 82.8874 3.29263C82.9418 3.32363 82.9996 3.37185 83.0642 3.42695C83.1866 3.54061 83.326 3.70247 83.4382 3.92289C83.5538 4.14332 83.6422 4.41885 83.6966 4.73915C83.802 5.37976 83.7612 6.17881 83.5606 7.07429C83.4586 7.52203 83.3226 7.99041 83.122 8.47604C83.0234 8.71712 82.9078 8.96165 82.7684 9.20274C82.6324 9.43695 82.4964 9.67462 82.3536 9.9226C81.7824 10.9042 81.1399 11.9822 80.3069 13.0464C79.8887 13.5768 79.4229 14.1038 78.8857 14.5963C78.6171 14.8408 78.3281 15.075 78.0256 15.2955C77.7162 15.5124 77.3898 15.7156 77.043 15.8913C76.6962 16.0704 76.329 16.215 75.9448 16.3321C75.7544 16.3941 75.5572 16.4354 75.36 16.4802C75.1595 16.5147 74.9589 16.5525 74.7583 16.5698C73.9627 16.6662 73.1297 16.68 72.2865 16.5353C71.865 16.4699 71.4434 16.3459 71.032 16.1737C70.6206 16.0049 70.2262 15.7535 69.8794 15.4298C69.536 15.1026 69.2504 14.6824 69.111 14.1864C68.9648 13.6939 69.0158 13.136 69.2198 12.6641C69.2538 12.5815 69.2878 12.5022 69.3354 12.4299C69.3796 12.3576 69.4238 12.2784 69.4714 12.2095C69.5768 12.0786 69.6788 11.9374 69.8046 11.8306C70.0426 11.593 70.3214 11.4208 70.5968 11.2658C71.1646 10.9799 71.7664 10.8353 72.3579 10.7698C72.9495 10.7113 73.5309 10.7285 74.0953 10.7836C74.6801 10.8491 75.2308 11.004 75.751 11.19C76.7914 11.5689 77.7264 12.0717 78.6035 12.5918C79.4773 13.1153 80.2933 13.6595 81.0617 14.1967C82.5984 15.2748 83.9618 16.3115 85.1653 17.2207C86.3689 18.13 87.4161 18.9118 88.2796 19.5352C89.1738 20.1069 90.2788 20.8061 91.5979 21.519C92.2575 21.8737 92.9749 22.225 93.7467 22.5453C94.5219 22.8553 95.3582 23.1378 96.2456 23.2618C97.1262 23.3892 98.0781 23.3375 98.9009 22.9139C99.0063 22.8657 99.1015 22.7968 99.2001 22.7417C99.2953 22.6762 99.3905 22.6039 99.4857 22.5385C99.5741 22.4593 99.6693 22.3835 99.7509 22.3043C99.8291 22.2285 99.9005 22.1459 99.9549 22.0597C100.074 21.8875 100.135 21.6947 100.149 21.4915C100.162 21.2883 100.118 21.0713 100.036 20.8577C99.8665 20.4272 99.5503 20.0242 99.1797 19.6764C98.8023 19.332 98.3739 19.0289 97.8911 18.8188C97.6566 18.6948 97.4016 18.6156 97.15 18.5192C97.0242 18.4744 96.8916 18.4469 96.759 18.409L96.5618 18.3538C96.4972 18.3366 96.4292 18.3263 96.3612 18.3125C96.2252 18.285 96.0926 18.2574 95.9566 18.2299C95.8206 18.2126 95.6812 18.192 95.5452 18.1747L95.3378 18.1472L95.127 18.13C94.9876 18.1196 94.8482 18.1093 94.7054 18.0955C93.0395 18.0129 91.3939 18.2195 89.813 18.4813C89.4186 18.5467 89.0276 18.619 88.64 18.6914L88.3544 18.7465C88.266 18.7637 88.1777 18.7843 88.0859 18.8085C87.9057 18.8567 87.7255 18.9118 87.5487 18.9704C86.8347 19.2149 86.1377 19.5145 85.4611 19.8107C84.108 20.41 82.8296 21.0162 81.6158 21.5535C80.4055 22.0908 79.2631 22.5695 78.199 22.9552C77.1382 23.341 76.1522 23.6337 75.2683 23.8094C74.3843 23.985 73.6023 24.0401 72.9699 23.9712C72.3341 23.9058 71.865 23.7095 71.5896 23.527C71.5182 23.4822 71.4604 23.4409 71.4094 23.3995C71.3584 23.3616 71.3176 23.3272 71.287 23.2962C71.2258 23.2376 71.1918 23.2101 71.1918 23.2101C71.1918 23.2101 71.2258 23.2376 71.2904 23.2927C71.321 23.3203 71.3652 23.3513 71.4162 23.3857C71.4672 23.4202 71.5284 23.4615 71.6032 23.4994C71.8888 23.6647 72.3579 23.8231 72.9767 23.8507C73.5955 23.8817 74.3571 23.7853 75.2139 23.5683C76.0706 23.3513 77.026 23.0172 78.0596 22.5901C79.0931 22.1665 80.2083 21.6465 81.3949 21.0713C82.5848 20.4961 83.8394 19.8521 85.1925 19.2149C85.8691 18.898 86.5695 18.5777 87.3209 18.3056C87.5079 18.2367 87.7017 18.1747 87.9023 18.1196C88.0009 18.0921 88.1028 18.0645 88.2082 18.0439C88.3068 18.0232 88.4054 18.0025 88.504 17.9819C88.895 17.9026 89.2894 17.8235 89.6906 17.7511C91.2919 17.4653 92.9851 17.2379 94.7462 17.3206C94.8958 17.3309 95.0454 17.3447 95.195 17.355L95.4194 17.3723L95.6404 17.4033C95.79 17.4239 95.9362 17.4446 96.0824 17.4652C96.2286 17.4962 96.3748 17.5238 96.521 17.5548C96.5924 17.572 96.6672 17.5823 96.7386 17.603L96.9528 17.665C97.0956 17.7064 97.2418 17.7408 97.3812 17.7925C97.66 17.8992 97.9421 17.9922 98.2073 18.1334C98.7513 18.378 99.2443 18.7327 99.6727 19.1357C100.098 19.5455 100.472 20.0208 100.693 20.6029C100.798 20.8956 100.863 21.2159 100.832 21.5466C100.805 21.8738 100.686 22.1975 100.502 22.4524C100.414 22.5833 100.308 22.6969 100.2 22.8002C100.091 22.9001 99.9855 22.9828 99.8767 23.0723C99.7645 23.1515 99.6489 23.2342 99.5333 23.3065C99.4109 23.372 99.2953 23.4477 99.1729 23.5028C98.6799 23.7405 98.1529 23.8679 97.6395 23.9093C97.1262 23.9506 96.623 23.9127 96.147 23.83C95.1916 23.6647 94.3349 23.3375 93.5495 22.9862C92.7675 22.628 92.0535 22.2389 91.4041 21.8531C90.102 21.0747 89.0276 20.3205 88.1606 19.6971C87.2631 19.1219 86.1751 18.3917 84.9341 17.5341C83.6898 16.68 82.289 15.695 80.7319 14.6789C79.9533 14.1692 79.1339 13.656 78.2636 13.167C77.3966 12.6813 76.4752 12.2129 75.4994 11.8788C75.0099 11.7135 74.5067 11.5861 74.0001 11.5344C73.4731 11.4931 72.9427 11.4828 72.4157 11.5413C71.8922 11.6033 71.3754 11.7376 70.9198 11.9684C70.6988 12.0958 70.4812 12.2267 70.3078 12.4058C70.2126 12.485 70.1446 12.5884 70.0664 12.6814C70.0324 12.7296 70.0052 12.7847 69.9712 12.8329C69.9372 12.8811 69.9134 12.9362 69.893 12.9913C69.757 13.3082 69.7196 13.6629 69.8182 13.997C69.91 14.3311 70.1106 14.6376 70.3724 14.889C70.6342 15.1404 70.9504 15.3505 71.2972 15.4952C71.644 15.6433 72.0078 15.757 72.3817 15.8224C73.1297 15.9602 73.9015 15.9636 74.6495 15.8878C74.8399 15.8741 75.0167 15.8465 75.1969 15.819C75.3737 15.7811 75.5504 15.7466 75.7238 15.695C76.0706 15.5951 76.4072 15.4745 76.7234 15.3195C77.043 15.1646 77.349 14.9889 77.638 14.796C77.927 14.5997 78.2024 14.3862 78.4607 14.1623C78.9809 13.7146 79.4433 13.2221 79.8649 12.7227C80.7047 11.7204 81.3813 10.6837 81.9898 9.73316C82.1428 9.49551 82.289 9.2613 82.4352 9.03398C82.578 8.817 82.6936 8.58971 82.799 8.36239C83.0098 7.90777 83.1662 7.45659 83.2886 7.02951C83.5266 6.17192 83.6082 5.39697 83.5402 4.77358C83.5062 4.46361 83.4348 4.19154 83.3362 3.97111C83.2376 3.75069 83.1152 3.58538 83.003 3.46828C82.9418 3.41318 82.8908 3.3615 82.8398 3.32361C82.7888 3.28573 82.748 3.25473 82.7106 3.23406C82.6732 3.17207 82.6358 3.15141 82.6358 3.15141Z" fill="url(#paint26_linear_323_25057)"/>
<path d="M82.7304 3.3476C80.3598 0.478626 82.6454 -9.9659e-05 82.6454 -9.9659e-05C85.0023 0.540631 82.7304 3.3476 82.7304 3.3476ZM82.5671 0.785175C82.5671 0.847169 82.6181 0.895365 82.6794 0.891921C82.7406 0.891921 82.7882 0.840274 82.7848 0.77828C82.7848 0.716285 82.7338 0.668089 82.6726 0.671533C82.6113 0.671533 82.5637 0.72318 82.5671 0.785175ZM82.6794 1.09516C82.0229 2.4487 82.7202 2.62089 82.7202 2.62089C83.4174 2.32813 82.6794 1.09516 82.6794 1.09516Z" fill="url(#paint27_linear_323_25057)"/>
<path d="M83.0503 3.55438C83.0537 3.72314 82.921 3.86432 82.7544 3.87121C82.5877 3.87466 82.4483 3.74034 82.4415 3.57157C82.4381 3.40281 82.5707 3.26163 82.7374 3.25474C82.9074 3.2513 83.0469 3.38562 83.0503 3.55438Z" fill="url(#paint28_linear_323_25057)"/>
<path d="M5.96681 22.1079C0.764977 26.327 0 22.132 0 22.132C1.06077 17.8475 5.96681 22.1079 5.96681 22.1079ZM1.39396 22.3111C1.50276 22.3111 1.59115 22.2216 1.59115 22.1079C1.59115 21.9943 1.50275 21.9081 1.39056 21.9081C1.28176 21.9081 1.19336 21.9977 1.19336 22.1114C1.19676 22.2216 1.28516 22.3111 1.39396 22.3111ZM1.95154 22.1114C4.33827 23.3616 4.67485 22.101 4.67485 22.101C4.17847 20.8163 1.95154 22.1114 1.95154 22.1114Z" fill="url(#paint29_linear_323_25057)"/>
<path d="M6.35226 21.5328C6.65495 21.5328 6.90323 21.7808 6.90323 22.0873C6.90323 22.3938 6.65836 22.6453 6.35566 22.6453C6.05297 22.6453 5.80469 22.3973 5.80469 22.0908C5.80469 21.7842 6.04956 21.5363 6.35226 21.5328Z" fill="url(#paint30_linear_323_25057)"/>
<path d="M10.5632 21.5156C10.8659 21.5156 11.1142 21.7636 11.1142 22.0701C11.1142 22.3766 10.8693 22.6281 10.5666 22.6281C10.2639 22.6281 10.0156 22.38 10.0156 22.0735C10.0156 21.767 10.2605 21.519 10.5632 21.5156Z" fill="url(#paint31_linear_323_25057)"/>
<path d="M8.45751 20.6098C8.45751 20.6098 6.58077 22.0805 6.59777 22.0908C6.58077 22.0977 8.46771 23.5546 8.46771 23.5546C8.68531 23.0724 10.3377 22.077 10.3343 22.0736C10.3649 22.0563 8.68191 21.0885 8.45751 20.6098Z" fill="url(#paint32_linear_323_25057)"/>
<path d="M61.265 22.1114C61.265 22.1114 60.7686 24.8426 57.3789 22.0942C57.3823 22.0976 60.5748 19.3217 61.265 22.1114ZM60.4864 22.0976C60.4864 22.0253 60.4286 21.9668 60.3572 21.9668C60.2858 21.9668 60.228 22.0253 60.228 22.0976C60.228 22.17 60.2858 22.2285 60.3572 22.2285C60.4286 22.2285 60.4864 22.17 60.4864 22.0976ZM58.2221 22.0907C58.2221 22.0907 58.4397 22.9139 59.9968 22.0976C59.9934 22.0976 58.5451 21.2538 58.2221 22.0907Z" fill="url(#paint33_linear_323_25057)"/>
<path d="M57.1325 21.7224C56.9352 21.7224 56.7754 21.8843 56.7754 22.084C56.7754 22.2838 56.9352 22.4457 57.1325 22.4457C57.3298 22.4457 57.4896 22.2838 57.4896 22.084C57.4896 21.8843 57.3298 21.7224 57.1325 21.7224Z" fill="url(#paint34_linear_323_25057)"/>
<path d="M56.7744 22.27H10.5664V21.8773H56.7744V22.27Z" fill="url(#paint35_linear_323_25057)"/>
<defs>
<linearGradient id="paint0_linear_323_25057" x1="159.034" y1="78.8936" x2="165" y2="78.8936" gradientUnits="userSpaceOnUse">
<stop stop-color="#FEF275"/>
<stop offset="1" stop-color="#BDA32B"/>
</linearGradient>
<linearGradient id="paint1_linear_323_25057" x1="158.098" y1="78.9111" x2="159.195" y2="78.9111" gradientUnits="userSpaceOnUse">
<stop stop-color="#FEF275"/>
<stop offset="1" stop-color="#BDA32B"/>
</linearGradient>
<linearGradient id="paint2_linear_323_25057" x1="153.888" y1="78.9282" x2="154.984" y2="78.9282" gradientUnits="userSpaceOnUse">
<stop stop-color="#FEF275"/>
<stop offset="1" stop-color="#BDA32B"/>
</linearGradient>
<linearGradient id="paint3_linear_323_25057" x1="154.662" y1="78.9197" x2="158.4" y2="78.9197" gradientUnits="userSpaceOnUse">
<stop stop-color="#FEF275"/>
<stop offset="1" stop-color="#BDA32B"/>
</linearGradient>
<linearGradient id="paint4_linear_323_25057" x1="103.733" y1="78.9056" x2="107.617" y2="78.9056" gradientUnits="userSpaceOnUse">
<stop stop-color="#FEF275"/>
<stop offset="1" stop-color="#BDA32B"/>
</linearGradient>
<linearGradient id="paint5_linear_323_25057" x1="107.513" y1="78.9171" x2="108.228" y2="78.9171" gradientUnits="userSpaceOnUse">
<stop stop-color="#FEF275"/>
<stop offset="1" stop-color="#BDA32B"/>
</linearGradient>
<linearGradient id="paint6_linear_323_25057" x1="108.227" y1="78.9281" x2="154.435" y2="78.9281" gradientUnits="userSpaceOnUse">
<stop stop-color="#FEF275"/>
<stop offset="1" stop-color="#BDA32B"/>
</linearGradient>
<linearGradient id="paint7_linear_323_25057" x1="64.394" y1="87.4294" x2="96.2241" y2="87.4294" gradientUnits="userSpaceOnUse">
<stop stop-color="#FEF275"/>
<stop offset="1" stop-color="#BDA32B"/>
</linearGradient>
<linearGradient id="paint8_linear_323_25057" x1="69.0315" y1="87.4292" x2="100.862" y2="87.4292" gradientUnits="userSpaceOnUse">
<stop stop-color="#FEF275"/>
<stop offset="1" stop-color="#BDA32B"/>
</linearGradient>
<linearGradient id="paint9_linear_323_25057" x1="81.6552" y1="99.3268" x2="83.7153" y2="99.3268" gradientUnits="userSpaceOnUse">
<stop stop-color="#FEF275"/>
<stop offset="1" stop-color="#BDA32B"/>
</linearGradient>
<linearGradient id="paint10_linear_323_25057" x1="82.4438" y1="97.4364" x2="83.0514" y2="97.4364" gradientUnits="userSpaceOnUse">
<stop stop-color="#FEF275"/>
<stop offset="1" stop-color="#BDA32B"/>
</linearGradient>
<linearGradient id="paint11_linear_323_25057" x1="6.79979e-05" y1="78.8938" x2="5.96579" y2="78.8938" gradientUnits="userSpaceOnUse">
<stop stop-color="#FEF275"/>
<stop offset="1" stop-color="#BDA32B"/>
</linearGradient>
<linearGradient id="paint12_linear_323_25057" x1="5.80605" y1="78.9111" x2="6.90296" y2="78.9111" gradientUnits="userSpaceOnUse">
<stop stop-color="#FEF275"/>
<stop offset="1" stop-color="#BDA32B"/>
</linearGradient>
<linearGradient id="paint13_linear_323_25057" x1="10.0167" y1="78.9281" x2="11.1136" y2="78.9281" gradientUnits="userSpaceOnUse">
<stop stop-color="#FEF275"/>
<stop offset="1" stop-color="#BDA32B"/>
</linearGradient>
<linearGradient id="paint14_linear_323_25057" x1="6.59869" y1="78.9196" x2="10.3372" y2="78.9196" gradientUnits="userSpaceOnUse">
<stop stop-color="#FEF275"/>
<stop offset="1" stop-color="#BDA32B"/>
</linearGradient>
<linearGradient id="paint15_linear_323_25057" x1="57.3816" y1="78.9056" x2="61.2666" y2="78.9056" gradientUnits="userSpaceOnUse">
<stop stop-color="#FEF275"/>
<stop offset="1" stop-color="#BDA32B"/>
</linearGradient>
<linearGradient id="paint16_linear_323_25057" x1="56.7739" y1="78.9167" x2="57.4883" y2="78.9167" gradientUnits="userSpaceOnUse">
<stop stop-color="#FEF275"/>
<stop offset="1" stop-color="#BDA32B"/>
</linearGradient>
<linearGradient id="paint17_linear_323_25057" x1="10.565" y1="78.928" x2="56.7729" y2="78.928" gradientUnits="userSpaceOnUse">
<stop stop-color="#FEF275"/>
<stop offset="1" stop-color="#BDA32B"/>
</linearGradient>
<linearGradient id="paint18_linear_323_25057" x1="159.034" y1="22.1064" x2="165" y2="22.1064" gradientUnits="userSpaceOnUse">
<stop stop-color="#FEF275"/>
<stop offset="1" stop-color="#BDA32B"/>
</linearGradient>
<linearGradient id="paint19_linear_323_25057" x1="158.098" y1="22.0889" x2="159.195" y2="22.0889" gradientUnits="userSpaceOnUse">
<stop stop-color="#FEF275"/>
<stop offset="1" stop-color="#BDA32B"/>
</linearGradient>
<linearGradient id="paint20_linear_323_25057" x1="153.888" y1="22.0718" x2="154.984" y2="22.0718" gradientUnits="userSpaceOnUse">
<stop stop-color="#FEF275"/>
<stop offset="1" stop-color="#BDA32B"/>
</linearGradient>
<linearGradient id="paint21_linear_323_25057" x1="154.662" y1="22.0803" x2="158.4" y2="22.0803" gradientUnits="userSpaceOnUse">
<stop stop-color="#FEF275"/>
<stop offset="1" stop-color="#BDA32B"/>
</linearGradient>
<linearGradient id="paint22_linear_323_25057" x1="103.733" y1="22.0944" x2="107.617" y2="22.0944" gradientUnits="userSpaceOnUse">
<stop stop-color="#FEF275"/>
<stop offset="1" stop-color="#BDA32B"/>
</linearGradient>
<linearGradient id="paint23_linear_323_25057" x1="107.513" y1="22.0829" x2="108.228" y2="22.0829" gradientUnits="userSpaceOnUse">
<stop stop-color="#FEF275"/>
<stop offset="1" stop-color="#BDA32B"/>
</linearGradient>
<linearGradient id="paint24_linear_323_25057" x1="108.227" y1="22.0719" x2="154.435" y2="22.0719" gradientUnits="userSpaceOnUse">
<stop stop-color="#FEF275"/>
<stop offset="1" stop-color="#BDA32B"/>
</linearGradient>
<linearGradient id="paint25_linear_323_25057" x1="64.394" y1="13.5706" x2="96.2241" y2="13.5706" gradientUnits="userSpaceOnUse">
<stop stop-color="#FEF275"/>
<stop offset="1" stop-color="#BDA32B"/>
</linearGradient>
<linearGradient id="paint26_linear_323_25057" x1="69.0315" y1="13.5708" x2="100.862" y2="13.5708" gradientUnits="userSpaceOnUse">
<stop stop-color="#FEF275"/>
<stop offset="1" stop-color="#BDA32B"/>
</linearGradient>
<linearGradient id="paint27_linear_323_25057" x1="81.6552" y1="1.67323" x2="83.7153" y2="1.67323" gradientUnits="userSpaceOnUse">
<stop stop-color="#FEF275"/>
<stop offset="1" stop-color="#BDA32B"/>
</linearGradient>
<linearGradient id="paint28_linear_323_25057" x1="82.4438" y1="3.56363" x2="83.0514" y2="3.56363" gradientUnits="userSpaceOnUse">
<stop stop-color="#FEF275"/>
<stop offset="1" stop-color="#BDA32B"/>
</linearGradient>
<linearGradient id="paint29_linear_323_25057" x1="6.79979e-05" y1="22.1062" x2="5.96579" y2="22.1062" gradientUnits="userSpaceOnUse">
<stop stop-color="#FEF275"/>
<stop offset="1" stop-color="#BDA32B"/>
</linearGradient>
<linearGradient id="paint30_linear_323_25057" x1="5.80605" y1="22.0889" x2="6.90296" y2="22.0889" gradientUnits="userSpaceOnUse">
<stop stop-color="#FEF275"/>
<stop offset="1" stop-color="#BDA32B"/>
</linearGradient>
<linearGradient id="paint31_linear_323_25057" x1="10.0167" y1="22.0719" x2="11.1136" y2="22.0719" gradientUnits="userSpaceOnUse">
<stop stop-color="#FEF275"/>
<stop offset="1" stop-color="#BDA32B"/>
</linearGradient>
<linearGradient id="paint32_linear_323_25057" x1="6.59869" y1="22.0804" x2="10.3372" y2="22.0804" gradientUnits="userSpaceOnUse">
<stop stop-color="#FEF275"/>
<stop offset="1" stop-color="#BDA32B"/>
</linearGradient>
<linearGradient id="paint33_linear_323_25057" x1="57.3816" y1="22.0944" x2="61.2666" y2="22.0944" gradientUnits="userSpaceOnUse">
<stop stop-color="#FEF275"/>
<stop offset="1" stop-color="#BDA32B"/>
</linearGradient>
<linearGradient id="paint34_linear_323_25057" x1="56.7739" y1="22.0833" x2="57.4883" y2="22.0833" gradientUnits="userSpaceOnUse">
<stop stop-color="#FEF275"/>
<stop offset="1" stop-color="#BDA32B"/>
</linearGradient>
<linearGradient id="paint35_linear_323_25057" x1="10.565" y1="22.072" x2="56.7729" y2="22.072" gradientUnits="userSpaceOnUse">
<stop stop-color="#FEF275"/>
<stop offset="1" stop-color="#BDA32B"/>
</linearGradient>
</defs>
</svg>
