<?xml version="1.0" standalone="no"?>
<!DOCTYPE svg PUBLIC "-//W3C//DTD SVG 20010904//EN"
 "http://www.w3.org/TR/2001/REC-SVG-20010904/DTD/svg10.dtd">
<svg version="1.0" xmlns="http://www.w3.org/2000/svg"
 width="300.000000pt" height="168.000000pt" viewBox="0 0 300.000000 168.000000"
 preserveAspectRatio="xMidYMid meet">

<g transform="translate(0.000000,168.000000) scale(0.100000,-0.100000)"
fill="#000000" stroke="none">
<path d="M1883 1470 c-12 -5 -25 -21 -29 -35 -7 -26 -1 -87 10 -115 4 -11 -9
-23 -43 -43 -69 -38 -87 -85 -84 -227 2 -86 -1 -108 -15 -125 -16 -19 -16 -20
3 -4 31 25 55 31 55 13 0 -9 -5 -12 -12 -8 -7 5 -8 3 -2 -7 15 -24 15 -41 -2
-158 -19 -135 -16 -162 24 -227 24 -37 28 -52 21 -66 -16 -30 -7 -92 14 -96
18 -4 20 -1 37 67 8 31 15 40 22 33 8 -8 7 -29 -1 -73 -12 -57 -11 -64 5 -76
41 -30 68 -7 44 38 -9 15 -7 26 8 47 14 20 21 53 26 124 6 94 29 268 45 338 4
19 6 77 3 128 -3 58 -1 92 6 92 5 0 13 -8 17 -17 13 -33 17 -168 7 -205 -7
-26 -7 -38 0 -38 6 0 8 -9 5 -19 -4 -16 -1 -18 17 -12 20 8 21 14 21 177 0
218 -8 249 -81 304 -51 39 -68 70 -44 85 18 11 11 74 -10 95 -22 22 -33 23
-67 10z m-96 -462 c-2 -13 -4 -5 -4 17 -1 22 1 32 4 23 2 -10 2 -28 0 -40z
m88 -486 c-9 -9 -20 61 -16 106 5 45 5 44 13 -27 4 -41 6 -76 3 -79z"/>
<path d="M1655 848 l-50 -53 53 50 c48 46 57 55 49 55 -1 0 -25 -24 -52 -52z"/>
<path d="M1565 748 l-40 -43 43 40 c39 36 47 45 39 45 -2 0 -21 -19 -42 -42z"/>
<path d="M1509 683 c-13 -16 -12 -17 4 -4 16 13 21 21 13 21 -2 0 -10 -8 -17
-17z"/>
<path d="M1384 550 c-61 -62 -95 -89 -106 -85 -18 7 -38 47 -38 77 0 17 -2 18
-15 8 -12 -10 -18 -10 -30 0 -13 10 -15 9 -15 -8 0 -12 -9 -26 -20 -32 -11 -6
-20 -17 -20 -24 0 -8 -10 -21 -22 -29 l-23 -16 23 -7 c16 -5 21 -12 17 -25 -8
-24 -1 -24 37 -1 28 16 30 16 44 -3 23 -31 28 -64 14 -91 -11 -20 -11 -27 5
-44 19 -21 45 -27 45 -11 0 5 -5 11 -12 13 -24 8 1 38 31 38 l30 0 -14 -47
c-19 -62 -19 -66 4 -54 11 6 21 26 25 50 11 70 86 97 86 32 0 -16 -4 -33 -10
-36 -19 -12 -11 -26 9 -15 23 12 36 62 23 87 -7 12 -7 25 0 37 9 17 12 16 38
-9 24 -23 27 -31 20 -57 -7 -21 -6 -28 2 -26 19 7 29 60 19 98 -20 70 -25 96
-26 139 -1 44 -21 71 -54 71 -11 0 -9 -6 7 -23 12 -13 22 -33 22 -45 0 -19 -6
-22 -38 -22 -21 0 -47 -7 -58 -15 -10 -8 -32 -15 -49 -15 -28 0 -26 4 60 90
49 50 87 90 85 90 -3 0 -46 -41 -96 -90z"/>
</g>
</svg>
