<svg width="161" height="32" viewBox="0 0 161 32" fill="none" xmlns="http://www.w3.org/2000/svg">
<g clip-path="url(#clip0_15_21)">
<path d="M15.9997 0C-2.28437 0.369763 -6.02892 25.3844 11.0412 31.2415V21.4279L8.26712 18.6531C6.34861 19.6367 3.98491 18.1797 4.00586 16.014C4.00586 14.3883 5.32853 13.0656 6.95427 13.0656C9.11924 13.0449 10.5764 15.4072 9.59379 17.3257L12.6431 20.3759C12.819 20.5519 12.9178 20.7905 12.9178 21.0393V31.7294C13.6173 31.8663 14.3328 31.9576 15.0614 31.9999V13.7833C11.9409 12.682 12.6504 8.10614 15.9998 8.0404C19.3498 8.10645 20.0581 12.6827 16.9381 13.7833V31.9999C17.6666 31.9577 18.3822 31.8663 19.0816 31.7294V21.0393C19.0816 20.7905 19.1805 20.5519 19.3564 20.376L22.4057 17.3258C21.4233 15.4073 22.8802 13.0447 25.0453 13.0657C26.671 13.0657 27.9937 14.3884 27.9937 16.0141C28.0145 18.1796 25.651 19.6369 23.7324 18.6531L20.9583 21.4279V31.2415C38.0395 25.3764 34.2707 0.364821 15.9997 0Z" fill="#166FD3"/>
<path d="M15.9998 9.91699C15.4088 9.91699 14.928 10.3979 14.928 10.9888C14.9868 12.4106 17.0129 12.4102 17.0716 10.9888C17.0716 10.3979 16.5908 9.91699 15.9998 9.91699Z" fill="#166FD3"/>
<path d="M26.117 16.0142C26.117 15.4232 25.6362 14.9424 25.0452 14.9424C23.6234 15.0012 23.6238 17.0273 25.0452 17.086C25.6362 17.086 26.117 16.6052 26.117 16.0142Z" fill="#166FD3"/>
<path d="M5.88257 16.0142C5.88257 16.6052 6.36343 17.086 6.95439 17.086C8.3762 17.0272 8.37576 15.0011 6.95439 14.9424C6.36337 14.9424 5.88257 15.4232 5.88257 16.0142Z" fill="#166FD3"/>
</g>
<path d="M49.2727 27.5H41.0227V4.22727H49.3409C51.6818 4.22727 53.697 4.69318 55.3864 5.625C57.0758 6.54924 58.375 7.87879 59.2841 9.61364C60.2008 11.3485 60.6591 13.4242 60.6591 15.8409C60.6591 18.2652 60.2008 20.3485 59.2841 22.0909C58.375 23.8333 57.0682 25.1705 55.3636 26.1023C53.6667 27.0341 51.6364 27.5 49.2727 27.5ZM45.9432 23.2841H49.0682C50.5227 23.2841 51.7462 23.0265 52.7386 22.5114C53.7386 21.9886 54.4886 21.1818 54.9886 20.0909C55.4962 18.9924 55.75 17.5758 55.75 15.8409C55.75 14.1212 55.4962 12.7159 54.9886 11.625C54.4886 10.5341 53.7424 9.73106 52.75 9.21591C51.7576 8.70076 50.5341 8.44318 49.0795 8.44318H45.9432V23.2841ZM68.2303 27.8295C67.1167 27.8295 66.1243 27.6364 65.2531 27.25C64.3819 26.8561 63.6925 26.2765 63.1849 25.5114C62.6849 24.7386 62.4349 23.7765 62.4349 22.625C62.4349 21.6553 62.6129 20.8409 62.969 20.1818C63.325 19.5227 63.8099 18.9924 64.4235 18.5909C65.0372 18.1894 65.7341 17.8864 66.5144 17.6818C67.3023 17.4773 68.1281 17.3333 68.9917 17.25C70.0069 17.1439 70.825 17.0455 71.4463 16.9545C72.0675 16.8561 72.5182 16.7121 72.7985 16.5227C73.0788 16.3333 73.219 16.053 73.219 15.6818V15.6136C73.219 14.8939 72.9917 14.3371 72.5372 13.9432C72.0902 13.5492 71.4538 13.3523 70.6281 13.3523C69.7569 13.3523 69.0637 13.5455 68.5485 13.9318C68.0334 14.3106 67.6925 14.7879 67.5258 15.3636L63.0485 15C63.2758 13.9394 63.7228 13.0227 64.3894 12.25C65.0561 11.4697 65.9159 10.8712 66.969 10.4545C68.0296 10.0303 69.2569 9.81818 70.6508 9.81818C71.6205 9.81818 72.5485 9.93182 73.4349 10.1591C74.3288 10.3864 75.1205 10.7386 75.8099 11.2159C76.5069 11.6932 77.0561 12.3068 77.4576 13.0568C77.8591 13.7992 78.0599 14.6894 78.0599 15.7273V27.5H73.469V25.0795H73.3326C73.0523 25.625 72.6773 26.1061 72.2076 26.5227C71.7379 26.9318 71.1735 27.2538 70.5144 27.4886C69.8553 27.7159 69.094 27.8295 68.2303 27.8295ZM69.6167 24.4886C70.3288 24.4886 70.9576 24.3485 71.5031 24.0682C72.0485 23.7803 72.4766 23.3939 72.7872 22.9091C73.0978 22.4242 73.2531 21.875 73.2531 21.2614V19.4091C73.1016 19.5076 72.8932 19.5985 72.6281 19.6818C72.3705 19.7576 72.0788 19.8295 71.7531 19.8977C71.4273 19.9583 71.1016 20.0152 70.7758 20.0682C70.45 20.1136 70.1546 20.1553 69.8894 20.1932C69.3213 20.2765 68.825 20.4091 68.4008 20.5909C67.9766 20.7727 67.647 21.0189 67.4122 21.3295C67.1773 21.6326 67.0599 22.0114 67.0599 22.4659C67.0599 23.125 67.2985 23.6288 67.7758 23.9773C68.2606 24.3182 68.8743 24.4886 69.6167 24.4886ZM85.6965 4.22727V27.5H80.8556V4.22727H85.6965ZM87.8189 8.28409V4.22727H106.932V8.28409H99.8075V27.5H94.9439V8.28409H87.8189ZM114.453 27.8409C112.657 27.8409 111.112 27.4773 109.816 26.75C108.528 26.0152 107.536 24.9773 106.839 23.6364C106.142 22.2879 105.794 20.6932 105.794 18.8523C105.794 17.0568 106.142 15.4811 106.839 14.125C107.536 12.7689 108.517 11.7121 109.782 10.9545C111.055 10.197 112.547 9.81818 114.259 9.81818C115.411 9.81818 116.483 10.0038 117.475 10.375C118.475 10.7386 119.347 11.2879 120.089 12.0227C120.839 12.7576 121.422 13.6818 121.839 14.7955C122.256 15.9015 122.464 17.197 122.464 18.6818V20.0114H107.725V17.0114H117.907C117.907 16.3144 117.756 15.697 117.453 15.1591C117.15 14.6212 116.729 14.2008 116.191 13.8977C115.661 13.5871 115.044 13.4318 114.339 13.4318C113.604 13.4318 112.953 13.6023 112.384 13.9432C111.824 14.2765 111.384 14.7273 111.066 15.2955C110.748 15.8561 110.585 16.4811 110.578 17.1705V20.0227C110.578 20.8864 110.737 21.6326 111.055 22.2614C111.381 22.8902 111.839 23.375 112.43 23.7159C113.021 24.0568 113.722 24.2273 114.532 24.2273C115.07 24.2273 115.562 24.1515 116.009 24C116.456 23.8485 116.839 23.6212 117.157 23.3182C117.475 23.0152 117.718 22.6439 117.884 22.2045L122.362 22.5C122.134 23.5758 121.669 24.5152 120.964 25.3182C120.267 26.1136 119.365 26.7348 118.259 27.1818C117.161 27.6212 115.892 27.8409 114.453 27.8409ZM132.549 27.8409C130.762 27.8409 129.224 27.4621 127.936 26.7045C126.655 25.9394 125.671 24.8788 124.981 23.5227C124.299 22.1667 123.959 20.6061 123.959 18.8409C123.959 17.053 124.303 15.4848 124.993 14.1364C125.69 12.7803 126.678 11.7235 127.959 10.9659C129.239 10.2008 130.762 9.81818 132.527 9.81818C134.049 9.81818 135.383 10.0947 136.527 10.6477C137.671 11.2008 138.576 11.9773 139.243 12.9773C139.909 13.9773 140.277 15.1515 140.345 16.5H135.777C135.648 15.6288 135.307 14.928 134.754 14.3977C134.209 13.8598 133.493 13.5909 132.606 13.5909C131.856 13.5909 131.201 13.7955 130.64 14.2045C130.087 14.6061 129.655 15.1932 129.345 15.9659C129.034 16.7386 128.879 17.6742 128.879 18.7727C128.879 19.8864 129.03 20.8333 129.334 21.6136C129.644 22.3939 130.08 22.9886 130.64 23.3977C131.201 23.8068 131.856 24.0114 132.606 24.0114C133.159 24.0114 133.655 23.8977 134.095 23.6705C134.542 23.4432 134.909 23.1136 135.197 22.6818C135.493 22.2424 135.686 21.7159 135.777 21.1023H140.345C140.269 22.4356 139.905 23.6098 139.254 24.625C138.61 25.6326 137.72 26.4205 136.584 26.9886C135.447 27.5568 134.102 27.8409 132.549 27.8409ZM147.325 17.4091V27.5H142.484V4.22727H147.189V13.125H147.393C147.787 12.0947 148.424 11.2879 149.302 10.7045C150.181 10.1136 151.284 9.81818 152.609 9.81818C153.821 9.81818 154.878 10.0833 155.78 10.6136C156.689 11.1364 157.393 11.8902 157.893 12.875C158.401 13.8523 158.651 15.0227 158.643 16.3864V27.5H153.802V17.25C153.81 16.1742 153.537 15.3371 152.984 14.7386C152.439 14.1402 151.674 13.8409 150.689 13.8409C150.03 13.8409 149.446 13.9811 148.939 14.2614C148.439 14.5417 148.045 14.9508 147.757 15.4886C147.477 16.0189 147.333 16.6591 147.325 17.4091Z" fill="#222222"/>
<defs>
<clipPath id="clip0_15_21">
<rect width="32" height="32" fill="white"/>
</clipPath>
</defs>
</svg>
