<svg xmlns="http://www.w3.org/2000/svg" width="180" height="40" fill="none" viewBox="0 0 180 40">
  <path fill="#627881" d="M76.953 37h1.162v-3.71h2.59c1.848 0 2.926-1.288 2.926-2.814s-1.05-2.814-2.926-2.814h-3.752V37Zm5.474-6.524c0 1.05-.756 1.778-1.862 1.778h-2.45v-3.556h2.45c1.106 0 1.862.728 1.862 1.778Zm5.477 6.692c2.058 0 3.346-1.596 3.346-3.556s-1.288-3.542-3.346-3.542-3.346 1.582-3.346 3.542c0 1.96 1.288 3.556 3.346 3.556Zm0-.938c-1.442 0-2.254-1.232-2.254-2.618 0-1.372.812-2.604 2.254-2.604s2.24 1.232 2.24 2.604c0 1.386-.798 2.618-2.24 2.618Zm9.622.77h1.05v-6.762h-1.05v4.97c-.392.546-1.176 1.022-2.002 1.022-.91 0-1.512-.35-1.512-1.54v-4.452h-1.05v4.774c0 1.47.742 2.156 2.156 2.156 1.008 0 1.89-.532 2.408-1.12V37Zm3.147 0h1.05v-4.788c.308-.546 1.19-1.078 1.834-1.078.168 0 .294.014.42.042v-1.078c-.924 0-1.708.518-2.254 1.232v-1.092h-1.05V37Zm8.231 0h1.05v-9.338h-1.05V37Zm2.752-3.388c0 2.114 1.442 3.556 3.444 3.556 1.106 0 2.016-.364 2.688-1.036l-.504-.686c-.532.546-1.316.854-2.086.854-1.456 0-2.352-1.064-2.436-2.338h5.474v-.266c0-2.03-1.204-3.626-3.248-3.626-1.932 0-3.332 1.582-3.332 3.542Zm3.318-2.674c1.54 0 2.212 1.246 2.226 2.254h-4.438c.056-1.036.77-2.254 2.212-2.254Zm4.375 5.166c.686.728 1.624 1.064 2.73 1.064 1.75 0 2.66-.91 2.66-2.044 0-1.498-1.358-1.834-2.534-2.1-.882-.21-1.652-.42-1.652-1.078 0-.602.574-1.022 1.498-1.022.868 0 1.61.364 2.016.854l.49-.728c-.546-.546-1.358-.98-2.506-.98-1.61 0-2.52.896-2.52 1.946 0 1.4 1.302 1.708 2.45 1.974.91.224 1.736.462 1.736 1.204 0 .658-.56 1.12-1.596 1.12-.924 0-1.778-.448-2.226-.966l-.546.756Zm10.117 0c.686.728 1.624 1.064 2.73 1.064 1.75 0 2.66-.91 2.66-2.044 0-1.498-1.358-1.834-2.534-2.1-.882-.21-1.652-.42-1.652-1.078 0-.602.574-1.022 1.498-1.022.868 0 1.61.364 2.016.854l.49-.728c-.546-.546-1.358-.98-2.506-.98-1.61 0-2.52.896-2.52 1.946 0 1.4 1.302 1.708 2.45 1.974.91.224 1.736.462 1.736 1.204 0 .658-.56 1.12-1.596 1.12-.924 0-1.778-.448-2.226-.966l-.546.756Zm10.05 1.064c2.058 0 3.346-1.596 3.346-3.556s-1.288-3.542-3.346-3.542-3.346 1.582-3.346 3.542c0 1.96 1.288 3.556 3.346 3.556Zm0-.938c-1.442 0-2.254-1.232-2.254-2.618 0-1.372.812-2.604 2.254-2.604s2.24 1.232 2.24 2.604c0 1.386-.798 2.618-2.24 2.618Zm4.665-2.618c0 2.016 1.358 3.556 3.374 3.556 1.232 0 1.96-.504 2.478-1.176l-.7-.644c-.448.602-1.022.882-1.722.882-1.442 0-2.338-1.12-2.338-2.618 0-1.498.896-2.604 2.338-2.604.7 0 1.274.266 1.722.882l.7-.644c-.518-.672-1.246-1.176-2.478-1.176-2.016 0-3.374 1.54-3.374 3.542Zm7.842-4.508a.717.717 0 0 0 .714-.714c0-.392-.322-.7-.714-.7-.378 0-.7.308-.7.7 0 .392.322.714.7.714ZM151.505 37h1.05v-6.762h-1.05V37Zm6.435-7.784 2.366-2.016h-1.092l-2.072 2.016h.798Zm-3.682 4.396c0 2.114 1.442 3.556 3.444 3.556 1.106 0 2.016-.364 2.688-1.036l-.504-.686c-.532.546-1.316.854-2.086.854-1.456 0-2.352-1.064-2.436-2.338h5.474v-.266c0-2.03-1.204-3.626-3.248-3.626-1.932 0-3.332 1.582-3.332 3.542Zm3.318-2.674c1.54 0 2.212 1.246 2.226 2.254h-4.438c.056-1.036.77-2.254 2.212-2.254Zm6.67 6.23c.616 0 .994-.182 1.26-.434l-.308-.784c-.14.154-.42.28-.714.28-.462 0-.686-.364-.686-.868v-4.2h1.372v-.924h-1.372V28.39h-1.05v1.848h-1.12v.924h1.12v4.424c0 1.008.504 1.582 1.498 1.582Zm5.698-7.952 2.366-2.016h-1.092l-2.072 2.016h.798Zm-3.682 4.396c0 2.114 1.442 3.556 3.444 3.556 1.106 0 2.016-.364 2.688-1.036l-.504-.686c-.532.546-1.316.854-2.086.854-1.456 0-2.352-1.064-2.436-2.338h5.474v-.266c0-2.03-1.204-3.626-3.248-3.626-1.932 0-3.332 1.582-3.332 3.542Zm3.318-2.674c1.54 0 2.212 1.246 2.226 2.254h-4.438c.056-1.036.77-2.254 2.212-2.254Zm4.374 5.166c.686.728 1.624 1.064 2.73 1.064 1.75 0 2.66-.91 2.66-2.044 0-1.498-1.358-1.834-2.534-2.1-.882-.21-1.652-.42-1.652-1.078 0-.602.574-1.022 1.498-1.022.868 0 1.61.364 2.016.854l.49-.728c-.546-.546-1.358-.98-2.506-.98-1.61 0-2.52.896-2.52 1.946 0 1.4 1.302 1.708 2.45 1.974.91.224 1.736.462 1.736 1.204 0 .658-.56 1.12-1.596 1.12-.924 0-1.778-.448-2.226-.966l-.546.756Z"/>
  <path fill="#627881" d="M76.953 37h1.162v-3.71h2.59c1.848 0 2.926-1.288 2.926-2.814s-1.05-2.814-2.926-2.814h-3.752V37Zm5.474-6.524c0 1.05-.756 1.778-1.862 1.778h-2.45v-3.556h2.45c1.106 0 1.862.728 1.862 1.778Zm5.477 6.692c2.058 0 3.346-1.596 3.346-3.556s-1.288-3.542-3.346-3.542-3.346 1.582-3.346 3.542c0 1.96 1.288 3.556 3.346 3.556Zm0-.938c-1.442 0-2.254-1.232-2.254-2.618 0-1.372.812-2.604 2.254-2.604s2.24 1.232 2.24 2.604c0 1.386-.798 2.618-2.24 2.618Zm9.622.77h1.05v-6.762h-1.05v4.97c-.392.546-1.176 1.022-2.002 1.022-.91 0-1.512-.35-1.512-1.54v-4.452h-1.05v4.774c0 1.47.742 2.156 2.156 2.156 1.008 0 1.89-.532 2.408-1.12V37Zm3.147 0h1.05v-4.788c.308-.546 1.19-1.078 1.834-1.078.168 0 .294.014.42.042v-1.078c-.924 0-1.708.518-2.254 1.232v-1.092h-1.05V37Zm8.23 0h1.05v-9.338h-1.05V37Zm2.753-3.388c0 2.114 1.442 3.556 3.444 3.556 1.106 0 2.016-.364 2.688-1.036l-.504-.686c-.532.546-1.316.854-2.086.854-1.456 0-2.352-1.064-2.436-2.338h5.474v-.266c0-2.03-1.204-3.626-3.248-3.626-1.932 0-3.332 1.582-3.332 3.542Zm3.318-2.674c1.54 0 2.212 1.246 2.226 2.254h-4.438c.056-1.036.77-2.254 2.212-2.254Zm4.375 5.166c.686.728 1.624 1.064 2.73 1.064 1.75 0 2.66-.91 2.66-2.044 0-1.498-1.358-1.834-2.534-2.1-.882-.21-1.652-.42-1.652-1.078 0-.602.574-1.022 1.498-1.022.868 0 1.61.364 2.016.854l.49-.728c-.546-.546-1.358-.98-2.506-.98-1.61 0-2.52.896-2.52 1.946 0 1.4 1.302 1.708 2.45 1.974.91.224 1.736.462 1.736 1.204 0 .658-.56 1.12-1.596 1.12-.924 0-1.778-.448-2.226-.966l-.546.756Zm10.117 0c.686.728 1.624 1.064 2.73 1.064 1.75 0 2.66-.91 2.66-2.044 0-1.498-1.358-1.834-2.534-2.1-.882-.21-1.652-.42-1.652-1.078 0-.602.574-1.022 1.498-1.022.868 0 1.61.364 2.016.854l.49-.728c-.546-.546-1.358-.98-2.506-.98-1.61 0-2.52.896-2.52 1.946 0 1.4 1.302 1.708 2.45 1.974.91.224 1.736.462 1.736 1.204 0 .658-.56 1.12-1.596 1.12-.924 0-1.778-.448-2.226-.966l-.546.756Zm10.05 1.064c2.058 0 3.346-1.596 3.346-3.556s-1.288-3.542-3.346-3.542-3.346 1.582-3.346 3.542c0 1.96 1.288 3.556 3.346 3.556Zm0-.938c-1.442 0-2.254-1.232-2.254-2.618 0-1.372.812-2.604 2.254-2.604s2.24 1.232 2.24 2.604c0 1.386-.798 2.618-2.24 2.618Zm4.665-2.618c0 2.016 1.358 3.556 3.374 3.556 1.232 0 1.96-.504 2.478-1.176l-.7-.644c-.448.602-1.022.882-1.722.882-1.442 0-2.338-1.12-2.338-2.618 0-1.498.896-2.604 2.338-2.604.7 0 1.274.266 1.722.882l.7-.644c-.518-.672-1.246-1.176-2.478-1.176-2.016 0-3.374 1.54-3.374 3.542Zm7.842-4.508a.717.717 0 0 0 .714-.714c0-.392-.322-.7-.714-.7-.378 0-.7.308-.7.7 0 .392.322.714.7.714ZM151.505 37h1.05v-6.762h-1.05V37Zm6.435-7.784 2.366-2.016h-1.092l-2.072 2.016h.798Zm-3.682 4.396c0 2.114 1.442 3.556 3.444 3.556 1.106 0 2.016-.364 2.688-1.036l-.504-.686c-.532.546-1.316.854-2.086.854-1.456 0-2.352-1.064-2.436-2.338h5.474v-.266c0-2.03-1.204-3.626-3.248-3.626-1.932 0-3.332 1.582-3.332 3.542Zm3.318-2.674c1.54 0 2.212 1.246 2.226 2.254h-4.438c.056-1.036.77-2.254 2.212-2.254Zm6.67 6.23c.616 0 .994-.182 1.26-.434l-.308-.784c-.14.154-.42.28-.714.28-.462 0-.686-.364-.686-.868v-4.2h1.372v-.924h-1.372V28.39h-1.05v1.848h-1.12v.924h1.12v4.424c0 1.008.504 1.582 1.498 1.582Zm5.697-7.952 2.366-2.016h-1.092l-2.072 2.016h.798Zm-3.682 4.396c0 2.114 1.442 3.556 3.444 3.556 1.106 0 2.016-.364 2.688-1.036l-.504-.686c-.532.546-1.316.854-2.086.854-1.456 0-2.352-1.064-2.436-2.338h5.474v-.266c0-2.03-1.204-3.626-3.248-3.626-1.932 0-3.332 1.582-3.332 3.542Zm3.318-2.674c1.54 0 2.212 1.246 2.226 2.254h-4.438c.056-1.036.77-2.254 2.212-2.254Zm4.375 5.166c.686.728 1.624 1.064 2.73 1.064 1.75 0 2.66-.91 2.66-2.044 0-1.498-1.358-1.834-2.534-2.1-.882-.21-1.652-.42-1.652-1.078 0-.602.574-1.022 1.498-1.022.868 0 1.61.364 2.016.854l.49-.728c-.546-.546-1.358-.98-2.506-.98-1.61 0-2.52.896-2.52 1.946 0 1.4 1.302 1.708 2.45 1.974.91.224 1.736.462 1.736 1.204 0 .658-.56 1.12-1.596 1.12-.924 0-1.778-.448-2.226-.966l-.546.756Z"/>
  <path fill="#1ABD5E" fill-rule="evenodd" d="M4.794 18.92v2.56H2.397V9.95l8.39-5.883 8.388 5.884V21.48h-7.19v-2.526H9.588v5.086h11.984V8.57L10.786 1.003 0 8.57v15.47h7.19v-5.12c0-.706.537-1.28 1.2-1.28h4.793c1.986 0 3.595-1.718 3.595-3.84 0-2.12-1.61-3.84-3.595-3.84-1.986 0-3.595 1.72-3.595 3.84h2.397c0-.706.536-1.28 1.198-1.28.662 0 1.198.574 1.198 1.28 0 .708-.536 1.28-1.198 1.28H8.389c-1.985 0-3.595 1.72-3.595 3.84ZM48.837 3.703h-2.846v8.855h-8.789V3.703h-2.846V24.04h2.846v-8.737h8.789v8.737h2.846V3.703Zm2.395 13.4c0 4.369 3.096 7.232 6.771 7.232 3.676 0 6.799-2.863 6.799-7.232 0-4.368-3.123-7.143-6.799-7.143-3.675 0-6.77 2.775-6.77 7.143Zm10.861 0c0 2.687-1.879 4.487-4.09 4.487-2.21 0-4.062-1.8-4.062-4.486 0-2.657 1.851-4.428 4.062-4.428 2.211 0 4.09 1.771 4.09 4.428Zm25.476-.944c0-3.926-1.741-6.199-4.975-6.199-1.271 0-3.289.443-4.45 2.775-.746-1.77-2.348-2.775-4.2-2.775-1.769 0-3.455.945-4.035 2.48v-2.184h-2.708V24.04h2.708v-7.38c0-2.803 1.713-3.895 3.4-3.895 1.602 0 2.708 1.298 2.708 3.571v7.704h2.736v-7.851c.165-2.037 1.382-3.454 3.233-3.424 1.741 0 2.847 1.328 2.847 3.6v7.675h2.736v-7.881Zm15.474 2.066c.026-.41.05-.793.05-1.151 0-4.339-2.792-7.114-6.467-7.114-3.676 0-6.66 2.775-6.66 7.143 0 4.369 2.929 7.232 6.66 7.232 2.46 0 4.781-1.18 5.914-3.483l-2.156-1.151c-.718 1.27-2.128 1.948-3.62 1.948-2.1 0-3.648-1.092-4.007-3.335h10.28l.006-.089Zm-2.659-2.243h-7.6c.387-2.273 1.88-3.335 3.87-3.335 1.99 0 3.482 1.18 3.73 3.335Zm18.068-13.194h-2.708v9.504c-.857-1.564-2.653-2.332-4.477-2.332-3.483 0-6.384 2.775-6.384 7.173 0 4.369 2.901 7.202 6.411 7.202 1.741 0 3.593-.797 4.45-2.361v2.066h2.708V2.788Zm-2.736 14.316c0 2.774-1.935 4.486-4.118 4.486-2.211 0-4.007-1.918-4.007-4.486 0-2.598 1.796-4.398 4.007-4.398 1.99 0 4.118 1.623 4.118 4.398Zm18.212 1.121c.026-.41.05-.793.05-1.151 0-4.339-2.791-7.114-6.467-7.114-3.675 0-6.66 2.775-6.66 7.143 0 4.369 2.929 7.232 6.66 7.232 2.46 0 4.781-1.18 5.914-3.483l-2.155-1.151c-.719 1.27-2.128 1.948-3.621 1.948-2.1 0-3.648-1.092-4.007-3.335h10.281l.005-.089Zm-2.658-2.243h-7.6c.387-2.273 1.879-3.335 3.869-3.335 1.99 0 3.482 1.18 3.731 3.335Zm18.067-5.726h-2.708v2.036c-.857-1.564-2.653-2.332-4.477-2.332-3.482 0-6.384 2.775-6.384 7.173 0 4.369 2.902 7.202 6.412 7.202 1.741 0 3.592-.797 4.449-2.361v2.066h2.708V10.256Zm-2.736 6.848c0 2.774-1.934 4.486-4.117 4.486-2.211 0-4.008-1.918-4.008-4.486 0-2.598 1.797-4.398 4.008-4.398 1.989 0 4.117 1.623 4.117 4.398Zm5.533-14.316V24.04h2.709V2.788h-2.709Z" clip-rule="evenodd"/>
</svg>
