<?xml version="1.0" standalone="no"?>
<!DOCTYPE svg PUBLIC "-//W3C//DTD SVG 20010904//EN"
 "http://www.w3.org/TR/2001/REC-SVG-20010904/DTD/svg10.dtd">
<svg version="1.0" xmlns="http://www.w3.org/2000/svg"
 width="230.000000pt" height="219.000000pt" viewBox="0 0 230.000000 219.000000"
 preserveAspectRatio="xMidYMid meet">

<g transform="translate(0.000000,219.000000) scale(0.100000,-0.100000)"
fill="#000000" stroke="none">
<path d="M591 2163 c-20 -17 -21 -29 -23 -193 -3 -171 -4 -175 -25 -178 -18
-3 -24 6 -43 70 -27 91 -62 144 -123 185 -58 39 -121 53 -238 53 -82 0 -92 -2
-114 -25 -30 -29 -32 -64 -6 -96 17 -22 29 -25 128 -30 121 -6 164 -22 188
-69 8 -16 81 -278 161 -582 80 -304 157 -581 171 -615 29 -72 89 -146 142
-173 72 -36 140 -40 688 -40 l534 0 24 25 c30 29 32 64 6 96 l-19 24 -564 5
c-541 5 -564 6 -598 25 -35 20 -81 96 -96 158 l-6 27 625 0 c444 0 633 3 651
11 13 7 29 23 35 38 14 34 211 826 211 846 0 24 -46 65 -73 65 -19 0 -26 7
-31 30 -20 102 -127 228 -233 277 -51 24 -71 27 -168 28 -98 0 -116 -3 -165
-26 -30 -14 -75 -41 -100 -60 -37 -28 -51 -33 -75 -28 -96 21 -200 1 -284 -55
l-51 -35 0 110 c0 158 17 149 -274 149 -208 0 -236 -2 -255 -17z m427 -69 c21
-14 22 -22 22 -160 l0 -144 -195 0 -195 0 0 144 c0 186 -11 176 195 176 120 0
155 -3 173 -16z m894 -112 c25 -11 61 -36 81 -56 35 -35 77 -103 77 -126 0 -6
-64 -10 -185 -10 l-185 0 -20 40 c-11 22 -34 55 -51 74 l-30 35 46 27 c26 15
61 31 78 35 49 12 139 3 189 -19z m215 -349 c-3 -5 -39 -151 -82 -325 l-77
-318 -617 0 -618 0 -46 178 c-26 97 -65 243 -86 325 l-39 147 784 0 c432 0
783 -3 781 -7z"/>
<path d="M962 1508 c-8 -8 -12 -63 -12 -180 0 -155 1 -168 19 -178 27 -14 47
-13 65 6 13 13 16 44 16 179 0 152 -1 165 -19 175 -26 13 -54 13 -69 -2z"/>
<path d="M1277 1502 c-14 -16 -17 -43 -17 -175 l0 -157 26 -17 c24 -15 29 -15
53 -2 l26 15 3 158 c2 137 0 161 -14 177 -22 24 -56 24 -77 1z"/>
<path d="M1598 1509 c-16 -9 -18 -28 -18 -174 0 -135 3 -166 16 -179 18 -19
38 -20 65 -6 18 10 19 23 19 178 0 117 -4 172 -12 180 -15 15 -47 15 -70 1z"/>
<path d="M892 367 c-97 -37 -146 -149 -107 -244 33 -79 97 -117 186 -111 221
16 224 343 3 363 -27 3 -64 -1 -82 -8z"/>
<path d="M1712 367 c-69 -26 -122 -100 -122 -172 0 -111 88 -191 201 -183 221
16 224 343 3 363 -27 3 -64 -1 -82 -8z"/>
</g>
</svg>
