<svg width="50" height="50" viewBox="0 0 50 50" fill="none" xmlns="http://www.w3.org/2000/svg">
<g clip-path="url(#clip0_1357_5433)">
<path d="M25.0837 17.4434C25.7719 17.4434 26.3292 16.8857 26.3292 16.198C26.3292 15.5102 25.7719 14.9525 25.0837 14.9525C19.581 14.9525 15.1201 19.4134 15.1201 24.9164C15.1201 30.4191 19.581 34.88 25.0837 34.88C30.5868 34.88 35.0477 30.4191 35.0477 24.9164C35.0477 24.2283 34.49 23.6709 33.8022 23.6709C33.1144 23.6709 32.5567 24.2283 32.5567 24.9164C32.5567 29.0435 29.2112 32.3894 25.0837 32.3894C20.9566 32.3894 17.6107 29.0435 17.6107 24.9164C17.6107 20.7889 20.9566 17.4434 25.0837 17.4434Z" fill="white"/>
<path d="M48.8475 17.5186C48.6312 16.8652 47.9263 16.5108 47.2724 16.7271C46.6338 16.9384 46.2783 17.6182 46.4687 18.2633C50.1933 30.1243 43.5977 42.7589 31.7367 46.4836C19.8761 50.2082 7.24142 43.6126 3.51675 31.7516C-0.208295 19.8906 6.38769 7.25596 18.2483 3.5313C22.639 2.15267 27.3464 2.15267 31.7367 3.5313C32.3959 3.73004 33.0913 3.35696 33.29 2.69779C33.4857 2.04853 33.1268 1.36226 32.4817 1.15245C19.3115 -2.97962 5.28486 4.34726 1.15279 17.5179C-2.97929 30.6881 4.34797 44.7147 17.5182 48.8468C30.6888 52.9789 44.715 45.652 48.8471 32.4814C50.3753 27.6108 50.3753 22.3892 48.8475 17.5186Z" fill="white"/>
<path d="M27.4555 8.89779C27.462 8.18864 26.9173 7.59584 26.21 7.54282C25.8381 7.51115 25.4658 7.47949 25.0839 7.47949C15.4537 7.47949 7.64697 15.2863 7.64697 24.9165C7.64697 34.5463 15.4537 42.353 25.0839 42.353C34.7137 42.353 42.5205 34.5463 42.5205 24.9165C42.5205 24.4659 42.493 24.0158 42.4377 23.5687C42.3382 22.8851 41.7034 22.4117 41.0198 22.5113C40.3362 22.6105 39.8628 23.2456 39.962 23.9292C39.9658 23.9551 39.9704 23.9807 39.9757 24.0066C40.0028 24.3084 40.0295 24.6075 40.0295 24.9157C40.0299 33.1703 33.3385 39.8617 25.0843 39.8624C16.8297 39.8628 10.1383 33.1711 10.138 24.9168C10.1376 16.6626 16.8286 9.97087 25.0832 9.97049H25.0835C25.3925 9.97049 25.692 9.99719 25.993 10.0239L26.2264 10.0433C26.8772 10.0712 27.4273 9.56613 27.4548 8.91534C27.4551 8.90924 27.4551 8.90352 27.4555 8.89779Z" fill="white"/>
<path d="M32.5564 11.216V15.6822L24.203 24.0356C23.7082 24.5136 23.6945 25.3021 24.1725 25.7969C24.6504 26.2916 25.4389 26.3054 25.9337 25.8274C25.944 25.8175 25.9543 25.8072 25.9642 25.7969L34.3176 17.4434H38.7839C39.1142 17.4434 39.4309 17.3122 39.6647 17.0784L47.1373 9.6054C47.6237 9.11902 47.6237 8.33053 47.1373 7.84416C46.9038 7.6107 46.5872 7.47947 46.2569 7.47947H42.5204V3.74298C42.5204 3.05519 41.9627 2.49748 41.2745 2.49786C40.9445 2.49786 40.6279 2.62909 40.3944 2.86255L32.9215 10.3355C32.6876 10.569 32.5564 10.8856 32.5564 11.216ZM35.0474 11.7317L40.0294 6.74972V8.72497C40.0294 9.41276 40.5871 9.97046 41.2749 9.97046H43.2501L38.2681 14.9525H35.0474V11.7317Z" fill="white"/>
</g>
<defs>
<clipPath id="clip0_1357_5433">
<rect width="50" height="50" fill="white" transform="translate(0 -0.000366211)"/>
</clipPath>
</defs>
</svg>
