<svg width="50" height="50" viewBox="0 0 50 50" fill="none" xmlns="http://www.w3.org/2000/svg">
<g clip-path="url(#clip0_1359_2192)">
<path d="M33.2011 32.1247C33.0196 32.3063 32.915 32.5581 32.915 32.8152C32.915 33.0719 33.0196 33.3237 33.2011 33.5056C33.3827 33.6872 33.6345 33.7917 33.8916 33.7917C34.1483 33.7917 34.4001 33.6872 34.5821 33.5056C34.7636 33.3237 34.8682 33.0719 34.8682 32.8152C34.8682 32.5581 34.7636 32.3063 34.5821 32.1247C34.4001 31.9431 34.1483 31.8386 33.8916 31.8386C33.6345 31.8386 33.3827 31.9431 33.2011 32.1247Z" fill="#fff"/>
<path d="M49.8692 48.5348L39.5889 30.7289C39.4146 30.4268 39.0919 30.2406 38.7432 30.2406C38.3942 30.2406 38.0718 30.4268 37.8975 30.7289L27.8992 48.0465H8.59184L13.8588 38.924C18.1122 38.8878 22.1058 37.2154 25.1171 34.2037L27.15 32.1709C27.3331 31.9878 27.4361 31.7394 27.4361 31.4804C27.4361 31.2214 27.3331 30.9731 27.15 30.79L25.1171 28.7571C23.9872 27.6272 22.7184 26.6861 21.3501 25.9487L25.0183 19.5954L30.9505 29.7253C31.1321 30.0358 31.4587 30.2086 31.7944 30.2086C31.9618 30.2086 32.1316 30.1655 32.2868 30.0747C32.7522 29.802 32.9086 29.2038 32.6359 28.7384L25.9892 17.3885V14.344L37.6213 8.8051C37.9616 8.64336 38.1783 8.30003 38.1783 7.92352C38.1783 7.54663 37.9616 7.20369 37.6213 7.04156L25.9888 1.50301V0.976196C25.9888 0.436798 25.5516 -0.000366211 25.0122 -0.000366211C24.4732 -0.000366211 24.0356 0.436798 24.0356 0.976196V17.3908L19.5698 25.1263C17.7292 24.4103 15.7524 24.0357 13.718 24.0357C9.412 24.0357 5.36346 25.7122 2.31857 28.7571L0.286102 30.79C-0.0953674 31.1714 -0.0953674 31.7898 0.286102 32.1709L2.31857 34.2037C4.87709 36.7619 8.14362 38.3541 11.6764 38.7978L6.05469 48.5348C5.88036 48.8369 5.88036 49.2092 6.05469 49.5114C6.22902 49.8135 6.55174 49.9996 6.90041 49.9996H49.0234C49.3721 49.9996 49.6948 49.8135 49.8692 49.5114C50.0435 49.2092 50.0435 48.8369 49.8692 48.5348ZM34.93 7.92352L25.9888 12.1807V3.66632L34.93 7.92352ZM8.22601 31.4804C8.22601 28.4523 10.6899 25.9888 13.718 25.9888C16.7461 25.9888 19.2101 28.4523 19.2101 31.4804C19.2101 34.5085 16.7461 36.9724 13.718 36.9724C10.6899 36.9724 8.22601 34.5089 8.22601 31.4804ZM25.0786 31.4804L23.7362 32.8228C22.6162 33.9428 21.3413 34.8511 19.9604 35.5301C20.7199 34.3636 21.1632 32.9731 21.1632 31.4804C21.1632 29.9877 20.7199 28.5977 19.9604 27.4311C21.3413 28.1098 22.6162 29.0184 23.7362 30.1384L25.0786 31.4804ZM2.35748 31.4804L3.69987 30.138C4.81987 29.0184 6.09474 28.1098 7.47566 27.4307C6.71616 28.5973 6.27289 29.9877 6.27289 31.4804C6.27289 32.9731 6.71616 34.3636 7.47566 35.5297C6.09474 34.8511 4.81987 33.9424 3.69987 32.8228L2.35748 31.4804ZM43.1236 48.0465H30.1544L38.7432 33.1703L47.332 48.0465H43.1236Z" fill="#fff"/>
<path d="M13.7183 28.5507C12.1027 28.5507 10.7886 29.8649 10.7886 31.4804C10.7886 33.0959 12.1027 34.4101 13.7183 34.4101C15.3338 34.4101 16.6479 33.0959 16.6479 31.4804C16.6479 29.8649 15.3338 28.5507 13.7183 28.5507ZM13.7183 32.457C13.1796 32.457 12.7417 32.019 12.7417 31.4804C12.7417 30.9422 13.1796 30.5038 13.7183 30.5038C14.2569 30.5038 14.6948 30.9422 14.6948 31.4804C14.6948 32.019 14.2569 32.457 13.7183 32.457Z" fill="#fff"/>
<path d="M13.7168 21.6393C14.2562 21.6393 14.6934 21.2021 14.6934 20.6627V17.6529C14.6934 17.1135 14.2562 16.6763 13.7168 16.6763C13.1778 16.6763 12.7402 17.1135 12.7402 17.6529V20.6627C12.7402 21.2021 13.1778 21.6393 13.7168 21.6393Z" fill="#fff"/>
<path d="M17.4492 23.1667C17.6991 23.1667 17.9489 23.0713 18.1397 22.881L20.2587 20.7615C20.6402 20.3804 20.6402 19.7621 20.2587 19.3806C19.8773 18.9991 19.2593 18.9991 18.8778 19.3806L16.7588 21.4996C16.3773 21.8811 16.3773 22.4995 16.7588 22.881C16.9495 23.0717 17.1994 23.1667 17.4492 23.1667Z" fill="#fff"/>
<path d="M9.29409 22.8809C9.48482 23.0717 9.73507 23.1667 9.98493 23.1667C10.2348 23.1667 10.4847 23.0717 10.6754 22.8809C11.0569 22.4995 11.0569 21.8811 10.6754 21.4996L8.55823 19.3825C8.17676 19.001 7.55878 19.001 7.17693 19.3825C6.79584 19.7639 6.79584 20.3823 7.17693 20.7638L9.29409 22.8809Z" fill="#fff"/>
</g>
<defs>
<clipPath id="clip0_1359_2192">
<rect width="50" height="50" fill="white" transform="translate(0 -0.000366211)"/>
</clipPath>
</defs>
</svg>
