<svg width="25" height="25" viewBox="0 0 25 25" fill="none" xmlns="http://www.w3.org/2000/svg">
<g clip-path="url(#clip0_2_4402)">
<path d="M16.9535 14.7076L13.4678 12.0934V6.76807C13.4678 6.23262 13.035 5.7998 12.4995 5.7998C11.9641 5.7998 11.5312 6.23262 11.5312 6.76807V12.5775C11.5312 12.8825 11.6746 13.1701 11.9186 13.3521L15.7915 16.2569C15.9658 16.3876 16.1691 16.4505 16.3715 16.4505C16.6668 16.4505 16.9573 16.3179 17.1471 16.0623C17.4686 15.6352 17.3814 15.0281 16.9535 14.7076Z" fill="#F68B21"/>
<path d="M12.5 0C5.60708 0 0 5.60708 0 12.5C0 19.3929 5.60708 25 12.5 25C19.3929 25 25 19.3929 25 12.5C25 5.60708 19.3929 0 12.5 0ZM12.5 23.0635C6.67603 23.0635 1.93647 18.324 1.93647 12.5C1.93647 6.67603 6.67603 1.93647 12.5 1.93647C18.325 1.93647 23.0635 6.67603 23.0635 12.5C23.0635 18.324 18.324 23.0635 12.5 23.0635Z" fill="#F68B21"/>
</g>
<defs>
<clipPath id="clip0_2_4402">
<rect width="25" height="25" fill="white"/>
</clipPath>
</defs>
</svg>
