<svg width="50" height="50" viewBox="0 0 50 50" fill="none" xmlns="http://www.w3.org/2000/svg">
<g clip-path="url(#clip0_2_6619)">
<path d="M49.5002 5.10752L37.8336 0.0683573C37.6231 -0.0232741 37.384 -0.0232741 37.1736 0.0683573L25.5069 5.10752C25.2028 5.24024 25.0064 5.54072 25.0069 5.87252V11.6667H15.0002C14.0798 11.6667 13.3336 12.4129 13.3336 13.3334V21.6667H7.31773C6.0979 21.6665 4.97537 22.3326 4.39107 23.4034L0.406898 30.7084C0.140569 31.1981 0.000783214 31.7467 0.000231648 32.3042V37.5C0.00240137 38.117 0.234105 38.7111 0.650232 39.1667C-0.015626 39.8966 -0.186727 40.9513 0.214211 41.8543C0.61515 42.7573 1.51222 43.3377 2.50023 43.3334H5.28857C4.55245 45.406 5.25722 47.7163 7.02488 49.0251C8.79254 50.3339 11.2079 50.3339 12.9756 49.0251C14.7432 47.7163 15.448 45.406 14.7119 43.3334H30.2886C29.5525 45.406 30.2572 47.7163 32.0249 49.0251C33.7925 50.3339 36.2079 50.3339 37.9756 49.0251C39.7432 47.7163 40.448 45.406 39.7119 43.3334H42.5002C43.8809 43.3334 45.0002 42.2141 45.0002 40.8334C44.9988 40.4616 44.9133 40.095 44.7502 39.7609C44.9105 39.6047 45.0006 39.3904 45.0002 39.1667V25.8334L46.4261 24.8175C48.6606 23.2317 49.9918 20.6643 50.0002 17.9242V5.87252C50.0007 5.54072 49.8043 5.24024 49.5002 5.10752ZM13.3336 38.3334H2.50023C2.03999 38.3334 1.6669 37.9603 1.6669 37.5V36.6667H3.33357C4.25404 36.6667 5.00023 35.9205 5.00023 35V33.3334H7.50023C8.88094 33.3334 10.0002 32.2141 10.0002 30.8334V23.3334H13.3336V38.3334ZM3.33357 33.3334V35H1.6669V33.3334H3.33357ZM5.8544 24.2017C6.14655 23.6663 6.70781 23.3332 7.31773 23.3334H8.33356V30.8334C8.33356 31.2936 7.96047 31.6667 7.50023 31.6667H1.80773C1.82545 31.6122 1.84632 31.5588 1.87023 31.5067L5.8544 24.2017ZM13.3336 45C13.3336 46.841 11.8412 48.3334 10.0002 48.3334C8.15928 48.3334 6.6669 46.841 6.6669 45C6.66668 44.414 6.8232 43.8385 7.12023 43.3334H12.8802C13.1773 43.8385 13.3338 44.414 13.3336 45ZM38.3336 45C38.3336 46.841 36.8412 48.3334 35.0002 48.3334C33.1593 48.3334 31.6669 46.841 31.6669 45C31.6667 44.414 31.8232 43.8385 32.1202 43.3334H37.8802C38.1773 43.8385 38.3338 44.414 38.3336 45ZM42.5002 41.6667H2.50023C2.03999 41.6667 1.6669 41.2936 1.6669 40.8334C1.6669 40.3731 2.03999 40 2.50023 40H42.5002C42.9605 40 43.3336 40.3731 43.3336 40.8334C43.3336 41.2936 42.9605 41.6667 42.5002 41.6667ZM43.3336 35.3184L41.6669 34.485V32.1817L43.3336 31.3484V35.3184ZM43.3336 29.485L40.4611 30.9167C40.1772 31.0585 39.9985 31.3493 40.0002 31.6667V35C39.9985 35.3174 40.1772 35.6082 40.4611 35.75L43.3336 37.1817V38.3334H15.0002V13.3334H25.0002V17.9242C25.0087 20.6643 26.3398 23.2317 28.5744 24.8175L36.6377 30.5584C37.1543 30.925 37.8462 30.925 38.3627 30.5584L43.3336 27.0192V29.485ZM48.3336 17.9242C48.3255 20.1253 47.255 22.187 45.4594 23.46L37.5002 29.1259L29.5411 23.4592C27.7457 22.1863 26.6753 20.125 26.6669 17.9242V6.42086L37.5002 1.74086L48.3336 6.42086V17.9242Z" fill="white"/>
<path d="M37.1673 3.69921L28.834 7.29921C28.5299 7.43193 28.3335 7.73241 28.334 8.06421V17.9242C28.3418 19.5858 29.1512 21.1415 30.5073 22.1017L37.0173 26.7359C37.3066 26.9419 37.6947 26.9419 37.984 26.7359L44.494 22.1025C45.8501 21.1419 46.6593 19.586 46.6673 17.9242V8.06421C46.6678 7.73241 46.4714 7.43193 46.1673 7.29921L37.834 3.69921C37.6214 3.60645 37.3799 3.60645 37.1673 3.69921ZM45.0007 8.61588V17.9242C44.9932 19.0473 44.4443 20.0977 43.5265 20.745L37.5007 25.035L31.4748 20.745C30.5569 20.0978 30.0079 19.0473 30.0007 17.9242V8.61171L37.5007 5.37171L45.0007 8.61588Z" fill="white"/>
<path d="M33.0003 16.0001C32.7622 15.8214 32.4468 15.7834 32.173 15.9004C31.8992 16.0173 31.7086 16.2715 31.673 16.5671C31.6374 16.8626 31.7622 17.1548 32.0003 17.3334L35.3337 19.8334C35.6937 20.1036 36.2032 20.039 36.4845 19.6876L43.1512 11.3542C43.4351 10.9946 43.3754 10.4732 43.0175 10.187C42.6597 9.90087 42.1379 9.95733 41.8495 10.3134L35.6878 18.0159L33.0003 16.0001Z" fill="white"/>
<path d="M10.0003 45.8334C10.4606 45.8334 10.8337 45.4603 10.8337 45.0001C10.8337 44.5398 10.4606 44.1667 10.0003 44.1667C9.54009 44.1667 9.16699 44.5398 9.16699 45.0001C9.16699 45.4603 9.54009 45.8334 10.0003 45.8334Z" fill="white"/>
<path d="M35.0003 45.8334C35.4606 45.8334 35.8337 45.4603 35.8337 45.0001C35.8337 44.5398 35.4606 44.1667 35.0003 44.1667C34.5401 44.1667 34.167 44.5398 34.167 45.0001C34.167 45.4603 34.5401 45.8334 35.0003 45.8334Z" fill="white"/>
</g>
<defs>
<clipPath id="clip0_2_6619">
<rect width="50" height="50" fill="white"/>
</clipPath>
</defs>
</svg>
