<svg width="50" height="50" viewBox="0 0 50 50" fill="none" xmlns="http://www.w3.org/2000/svg">
<path d="M26.0321 28.325C24.1641 28.3164 22.3083 28.0237 20.5283 27.4571C17.6843 26.5056 15.5719 24.0979 14.9985 21.1543C14.3711 18.1322 15.5145 14.9368 18.1349 12.3876C18.4161 12.1138 18.7082 11.8515 19.0114 11.6007C21.6944 9.35448 25.3116 8.57387 28.6822 9.5137C31.9454 10.5552 34.2001 13.5373 34.3129 16.9608C34.4351 18.9314 33.7928 20.8733 32.5196 22.3824C31.5377 23.6193 29.9468 24.2035 28.3977 23.896C27.7642 23.7646 27.2115 23.3809 26.8668 22.8334C26.5575 22.3015 26.4782 21.6666 26.6471 21.075C27.3759 18.3204 28.1168 14.1341 28.1241 14.0917C28.1759 13.7984 28.3802 13.5551 28.66 13.4533C28.9399 13.3515 29.2528 13.4067 29.4809 13.5981C29.7089 13.7896 29.8176 14.0882 29.7658 14.3814C29.7349 14.5556 29.0053 18.6791 28.2586 21.501C28.2053 21.6574 28.2187 21.8288 28.2956 21.975C28.4109 22.1345 28.5847 22.2416 28.779 22.2729C29.7272 22.4311 30.6851 22.0507 31.2664 21.285C32.2551 20.1022 32.7504 18.5841 32.6497 17.0459C32.5682 14.3209 30.7813 11.9418 28.1869 11.1042C25.355 10.3253 22.3211 10.9907 20.0751 12.8834C19.8074 13.1056 19.547 13.3383 19.2971 13.5816C18.0016 14.8418 15.9329 17.4566 16.63 20.8149C17.0983 23.1612 18.774 25.084 21.0342 25.8687C24.9426 27.1154 30.5586 27.2655 33.5176 23.5864C33.8083 23.2362 34.3261 23.1841 34.6808 23.4692C35.0355 23.7543 35.0958 24.2713 34.8164 24.6304C32.6283 27.3515 29.2986 28.325 26.0321 28.325Z" fill="#F68B21"/>
<path d="M23.1795 24.0045C22.2986 24.0196 21.4394 23.7308 20.7466 23.1866C19.1471 21.9065 19.1031 19.6827 19.5515 18.1683C19.7026 17.664 19.9053 17.1766 20.1566 16.714C20.7819 15.4524 21.7817 14.4149 23.0192 13.7432C24.5603 12.9436 26.4433 13.2468 27.6554 14.4899C28.2567 15.1489 28.7097 15.9293 28.9837 16.7783C29.1288 17.2092 28.9018 17.6768 28.4736 17.8294C28.0453 17.9819 27.5738 17.763 27.4139 17.3374C27.2163 16.7102 26.8879 16.132 26.4504 15.641C25.7437 14.9183 24.6425 14.7539 23.7555 15.2386C22.8275 15.762 22.0816 16.5566 21.618 17.516C21.4232 17.8754 21.2659 18.254 21.1485 18.6456C20.8246 19.741 20.8958 21.1706 21.7894 21.8862C22.7663 22.6707 24.4144 22.339 25.3416 21.5391C26.0327 20.917 26.6264 20.1947 27.1031 19.3963C27.2574 19.1377 27.5393 18.9825 27.8404 18.9903C28.1415 18.9982 28.4149 19.1679 28.5555 19.4342C28.6962 19.7006 28.6822 20.0221 28.5189 20.2752C27.9543 21.2159 27.2515 22.0663 26.4339 22.7979C25.5227 23.5668 24.3717 23.9935 23.1795 24.0045Z" fill="#F68B21"/>
<path d="M47.5 50.0002H2.5C1.11992 49.9987 0.00151559 48.8803 0 47.5002V16.6669C1.31e-05 16.3437 0.186847 16.0497 0.479403 15.9125C0.771958 15.7752 1.11749 15.8195 1.366 16.026L21.8136 33.0198C23.6637 34.5478 26.3381 34.5473 28.1877 33.0186L48.6333 16.026C48.8818 15.8191 49.2276 15.7745 49.5205 15.9118C49.8133 16.0491 50.0002 16.3435 50 16.6669V47.5002C49.9985 48.8803 48.8801 49.9987 47.5 50.0002ZM1.66667 18.443V47.5002C1.66726 47.9602 2.04001 48.3329 2.5 48.3335H47.5C47.9601 48.3331 48.3329 47.9603 48.3333 47.5002V18.443L29.2517 34.3013C26.7846 36.3402 23.2173 36.3408 20.7495 34.3025L1.66667 18.443Z" fill="#F68B21"/>
<path d="M0.834149 17.5001C0.471174 17.5005 0.149737 17.2658 0.039454 16.92C-0.0708286 16.5742 0.055414 16.1968 0.351566 15.9869L7.85157 10.6702C8.22706 10.41 8.74209 10.5006 9.00622 10.8734C9.27034 11.2461 9.18508 11.7621 8.81507 12.0301L1.31507 17.3467C1.17463 17.4467 1.00651 17.5003 0.834149 17.5001Z" fill="#F68B21"/>
<path d="M49.1654 17.5001C48.993 17.5003 48.8249 17.4467 48.6844 17.3467L41.1844 12.0301C40.8144 11.7621 40.7292 11.2461 40.9933 10.8734C41.2574 10.5006 41.7724 10.41 42.1479 10.6702L49.6479 15.9869C49.9441 16.1968 50.0703 16.5742 49.96 16.92C49.8498 17.2658 49.5283 17.5005 49.1654 17.5001Z" fill="#F68B21"/>
<path d="M32.6994 5.83344C32.5269 5.83353 32.3587 5.77991 32.218 5.68002L28.2347 2.85502C26.3856 1.29251 23.6836 1.27623 21.8158 2.81636L17.7825 5.68011C17.5396 5.85237 17.2232 5.88195 16.9526 5.75772C16.682 5.63348 16.4982 5.3743 16.4704 5.0778C16.4427 4.7813 16.5753 4.49253 16.8182 4.32027L20.8015 1.49527C23.2628 -0.517256 26.8058 -0.501248 29.2488 1.53344L33.1822 4.31994C33.4786 4.52976 33.605 4.90736 33.4946 5.25334C33.3843 5.59932 33.0626 5.834 32.6994 5.83344Z" fill="#F68B21"/>
<path d="M1.37512 49.5501C1.02393 49.5505 0.710233 49.3306 0.590761 49.0003C0.471289 48.6701 0.571682 48.3004 0.841785 48.0759L19.8585 32.2759C20.087 32.0816 20.4023 32.0251 20.684 32.1279C20.9658 32.2308 21.1706 32.4771 21.2201 32.773C21.2697 33.0688 21.1565 33.3684 20.9237 33.5576L1.90704 49.3576C1.75773 49.482 1.5695 49.5502 1.37512 49.5501Z" fill="#F68B21"/>
<path d="M48.6236 49.5501C48.4294 49.5502 48.2413 49.482 48.0922 49.3576L29.0755 33.5576C28.8427 33.3684 28.7295 33.0688 28.7791 32.773C28.8287 32.4771 29.0334 32.2308 29.3152 32.1279C29.5969 32.0251 29.9122 32.0816 30.1408 32.2759L49.1569 48.0759C49.427 48.3004 49.5274 48.6701 49.4079 49.0003C49.2885 49.3305 48.9748 49.5504 48.6236 49.5501Z" fill="#F68B21"/>
<path d="M41.6667 23.7335C41.2064 23.7335 40.8333 23.3604 40.8333 22.9001V5.83998C40.8309 5.85748 40.7975 5.83389 40.7417 5.83348H9.25833C9.2215 5.83121 9.18535 5.84417 9.15833 5.86931L9.16667 22.9001C9.16667 23.3604 8.79357 23.7335 8.33333 23.7335C7.8731 23.7335 7.5 23.3604 7.5 22.9001V5.83348C7.52688 4.88839 8.31316 4.1431 9.25833 4.16681H40.7417C41.6868 4.1432 42.473 4.88843 42.5 5.83348V22.9001C42.5 23.3604 42.1269 23.7335 41.6667 23.7335Z" fill="#F68B21"/>
</svg>
