<svg width="50" height="50" viewBox="0 0 50 50" fill="none" xmlns="http://www.w3.org/2000/svg">
<path d="M49.7513 30.4288C49.448 29.6964 48.7397 29.2231 47.9469 29.2231L41.987 29.2241C41.987 29.224 41.9869 29.2237 41.9869 29.2231V2.44141C41.9869 1.14908 40.9355 0.0976562 39.6432 0.0976562H22.6032C21.3109 0.0976562 20.2595 1.14908 20.2595 2.44141V9.06637C19.0681 8.7893 17.8272 8.64258 16.5527 8.64258C7.53322 8.64258 0.195312 15.9805 0.195312 25C0.195312 34.0195 7.53322 41.3574 16.5527 41.3574C18.123 41.3574 19.6421 41.1344 21.0806 40.7194L29.7421 49.381C30.111 49.7499 30.6015 49.953 31.1232 49.953C31.645 49.953 32.1354 49.7499 32.5043 49.381L49.3279 32.5573C49.8885 31.9967 50.0547 31.1612 49.7513 30.4288ZM1.75781 25C1.75781 16.8421 8.39477 10.2051 16.5527 10.2051C24.7107 10.2051 31.3477 16.8421 31.3477 25C31.3477 33.1579 24.7107 39.7949 16.5527 39.7949C8.39477 39.7949 1.75781 33.1579 1.75781 25ZM48.2231 31.4524L31.3994 48.2761C31.2999 48.3756 31.1837 48.3905 31.1232 48.3905C31.0628 48.3905 30.9465 48.3756 30.847 48.276L22.7201 40.1492C28.6913 37.7093 32.9102 31.8385 32.9102 25C32.9102 17.8233 28.2642 11.7115 21.822 9.51352V2.44141C21.822 2.01063 22.1725 1.66016 22.6032 1.66016H39.6432C40.074 1.66016 40.4244 2.01063 40.4244 2.44141V29.2231C40.4244 30.0846 41.1254 30.7856 41.9869 30.7856H47.9469C48.1824 30.7856 48.2778 30.9542 48.3078 31.0267C48.3378 31.0992 48.3897 31.2859 48.2231 31.4524Z" fill="white"/>
<path d="M15.8524 20.1897H17.2531C18.1652 20.1897 18.9073 20.9317 18.9073 21.8439C18.9073 22.2754 19.2571 22.6252 19.6885 22.6252C20.12 22.6252 20.4698 22.2754 20.4698 21.8439C20.4698 20.0973 19.0703 18.6724 17.334 18.6292V17.8809C17.334 17.4495 16.9843 17.0997 16.5528 17.0997C16.1213 17.0997 15.7715 17.4495 15.7715 17.8809V18.6292C14.0352 18.6724 12.6357 20.0973 12.6357 21.8439V22.5645C12.6357 24.3382 14.0787 25.7813 15.8524 25.7813H17.2531C18.1652 25.7813 18.9073 26.5233 18.9073 27.4355V28.1561C18.9073 29.0683 18.1652 29.8103 17.2531 29.8103H15.8524C14.9403 29.8103 14.1982 29.0683 14.1982 28.1561V28.0888C14.1982 27.6573 13.8485 27.3075 13.417 27.3075C12.9855 27.3075 12.6357 27.6573 12.6357 28.0888V28.1561C12.6357 29.9027 14.0352 31.3276 15.7715 31.3708V32.1191C15.7715 32.5505 16.1213 32.9003 16.5528 32.9003C16.9843 32.9003 17.334 32.5505 17.334 32.1191V31.3708C19.0703 31.3276 20.4698 29.9027 20.4698 28.1561V27.4355C20.4698 25.6618 19.0268 24.2188 17.2531 24.2188H15.8524C14.9403 24.2188 14.1982 23.4767 14.1982 22.5645V21.8439C14.1982 20.9317 14.9403 20.1897 15.8524 20.1897Z" fill="white"/>
<path d="M16.5525 12.7551C9.80064 12.7551 4.30762 18.2482 4.30762 25C4.30762 31.7518 9.80064 37.2449 16.5525 37.2449C23.3044 37.2449 28.7974 31.7518 28.7974 25C28.7974 18.2482 23.3044 12.7551 16.5525 12.7551ZM16.5525 35.6824C10.6622 35.6824 5.87012 30.8903 5.87012 25C5.87012 19.1097 10.6622 14.3176 16.5525 14.3176C22.4428 14.3176 27.2349 19.1097 27.2349 25C27.2349 30.8903 22.4428 35.6824 16.5525 35.6824Z" fill="white"/>
</svg>
