<svg width="50" height="50" viewBox="0 0 50 50" fill="none" xmlns="http://www.w3.org/2000/svg">
<g clip-path="url(#clip0_2_18796)">
<path d="M40.5771 43.5484L38.7102 37.9468C38.0578 35.9911 36.3933 34.5476 34.3642 34.1782L28.9747 33.1976V32.7798C29.9126 32.2355 30.7288 31.5073 31.3788 30.6452H33.007C34.3409 30.6452 35.4263 29.5597 35.4263 28.2258V18.5484C35.4263 12.7677 30.7231 8.06451 24.9425 8.06451C19.1618 8.06451 14.4586 12.7677 14.4586 18.5484V24.1935C14.4586 25.7484 15.5642 27.0492 17.0304 27.3524C17.4828 29.6702 18.9312 31.6314 20.9102 32.7798V33.1976L15.5199 34.1782C13.4917 34.5476 11.8263 35.9911 11.1747 37.9468L10.8521 38.9153L8.10537 36.1685C7.79085 35.854 7.79085 35.3419 8.10537 35.0274L11.2909 31.8427L5.31182 25.8637L1.71182 29.4637C0.64569 30.5298 0.0585938 31.9476 0.0585938 33.4556C0.0585938 34.9637 0.64569 36.3806 1.71182 37.4468L12.611 48.346C13.6771 49.4121 15.0949 50 16.6029 50C18.111 50 19.5279 49.4121 20.5691 48.3702L24.4973 44.771L23.2723 43.5484H40.5771ZM33.8134 28.2258C33.8134 28.671 33.4513 29.0323 33.007 29.0323H32.3288C32.5626 28.4992 32.74 27.9371 32.8546 27.3524C33.1997 27.2806 33.5175 27.1435 33.8134 26.971V28.2258ZM33.007 25.5823V22.8048C33.4868 23.0847 33.8134 23.5992 33.8134 24.1935C33.8134 24.7879 33.4868 25.3024 33.007 25.5823ZM16.8779 25.5823C16.3981 25.3024 16.0715 24.7879 16.0715 24.1935C16.0715 23.5992 16.3981 23.0847 16.8779 22.8048V25.5823ZM16.8779 20.1613V21.0823C16.5909 21.1573 16.3215 21.2702 16.0715 21.4161V18.5484C16.0715 13.6573 20.0513 9.67742 24.9425 9.67742C29.8336 9.67742 33.8134 13.6573 33.8134 18.5484V21.4161C33.5634 21.2702 33.2941 21.1564 33.007 21.0823V20.1613H32.2005C29.8159 20.1613 27.5739 19.2323 25.8868 17.546L24.9425 16.6016L23.9981 17.546C22.311 19.2323 20.0691 20.1613 17.6844 20.1613H16.8779ZM18.4909 25.8064V21.7435C20.9126 21.5613 23.1707 20.5621 24.9425 18.8774C26.7142 20.5621 28.9723 21.5621 31.3941 21.7435V25.8064C31.3941 26.9823 31.0731 28.0823 30.5215 29.0323H24.9425V30.6452H29.1957C28.0586 31.646 26.5723 32.2581 24.9425 32.2581C21.3852 32.2581 18.4909 29.3637 18.4909 25.8064ZM27.3618 33.4992V33.5371L24.9425 35.9564L22.5231 33.5371V33.4992C23.2876 33.7395 24.0997 33.871 24.9425 33.871C25.7852 33.871 26.5973 33.7395 27.3618 33.4992ZM12.7038 38.4564C13.1691 37.0597 14.3586 36.0282 15.8078 35.7637L21.4449 34.7395L24.9425 38.2371L28.4392 34.7403L34.0755 35.7645C35.5247 36.029 36.7142 37.0597 37.1796 38.4573L38.34 41.9355H21.6594L18.5183 38.7943L15.0279 41.9516C14.7239 42.2573 14.1925 42.2573 13.8876 41.9516L12.1263 40.1903L12.7038 38.4564ZM5.31101 28.1444L9.0094 31.8427L8.13359 32.7185L4.43521 29.0202L5.31101 28.1444ZM19.4521 47.2073C18.6909 47.9669 17.6779 48.3871 16.6013 48.3871C15.5247 48.3871 14.5118 47.9669 13.7497 47.2056L2.85053 36.3073C2.08924 35.546 1.66988 34.5331 1.66988 33.4564C1.66988 32.379 2.08924 31.3661 2.85053 30.6048L3.29408 30.1613L6.99246 33.8597L6.96343 33.8887C6.02069 34.8323 6.02069 36.3669 6.96343 37.3105L12.7465 43.0935C13.2038 43.55 13.811 43.8024 14.4578 43.8024C15.1046 43.8024 15.7118 43.5508 16.1392 43.1218L16.1997 43.0677L19.915 46.7831L19.4521 47.2073ZM21.1054 45.6911L17.3981 41.9839L18.4634 41.021L22.1642 44.7218L21.1054 45.6911Z" fill="white"/>
<path d="M47.5232 0H36.2328C34.899 0 33.8135 1.08548 33.8135 2.41935V8.87097C33.8135 10.2048 34.899 11.2903 36.2328 11.2903H38.3869L37.553 16.154L45.3352 11.2903H47.5232C48.857 11.2903 49.9425 10.2048 49.9425 8.87097V2.41935C49.9425 1.08548 48.857 0 47.5232 0ZM48.3296 8.87097C48.3296 9.31532 47.9675 9.67742 47.5232 9.67742H44.8723L39.7506 12.8782L40.2998 9.67742H36.2328C35.7885 9.67742 35.4264 9.31532 35.4264 8.87097V2.41935C35.4264 1.975 35.7885 1.6129 36.2328 1.6129H47.5232C47.9675 1.6129 48.3296 1.975 48.3296 2.41935V8.87097Z" fill="white"/>
<path d="M46.7165 3.22583H37.0391V4.83873H46.7165V3.22583Z" fill="white"/>
<path d="M43.4907 6.4516H37.0391V8.0645H43.4907V6.4516Z" fill="white"/>
<path d="M46.7164 6.4516H45.1035V8.0645H46.7164V6.4516Z" fill="white"/>
<path d="M24.9423 2.41937C14.4052 2.41937 5.32859 9.70808 2.96891 19.875L1.44068 17.3274L0.0576172 18.1573L2.89229 22.8807L7.61568 20.046L6.78584 18.6629L4.60036 19.9742C6.88584 10.6734 15.2496 4.03228 24.9423 4.03228C27.0608 4.03228 29.1512 4.34679 31.1552 4.96776L31.6326 3.42744C29.4737 2.75808 27.2229 2.41937 24.9423 2.41937Z" fill="white"/>
<path d="M49.5503 17.8565L44.8269 15.0218L41.9931 19.746L43.3761 20.5758L44.7874 18.2234C45.5302 20.3968 45.91 22.6702 45.91 25C45.91 29.796 44.2487 34.4847 41.2334 38.2016L42.4858 39.2178C45.7342 35.2145 47.5229 30.1645 47.5229 25C47.5229 22.5331 47.1253 20.1242 46.3503 17.8178L48.7205 19.2395L49.5503 17.8565Z" fill="white"/>
</g>
<defs>
<clipPath id="clip0_2_18796">
<rect width="50" height="50" fill="white"/>
</clipPath>
</defs>
</svg>
