<svg width="70" height="70" viewBox="0 0 70 70" fill="none" xmlns="http://www.w3.org/2000/svg">
<path fill-rule="evenodd" clip-rule="evenodd" d="M55.4387 17.1779C58.4669 20.5253 60.5837 24.5321 61.6827 28.8035C62.8573 33.3689 62.8671 38.2381 61.5833 42.9253C61.4419 43.4447 60.9057 43.7527 60.3849 43.6099L60.3541 43.6015V43.6029L57.1369 42.6117C56.6329 42.4563 56.3445 41.9313 56.4803 41.4259H56.4789C57.4911 37.6613 57.4729 33.7595 56.5265 30.1013C55.6599 26.7511 54.0149 23.6011 51.6713 20.9481L50.4715 22.1479C50.0893 22.5301 49.4677 22.5301 49.0855 22.1479C48.9469 22.0093 48.8587 21.8385 48.8209 21.6607L46.5109 13.0367C46.3709 12.5145 46.6817 11.9783 47.2039 11.8383C47.3803 11.7907 47.5581 11.7949 47.7205 11.8411L56.3795 14.1609C56.9017 14.3009 57.2125 14.8371 57.0725 15.3593C57.0263 15.5315 56.9367 15.6813 56.8191 15.7989L56.8205 15.8003L55.4387 17.1779ZM59.7913 29.2851C58.7035 25.0599 56.5419 21.1105 53.4227 17.8835C53.4101 17.8723 53.3961 17.8597 53.3835 17.8471C53.0013 17.4649 53.0013 16.8433 53.3835 16.4611L54.2333 15.6113L48.8391 14.1665L50.2839 19.5607L51.0035 18.8411L51.0049 18.8425L51.0189 18.8299C51.4081 18.4561 52.0269 18.4673 52.4007 18.8565C55.3421 21.8987 57.3847 25.6227 58.4165 29.6099C59.3713 33.2989 59.4595 37.2119 58.5957 41.0171L59.9467 41.4329C60.8861 37.3799 60.8021 33.2121 59.7913 29.2851ZM14.5797 54.1197C11.3205 50.5217 9.13227 46.2055 8.10887 41.6373C7.01547 36.7583 7.25627 31.5895 8.94327 26.7021C9.11547 26.2023 9.65167 25.9335 10.1529 26.0875V26.0861L13.3743 27.0787C13.8895 27.2369 14.1793 27.7843 14.0211 28.2995C14.0155 28.3163 14.0099 28.3317 14.0043 28.3485C12.6407 32.2657 12.4237 36.4517 13.2987 40.4263C14.0939 44.0327 15.7893 47.4613 18.3457 50.3537L19.5455 49.1539C19.9277 48.7717 20.5493 48.7717 20.9315 49.1539C21.0701 49.2925 21.1583 49.4633 21.1961 49.6411L23.5061 58.2651C23.6461 58.7873 23.3353 59.3235 22.8131 59.4635C22.6367 59.5111 22.4589 59.5069 22.2965 59.4607L13.6375 57.1409C13.1153 57.0009 12.8045 56.4647 12.9445 55.9425C12.9907 55.7703 13.0803 55.6205 13.1979 55.5029L13.1965 55.5015L14.5797 54.1197ZM10.0157 41.2173C11.0237 45.7155 13.2525 49.9533 16.5971 53.4155C16.6097 53.4267 16.6237 53.4393 16.6363 53.4519C17.0185 53.8341 17.0185 54.4557 16.6363 54.8379L15.7865 55.6877L21.1807 57.1325L19.7359 51.7383L19.0163 52.4579L19.0149 52.4565L19.0009 52.4691C18.6117 52.8429 17.9929 52.8317 17.6191 52.4425C14.4215 49.1357 12.3257 45.1037 11.3877 40.8477C10.5071 36.8493 10.6471 32.6465 11.8539 28.6551L10.4987 28.2379C9.19807 32.5079 9.06647 36.9781 10.0157 41.2173ZM21.4369 12.8491V18.2293C21.8709 17.9535 22.4491 18.0599 22.7543 18.4827C22.7697 18.5037 22.7837 18.5261 22.7977 18.5485L22.8831 18.6871L22.8495 14.0139C22.8495 13.6751 23.0245 13.3447 23.3395 13.1641L32.0405 8.14233C32.0671 8.12553 32.0937 8.11013 32.1203 8.09613L35.7673 5.99053L35.5923 5.88973C35.5755 5.87993 35.5587 5.86873 35.5419 5.85893L34.5437 5.28213L29.8929 7.96733C29.8845 7.97293 29.8761 7.97713 29.8677 7.98273L26.8115 9.74673C26.8031 9.75233 26.7933 9.75653 26.7849 9.76213L21.4369 12.8491ZM24.8599 22.1297C24.8613 22.1787 24.8585 22.2263 24.8529 22.2753L24.8515 22.2837L24.8501 22.2977L24.8487 22.3103L24.8473 22.3173L24.8445 22.3369C24.8319 22.4069 24.8109 22.4741 24.7843 22.5385C24.7787 22.5525 24.7717 22.5665 24.7661 22.5791L24.7591 22.5945L24.7563 22.5987C24.6835 22.7415 24.5757 22.8689 24.4343 22.9641L24.4329 22.9655L24.4161 22.9767L24.4147 22.9781L24.3979 22.9879L24.3965 22.9893L24.3825 22.9977L24.3769 23.0019L24.3741 23.0033L24.3545 23.0145H24.3531C24.3321 23.0257 24.3097 23.0369 24.2873 23.0467H24.2859L24.2649 23.0551L24.2453 23.0635H24.2439C24.0899 23.1251 23.9261 23.1447 23.7665 23.1251L23.7581 23.1237L23.7441 23.1223L23.7315 23.1209L23.7245 23.1195L23.7049 23.1167C23.6349 23.1041 23.5677 23.0831 23.5033 23.0565C23.4893 23.0509 23.4753 23.0439 23.4627 23.0383L23.4473 23.0313L23.4431 23.0285C23.3003 22.9557 23.1729 22.8479 23.0777 22.7065L23.0763 22.7051L23.0651 22.6883L23.0637 22.6869L23.0539 22.6701L23.0511 22.6659L21.6819 20.4553L21.0953 20.8781C20.9231 21.0265 20.7005 21.1161 20.4555 21.1161C19.9137 21.1161 19.4755 20.6779 19.4755 20.1361V12.8491L15.9335 10.8037V24.8121L28.0589 31.8121V17.8023L24.8151 15.9291L24.8599 22.1297ZM20.4569 11.1579L16.9093 9.10973L20.8041 6.85993L24.3517 8.90813L20.4569 11.1579ZM26.3075 7.77973L22.7599 5.73153L23.8869 5.08053L27.4345 7.12873L26.3075 7.77973ZM29.3889 6.00033L25.8413 3.95213L29.0403 2.10553L32.5879 4.15373L29.3889 6.00033ZM34.9763 3.27873L29.5261 0.131533C29.2097 -0.0504674 28.8331 -0.0350674 28.5405 0.139933L23.4529 3.07713C23.4165 3.09533 23.3801 3.11633 23.3451 3.13873L21.5111 4.19713L20.3715 4.85513C20.3337 4.87333 20.2987 4.89433 20.2637 4.91813L14.5209 8.23333C14.3543 8.31593 14.2101 8.44613 14.1093 8.61973C14.0197 8.77373 13.9777 8.94313 13.9777 9.10973H13.9749V25.3735C13.9749 25.7697 14.2101 26.1113 14.5475 26.2653L28.4719 34.3041C28.6315 34.4175 28.8275 34.4847 29.0389 34.4847C29.2503 34.4847 29.4463 34.4175 29.6059 34.3041L36.5695 30.2833L36.5709 30.2847L43.6129 26.2191C43.9251 26.0385 44.1001 25.7095 44.1001 25.3735H44.1029V9.10973C44.1029 8.72193 43.8775 8.38733 43.5513 8.22773L36.5709 4.19713C36.5527 4.18733 36.5345 4.17753 36.5163 4.16773L35.0827 3.34033C35.0491 3.31793 35.0141 3.29693 34.9763 3.27873ZM35.3907 14.7027L38.4077 12.9611C38.4441 12.9429 38.4805 12.9219 38.5155 12.8995L42.1457 10.8037V24.8121L35.5937 28.5949L35.5951 28.5963L30.0217 31.8135V17.8023L35.3711 14.7139C35.3767 14.7097 35.3837 14.7069 35.3907 14.7027ZM32.9393 13.8641L29.0403 16.1153L25.5865 14.1217L29.4869 11.8705L32.9393 13.8641ZM31.4385 10.7435L32.5669 10.0925L36.0193 12.0861L34.8909 12.7371L31.4385 10.7435ZM37.7203 7.11753L41.1727 9.11113L37.9751 10.9563L34.5227 8.96273L37.7203 7.11753ZM43.7473 61.4501C44.5649 61.2639 45.2943 60.8481 45.8669 60.2755C46.6607 59.4817 47.1507 58.3869 47.1507 57.1759C47.1507 53.8089 45.0717 53.3147 42.9927 52.8191C41.6683 52.5041 40.3439 52.1877 40.3439 50.3691C40.3439 49.6999 40.6155 49.0937 41.0537 48.6555C41.4919 48.2173 42.0981 47.9457 42.7673 47.9457C43.4365 47.9457 44.0427 48.2173 44.4809 48.6555C44.9191 49.0937 45.1907 49.6999 45.1907 50.3691C45.1907 50.9109 45.6289 51.3491 46.1707 51.3491C46.7125 51.3491 47.1507 50.9109 47.1507 50.3691C47.1507 49.1581 46.6593 48.0633 45.8669 47.2695C45.2943 46.6969 44.5649 46.2825 43.7473 46.0949V44.7005C43.7473 44.1587 43.3091 43.7205 42.7673 43.7205C42.2255 43.7205 41.7873 44.1587 41.7873 44.7005V46.0949C40.9697 46.2811 40.2403 46.6969 39.6677 47.2695C38.8739 48.0633 38.3839 49.1581 38.3839 50.3691C38.3839 53.7361 40.4629 54.2303 42.5419 54.7259C43.8663 55.0409 45.1907 55.3573 45.1907 57.1759C45.1907 57.8451 44.9191 58.4513 44.4809 58.8895C44.0427 59.3277 43.4365 59.5993 42.7673 59.5993C42.0981 59.5993 41.4919 59.3277 41.0537 58.8895C40.6155 58.4513 40.3439 57.8451 40.3439 57.1759C40.3439 56.6341 39.9057 56.1959 39.3639 56.1959C38.8221 56.1959 38.3839 56.6341 38.3839 57.1759C38.3839 58.3869 38.8753 59.4817 39.6677 60.2755C40.2403 60.8481 40.9697 61.2625 41.7873 61.4501V62.8445C41.7873 63.3863 42.2255 63.8245 42.7673 63.8245C43.3091 63.8245 43.7473 63.3863 43.7473 62.8445V61.4501ZM42.7673 66.9759C46.4129 66.9759 49.7141 65.4975 52.1039 63.1091C54.4937 60.7193 55.9707 57.4181 55.9707 53.7725C55.9707 50.1269 54.4923 46.8257 52.1039 44.4359C49.7141 42.0461 46.4129 40.5691 42.7673 40.5691C39.1217 40.5691 35.8205 42.0475 33.4307 44.4359C31.0409 46.8257 29.5639 50.1269 29.5639 53.7725C29.5639 57.4181 31.0423 60.7193 33.4307 63.1091C35.8205 65.4975 39.1217 66.9759 42.7673 66.9759ZM34.8167 61.7231C36.8509 63.7573 39.6621 65.0159 42.7673 65.0159C45.8725 65.0159 48.6837 63.7573 50.7179 61.7231C52.7521 59.6889 54.0107 56.8777 54.0107 53.7725C54.0107 50.6673 52.7521 47.8561 50.7179 45.8219C48.6837 43.7877 45.8725 42.5291 42.7673 42.5291C39.6621 42.5291 36.8509 43.7877 34.8167 45.8219C32.7825 47.8561 31.5239 50.6673 31.5239 53.7725C31.5239 56.8777 32.7825 59.6889 34.8167 61.7231ZM42.7673 69.9985C47.2473 69.9985 51.3045 68.1827 54.2403 65.2455C57.1761 62.3097 58.9933 58.2525 58.9933 53.7725C58.9933 49.2925 57.1775 45.2353 54.2403 42.2995C51.3045 39.3637 47.2473 37.5465 42.7673 37.5465C38.2873 37.5465 34.2301 39.3623 31.2943 42.2995C28.3585 45.2353 26.5413 49.2925 26.5413 53.7725C26.5413 58.2525 28.3571 62.3097 31.2943 65.2455C34.2301 68.1813 38.2873 69.9985 42.7673 69.9985ZM32.6803 63.8595C35.2619 66.4411 38.8277 68.0371 42.7673 68.0371C46.7069 68.0371 50.2727 66.4397 52.8543 63.8595C55.4359 61.2779 57.0319 57.7121 57.0319 53.7725C57.0319 49.8329 55.4345 46.2671 52.8543 43.6855C50.2727 41.1039 46.7069 39.5079 42.7673 39.5079C38.8277 39.5079 35.2619 41.1053 32.6803 43.6855C30.0987 46.2671 28.5027 49.8329 28.5027 53.7725C28.5013 57.7121 30.0987 61.2779 32.6803 63.8595Z" fill="#F68B21"/>
</svg>
