<svg width="50" height="50" viewBox="0 0 50 50" fill="none" xmlns="http://www.w3.org/2000/svg">
<g clip-path="url(#clip0_2_20412)">
<path d="M17.5488 11.7069C19.4744 11.7069 21.041 10.1403 21.041 8.21472C21.041 6.28914 19.4744 4.72253 17.5488 4.72253C15.6232 4.72253 14.0566 6.28914 14.0566 8.21472C14.0566 10.1403 15.6232 11.7069 17.5488 11.7069ZM17.5488 6.18738C18.6667 6.18738 19.5762 7.09675 19.5762 8.21472C19.5762 9.33269 18.6667 10.2421 17.5488 10.2421C16.431 10.2421 15.5215 9.33269 15.5215 8.21472C15.5215 7.09675 16.431 6.18738 17.5488 6.18738Z" fill="white"/>
<path d="M43.1778 28.1391V10.9395C43.1778 9.67412 42.1484 8.64473 40.8831 8.64473H35.0584C34.6539 8.64473 34.326 8.97256 34.326 9.37715C34.326 9.78174 34.6539 10.1096 35.0584 10.1096H40.8831C41.3407 10.1096 41.713 10.4818 41.713 10.9395V14.1407H23.1248L24.5642 11.5383C24.5677 11.5319 24.5711 11.5255 24.5744 11.5191C24.81 11.0617 24.9979 10.5898 25.1394 10.1096H31.6404C32.0449 10.1096 32.3729 9.78174 32.3729 9.37715C32.3729 8.97256 32.0449 8.64473 31.6404 8.64473H25.4229C25.5835 6.97627 25.2052 5.2793 24.2953 3.7875C22.849 1.41582 20.3271 0 17.5493 0C14.7715 0 12.2496 1.41582 10.8032 3.7874C9.89346 5.2792 9.51504 6.97617 9.67568 8.64463H2.97148C1.70615 8.64463 0.676758 9.67402 0.676758 10.9394V43.9558C0.676758 45.2211 1.70615 46.2505 2.97148 46.2505H29.1676C31.2917 48.5543 34.3332 50 37.7064 50C44.1117 50 49.3229 44.789 49.3229 38.3836C49.3228 33.9554 46.8318 30.0984 43.1778 28.1391ZM41.713 15.6056V27.4796C40.4635 27.019 39.1139 26.7673 37.7064 26.7673C34.7747 26.7673 32.0936 27.8595 30.0474 29.6577V23.01C30.0474 22.7362 29.8948 22.4854 29.6518 22.3596L21.0445 17.9022L22.3147 15.6056H41.713ZM26.3577 35.9024L18.2817 40.0847V35.8398C18.2817 35.4353 17.9538 35.1074 17.5493 35.1074C17.1448 35.1074 16.8169 35.4353 16.8169 35.8398V40.0847L6.51611 34.7503V24.2141L16.8169 29.5484V32.4219C16.8169 32.8265 17.1448 33.1543 17.5493 33.1543C17.9538 33.1543 18.2817 32.8265 18.2817 32.4219V29.5484L28.5825 24.2141V31.2016C27.5127 32.5578 26.7389 34.1575 26.3577 35.9024ZM16.4527 22.2392C16.6733 22.638 17.0935 22.8858 17.5493 22.8858C18.0051 22.8858 18.4254 22.6381 18.646 22.2392L20.3354 19.1847L27.7223 23.0101L17.5494 28.2781L7.37637 23.01L14.7633 19.1846L16.4527 22.2392ZM12.0538 4.5502C13.232 2.61826 15.2864 1.46484 17.5493 1.46484C19.8122 1.46484 21.8665 2.61826 23.0447 4.5502C24.2211 6.479 24.3076 8.8292 23.2769 10.839L17.5492 21.1952L11.8216 10.839C10.7909 8.8292 10.8774 6.479 12.0538 4.5502ZM2.1417 10.9395C2.1417 10.4818 2.51397 10.1096 2.97158 10.1096H9.95938C10.1007 10.5898 10.2888 11.0617 10.5243 11.5191C10.5276 11.5255 10.5311 11.5319 10.5346 11.5383L11.9739 14.1407H2.1417V10.9395ZM2.97148 44.7856C2.51387 44.7856 2.1416 44.4134 2.1416 43.9558V15.6056H12.7839L14.0541 17.9022L5.44688 22.3596C5.20381 22.4854 5.05127 22.7362 5.05127 23.01V35.1958C5.05127 35.4695 5.20381 35.7203 5.44688 35.8462L17.2125 41.9392C17.3181 41.9938 17.4337 42.0212 17.5493 42.0212C17.6649 42.0212 17.7806 41.9938 17.8861 41.9392L26.112 37.6793C26.098 37.9124 26.09 38.1471 26.09 38.3836C26.09 40.7479 26.8006 42.9489 28.0185 44.7857L2.97148 44.7856ZM37.7064 48.5352C32.1089 48.5352 27.5549 43.9812 27.5549 38.3836C27.5549 32.786 32.1088 28.2321 37.7064 28.2321C43.3041 28.2321 47.858 32.786 47.858 38.3836C47.858 43.9812 43.304 48.5352 37.7064 48.5352Z" fill="white"/>
<path d="M45.5984 39.3229C45.2027 39.2382 44.8137 39.4905 44.7291 39.8861C44.0258 43.1773 41.0722 45.5661 37.706 45.5661C33.7455 45.5661 30.5235 42.3442 30.5235 38.3837C30.5235 34.4233 33.7456 31.2012 37.706 31.2012C39.3396 31.2012 40.9395 31.7673 42.2108 32.795C43.4641 33.8083 44.3504 35.2251 44.7065 36.7842C44.7966 37.1785 45.1895 37.4258 45.5836 37.3352C45.9779 37.2451 46.2246 36.8525 46.1346 36.4581C45.7057 34.5803 44.6393 32.8749 43.1317 31.6561C41.6007 30.4182 39.6737 29.7365 37.7059 29.7365C32.9377 29.7365 29.0586 33.6156 29.0586 38.3838C29.0586 43.1519 32.9378 47.0311 37.7059 47.0311C41.7586 47.0311 45.3146 44.155 46.1614 40.1923C46.2462 39.7966 45.994 39.4073 45.5984 39.3229Z" fill="white"/>
<path d="M37.7061 32.4637C37.3016 32.4637 36.9736 32.7916 36.9736 33.1962V38.3836C36.9736 38.7882 37.3016 39.116 37.7061 39.116H41.8037C42.2082 39.116 42.5361 38.7882 42.5361 38.3836C42.5361 37.979 42.2082 37.6511 41.8037 37.6511H38.4385V33.1962C38.4385 32.7916 38.1105 32.4637 37.7061 32.4637Z" fill="white"/>
<path d="M29.6348 19.4833H38.6961C39.1006 19.4833 39.4285 19.1554 39.4285 18.7509C39.4285 18.3463 39.1006 18.0184 38.6961 18.0184H29.6348C29.2303 18.0184 28.9023 18.3463 28.9023 18.7509C28.9023 19.1554 29.2303 19.4833 29.6348 19.4833Z" fill="white"/>
<path d="M38.6955 20.8306H33.0713C32.6668 20.8306 32.3389 21.1584 32.3389 21.563C32.3389 21.9676 32.6668 22.2954 33.0713 22.2954H38.6955C39.1 22.2954 39.4279 21.9676 39.4279 21.563C39.4279 21.1584 39.1 20.8306 38.6955 20.8306Z" fill="white"/>
<path d="M38.6955 23.6427H33.0713C32.6668 23.6427 32.3389 23.9705 32.3389 24.3751C32.3389 24.7797 32.6668 25.1075 33.0713 25.1075H38.6955C39.1 25.1075 39.4279 24.7797 39.4279 24.3751C39.4279 23.9705 39.1 23.6427 38.6955 23.6427Z" fill="white"/>
<path d="M38.6955 12.7134C39.1 12.7134 39.4279 12.3855 39.4279 11.981C39.4279 11.5764 39.1 11.2485 38.6955 11.2485H35.1543C34.7498 11.2485 34.4219 11.5764 34.4219 11.981C34.4219 12.3855 34.7498 12.7134 35.1543 12.7134H38.6955Z" fill="white"/>
</g>
<defs>
<clipPath id="clip0_2_20412">
<rect width="50" height="50" fill="white"/>
</clipPath>
</defs>
</svg>
