<svg width="55" height="55" viewBox="0 0 55 55" fill="none" xmlns="http://www.w3.org/2000/svg">
<path d="M37.232 52.5292C35.1845 52.5292 32.9018 52.0501 30.4236 51.0876C25.3748 49.125 19.8103 45.2675 14.769 40.2273C9.72771 35.1871 5.87126 29.6312 3.90866 24.577C1.61198 18.6613 2.0653 13.866 5.22351 10.7078L8.23884 7.69242C8.39999 7.53138 8.61849 7.44092 8.84631 7.44092C9.07413 7.44092 9.29263 7.53138 9.45378 7.69242L20.5612 18.7988C20.6411 18.8786 20.7045 18.9734 20.7477 19.0777C20.791 19.182 20.8132 19.2938 20.8132 19.4068C20.8132 19.5197 20.791 19.6315 20.7477 19.7359C20.7045 19.8402 20.6411 19.935 20.5612 20.0148L17.5448 23.0301C17.1581 23.4168 17.2537 24.158 17.4019 24.7102C17.924 26.6588 19.95 29.5721 22.6892 32.3114C25.4285 35.0506 28.3418 37.0766 30.2936 37.5976C30.8458 37.7458 31.5827 37.8414 31.9737 37.4547L34.989 34.4383C35.1502 34.2773 35.3687 34.1868 35.5965 34.1868C35.8243 34.1868 36.0428 34.2773 36.204 34.4383L47.3082 45.5468C47.4692 45.708 47.5597 45.9265 47.5597 46.1543C47.5597 46.3821 47.4692 46.6006 47.3082 46.7618L44.2928 49.7782C42.4581 51.6119 40.069 52.5292 37.232 52.5292ZM8.84577 9.51537L6.43845 11.9238C3.10837 15.2538 4.09343 20.3027 5.5114 23.955C7.38913 28.789 11.1092 34.1397 15.985 39.0156C20.8609 43.8914 26.2094 47.6093 31.0456 49.4903C34.6979 50.9072 39.7468 51.8965 43.0768 48.5622L45.4852 46.1548L35.5938 36.2634L33.1854 38.6718C32.6483 39.2089 31.6396 39.7407 29.8446 39.2605C25.0633 37.9789 17.0227 29.9384 15.7412 25.1571C15.261 23.3621 15.796 22.3501 16.3299 21.8163L18.7372 19.4079L8.84577 9.51537Z" fill="#F68B21"/>
<path d="M19.9522 20.2661C19.8393 20.2662 19.7275 20.2441 19.6232 20.2009C19.5189 20.1578 19.424 20.0945 19.3442 20.0148L8.23783 8.90733C8.07679 8.74618 7.98633 8.52768 7.98633 8.29986C7.98633 8.07204 8.07679 7.85354 8.23783 7.69239L10.8374 5.09278C11.2021 4.7277 11.6351 4.43808 12.1118 4.24048C12.5884 4.04287 13.0994 3.94116 13.6154 3.94116C14.1314 3.94116 14.6423 4.04287 15.119 4.24048C15.5956 4.43808 16.0287 4.7277 16.3933 5.09278L23.1609 11.8604C23.8966 12.5976 24.3098 13.5967 24.3098 14.6383C24.3098 15.6799 23.8966 16.6789 23.1609 17.4162L20.5613 20.0169C20.4811 20.0964 20.386 20.1594 20.2815 20.2021C20.177 20.2449 20.0651 20.2666 19.9522 20.2661ZM10.0608 8.3004L19.9522 18.1918L21.9449 16.1991C22.3587 15.7845 22.5912 15.2225 22.5912 14.6367C22.5912 14.0508 22.3587 13.4889 21.9449 13.0742L15.1773 6.30665C14.9722 6.10134 14.7286 5.93847 14.4605 5.82734C14.1924 5.71622 13.905 5.65902 13.6148 5.65902C13.3246 5.65902 13.0373 5.71622 12.7692 5.82734C12.5011 5.93847 12.2575 6.10134 12.0524 6.30665L10.0608 8.3004Z" fill="#F68B21"/>
<path d="M46.6988 47.0141C46.4711 47.0138 46.2527 46.923 46.0919 46.7617L34.9845 35.6554C34.9046 35.5755 34.8412 35.4808 34.7979 35.3764C34.7547 35.2721 34.7324 35.1603 34.7324 35.0474C34.7324 34.9344 34.7547 34.8226 34.7979 34.7183C34.8412 34.6139 34.9046 34.5192 34.9845 34.4393L37.5852 31.8397C38.322 31.1032 39.3212 30.6895 40.3631 30.6895C41.4049 30.6895 42.4041 31.1032 43.141 31.8397L49.9086 38.6073C50.6443 39.3446 51.0575 40.3437 51.0575 41.3852C51.0575 42.4268 50.6443 43.4259 49.9086 44.1632L47.309 46.7628C47.2289 46.8428 47.1337 46.9062 47.029 46.9494C46.9243 46.9925 46.8121 47.0145 46.6988 47.0141ZM36.8074 35.0474L46.6988 44.9388L48.6915 42.9461C48.8968 42.741 49.0597 42.4974 49.1708 42.2293C49.2819 41.9612 49.3391 41.6738 49.3391 41.3836C49.3391 41.0934 49.2819 40.8061 49.1708 40.538C49.0597 40.2699 48.8968 40.0263 48.6915 39.8212L41.9239 33.0536C41.5094 32.6395 40.9474 32.4069 40.3615 32.4069C39.7755 32.4069 39.2135 32.6395 38.799 33.0536L36.8074 35.0474Z" fill="#F68B21"/>
<path d="M51.669 24.1925C51.4411 24.1925 51.2225 24.1019 51.0614 23.9408C50.9002 23.7796 50.8097 23.561 50.8097 23.3331C50.8094 18.256 48.7924 13.3869 45.2023 9.79681C41.6122 6.20674 36.7431 4.18974 31.666 4.18945C31.4381 4.18945 31.2195 4.09891 31.0583 3.93775C30.8972 3.77658 30.8066 3.558 30.8066 3.33008C30.8066 3.10216 30.8972 2.88357 31.0583 2.72241C31.2195 2.56124 31.4381 2.4707 31.666 2.4707C34.4057 2.47056 37.1187 3.01009 39.6499 4.05847C42.1811 5.10686 44.481 6.64356 46.4183 8.58084C48.3556 10.5181 49.8923 12.818 50.9406 15.3492C51.989 17.8804 52.5286 20.5934 52.5284 23.3331C52.5284 23.561 52.4379 23.7796 52.2767 23.9408C52.1155 24.1019 51.897 24.1925 51.669 24.1925Z" fill="#F68B21"/>
<path d="M44.8735 24.1924C44.6456 24.1924 44.427 24.1019 44.2659 23.9407C44.1047 23.7795 44.0142 23.5609 44.0142 23.333C44.016 21.7109 43.6979 20.1044 43.078 18.6054C42.4581 17.1064 41.5486 15.7445 40.4016 14.5975C39.2546 13.4505 37.8926 12.541 36.3936 11.9211C34.8946 11.3012 33.2881 10.983 31.666 10.9849C31.4381 10.9849 31.2195 10.8943 31.0583 10.7332C30.8972 10.572 30.8066 10.3534 30.8066 10.1255C30.8066 9.89758 30.8972 9.679 31.0583 9.51783C31.2195 9.35667 31.4381 9.26613 31.666 9.26613C33.5147 9.26358 35.3458 9.62583 37.0542 10.3321C38.7627 11.0384 40.315 12.0749 41.6223 13.3821C42.9295 14.6894 43.966 16.2417 44.6723 17.9502C45.3786 19.6586 45.7408 21.4897 45.7383 23.3384C45.7376 23.4512 45.7147 23.5629 45.6708 23.6669C45.627 23.7708 45.5631 23.8652 45.4828 23.9445C45.4025 24.0238 45.3073 24.0865 45.2028 24.129C45.0983 24.1716 44.9864 24.1931 44.8735 24.1924Z" fill="#F68B21"/>
<path d="M38.0898 24.1924C37.8619 24.1924 37.6433 24.1018 37.4822 23.9407C37.321 23.7795 37.2305 23.5609 37.2305 23.333C37.231 22.6021 37.0875 21.8783 36.8081 21.2029C36.5286 20.5276 36.1188 19.9139 35.6019 19.3971C35.0851 18.8803 34.4715 18.4704 33.7961 18.191C33.1207 17.9115 32.3969 17.768 31.666 17.7686C31.4381 17.7686 31.2195 17.678 31.0583 17.5168C30.8972 17.3557 30.8066 17.1371 30.8066 16.9092C30.8066 16.6813 30.8972 16.4627 31.0583 16.3015C31.2195 16.1403 31.4381 16.0498 31.666 16.0498C32.6223 16.0495 33.5692 16.2377 34.4527 16.6035C35.3362 16.9693 36.139 17.5056 36.8151 18.1817C37.4913 18.8579 38.0276 19.6607 38.3934 20.5442C38.7592 21.4277 38.9474 22.3746 38.9471 23.3309C38.9471 23.5588 38.8565 23.7774 38.6954 23.9385C38.5342 24.0997 38.3156 24.1902 38.0877 24.1902L38.0898 24.1924Z" fill="#F68B21"/>
</svg>
