<svg width="22" height="22" viewBox="0 0 22 22" fill="none" xmlns="http://www.w3.org/2000/svg">
<g clip-path="url(#clip0_2_35200)">
<path d="M16.122 14.3893C15.9304 14.197 15.7027 14.0444 15.452 13.9403C15.2013 13.8362 14.9326 13.7826 14.6611 13.7826C14.3897 13.7826 14.1209 13.8362 13.8702 13.9403C13.6195 14.0444 13.3918 14.197 13.2002 14.3893L12.2033 15.3861C11.0809 14.6738 10.041 13.8391 9.10267 12.8974C8.16295 11.9573 7.32844 10.9176 6.61392 9.79676L7.6108 8.79989C7.80308 8.60827 7.95564 8.38059 8.05974 8.12989C8.16384 7.87919 8.21742 7.6104 8.21742 7.33895C8.21742 7.0675 8.16384 6.79871 8.05974 6.54801C7.95564 6.29731 7.80308 6.06962 7.6108 5.87801L5.66517 3.93926C5.47627 3.74634 5.2505 3.59337 5.0013 3.48944C4.7521 3.38551 4.48455 3.33274 4.21455 3.33426C3.94263 3.33359 3.67326 3.3867 3.42195 3.49053C3.17063 3.59436 2.94233 3.74686 2.75017 3.93926L1.81517 4.86739C1.36952 5.34655 1.0369 5.9195 0.841786 6.54411C0.646669 7.16872 0.594008 7.82912 0.687673 8.47676C0.907673 11.0549 2.59892 14.1555 5.20455 16.768C7.81017 19.3805 10.9452 21.0649 13.5233 21.3124C13.7157 21.3227 13.9084 21.3227 14.1008 21.3124C14.6558 21.3357 15.2098 21.248 15.7304 21.0543C16.251 20.8607 16.7278 20.5651 17.1327 20.1849L18.0608 19.2499C18.2532 19.0577 18.4057 18.8294 18.5095 18.5781C18.6134 18.3268 18.6665 18.0574 18.6658 17.7855C18.6673 17.5155 18.6145 17.248 18.5106 16.9988C18.4067 16.7496 18.2537 16.5238 18.0608 16.3349L16.122 14.3893ZM17.0914 18.2805L16.1564 19.2086C15.8107 19.4968 15.4071 19.7072 14.973 19.8259C14.5389 19.9445 14.0844 19.9684 13.6402 19.8961C11.4058 19.7036 8.55955 18.1224 6.2083 15.7711C3.85705 13.4199 2.2758 10.5943 2.06267 8.35989C1.98853 7.9157 2.0116 7.46072 2.13029 7.02632C2.24898 6.59191 2.46047 6.18841 2.75017 5.84364L3.71955 4.90864C3.78379 4.84492 3.85997 4.79451 3.94374 4.76029C4.0275 4.72608 4.11719 4.70874 4.20767 4.70926C4.29815 4.70874 4.38785 4.72608 4.47161 4.76029C4.55537 4.79451 4.63156 4.84492 4.6958 4.90864L6.64142 6.87489C6.76947 7.0037 6.84134 7.17795 6.84134 7.35957C6.84134 7.5412 6.76947 7.71545 6.64142 7.84426L5.26642 9.21926C5.15883 9.32633 5.08969 9.46599 5.06979 9.61647C5.04989 9.76695 5.08035 9.91978 5.15642 10.0511C5.97963 11.4526 6.98018 12.742 8.1333 13.8874C9.27872 15.0405 10.5681 16.0411 11.9695 16.8643C12.1009 16.9403 12.2537 16.9708 12.4042 16.9509C12.5547 16.931 12.6944 16.8619 12.8014 16.7543L14.1764 15.3793C14.3052 15.2512 14.4795 15.1793 14.6611 15.1793C14.8427 15.1793 15.017 15.2512 15.1458 15.3793L17.0914 17.3249C17.1551 17.3891 17.2056 17.4653 17.2398 17.5491C17.274 17.6328 17.2913 17.7225 17.2908 17.813C17.2865 17.9886 17.2152 18.1559 17.0914 18.2805Z" fill="#FF6600"/>
<path d="M18.2875 3.70565C17.3321 2.74656 16.1962 1.9861 14.9455 1.4681C13.6947 0.950094 12.3538 0.684804 11 0.687521C10.8177 0.687521 10.6428 0.759953 10.5139 0.888885C10.3849 1.01782 10.3125 1.19268 10.3125 1.37502C10.3125 1.55736 10.3849 1.73223 10.5139 1.86116C10.6428 1.99009 10.8177 2.06252 11 2.06252C12.1801 2.06248 13.3485 2.29614 14.4378 2.75001C15.5271 3.20388 16.5157 3.86898 17.3467 4.70693C18.1776 5.54489 18.8343 6.53909 19.279 7.63218C19.7237 8.72528 19.9475 9.89561 19.9375 11.0756C19.9375 11.258 20.0099 11.4329 20.1389 11.5618C20.2678 11.6907 20.4427 11.7631 20.625 11.7631C20.8073 11.7631 20.9822 11.6907 21.1111 11.5618C21.2401 11.4329 21.3125 11.258 21.3125 11.0756C21.3257 9.70748 21.0648 8.35051 20.5453 7.08475C20.0257 5.81899 19.2581 4.67005 18.2875 3.70565Z" fill="#FF6600"/>
<path d="M14.3749 7.6381C14.7651 8.0259 15.0737 8.48784 15.2827 8.99672C15.4917 9.50559 15.5968 10.0511 15.5918 10.6012C15.5918 10.7836 15.6642 10.9584 15.7932 11.0874C15.9221 11.2163 16.097 11.2887 16.2793 11.2887C16.4616 11.2887 16.6365 11.2163 16.7654 11.0874C16.8944 10.9584 16.9668 10.7836 16.9668 10.6012C16.9759 9.87319 16.8404 9.15059 16.568 8.47534C16.2957 7.8001 15.892 7.18564 15.3804 6.66761C14.8688 6.14959 14.2594 5.7383 13.5876 5.45761C12.9157 5.17692 12.1949 5.03241 11.4668 5.03247C11.2845 5.03247 11.1096 5.1049 10.9807 5.23383C10.8517 5.36277 10.7793 5.53763 10.7793 5.71997C10.7793 5.90231 10.8517 6.07718 10.9807 6.20611C11.1096 6.33504 11.2845 6.40747 11.4668 6.40747C12.0086 6.41155 12.5443 6.52233 13.0433 6.73349C13.5423 6.94464 13.9948 7.25203 14.3749 7.6381Z" fill="#FF6600"/>
</g>
<defs>
<clipPath id="clip0_2_35200">
<rect width="22" height="22" fill="white"/>
</clipPath>
</defs>
</svg>
