<svg width="60" height="60" viewBox="0 0 60 60" fill="none" xmlns="http://www.w3.org/2000/svg">
<g clip-path="url(#clip0_2_19051)">
<path d="M18.2812 43.3596C17.6344 43.3596 17.1094 43.8846 17.1094 44.5315C17.1094 45.1784 17.6344 45.7034 18.2812 45.7034C18.9281 45.7034 19.4531 45.1784 19.4531 44.5315C19.4531 43.8846 18.9281 43.3596 18.2812 43.3596Z" fill="#F68B21"/>
<path d="M52.7512 22.2658L59.6569 15.36C59.9474 15.0695 60.0645 14.6481 59.9657 14.2494C59.8669 13.8506 59.5665 13.5328 59.1739 13.4117L42.3575 8.22142C40.8415 3.34864 36.3359 0.000244141 31.1718 0.000244141C26.3713 0.000244141 22.0781 2.92583 20.3011 7.33911L0.822944 13.4127C0.431421 13.5348 0.132124 13.8529 0.0340378 14.2512C-0.0640482 14.6494 0.0531393 15.0701 0.343178 15.3601L7.43056 22.4475L2.96056 29.8977C2.77763 30.2025 2.74306 30.5739 2.86634 30.9073C2.98962 31.2407 3.25763 31.5 3.5949 31.6124L10.0781 33.7733V51.797C10.0781 52.2854 10.3811 52.7227 10.8385 52.8942C14.8026 54.3806 29.5313 59.9046 29.6104 59.9326C29.8429 60.0145 30.1048 60.0257 30.3602 59.9431C30.3636 59.9419 30.3671 59.9412 30.3705 59.94L51.4642 52.9088C51.9427 52.7493 52.2656 52.3014 52.2656 51.797V33.2907L59.1794 31.1181C59.5703 30.9953 59.8687 30.6772 59.9663 30.2793C60.0638 29.8813 59.9465 29.4613 59.6568 29.1715L52.7512 22.2658ZM42.8906 11.719C42.8906 11.4212 42.878 11.1242 42.8556 10.828L56.6245 15.0778L50.7772 20.925L41.2231 17.7407C42.305 15.9324 42.8906 13.8457 42.8906 11.719ZM22.3039 8.66884C23.6048 4.88579 27.1686 2.34399 31.1718 2.34399C35.4844 2.34399 39.2248 5.26103 40.2677 9.43759C40.4529 10.1797 40.5468 10.9473 40.5468 11.719C40.5468 13.8956 39.8245 15.9358 38.4576 17.6196C36.6673 19.8277 34.0117 21.094 31.1718 21.094C28.102 21.094 25.2226 19.5872 23.4687 17.0623C22.375 15.4913 21.7968 13.6434 21.7968 11.719C21.7968 10.6724 21.9673 9.64618 22.3039 8.66884ZM3.37083 15.0733L19.5779 10.0197C19.4965 10.5796 19.4531 11.1468 19.4531 11.7189C19.4531 13.6057 19.9 15.4333 20.752 17.0822L9.22271 20.925L3.37083 15.0733ZM5.72197 29.8508L9.42744 23.6748L28.2434 29.9468L24.5381 36.1228C22.5289 35.4531 7.8672 30.5658 5.72197 29.8508ZM28.8281 57.1374L12.4218 50.985V34.5546C25.33 38.8345 24.6997 38.7039 25.0591 38.7039C25.462 38.7039 25.8478 38.4954 26.0642 38.1348L28.8281 33.5281V57.1374ZM29.9999 28.0618L12.6121 22.266L22.0802 19.1101C24.2962 21.8344 27.6322 23.4377 31.1718 23.4377C34.4463 23.4377 37.5237 22.0902 39.7373 19.716L47.3878 22.2659L29.9999 28.0618ZM49.9218 50.9524L31.1718 57.2024V32.6375L35.3262 37.8301C35.6285 38.2078 36.1315 38.3609 36.5927 38.216L49.9218 34.0274V50.9524ZM36.6552 35.7397L31.9649 29.8773L50.7772 23.6066L56.6323 29.4618L36.6552 35.7397Z" fill="#F68B21"/>
<path d="M25.7241 45.9607L23.1179 44.9833C22.5119 44.7562 21.8364 45.0631 21.6091 45.6691C21.3819 46.2752 21.6889 46.9507 22.2949 47.1779L24.9011 48.1552C25.5084 48.3828 26.183 48.0744 26.4099 47.4695C26.6371 46.8635 26.3301 46.1879 25.7241 45.9607Z" fill="#F68B21"/>
<path d="M25.7234 50.967L18.6922 48.3303C18.0862 48.1031 17.4107 48.4101 17.1834 49.0161C16.956 49.622 17.2632 50.2976 17.8691 50.5249L24.9004 53.1616C25.036 53.2124 25.175 53.2366 25.3117 53.2366C25.7862 53.2366 26.2327 52.9463 26.4092 52.4758C26.6365 51.8697 26.3295 51.1942 25.7234 50.967Z" fill="#F68B21"/>
<path d="M37.8601 7.37451C37.4025 6.91677 36.6605 6.91689 36.2027 7.37451L30.0001 13.5772L28.485 12.0621C28.0274 11.6045 27.2854 11.6045 26.8276 12.0621C26.3699 12.5197 26.37 13.2618 26.8276 13.7195L29.1715 16.0631C29.6291 16.5208 30.3711 16.5208 30.8289 16.0631L37.8601 9.03189C38.3177 8.57427 38.3177 7.83224 37.8601 7.37451Z" fill="#F68B21"/>
</g>
<defs>
<clipPath id="clip0_2_19051">
<rect width="60" height="60" fill="white"/>
</clipPath>
</defs>
</svg>
