<svg width="46" height="36" viewBox="0 0 46 36" fill="none" xmlns="http://www.w3.org/2000/svg">
<path d="M44.4189 17.4907L38.0387 10.3605C37.0518 9.25789 35.6377 8.62508 34.1575 8.62508H28.446L28.9867 3.76154C29.0846 2.87925 28.8007 1.99331 28.2085 1.33237C27.6163 0.671436 26.7679 0.291748 25.8804 0.291748H4.24967C3.67467 0.291748 3.20801 0.758415 3.20801 1.33341C3.20801 1.90841 3.67467 2.37508 4.24967 2.37508H25.8804C26.1804 2.37508 26.4559 2.498 26.6564 2.72196C26.8564 2.94592 26.9492 3.23289 26.9158 3.53185L24.1507 28.4167H18.3913C18.3663 27.1647 17.9492 26.0079 17.1689 25.0777C16.157 23.872 14.67 23.2084 12.9809 23.2084C9.92051 23.2084 6.9877 25.4777 6.04811 28.4167H1.12467C0.549675 28.4167 0.0830078 28.8834 0.0830078 29.4584C0.0830078 30.0334 0.549675 30.5001 1.12467 30.5001H5.73301C5.75801 31.7522 6.1752 32.9089 6.9554 33.8391C7.96738 35.0449 9.45436 35.7084 11.1434 35.7084C14.2038 35.7084 17.1367 33.4391 18.0762 30.5001H28.1288C28.1538 31.7522 28.571 32.9089 29.3512 33.8391C30.3632 35.0449 31.8502 35.7084 33.5393 35.7084C36.5997 35.7084 39.5325 33.4391 40.4721 30.5001H41.9575C43.5617 30.5001 44.8976 29.297 45.0653 27.7022L45.7174 21.5089C45.871 20.0501 45.3976 18.5855 44.4189 17.4907ZM16.2445 29.2772C15.8221 31.6751 13.5335 33.6251 11.1434 33.6251C10.0809 33.6251 9.16009 33.2251 8.55124 32.5001C7.92415 31.7527 7.68561 30.7371 7.87936 29.6397C8.30228 27.2418 10.5908 25.2917 12.9809 25.2917C14.0434 25.2917 14.9643 25.6918 15.5731 26.4168C16.1997 27.1641 16.4382 28.1798 16.2445 29.2772ZM38.6403 29.2772C38.2179 31.6751 35.9294 33.6251 33.5393 33.6251C32.4768 33.6251 31.5559 33.2251 30.9471 32.5001C30.32 31.7527 30.0814 30.7371 30.2752 29.6397C30.6981 27.2418 32.9867 25.2917 35.3768 25.2917C36.4393 25.2917 37.3601 25.6918 37.9689 26.4168C38.5955 27.1641 38.8341 28.1798 38.6403 29.2772ZM43.6455 21.2912L42.9934 27.4845C42.9372 28.0157 42.4924 28.4167 41.9575 28.4167H40.7872C40.7622 27.1647 40.345 26.0079 39.5648 25.0777C38.5528 23.872 37.0658 23.2084 35.3768 23.2084C32.3163 23.2084 29.3835 25.4777 28.4439 28.4167H26.2466L28.2148 10.7084H34.1575C35.0455 10.7084 35.8945 11.0881 36.4867 11.7501L42.8669 18.8798C43.4533 19.5365 43.7372 20.4157 43.6455 21.2912ZM34.7054 13.1292C34.508 12.9141 34.2294 12.7917 33.9372 12.7917H31.333C30.7913 12.7917 30.3403 13.2069 30.295 13.747L29.7742 19.997C29.7502 20.2876 29.8486 20.574 30.0455 20.7891C30.2429 21.0032 30.5205 21.1251 30.8122 21.1251H39.6663C40.0794 21.1251 40.4538 20.8808 40.62 20.5032C40.7861 20.1246 40.7132 19.6845 40.4346 19.3798L34.7054 13.1292ZM31.9445 19.0417L32.2913 14.8751H33.4788L37.2981 19.0417H31.9445ZM19.8747 8.62508H12.583C12.008 8.62508 11.5413 8.15842 11.5413 7.58342C11.5413 7.00842 12.008 6.54175 12.583 6.54175H19.8747C20.4497 6.54175 20.9163 7.00842 20.9163 7.58342C20.9163 8.15842 20.4497 8.62508 19.8747 8.62508ZM6.33301 8.62508C5.75801 8.62508 5.29134 8.15842 5.29134 7.58342C5.29134 7.00842 5.75801 6.54175 6.33301 6.54175H8.41634C8.99134 6.54175 9.45801 7.00842 9.45801 7.58342C9.45801 8.15842 8.99134 8.62508 8.41634 8.62508H6.33301ZM17.7913 12.7917C18.3663 12.7917 18.833 13.2584 18.833 13.8334C18.833 14.4084 18.3663 14.8751 17.7913 14.8751H15.708C15.133 14.8751 14.6663 14.4084 14.6663 13.8334C14.6663 13.2584 15.133 12.7917 15.708 12.7917H17.7913ZM4.24967 12.7917H11.5413C12.1163 12.7917 12.583 13.2584 12.583 13.8334C12.583 14.4084 12.1163 14.8751 11.5413 14.8751H4.24967C3.67467 14.8751 3.20801 14.4084 3.20801 13.8334C3.20801 13.2584 3.67467 12.7917 4.24967 12.7917ZM1.12467 20.0834C1.12467 19.5084 1.59134 19.0417 2.16634 19.0417H15.708C16.283 19.0417 16.7497 19.5084 16.7497 20.0834C16.7497 20.6584 16.283 21.1251 15.708 21.1251H2.16634C1.59134 21.1251 1.12467 20.6584 1.12467 20.0834ZM27.6872 34.6668C27.6872 35.2417 27.2205 35.7084 26.6455 35.7084H21.958C21.383 35.7084 20.9163 35.2417 20.9163 34.6668C20.9163 34.0918 21.383 33.6251 21.958 33.6251H26.6455C27.2205 33.6251 27.6872 34.0918 27.6872 34.6668ZM5.29134 34.6668C5.29134 35.2417 4.82467 35.7084 4.24967 35.7084H1.64551C1.07051 35.7084 0.603841 35.2417 0.603841 34.6668C0.603841 34.0918 1.07051 33.6251 1.64551 33.6251H4.24967C4.82467 33.6251 5.29134 34.0918 5.29134 34.6668Z" fill="white"/>
</svg>
