<svg width="56" height="50" viewBox="0 0 56 50" fill="none" xmlns="http://www.w3.org/2000/svg">
<path fill-rule="evenodd" clip-rule="evenodd" d="M4.81893 0.16516C3.92963 0.383103 2.67726 1.07795 2.01939 1.71825C1.27005 2.4478 0.599603 3.4966 0.286428 4.42923L0.0418623 5.15778L0.0127552 24.7202C-0.0159142 43.9655 -0.0128503 44.2968 0.202389 45.1592C0.639871 46.9119 1.80634 48.4342 3.33534 49.2476C4.85985 50.0587 2.90224 49.999 28 49.999C53.0978 49.999 51.1401 50.0587 52.6647 49.2476C54.1937 48.4342 55.3601 46.9119 55.7976 45.1592C56.0129 44.2968 56.0159 43.9655 55.9872 24.7202L55.9581 5.15778L55.7136 4.42923C55.3994 3.49361 54.7295 2.44724 53.9731 1.71105C53.2976 1.05345 51.9072 0.310493 51.0013 0.123035C50.0876 -0.0660851 5.59672 -0.0255119 4.81893 0.16516ZM51.214 2.19593C52.4337 2.69556 53.3712 3.64615 53.8344 4.85271C54.0575 5.43392 54.0836 5.72813 54.1283 8.17861L54.1775 10.8669H28.0124H1.84738L1.84957 8.67746C1.85077 7.47334 1.89618 6.17666 1.95057 5.79609C2.21001 3.97872 3.47442 2.54834 5.25105 2.06224C5.7602 1.923 8.91887 1.90371 28.2189 1.9219L50.5963 1.94296L51.214 2.19593ZM5.73985 3.66322C5.05091 3.9357 4.44196 4.53931 4.14104 5.2478C3.79088 6.07234 3.86321 7.19808 4.31393 7.93993C4.94816 8.98397 6.22734 9.55588 7.38418 9.31255C8.79654 9.01557 9.72752 7.83052 9.7249 6.33296C9.7214 4.30652 7.63958 2.91173 5.73985 3.66322ZM12.73 3.58651C11.0505 4.24211 10.2557 6.05183 10.9688 7.59661C11.4842 8.71293 12.4493 9.35423 13.6106 9.35224C15.2615 9.34947 16.5378 8.08161 16.5497 6.43262C16.5558 5.60531 16.348 5.04903 15.812 4.4575C15.0036 3.56533 13.7163 3.20151 12.73 3.58651ZM19.3007 3.69493C18.1619 4.24699 17.5615 5.20257 17.5686 6.45103C17.577 7.90368 18.4833 9.00493 19.9188 9.30679C20.9319 9.51985 21.8228 9.23418 22.5441 8.46484C23.1801 7.78629 23.3425 7.37501 23.3461 6.43262C23.35 5.47339 23.1484 4.95414 22.5287 4.32636C21.675 3.46146 20.3263 3.19774 19.3007 3.69493ZM7.25955 5.49567C8.2609 5.97701 7.90789 7.43033 6.78968 7.43033C5.69116 7.43033 5.41606 5.85518 6.44324 5.44689C6.81747 5.29812 6.85303 5.30023 7.25955 5.49567ZM14.043 5.48093C14.7165 5.76605 14.8795 6.61343 14.3617 7.13811C13.8194 7.68751 12.9274 7.46791 12.6856 6.72539C12.5078 6.17965 12.7901 5.60641 13.337 5.40266C13.5926 5.30755 13.6476 5.31353 14.043 5.48093ZM21.1462 5.63757C21.468 5.92989 21.5659 6.30625 21.4293 6.72539C21.2759 7.19642 20.9477 7.43033 20.4403 7.43033C19.3741 7.43033 19.0701 5.92113 20.048 5.48314C20.4404 5.30744 20.8453 5.36431 21.1462 5.63757ZM54.1504 28.1881C54.1492 36.7063 54.1044 43.8213 54.0494 44.2059C53.8579 45.5472 53.1395 46.6692 51.9967 47.412C50.8424 48.1621 52.4723 48.1145 28 48.1145C3.52771 48.1145 5.1576 48.1621 4.00327 47.412C2.86055 46.6692 2.14206 45.5472 1.95057 44.2059C1.89563 43.8213 1.85077 36.7063 1.84957 28.1881L1.84738 12.8623H28H54.1526L54.1504 28.1881ZM7.60708 19.9167L7.31864 20.209V30.983V41.757L7.60107 42.0258L7.88338 42.2945H16.8569H25.8304L26.0946 41.9835L26.3586 41.6724V30.9408V20.209L26.0702 19.9167L25.7816 19.6245H16.8386H7.89564L7.60708 19.9167ZM31.9783 19.8872C31.5557 20.2555 31.5557 20.878 31.9783 21.2463L32.2798 21.509H40.0478H47.8159L48.0845 21.2369C48.2699 21.0491 48.3531 20.8416 48.3531 20.5668C48.3531 20.2919 48.2699 20.0844 48.0845 19.8966L47.8159 19.6245H40.0478H32.2798L31.9783 19.8872ZM24.4717 30.9595L24.4437 40.41L16.8113 40.4385L9.17887 40.467V30.988V21.509H16.8393H24.4996L24.4717 30.9595ZM32.2042 26.6533C31.4049 27.0096 31.4964 28.1317 32.3452 28.3819C32.6347 28.4672 35.0286 28.4941 40.2742 28.4709L47.7885 28.4375L48.0708 28.1688C48.4598 27.7984 48.4598 27.1921 48.0708 26.8217L47.7885 26.553L40.1648 26.528C33.9495 26.5078 32.4789 26.5309 32.2042 26.6533ZM31.9783 33.7442C31.5819 34.0895 31.5634 34.6836 31.9365 35.0859L32.1964 35.366H39.9863C47.7017 35.366 47.7793 35.3638 48.0648 35.1362C48.354 34.9058 48.448 34.4151 48.2851 33.9853C48.0954 33.4844 48.0483 33.4815 39.9388 33.4815H32.2798L31.9783 33.7442ZM32.0209 40.62C31.7028 40.8647 31.57 41.4016 31.7391 41.7589C32.0235 42.3597 31.8389 42.3465 40.0149 42.3483C48.0436 42.3501 48.0954 42.3469 48.2851 41.8461C48.434 41.4532 48.3514 40.9459 48.0999 40.7064L47.8466 40.4654L40.0298 40.469C33.6937 40.4718 32.1765 40.5004 32.0209 40.62Z" fill="#DFB68D"/>
</svg>
