<svg width="50" height="50" viewBox="0 0 50 50" fill="none" xmlns="http://www.w3.org/2000/svg">
<path d="M14.771 10.1562C13.4788 10.1562 12.4272 9.10469 12.4272 7.8125C12.4272 7.38047 12.7765 7.03125 13.2085 7.03125C13.6405 7.03125 13.9897 7.38047 13.9897 7.8125C13.9897 8.24375 14.3397 8.59375 14.771 8.59375C15.203 8.59375 15.5522 8.94297 15.5522 9.375C15.5522 9.80703 15.203 10.1562 14.771 10.1562Z" fill="white"/>
<path d="M13.2085 8.59375C12.7765 8.59375 12.4272 8.24453 12.4272 7.8125V6.25C12.4272 5.81797 12.7765 5.46875 13.2085 5.46875C13.6405 5.46875 13.9897 5.81797 13.9897 6.25V7.8125C13.9897 8.24453 13.6405 8.59375 13.2085 8.59375Z" fill="white"/>
<path d="M35.2288 10.1562H14.771C14.339 10.1562 13.9897 9.80703 13.9897 9.375C13.9897 8.94297 14.339 8.59375 14.771 8.59375H35.2288C35.6608 8.59375 36.0101 8.94297 36.0101 9.375C36.0101 9.80703 35.6608 10.1562 35.2288 10.1562Z" fill="white"/>
<path d="M13.2085 7.03125C12.7765 7.03125 12.4272 6.68203 12.4272 6.25C12.4272 4.95781 13.4788 3.90625 14.771 3.90625C15.203 3.90625 15.5522 4.25547 15.5522 4.6875C15.5522 5.11953 15.203 5.46875 14.771 5.46875C14.3397 5.46875 13.9897 5.81875 13.9897 6.25C13.9897 6.68203 13.6405 7.03125 13.2085 7.03125Z" fill="white"/>
<path d="M35.2288 5.46875H14.771C14.339 5.46875 13.9897 5.11953 13.9897 4.6875C13.9897 4.25547 14.339 3.90625 14.771 3.90625H35.2288C35.6608 3.90625 36.0101 4.25547 36.0101 4.6875C36.0101 5.11953 35.6608 5.46875 35.2288 5.46875Z" fill="white"/>
<path d="M36.7913 7.03125C36.3592 7.03125 36.01 6.68203 36.01 6.25C36.01 5.81875 35.66 5.46875 35.2288 5.46875C34.7967 5.46875 34.4475 5.11953 34.4475 4.6875C34.4475 4.25547 34.7967 3.90625 35.2288 3.90625C36.5209 3.90625 37.5725 4.95781 37.5725 6.25C37.5725 6.68203 37.2233 7.03125 36.7913 7.03125Z" fill="white"/>
<path d="M36.7913 8.59375C36.3592 8.59375 36.01 8.24453 36.01 7.8125V6.25C36.01 5.81797 36.3592 5.46875 36.7913 5.46875C37.2233 5.46875 37.5725 5.81797 37.5725 6.25V7.8125C37.5725 8.24453 37.2233 8.59375 36.7913 8.59375Z" fill="white"/>
<path d="M35.2288 10.1562C34.7967 10.1562 34.4475 9.80703 34.4475 9.375C34.4475 8.94297 34.7967 8.59375 35.2288 8.59375C35.66 8.59375 36.01 8.24375 36.01 7.8125C36.01 7.38047 36.3592 7.03125 36.7913 7.03125C37.2233 7.03125 37.5725 7.38047 37.5725 7.8125C37.5725 9.10469 36.5209 10.1562 35.2288 10.1562Z" fill="white"/>
<path d="M39.9163 16.7109C39.4842 16.7109 39.135 16.3617 39.135 15.9297C39.135 15.4984 38.785 15.1484 38.3538 15.1484C37.9217 15.1484 37.5725 14.7992 37.5725 14.3672C37.5725 13.9352 37.9217 13.5859 38.3538 13.5859C39.6459 13.5859 40.6975 14.6375 40.6975 15.9297C40.6975 16.3609 40.3483 16.7109 39.9163 16.7109Z" fill="white"/>
<path d="M38.3538 15.1484H11.646C11.214 15.1484 10.8647 14.7992 10.8647 14.3672C10.8647 13.9352 11.214 13.5859 11.646 13.5859H38.3538C38.7858 13.5859 39.1351 13.9352 39.1351 14.3672C39.1351 14.7992 38.7858 15.1484 38.3538 15.1484Z" fill="white"/>
<path d="M39.9163 18.2734C39.4842 18.2734 39.135 17.9242 39.135 17.4922V15.9297C39.135 15.4977 39.4842 15.1484 39.9163 15.1484C40.3483 15.1484 40.6975 15.4977 40.6975 15.9297V17.4922C40.6975 17.9234 40.3483 18.2734 39.9163 18.2734Z" fill="white"/>
<path d="M38.3538 19.8359C37.9217 19.8359 37.5725 19.4867 37.5725 19.0547C37.5725 18.6227 37.9217 18.2734 38.3538 18.2734C38.785 18.2734 39.135 17.9234 39.135 17.4922C39.135 17.0602 39.4842 16.7109 39.9163 16.7109C40.3483 16.7109 40.6975 17.0602 40.6975 17.4922C40.6975 18.7844 39.6459 19.8359 38.3538 19.8359Z" fill="white"/>
<path d="M38.3538 19.8359H11.646C11.214 19.8359 10.8647 19.4867 10.8647 19.0547C10.8647 18.6227 11.214 18.2734 11.646 18.2734H38.3538C38.7858 18.2734 39.1351 18.6227 39.1351 19.0547C39.1351 19.4867 38.7858 19.8359 38.3538 19.8359Z" fill="white"/>
<path d="M11.646 19.8359C10.3538 19.8359 9.30225 18.7844 9.30225 17.4922C9.30225 17.0602 9.65146 16.7109 10.0835 16.7109C10.5155 16.7109 10.8647 17.0602 10.8647 17.4922C10.8647 17.9234 11.2147 18.2734 11.646 18.2734C12.078 18.2734 12.4272 18.6227 12.4272 19.0547C12.4272 19.4867 12.078 19.8359 11.646 19.8359Z" fill="white"/>
<path d="M10.0835 18.2734C9.65146 18.2734 9.30225 17.9242 9.30225 17.4922V15.9297C9.30225 15.4977 9.65146 15.1484 10.0835 15.1484C10.5155 15.1484 10.8647 15.4977 10.8647 15.9297V17.4922C10.8647 17.9234 10.5155 18.2734 10.0835 18.2734Z" fill="white"/>
<path d="M10.0835 16.7109C9.65146 16.7109 9.30225 16.3617 9.30225 15.9297C9.30225 14.6375 10.3538 13.5859 11.646 13.5859C12.078 13.5859 12.4272 13.9352 12.4272 14.3672C12.4272 14.7992 12.078 15.1484 11.646 15.1484C11.2147 15.1484 10.8647 15.4984 10.8647 15.9297C10.8647 16.3609 10.5155 16.7109 10.0835 16.7109Z" fill="white"/>
<path d="M25 36.1164C24.568 36.1164 24.2188 35.7672 24.2188 35.3352V20.3164C24.2188 19.8844 24.568 19.5352 25 19.5352C25.432 19.5352 25.7812 19.8844 25.7812 20.3164V35.3352C25.7812 35.7664 25.432 36.1164 25 36.1164Z" fill="white"/>
<path d="M38.8008 39.246C38.7195 39.246 38.6375 39.2335 38.5562 39.2062C38.1469 39.071 37.9234 38.6296 38.0594 38.2195L41.5406 27.6656C41.6758 27.257 42.1133 27.0288 42.5273 27.1687C42.9367 27.3038 43.1601 27.7453 43.0242 28.1554L39.543 38.7093C39.4344 39.0382 39.1289 39.246 38.8008 39.246Z" fill="white"/>
<path d="M11.1991 39.2461C10.871 39.2461 10.5655 39.0375 10.4577 38.7094L6.97642 28.1563C6.84049 27.7469 7.06314 27.3047 7.4733 27.1696C7.8858 27.0289 8.32486 27.2571 8.46002 27.6664L11.9413 38.2203C12.0772 38.6297 11.8545 39.0719 11.4444 39.2071C11.3624 39.2344 11.2795 39.2461 11.1991 39.2461Z" fill="white"/>
<path d="M32.0304 41.4063C31.2757 41.4063 30.5187 41.2852 29.7905 41.0399C29.1913 40.8384 28.6913 40.5392 28.2077 40.2493C27.9085 40.0704 27.6257 39.9009 27.3312 39.7618C26.6398 39.436 25.8694 39.2563 25.1038 39.2415C24.3569 39.2251 23.5648 39.3774 22.8624 39.6759C22.5233 39.8196 22.1968 40.0173 21.8523 40.2259C21.4233 40.4845 20.9804 40.7532 20.4655 40.9485C18.5929 41.6595 16.5015 41.5376 14.7257 40.6134C14.4593 40.4751 14.2046 40.3259 13.953 40.1767C13.4608 39.8876 12.9968 39.6142 12.4804 39.4618C11.7515 39.2485 10.9663 39.1868 10.2116 39.2884C9.35616 39.4024 8.58975 39.8063 7.77882 40.2337C6.87178 40.7118 5.9335 41.2056 4.78585 41.3509C4.35616 41.3985 3.9671 41.1017 3.91319 40.6735C3.85928 40.2454 4.16241 39.8548 4.59053 39.8009C5.45616 39.6915 6.23116 39.2837 7.04991 38.8517C7.94678 38.3798 8.87413 37.8915 10.0046 37.7399C10.978 37.611 11.9843 37.6868 12.921 37.9634C13.6226 38.1696 14.1929 38.5056 14.7452 38.8298C14.9741 38.9649 15.2046 39.1009 15.4468 39.2274C16.8069 39.9337 18.4741 40.0321 19.9101 39.4876C20.2921 39.3415 20.6569 39.1212 21.0429 38.8876C21.4194 38.6595 21.8093 38.4235 22.2515 38.236C23.1538 37.854 24.1491 37.6618 25.1327 37.6782C26.1171 37.697 27.1062 37.9282 27.996 38.3477C28.3608 38.5196 28.6905 38.7173 29.0093 38.9079C29.4413 39.1665 29.8483 39.4102 30.2874 39.5571C31.7421 40.047 33.4069 39.8852 34.7398 39.1243C36.3038 38.2306 38.0171 37.3892 40.2593 37.7798C41.296 37.9587 42.1562 38.4157 42.9866 38.8579C43.7929 39.2868 44.5538 39.6915 45.4093 39.7993C45.8374 39.8532 46.1413 40.2438 46.0866 40.672C46.0335 41.1001 45.6421 41.397 45.214 41.3493C44.0741 41.2048 43.1483 40.7134 42.2538 40.2368C41.4976 39.8345 40.7835 39.4556 39.9937 39.3188C38.4273 39.0477 37.1632 39.5392 35.5148 40.4798C34.4437 41.0946 33.2405 41.4063 32.0304 41.4063Z" fill="white"/>
<path d="M16.3335 12.0234C15.9015 12.0234 15.5522 11.6742 15.5522 11.2422V9.375C15.5522 8.94297 15.9015 8.59375 16.3335 8.59375C16.7655 8.59375 17.1147 8.94297 17.1147 9.375V11.2422C17.1147 11.6734 16.7655 12.0234 16.3335 12.0234Z" fill="white"/>
<path d="M33.6663 15.1484C33.2342 15.1484 32.885 14.7992 32.885 14.3672V9.375C32.885 8.94297 33.2342 8.59375 33.6663 8.59375C34.0983 8.59375 34.4475 8.94297 34.4475 9.375V14.3672C34.4475 14.7984 34.0983 15.1484 33.6663 15.1484Z" fill="white"/>
<path d="M32.0304 46.0938C31.2757 46.0938 30.5187 45.9727 29.7905 45.7273C29.1913 45.5258 28.6913 45.2266 28.2077 44.9367C27.9085 44.7578 27.6257 44.5883 27.3312 44.4492C26.6398 44.1234 25.8694 43.9438 25.1038 43.9289C24.3569 43.9148 23.5648 44.0656 22.8624 44.3633C22.5233 44.507 22.1968 44.7047 21.8523 44.9133C21.4233 45.1719 20.9804 45.4406 20.4655 45.6359C18.5929 46.3477 16.5015 46.225 14.7257 45.3008C14.4593 45.1625 14.2046 45.0133 13.953 44.8641C13.4608 44.575 12.9968 44.3016 12.4804 44.1492C11.7515 43.9359 10.9663 43.8742 10.2116 43.9758C9.35616 44.0899 8.58975 44.4938 7.77882 44.9211C6.87178 45.3992 5.9335 45.893 4.78585 46.0383C4.35616 46.0875 3.9671 45.7891 3.91319 45.3609C3.85928 44.9328 4.16241 44.5422 4.59053 44.4883C5.45616 44.3789 6.23116 43.9711 7.04991 43.5391C7.94678 43.0672 8.87413 42.5789 10.0046 42.4273C10.978 42.2992 11.9843 42.3742 12.921 42.6508C13.6226 42.857 14.1929 43.193 14.7452 43.5172C14.9741 43.6523 15.2046 43.7883 15.4468 43.9148C16.8069 44.6211 18.4741 44.7195 19.9101 44.175C20.2921 44.0289 20.6569 43.8086 21.0429 43.575C21.4194 43.3469 21.8093 43.1109 22.2515 42.9234C23.1538 42.5414 24.1491 42.35 25.1327 42.3656C26.1171 42.3844 27.1062 42.6156 27.996 43.0352C28.3608 43.207 28.6905 43.4047 29.0093 43.5953C29.4413 43.8539 29.8483 44.0977 30.2874 44.2445C31.7421 44.7344 33.4069 44.5719 34.7398 43.8117C36.3038 42.918 38.0171 42.0758 40.2593 42.4672C41.296 42.6461 42.1562 43.1031 42.9866 43.5453C43.7929 43.9742 44.5538 44.3789 45.4093 44.4867C45.8374 44.5406 46.1413 44.9313 46.0866 45.3594C46.0335 45.7875 45.6421 46.0867 45.214 46.0367C44.0741 45.8922 43.1483 45.4008 42.2538 44.9242C41.4976 44.5219 40.7835 44.143 39.9937 44.0063C38.4273 43.7352 37.1632 44.2266 35.5148 45.1672C34.4437 45.782 33.2405 46.0938 32.0304 46.0938Z" fill="white"/>
<path d="M42.2828 28.693C42.2117 28.693 42.1406 28.6837 42.0703 28.6641C35.9109 26.9258 30.0305 24.3415 24.5898 20.9813C24.2226 20.7548 24.1094 20.2735 24.3359 19.9063C24.5617 19.5383 25.0445 19.4266 25.4109 19.6524C30.7281 22.936 36.4758 25.4626 42.4945 27.1594C42.9094 27.2766 43.1515 27.7087 43.0344 28.1235C42.9367 28.4673 42.6234 28.693 42.2828 28.693Z" fill="white"/>
<path d="M7.71709 28.693C7.37647 28.693 7.06319 28.468 6.96553 28.1235C6.84912 27.7087 7.09053 27.2766 7.50537 27.1594C13.5241 25.4618 19.2726 22.936 24.589 19.6524C24.9562 19.4266 25.4382 19.5383 25.664 19.9063C25.8905 20.2735 25.7773 20.7548 25.4101 20.9813C19.9694 24.3415 14.089 26.9258 7.92959 28.6641C7.85928 28.6837 7.7874 28.693 7.71709 28.693Z" fill="white"/>
<path d="M13.2085 26.8875C12.7765 26.8875 12.4272 26.5383 12.4272 26.1063V19.0547C12.4272 18.6227 12.7765 18.2734 13.2085 18.2734C13.6405 18.2734 13.9897 18.6227 13.9897 19.0547V26.1063C13.9897 26.5383 13.6405 26.8875 13.2085 26.8875Z" fill="white"/>
<path d="M36.7913 26.8875C36.3592 26.8875 36.01 26.5383 36.01 26.1063V19.0547C36.01 18.6227 36.3592 18.2734 36.7913 18.2734C37.2233 18.2734 37.5725 18.6227 37.5725 19.0547V26.1063C37.5725 26.5383 37.2233 26.8875 36.7913 26.8875Z" fill="white"/>
</svg>
