<svg width="50" height="50" viewBox="0 0 50 50" fill="none" xmlns="http://www.w3.org/2000/svg">
<path fill-rule="evenodd" clip-rule="evenodd" d="M21.4972 0.159114C20.0599 0.67133 19.1832 2.10706 19.1906 3.9367C19.1968 5.46758 19.8258 6.72589 21.466 8.48802L22.2468 9.32693L21.4461 9.4469C17.8523 9.9854 14.124 11.6228 11.0062 14.0319C9.06698 15.5305 6.85949 18.0738 5.54369 20.3255C3.91611 23.1106 2.87225 26.3654 2.57036 29.5961L2.45488 30.8315L1.99162 30.8929C1.339 30.9793 0.67797 31.4608 0.300922 32.1244C0.0397375 32.5842 -0.00243947 32.7549 0.000104854 33.343C0.00343204 34.1229 0.208543 34.6096 0.74696 35.115C1.24007 35.5777 1.67759 35.7571 2.47485 35.8232L3.19783 35.883L2.01041 36.9439C1.3573 37.5273 0.758312 38.1296 0.679145 38.2823C0.330181 38.9561 0.404358 39.1964 2.55 44.3401C3.83625 47.4235 4.65885 49.2711 4.82521 49.4503C5.13904 49.7883 5.60319 50 6.03034 50C6.66769 50 7.09161 49.6637 8.70657 47.877C9.56772 46.9244 10.5239 45.8912 10.8314 45.5812L11.3904 45.0175H18.484C23.2996 45.0175 25.744 44.9828 26.0961 44.9092C27.19 44.6808 27.5095 44.4236 32.1608 40.0265L36.5893 35.8401L42.4153 35.8127C48.8878 35.7823 48.4998 35.8219 49.253 35.115C49.7915 34.6096 49.9966 34.1229 49.9999 33.343C50.0024 32.7549 49.9603 32.5842 49.6991 32.1244C49.3172 31.4524 48.6622 30.9795 47.9896 30.8904L47.5074 30.8265V30.4045C47.5074 29.7868 47.2363 27.8248 47.0099 26.8041C45.3017 19.1038 39.6438 12.8216 32.1824 10.3404C30.8052 9.88253 28.5685 9.35878 27.9898 9.35878C27.7435 9.35878 27.7794 9.30065 28.531 8.48236C29.9119 6.97902 30.4871 6.02767 30.7409 4.82738C31.0813 3.21668 30.4677 1.41782 29.2865 0.563474C28.1543 -0.255309 26.5729 -0.172562 25.3836 0.767755L25 1.0711L24.6164 0.767755C23.706 0.0480342 22.4802 -0.191221 21.4972 0.159114ZM23.0918 1.82365C23.4611 1.99207 24.1193 2.57043 24.1193 2.72654C24.1193 2.76601 24.2333 2.93346 24.3726 3.09876C24.7313 3.52432 25.2687 3.52432 25.6274 3.09876C25.7667 2.93346 25.8807 2.76601 25.8807 2.72654C25.8807 2.56134 26.5485 1.98728 26.9463 1.81055C28.104 1.29619 29.1426 2.30167 29.1426 3.9367C29.1426 5.15574 28.6072 6.04183 26.6773 8.01547L25.555 9.16339H24.9971H24.4392L23.3646 8.05592C21.9952 6.64481 21.5207 6.04555 21.1473 5.25558C20.7491 4.41316 20.7345 3.51162 21.1061 2.70134C21.5415 1.75184 22.2487 1.43921 23.0918 1.82365ZM27.0691 10.9278C32.8799 11.5219 38.0876 14.4337 41.6478 19.0795C43.2432 21.1613 44.5541 23.8895 45.2086 26.4901C45.5148 27.7066 45.8438 29.7931 45.8438 30.5188V30.8517H25H4.15615V30.5148C4.15615 29.9073 4.45169 27.9108 4.69066 26.9045C6.91018 17.5561 15.2258 10.9169 24.8184 10.8348C25.4989 10.829 26.5117 10.8708 27.0691 10.9278ZM19.0961 14.0969C14.9481 15.5666 11.3456 18.7503 9.368 22.6942C8.71146 24.0035 8.16835 25.48 8.16835 25.9556C8.16835 26.4228 8.5085 26.7485 8.99633 26.7485C9.42407 26.7485 9.64836 26.4677 9.97129 25.5273C11.0939 22.2589 13.325 19.3405 16.1438 17.4536C17.1262 16.796 18.8818 15.9163 19.7397 15.6516C20.4302 15.4385 20.7334 15.1417 20.7334 14.6783C20.7334 13.9476 20.1261 13.7319 19.0961 14.0969ZM48.0052 32.6378C48.4541 32.9819 48.494 33.4965 48.1021 33.8878L47.8161 34.1734H25H2.18391L1.89787 33.8878C1.50595 33.4965 1.54588 32.9819 1.99475 32.6378C2.22149 32.464 47.7785 32.464 48.0052 32.6378ZM25.4854 35.994C26.3075 36.4788 26.2329 37.6027 25.3425 38.1462C25.0718 38.3114 24.6869 38.3292 20.4164 38.3743L15.7838 38.4231L15.5969 38.6538C15.3425 38.9674 15.3619 39.3824 15.6461 39.7121L15.8823 39.9862H20.6124H25.3425L25.8952 39.7275C26.5972 39.399 27.2027 38.7958 27.5157 38.1131C27.7248 37.6574 27.7543 37.4758 27.7171 36.8775C27.6931 36.4918 27.6397 36.0991 27.5984 36.0052C27.5278 35.8443 27.7177 35.8342 30.8351 35.8342H34.1469L33.7569 36.216C31.5458 38.3807 26.6271 42.9327 26.3211 43.0973C25.9324 43.3064 25.877 43.3083 18.4435 43.3567C9.8657 43.4127 10.7495 43.3061 9.6376 44.419C9.28188 44.7751 8.33353 45.8026 7.53012 46.7024C6.14796 48.2506 6.06351 48.3267 5.95773 48.119C5.89627 47.9983 5.01848 45.9095 4.00702 43.4772L2.16806 39.0547L2.4037 38.801C2.84759 38.323 4.49846 36.9893 5.36138 36.4117L6.224 35.8342H15.7192C24.3335 35.8342 25.2396 35.849 25.4854 35.994Z" fill="#DFB68D"/>
</svg>
