<svg width="50" height="50" viewBox="0 0 50 50" fill="none" xmlns="http://www.w3.org/2000/svg">
<path fill-rule="evenodd" clip-rule="evenodd" d="M20.8033 0.132659C19.5973 0.459341 18.5809 1.32764 18.0391 2.49416C17.4572 3.74654 17.5693 5.40063 18.3236 6.6919C18.9742 7.80585 20.7857 9.65577 22.7989 11.2618C24.8515 12.8995 25.0722 12.9164 26.8146 11.5691C29.2896 9.65528 31.165 7.69321 31.8648 6.28567L32.277 5.45636V4.31651C32.277 3.23831 32.2601 3.14073 31.9642 2.5112C30.9389 0.330854 28.4685 -0.585884 26.3059 0.411491C26.0061 0.549725 25.5886 0.8003 25.378 0.968268L24.9951 1.27378L24.6876 1.01316C23.6558 0.138567 22.0909 -0.216176 20.8033 0.132659ZM22.6934 1.69321C22.9493 1.7708 23.4201 2.04116 23.7395 2.2939C24.6494 3.01412 25.386 3.02357 26.2195 2.3258C26.8861 1.76774 27.2719 1.61878 28.0744 1.60933C29.6391 1.59101 30.7351 2.67976 30.7547 4.27191C30.7686 5.39679 30.4188 6.01284 28.8163 7.68593C27.7749 8.7732 25.2571 10.9017 25.0092 10.9042C24.7499 10.9069 22.7784 9.26282 21.4689 7.95186C20.0999 6.58143 19.6743 6.0411 19.3926 5.31615C19.2035 4.82918 19.1789 3.89649 19.3426 3.41287C19.8192 2.00394 21.2673 1.26079 22.6934 1.69321ZM5.87817 6.1175C5.06598 6.38343 4.07728 7.29367 3.92081 7.91986C3.87292 8.11117 3.80313 8.13361 3.2652 8.13066C2.12823 8.12456 1.22887 8.5559 0.621145 9.39899C-0.47682 10.922 -0.0818694 12.9868 1.51064 14.0494C2.37756 14.6279 5.0652 15.3478 6.87801 15.4871C7.9099 15.5665 8.17379 15.4054 8.62367 14.422C9.4813 12.5474 10.0995 10.1623 10.0195 9.03657C9.93313 7.82003 9.25905 6.78071 8.22647 6.27208C7.64973 5.98793 6.50426 5.91251 5.87817 6.1175ZM42.0763 6.12695C40.7897 6.61993 39.9493 7.87497 39.9493 9.30309C39.9493 10.3738 40.6124 12.7771 41.3542 14.3942C41.8205 15.4109 42.0732 15.5669 43.1257 15.487C44.6421 15.372 47.2193 14.7395 48.1573 14.2522C49.5468 13.5301 50.3159 11.8065 49.8763 10.3998C49.554 9.36916 48.6855 8.49643 47.7208 8.23414C47.505 8.17546 47.0612 8.12889 46.7344 8.13066C46.146 8.13381 46.1395 8.13076 46.0196 7.79669C45.8531 7.33286 45.0827 6.5641 44.494 6.27444C43.8959 5.98005 42.6569 5.90454 42.0763 6.12695ZM7.70642 7.78035C8.14154 8.07159 8.47833 8.75065 8.47833 9.33657C8.47833 9.58783 8.3632 10.2541 8.22236 10.8172C7.96336 11.8532 7.26045 13.8149 7.11599 13.9048C6.85328 14.0684 3.40506 13.2812 2.62229 12.8789C1.56645 12.3363 1.22271 11.1211 1.8967 10.3143C2.27308 9.86361 2.66871 9.69525 3.29354 9.71996C4.63409 9.77283 4.86093 9.66689 5.24738 8.80726C5.66481 7.87881 6.07335 7.57605 6.92453 7.56423C7.23611 7.5599 7.47644 7.62636 7.70642 7.78035ZM43.8392 7.69636C44.2337 7.90313 44.4991 8.23355 44.7707 8.8557C45.1217 9.6599 45.3722 9.77224 46.6979 9.71996C48.6067 9.64464 49.1044 11.987 47.3691 12.8789C46.5864 13.2812 43.1381 14.0684 42.8754 13.9048C42.731 13.8149 42.0281 11.8532 41.7691 10.8172C41.6282 10.2541 41.5131 9.58783 41.5131 9.33657C41.5131 8.75065 41.8499 8.07159 42.285 7.78035C42.6739 7.52003 43.4252 7.47936 43.8392 7.69636ZM18.2597 16.0545C18.0269 16.1294 17.4196 16.68 16.2615 17.8663C14.4545 19.7175 14.1052 19.9637 13.2854 19.9637H12.7787L12.7766 19.4468C12.7727 18.5109 12.1656 17.6475 11.3388 17.4017C11.0982 17.3302 10.1211 17.3031 8.51977 17.3234C6.09074 17.3543 6.06572 17.3567 5.7083 17.6007C5.0952 18.0191 4.82379 18.511 4.78049 19.2824L4.74287 19.9542L4.219 20.0638C2.99124 20.3206 1.62441 21.3563 1.02831 22.4817C0.44395 23.585 0.463986 23.1404 0.463986 34.9767C0.463986 45.1761 0.474541 45.8512 0.642843 46.4629C1.11178 48.1664 2.54703 49.5254 4.25604 49.8844C4.98955 50.0385 45.0019 50.0385 45.7354 49.8844C47.0312 49.6122 48.3426 48.6317 48.9628 47.4712C49.5381 46.3951 49.5244 46.6989 49.526 34.9253C49.5275 23.1446 49.5475 23.585 48.9631 22.4817C48.6236 21.8407 47.6642 20.8742 47.0278 20.5322C46.0075 19.9837 45.7883 19.9637 40.7904 19.9637C36.3678 19.9637 36.1842 19.9563 35.7871 19.7626C35.5275 19.6361 34.7935 18.9603 33.8055 17.9382C32.7408 16.8368 32.1013 16.2531 31.8168 16.123C31.4142 15.9389 31.1403 15.9316 24.9957 15.9391C20.6599 15.9444 18.4861 15.9817 18.2597 16.0545ZM32.959 19.2697C34.2515 20.5648 34.8531 21.0975 35.2103 21.2634C35.6938 21.4879 35.7387 21.4902 40.6823 21.539L45.6669 21.5882L46.1575 21.8491C46.8365 22.2103 47.4988 22.9532 47.7539 23.6399C47.9352 24.1281 47.9637 24.4112 47.9637 25.7272V27.2495H40.9131H33.8625L33.0911 26.5071C29.5861 23.1337 24.1372 22.3317 19.7098 24.5375C18.574 25.1034 17.776 25.6643 16.8803 26.5264L16.1289 27.2495H9.07833H2.02776V25.7272C2.02776 24.4112 2.0562 24.1281 2.2375 23.6399C2.49259 22.9532 3.15495 22.2103 3.83392 21.8491L4.32456 21.5882L9.30909 21.539L14.2936 21.4898L14.8312 21.2224C15.2313 21.0234 15.8057 20.5137 17.078 19.2286L18.7874 17.5022H24.9913H31.1952L32.959 19.2697ZM11.0614 19.0353C11.1489 19.1235 11.2149 19.3565 11.2149 19.5768V19.9637H8.77154H6.32814V19.5403C6.32814 19.3075 6.38092 19.0638 6.44543 18.9988C6.52958 18.914 7.17581 18.8806 8.73528 18.8806C10.58 18.8806 10.9309 18.904 11.0614 19.0353ZM42.8325 22.3581C41.9407 22.7943 41.4849 23.5162 41.4849 24.4927C41.4849 25.1777 41.6834 25.6489 42.1848 26.154C43.1386 27.1148 44.6496 27.0251 45.56 25.9536C46.7879 24.5086 45.8414 22.2976 43.9372 22.1627C43.4273 22.1266 43.237 22.1603 42.8325 22.3581ZM5.00431 23.9468C4.71306 24.2401 4.69107 24.6751 4.95114 24.9987L5.13782 25.2312L8.58711 25.2595C12.2577 25.2896 12.4688 25.2672 12.6683 24.826C12.8373 24.4526 12.8018 24.2116 12.5388 23.9468L12.2989 23.7051H8.77154H5.24415L5.00431 23.9468ZM44.303 23.9468C44.6897 24.3363 44.6142 24.8919 44.1409 25.1384C43.3678 25.5412 42.6746 24.5923 43.2731 23.9504C43.5712 23.6307 43.9878 23.6293 44.303 23.9468ZM27.703 25.2191C31.3204 26.2319 34.102 29.07 35.0798 32.7459C35.3676 33.8281 35.4345 36.0518 35.2147 37.2304C34.3535 41.8471 30.5919 45.3124 25.9658 45.7509C20.6166 46.2579 15.7727 42.5693 14.7767 37.2304C14.5569 36.0518 14.6238 33.8281 14.9116 32.7459C15.8733 29.1306 18.6896 26.2205 22.1535 25.2629C23.3444 24.9336 23.7039 24.8957 25.2889 24.9323C26.5418 24.9613 26.9594 25.0109 27.703 25.2191ZM14.8312 28.8583C14.8312 28.8766 14.6191 29.3114 14.3599 29.8243C13.4531 31.6185 13.0807 33.2165 13.0753 35.3368C13.0701 37.4255 13.433 38.9877 14.3406 40.7838C14.6105 41.3176 14.8312 41.7695 14.8312 41.7878C14.8312 41.8062 11.9504 41.8213 8.42947 41.8213H2.02776V35.3231V28.8249H8.42947C11.9504 28.8249 14.8312 28.8399 14.8312 28.8583ZM47.9637 35.3231V41.8213H41.562C38.041 41.8213 35.1603 41.8062 35.1603 41.7878C35.1603 41.7695 35.3809 41.3176 35.6508 40.7838C36.5537 38.9973 36.9216 37.3982 36.9161 35.2855C36.9106 33.218 36.531 31.6039 35.6315 29.8243C35.3723 29.3114 35.1603 28.8766 35.1603 28.8583C35.1603 28.8399 38.041 28.8249 41.562 28.8249H47.9637V35.3231ZM20.2542 29.7896C17.5515 30.7311 16.3601 33.6538 17.6093 36.278C18.035 37.172 18.8651 38.1909 20.3261 39.6122C21.4919 40.7463 23.6053 42.4795 24.2455 42.8263C24.635 43.0373 25.3092 43.049 25.7213 42.852C26.3797 42.5372 29.0849 40.2421 30.3319 38.9402C32.3764 36.8058 32.843 35.9259 32.8505 34.1908C32.8539 33.4103 32.8098 33.0837 32.6383 32.6155C32.1816 31.3692 31.2319 30.3878 30.0022 29.8912C29.5334 29.7018 29.2605 29.6649 28.3187 29.6635C27.2278 29.6618 27.1731 29.6722 26.4567 30.0169C26.0507 30.2121 25.554 30.5175 25.3527 30.6956L24.9868 31.0192L24.7225 30.7747C23.8697 29.9862 22.8788 29.6162 21.6238 29.6178C21.0455 29.6185 20.5764 29.6774 20.2542 29.7896ZM22.6571 31.337C22.8951 31.419 23.3718 31.7063 23.7164 31.9755C24.7283 32.7657 25.2646 32.7587 26.3358 31.9412C27.1525 31.3179 27.6879 31.1439 28.5888 31.2094C30.5539 31.3521 31.7566 33.1631 31.1673 35.0921C31.0542 35.4628 30.8836 35.8831 30.7885 36.0259C30.3743 36.6481 28.8926 38.2508 27.968 39.0769C26.9529 39.9836 25.1287 41.4274 24.9981 41.4274C24.7773 41.4274 22.1657 39.2659 21.1326 38.2281C19.3858 36.4734 18.7925 35.5462 18.6711 34.3803C18.5391 33.1131 19.419 31.7444 20.6465 31.3077C21.0843 31.1519 22.1658 31.1677 22.6571 31.337ZM16.6262 43.9563C19.0827 46.2497 21.8011 47.353 24.9957 47.353C28.1804 47.353 30.7706 46.3148 33.2719 44.0359L33.9735 43.3966H40.9782H47.9828L47.9488 44.7011C47.9178 45.8896 47.8907 46.0551 47.6441 46.5612C47.3281 47.2092 46.6734 47.8546 46.0261 48.1559L45.5691 48.3687H24.9957H4.42229L3.87087 48.096C3.22581 47.7768 2.58486 47.1157 2.29038 46.4661C2.11944 46.0887 2.07526 45.7706 2.04516 44.7011L2.00861 43.3966H9.01764H16.0268L16.6262 43.9563Z" fill="#DFB68D"/>
</svg>
