<svg width="50" height="50" viewBox="0 0 50 50" fill="none" xmlns="http://www.w3.org/2000/svg">
<path d="M38.6716 29.2969C37.8504 29.2963 37.0339 29.4201 36.2498 29.6641L34.3748 25.2071C34.9542 25.1125 35.525 24.9714 36.0818 24.7852C37.6443 24.2852 38.0857 21.7696 37.1756 20.9571C36.6482 20.4922 34.8318 19.8477 34.5154 19.8399C33.6638 18.7188 30.8357 15.0781 30.0779 14.1602C29.4033 13.2699 28.8283 12.3085 28.3631 11.293C29.0388 11.0313 29.3982 10.5117 29.6834 9.77346C29.8315 9.74396 29.9678 9.67219 30.076 9.56681C30.1841 9.46144 30.2594 9.32698 30.2927 9.17971L30.5779 7.9219L32.0779 8.14846C32.2784 8.17129 32.48 8.11564 32.6404 7.99317C32.8008 7.8707 32.9076 7.69091 32.9384 7.49146C32.9692 7.29201 32.9216 7.08838 32.8056 6.92323C32.6896 6.75808 32.5142 6.64421 32.3162 6.60549L31.1013 6.41799C31.1208 5.93422 31.0395 5.45169 30.8625 5.00103C30.6856 4.55037 30.4168 4.14143 30.0734 3.80018C29.7299 3.45893 29.3192 3.19283 28.8675 3.01877C28.4157 2.8447 27.9326 2.76649 27.449 2.78908C24.781 2.78908 23.8826 4.65237 23.1521 7.22268C22.1845 7.53607 21.2471 7.93613 20.3513 8.41799L14.2381 6.74612C14.1094 6.71809 13.9761 6.71809 13.8474 6.74612L10.7224 7.4883C10.6097 7.4979 10.5003 7.53188 10.402 7.5879C10.3037 7.64391 10.2187 7.72062 10.1529 7.81271C10.0871 7.90481 10.0422 8.01009 10.0211 8.12128C10 8.23247 10.0034 8.34691 10.0309 8.45668C10.0584 8.56646 10.1094 8.66894 10.1805 8.75705C10.2515 8.84515 10.3408 8.91678 10.4422 8.96696C10.5437 9.01715 10.6548 9.0447 10.7679 9.04771C10.881 9.05072 10.9935 9.02912 11.0974 8.9844L12.9216 8.5508L10.5466 16.9727C10.5188 17.0719 10.5109 17.1757 10.5233 17.2781C10.5358 17.3804 10.5683 17.4793 10.6192 17.569C10.67 17.6587 10.7381 17.7374 10.8195 17.8007C10.9009 17.8639 10.994 17.9104 11.0935 17.9375L15.3201 19.1094L14.4529 23.2774C14.4173 23.4462 14.4386 23.6221 14.5135 23.7776C14.5884 23.9331 14.7127 24.0593 14.867 24.1367C14.867 24.1367 15.5076 24.4571 16.3904 24.9961H15.6248C15.4176 24.9961 15.2189 25.0784 15.0723 25.2249C14.9258 25.3715 14.8435 25.5702 14.8435 25.7774C14.8435 25.9846 14.9258 26.1833 15.0723 26.3298C15.2189 26.4763 15.4176 26.5586 15.6248 26.5586H17.6052L18.0662 27.0313L16.2068 30.0313C14.7987 29.3935 13.239 29.1665 11.7075 29.3766C10.176 29.5867 8.73498 30.2252 7.5506 31.2187C6.36622 32.2121 5.48665 33.52 5.01326 34.9915C4.53986 36.4631 4.49191 38.0385 4.87493 39.5361C5.25795 41.0338 6.05635 42.3927 7.17812 43.4563C8.29988 44.52 9.69936 45.245 11.2153 45.5478C12.7311 45.8506 14.3018 45.719 15.7461 45.168C17.1904 44.617 18.4496 43.6691 19.3787 42.4336C20.0271 42.5508 19.824 42.4571 20.2888 42.7383C20.8982 43.1055 21.7341 43.6055 22.531 43.6055C23.4527 43.5122 24.335 43.1841 25.0935 42.6524C25.2701 42.477 25.4009 42.261 25.4745 42.0233C25.548 41.7856 25.5621 41.5335 25.5154 41.2891C25.4382 40.9405 25.2618 40.6217 25.0076 40.3711L26.0701 37.8906L33.7576 27.7344L34.8084 30.25C33.039 31.1867 31.6732 32.7381 30.9683 34.6119C30.2635 36.4858 30.2682 38.5527 30.9817 40.4233C31.6951 42.2939 33.068 43.839 34.8417 44.7675C36.6154 45.696 38.6674 45.9439 40.6112 45.4643C42.5549 44.9848 44.2562 43.8109 45.3945 42.164C46.5327 40.517 47.0294 38.5107 46.791 36.5229C46.5525 34.5351 45.5954 32.7032 44.0998 31.3722C42.6043 30.0412 40.6737 29.3031 38.6716 29.2969ZM34.7654 21.5274C35.2185 21.6728 35.6578 21.8584 36.0779 22.0821C36.1482 22.4375 35.949 23.1914 35.617 23.2969C35.0069 23.5056 34.373 23.6369 33.7302 23.6875C33.5115 23.2578 33.3396 22.9063 33.2381 22.6328C33.8045 22.4688 34.4138 22.461 34.7654 21.5274ZM22.5818 9.08987C22.9822 8.9075 23.3996 8.76489 23.8279 8.66408C23.9802 8.63283 24.2693 8.84377 24.5779 9.1758C23.9858 9.28013 23.4094 9.45999 22.8631 9.71096C22.8662 9.59291 22.8425 9.47569 22.7938 9.36811C22.745 9.26054 22.6726 9.1654 22.5818 9.08987ZM28.906 8.25393C28.7738 8.2908 28.6537 8.36184 28.5577 8.45991C28.4617 8.55797 28.3932 8.67958 28.3591 8.81252C28.2809 9.16759 28.1277 9.50186 27.9099 9.79299C27.7555 9.88313 27.5749 9.9176 27.3982 9.89065C27.2028 9.73283 26.9874 9.60149 26.7576 9.50002C26.531 9.1094 25.7771 7.86721 24.7654 7.34768C24.7966 7.25393 24.824 7.16018 24.8552 7.05862L29.0349 7.69533L28.906 8.25393ZM27.4646 4.34768C27.9684 4.31576 28.4651 4.48018 28.8503 4.80644C29.2356 5.1327 29.4795 5.59547 29.531 6.09768V6.17971L25.4334 5.55471C25.5935 5.1628 25.8767 4.83355 26.2403 4.61656C26.6038 4.39956 27.028 4.30657 27.449 4.35158L27.4646 4.34768ZM14.574 8.45315L21.0935 10.2422L18.5545 18.3594L12.281 16.6406L14.574 8.45315ZM16.8474 19.5039L18.867 20.0586C19.0627 20.1109 19.2711 20.0852 19.4482 19.9868C19.6253 19.8884 19.7572 19.7251 19.8162 19.5313L22.2654 11.7852C23.0857 11.293 24.406 10.6485 25.1287 10.6992C25.8513 10.75 26.4685 10.9219 26.7888 11.6289C27.346 12.8844 28.0473 14.0707 28.8787 15.1641C29.6326 16.0664 32.5701 19.8516 33.3552 20.8672C33.3467 20.9157 33.3323 20.9629 33.3123 21.0078C33.0036 21.0868 32.6998 21.1833 32.4021 21.2969L24.0154 13.875C23.9384 13.8071 23.8489 13.7549 23.7518 13.7216C23.6547 13.6882 23.552 13.6743 23.4495 13.6807C23.347 13.687 23.2468 13.7135 23.1546 13.7586C23.0623 13.8036 22.9798 13.8664 22.9119 13.9434C22.8439 14.0203 22.7918 14.1099 22.7584 14.207C22.7251 14.3041 22.7112 14.4068 22.7175 14.5093C22.7239 14.6118 22.7503 14.712 22.7954 14.8042C22.8405 14.8965 22.9033 14.9789 22.9802 15.0469L24.2576 16.1758C24.2558 16.1888 24.2558 16.2019 24.2576 16.2149C24.1828 17.5871 24.0393 18.9547 23.8279 20.3125C23.6091 21.2696 22.9177 21.6602 22.9177 22.4844C22.9177 22.7969 23.0271 23.7344 23.1287 24.5391C23.1068 24.6833 23.1257 24.8308 23.1834 24.9649C23.1834 25.0391 23.2029 25.1094 23.2107 25.1797C22.3787 25.5039 20.5974 25.961 18.992 24.8164C18.0729 24.1596 17.1155 23.5583 16.1248 23.0156L16.8474 19.5039ZM26.6795 27.9688C26.1599 27.0977 25.0506 25.1328 24.6873 24.4961C24.6287 24.0235 24.5701 23.5547 24.531 23.1875C26.2185 23.9414 27.031 24.5156 28.0466 25C28.7341 25.3321 28.5974 26.1328 28.5193 26.4219C27.9721 27.0113 27.3541 27.5309 26.6795 27.9688ZM19.1834 28.1914C19.5822 28.5885 19.9517 29.0141 20.2888 29.4649C20.4599 29.7958 20.5496 30.1627 20.5506 30.5352C20.4607 30.7813 19.906 31.7383 19.4646 32.6875C18.9423 31.9637 18.3049 31.3303 17.5779 30.8125L19.1834 28.1914ZM18.8513 34.711C18.7576 35.3281 18.6756 36.0274 18.5701 36.7188H13.9021L16.7381 32.1406C17.6514 32.8019 18.3791 33.687 18.8513 34.711ZM12.8279 44.1406C11.8441 44.1434 10.872 43.9275 9.9818 43.5087C9.09162 43.0898 8.30564 42.4783 7.68068 41.7185C7.05571 40.9588 6.60737 40.0696 6.36806 39.1153C6.12876 38.1611 6.10447 37.1656 6.29696 36.2008C6.48944 35.236 6.89389 34.326 7.48107 33.5367C8.06824 32.7473 8.82347 32.0982 9.69216 31.6365C10.5608 31.1747 11.5213 30.9117 12.5041 30.8664C13.4868 30.8212 14.4674 30.9949 15.3748 31.375L11.8357 37.1094C11.7676 37.2272 11.7315 37.3608 11.731 37.4969C11.7304 37.633 11.7654 37.7669 11.8325 37.8853C11.8996 38.0037 11.9965 38.1025 12.1135 38.172C12.2306 38.2414 12.3637 38.2791 12.4998 38.2813H18.1443C17.5388 39.125 17.1873 39.4219 17.0857 39.6563C16.8952 40.0513 16.8614 40.5038 16.9912 40.9227C17.1209 41.3416 17.4045 41.6959 17.7849 41.9141C17.1624 42.6138 16.3989 43.1739 15.5446 43.5576C14.6903 43.9414 13.7644 44.1401 12.8279 44.1406ZM22.531 42.043C21.9568 42.043 20.8787 41.1797 20.3943 41.0391C19.7808 40.9492 19.1785 40.7947 18.5974 40.5781C18.5754 40.573 18.5548 40.5632 18.537 40.5493C18.5191 40.5355 18.5045 40.5179 18.4941 40.4979C18.4837 40.4778 18.4778 40.4558 18.4768 40.4332C18.4757 40.4107 18.4796 40.3881 18.4881 40.3672C18.7068 40.1055 19.242 39.4571 19.574 38.961C20.1131 38.1524 20.2693 35.2774 20.5232 34.2735C20.7381 33.4141 21.9177 31.4414 22.0466 30.9883C22.1798 30.2467 22.0602 29.4819 21.7068 28.8164C21.2811 28.167 20.786 27.5658 20.2302 27.0235C20.5804 27.0912 20.9361 27.1252 21.2927 27.125C22.2346 27.1112 23.1643 26.9094 24.0271 26.5313C24.5271 27.4024 25.1131 28.4297 25.4177 28.9297C25.7693 29.5156 25.3943 30.3906 25.0271 31.086C23.9763 33.0664 21.781 36.3672 21.0545 38.6133C20.3826 40.6953 23.2146 40.4727 23.9373 41.5391C23.5066 41.7988 23.0286 41.9701 22.531 42.043ZM22.5818 39.0039C22.6283 38.7549 22.7044 38.5123 22.8084 38.2813H24.2185L23.7029 39.4844C23.2107 39.2539 22.8591 39.1446 22.5818 39.0039ZM24.9998 36.7188H23.6287C24.2146 35.6563 26.4138 31.8242 26.4216 31.8125C26.823 31.1233 27.0659 30.3534 27.1326 29.5586C28.3943 28.7031 29.7927 27.6055 29.9998 26.8828C30.3357 25.711 30.0662 24.2461 28.7107 23.5938C27.7224 23.1172 26.8631 22.5 24.9724 21.6758C25.1381 21.3568 25.2627 21.0182 25.3435 20.668C25.5317 19.6121 25.6621 18.5467 25.7341 17.4766L30.5857 21.7735L30.4959 21.793C30.3919 21.8113 30.2927 21.8504 30.2042 21.9081C30.1158 21.9658 30.04 22.0408 29.9814 22.1287C29.9227 22.2165 29.8825 22.3153 29.8631 22.4191C29.8438 22.5228 29.8456 22.6295 29.8686 22.7325C29.8916 22.8356 29.9352 22.9329 29.9969 23.0186C30.0585 23.1044 30.1369 23.1767 30.2273 23.2313C30.3177 23.2858 30.4182 23.3215 30.5228 23.3362C30.6274 23.3508 30.7338 23.3441 30.8357 23.3164L31.7576 23.1133C31.906 23.4805 33.0818 26.1016 33.0818 26.1016C32.9529 26.2031 33.5349 25.4688 24.9998 36.7188ZM38.6716 44.1406C37.2054 44.1386 35.7811 43.6513 34.6208 42.7547C33.4606 41.8582 32.6297 40.6029 32.2577 39.1847C31.8857 37.7664 31.9936 36.2649 32.5646 34.9143C33.1355 33.5638 34.1373 32.4402 35.4138 31.7188L37.949 37.8008C38.0288 37.9925 38.1814 38.1446 38.3733 38.2237C38.5653 38.3028 38.7808 38.3024 38.9724 38.2227C39.1641 38.1429 39.3162 37.9903 39.3953 37.7983C39.4744 37.6064 39.4741 37.3909 39.3943 37.1992L36.8552 31.1172C37.7692 30.8548 38.7289 30.7918 39.6693 30.9324C40.6098 31.073 41.5091 31.4139 42.3064 31.9321C43.1037 32.4503 43.7804 33.1337 44.2907 33.936C44.8011 34.7384 45.1332 35.641 45.2645 36.5827C45.3959 37.5245 45.3234 38.4835 45.0521 39.3949C44.7808 40.3063 44.3169 41.1487 43.6918 41.8653C43.0667 42.5819 42.295 43.1559 41.4289 43.5484C40.5628 43.941 39.6225 44.1429 38.6716 44.1406Z" fill="white"/>
<path d="M4.29688 26.9531C4.29688 27.1603 4.37919 27.359 4.5257 27.5056C4.67221 27.6521 4.87092 27.7344 5.07812 27.7344H10.1562C10.3635 27.7344 10.5622 27.6521 10.7087 27.5056C10.8552 27.359 10.9375 27.1603 10.9375 26.9531C10.9375 26.7459 10.8552 26.5472 10.7087 26.4007C10.5622 26.2542 10.3635 26.1719 10.1562 26.1719H5.07812C4.87092 26.1719 4.67221 26.2542 4.5257 26.4007C4.37919 26.5472 4.29688 26.7459 4.29688 26.9531Z" fill="white"/>
<path d="M8.20312 23.0469C7.99592 23.0469 7.79721 23.1292 7.6507 23.2757C7.50419 23.4222 7.42188 23.6209 7.42188 23.8281C7.42188 24.0353 7.50419 24.234 7.6507 24.3806C7.79721 24.5271 7.99592 24.6094 8.20312 24.6094H10.9375C11.1447 24.6094 11.3434 24.5271 11.4899 24.3806C11.6364 24.234 11.7188 24.0353 11.7188 23.8281C11.7188 23.6209 11.6364 23.4222 11.4899 23.2757C11.3434 23.1292 11.1447 23.0469 10.9375 23.0469H8.20312Z" fill="white"/>
<path d="M12.6758 20.7031C12.6758 20.4959 12.5935 20.2972 12.447 20.1507C12.3004 20.0042 12.1017 19.9219 11.8945 19.9219H10.5469C10.3397 19.9219 10.141 20.0042 9.99445 20.1507C9.84794 20.2972 9.76562 20.4959 9.76562 20.7031C9.76562 20.9103 9.84794 21.109 9.99445 21.2556C10.141 21.4021 10.3397 21.4844 10.5469 21.4844H11.8945C11.9971 21.4844 12.0987 21.4642 12.1935 21.4249C12.2883 21.3856 12.3744 21.3281 12.447 21.2556C12.5195 21.183 12.5771 21.0969 12.6163 21.0021C12.6556 20.9073 12.6758 20.8057 12.6758 20.7031Z" fill="white"/>
</svg>
