<svg width="60" height="60" viewBox="0 0 60 60" fill="none" xmlns="http://www.w3.org/2000/svg">
<g clip-path="url(#clip0_2_19214)">
<path d="M56.9998 18.0001H46.9999C45.3431 18.0001 43.9999 19.3433 43.9999 21.0001V31.0001C44.0024 31.7404 44.2805 32.4534 44.7799 33.0001C44.2805 33.5468 44.0024 34.2597 43.9999 35.0001V45C44.0031 45.3415 44.0654 45.6798 44.1838 46H41.9998V5.00023C41.9998 3.34344 40.6566 2.00024 38.9998 2.00024C37.3431 2.00024 35.9999 3.34344 35.9999 5.00023V21.5862L29.4138 15.0002H29.9999C31.6568 15.0002 32.9999 13.657 32.9999 12.0002C32.9999 10.3434 31.6568 9.00018 29.9999 9.00018H2.99999C1.54054 8.99748 0.291913 10.0477 0.0446483 11.4861C-0.202616 12.9244 0.623435 14.3314 2.00003 14.8163V35.1842C0.805661 35.6063 0.00527342 36.7333 0 38.0001V49.0001C0 50.6569 1.3432 52.0001 2.99999 52.0001H4.07998C4.29807 53.5207 5.01197 54.9267 6.11095 56H2.99999C2.44769 56 2.00003 56.4477 2.00003 57C2.00003 57.5523 2.4478 57.9999 2.99999 57.9999H47.9998C48.5521 57.9999 48.9998 57.5523 48.9998 57C48.9998 56.4477 48.552 56 47.9998 56H41.8889C42.9878 54.9267 43.7017 53.5206 43.9198 52.0001H56.9998C58.1854 52.0054 59.2618 51.3089 59.743 50.2253C60.2242 49.1417 60.0189 47.876 59.2198 47.0002C59.7191 46.4535 59.9972 45.7405 59.9998 45.0002V35.0002C59.9972 34.2598 59.7191 33.5469 59.2198 33.0002C59.7191 32.4535 59.9972 31.7406 59.9998 31.0002V21.0002C59.9998 19.3433 58.6567 18.0001 56.9998 18.0001ZM49.9998 20.0002H53.9998V25.0002L53.1088 24.4062C52.4377 23.957 51.5619 23.957 50.8908 24.4062L49.9998 25.0002V20.0002ZM45.9998 21.0001C45.9998 20.4478 46.4474 20.0002 46.9997 20.0002H47.9997V25.0002C47.9998 25.7376 48.4057 26.4151 49.0559 26.7632C49.7061 27.1111 50.495 27.0731 51.1087 26.6642L51.9996 26.0693L52.8906 26.6633C53.5042 27.0722 54.2929 27.1103 54.9429 26.7624C55.5931 26.4148 55.9991 25.7375 55.9996 25.0003V20.0003H56.9995C57.5518 20.0003 57.9995 20.4481 57.9995 21.0002V31.0002C57.9995 31.5525 57.5518 32.0001 56.9995 32.0001H46.9996C46.4473 32.0001 45.9997 31.5524 45.9997 31.0002L45.9998 21.0001ZM49.9998 34.0002H53.9998V39.0002L53.1088 38.4062C52.4377 37.957 51.5619 37.957 50.8908 38.4062L49.9998 39.0002V34.0002ZM45.9998 45V35.0001C45.9998 34.4478 46.4474 34.0002 46.9997 34.0002H47.9997V39.0002C47.9998 39.7376 48.4057 40.4151 49.0559 40.7631C49.7061 41.1111 50.495 41.0731 51.1087 40.6642L51.9996 40.0693L52.8906 40.6633C53.5042 41.0722 54.2929 41.1102 54.9429 40.7624C55.5929 40.4146 55.9991 39.7375 55.9996 39.0003V34.0003H56.9995C57.5518 34.0003 57.9995 34.448 57.9995 35.0002V45.0002C57.9995 45.5525 57.5518 46.0001 56.9995 46.0001H46.9996C46.4476 46.0001 45.9998 45.5523 45.9998 45ZM37.9999 5.00023C37.9999 4.44793 38.4475 4.00027 38.9998 4.00027C39.5521 4.00027 39.9998 4.44805 39.9998 5.00023V44.685C39.3675 44.3835 38.6932 44.1796 37.9998 44.08V5.00023H37.9999ZM35.9999 24.4141V40.0001H31.9999V30.0002C31.9999 29.735 31.8944 29.4807 31.7069 29.2932L27.914 25.5002L29.7069 23.7073C30.0859 23.3149 30.0805 22.6911 29.6947 22.3055C29.3089 21.9197 28.6853 21.9143 28.2929 22.2933L23.2929 27.2933C23.033 27.5444 22.9287 27.9162 23.0202 28.2658C23.1117 28.6155 23.3848 28.8885 23.7344 28.98C24.084 29.0715 24.4558 28.9672 24.7069 28.7073L26.4999 26.9143L29.9999 30.4141V40.0001H23.5629C22.1059 40.0027 20.6848 39.548 19.4999 38.7002L16.672 36.6812C15.5787 35.9006 14.3237 35.3763 13 35.1472V29.5002C13 27.5672 11.433 26.0001 9.5 26.0001C7.567 26.0001 5.99998 27.5672 5.99998 29.5002V35.0001H3.99995V15.0002H26.5859L35.9999 24.4141ZM11 35.0001H8.00001V29.5002C8.00001 28.6718 8.67161 28.0002 9.5 28.0002C10.3284 28.0002 11 28.6718 11 29.5002V35.0001ZM2.99999 11.0002H29.9999C30.5522 11.0002 30.9998 11.4479 30.9998 12.0002C30.9998 12.5525 30.5521 13.0001 29.9999 13.0001H2.99999C2.44769 13.0001 2.00003 12.5524 2.00003 12.0002C2.00003 11.4479 2.44769 11.0002 2.99999 11.0002ZM2.00003 49.0001V38.0001C2.00003 37.4478 2.4478 37.0001 2.99999 37.0001H11.437C12.8957 36.9965 14.3187 37.4512 15.505 38.3001L18.333 40.3191C19.8569 41.4141 21.6865 42.0022 23.5629 42.0002H35.9999V44.0801C32.9339 44.5259 30.5257 46.9341 30.0799 50.0001H17.9199C17.4256 46.5583 14.4771 44.0029 10.9999 44.0029C7.5227 44.0029 4.57416 46.5583 4.07987 50.0001H2.99999C2.44769 50.0001 2.00003 49.5523 2.00003 49.0001ZM5.99998 51C5.99998 48.2386 8.2386 46 11 46C13.7614 46 16 48.2386 16 51C16 53.7614 13.7614 56 11 56C8.23989 55.9967 6.00326 53.7601 5.99998 51ZM15.8889 56C16.9879 54.9267 17.7018 53.5206 17.9199 52.0001H30.0798C30.2979 53.5207 31.0118 54.9267 32.1108 56H15.8889ZM36.9998 56C34.2384 56 31.9998 53.7614 31.9998 51C31.9998 48.2386 34.2384 46 36.9998 46C39.7612 46 41.9998 48.2386 41.9998 51C41.9966 53.7601 39.7599 55.9967 36.9998 56ZM56.9998 50.0001H43.9198C43.8203 49.3067 43.6163 48.6324 43.3148 48H56.9998C57.5521 48 57.9997 48.4478 57.9997 49C57.9997 49.5523 57.5521 50.0001 56.9998 50.0001Z" fill="#F68B21"/>
<path d="M11 48C9.3432 48 8 49.3432 8 51C8 52.6568 9.3432 54 11 54C12.6568 54 14 52.6568 14 51C14 49.3432 12.6568 48 11 48ZM11 52.0001C10.4477 52.0001 10 51.5524 10 51.0001C10 50.4478 10.4478 50.0002 11 50.0002C11.5523 50.0002 12 50.4478 12 51.0001C12 51.5524 11.5522 52.0001 11 52.0001Z" fill="#F68B21"/>
<path d="M37 48C35.3432 48 34 49.3432 34 51C34 52.6568 35.3432 54 37 54C38.6568 54 40 52.6568 40 51C40 49.3432 38.6569 48 37 48ZM37 52.0001C36.4477 52.0001 36 51.5524 36 51.0001C36 50.4478 36.4478 50.0002 37 50.0002C37.5523 50.0002 38 50.4478 38 51.0001C38 51.5524 37.5523 52.0001 37 52.0001Z" fill="#F68B21"/>
<path d="M55.9999 58.0002C56.5522 58.0002 56.9999 57.5525 56.9999 57.0002C56.9999 56.4479 56.5522 56.0002 55.9999 56.0002H52C51.4477 56.0002 51 56.4479 51 57.0002C51 57.5525 51.4478 58.0002 52 58.0002H55.9999Z" fill="#F68B21"/>
</g>
<defs>
<clipPath id="clip0_2_19214">
<rect width="60" height="60" fill="white"/>
</clipPath>
</defs>
</svg>
