<svg width="60" height="60" viewBox="0 0 60 60" fill="none" xmlns="http://www.w3.org/2000/svg">
<g clip-path="url(#clip0_778_1258)">
<path d="M43.125 19.6875H56.25C57.8006 19.6875 59.0625 18.4256 59.0625 16.875V3.75C59.0625 2.19937 57.8006 0.9375 56.25 0.9375H43.125C41.5744 0.9375 40.3125 2.19937 40.3125 3.75V15H33.0984L32.7234 11.25H27.2766L26.9016 15H17.8125V17.3578L23.28 21.2625C21.96 22.5525 21.0516 24.2531 20.7469 26.1553L3.49313 24.5241C2.84531 24.4575 2.18719 24.6797 1.70156 25.1212C1.21594 25.5628 0.9375 26.1919 0.9375 26.8491C0.9375 29.1778 2.60812 31.1269 4.91062 31.4813L18.7997 33.6244C19.2009 36.8606 21.9684 39.375 25.3125 39.375H34.6875C38.0316 39.375 40.7991 36.8606 41.2003 33.6244L55.0894 31.4813C57.3919 31.1259 59.0625 29.1778 59.0625 26.8491C59.0625 26.1928 58.7841 25.5628 58.2984 25.1212C57.8128 24.6797 57.165 24.4584 56.5069 24.5241L39.2531 26.1553C38.9484 24.2531 38.0391 22.5525 36.72 21.2625L40.7569 18.3797C41.2566 19.1634 42.1284 19.6875 43.125 19.6875ZM47.8125 2.8125H51.5625V6.5625H47.8125V2.8125ZM42.1875 3.75C42.1875 3.2325 42.6084 2.8125 43.125 2.8125H45.9375V8.4375H53.4375V2.8125H56.25C56.7666 2.8125 57.1875 3.2325 57.1875 3.75V16.875C57.1875 17.3925 56.7666 17.8125 56.25 17.8125H43.125C42.6084 17.8125 42.1875 17.3925 42.1875 16.875V3.75ZM31.0266 13.125L31.5956 18.8138C31.2609 18.7753 30.9216 18.75 30.5766 18.75H29.4244C29.0794 18.75 28.74 18.7753 28.4053 18.8138L28.9734 13.125H31.0266ZM20.3634 16.875H26.7141L26.475 19.2694C25.8937 19.4766 25.3425 19.7428 24.825 20.0616L20.3634 16.875ZM20.625 32.8125V32.0091L5.19562 29.6288C3.81469 29.415 2.8125 28.2469 2.8125 26.8491C2.8125 26.6719 2.90719 26.5594 2.96344 26.5087C3.01969 26.4581 3.14062 26.3794 3.31594 26.3906L20.6475 28.0284C20.6991 28.9847 20.8959 29.9212 21.2541 30.8156L22.7016 34.4325C23.1806 35.6306 23.9334 36.6497 24.8606 37.4541C22.4906 37.2234 20.625 35.2425 20.625 32.8125ZM56.6841 26.3897C56.8622 26.3766 56.9803 26.4562 57.0366 26.5078C57.0928 26.5594 57.1875 26.6709 57.1875 26.8491C57.1875 28.2469 56.1853 29.415 54.8044 29.6288L39.375 32.0091V32.8125C39.375 35.2425 37.5094 37.2234 35.1394 37.4541C36.0666 36.6497 36.8194 35.6316 37.2984 34.4325L38.7459 30.8156C39.1041 29.9212 39.3 28.9847 39.3525 28.0284L56.6841 26.3897ZM37.5 27.5484C37.5 28.4325 37.3331 29.2978 37.005 30.12L35.5584 33.7369C34.6434 36.0234 32.4619 37.5 30 37.5C27.5381 37.5 25.3566 36.0234 24.4416 33.7369L22.995 30.12C22.6669 29.2978 22.5 28.4325 22.5 27.5484C22.5 23.7309 25.6059 20.625 29.4234 20.625H30.5756C34.3941 20.625 37.5 23.7309 37.5 27.5484ZM33.525 19.2694L33.2859 16.875H39.6375L35.175 20.0616C34.6575 19.7428 34.1062 19.4766 33.525 19.2694Z" fill="#F68B21"/>
<path d="M53.4375 14.0625H55.3125V15.9375H53.4375V14.0625Z" fill="#F68B21"/>
<path d="M49.6875 14.0625H51.5625V15.9375H49.6875V14.0625Z" fill="#F68B21"/>
<path d="M25.4557 24.375L24.2061 31.875H35.7945L34.5448 24.375H25.4557ZM27.0439 26.25H29.0623V30H26.4195L27.0439 26.25ZM30.9373 30V26.25H32.9557L33.5811 30H30.9373Z" fill="#F68B21"/>
<path d="M12.1875 36.5625C5.98406 36.5625 0.9375 41.6091 0.9375 47.8125C0.9375 54.0159 5.98406 59.0625 12.1875 59.0625C18.3909 59.0625 23.4375 54.0159 23.4375 47.8125C23.4375 41.6091 18.3909 36.5625 12.1875 36.5625ZM12.1875 57.1875C11.2791 57.1875 10.3181 56.1272 9.59531 54.375H14.7806C14.0569 56.1272 13.0959 57.1875 12.1875 57.1875ZM8.98688 52.5C8.70938 51.3872 8.51906 50.1234 8.45906 48.75H15.9159C15.8559 50.1234 15.6656 51.3872 15.3881 52.5H8.98688ZM2.86031 48.75H6.585C6.63563 50.0916 6.79313 51.3506 7.04344 52.5H4.08094C3.4275 51.375 2.99531 50.1066 2.86031 48.75ZM12.1875 38.4375C13.0959 38.4375 14.0569 39.4978 14.7797 41.25H9.59438C10.3181 39.4978 11.2791 38.4375 12.1875 38.4375ZM15.3881 43.125C15.6656 44.2378 15.8559 45.5016 15.9159 46.875H8.45906C8.51906 45.5016 8.70938 44.2378 8.98688 43.125H15.3881ZM6.585 46.875H2.86031C2.99531 45.5184 3.42844 44.25 4.08094 43.125H7.0425C6.79313 44.2744 6.63563 45.5334 6.585 46.875ZM17.79 48.75H21.5147C21.3797 50.1066 20.9466 51.375 20.2941 52.5H17.3325C17.5819 51.3506 17.7394 50.0916 17.79 48.75ZM17.79 46.875C17.7394 45.5334 17.5819 44.2744 17.3316 43.125H20.2931C20.9466 44.25 21.3787 45.5184 21.5137 46.875H17.79ZM18.8709 41.25H16.8094C16.5441 40.4859 16.2319 39.7969 15.8784 39.1978C17.0081 39.6834 18.0216 40.3856 18.8709 41.25ZM8.49563 39.1978C8.14219 39.7969 7.83094 40.4859 7.56469 41.25H5.50406C6.35344 40.3856 7.36688 39.6834 8.49563 39.1978ZM5.50406 54.375H7.56562C7.83094 55.1391 8.14312 55.8281 8.49656 56.4272C7.36687 55.9416 6.35344 55.2394 5.50406 54.375ZM15.8794 56.4272C16.2328 55.8272 16.5441 55.1391 16.8103 54.375H18.8719C18.0216 55.2394 17.0081 55.9416 15.8794 56.4272Z" fill="#F68B21"/>
<path d="M25.3123 7.68097V11.8294L35.8461 6.56253L25.3123 1.29565V5.77784C18.1132 7.08378 12.2201 10.8197 8.66699 16.3697L10.2467 17.3803C13.4595 12.361 18.7836 8.94753 25.3123 7.68097ZM27.1873 4.3294L31.6536 6.56253L27.1873 8.79565V4.3294Z" fill="#F68B21"/>
<path d="M9.20137 19.1831L7.53918 18.3169C7.20824 18.9516 6.90168 19.6069 6.62793 20.2641L8.35855 20.986C8.61262 20.3766 8.89574 19.771 9.20137 19.1831Z" fill="#F68B21"/>
<path d="M7.69305 22.7887L5.90898 22.2122C5.70367 22.8468 5.52086 23.5022 5.36523 24.1603L7.18961 24.5906C7.33398 23.9812 7.50274 23.3756 7.69305 22.7887Z" fill="#F68B21"/>
<path d="M34.6871 52.319V48.1706L24.1533 53.4374L34.6871 58.7043V54.2221C41.8861 52.9162 47.7793 49.1803 51.3324 43.6303L49.7527 42.6196C46.5399 47.639 41.2158 51.0524 34.6871 52.319ZM32.8121 55.6706L28.3458 53.4374L32.8121 51.2043V55.6706Z" fill="#F68B21"/>
<path d="M50.7988 40.817L52.461 41.6832C52.7919 41.0485 53.0985 40.3932 53.3723 39.736L51.6416 39.0142C51.3876 39.6235 51.1045 40.2292 50.7988 40.817Z" fill="#F68B21"/>
<path d="M52.3066 37.2113L54.0907 37.7879C54.296 37.1532 54.4788 36.4979 54.6345 35.8397L52.8101 35.4094C52.6657 36.0188 52.497 36.6244 52.3066 37.2113Z" fill="#F68B21"/>
</g>
<defs>
<clipPath id="clip0_778_1258">
<rect width="60" height="60" fill="white"/>
</clipPath>
</defs>
</svg>
