<svg width="60" height="60" viewBox="0 0 60 60" fill="none" xmlns="http://www.w3.org/2000/svg">
<g clip-path="url(#clip0_2_19298)">
<path d="M48.753 45C48.6855 45 48.6155 44.995 48.5455 44.9825C47.8655 44.87 47.4055 44.225 47.518 43.545L49.443 31.945C49.7055 30.4125 48.9905 28.86 47.6655 28.0749L36.793 21.7024C36.198 21.3524 35.998 20.5874 36.3455 19.9899C36.698 19.3949 37.4655 19.1999 38.058 19.5424L48.9355 25.9174C51.153 27.2275 52.343 29.8175 51.908 32.36L49.983 43.9525C49.883 44.565 49.353 45 48.753 45Z" fill="#F68B21"/>
<path d="M11.2476 45.0001C10.6476 45.0001 10.1176 44.5651 10.0176 43.9551L8.09261 32.3551C7.65761 29.8176 8.85011 27.2301 11.0626 25.9226L22.0451 19.4726C22.6276 19.1226 23.4026 19.3176 23.7551 19.9176C24.1051 20.5101 23.9051 21.2776 23.3076 21.6251L12.3301 28.0751C11.0101 28.8576 10.2951 30.4126 10.5576 31.9376L12.4826 43.5451C12.5951 44.2251 12.1351 44.8701 11.4551 44.9826C11.3851 44.9951 11.3151 45.0001 11.2476 45.0001Z" fill="#F68B21"/>
<path d="M29.99 59.9999C29.8125 59.9999 29.63 59.9599 29.4625 59.8824L15.7225 53.4974C15.2825 53.2924 15 52.8524 15 52.3649V37.6324C15 37.2049 15.2175 36.8074 15.5775 36.5774C15.935 36.3474 16.385 36.3174 16.775 36.4999L30.515 42.8849C30.955 43.0899 31.2375 43.5324 31.2375 44.0174V58.7499C31.2375 59.1774 31.02 59.5749 30.66 59.8049C30.46 59.9349 30.225 59.9999 29.99 59.9999ZM17.5 51.5674L28.74 56.7924V44.8174L17.5 39.5924V51.5674Z" fill="#F68B21"/>
<path d="M30.0098 60.0001C29.7748 60.0001 29.5398 59.9351 29.3373 59.8051C28.9748 59.5751 28.7598 59.1776 28.7598 58.7501V44.0176C28.7598 43.5326 29.0423 43.0901 29.4823 42.8851L43.2223 36.5001C43.6098 36.3201 44.0623 36.3476 44.4198 36.5776C44.7823 36.8101 44.9998 37.2076 44.9998 37.6351V52.3676C44.9998 52.8526 44.7173 53.2951 44.2773 53.5001L30.5373 59.8851C30.3673 59.9601 30.1873 60.0001 30.0098 60.0001ZM31.2598 44.8176V56.7926L42.4998 51.5676V39.5926L31.2598 44.8176Z" fill="#F68B21"/>
<path d="M43.7499 38.885C43.5724 38.885 43.3924 38.8475 43.2224 38.7675L30.0099 32.6275L16.7749 38.7675C16.1549 39.065 15.4049 38.7875 15.1174 38.16C14.8274 37.535 15.0974 36.7925 15.7249 36.5025L29.4849 30.1175C29.8174 29.9625 30.1999 29.9625 30.5374 30.1175L44.2774 36.5025C44.9024 36.7925 45.1724 37.535 44.8824 38.1625C44.6724 38.615 44.2199 38.885 43.7499 38.885Z" fill="#F68B21"/>
<path d="M37.5004 47.5C36.8104 47.5 36.2504 46.94 36.2504 46.25V41.35L23.3629 35.2025C22.7379 34.905 22.4754 34.16 22.7729 33.5375C23.0704 32.915 23.8179 32.65 24.4379 32.9475L37.9554 39.3925C38.4179 39.58 38.7504 40.0275 38.7504 40.55V46.25C38.7504 46.94 38.1904 47.5 37.5004 47.5Z" fill="#F68B21"/>
<path d="M8.92285 20H6.42285C4.35535 20 2.67285 18.3175 2.67285 16.25V11.25C2.67285 9.1825 4.35535 7.5 6.42285 7.5H8.92285C10.9904 7.5 12.6729 9.1825 12.6729 11.25V16.25C12.6729 18.3175 10.9904 20 8.92285 20ZM6.42285 10C5.73535 10 5.17285 10.5625 5.17285 11.25V16.25C5.17285 16.9375 5.73535 17.5 6.42285 17.5H8.92285C9.61035 17.5 10.1729 16.9375 10.1729 16.25V11.25C10.1729 10.5625 9.61035 10 8.92285 10H6.42285Z" fill="#F68B21"/>
<path d="M13.75 2.5H1.25C0.56 2.5 0 1.94 0 1.25C0 0.56 0.56 0 1.25 0H13.75C14.44 0 15 0.56 15 1.25C15 1.94 14.44 2.5 13.75 2.5Z" fill="#F68B21"/>
<path d="M7.5 10C6.81 10 6.25 9.44 6.25 8.75V1.25C6.25 0.56 6.81 0 7.5 0C8.19 0 8.75 0.56 8.75 1.25V8.75C8.75 9.44 8.19 10 7.5 10Z" fill="#F68B21"/>
<path d="M53.9229 20H51.4229C49.3554 20 47.6729 18.3175 47.6729 16.25V11.25C47.6729 9.1825 49.3554 7.5 51.4229 7.5H53.9229C55.9904 7.5 57.6729 9.1825 57.6729 11.25V16.25C57.6729 18.3175 55.9904 20 53.9229 20ZM51.4229 10C50.7354 10 50.1729 10.5625 50.1729 11.25V16.25C50.1729 16.9375 50.7354 17.5 51.4229 17.5H53.9229C54.6104 17.5 55.1729 16.9375 55.1729 16.25V11.25C55.1729 10.5625 54.6104 10 53.9229 10H51.4229Z" fill="#F68B21"/>
<path d="M58.75 2.5H46.25C45.56 2.5 45 1.94 45 1.25C45 0.56 45.56 0 46.25 0H58.75C59.44 0 60 0.56 60 1.25C60 1.94 59.44 2.5 58.75 2.5Z" fill="#F68B21"/>
<path d="M52.5 10C51.81 10 51.25 9.44 51.25 8.75V1.25C51.25 0.56 51.81 0 52.5 0C53.19 0 53.75 0.56 53.75 1.25V8.75C53.75 9.44 53.19 10 52.5 10Z" fill="#F68B21"/>
<path d="M30.1748 25C25.9848 25 22.2498 22.8425 20.2523 19.3675C19.5898 18.215 18.3548 17.5 17.0298 17.5H11.4248C10.7348 17.5 10.1748 16.94 10.1748 16.25C10.1748 15.56 10.7348 15 11.4248 15H17.0273C19.2448 15 21.3098 16.1975 22.4198 18.12C23.9748 20.8225 26.8773 22.5 29.9998 22.5C33.2948 22.5 36.1973 20.8225 37.7548 18.1225C38.8598 16.1975 40.9273 15 43.1473 15H47.4998V12.5H43.1473C40.9273 12.5 38.8598 11.3025 37.7548 9.3775C36.1973 6.6775 33.2948 5 30.1748 5C26.8773 5 23.9748 6.6775 22.4198 9.3775C21.3098 11.3025 19.2448 12.5 17.0298 12.5H11.4248C10.7348 12.5 10.1748 11.94 10.1748 11.25C10.1748 10.56 10.7348 10 11.4248 10H17.0273C18.3523 10 19.5873 9.285 20.2523 8.13C22.2498 4.6575 25.9873 2.5 29.9998 2.5C34.1873 2.5 37.9223 4.6575 39.9223 8.1325C40.5823 9.285 41.8198 10 43.1473 10H48.7498C49.4398 10 49.9998 10.56 49.9998 11.25V16.25C49.9998 16.94 49.4398 17.5 48.7498 17.5H43.1473C41.8198 17.5 40.5848 18.215 39.9223 19.3675C37.9223 22.8425 34.1873 25 30.1748 25Z" fill="#F68B21"/>
</g>
<defs>
<clipPath id="clip0_2_19298">
<rect width="60" height="60" fill="white"/>
</clipPath>
</defs>
</svg>
