<svg width="50" height="50" viewBox="0 0 50 50" fill="none" xmlns="http://www.w3.org/2000/svg">
<g clip-path="url(#clip0_517_415)">
<path d="M49.2574 14.9835H44.3575V13.115C44.3575 12.7048 44.025 12.3722 43.6147 12.3722H41.2716C40.8614 12.3722 40.5288 12.7047 40.5288 13.115V14.9835H36.4938C36.0837 14.9835 35.751 15.316 35.751 15.7262V20.4873C35.751 20.8974 36.0836 21.2301 36.4938 21.2301H40.5288V30.2836H34.6741V12.1208C34.6741 9.01849 32.1591 6.50354 29.0568 6.50354H21.8342V5.37082C22.7762 5.17287 23.4858 4.33595 23.4858 3.33605V1.8878H24.622C25.7561 1.8878 26.6754 2.80724 26.6754 3.94123V4.26496C26.6754 4.6717 26.9888 5.02629 27.3952 5.0385C27.8159 5.05119 28.1609 4.71388 28.1609 4.29601V3.94132C28.1609 1.98682 26.5765 0.402344 24.6219 0.402344H22.743H19.2152H17.3363C15.3818 0.402344 13.7974 1.98673 13.7974 3.94123V4.26496C13.7974 4.6717 14.1108 5.02629 14.5173 5.0385C14.9379 5.05119 15.2829 4.71388 15.2829 4.29601V3.94132C15.2829 2.80724 16.2023 1.8878 17.3364 1.8878H18.4726V3.33605C18.4726 4.41408 19.2974 5.30285 20.3489 5.40529V6.50354H12.9014C9.79908 6.50354 7.28413 9.01849 7.28413 12.1208V32.9956C7.28413 34.5245 7.89888 35.9123 8.89341 36.926L0.160763 48.3801C-0.0806445 48.6968 -0.0502734 49.1562 0.25256 49.4148C0.393771 49.5354 0.565256 49.5936 0.735374 49.5936C0.959106 49.5936 1.1804 49.4928 1.32659 49.3011L10.064 37.8408C10.2338 37.9406 10.4092 38.0314 10.5898 38.1132L4.35404 48.4676C4.14242 48.8189 4.2557 49.2754 4.60717 49.487C4.72709 49.5592 4.85912 49.5936 4.98959 49.5936C5.24145 49.5936 5.48715 49.4654 5.6266 49.2339L8.34087 44.7268H33.6137L36.3276 49.2339C36.4671 49.4654 36.7128 49.5936 36.9647 49.5936C37.0952 49.5936 37.2272 49.5592 37.347 49.487C37.6985 49.2754 37.8118 48.8189 37.6003 48.4676L31.3662 38.1143C31.5467 38.0325 31.7221 37.9418 31.8918 37.842L40.6277 49.3009C40.7739 49.4927 40.9951 49.5935 41.2189 49.5935C41.3891 49.5935 41.561 49.5352 41.7022 49.4142C42.0047 49.1554 42.0347 48.6963 41.7934 48.3798L33.0629 36.9282C33.3637 36.6218 33.6303 36.2819 33.8551 35.9136L48.4494 49.4003C48.5923 49.5323 48.7731 49.5976 48.9533 49.5976C49.1532 49.5976 49.3527 49.5174 49.499 49.3589C49.7775 49.0576 49.7589 48.5877 49.4576 48.3093L34.6741 34.648V32.9957V32.6731L48.4618 44.849C48.603 44.9738 48.7784 45.0349 48.9531 45.0349C49.1587 45.0349 49.3634 44.9501 49.5102 44.7838C49.7818 44.4763 49.7526 44.0069 49.4451 43.7354L35.8946 31.769H41.2717H43.6148H48.9225C49.3292 31.769 49.6838 31.4556 49.696 31.0491C49.7087 30.6285 49.3714 30.2835 48.9535 30.2835H44.3574V21.23H45.0486C45.4588 21.23 45.7914 20.8974 45.7914 20.4872C45.7914 20.077 45.4589 19.7444 45.0486 19.7444H37.2365V16.4688H48.5146V19.7444H48.0198C47.6097 19.7444 47.2771 20.0769 47.2771 20.4872C47.2771 20.8973 47.6096 21.23 48.0198 21.23H49.2573C49.6675 21.23 50.0001 20.8974 50.0001 20.4872V15.7261C50.0001 15.3161 49.6676 14.9835 49.2574 14.9835ZM19.9579 3.33605V1.8878H22.0002V3.33605C22.0002 3.66368 21.7337 3.93009 21.4062 3.93009H20.5521C20.2244 3.93009 19.9579 3.66359 19.9579 3.33605ZM31.5883 41.3632L32.7193 43.2415H9.23541L10.3666 41.3632H31.5883ZM25.2086 38.6129H29.0568C29.3414 38.6129 29.6211 38.5913 29.8945 38.5502L30.6938 39.8776H11.2611L12.0607 38.5499C12.335 38.5912 12.6157 38.6129 12.9013 38.6129H16.7495H25.2086ZM17.4923 37.1276V36.3593C17.4923 35.598 18.1116 34.9788 18.8728 34.9788H23.0853C23.8465 34.9788 24.4658 35.5981 24.4658 36.3593V37.1276H17.4923ZM33.1886 32.9956C33.1886 34.9185 31.8684 36.5386 30.0869 36.9974C30.0858 36.9977 30.0846 36.9979 30.0833 36.9982C29.7549 37.0825 29.411 37.1274 29.0567 37.1274H25.9513V36.3591C25.9513 34.7787 24.6655 33.493 23.0852 33.493H18.8727C17.2924 33.493 16.0066 34.7787 16.0066 36.3591V37.1274H12.9011C10.6228 37.1274 8.76929 35.2739 8.76929 32.9955V12.1208C8.76929 9.84252 10.6228 7.98899 12.9011 7.98899H29.0567C31.335 7.98899 33.1885 9.84252 33.1885 12.1208V32.9956H33.1886ZM42.0143 21.2301H42.8721V30.2836H42.0143V21.2301ZM42.8721 14.9836H42.0143V13.8579H42.8721V14.9836Z" fill="white"/>
<path d="M31.1843 12.4123H24.3253C23.9849 10.8781 22.6144 9.72705 20.9791 9.72705C19.3439 9.72705 17.9734 10.8781 17.6329 12.4123H10.7745C10.3644 12.4123 10.0317 12.7448 10.0317 13.1551V16.7575C10.0317 17.1676 10.3643 17.5002 10.7745 17.5002C11.1847 17.5002 11.5173 17.1677 11.5173 16.7575V13.8978H17.6328C17.9731 15.4322 19.3438 16.5834 20.979 16.5834C22.6143 16.5834 23.985 15.4322 24.3253 13.8978H30.4413V25.303H11.5173V20.2237C11.5173 19.8135 11.1848 19.4809 10.7745 19.4809C10.3644 19.4809 10.0317 19.8134 10.0317 20.2237V26.0458C10.0319 26.456 10.3645 26.7886 10.7747 26.7886H31.1843C31.5944 26.7886 31.927 26.4561 31.927 26.0459V13.155C31.927 12.7448 31.5944 12.4123 31.1843 12.4123ZM20.9792 15.0981C19.908 15.0981 19.0366 14.2266 19.0366 13.1554C19.0366 12.0842 19.908 11.2127 20.9792 11.2127C22.0504 11.2127 22.9219 12.0842 22.9219 13.1554C22.9219 14.2266 22.0504 15.0981 20.9792 15.0981Z" fill="white"/>
<path d="M16.0317 27.8096H10.7745C10.3644 27.8096 10.0317 28.1421 10.0317 28.5523V31.2373C10.0317 31.6475 10.3643 31.9801 10.7745 31.9801H16.0317C16.4418 31.9801 16.7744 31.6476 16.7744 31.2373V28.5523C16.7743 28.1421 16.4418 27.8096 16.0317 27.8096ZM15.2889 30.4945H11.5173V29.295H15.2889V30.4945Z" fill="white"/>
<path d="M31.184 27.8096H25.9269C25.5167 27.8096 25.1841 28.1421 25.1841 28.5523V31.2373C25.1841 31.6475 25.5166 31.9801 25.9269 31.9801H31.184C31.5942 31.9801 31.9268 31.6476 31.9268 31.2373V28.5523C31.9268 28.1421 31.5942 27.8096 31.184 27.8096ZM30.4412 30.4945H26.6696V29.295H30.4412V30.4945Z" fill="white"/>
</g>
<defs>
<clipPath id="clip0_517_415">
<rect width="50" height="50" fill="white"/>
</clipPath>
</defs>
</svg>
