<svg width="50" height="50" viewBox="0 0 50 50" fill="none" xmlns="http://www.w3.org/2000/svg">
<path fill-rule="evenodd" clip-rule="evenodd" d="M15.3735 0.0827013C14.36 0.396592 13.5357 1.15028 13.216 2.05529C13.0765 2.45039 13.0348 3.6622 13.0348 7.31837C13.0348 12.0388 13.0366 12.0718 13.3469 12.6537C13.732 13.3761 14.2084 13.8356 14.9064 14.1573C15.4053 14.3873 15.9396 14.4041 22.8857 14.4067L30.3302 14.4097L33.0663 16.0153C34.5711 16.8983 35.9286 17.6208 36.083 17.6208C36.4701 17.6208 36.8674 17.1875 36.9655 16.6583C37.0106 16.415 37.029 13.1152 37.0064 9.32535C36.9687 3.02626 36.9445 2.38885 36.7242 1.89955C36.4194 1.22266 35.9106 0.684124 35.2273 0.315109C34.6951 0.0277102 34.6483 0.0262385 25.2005 0.00269002C19.9799 -0.0104222 15.5578 0.0257033 15.3735 0.0827013ZM34.657 2.22294L35.0936 2.61336L35.1273 8.77905C35.1459 12.1703 35.1158 14.9449 35.0604 14.9449C35.0052 14.9449 34.0274 14.403 32.8877 13.7407L30.8155 12.5365H23.2226H15.6295L15.3122 12.2189C14.8587 11.765 14.8166 11.2429 14.8642 6.67173L14.9064 2.61309L15.343 2.22294L15.7797 1.83265H25H34.2203L34.657 2.22294ZM19.1441 5.40145C18.019 5.95631 18.0324 7.76566 19.1654 8.3038C19.4187 8.42408 19.7582 8.52256 19.9198 8.52256C20.4064 8.52256 21.1223 8.10899 21.3294 7.7084C21.7695 6.85664 21.4616 5.77033 20.6742 5.39636C20.0976 5.12248 19.707 5.12382 19.1441 5.40145ZM24.3316 5.47116C23.6723 5.91804 23.4088 6.69541 23.6773 7.4012C24.1344 8.60324 25.5668 8.881 26.4326 7.93559C26.7937 7.54115 26.8717 7.34861 26.8717 6.85008C26.8717 5.54234 25.4028 4.74503 24.3316 5.47116ZM29.7191 5.43985C28.9076 5.9349 28.6595 6.8929 29.139 7.67976C29.8067 8.7757 31.2896 8.7757 31.9572 7.67976C32.4467 6.87657 32.143 5.82318 31.296 5.38486C30.758 5.10642 30.2356 5.12462 29.7191 5.43985ZM20.0535 6.85008C20.0535 6.96046 19.9933 7.05078 19.9198 7.05078C19.8463 7.05078 19.7861 6.96046 19.7861 6.85008C19.7861 6.7397 19.8463 6.64938 19.9198 6.64938C19.9933 6.64938 20.0535 6.7397 20.0535 6.85008ZM25.4011 6.85008C25.4011 6.96046 25.3445 7.05078 25.2753 7.05078C25.1067 7.05078 24.986 6.84178 25.0928 6.73488C25.2433 6.58422 25.4011 6.64323 25.4011 6.85008ZM30.625 6.81998C30.6084 6.98 30.4251 6.94896 30.3676 6.77649C30.3382 6.68818 30.3864 6.64002 30.4746 6.66945C30.5628 6.69889 30.6305 6.76659 30.625 6.81998ZM42.2135 21.2379C41.1421 21.4184 39.8959 21.8931 39.012 22.4574C38.548 22.7536 37.2896 23.8696 36.2154 24.9375L34.2623 26.8789L34.1952 26.2829C34.0345 24.8561 32.9824 23.4358 31.5729 22.7429L30.8155 22.3707H23.7299H16.6444L15.9091 22.7342C15.3302 23.0205 14.3505 23.9229 11.3035 26.9765L7.43329 30.8551L6.73262 30.192C5.62794 29.1463 5.71043 29.1063 2.64412 32.1751C0.397995 34.423 0 34.8809 0 35.2176C0 35.5626 0.928877 36.5435 7.18717 42.807C13.4456 49.0704 14.4257 50 14.7705 50C15.1068 50 15.5644 49.6017 17.8104 47.3537C20.8159 44.346 20.8092 44.3583 19.9261 43.3993L19.3976 42.8255L21.1979 41.0274L22.998 39.2292L28.912 39.1623C34.7235 39.0967 34.8378 39.0901 35.4947 38.7888C36.4309 38.3592 50 24.8243 50 24.3201C50 23.7939 48.7428 22.6818 47.44 22.0554C45.7146 21.2259 43.936 20.9477 42.2135 21.2379ZM44.7389 23.0976C45.6783 23.276 46.7928 23.7199 47.2594 24.1019L47.6604 24.4301L41.5775 30.5282C37.0099 35.1073 35.3299 36.7089 34.8334 36.9578L34.1721 37.2892H28.7413C24.1489 37.2892 23.1992 37.3222 22.5892 37.5035C21.9476 37.6942 21.6557 37.927 19.9532 39.6059L18.0386 41.4938L13.3983 36.8496L8.75775 32.2055L12.5674 28.3785C14.6627 26.2736 16.5706 24.4672 16.8072 24.3643C17.1564 24.2121 18.4523 24.1772 23.6922 24.1783L30.1471 24.1796L30.8404 24.5026C32.8572 25.4424 32.8524 28.219 30.8321 29.3006C30.3103 29.58 30.0909 29.598 26.738 29.6391C23.7378 29.6759 23.1594 29.715 22.9612 29.894C22.6353 30.1888 22.6607 30.8988 23.0086 31.2141C23.2705 31.4516 23.5787 31.4716 27.5206 31.5082C29.8475 31.5298 31.9017 31.5103 32.0856 31.4649C32.2794 31.417 33.9361 29.875 36.0294 27.7942C39.0548 24.7868 39.7778 24.1367 40.4961 23.7773C41.8912 23.0794 43.3836 22.8403 44.7389 23.0976ZM16.4778 46.019L14.7751 47.7268L8.5246 41.4722L2.27406 35.2177L3.97674 33.5099L5.67941 31.8021L11.9299 38.0566L18.1805 44.3112L16.4778 46.019Z" fill="#DFB68D"/>
</svg>
