<svg width="50" height="50" viewBox="0 0 50 50" fill="none" xmlns="http://www.w3.org/2000/svg">
<g clip-path="url(#clip0_148_648)">
<path d="M10.7422 12.3053C10.2031 12.3053 9.76562 12.7428 9.76562 13.2819C9.76562 13.8209 10.2031 14.2584 10.7422 14.2584C11.2812 14.2584 11.7188 13.8209 11.7188 13.2819C11.7188 12.7428 11.2812 12.3053 10.7422 12.3053Z" fill="white"/>
<path d="M45.9888 20.6572L44.5758 17.8311C44.0762 16.8319 43.0722 16.2113 41.9554 16.2113H33.7877V9.37563C33.7877 7.7603 32.4735 6.44604 30.8581 6.44604H2.92959C1.31416 6.44604 0 7.76021 0 9.37563V34.7652C0 36.3805 1.31416 37.6948 2.92959 37.6948H5.85918C5.85918 39.1942 6.42607 40.5634 7.35586 41.6008H0.976562C0.437207 41.6008 0 42.0381 0 42.5774C0 43.1166 0.437207 43.554 0.976562 43.554H49.0215C49.5608 43.554 49.998 43.1166 49.998 42.5774C49.998 42.0381 49.5608 41.6008 49.0215 41.6008H46.5482C47.4781 40.5633 48.0449 39.1942 48.0449 37.6948C48.0449 37.6391 48.0423 37.5837 48.0407 37.5282C49.1795 37.1262 49.9979 36.0398 49.9979 34.7652V29.3669C49.9979 28.2274 50.2236 29.2913 45.9888 20.6572ZM44.5118 22.0704L47.4414 27.9295H37.6938V22.0704H44.5118ZM1.95303 29.8826H3.90605V31.8356H1.95303V29.8826ZM11.7183 41.6008C9.56445 41.6008 7.81221 39.8485 7.81221 37.6948C7.81221 37.4288 7.83857 37.1669 7.89131 36.9124C8.25859 35.1024 9.86807 33.7886 11.7183 33.7886C13.5685 33.7886 15.178 35.1023 15.5452 36.9124C15.5455 36.9138 15.5458 36.9151 15.5461 36.9165C15.598 37.1668 15.6243 37.4288 15.6243 37.6948C15.6243 39.8486 13.8721 41.6008 11.7183 41.6008ZM11.7183 31.8356C9.21621 31.8356 7.00811 33.4384 6.19404 35.7416H2.92959C2.39111 35.7416 1.95303 35.3036 1.95303 34.7651V33.7885H4.88262C5.42197 33.7885 5.85918 33.3512 5.85918 32.812V28.9059C5.85918 28.3666 5.42197 27.9293 4.88262 27.9293H1.95303V9.37563C1.95303 8.83716 2.39111 8.39907 2.92959 8.39907H30.8581C31.3966 8.39907 31.8347 8.83716 31.8347 9.37563C31.8347 10.1021 31.8347 33.3999 31.8347 35.7417H17.242C16.4265 33.4373 14.2192 31.8356 11.7183 31.8356ZM16.0807 41.6008C17.0105 40.5633 17.5773 39.1942 17.5773 37.6948C18.3271 37.6948 36.0073 37.6948 36.3266 37.6948C36.3266 39.1942 36.8935 40.5634 37.8232 41.6008H16.0807ZM42.1857 41.6008C40.0319 41.6008 38.2797 39.8485 38.2797 37.6948C38.2797 37.4288 38.3061 37.1669 38.3588 36.9124C38.7261 35.1024 40.3355 33.7886 42.1857 33.7886C44.0359 33.7886 45.6455 35.1023 46.0127 36.9124C46.013 36.9138 46.0133 36.9151 46.0136 36.9165C46.0655 37.1668 46.0918 37.4288 46.0918 37.6948C46.0919 39.8486 44.3396 41.6008 42.1857 41.6008ZM48.0449 34.7652C48.0449 35.09 47.8849 35.3774 47.6402 35.5551C46.7739 33.3511 44.6187 31.8357 42.1857 31.8357C39.6837 31.8357 37.4756 33.4385 36.6615 35.7417H33.7876V18.1643H41.9553C42.3275 18.1643 42.6622 18.3713 42.8288 18.7044L43.5353 20.1173H36.7173C36.1779 20.1173 35.7407 20.5546 35.7407 21.0939V28.9061C35.7407 29.4454 36.1779 29.8827 36.7173 29.8827H48.0449V34.7652Z" fill="white"/>
<path d="M26.9526 12.3053H14.6484C14.1091 12.3053 13.6719 12.7426 13.6719 13.2819C13.6719 13.8211 14.1091 14.2584 14.6484 14.2584H26.9526C27.492 14.2584 27.9292 13.8211 27.9292 13.2819C27.9292 12.7426 27.4919 12.3053 26.9526 12.3053Z" fill="white"/>
<path d="M26.9528 16.2113H18.5547C18.0153 16.2113 17.5781 16.6486 17.5781 17.1879C17.5781 17.7271 18.0153 18.1644 18.5547 18.1644H26.9528C27.4922 18.1644 27.9294 17.7271 27.9294 17.1879C27.9294 16.6486 27.4921 16.2113 26.9528 16.2113Z" fill="white"/>
<path d="M42.1854 35.7418C41.1085 35.7418 40.2324 36.618 40.2324 37.6948C40.2324 38.7718 41.1086 39.6479 42.1854 39.6479C43.2624 39.6479 44.1385 38.7717 44.1385 37.6948C44.1385 36.6179 43.2624 35.7418 42.1854 35.7418Z" fill="white"/>
<path d="M11.7187 35.7418C10.6417 35.7418 9.76562 36.618 9.76562 37.6948C9.76562 38.7718 10.6418 39.6479 11.7187 39.6479C12.7956 39.6479 13.6717 38.7717 13.6717 37.6948C13.6717 36.6179 12.7956 35.7418 11.7187 35.7418Z" fill="white"/>
</g>
<defs>
<clipPath id="clip0_148_648">
<rect width="50" height="50" fill="white"/>
</clipPath>
</defs>
</svg>
