<svg width="60" height="60" viewBox="0 0 60 60" fill="none" xmlns="http://www.w3.org/2000/svg">
<g clip-path="url(#clip0_2_21496)">
<path d="M51.2344 30.4426C51.3073 29.6871 51.3459 28.9236 51.3459 28.1629C51.3459 15.3908 40.9544 4.99927 28.1817 4.99927C15.4086 4.99927 5.01758 15.3908 5.01758 28.1629C5.01758 40.9356 15.4091 51.3271 28.1817 51.3271C28.8399 51.3271 29.5015 51.2985 30.1568 51.2432C33.1461 57.3557 39.7481 60.8293 46.4788 59.8312C53.209 58.8332 58.5189 53.5929 59.6055 46.876C60.6927 40.1597 57.3064 33.5124 51.2344 30.4426ZM11.7544 41.57C8.87907 38.044 7.20998 33.6892 6.99312 29.1448H14.556C14.6451 32.3171 15.176 35.4069 16.104 38.1589C14.5207 39.1149 13.0604 40.2607 11.7544 41.57ZM16.104 18.1742C15.176 20.9261 14.6451 23.8982 14.556 27.1926H6.99312C7.18806 22.6424 8.85952 18.2795 11.7544 14.7631C13.0599 16.0728 14.5207 17.2186 16.104 18.1742ZM44.559 14.6997C47.4796 18.2295 49.1687 22.6157 49.3703 27.1926H41.807C41.7179 23.8982 41.1808 20.8918 40.2428 18.127C41.8147 17.1633 43.264 16.0123 44.559 14.7002V14.6997ZM39.8534 27.1926H29.2155V21.4966C32.4536 21.3484 35.6254 20.5296 38.5303 19.0921C39.3334 21.5695 39.7686 24.2643 39.8534 27.1926ZM29.2155 19.5425V7.28651C32.9979 9.3998 36.0672 12.8643 37.8836 17.2438C35.1917 18.6212 32.2358 19.4053 29.2155 19.5425ZM27.2633 19.5425C24.2397 19.4238 21.2776 18.6522 18.5804 17.2801C20.3954 12.8843 23.3589 9.40552 27.2633 7.28699V19.5425ZM27.2633 21.4961V27.1926H16.5096C16.5796 24.4535 17.0405 21.7383 17.8784 19.1298C20.8086 20.5615 24.0047 21.3675 27.2633 21.4971V21.4961ZM16.5096 29.1448H27.2633V34.8293C24.0043 34.9603 20.8081 35.7687 17.8784 37.2023C17.0405 34.5953 16.5796 31.8824 16.5096 29.1448ZM29.2155 48.6343C29.2336 48.7553 29.2689 48.873 29.3199 48.9846C29.2851 49.0036 29.2155 49.0237 29.2155 49.0427V48.6343ZM27.2633 36.7829V49.0394C23.3589 46.9209 20.3954 43.4421 18.5804 39.0454C21.2776 37.6732 24.2397 36.9011 27.2633 36.7829ZM29.2155 40.1139V36.7815C29.5815 36.8015 30.102 36.8358 30.5424 36.883C29.9771 37.9106 29.4595 38.9925 29.2155 40.1144V40.1139ZM32.1614 34.4156C32.0218 34.5843 31.8826 34.7597 31.7468 34.9384C31.7148 34.9804 31.7139 35.0237 31.6824 35.0657C30.8593 34.9427 29.9476 34.8631 29.2155 34.8283V29.1448H39.8534C39.851 29.2668 39.8463 29.3001 39.8434 29.3793C36.8341 30.2462 34.1565 32.002 32.1614 34.4156ZM49.3684 29.1448C49.3613 29.2668 49.3532 29.4751 49.3418 29.64C48.7765 29.4369 48.1984 29.2715 47.6112 29.1448H49.3684ZM43.2478 13.2465C42.1297 14.3913 40.8834 15.4036 39.5341 16.2634C38.029 12.7308 35.8184 9.74486 33.0112 7.50623C36.8956 8.41846 40.4435 10.4083 43.2478 13.2465ZM23.3523 7.50623C20.5317 9.75487 18.3131 12.7585 16.8079 16.314C15.4463 15.4589 14.189 14.4485 13.0599 13.3037C15.8724 10.4355 19.4417 8.42513 23.3523 7.50623ZM13.0599 43.0227C14.189 41.8778 15.4463 40.8674 16.8079 40.0124C18.3131 43.5679 20.5317 46.5715 23.3523 48.8201C19.4417 47.9012 15.8724 45.8909 13.0599 43.0227ZM44.1863 58.0463C38.8683 58.0344 34.0359 54.9498 31.7863 50.1308C31.631 49.7972 31.488 49.4531 31.3607 49.108C31.315 48.9841 31.2711 48.8597 31.2292 48.7343C29.7941 44.4453 30.5691 39.7245 33.3005 36.1195C33.4197 35.9631 33.5417 35.8092 33.6642 35.6619C37.7115 30.7771 44.5885 29.3206 50.2688 32.1441C55.9495 34.968 58.9397 41.3293 57.4899 47.5052C56.0395 53.6806 50.5299 58.0463 44.1863 58.0463Z" fill="white"/>
<path d="M6.43164 45.3111C6.94066 45.9803 7.48304 46.6333 8.04353 47.2519L9.49004 45.9412C8.9672 45.364 8.46057 44.754 7.98491 44.1292L6.43164 45.3111Z" fill="white"/>
<path d="M2.5172 31.2275L0.587891 31.5273C0.703707 32.2718 0.865277 33.0792 1.08261 33.9943L2.9819 33.5443C2.77696 32.6793 2.62492 31.9215 2.5172 31.2275Z" fill="white"/>
<path d="M2.28813 28.3355C2.28813 27.9723 2.29861 27.5972 2.32006 27.2202L0.371207 27.1096C0.347853 27.5233 0.335938 27.9356 0.335938 28.3345C0.335938 28.549 0.339274 28.7668 0.345946 28.9822L2.29718 28.9193C2.29051 28.7253 2.28813 28.529 2.28813 28.3355Z" fill="white"/>
<path d="M3.61911 35.8142L1.76367 36.4214C2.02342 37.2145 2.3213 38.0095 2.64874 38.7825L4.4465 38.0214C4.14052 37.2984 3.86218 36.5558 3.61911 35.8142Z" fill="white"/>
<path d="M5.45475 40.1538L3.72656 41.0613C4.11595 41.8029 4.54109 42.5373 4.98958 43.2422L6.63674 42.1946C6.21685 41.5345 5.81935 40.8478 5.45475 40.1538Z" fill="white"/>
<path d="M27.0458 54.3391C24.2638 54.1908 21.5243 53.5908 18.9344 52.5623C17.8339 52.1214 16.7663 51.6028 15.7397 51.0099C15.3751 50.7993 15.0095 50.5758 14.654 50.3456C14.4776 50.2316 14.3027 50.1153 14.1297 49.9971C13.3638 49.4734 12.6269 48.9086 11.9216 48.3057L10.6523 49.7893C11.4111 50.438 12.2042 51.0457 13.0282 51.609C13.2132 51.7349 13.4029 51.8616 13.593 51.9841C13.9762 52.2324 14.3699 52.4731 14.7631 52.7005C15.8707 53.3396 17.0222 53.8991 18.209 54.3748C20.9948 55.4815 23.9421 56.1278 26.9357 56.2884C27.5043 56.3203 28.3145 56.3494 28.9951 56.3494C29.1128 56.3494 29.2268 56.3484 29.3345 56.3465L29.3016 54.3943C28.6186 54.4058 27.6773 54.3748 27.0458 54.3391Z" fill="white"/>
<path d="M56.6483 29.7542C56.694 28.9268 56.6983 28.0979 56.6611 27.2701C56.3761 20.8682 53.6823 14.3335 49.2713 9.34146C44.4113 3.77085 37.4967 0.414091 30.1135 0.0409064C25.1973 -0.236957 20.1819 0.89642 15.6079 3.31759C12.438 4.99574 9.45014 7.29108 7.13191 9.90338V8.28053H5.17972V12.2693C5.17543 12.815 5.60724 13.2649 6.15295 13.283H10.0602V11.3308H8.50645C10.7284 8.76857 13.5142 6.6529 16.5202 5.06198C20.7801 2.80715 25.4442 1.74192 30.0034 1.99929C38.8479 2.49973 44.5676 6.9708 47.8081 10.6383C51.9294 15.3019 54.4459 21.3949 54.7108 27.3592C54.7452 28.1208 54.7413 28.8834 54.6985 29.6445L56.6483 29.7542Z" fill="white"/>
<path d="M52.6054 37.9853L44.5097 35.3697C44.3176 35.3068 44.1103 35.3068 43.9177 35.3697L35.8407 37.9853C35.4441 38.1188 35.1825 38.4962 35.1958 38.9142V49.9835C35.1834 50.4019 35.447 50.7794 35.8435 50.9124L43.9392 53.528C44.034 53.5595 44.1327 53.5752 44.2323 53.5752C44.3329 53.5752 44.4325 53.5595 44.5283 53.528L52.6078 50.9124C53.0043 50.7794 53.2674 50.4019 53.2545 49.9835V38.9142C53.266 38.4953 53.0029 38.1183 52.6054 37.9853ZM44.2247 37.3243L49.1538 38.9142L44.2247 40.5042L39.2951 38.9142L44.2247 37.3243ZM37.148 40.2545L43.0046 42.1619V51.1802L37.148 49.2729V40.2545ZM44.9568 51.3375V42.3191L51.3014 40.2545V49.2729L44.9568 51.3375Z" fill="white"/>
</g>
<defs>
<clipPath id="clip0_2_21496">
<rect width="60" height="60" fill="white"/>
</clipPath>
</defs>
</svg>
