<?xml version="1.0" standalone="no"?>
<!DOCTYPE svg PUBLIC "-//W3C//DTD SVG 20010904//EN"
 "http://www.w3.org/TR/2001/REC-SVG-20010904/DTD/svg10.dtd">
<svg version="1.0" xmlns="http://www.w3.org/2000/svg"
 width="225.000000pt" height="225.000000pt" viewBox="0 0 225.000000 225.000000"
 preserveAspectRatio="xMidYMid meet">

<g transform="translate(0.000000,225.000000) scale(0.100000,-0.100000)"
fill="#000000" stroke="none">
<path d="M118 2013 c-23 -6 -34 -49 -18 -68 10 -12 47 -15 210 -15 173 0 200
-2 219 -17 19 -15 43 -110 156 -617 74 -330 137 -613 140 -630 5 -28 2 -33
-37 -52 -25 -12 -56 -38 -73 -63 -26 -37 -30 -51 -30 -111 0 -60 4 -74 30
-112 84 -119 255 -121 337 -3 36 51 46 123 25 183 l-15 42 284 0 285 0 -16
-30 c-36 -69 -10 -179 56 -235 43 -35 73 -46 131 -47 181 -1 271 218 141 344
-21 20 -51 42 -66 47 -18 7 -190 11 -492 11 l-465 0 -5 23 c-3 12 -16 71 -30
130 -14 60 -25 115 -25 123 0 12 72 14 469 14 l470 0 26 23 c29 24 335 713
335 753 0 12 -9 32 -19 45 l-19 24 -729 2 -728 3 -16 71 c-19 80 -40 115 -90
144 -31 18 -54 20 -229 22 -107 1 -203 -1 -212 -4z m1924 -385 c-14 -35 -81
-187 -147 -338 l-120 -275 -470 0 -469 0 -73 320 c-39 176 -72 328 -73 338 0
16 39 17 690 17 l689 0 -27 -62z m-1127 -1078 c54 -12 85 -52 85 -108 0 -94
-88 -149 -170 -107 -41 21 -60 53 -60 103 0 54 12 78 53 102 36 23 38 23 92
10z m973 -35 c46 -49 45 -101 -2 -153 -31 -33 -39 -37 -85 -37 -44 0 -55 4
-83 33 -28 28 -33 39 -33 81 0 39 5 55 24 75 52 55 128 56 179 1z"/>
</g>
</svg>
